G75*
%MOIN*%
%OFA0B0*%
%FSLAX25Y25*%
%IPPOS*%
%LPD*%
%AMOC8*
5,1,8,0,0,1.08239X$1,22.5*
%
%ADD10C,0.00004*%
%ADD11C,0.00600*%
%ADD12C,0.00300*%
%ADD13C,0.01600*%
%ADD14C,0.00800*%
D10*
X0008874Y0037220D02*
X0037220Y0008874D01*
X0197063Y0008874D01*
X0201787Y0013598D01*
X0201787Y0212811D01*
X0197063Y0217535D01*
X0013598Y0217535D01*
X0008874Y0212811D01*
X0008874Y0037220D01*
D11*
X0095703Y0154843D02*
X0095703Y0158046D01*
X0096771Y0159114D01*
X0097839Y0158046D01*
X0097839Y0154843D01*
X0099974Y0154843D02*
X0099974Y0159114D01*
X0098906Y0159114D01*
X0097839Y0158046D01*
X0102149Y0158046D02*
X0102149Y0155911D01*
X0103216Y0154843D01*
X0105352Y0154843D01*
X0106419Y0155911D01*
X0106419Y0158046D01*
X0105352Y0159114D01*
X0103216Y0159114D01*
X0102149Y0158046D01*
X0108594Y0159114D02*
X0111797Y0159114D01*
X0112865Y0158046D01*
X0112865Y0155911D01*
X0111797Y0154843D01*
X0108594Y0154843D01*
X0115020Y0154843D02*
X0116087Y0154843D01*
X0116087Y0155911D01*
X0115020Y0155911D01*
X0115020Y0154843D01*
X0118263Y0154843D02*
X0121465Y0154843D01*
X0122533Y0155911D01*
X0122533Y0158046D01*
X0121465Y0159114D01*
X0118263Y0159114D01*
X0118263Y0161249D02*
X0118263Y0154843D01*
X0124695Y0154843D02*
X0126830Y0154843D01*
X0125762Y0154843D02*
X0125762Y0161249D01*
X0126830Y0161249D01*
X0129005Y0158046D02*
X0130073Y0159114D01*
X0132208Y0159114D01*
X0133275Y0158046D01*
X0133275Y0155911D01*
X0132208Y0154843D01*
X0130073Y0154843D01*
X0129005Y0156978D02*
X0133275Y0156978D01*
X0135437Y0154843D02*
X0137572Y0154843D01*
X0136505Y0154843D02*
X0136505Y0159114D01*
X0137572Y0159114D01*
X0136505Y0161249D02*
X0136505Y0162316D01*
X0137572Y0165343D02*
X0137572Y0171749D01*
X0136505Y0169614D02*
X0134370Y0169614D01*
X0133302Y0168546D01*
X0133302Y0165343D01*
X0131127Y0165343D02*
X0128992Y0165343D01*
X0130059Y0165343D02*
X0130059Y0169614D01*
X0131127Y0169614D01*
X0130059Y0171749D02*
X0130059Y0172816D01*
X0130059Y0175843D02*
X0130059Y0180114D01*
X0131127Y0180114D01*
X0130059Y0182249D02*
X0130059Y0183316D01*
X0126830Y0179046D02*
X0125762Y0180114D01*
X0123627Y0180114D01*
X0122560Y0179046D01*
X0122560Y0177978D01*
X0126830Y0177978D01*
X0126830Y0176911D02*
X0126830Y0179046D01*
X0126830Y0176911D02*
X0125762Y0175843D01*
X0123627Y0175843D01*
X0120384Y0175843D02*
X0118249Y0175843D01*
X0119317Y0175843D02*
X0119317Y0182249D01*
X0120384Y0182249D01*
X0116087Y0179046D02*
X0116087Y0176911D01*
X0115020Y0175843D01*
X0111817Y0175843D01*
X0111817Y0182249D01*
X0111817Y0180114D02*
X0115020Y0180114D01*
X0116087Y0179046D01*
X0119317Y0171749D02*
X0119317Y0165343D01*
X0120384Y0165343D02*
X0118249Y0165343D01*
X0116087Y0166411D02*
X0116087Y0168546D01*
X0115020Y0169614D01*
X0111817Y0169614D01*
X0111817Y0171749D02*
X0111817Y0165343D01*
X0115020Y0165343D01*
X0116087Y0166411D01*
X0119317Y0171749D02*
X0120384Y0171749D01*
X0122560Y0168546D02*
X0122560Y0167478D01*
X0126830Y0167478D01*
X0126830Y0166411D02*
X0126830Y0168546D01*
X0125762Y0169614D01*
X0123627Y0169614D01*
X0122560Y0168546D01*
X0123627Y0165343D02*
X0125762Y0165343D01*
X0126830Y0166411D01*
X0129005Y0158046D02*
X0129005Y0156978D01*
X0139748Y0158046D02*
X0139748Y0154843D01*
X0139748Y0158046D02*
X0140815Y0159114D01*
X0142950Y0159114D01*
X0144018Y0158046D01*
X0146193Y0156978D02*
X0146193Y0155911D01*
X0147261Y0154843D01*
X0149396Y0154843D01*
X0150463Y0155911D01*
X0149396Y0158046D02*
X0147261Y0158046D01*
X0146193Y0156978D01*
X0144018Y0154843D02*
X0144018Y0161249D01*
X0146193Y0160181D02*
X0147261Y0161249D01*
X0149396Y0161249D01*
X0150463Y0160181D01*
X0150463Y0159114D01*
X0149396Y0158046D01*
X0152639Y0158046D02*
X0152639Y0156978D01*
X0156909Y0156978D01*
X0156909Y0155911D02*
X0156909Y0158046D01*
X0155841Y0159114D01*
X0153706Y0159114D01*
X0152639Y0158046D01*
X0153706Y0154843D02*
X0155841Y0154843D01*
X0156909Y0155911D01*
X0159084Y0154843D02*
X0159084Y0158046D01*
X0160152Y0159114D01*
X0161219Y0158046D01*
X0161219Y0154843D01*
X0163354Y0154843D02*
X0163354Y0159114D01*
X0162287Y0159114D01*
X0161219Y0158046D01*
X0165530Y0158046D02*
X0165530Y0155911D01*
X0166597Y0154843D01*
X0168732Y0154843D01*
X0169800Y0155911D01*
X0169800Y0158046D01*
X0168732Y0159114D01*
X0166597Y0159114D01*
X0165530Y0158046D01*
X0171975Y0159114D02*
X0175178Y0159114D01*
X0176245Y0158046D01*
X0175178Y0156978D01*
X0173043Y0156978D01*
X0171975Y0155911D01*
X0173043Y0154843D01*
X0176245Y0154843D01*
X0178421Y0156978D02*
X0182691Y0156978D01*
X0182691Y0155911D02*
X0182691Y0158046D01*
X0181623Y0159114D01*
X0179488Y0159114D01*
X0178421Y0158046D01*
X0178421Y0156978D01*
X0179488Y0154843D02*
X0181623Y0154843D01*
X0182691Y0155911D01*
X0184866Y0155911D02*
X0184866Y0159114D01*
X0184866Y0155911D02*
X0185934Y0154843D01*
X0187001Y0155911D01*
X0188069Y0154843D01*
X0189136Y0155911D01*
X0189136Y0159114D01*
X0191312Y0159114D02*
X0191312Y0154843D01*
X0191312Y0158046D02*
X0195582Y0158046D01*
X0195582Y0159114D02*
X0195582Y0154843D01*
X0195582Y0159114D02*
X0193447Y0161249D01*
X0191312Y0159114D01*
X0191312Y0165343D02*
X0191312Y0169614D01*
X0193447Y0171749D01*
X0195582Y0169614D01*
X0195582Y0165343D01*
X0195582Y0168546D02*
X0191312Y0168546D01*
X0189136Y0169614D02*
X0189136Y0166411D01*
X0188069Y0165343D01*
X0187001Y0166411D01*
X0185934Y0165343D01*
X0184866Y0166411D01*
X0184866Y0169614D01*
X0182691Y0168546D02*
X0182691Y0166411D01*
X0181623Y0165343D01*
X0179488Y0165343D01*
X0178421Y0167478D02*
X0178421Y0168546D01*
X0179488Y0169614D01*
X0181623Y0169614D01*
X0182691Y0168546D01*
X0182691Y0167478D02*
X0178421Y0167478D01*
X0176245Y0168546D02*
X0175178Y0169614D01*
X0171975Y0169614D01*
X0173043Y0167478D02*
X0171975Y0166411D01*
X0173043Y0165343D01*
X0176245Y0165343D01*
X0175178Y0167478D02*
X0176245Y0168546D01*
X0175178Y0167478D02*
X0173043Y0167478D01*
X0169800Y0166411D02*
X0168732Y0165343D01*
X0166597Y0165343D01*
X0165530Y0166411D01*
X0165530Y0168546D01*
X0166597Y0169614D01*
X0168732Y0169614D01*
X0169800Y0168546D01*
X0169800Y0166411D01*
X0163354Y0165343D02*
X0163354Y0169614D01*
X0162287Y0169614D01*
X0161219Y0168546D01*
X0160152Y0169614D01*
X0159084Y0168546D01*
X0159084Y0165343D01*
X0161219Y0165343D02*
X0161219Y0168546D01*
X0156909Y0168546D02*
X0156909Y0166411D01*
X0155841Y0165343D01*
X0153706Y0165343D01*
X0152639Y0167478D02*
X0156909Y0167478D01*
X0156909Y0168546D02*
X0155841Y0169614D01*
X0153706Y0169614D01*
X0152639Y0168546D01*
X0152639Y0167478D01*
X0153706Y0175843D02*
X0155841Y0175843D01*
X0156909Y0176911D01*
X0156909Y0179046D01*
X0155841Y0180114D01*
X0153706Y0180114D01*
X0152639Y0179046D01*
X0152639Y0177978D01*
X0156909Y0177978D01*
X0159084Y0179046D02*
X0159084Y0175843D01*
X0161219Y0175843D02*
X0161219Y0179046D01*
X0160152Y0180114D01*
X0159084Y0179046D01*
X0161219Y0179046D02*
X0162287Y0180114D01*
X0163354Y0180114D01*
X0163354Y0175843D01*
X0165530Y0176911D02*
X0165530Y0179046D01*
X0166597Y0180114D01*
X0168732Y0180114D01*
X0169800Y0179046D01*
X0169800Y0176911D01*
X0168732Y0175843D01*
X0166597Y0175843D01*
X0165530Y0176911D01*
X0171975Y0176911D02*
X0173043Y0177978D01*
X0175178Y0177978D01*
X0176245Y0179046D01*
X0175178Y0180114D01*
X0171975Y0180114D01*
X0171975Y0176911D02*
X0173043Y0175843D01*
X0176245Y0175843D01*
X0178421Y0177978D02*
X0182691Y0177978D01*
X0182691Y0176911D02*
X0182691Y0179046D01*
X0181623Y0180114D01*
X0179488Y0180114D01*
X0178421Y0179046D01*
X0178421Y0177978D01*
X0179488Y0175843D02*
X0181623Y0175843D01*
X0182691Y0176911D01*
X0184866Y0176911D02*
X0184866Y0180114D01*
X0184866Y0176911D02*
X0185934Y0175843D01*
X0187001Y0176911D01*
X0188069Y0175843D01*
X0189136Y0176911D01*
X0189136Y0180114D01*
X0191312Y0180114D02*
X0191312Y0175843D01*
X0191312Y0179046D02*
X0195582Y0179046D01*
X0195582Y0180114D02*
X0193447Y0182249D01*
X0191312Y0180114D01*
X0195582Y0180114D02*
X0195582Y0175843D01*
X0144018Y0176911D02*
X0142950Y0175843D01*
X0140815Y0175843D01*
X0139748Y0176911D01*
X0139748Y0177978D01*
X0140815Y0179046D01*
X0142950Y0179046D01*
X0144018Y0180114D01*
X0144018Y0181181D01*
X0142950Y0182249D01*
X0140815Y0182249D01*
X0139748Y0181181D01*
X0137572Y0182249D02*
X0137572Y0175843D01*
X0137572Y0179046D02*
X0136505Y0180114D01*
X0134370Y0180114D01*
X0133302Y0179046D01*
X0133302Y0175843D01*
X0131127Y0175843D02*
X0128992Y0175843D01*
X0136505Y0169614D02*
X0137572Y0168546D01*
X0139748Y0167478D02*
X0139748Y0166411D01*
X0140815Y0165343D01*
X0142950Y0165343D01*
X0144018Y0166411D01*
X0142950Y0168546D02*
X0140815Y0168546D01*
X0139748Y0167478D01*
X0142950Y0168546D02*
X0144018Y0169614D01*
X0144018Y0170681D01*
X0142950Y0171749D01*
X0140815Y0171749D01*
X0139748Y0170681D01*
X0103196Y0171749D02*
X0103196Y0166411D01*
X0102129Y0165343D01*
X0099994Y0165343D01*
X0098926Y0166411D01*
X0098926Y0171749D01*
X0096751Y0170681D02*
X0096751Y0166411D01*
X0095683Y0165343D01*
X0093548Y0165343D01*
X0092481Y0166411D01*
X0092481Y0168546D01*
X0094616Y0168546D01*
X0096751Y0170681D02*
X0095683Y0171749D01*
X0093548Y0171749D01*
X0092481Y0170681D01*
X0090312Y0175843D02*
X0088177Y0175843D01*
X0087109Y0176911D01*
X0087109Y0179046D01*
X0088177Y0180114D01*
X0090312Y0180114D01*
X0091380Y0179046D01*
X0091380Y0176911D01*
X0090312Y0175843D01*
X0093548Y0180114D02*
X0094616Y0180114D01*
X0096751Y0177978D01*
X0096751Y0175843D02*
X0096751Y0180114D01*
X0098926Y0181181D02*
X0098926Y0179046D01*
X0099994Y0177978D01*
X0103196Y0177978D01*
X0103196Y0175843D02*
X0103196Y0182249D01*
X0099994Y0182249D01*
X0098926Y0181181D01*
X0084934Y0180114D02*
X0082799Y0180114D01*
X0083867Y0181181D02*
X0083867Y0176911D01*
X0082799Y0175843D01*
X0080637Y0176911D02*
X0079570Y0175843D01*
X0077434Y0175843D01*
X0076367Y0176911D01*
X0076367Y0179046D01*
X0077434Y0180114D01*
X0079570Y0180114D01*
X0080637Y0179046D01*
X0080637Y0176911D01*
X0074192Y0180114D02*
X0072057Y0180114D01*
X0073124Y0181181D02*
X0073124Y0176911D01*
X0072057Y0175843D01*
X0069895Y0176911D02*
X0068827Y0175843D01*
X0065624Y0175843D01*
X0065624Y0174776D02*
X0066692Y0173708D01*
X0067760Y0173708D01*
X0065624Y0174776D02*
X0065624Y0180114D01*
X0063449Y0180114D02*
X0060246Y0180114D01*
X0059179Y0179046D01*
X0059179Y0176911D01*
X0060246Y0175843D01*
X0063449Y0175843D01*
X0063449Y0173708D02*
X0063449Y0180114D01*
X0069895Y0180114D02*
X0069895Y0176911D01*
X0057004Y0176911D02*
X0057004Y0179046D01*
X0055936Y0180114D01*
X0053801Y0180114D01*
X0052733Y0179046D01*
X0052733Y0177978D01*
X0057004Y0177978D01*
X0057004Y0176911D02*
X0055936Y0175843D01*
X0053801Y0175843D01*
X0044113Y0177978D02*
X0041978Y0175843D01*
X0039842Y0177978D01*
X0039842Y0182249D01*
X0037667Y0181181D02*
X0036600Y0182249D01*
X0034464Y0182249D01*
X0033397Y0181181D01*
X0037667Y0176911D01*
X0036600Y0175843D01*
X0034464Y0175843D01*
X0033397Y0176911D01*
X0033397Y0181181D01*
X0037667Y0181181D02*
X0037667Y0176911D01*
X0031222Y0176911D02*
X0031222Y0175843D01*
X0030154Y0175843D01*
X0030154Y0176911D01*
X0031222Y0176911D01*
X0027999Y0176911D02*
X0027999Y0179046D01*
X0024796Y0179046D01*
X0023729Y0177978D01*
X0023729Y0176911D01*
X0024796Y0175843D01*
X0026931Y0175843D01*
X0027999Y0176911D01*
X0027999Y0179046D02*
X0025864Y0181181D01*
X0023729Y0182249D01*
X0021553Y0181181D02*
X0020486Y0182249D01*
X0018351Y0182249D01*
X0017283Y0181181D01*
X0021553Y0176911D01*
X0020486Y0175843D01*
X0018351Y0175843D01*
X0017283Y0176911D01*
X0017283Y0181181D01*
X0021553Y0181181D02*
X0021553Y0176911D01*
X0044113Y0177978D02*
X0044113Y0182249D01*
D12*
X0048358Y0082486D02*
X0048358Y0081869D01*
X0048358Y0080635D02*
X0048358Y0078166D01*
X0048975Y0078166D02*
X0047741Y0078166D01*
X0046520Y0078783D02*
X0045903Y0078166D01*
X0044051Y0078166D01*
X0042837Y0078783D02*
X0042837Y0080017D01*
X0042220Y0080635D01*
X0040985Y0080635D01*
X0040368Y0080017D01*
X0040368Y0079400D01*
X0042837Y0079400D01*
X0042837Y0078783D02*
X0042220Y0078166D01*
X0040985Y0078166D01*
X0039154Y0078166D02*
X0039154Y0080635D01*
X0037302Y0080635D01*
X0036685Y0080017D01*
X0036685Y0078166D01*
X0035471Y0078166D02*
X0033619Y0078166D01*
X0033002Y0078783D01*
X0033619Y0079400D01*
X0034853Y0079400D01*
X0035471Y0080017D01*
X0034853Y0080635D01*
X0033002Y0080635D01*
X0031787Y0080017D02*
X0031170Y0080635D01*
X0029936Y0080635D01*
X0029319Y0080017D01*
X0029319Y0079400D01*
X0031787Y0079400D01*
X0031787Y0078783D02*
X0031787Y0080017D01*
X0031787Y0078783D02*
X0031170Y0078166D01*
X0029936Y0078166D01*
X0041596Y0069869D02*
X0044065Y0066166D01*
X0045279Y0066783D02*
X0045896Y0066166D01*
X0047748Y0066166D01*
X0047748Y0069869D01*
X0045896Y0069869D01*
X0045279Y0069252D01*
X0045279Y0068635D01*
X0045896Y0068017D01*
X0047748Y0068017D01*
X0048962Y0066783D02*
X0049579Y0066166D01*
X0050814Y0066166D01*
X0051431Y0066783D01*
X0051431Y0069252D01*
X0050814Y0069869D01*
X0049579Y0069869D01*
X0048962Y0069252D01*
X0052645Y0069252D02*
X0052645Y0068017D01*
X0053262Y0067400D01*
X0055114Y0067400D01*
X0055114Y0066166D02*
X0055114Y0069869D01*
X0053262Y0069869D01*
X0052645Y0069252D01*
X0056328Y0068017D02*
X0058797Y0068017D01*
X0060012Y0068635D02*
X0061863Y0068635D01*
X0062480Y0068017D01*
X0062480Y0066783D01*
X0061863Y0066166D01*
X0060012Y0066166D01*
X0060012Y0069869D01*
X0064319Y0069869D02*
X0064319Y0066166D01*
X0064936Y0066166D02*
X0063701Y0066166D01*
X0064322Y0063869D02*
X0064322Y0060166D01*
X0062470Y0060166D01*
X0061853Y0060783D01*
X0061853Y0062017D01*
X0062470Y0062635D01*
X0064322Y0062635D01*
X0065536Y0062017D02*
X0065536Y0060783D01*
X0066153Y0060166D01*
X0068005Y0060166D01*
X0068005Y0063869D01*
X0068005Y0062635D02*
X0066153Y0062635D01*
X0065536Y0062017D01*
X0069219Y0061400D02*
X0069219Y0060783D01*
X0069837Y0060166D01*
X0071071Y0060166D01*
X0071688Y0060783D01*
X0071688Y0061400D01*
X0071071Y0062017D01*
X0069837Y0062017D01*
X0069219Y0061400D01*
X0069837Y0062017D02*
X0069219Y0062635D01*
X0069219Y0063252D01*
X0069837Y0063869D01*
X0071071Y0063869D01*
X0071688Y0063252D01*
X0071688Y0062635D01*
X0071071Y0062017D01*
X0072902Y0062017D02*
X0072902Y0061400D01*
X0075371Y0061400D01*
X0075371Y0060783D02*
X0075371Y0062017D01*
X0074754Y0062635D01*
X0073520Y0062635D01*
X0072902Y0062017D01*
X0073520Y0060166D02*
X0074754Y0060166D01*
X0075371Y0060783D01*
X0076586Y0062017D02*
X0079054Y0062017D01*
X0077203Y0063869D01*
X0077203Y0060166D01*
X0080269Y0060783D02*
X0080886Y0060166D01*
X0082120Y0060166D01*
X0082738Y0060783D01*
X0082738Y0062017D02*
X0081503Y0062635D01*
X0080886Y0062635D01*
X0080269Y0062017D01*
X0080269Y0060783D01*
X0082738Y0062017D02*
X0082738Y0063869D01*
X0080269Y0063869D01*
X0077823Y0066166D02*
X0078441Y0066783D01*
X0077823Y0066166D02*
X0076589Y0066166D01*
X0075972Y0066783D01*
X0075972Y0067400D01*
X0076589Y0068017D01*
X0077823Y0068017D01*
X0078441Y0068635D01*
X0078441Y0069252D01*
X0077823Y0069869D01*
X0076589Y0069869D01*
X0075972Y0069252D01*
X0074757Y0069869D02*
X0074757Y0066166D01*
X0074757Y0068017D02*
X0074140Y0068635D01*
X0072906Y0068635D01*
X0072289Y0068017D01*
X0072289Y0066166D01*
X0071074Y0066166D02*
X0069840Y0066166D01*
X0070457Y0066166D02*
X0070457Y0068635D01*
X0071074Y0068635D01*
X0070457Y0069869D02*
X0070457Y0070486D01*
X0068002Y0068635D02*
X0066767Y0068635D01*
X0066150Y0068017D01*
X0066150Y0067400D01*
X0068619Y0067400D01*
X0068619Y0066783D02*
X0068619Y0068017D01*
X0068002Y0068635D01*
X0068619Y0066783D02*
X0068002Y0066166D01*
X0066767Y0066166D01*
X0064936Y0069869D02*
X0064319Y0069869D01*
X0059404Y0063252D02*
X0060639Y0062017D01*
X0058787Y0062017D01*
X0058170Y0061400D01*
X0058170Y0060783D01*
X0058787Y0060166D01*
X0060022Y0060166D01*
X0060639Y0060783D01*
X0060639Y0062017D01*
X0059404Y0063252D02*
X0058170Y0063869D01*
X0056338Y0063252D02*
X0055721Y0063869D01*
X0056338Y0063252D02*
X0056338Y0060166D01*
X0054500Y0060783D02*
X0053883Y0060166D01*
X0052649Y0060166D01*
X0052031Y0060783D01*
X0052031Y0061400D01*
X0052649Y0062017D01*
X0053266Y0062017D01*
X0052649Y0062017D02*
X0052031Y0062635D01*
X0052031Y0063252D01*
X0052649Y0063869D01*
X0053883Y0063869D01*
X0054500Y0063252D01*
X0055721Y0062017D02*
X0056956Y0062017D01*
X0045896Y0068017D02*
X0045279Y0067400D01*
X0045279Y0066783D01*
X0046520Y0078783D02*
X0046520Y0080017D01*
X0045903Y0080635D01*
X0044051Y0080635D01*
X0048358Y0080635D02*
X0048975Y0080635D01*
X0050190Y0078166D02*
X0052659Y0078166D01*
X0052659Y0081869D01*
X0057556Y0081869D02*
X0060025Y0081869D01*
X0061246Y0081869D02*
X0062480Y0081869D01*
X0061863Y0081869D02*
X0061863Y0078166D01*
X0062480Y0078166D02*
X0061246Y0078166D01*
X0063695Y0078166D02*
X0063695Y0081869D01*
X0064929Y0080635D01*
X0066163Y0081869D01*
X0066163Y0078166D01*
X0071061Y0079400D02*
X0073530Y0079400D01*
X0073530Y0078783D02*
X0073530Y0080017D01*
X0072913Y0080635D01*
X0071678Y0080635D01*
X0071061Y0080017D01*
X0071061Y0079400D01*
X0071678Y0078166D02*
X0072913Y0078166D01*
X0073530Y0078783D01*
X0074744Y0078166D02*
X0074744Y0080017D01*
X0075361Y0080635D01*
X0076596Y0080635D01*
X0077213Y0080017D01*
X0078434Y0080635D02*
X0079668Y0080635D01*
X0079051Y0081252D02*
X0079051Y0078783D01*
X0078434Y0078166D01*
X0077213Y0078166D02*
X0077213Y0081869D01*
X0084569Y0080635D02*
X0085186Y0080635D01*
X0086421Y0079400D01*
X0087635Y0079400D02*
X0090104Y0079400D01*
X0090104Y0078783D02*
X0090104Y0080017D01*
X0089487Y0080635D01*
X0088252Y0080635D01*
X0087635Y0080017D01*
X0087635Y0079400D01*
X0088252Y0078166D02*
X0089487Y0078166D01*
X0090104Y0078783D01*
X0091318Y0078166D02*
X0093170Y0078166D01*
X0093787Y0078783D01*
X0093787Y0080017D01*
X0093170Y0080635D01*
X0091318Y0080635D01*
X0091318Y0081869D02*
X0091318Y0078166D01*
X0095001Y0078166D02*
X0095001Y0080017D01*
X0095619Y0080635D01*
X0097470Y0080635D01*
X0097470Y0078166D01*
X0098685Y0078166D02*
X0098685Y0080635D01*
X0098685Y0078166D02*
X0100536Y0078166D01*
X0101153Y0078783D01*
X0101153Y0080635D01*
X0101754Y0075869D02*
X0104223Y0075869D01*
X0105444Y0075869D02*
X0106678Y0075869D01*
X0106061Y0075869D02*
X0106061Y0072166D01*
X0106678Y0072166D02*
X0105444Y0072166D01*
X0107892Y0072166D02*
X0107892Y0075869D01*
X0109127Y0074635D01*
X0110361Y0075869D01*
X0110361Y0072166D01*
X0109120Y0069869D02*
X0111589Y0066166D01*
X0112803Y0066166D02*
X0112803Y0069869D01*
X0112803Y0068635D02*
X0114655Y0068635D01*
X0115272Y0068017D01*
X0115272Y0066783D01*
X0114655Y0066166D01*
X0112803Y0066166D01*
X0115262Y0063869D02*
X0117114Y0062017D01*
X0114645Y0062017D01*
X0113430Y0060783D02*
X0112813Y0061400D01*
X0110962Y0061400D01*
X0110962Y0062017D02*
X0110962Y0060166D01*
X0112813Y0060166D01*
X0113430Y0060783D01*
X0115262Y0060166D02*
X0115262Y0063869D01*
X0116493Y0066166D02*
X0117727Y0066166D01*
X0117110Y0066166D02*
X0117110Y0069869D01*
X0117727Y0069869D01*
X0119559Y0068635D02*
X0118942Y0068017D01*
X0118942Y0067400D01*
X0121411Y0067400D01*
X0121411Y0066783D02*
X0121411Y0068017D01*
X0120793Y0068635D01*
X0119559Y0068635D01*
X0119559Y0066166D02*
X0120793Y0066166D01*
X0121411Y0066783D01*
X0122632Y0066166D02*
X0123866Y0066166D01*
X0123249Y0066166D02*
X0123249Y0068635D01*
X0123866Y0068635D01*
X0125080Y0068017D02*
X0125080Y0066166D01*
X0125080Y0068017D02*
X0125698Y0068635D01*
X0126932Y0068635D01*
X0127549Y0068017D01*
X0128764Y0068635D02*
X0130615Y0068635D01*
X0131232Y0068017D01*
X0130615Y0067400D01*
X0129381Y0067400D01*
X0128764Y0066783D01*
X0129381Y0066166D01*
X0131232Y0066166D01*
X0132447Y0067400D02*
X0134915Y0067400D01*
X0134915Y0066783D02*
X0134915Y0068017D01*
X0134298Y0068635D01*
X0133064Y0068635D01*
X0132447Y0068017D01*
X0132447Y0067400D01*
X0133064Y0066166D02*
X0134298Y0066166D01*
X0134915Y0066783D01*
X0136130Y0066166D02*
X0136130Y0068017D01*
X0136747Y0068635D01*
X0137364Y0068017D01*
X0137364Y0066166D01*
X0138599Y0066166D02*
X0138599Y0068635D01*
X0137981Y0068635D01*
X0137364Y0068017D01*
X0139813Y0068017D02*
X0139813Y0066783D01*
X0140430Y0066166D01*
X0141665Y0066166D01*
X0142282Y0066783D01*
X0142282Y0068017D01*
X0141665Y0068635D01*
X0140430Y0068635D01*
X0139813Y0068017D01*
X0139820Y0072166D02*
X0141054Y0072166D01*
X0140437Y0072166D02*
X0140437Y0075869D01*
X0141054Y0075869D01*
X0142268Y0075869D02*
X0144737Y0072166D01*
X0145952Y0072166D02*
X0147803Y0072166D01*
X0148420Y0072783D01*
X0148420Y0074017D01*
X0147803Y0074635D01*
X0145952Y0074635D01*
X0145952Y0071549D01*
X0146569Y0070931D01*
X0147186Y0070931D01*
X0147796Y0068635D02*
X0147179Y0068017D01*
X0147179Y0067400D01*
X0149648Y0067400D01*
X0149648Y0066783D02*
X0149648Y0068017D01*
X0149031Y0068635D01*
X0147796Y0068635D01*
X0145965Y0068017D02*
X0145348Y0068635D01*
X0143496Y0068635D01*
X0144113Y0067400D02*
X0145348Y0067400D01*
X0145965Y0068017D01*
X0145965Y0066166D02*
X0144113Y0066166D01*
X0143496Y0066783D01*
X0144113Y0067400D01*
X0141661Y0063869D02*
X0141661Y0060166D01*
X0140427Y0060166D02*
X0142896Y0060166D01*
X0144110Y0060783D02*
X0144110Y0062017D01*
X0144727Y0062635D01*
X0146579Y0062635D01*
X0146579Y0063869D02*
X0146579Y0060166D01*
X0144727Y0060166D01*
X0144110Y0060783D01*
X0142896Y0062635D02*
X0141661Y0063869D01*
X0139212Y0062017D02*
X0139212Y0060783D01*
X0138595Y0060166D01*
X0136744Y0060166D01*
X0135529Y0060783D02*
X0135529Y0062017D01*
X0134912Y0062635D01*
X0133061Y0062635D01*
X0131846Y0062635D02*
X0131229Y0062017D01*
X0129377Y0062017D01*
X0129377Y0060783D02*
X0129377Y0063252D01*
X0129995Y0063869D01*
X0131229Y0063869D01*
X0131846Y0063252D01*
X0131846Y0062635D01*
X0133061Y0063869D02*
X0133061Y0060166D01*
X0134912Y0060166D01*
X0135529Y0060783D01*
X0136744Y0062635D02*
X0138595Y0062635D01*
X0139212Y0062017D01*
X0131846Y0060783D02*
X0131229Y0060166D01*
X0129995Y0060166D01*
X0129377Y0060783D01*
X0128163Y0060783D02*
X0127546Y0061400D01*
X0125694Y0061400D01*
X0125694Y0062017D02*
X0125694Y0060166D01*
X0127546Y0060166D01*
X0128163Y0060783D01*
X0127546Y0062635D02*
X0126311Y0062635D01*
X0125694Y0062017D01*
X0124480Y0062017D02*
X0122011Y0062017D01*
X0120797Y0060783D02*
X0120797Y0060166D01*
X0120797Y0060783D02*
X0118328Y0063252D01*
X0118328Y0063869D01*
X0120797Y0063869D01*
X0122628Y0063869D02*
X0124480Y0062017D01*
X0122628Y0060166D02*
X0122628Y0063869D01*
X0127549Y0066166D02*
X0127549Y0069869D01*
X0128777Y0072166D02*
X0128777Y0074635D01*
X0126925Y0074635D01*
X0126308Y0074017D01*
X0126308Y0072166D01*
X0125094Y0072166D02*
X0123242Y0072166D01*
X0122625Y0072783D01*
X0123242Y0073400D01*
X0124477Y0073400D01*
X0125094Y0074017D01*
X0124477Y0074635D01*
X0122625Y0074635D01*
X0121411Y0074017D02*
X0120793Y0074635D01*
X0119559Y0074635D01*
X0118942Y0074017D01*
X0118942Y0073400D01*
X0121411Y0073400D01*
X0121411Y0072783D02*
X0121411Y0074017D01*
X0121411Y0072783D02*
X0120793Y0072166D01*
X0119559Y0072166D01*
X0117727Y0072166D02*
X0115876Y0072166D01*
X0115259Y0072783D01*
X0115876Y0073400D01*
X0117110Y0073400D01*
X0117727Y0074017D01*
X0117110Y0074635D01*
X0115259Y0074635D01*
X0114044Y0072166D02*
X0111576Y0075869D01*
X0111586Y0078166D02*
X0112203Y0078783D01*
X0112203Y0080017D01*
X0111586Y0080635D01*
X0110351Y0080635D01*
X0109734Y0080017D01*
X0109734Y0079400D01*
X0112203Y0079400D01*
X0113417Y0078783D02*
X0114034Y0079400D01*
X0115269Y0079400D01*
X0115886Y0080017D01*
X0115269Y0080635D01*
X0113417Y0080635D01*
X0113417Y0078783D02*
X0114034Y0078166D01*
X0115886Y0078166D01*
X0117100Y0078166D02*
X0118952Y0078166D01*
X0119569Y0078783D01*
X0118952Y0079400D01*
X0117100Y0079400D01*
X0117100Y0080017D02*
X0117100Y0078166D01*
X0117100Y0080017D02*
X0117717Y0080635D01*
X0118952Y0080635D01*
X0120783Y0080017D02*
X0120783Y0079400D01*
X0123252Y0079400D01*
X0123252Y0078783D02*
X0123252Y0080017D01*
X0122635Y0080635D01*
X0121401Y0080635D01*
X0120783Y0080017D01*
X0121401Y0078166D02*
X0122635Y0078166D01*
X0123252Y0078783D01*
X0124473Y0078166D02*
X0125708Y0078166D01*
X0125090Y0078166D02*
X0125090Y0081869D01*
X0125708Y0081869D01*
X0127539Y0080635D02*
X0126922Y0080017D01*
X0126922Y0079400D01*
X0129391Y0079400D01*
X0129391Y0078783D02*
X0129391Y0080017D01*
X0128774Y0080635D01*
X0127539Y0080635D01*
X0127539Y0078166D02*
X0128774Y0078166D01*
X0129391Y0078783D01*
X0130605Y0078166D02*
X0131839Y0079400D01*
X0131222Y0079400D02*
X0133074Y0079400D01*
X0133074Y0078166D02*
X0133074Y0081869D01*
X0131222Y0081869D01*
X0130605Y0081252D01*
X0130605Y0080017D01*
X0131222Y0079400D01*
X0130608Y0074635D02*
X0129991Y0074017D01*
X0129991Y0073400D01*
X0132460Y0073400D01*
X0132460Y0072783D02*
X0132460Y0074017D01*
X0131843Y0074635D01*
X0130608Y0074635D01*
X0130608Y0072166D02*
X0131843Y0072166D01*
X0132460Y0072783D01*
X0133674Y0072166D02*
X0135526Y0072166D01*
X0136143Y0072783D01*
X0136143Y0074017D01*
X0135526Y0074635D01*
X0133674Y0074635D01*
X0137981Y0074635D02*
X0137981Y0072166D01*
X0137364Y0072166D02*
X0138599Y0072166D01*
X0138599Y0074635D02*
X0137981Y0074635D01*
X0137981Y0075869D02*
X0137981Y0076486D01*
X0138589Y0078166D02*
X0137971Y0078783D01*
X0138589Y0079400D01*
X0139823Y0079400D01*
X0140440Y0080017D01*
X0139823Y0080635D01*
X0137971Y0080635D01*
X0138589Y0078166D02*
X0140440Y0078166D01*
X0141655Y0078166D02*
X0141655Y0080017D01*
X0142272Y0080635D01*
X0144123Y0080635D01*
X0144123Y0078166D01*
X0145338Y0078166D02*
X0147189Y0078166D01*
X0147806Y0078783D01*
X0147806Y0080017D01*
X0147189Y0080635D01*
X0145338Y0080635D01*
X0145338Y0077549D01*
X0145955Y0076931D01*
X0146572Y0076931D01*
X0149027Y0078166D02*
X0150262Y0078166D01*
X0149645Y0078166D02*
X0149645Y0080635D01*
X0150262Y0080635D01*
X0151476Y0080635D02*
X0153328Y0080635D01*
X0153945Y0080017D01*
X0153328Y0079400D01*
X0152093Y0079400D01*
X0151476Y0078783D01*
X0152093Y0078166D01*
X0153945Y0078166D01*
X0155159Y0079400D02*
X0157628Y0079400D01*
X0157628Y0078783D02*
X0157628Y0080017D01*
X0157011Y0080635D01*
X0155777Y0080635D01*
X0155159Y0080017D01*
X0155159Y0079400D01*
X0155777Y0078166D02*
X0157011Y0078166D01*
X0157628Y0078783D01*
X0158843Y0078783D02*
X0158843Y0081252D01*
X0159460Y0081869D01*
X0161311Y0081869D01*
X0161311Y0078166D01*
X0159460Y0078166D01*
X0158843Y0078783D01*
X0158846Y0074635D02*
X0158229Y0074017D01*
X0158229Y0073400D01*
X0160697Y0073400D01*
X0160697Y0072783D02*
X0160697Y0074017D01*
X0160080Y0074635D01*
X0158846Y0074635D01*
X0158846Y0072166D02*
X0160080Y0072166D01*
X0160697Y0072783D01*
X0161912Y0072166D02*
X0163763Y0072166D01*
X0164381Y0072783D01*
X0164381Y0074017D01*
X0163763Y0074635D01*
X0161912Y0074635D01*
X0165598Y0074635D02*
X0166215Y0074635D01*
X0167450Y0073400D01*
X0167450Y0072166D02*
X0167450Y0074635D01*
X0168664Y0074635D02*
X0168664Y0072166D01*
X0170516Y0072166D01*
X0171133Y0072783D01*
X0171133Y0074635D01*
X0172347Y0074017D02*
X0172965Y0074635D01*
X0174199Y0074635D01*
X0174816Y0074017D01*
X0174816Y0072783D01*
X0174199Y0072166D01*
X0172965Y0072166D01*
X0172347Y0072783D01*
X0172347Y0074017D01*
X0176031Y0074635D02*
X0177882Y0074635D01*
X0178499Y0074017D01*
X0177882Y0073400D01*
X0176648Y0073400D01*
X0176031Y0072783D01*
X0176648Y0072166D01*
X0178499Y0072166D01*
X0179714Y0072166D02*
X0179714Y0074017D01*
X0180331Y0074635D01*
X0182182Y0074635D01*
X0182182Y0072166D01*
X0183397Y0073400D02*
X0185866Y0073400D01*
X0185866Y0072783D02*
X0185866Y0074017D01*
X0185248Y0074635D01*
X0184014Y0074635D01*
X0183397Y0074017D01*
X0183397Y0073400D01*
X0184014Y0072166D02*
X0185248Y0072166D01*
X0185866Y0072783D01*
X0187080Y0072783D02*
X0187697Y0072166D01*
X0189549Y0072166D01*
X0189549Y0070931D02*
X0189549Y0074635D01*
X0187697Y0074635D01*
X0187080Y0074017D01*
X0187080Y0072783D01*
X0188932Y0070486D02*
X0188932Y0069869D01*
X0188932Y0068635D02*
X0188932Y0066166D01*
X0189549Y0066166D02*
X0188314Y0066166D01*
X0186476Y0066783D02*
X0186476Y0069252D01*
X0187093Y0068635D02*
X0185859Y0068635D01*
X0184638Y0068017D02*
X0184021Y0068635D01*
X0182786Y0068635D01*
X0182169Y0068017D01*
X0182169Y0066166D01*
X0180955Y0066783D02*
X0180955Y0068635D01*
X0180955Y0066783D02*
X0180338Y0066166D01*
X0178486Y0066166D01*
X0178486Y0068635D01*
X0177272Y0068635D02*
X0175420Y0068635D01*
X0174803Y0068017D01*
X0174803Y0066783D01*
X0175420Y0066166D01*
X0177272Y0066166D01*
X0177272Y0069869D01*
X0173588Y0066783D02*
X0172971Y0066783D01*
X0172971Y0066166D01*
X0173588Y0066166D01*
X0173588Y0066783D01*
X0171747Y0066783D02*
X0171747Y0068017D01*
X0171130Y0068635D01*
X0169278Y0068635D01*
X0168064Y0068017D02*
X0168064Y0066783D01*
X0167447Y0066166D01*
X0166212Y0066166D01*
X0165595Y0066783D01*
X0165595Y0068017D01*
X0166212Y0068635D01*
X0167447Y0068635D01*
X0168064Y0068017D01*
X0169278Y0066166D02*
X0171130Y0066166D01*
X0171747Y0066783D01*
X0169899Y0063869D02*
X0169899Y0060166D01*
X0171133Y0060166D02*
X0168664Y0060166D01*
X0167450Y0060783D02*
X0166833Y0060166D01*
X0165598Y0060166D01*
X0164981Y0060783D01*
X0164981Y0061400D01*
X0165598Y0062017D01*
X0166215Y0062017D01*
X0165598Y0062017D02*
X0164981Y0062635D01*
X0164981Y0063252D01*
X0165598Y0063869D01*
X0166833Y0063869D01*
X0167450Y0063252D01*
X0169899Y0063869D02*
X0171133Y0062635D01*
X0172347Y0062017D02*
X0172347Y0061400D01*
X0174816Y0061400D01*
X0174816Y0060783D02*
X0174816Y0062017D01*
X0174199Y0062635D01*
X0172965Y0062635D01*
X0172347Y0062017D01*
X0172965Y0060166D02*
X0174199Y0060166D01*
X0174816Y0060783D01*
X0176031Y0063252D02*
X0178499Y0060783D01*
X0178499Y0060166D01*
X0179714Y0061400D02*
X0182182Y0061400D01*
X0182182Y0060783D02*
X0182182Y0062017D01*
X0181565Y0062635D01*
X0180331Y0062635D01*
X0179714Y0062017D01*
X0179714Y0061400D01*
X0180331Y0060166D02*
X0181565Y0060166D01*
X0182182Y0060783D01*
X0183397Y0061400D02*
X0185248Y0061400D01*
X0185866Y0060783D01*
X0185248Y0060166D01*
X0183397Y0060166D01*
X0183397Y0062017D01*
X0184014Y0062635D01*
X0185248Y0062635D01*
X0187080Y0062017D02*
X0187080Y0060783D01*
X0187697Y0060166D01*
X0189549Y0060166D01*
X0189549Y0063869D01*
X0189549Y0062635D02*
X0187697Y0062635D01*
X0187080Y0062017D01*
X0190763Y0062017D02*
X0190763Y0060783D01*
X0191380Y0060166D01*
X0193232Y0060166D01*
X0193232Y0063869D01*
X0193232Y0062635D02*
X0191380Y0062635D01*
X0190763Y0062017D01*
X0191380Y0064931D02*
X0190763Y0065549D01*
X0190763Y0068635D01*
X0192615Y0068635D01*
X0193232Y0068017D01*
X0193232Y0066783D01*
X0192615Y0066166D01*
X0190763Y0066166D01*
X0191380Y0064931D02*
X0191998Y0064931D01*
X0189549Y0068635D02*
X0188932Y0068635D01*
X0186476Y0066783D02*
X0185859Y0066166D01*
X0184638Y0066166D02*
X0184638Y0069869D01*
X0190763Y0072783D02*
X0191380Y0072166D01*
X0192615Y0072166D01*
X0193232Y0072783D01*
X0193232Y0074017D01*
X0192615Y0074635D01*
X0191380Y0074635D01*
X0190763Y0074017D01*
X0190763Y0072783D01*
X0190763Y0078166D02*
X0190763Y0081869D01*
X0190763Y0080017D02*
X0193232Y0080017D01*
X0193232Y0078166D02*
X0193232Y0081869D01*
X0188932Y0080635D02*
X0187697Y0080635D01*
X0187080Y0080017D01*
X0187080Y0078166D01*
X0188932Y0078166D01*
X0189549Y0078783D01*
X0188932Y0079400D01*
X0187080Y0079400D01*
X0185866Y0079400D02*
X0184631Y0080635D01*
X0184014Y0080635D01*
X0182796Y0080017D02*
X0182796Y0078783D01*
X0182179Y0078166D01*
X0180328Y0078166D01*
X0180328Y0081869D01*
X0180328Y0080635D02*
X0182179Y0080635D01*
X0182796Y0080017D01*
X0179113Y0080635D02*
X0179113Y0078783D01*
X0178496Y0078166D01*
X0177879Y0078783D01*
X0177262Y0078166D01*
X0176644Y0078783D01*
X0176644Y0080635D01*
X0174813Y0080635D02*
X0173578Y0080635D01*
X0172961Y0080017D01*
X0172961Y0078166D01*
X0174813Y0078166D01*
X0175430Y0078783D01*
X0174813Y0079400D01*
X0172961Y0079400D01*
X0171747Y0079400D02*
X0170513Y0080635D01*
X0169895Y0080635D01*
X0168678Y0080017D02*
X0168060Y0080635D01*
X0166826Y0080635D01*
X0166209Y0080017D01*
X0166209Y0079400D01*
X0168678Y0079400D01*
X0168678Y0078783D02*
X0168678Y0080017D01*
X0168678Y0078783D02*
X0168060Y0078166D01*
X0166826Y0078166D01*
X0171747Y0078166D02*
X0171747Y0080635D01*
X0164381Y0068635D02*
X0163763Y0068635D01*
X0163146Y0068017D01*
X0162529Y0068635D01*
X0161912Y0068017D01*
X0161912Y0066166D01*
X0160697Y0066166D02*
X0158229Y0069869D01*
X0156397Y0068635D02*
X0155163Y0068635D01*
X0154546Y0068017D01*
X0154546Y0066166D01*
X0156397Y0066166D01*
X0157014Y0066783D01*
X0156397Y0067400D01*
X0154546Y0067400D01*
X0153331Y0066783D02*
X0153331Y0068635D01*
X0153331Y0066783D02*
X0152714Y0066166D01*
X0152097Y0066783D01*
X0151480Y0066166D01*
X0150862Y0066783D01*
X0150862Y0068635D01*
X0149648Y0066783D02*
X0149031Y0066166D01*
X0147796Y0066166D01*
X0148410Y0063869D02*
X0149645Y0063869D01*
X0150262Y0063252D01*
X0150262Y0062635D01*
X0149645Y0062017D01*
X0147793Y0062017D01*
X0147793Y0060783D02*
X0147793Y0063252D01*
X0148410Y0063869D01*
X0151476Y0063252D02*
X0153945Y0060783D01*
X0153328Y0060166D01*
X0152093Y0060166D01*
X0151476Y0060783D01*
X0151476Y0063252D01*
X0152093Y0063869D01*
X0153328Y0063869D01*
X0153945Y0063252D01*
X0153945Y0060783D01*
X0155159Y0061400D02*
X0157011Y0061400D01*
X0157628Y0060783D01*
X0157011Y0060166D01*
X0155159Y0060166D01*
X0155159Y0062017D01*
X0155777Y0062635D01*
X0157011Y0062635D01*
X0158843Y0062017D02*
X0158843Y0061400D01*
X0161311Y0061400D01*
X0161311Y0060783D02*
X0161311Y0062017D01*
X0160694Y0062635D01*
X0159460Y0062635D01*
X0158843Y0062017D01*
X0159460Y0060166D02*
X0160694Y0060166D01*
X0161311Y0060783D01*
X0162532Y0062017D02*
X0163767Y0062017D01*
X0163150Y0063252D02*
X0162532Y0063869D01*
X0163150Y0063252D02*
X0163150Y0060166D01*
X0163146Y0066166D02*
X0163146Y0068017D01*
X0164381Y0068635D02*
X0164381Y0066166D01*
X0157014Y0072166D02*
X0156397Y0072166D01*
X0156397Y0072783D01*
X0157014Y0072783D01*
X0157014Y0072166D01*
X0155173Y0072783D02*
X0154556Y0072166D01*
X0153321Y0072166D01*
X0152704Y0072783D01*
X0152704Y0074017D01*
X0153321Y0074635D01*
X0154556Y0074635D01*
X0155173Y0074017D01*
X0155173Y0072783D01*
X0151490Y0073400D02*
X0150255Y0074635D01*
X0149638Y0074635D01*
X0151490Y0074635D02*
X0151490Y0072166D01*
X0149645Y0081869D02*
X0149645Y0082486D01*
X0150262Y0060783D02*
X0149645Y0060166D01*
X0148410Y0060166D01*
X0147793Y0060783D01*
X0123249Y0069869D02*
X0123249Y0070486D01*
X0112813Y0062635D02*
X0111579Y0062635D01*
X0110962Y0062017D01*
X0109747Y0062017D02*
X0109130Y0062635D01*
X0107896Y0062635D01*
X0107279Y0062017D01*
X0107279Y0061400D01*
X0109747Y0061400D01*
X0109747Y0060783D02*
X0109747Y0062017D01*
X0109747Y0060783D02*
X0109130Y0060166D01*
X0107896Y0060166D01*
X0106064Y0060783D02*
X0106064Y0062017D01*
X0104213Y0062017D01*
X0103595Y0061400D01*
X0103595Y0060783D01*
X0104213Y0060166D01*
X0105447Y0060166D01*
X0106064Y0060783D01*
X0106064Y0062017D02*
X0104830Y0063252D01*
X0103595Y0063869D01*
X0101764Y0063252D02*
X0101147Y0063869D01*
X0101764Y0063252D02*
X0101764Y0060166D01*
X0099926Y0060783D02*
X0099308Y0060166D01*
X0098074Y0060166D01*
X0097457Y0060783D01*
X0097457Y0062017D01*
X0098074Y0062635D01*
X0098691Y0062635D01*
X0099926Y0062017D01*
X0099926Y0063869D01*
X0097457Y0063869D01*
X0096242Y0062635D02*
X0095008Y0063869D01*
X0095008Y0060166D01*
X0096242Y0060166D02*
X0093774Y0060166D01*
X0092559Y0060166D02*
X0092559Y0060783D01*
X0090091Y0063252D01*
X0090091Y0063869D01*
X0092559Y0063869D01*
X0092556Y0066166D02*
X0093173Y0066783D01*
X0093173Y0068017D01*
X0092556Y0068635D01*
X0091322Y0068635D01*
X0090704Y0068017D01*
X0090704Y0066783D01*
X0091322Y0066166D01*
X0092556Y0066166D01*
X0094388Y0066783D02*
X0095005Y0067400D01*
X0096239Y0067400D01*
X0096856Y0068017D01*
X0096239Y0068635D01*
X0094388Y0068635D01*
X0094388Y0066783D02*
X0095005Y0066166D01*
X0096856Y0066166D01*
X0098071Y0067400D02*
X0098071Y0068017D01*
X0098688Y0068635D01*
X0099922Y0068635D01*
X0100539Y0068017D01*
X0100539Y0066783D01*
X0099922Y0066166D01*
X0098688Y0066166D01*
X0098071Y0067400D02*
X0100539Y0067400D01*
X0101754Y0066783D02*
X0101754Y0068635D01*
X0101754Y0066783D02*
X0102371Y0066166D01*
X0102988Y0066783D01*
X0103605Y0066166D01*
X0104223Y0066783D01*
X0104223Y0068635D01*
X0105437Y0068635D02*
X0105437Y0066166D01*
X0105437Y0068017D02*
X0107906Y0068017D01*
X0107906Y0068635D02*
X0106671Y0069869D01*
X0105437Y0068635D01*
X0107906Y0068635D02*
X0107906Y0066166D01*
X0102381Y0062017D02*
X0101147Y0062017D01*
X0102988Y0072166D02*
X0102988Y0075869D01*
X0106051Y0078166D02*
X0107902Y0078166D01*
X0108520Y0078783D01*
X0108520Y0080017D01*
X0107902Y0080635D01*
X0106051Y0080635D01*
X0106051Y0081869D02*
X0106051Y0078166D01*
X0110351Y0078166D02*
X0111586Y0078166D01*
X0089490Y0068635D02*
X0089490Y0066166D01*
X0088256Y0066166D02*
X0088256Y0068017D01*
X0087638Y0068635D01*
X0087021Y0068017D01*
X0087021Y0066166D01*
X0085807Y0066783D02*
X0085807Y0068017D01*
X0085190Y0068635D01*
X0083955Y0068635D01*
X0083338Y0068017D01*
X0083338Y0067400D01*
X0085807Y0067400D01*
X0085807Y0066783D02*
X0085190Y0066166D01*
X0083955Y0066166D01*
X0083952Y0063869D02*
X0083952Y0063252D01*
X0086421Y0060783D01*
X0086421Y0060166D01*
X0088259Y0060166D02*
X0088259Y0063252D01*
X0087642Y0063869D01*
X0086421Y0063869D02*
X0083952Y0063869D01*
X0087642Y0062017D02*
X0088876Y0062017D01*
X0088256Y0068017D02*
X0088873Y0068635D01*
X0089490Y0068635D01*
X0082124Y0068017D02*
X0079655Y0068017D01*
X0086421Y0078166D02*
X0086421Y0080635D01*
X0058790Y0081869D02*
X0058790Y0078166D01*
X0176031Y0063869D02*
X0176031Y0063252D01*
X0176031Y0063869D02*
X0178499Y0063869D01*
X0185866Y0078166D02*
X0185866Y0080635D01*
D13*
X0195882Y0054110D02*
X0014780Y0054110D01*
X0014780Y0186039D02*
X0195882Y0186039D01*
D14*
X0196874Y0033124D02*
X0196934Y0033122D01*
X0196995Y0033117D01*
X0197054Y0033108D01*
X0197113Y0033095D01*
X0197172Y0033079D01*
X0197229Y0033059D01*
X0197284Y0033036D01*
X0197339Y0033009D01*
X0197391Y0032980D01*
X0197442Y0032947D01*
X0197491Y0032911D01*
X0197537Y0032873D01*
X0197581Y0032831D01*
X0197623Y0032787D01*
X0197661Y0032741D01*
X0197697Y0032692D01*
X0197730Y0032641D01*
X0197759Y0032589D01*
X0197786Y0032534D01*
X0197809Y0032479D01*
X0197829Y0032422D01*
X0197845Y0032363D01*
X0197858Y0032304D01*
X0197867Y0032245D01*
X0197872Y0032184D01*
X0197874Y0032124D01*
X0197874Y0025624D01*
X0197872Y0025564D01*
X0197867Y0025503D01*
X0197858Y0025444D01*
X0197845Y0025385D01*
X0197829Y0025326D01*
X0197809Y0025269D01*
X0197786Y0025214D01*
X0197759Y0025159D01*
X0197730Y0025107D01*
X0197697Y0025056D01*
X0197661Y0025007D01*
X0197623Y0024961D01*
X0197581Y0024917D01*
X0197537Y0024875D01*
X0197491Y0024837D01*
X0197442Y0024801D01*
X0197391Y0024768D01*
X0197339Y0024739D01*
X0197284Y0024712D01*
X0197229Y0024689D01*
X0197172Y0024669D01*
X0197113Y0024653D01*
X0197054Y0024640D01*
X0196995Y0024631D01*
X0196934Y0024626D01*
X0196874Y0024624D01*
X0190874Y0024624D02*
X0190814Y0024626D01*
X0190753Y0024631D01*
X0190694Y0024640D01*
X0190635Y0024653D01*
X0190576Y0024669D01*
X0190519Y0024689D01*
X0190464Y0024712D01*
X0190409Y0024739D01*
X0190357Y0024768D01*
X0190306Y0024801D01*
X0190257Y0024837D01*
X0190211Y0024875D01*
X0190167Y0024917D01*
X0190125Y0024961D01*
X0190087Y0025007D01*
X0190051Y0025056D01*
X0190018Y0025107D01*
X0189989Y0025159D01*
X0189962Y0025214D01*
X0189939Y0025269D01*
X0189919Y0025326D01*
X0189903Y0025385D01*
X0189890Y0025444D01*
X0189881Y0025503D01*
X0189876Y0025564D01*
X0189874Y0025624D01*
X0189874Y0032124D01*
X0189876Y0032184D01*
X0189881Y0032245D01*
X0189890Y0032304D01*
X0189903Y0032363D01*
X0189919Y0032422D01*
X0189939Y0032479D01*
X0189962Y0032534D01*
X0189989Y0032589D01*
X0190018Y0032641D01*
X0190051Y0032692D01*
X0190087Y0032741D01*
X0190125Y0032787D01*
X0190167Y0032831D01*
X0190211Y0032873D01*
X0190257Y0032911D01*
X0190306Y0032947D01*
X0190357Y0032980D01*
X0190409Y0033009D01*
X0190464Y0033036D01*
X0190519Y0033059D01*
X0190576Y0033079D01*
X0190635Y0033095D01*
X0190694Y0033108D01*
X0190753Y0033117D01*
X0190814Y0033122D01*
X0190874Y0033124D01*
X0187874Y0032124D02*
X0187874Y0025624D01*
X0187872Y0025564D01*
X0187867Y0025503D01*
X0187858Y0025444D01*
X0187845Y0025385D01*
X0187829Y0025326D01*
X0187809Y0025269D01*
X0187786Y0025214D01*
X0187759Y0025159D01*
X0187730Y0025107D01*
X0187697Y0025056D01*
X0187661Y0025007D01*
X0187623Y0024961D01*
X0187581Y0024917D01*
X0187537Y0024875D01*
X0187491Y0024837D01*
X0187442Y0024801D01*
X0187391Y0024768D01*
X0187339Y0024739D01*
X0187284Y0024712D01*
X0187229Y0024689D01*
X0187172Y0024669D01*
X0187113Y0024653D01*
X0187054Y0024640D01*
X0186995Y0024631D01*
X0186934Y0024626D01*
X0186874Y0024624D01*
X0180874Y0024624D02*
X0180814Y0024626D01*
X0180753Y0024631D01*
X0180694Y0024640D01*
X0180635Y0024653D01*
X0180576Y0024669D01*
X0180519Y0024689D01*
X0180464Y0024712D01*
X0180409Y0024739D01*
X0180357Y0024768D01*
X0180306Y0024801D01*
X0180257Y0024837D01*
X0180211Y0024875D01*
X0180167Y0024917D01*
X0180125Y0024961D01*
X0180087Y0025007D01*
X0180051Y0025056D01*
X0180018Y0025107D01*
X0179989Y0025159D01*
X0179962Y0025214D01*
X0179939Y0025269D01*
X0179919Y0025326D01*
X0179903Y0025385D01*
X0179890Y0025444D01*
X0179881Y0025503D01*
X0179876Y0025564D01*
X0179874Y0025624D01*
X0179874Y0032124D01*
X0179876Y0032184D01*
X0179881Y0032245D01*
X0179890Y0032304D01*
X0179903Y0032363D01*
X0179919Y0032422D01*
X0179939Y0032479D01*
X0179962Y0032534D01*
X0179989Y0032589D01*
X0180018Y0032641D01*
X0180051Y0032692D01*
X0180087Y0032741D01*
X0180125Y0032787D01*
X0180167Y0032831D01*
X0180211Y0032873D01*
X0180257Y0032911D01*
X0180306Y0032947D01*
X0180357Y0032980D01*
X0180409Y0033009D01*
X0180464Y0033036D01*
X0180519Y0033059D01*
X0180576Y0033079D01*
X0180635Y0033095D01*
X0180694Y0033108D01*
X0180753Y0033117D01*
X0180814Y0033122D01*
X0180874Y0033124D01*
X0186874Y0033124D02*
X0186934Y0033122D01*
X0186995Y0033117D01*
X0187054Y0033108D01*
X0187113Y0033095D01*
X0187172Y0033079D01*
X0187229Y0033059D01*
X0187284Y0033036D01*
X0187339Y0033009D01*
X0187391Y0032980D01*
X0187442Y0032947D01*
X0187491Y0032911D01*
X0187537Y0032873D01*
X0187581Y0032831D01*
X0187623Y0032787D01*
X0187661Y0032741D01*
X0187697Y0032692D01*
X0187730Y0032641D01*
X0187759Y0032589D01*
X0187786Y0032534D01*
X0187809Y0032479D01*
X0187829Y0032422D01*
X0187845Y0032363D01*
X0187858Y0032304D01*
X0187867Y0032245D01*
X0187872Y0032184D01*
X0187874Y0032124D01*
M02*
