G75*
%MOIN*%
%OFA0B0*%
%FSLAX25Y25*%
%IPPOS*%
%LPD*%
%AMOC8*
5,1,8,0,0,1.08239X$1,22.5*
%
%ADD10C,0.00004*%
%ADD11C,0.00800*%
%ADD12R,0.05000X0.02500*%
%ADD13R,0.07400X0.07400*%
%ADD14OC8,0.11811*%
%ADD15OC8,0.07000*%
%ADD16C,0.01600*%
%ADD17C,0.05000*%
%ADD18C,0.07600*%
%ADD19C,0.05906*%
%ADD20C,0.04921*%
%ADD21C,0.01000*%
D10*
X0008874Y0037220D02*
X0037220Y0008874D01*
X0197063Y0008874D01*
X0201787Y0013598D01*
X0201787Y0212811D01*
X0197063Y0217535D01*
X0013598Y0217535D01*
X0008874Y0212811D01*
X0008874Y0037220D01*
D11*
X0183874Y0030374D02*
X0183874Y0027374D01*
X0193874Y0027374D02*
X0193874Y0030374D01*
D12*
X0193874Y0030874D03*
X0193874Y0026874D03*
X0183874Y0026874D03*
X0183874Y0030874D03*
D13*
X0116433Y0109031D03*
X0116433Y0118874D03*
X0116433Y0128717D03*
D14*
X0088874Y0136197D03*
X0088874Y0101551D03*
D15*
X0083874Y0018874D03*
X0073874Y0018874D03*
X0063874Y0018874D03*
X0053874Y0018874D03*
X0093874Y0018874D03*
X0103874Y0018874D03*
X0113874Y0018874D03*
X0123874Y0018874D03*
X0143874Y0018874D03*
X0153874Y0018874D03*
X0163874Y0018874D03*
X0173874Y0018874D03*
X0183874Y0018874D03*
X0193874Y0018874D03*
X0193874Y0208874D03*
X0183874Y0208874D03*
X0173874Y0208874D03*
X0163874Y0208874D03*
X0153874Y0208874D03*
X0143874Y0208874D03*
X0133874Y0208874D03*
X0123874Y0208874D03*
X0108874Y0208874D03*
X0098874Y0208874D03*
X0088874Y0208874D03*
X0078874Y0208874D03*
X0068874Y0208874D03*
X0058874Y0208874D03*
X0048874Y0208874D03*
X0038874Y0208874D03*
X0028874Y0208874D03*
X0018874Y0208874D03*
D16*
X0024632Y0024859D02*
X0065758Y0024859D01*
X0065673Y0024774D02*
X0061430Y0024774D01*
X0058874Y0022218D01*
X0056318Y0024774D01*
X0051430Y0024774D01*
X0047974Y0021318D01*
X0047974Y0016430D01*
X0051430Y0012974D01*
X0056318Y0012974D01*
X0058874Y0015530D01*
X0061430Y0012974D01*
X0066318Y0012974D01*
X0068874Y0015530D01*
X0071430Y0012974D01*
X0076318Y0012974D01*
X0078874Y0015530D01*
X0081430Y0012974D01*
X0086318Y0012974D01*
X0088874Y0015530D01*
X0091430Y0012974D01*
X0096318Y0012974D01*
X0099298Y0015954D01*
X0101679Y0013574D01*
X0103674Y0013574D01*
X0103674Y0018674D01*
X0104074Y0018674D01*
X0104074Y0013574D01*
X0106069Y0013574D01*
X0108874Y0016379D01*
X0111679Y0013574D01*
X0113674Y0013574D01*
X0113674Y0018674D01*
X0114074Y0018674D01*
X0114074Y0013574D01*
X0116069Y0013574D01*
X0118450Y0015954D01*
X0121430Y0012974D01*
X0126318Y0012974D01*
X0129774Y0016430D01*
X0129774Y0021318D01*
X0126318Y0024774D01*
X0121430Y0024774D01*
X0118450Y0021794D01*
X0116069Y0024174D01*
X0114074Y0024174D01*
X0114074Y0019074D01*
X0113674Y0019074D01*
X0113674Y0018674D01*
X0108574Y0018674D01*
X0104074Y0018674D01*
X0104074Y0019074D01*
X0113674Y0019074D01*
X0113674Y0024174D01*
X0111679Y0024174D01*
X0108874Y0021369D01*
X0106069Y0024174D01*
X0105766Y0024174D01*
X0106274Y0025399D01*
X0106274Y0027349D01*
X0105528Y0029150D01*
X0104150Y0030528D01*
X0102349Y0031274D01*
X0100399Y0031274D01*
X0098598Y0030528D01*
X0097344Y0029274D01*
X0070797Y0029274D01*
X0069731Y0028833D01*
X0068916Y0028017D01*
X0065673Y0024774D01*
X0067356Y0026458D02*
X0023034Y0026458D01*
X0021435Y0028056D02*
X0068955Y0028056D01*
X0059917Y0023261D02*
X0057831Y0023261D01*
X0049917Y0023261D02*
X0026231Y0023261D01*
X0027829Y0021662D02*
X0048318Y0021662D01*
X0047974Y0020064D02*
X0029428Y0020064D01*
X0031026Y0018465D02*
X0047974Y0018465D01*
X0047974Y0016867D02*
X0032625Y0016867D01*
X0034223Y0015268D02*
X0049136Y0015268D01*
X0050735Y0013670D02*
X0035822Y0013670D01*
X0037420Y0012071D02*
X0196863Y0012071D01*
X0196318Y0012974D02*
X0199385Y0016042D01*
X0199385Y0014593D01*
X0196068Y0011276D01*
X0038215Y0011276D01*
X0011276Y0038215D01*
X0011276Y0211816D01*
X0014593Y0215133D01*
X0196068Y0215133D01*
X0199385Y0211816D01*
X0199385Y0211706D01*
X0196318Y0214774D01*
X0191430Y0214774D01*
X0188874Y0212218D01*
X0186318Y0214774D01*
X0181430Y0214774D01*
X0178874Y0212218D01*
X0176318Y0214774D01*
X0171430Y0214774D01*
X0168874Y0212218D01*
X0166318Y0214774D01*
X0161430Y0214774D01*
X0158874Y0212218D01*
X0156318Y0214774D01*
X0151430Y0214774D01*
X0148874Y0212218D01*
X0146318Y0214774D01*
X0141430Y0214774D01*
X0138874Y0212218D01*
X0136318Y0214774D01*
X0131430Y0214774D01*
X0128874Y0212218D01*
X0126318Y0214774D01*
X0121430Y0214774D01*
X0117974Y0211318D01*
X0117974Y0206430D01*
X0120130Y0204274D01*
X0112618Y0204274D01*
X0114774Y0206430D01*
X0114774Y0211318D01*
X0111318Y0214774D01*
X0106430Y0214774D01*
X0103874Y0212218D01*
X0101318Y0214774D01*
X0096430Y0214774D01*
X0093874Y0212218D01*
X0091318Y0214774D01*
X0086430Y0214774D01*
X0083874Y0212218D01*
X0081318Y0214774D01*
X0076430Y0214774D01*
X0073874Y0212218D01*
X0071318Y0214774D01*
X0066430Y0214774D01*
X0063874Y0212218D01*
X0061318Y0214774D01*
X0056430Y0214774D01*
X0053450Y0211794D01*
X0051069Y0214174D01*
X0049074Y0214174D01*
X0049074Y0209074D01*
X0048674Y0209074D01*
X0048674Y0214174D01*
X0046679Y0214174D01*
X0044298Y0211794D01*
X0041318Y0214774D01*
X0036430Y0214774D01*
X0033874Y0212218D01*
X0031318Y0214774D01*
X0026430Y0214774D01*
X0023874Y0212218D01*
X0021318Y0214774D01*
X0016430Y0214774D01*
X0012974Y0211318D01*
X0012974Y0206430D01*
X0016430Y0202974D01*
X0020673Y0202974D01*
X0020974Y0202673D01*
X0020974Y0048297D01*
X0021416Y0047231D01*
X0026416Y0042231D01*
X0027231Y0041416D01*
X0028297Y0040974D01*
X0041940Y0040974D01*
X0041474Y0039849D01*
X0041474Y0037899D01*
X0042220Y0036098D01*
X0043598Y0034720D01*
X0045399Y0033974D01*
X0047173Y0033974D01*
X0047231Y0033916D01*
X0048297Y0033474D01*
X0179335Y0033474D01*
X0178974Y0032601D01*
X0178974Y0029147D01*
X0179087Y0028874D01*
X0178974Y0028601D01*
X0178974Y0025147D01*
X0179339Y0024265D01*
X0180015Y0023589D01*
X0180178Y0023522D01*
X0178874Y0022218D01*
X0176318Y0024774D01*
X0171430Y0024774D01*
X0168874Y0022218D01*
X0166318Y0024774D01*
X0161430Y0024774D01*
X0158874Y0022218D01*
X0156318Y0024774D01*
X0151430Y0024774D01*
X0148874Y0022218D01*
X0146318Y0024774D01*
X0141430Y0024774D01*
X0137974Y0021318D01*
X0137974Y0016430D01*
X0141430Y0012974D01*
X0146318Y0012974D01*
X0148874Y0015530D01*
X0151430Y0012974D01*
X0156318Y0012974D01*
X0158874Y0015530D01*
X0161430Y0012974D01*
X0166318Y0012974D01*
X0168874Y0015530D01*
X0171430Y0012974D01*
X0176318Y0012974D01*
X0178874Y0015530D01*
X0181430Y0012974D01*
X0186318Y0012974D01*
X0188874Y0015530D01*
X0191430Y0012974D01*
X0196318Y0012974D01*
X0197013Y0013670D02*
X0198462Y0013670D01*
X0198612Y0015268D02*
X0199385Y0015268D01*
X0199385Y0021706D02*
X0197570Y0023522D01*
X0197734Y0023589D01*
X0198409Y0024265D01*
X0198774Y0025147D01*
X0198774Y0028601D01*
X0198661Y0028874D01*
X0198774Y0029147D01*
X0198774Y0032601D01*
X0198409Y0033484D01*
X0197734Y0034159D01*
X0196851Y0034524D01*
X0196744Y0034524D01*
X0196333Y0035517D01*
X0195517Y0036333D01*
X0190517Y0041333D01*
X0189451Y0041774D01*
X0143308Y0041774D01*
X0143774Y0042899D01*
X0143774Y0044849D01*
X0143028Y0046650D01*
X0141650Y0048028D01*
X0139849Y0048774D01*
X0138075Y0048774D01*
X0136333Y0050517D01*
X0135517Y0051333D01*
X0134451Y0051774D01*
X0123297Y0051774D01*
X0122231Y0051333D01*
X0117673Y0046774D01*
X0065075Y0046774D01*
X0056774Y0055075D01*
X0056774Y0066951D01*
X0056333Y0068017D01*
X0051774Y0072575D01*
X0051774Y0080173D01*
X0053017Y0081416D01*
X0053833Y0082231D01*
X0054274Y0083297D01*
X0054274Y0089451D01*
X0053833Y0090517D01*
X0049274Y0095075D01*
X0049274Y0144451D01*
X0048833Y0145517D01*
X0046274Y0148075D01*
X0046274Y0149849D01*
X0045528Y0151650D01*
X0044150Y0153028D01*
X0042349Y0153774D01*
X0040399Y0153774D01*
X0038598Y0153028D01*
X0037220Y0151650D01*
X0036474Y0149849D01*
X0036474Y0147899D01*
X0037220Y0146098D01*
X0038598Y0144720D01*
X0040399Y0143974D01*
X0042173Y0143974D01*
X0043474Y0142673D01*
X0043474Y0093297D01*
X0043916Y0092231D01*
X0044731Y0091416D01*
X0045027Y0091120D01*
X0043598Y0090528D01*
X0042220Y0089150D01*
X0041474Y0087349D01*
X0041474Y0085399D01*
X0042220Y0083598D01*
X0043474Y0082344D01*
X0043474Y0068297D01*
X0043916Y0067231D01*
X0044731Y0066416D01*
X0045027Y0066120D01*
X0043598Y0065528D01*
X0042220Y0064150D01*
X0041474Y0062349D01*
X0041474Y0060399D01*
X0042220Y0058598D01*
X0043474Y0057344D01*
X0043474Y0050075D01*
X0042673Y0049274D01*
X0032575Y0049274D01*
X0029274Y0052575D01*
X0029274Y0202974D01*
X0031318Y0202974D01*
X0033874Y0205530D01*
X0036430Y0202974D01*
X0041318Y0202974D01*
X0044298Y0205954D01*
X0046679Y0203574D01*
X0048674Y0203574D01*
X0048674Y0208674D01*
X0049074Y0208674D01*
X0049074Y0203574D01*
X0049473Y0203574D01*
X0048916Y0203017D01*
X0048916Y0203017D01*
X0047231Y0201333D01*
X0046416Y0200517D01*
X0045974Y0199451D01*
X0045974Y0170404D01*
X0044720Y0169150D01*
X0043974Y0167349D01*
X0043974Y0165399D01*
X0044720Y0163598D01*
X0046098Y0162220D01*
X0047899Y0161474D01*
X0049849Y0161474D01*
X0051650Y0162220D01*
X0053028Y0163598D01*
X0053774Y0165399D01*
X0053774Y0167349D01*
X0053028Y0169150D01*
X0051774Y0170404D01*
X0051774Y0197673D01*
X0052575Y0198474D01*
X0084373Y0198474D01*
X0083916Y0198017D01*
X0083474Y0196951D01*
X0083474Y0175404D01*
X0082220Y0174150D01*
X0081474Y0172349D01*
X0081474Y0170399D01*
X0082220Y0168598D01*
X0083598Y0167220D01*
X0085399Y0166474D01*
X0087349Y0166474D01*
X0089150Y0167220D01*
X0090528Y0168598D01*
X0091274Y0170399D01*
X0091274Y0172349D01*
X0090528Y0174150D01*
X0089274Y0175404D01*
X0089274Y0195173D01*
X0090075Y0195974D01*
X0109440Y0195974D01*
X0108974Y0194849D01*
X0108974Y0192899D01*
X0109720Y0191098D01*
X0111098Y0189720D01*
X0112899Y0188974D01*
X0114849Y0188974D01*
X0116650Y0189720D01*
X0117904Y0190974D01*
X0149451Y0190974D01*
X0150517Y0191416D01*
X0162075Y0202974D01*
X0166318Y0202974D01*
X0168474Y0205130D01*
X0168474Y0096235D01*
X0167907Y0096235D01*
X0166121Y0095495D01*
X0164753Y0094127D01*
X0164013Y0092341D01*
X0164013Y0090407D01*
X0164753Y0088621D01*
X0166121Y0087253D01*
X0167907Y0086513D01*
X0169841Y0086513D01*
X0171627Y0087253D01*
X0172995Y0088621D01*
X0173735Y0090407D01*
X0173735Y0092133D01*
X0173833Y0092231D01*
X0174274Y0093297D01*
X0174274Y0202974D01*
X0176318Y0202974D01*
X0178874Y0205530D01*
X0181430Y0202974D01*
X0186318Y0202974D01*
X0188874Y0205530D01*
X0191430Y0202974D01*
X0196318Y0202974D01*
X0199385Y0206042D01*
X0199385Y0021706D01*
X0199385Y0023261D02*
X0197831Y0023261D01*
X0198655Y0024859D02*
X0199385Y0024859D01*
X0199385Y0026458D02*
X0198774Y0026458D01*
X0198774Y0028056D02*
X0199385Y0028056D01*
X0199385Y0029655D02*
X0198774Y0029655D01*
X0198774Y0031253D02*
X0199385Y0031253D01*
X0199385Y0032852D02*
X0198670Y0032852D01*
X0199385Y0034450D02*
X0197030Y0034450D01*
X0195801Y0036049D02*
X0199385Y0036049D01*
X0199385Y0037647D02*
X0194202Y0037647D01*
X0192604Y0039246D02*
X0199385Y0039246D01*
X0199385Y0040844D02*
X0191005Y0040844D01*
X0199385Y0042443D02*
X0143585Y0042443D01*
X0143774Y0044041D02*
X0199385Y0044041D01*
X0199385Y0045640D02*
X0143446Y0045640D01*
X0142439Y0047238D02*
X0199385Y0047238D01*
X0199385Y0048837D02*
X0138012Y0048837D01*
X0136414Y0050435D02*
X0199385Y0050435D01*
X0199385Y0052034D02*
X0059815Y0052034D01*
X0058217Y0053632D02*
X0199385Y0053632D01*
X0199385Y0055231D02*
X0056774Y0055231D01*
X0056774Y0056829D02*
X0199385Y0056829D01*
X0199385Y0058428D02*
X0056774Y0058428D01*
X0056774Y0060026D02*
X0199385Y0060026D01*
X0199385Y0061625D02*
X0056774Y0061625D01*
X0056774Y0063223D02*
X0199385Y0063223D01*
X0199385Y0064822D02*
X0056774Y0064822D01*
X0056774Y0066420D02*
X0199385Y0066420D01*
X0199385Y0068019D02*
X0056330Y0068019D01*
X0054732Y0069617D02*
X0199385Y0069617D01*
X0199385Y0071216D02*
X0053133Y0071216D01*
X0051774Y0072814D02*
X0199385Y0072814D01*
X0199385Y0074413D02*
X0051774Y0074413D01*
X0051774Y0076011D02*
X0199385Y0076011D01*
X0199385Y0077610D02*
X0051774Y0077610D01*
X0051774Y0079209D02*
X0199385Y0079209D01*
X0199385Y0080807D02*
X0052408Y0080807D01*
X0053905Y0082406D02*
X0199385Y0082406D01*
X0199385Y0084004D02*
X0054274Y0084004D01*
X0054274Y0085603D02*
X0199385Y0085603D01*
X0199385Y0087201D02*
X0171501Y0087201D01*
X0173069Y0088800D02*
X0199385Y0088800D01*
X0199385Y0090398D02*
X0173731Y0090398D01*
X0173735Y0091997D02*
X0199385Y0091997D01*
X0199385Y0093595D02*
X0174274Y0093595D01*
X0174274Y0095194D02*
X0199385Y0095194D01*
X0199385Y0096792D02*
X0174274Y0096792D01*
X0174274Y0098391D02*
X0199385Y0098391D01*
X0199385Y0099989D02*
X0174274Y0099989D01*
X0174274Y0101588D02*
X0199385Y0101588D01*
X0199385Y0103186D02*
X0174274Y0103186D01*
X0174274Y0104785D02*
X0199385Y0104785D01*
X0199385Y0106383D02*
X0174274Y0106383D01*
X0174274Y0107982D02*
X0199385Y0107982D01*
X0199385Y0109580D02*
X0174274Y0109580D01*
X0174274Y0111179D02*
X0199385Y0111179D01*
X0199385Y0112777D02*
X0174274Y0112777D01*
X0174274Y0114376D02*
X0199385Y0114376D01*
X0199385Y0115974D02*
X0174274Y0115974D01*
X0174274Y0117573D02*
X0199385Y0117573D01*
X0199385Y0119171D02*
X0174274Y0119171D01*
X0174274Y0120770D02*
X0199385Y0120770D01*
X0199385Y0122368D02*
X0174274Y0122368D01*
X0174274Y0123967D02*
X0199385Y0123967D01*
X0199385Y0125565D02*
X0174274Y0125565D01*
X0174274Y0127164D02*
X0199385Y0127164D01*
X0199385Y0128762D02*
X0174274Y0128762D01*
X0174274Y0130361D02*
X0199385Y0130361D01*
X0199385Y0131959D02*
X0174274Y0131959D01*
X0174274Y0133558D02*
X0199385Y0133558D01*
X0199385Y0135156D02*
X0174274Y0135156D01*
X0174274Y0136755D02*
X0199385Y0136755D01*
X0199385Y0138353D02*
X0174274Y0138353D01*
X0174274Y0139952D02*
X0199385Y0139952D01*
X0199385Y0141550D02*
X0174274Y0141550D01*
X0174274Y0143149D02*
X0199385Y0143149D01*
X0199385Y0144747D02*
X0174274Y0144747D01*
X0174274Y0146346D02*
X0199385Y0146346D01*
X0199385Y0147945D02*
X0174274Y0147945D01*
X0174274Y0149543D02*
X0199385Y0149543D01*
X0199385Y0151142D02*
X0174274Y0151142D01*
X0174274Y0152740D02*
X0199385Y0152740D01*
X0199385Y0154339D02*
X0174274Y0154339D01*
X0174274Y0155937D02*
X0199385Y0155937D01*
X0199385Y0157536D02*
X0174274Y0157536D01*
X0174274Y0159134D02*
X0199385Y0159134D01*
X0199385Y0160733D02*
X0174274Y0160733D01*
X0174274Y0162331D02*
X0199385Y0162331D01*
X0199385Y0163930D02*
X0174274Y0163930D01*
X0174274Y0165528D02*
X0199385Y0165528D01*
X0199385Y0167127D02*
X0174274Y0167127D01*
X0174274Y0168725D02*
X0199385Y0168725D01*
X0199385Y0170324D02*
X0174274Y0170324D01*
X0174274Y0171922D02*
X0199385Y0171922D01*
X0199385Y0173521D02*
X0174274Y0173521D01*
X0174274Y0175119D02*
X0199385Y0175119D01*
X0199385Y0176718D02*
X0174274Y0176718D01*
X0174274Y0178316D02*
X0199385Y0178316D01*
X0199385Y0179915D02*
X0174274Y0179915D01*
X0174274Y0181513D02*
X0199385Y0181513D01*
X0199385Y0183112D02*
X0174274Y0183112D01*
X0174274Y0184710D02*
X0199385Y0184710D01*
X0199385Y0186309D02*
X0174274Y0186309D01*
X0174274Y0187907D02*
X0199385Y0187907D01*
X0199385Y0189506D02*
X0174274Y0189506D01*
X0174274Y0191104D02*
X0199385Y0191104D01*
X0199385Y0192703D02*
X0174274Y0192703D01*
X0174274Y0194301D02*
X0199385Y0194301D01*
X0199385Y0195900D02*
X0174274Y0195900D01*
X0174274Y0197498D02*
X0199385Y0197498D01*
X0199385Y0199097D02*
X0174274Y0199097D01*
X0174274Y0200695D02*
X0199385Y0200695D01*
X0199385Y0202294D02*
X0174274Y0202294D01*
X0177236Y0203892D02*
X0180512Y0203892D01*
X0178913Y0205491D02*
X0178835Y0205491D01*
X0177608Y0213483D02*
X0180140Y0213483D01*
X0187608Y0213483D02*
X0190140Y0213483D01*
X0196120Y0215082D02*
X0014542Y0215082D01*
X0015140Y0213483D02*
X0012943Y0213483D01*
X0013541Y0211885D02*
X0011345Y0211885D01*
X0011276Y0210286D02*
X0012974Y0210286D01*
X0012974Y0208688D02*
X0011276Y0208688D01*
X0011276Y0207089D02*
X0012974Y0207089D01*
X0013913Y0205491D02*
X0011276Y0205491D01*
X0011276Y0203892D02*
X0015512Y0203892D01*
X0011276Y0202294D02*
X0020974Y0202294D01*
X0020974Y0200695D02*
X0011276Y0200695D01*
X0011276Y0199097D02*
X0020974Y0199097D01*
X0020974Y0197498D02*
X0011276Y0197498D01*
X0011276Y0195900D02*
X0020974Y0195900D01*
X0020974Y0194301D02*
X0011276Y0194301D01*
X0011276Y0192703D02*
X0020974Y0192703D01*
X0020974Y0191104D02*
X0011276Y0191104D01*
X0011276Y0189506D02*
X0020974Y0189506D01*
X0020974Y0187907D02*
X0011276Y0187907D01*
X0011276Y0186309D02*
X0020974Y0186309D01*
X0020974Y0184710D02*
X0011276Y0184710D01*
X0011276Y0183112D02*
X0020974Y0183112D01*
X0020974Y0181513D02*
X0011276Y0181513D01*
X0011276Y0179915D02*
X0020974Y0179915D01*
X0020974Y0178316D02*
X0011276Y0178316D01*
X0011276Y0176718D02*
X0020974Y0176718D01*
X0020974Y0175119D02*
X0011276Y0175119D01*
X0011276Y0173521D02*
X0020974Y0173521D01*
X0020974Y0171922D02*
X0011276Y0171922D01*
X0011276Y0170324D02*
X0020974Y0170324D01*
X0020974Y0168725D02*
X0011276Y0168725D01*
X0011276Y0167127D02*
X0020974Y0167127D01*
X0020974Y0165528D02*
X0011276Y0165528D01*
X0011276Y0163930D02*
X0020974Y0163930D01*
X0020974Y0162331D02*
X0011276Y0162331D01*
X0011276Y0160733D02*
X0020974Y0160733D01*
X0020974Y0159134D02*
X0011276Y0159134D01*
X0011276Y0157536D02*
X0020974Y0157536D01*
X0020974Y0155937D02*
X0011276Y0155937D01*
X0011276Y0154339D02*
X0020974Y0154339D01*
X0020974Y0152740D02*
X0011276Y0152740D01*
X0011276Y0151142D02*
X0020974Y0151142D01*
X0020974Y0149543D02*
X0011276Y0149543D01*
X0011276Y0147945D02*
X0020974Y0147945D01*
X0020974Y0146346D02*
X0011276Y0146346D01*
X0011276Y0144747D02*
X0020974Y0144747D01*
X0020974Y0143149D02*
X0011276Y0143149D01*
X0011276Y0141550D02*
X0020974Y0141550D01*
X0020974Y0139952D02*
X0011276Y0139952D01*
X0011276Y0138353D02*
X0020974Y0138353D01*
X0020974Y0136755D02*
X0011276Y0136755D01*
X0011276Y0135156D02*
X0020974Y0135156D01*
X0020974Y0133558D02*
X0011276Y0133558D01*
X0011276Y0131959D02*
X0020974Y0131959D01*
X0020974Y0130361D02*
X0011276Y0130361D01*
X0011276Y0128762D02*
X0020974Y0128762D01*
X0020974Y0127164D02*
X0011276Y0127164D01*
X0011276Y0125565D02*
X0020974Y0125565D01*
X0020974Y0123967D02*
X0011276Y0123967D01*
X0011276Y0122368D02*
X0020974Y0122368D01*
X0020974Y0120770D02*
X0011276Y0120770D01*
X0011276Y0119171D02*
X0020974Y0119171D01*
X0020974Y0117573D02*
X0011276Y0117573D01*
X0011276Y0115974D02*
X0020974Y0115974D01*
X0020974Y0114376D02*
X0011276Y0114376D01*
X0011276Y0112777D02*
X0020974Y0112777D01*
X0020974Y0111179D02*
X0011276Y0111179D01*
X0011276Y0109580D02*
X0020974Y0109580D01*
X0020974Y0107982D02*
X0011276Y0107982D01*
X0011276Y0106383D02*
X0020974Y0106383D01*
X0020974Y0104785D02*
X0011276Y0104785D01*
X0011276Y0103186D02*
X0020974Y0103186D01*
X0020974Y0101588D02*
X0011276Y0101588D01*
X0011276Y0099989D02*
X0020974Y0099989D01*
X0020974Y0098391D02*
X0011276Y0098391D01*
X0011276Y0096792D02*
X0020974Y0096792D01*
X0020974Y0095194D02*
X0011276Y0095194D01*
X0011276Y0093595D02*
X0020974Y0093595D01*
X0020974Y0091997D02*
X0011276Y0091997D01*
X0011276Y0090398D02*
X0020974Y0090398D01*
X0020974Y0088800D02*
X0011276Y0088800D01*
X0011276Y0087201D02*
X0020974Y0087201D01*
X0020974Y0085603D02*
X0011276Y0085603D01*
X0011276Y0084004D02*
X0020974Y0084004D01*
X0020974Y0082406D02*
X0011276Y0082406D01*
X0011276Y0080807D02*
X0020974Y0080807D01*
X0020974Y0079209D02*
X0011276Y0079209D01*
X0011276Y0077610D02*
X0020974Y0077610D01*
X0020974Y0076011D02*
X0011276Y0076011D01*
X0011276Y0074413D02*
X0020974Y0074413D01*
X0020974Y0072814D02*
X0011276Y0072814D01*
X0011276Y0071216D02*
X0020974Y0071216D01*
X0020974Y0069617D02*
X0011276Y0069617D01*
X0011276Y0068019D02*
X0020974Y0068019D01*
X0020974Y0066420D02*
X0011276Y0066420D01*
X0011276Y0064822D02*
X0020974Y0064822D01*
X0020974Y0063223D02*
X0011276Y0063223D01*
X0011276Y0061625D02*
X0020974Y0061625D01*
X0020974Y0060026D02*
X0011276Y0060026D01*
X0011276Y0058428D02*
X0020974Y0058428D01*
X0020974Y0056829D02*
X0011276Y0056829D01*
X0011276Y0055231D02*
X0020974Y0055231D01*
X0020974Y0053632D02*
X0011276Y0053632D01*
X0011276Y0052034D02*
X0020974Y0052034D01*
X0020974Y0050435D02*
X0011276Y0050435D01*
X0011276Y0048837D02*
X0020974Y0048837D01*
X0021413Y0047238D02*
X0011276Y0047238D01*
X0011276Y0045640D02*
X0023007Y0045640D01*
X0024606Y0044041D02*
X0011276Y0044041D01*
X0011276Y0042443D02*
X0026204Y0042443D01*
X0031414Y0050435D02*
X0043474Y0050435D01*
X0043474Y0052034D02*
X0029815Y0052034D01*
X0029274Y0053632D02*
X0043474Y0053632D01*
X0043474Y0055231D02*
X0029274Y0055231D01*
X0029274Y0056829D02*
X0043474Y0056829D01*
X0042391Y0058428D02*
X0029274Y0058428D01*
X0029274Y0060026D02*
X0041628Y0060026D01*
X0041474Y0061625D02*
X0029274Y0061625D01*
X0029274Y0063223D02*
X0041836Y0063223D01*
X0042892Y0064822D02*
X0029274Y0064822D01*
X0029274Y0066420D02*
X0044726Y0066420D01*
X0043589Y0068019D02*
X0029274Y0068019D01*
X0029274Y0069617D02*
X0043474Y0069617D01*
X0043474Y0071216D02*
X0029274Y0071216D01*
X0029274Y0072814D02*
X0043474Y0072814D01*
X0043474Y0074413D02*
X0029274Y0074413D01*
X0029274Y0076011D02*
X0043474Y0076011D01*
X0043474Y0077610D02*
X0029274Y0077610D01*
X0029274Y0079209D02*
X0043474Y0079209D01*
X0043474Y0080807D02*
X0029274Y0080807D01*
X0029274Y0082406D02*
X0043413Y0082406D01*
X0042052Y0084004D02*
X0029274Y0084004D01*
X0029274Y0085603D02*
X0041474Y0085603D01*
X0041474Y0087201D02*
X0029274Y0087201D01*
X0029274Y0088800D02*
X0042075Y0088800D01*
X0043468Y0090398D02*
X0029274Y0090398D01*
X0029274Y0091997D02*
X0044150Y0091997D01*
X0043474Y0093595D02*
X0029274Y0093595D01*
X0029274Y0095194D02*
X0043474Y0095194D01*
X0043474Y0096792D02*
X0029274Y0096792D01*
X0029274Y0098391D02*
X0043474Y0098391D01*
X0043474Y0099989D02*
X0029274Y0099989D01*
X0029274Y0101588D02*
X0043474Y0101588D01*
X0043474Y0103186D02*
X0029274Y0103186D01*
X0029274Y0104785D02*
X0043474Y0104785D01*
X0043474Y0106383D02*
X0029274Y0106383D01*
X0029274Y0107982D02*
X0043474Y0107982D01*
X0043474Y0109580D02*
X0029274Y0109580D01*
X0029274Y0111179D02*
X0043474Y0111179D01*
X0043474Y0112777D02*
X0029274Y0112777D01*
X0029274Y0114376D02*
X0043474Y0114376D01*
X0043474Y0115974D02*
X0029274Y0115974D01*
X0029274Y0117573D02*
X0043474Y0117573D01*
X0043474Y0119171D02*
X0029274Y0119171D01*
X0029274Y0120770D02*
X0043474Y0120770D01*
X0043474Y0122368D02*
X0029274Y0122368D01*
X0029274Y0123967D02*
X0043474Y0123967D01*
X0043474Y0125565D02*
X0029274Y0125565D01*
X0029274Y0127164D02*
X0043474Y0127164D01*
X0043474Y0128762D02*
X0029274Y0128762D01*
X0029274Y0130361D02*
X0043474Y0130361D01*
X0043474Y0131959D02*
X0029274Y0131959D01*
X0029274Y0133558D02*
X0043474Y0133558D01*
X0043474Y0135156D02*
X0029274Y0135156D01*
X0029274Y0136755D02*
X0043474Y0136755D01*
X0043474Y0138353D02*
X0029274Y0138353D01*
X0029274Y0139952D02*
X0043474Y0139952D01*
X0043474Y0141550D02*
X0029274Y0141550D01*
X0029274Y0143149D02*
X0042998Y0143149D01*
X0038571Y0144747D02*
X0029274Y0144747D01*
X0029274Y0146346D02*
X0037117Y0146346D01*
X0036474Y0147945D02*
X0029274Y0147945D01*
X0029274Y0149543D02*
X0036474Y0149543D01*
X0037010Y0151142D02*
X0029274Y0151142D01*
X0029274Y0152740D02*
X0038310Y0152740D01*
X0044438Y0152740D02*
X0168474Y0152740D01*
X0168474Y0151142D02*
X0045738Y0151142D01*
X0046274Y0149543D02*
X0168474Y0149543D01*
X0168474Y0147945D02*
X0046405Y0147945D01*
X0048003Y0146346D02*
X0168474Y0146346D01*
X0168474Y0144747D02*
X0049151Y0144747D01*
X0049274Y0143149D02*
X0084080Y0143149D01*
X0085434Y0144502D02*
X0080569Y0139637D01*
X0080569Y0132757D01*
X0085434Y0127891D01*
X0092314Y0127891D01*
X0097180Y0132757D01*
X0097180Y0139637D01*
X0092314Y0144502D01*
X0085434Y0144502D01*
X0082482Y0141550D02*
X0049274Y0141550D01*
X0049274Y0139952D02*
X0080883Y0139952D01*
X0080569Y0138353D02*
X0049274Y0138353D01*
X0049274Y0136755D02*
X0080569Y0136755D01*
X0080569Y0135156D02*
X0049274Y0135156D01*
X0049274Y0133558D02*
X0080569Y0133558D01*
X0081366Y0131959D02*
X0049274Y0131959D01*
X0049274Y0130361D02*
X0082964Y0130361D01*
X0084563Y0128762D02*
X0049274Y0128762D01*
X0049274Y0127164D02*
X0110333Y0127164D01*
X0110333Y0128762D02*
X0093185Y0128762D01*
X0094784Y0130361D02*
X0110333Y0130361D01*
X0110333Y0131959D02*
X0096382Y0131959D01*
X0097180Y0133558D02*
X0110608Y0133558D01*
X0110698Y0133776D02*
X0110333Y0132894D01*
X0110333Y0124539D01*
X0110641Y0123795D01*
X0110333Y0123051D01*
X0110333Y0114697D01*
X0110698Y0113815D01*
X0111067Y0113446D01*
X0111056Y0113426D01*
X0110933Y0112968D01*
X0110933Y0109216D01*
X0116249Y0109216D01*
X0116249Y0108847D01*
X0116617Y0108847D01*
X0116617Y0103531D01*
X0120370Y0103531D01*
X0120828Y0103654D01*
X0121238Y0103891D01*
X0121573Y0104226D01*
X0121810Y0104637D01*
X0121933Y0105095D01*
X0121933Y0108847D01*
X0116617Y0108847D01*
X0116617Y0109216D01*
X0121933Y0109216D01*
X0121933Y0112968D01*
X0121810Y0113426D01*
X0121799Y0113446D01*
X0122168Y0113815D01*
X0122533Y0114697D01*
X0122533Y0123051D01*
X0122225Y0123795D01*
X0122533Y0124539D01*
X0122533Y0132894D01*
X0122168Y0133776D01*
X0121493Y0134451D01*
X0120610Y0134817D01*
X0112256Y0134817D01*
X0111374Y0134451D01*
X0110698Y0133776D01*
X0110333Y0125565D02*
X0049274Y0125565D01*
X0049274Y0123967D02*
X0110570Y0123967D01*
X0110333Y0122368D02*
X0049274Y0122368D01*
X0049274Y0120770D02*
X0110333Y0120770D01*
X0110333Y0119171D02*
X0049274Y0119171D01*
X0049274Y0117573D02*
X0110333Y0117573D01*
X0110333Y0115974D02*
X0049274Y0115974D01*
X0049274Y0114376D02*
X0110466Y0114376D01*
X0110933Y0112777D02*
X0049274Y0112777D01*
X0049274Y0111179D02*
X0110933Y0111179D01*
X0110933Y0109580D02*
X0092591Y0109580D01*
X0092314Y0109857D02*
X0085434Y0109857D01*
X0080569Y0104991D01*
X0080569Y0098111D01*
X0085434Y0093246D01*
X0092314Y0093246D01*
X0097180Y0098111D01*
X0097180Y0104991D01*
X0092314Y0109857D01*
X0094189Y0107982D02*
X0110933Y0107982D01*
X0110933Y0108847D02*
X0110933Y0105095D01*
X0111056Y0104637D01*
X0111293Y0104226D01*
X0111628Y0103891D01*
X0112038Y0103654D01*
X0112496Y0103531D01*
X0116249Y0103531D01*
X0116249Y0108847D01*
X0110933Y0108847D01*
X0110933Y0106383D02*
X0095788Y0106383D01*
X0097180Y0104785D02*
X0111016Y0104785D01*
X0116249Y0104785D02*
X0116617Y0104785D01*
X0116617Y0106383D02*
X0116249Y0106383D01*
X0116249Y0107982D02*
X0116617Y0107982D01*
X0121933Y0107982D02*
X0168474Y0107982D01*
X0168474Y0109580D02*
X0121933Y0109580D01*
X0121933Y0111179D02*
X0168474Y0111179D01*
X0168474Y0112777D02*
X0121933Y0112777D01*
X0122400Y0114376D02*
X0168474Y0114376D01*
X0168474Y0115974D02*
X0122533Y0115974D01*
X0122533Y0117573D02*
X0168474Y0117573D01*
X0168474Y0119171D02*
X0122533Y0119171D01*
X0122533Y0120770D02*
X0168474Y0120770D01*
X0168474Y0122368D02*
X0122533Y0122368D01*
X0122296Y0123967D02*
X0168474Y0123967D01*
X0168474Y0125565D02*
X0122533Y0125565D01*
X0122533Y0127164D02*
X0168474Y0127164D01*
X0168474Y0128762D02*
X0122533Y0128762D01*
X0122533Y0130361D02*
X0168474Y0130361D01*
X0168474Y0131959D02*
X0122533Y0131959D01*
X0122258Y0133558D02*
X0168474Y0133558D01*
X0168474Y0135156D02*
X0097180Y0135156D01*
X0097180Y0136755D02*
X0168474Y0136755D01*
X0168474Y0138353D02*
X0097180Y0138353D01*
X0096865Y0139952D02*
X0168474Y0139952D01*
X0168474Y0141550D02*
X0095266Y0141550D01*
X0093668Y0143149D02*
X0168474Y0143149D01*
X0168474Y0154339D02*
X0029274Y0154339D01*
X0029274Y0155937D02*
X0168474Y0155937D01*
X0168474Y0157536D02*
X0029274Y0157536D01*
X0029274Y0159134D02*
X0168474Y0159134D01*
X0168474Y0160733D02*
X0029274Y0160733D01*
X0029274Y0162331D02*
X0045987Y0162331D01*
X0044583Y0163930D02*
X0029274Y0163930D01*
X0029274Y0165528D02*
X0043974Y0165528D01*
X0043974Y0167127D02*
X0029274Y0167127D01*
X0029274Y0168725D02*
X0044544Y0168725D01*
X0045894Y0170324D02*
X0029274Y0170324D01*
X0029274Y0171922D02*
X0045974Y0171922D01*
X0045974Y0173521D02*
X0029274Y0173521D01*
X0029274Y0175119D02*
X0045974Y0175119D01*
X0045974Y0176718D02*
X0029274Y0176718D01*
X0029274Y0178316D02*
X0045974Y0178316D01*
X0045974Y0179915D02*
X0029274Y0179915D01*
X0029274Y0181513D02*
X0045974Y0181513D01*
X0045974Y0183112D02*
X0029274Y0183112D01*
X0029274Y0184710D02*
X0045974Y0184710D01*
X0045974Y0186309D02*
X0029274Y0186309D01*
X0029274Y0187907D02*
X0045974Y0187907D01*
X0045974Y0189506D02*
X0029274Y0189506D01*
X0029274Y0191104D02*
X0045974Y0191104D01*
X0045974Y0192703D02*
X0029274Y0192703D01*
X0029274Y0194301D02*
X0045974Y0194301D01*
X0045974Y0195900D02*
X0029274Y0195900D01*
X0029274Y0197498D02*
X0045974Y0197498D01*
X0045974Y0199097D02*
X0029274Y0199097D01*
X0029274Y0200695D02*
X0046594Y0200695D01*
X0047231Y0201333D02*
X0047231Y0201333D01*
X0048193Y0202294D02*
X0029274Y0202294D01*
X0032236Y0203892D02*
X0035512Y0203892D01*
X0033913Y0205491D02*
X0033835Y0205491D01*
X0032608Y0213483D02*
X0035140Y0213483D01*
X0042608Y0213483D02*
X0045988Y0213483D01*
X0044390Y0211885D02*
X0044207Y0211885D01*
X0048674Y0211885D02*
X0049074Y0211885D01*
X0049074Y0213483D02*
X0048674Y0213483D01*
X0051760Y0213483D02*
X0055140Y0213483D01*
X0053541Y0211885D02*
X0053358Y0211885D01*
X0049074Y0210286D02*
X0048674Y0210286D01*
X0048674Y0207089D02*
X0049074Y0207089D01*
X0049074Y0205491D02*
X0048674Y0205491D01*
X0048674Y0203892D02*
X0049074Y0203892D01*
X0046360Y0203892D02*
X0042236Y0203892D01*
X0043835Y0205491D02*
X0044762Y0205491D01*
X0051774Y0197498D02*
X0083701Y0197498D01*
X0083474Y0195900D02*
X0051774Y0195900D01*
X0051774Y0194301D02*
X0083474Y0194301D01*
X0083474Y0192703D02*
X0051774Y0192703D01*
X0051774Y0191104D02*
X0083474Y0191104D01*
X0083474Y0189506D02*
X0051774Y0189506D01*
X0051774Y0187907D02*
X0083474Y0187907D01*
X0083474Y0186309D02*
X0051774Y0186309D01*
X0051774Y0184710D02*
X0083474Y0184710D01*
X0083474Y0183112D02*
X0051774Y0183112D01*
X0051774Y0181513D02*
X0083474Y0181513D01*
X0083474Y0179915D02*
X0051774Y0179915D01*
X0051774Y0178316D02*
X0083474Y0178316D01*
X0083474Y0176718D02*
X0051774Y0176718D01*
X0051774Y0175119D02*
X0083190Y0175119D01*
X0081959Y0173521D02*
X0051774Y0173521D01*
X0051774Y0171922D02*
X0081474Y0171922D01*
X0081505Y0170324D02*
X0051854Y0170324D01*
X0053204Y0168725D02*
X0082167Y0168725D01*
X0083824Y0167127D02*
X0053774Y0167127D01*
X0053774Y0165528D02*
X0168474Y0165528D01*
X0168474Y0163930D02*
X0053165Y0163930D01*
X0051761Y0162331D02*
X0168474Y0162331D01*
X0168474Y0167127D02*
X0088924Y0167127D01*
X0090581Y0168725D02*
X0168474Y0168725D01*
X0168474Y0170324D02*
X0091243Y0170324D01*
X0091274Y0171922D02*
X0168474Y0171922D01*
X0168474Y0173521D02*
X0090789Y0173521D01*
X0089558Y0175119D02*
X0168474Y0175119D01*
X0168474Y0176718D02*
X0089274Y0176718D01*
X0089274Y0178316D02*
X0168474Y0178316D01*
X0168474Y0179915D02*
X0089274Y0179915D01*
X0089274Y0181513D02*
X0168474Y0181513D01*
X0168474Y0183112D02*
X0089274Y0183112D01*
X0089274Y0184710D02*
X0168474Y0184710D01*
X0168474Y0186309D02*
X0089274Y0186309D01*
X0089274Y0187907D02*
X0168474Y0187907D01*
X0168474Y0189506D02*
X0116133Y0189506D01*
X0111616Y0189506D02*
X0089274Y0189506D01*
X0089274Y0191104D02*
X0109718Y0191104D01*
X0109055Y0192703D02*
X0089274Y0192703D01*
X0089274Y0194301D02*
X0108974Y0194301D01*
X0109409Y0195900D02*
X0090001Y0195900D01*
X0092608Y0213483D02*
X0095140Y0213483D01*
X0102608Y0213483D02*
X0105140Y0213483D01*
X0112608Y0213483D02*
X0120140Y0213483D01*
X0118541Y0211885D02*
X0114207Y0211885D01*
X0114774Y0210286D02*
X0117974Y0210286D01*
X0117974Y0208688D02*
X0114774Y0208688D01*
X0114774Y0207089D02*
X0117974Y0207089D01*
X0118913Y0205491D02*
X0113835Y0205491D01*
X0127608Y0213483D02*
X0130140Y0213483D01*
X0137608Y0213483D02*
X0140140Y0213483D01*
X0147608Y0213483D02*
X0150140Y0213483D01*
X0157608Y0213483D02*
X0160140Y0213483D01*
X0167608Y0213483D02*
X0170140Y0213483D01*
X0168474Y0203892D02*
X0167236Y0203892D01*
X0168474Y0202294D02*
X0161395Y0202294D01*
X0159797Y0200695D02*
X0168474Y0200695D01*
X0168474Y0199097D02*
X0158198Y0199097D01*
X0156600Y0197498D02*
X0168474Y0197498D01*
X0168474Y0195900D02*
X0155001Y0195900D01*
X0153403Y0194301D02*
X0168474Y0194301D01*
X0168474Y0192703D02*
X0151804Y0192703D01*
X0149765Y0191104D02*
X0168474Y0191104D01*
X0187236Y0203892D02*
X0190512Y0203892D01*
X0188913Y0205491D02*
X0188835Y0205491D01*
X0197236Y0203892D02*
X0199385Y0203892D01*
X0199385Y0205491D02*
X0198835Y0205491D01*
X0199207Y0211885D02*
X0199317Y0211885D01*
X0197718Y0213483D02*
X0197608Y0213483D01*
X0168474Y0106383D02*
X0121933Y0106383D01*
X0121850Y0104785D02*
X0168474Y0104785D01*
X0168474Y0103186D02*
X0097180Y0103186D01*
X0097180Y0101588D02*
X0168474Y0101588D01*
X0168474Y0099989D02*
X0097180Y0099989D01*
X0097180Y0098391D02*
X0168474Y0098391D01*
X0168474Y0096792D02*
X0095861Y0096792D01*
X0094262Y0095194D02*
X0165820Y0095194D01*
X0164533Y0093595D02*
X0092664Y0093595D01*
X0085084Y0093595D02*
X0050754Y0093595D01*
X0049274Y0095194D02*
X0083486Y0095194D01*
X0081887Y0096792D02*
X0049274Y0096792D01*
X0049274Y0098391D02*
X0080569Y0098391D01*
X0080569Y0099989D02*
X0049274Y0099989D01*
X0049274Y0101588D02*
X0080569Y0101588D01*
X0080569Y0103186D02*
X0049274Y0103186D01*
X0049274Y0104785D02*
X0080569Y0104785D01*
X0081960Y0106383D02*
X0049274Y0106383D01*
X0049274Y0107982D02*
X0083559Y0107982D01*
X0085157Y0109580D02*
X0049274Y0109580D01*
X0052353Y0091997D02*
X0164013Y0091997D01*
X0164017Y0090398D02*
X0053882Y0090398D01*
X0054274Y0088800D02*
X0164679Y0088800D01*
X0166247Y0087201D02*
X0054274Y0087201D01*
X0061414Y0050435D02*
X0121334Y0050435D01*
X0119736Y0048837D02*
X0063012Y0048837D01*
X0064611Y0047238D02*
X0118137Y0047238D01*
X0105023Y0029655D02*
X0178974Y0029655D01*
X0178974Y0031253D02*
X0102399Y0031253D01*
X0100349Y0031253D02*
X0018238Y0031253D01*
X0016640Y0032852D02*
X0179078Y0032852D01*
X0178974Y0028056D02*
X0105981Y0028056D01*
X0106274Y0026458D02*
X0178974Y0026458D01*
X0179093Y0024859D02*
X0106050Y0024859D01*
X0106983Y0023261D02*
X0110765Y0023261D01*
X0109167Y0021662D02*
X0108581Y0021662D01*
X0113674Y0021662D02*
X0114074Y0021662D01*
X0114074Y0020064D02*
X0113674Y0020064D01*
X0113674Y0018465D02*
X0114074Y0018465D01*
X0114074Y0016867D02*
X0113674Y0016867D01*
X0113674Y0015268D02*
X0114074Y0015268D01*
X0114074Y0013670D02*
X0113674Y0013670D01*
X0111583Y0013670D02*
X0106165Y0013670D01*
X0104074Y0013670D02*
X0103674Y0013670D01*
X0103674Y0015268D02*
X0104074Y0015268D01*
X0104074Y0016867D02*
X0103674Y0016867D01*
X0103674Y0018465D02*
X0104074Y0018465D01*
X0107763Y0015268D02*
X0109985Y0015268D01*
X0116165Y0013670D02*
X0120735Y0013670D01*
X0119136Y0015268D02*
X0117763Y0015268D01*
X0116983Y0023261D02*
X0119917Y0023261D01*
X0114074Y0023261D02*
X0113674Y0023261D01*
X0101583Y0013670D02*
X0097013Y0013670D01*
X0098612Y0015268D02*
X0099985Y0015268D01*
X0090735Y0013670D02*
X0087013Y0013670D01*
X0088612Y0015268D02*
X0089136Y0015268D01*
X0080735Y0013670D02*
X0077013Y0013670D01*
X0078612Y0015268D02*
X0079136Y0015268D01*
X0070735Y0013670D02*
X0067013Y0013670D01*
X0068612Y0015268D02*
X0069136Y0015268D01*
X0060735Y0013670D02*
X0057013Y0013670D01*
X0058612Y0015268D02*
X0059136Y0015268D01*
X0044250Y0034450D02*
X0015041Y0034450D01*
X0013443Y0036049D02*
X0042270Y0036049D01*
X0041578Y0037647D02*
X0011844Y0037647D01*
X0011276Y0039246D02*
X0041474Y0039246D01*
X0041886Y0040844D02*
X0011276Y0040844D01*
X0019837Y0029655D02*
X0097725Y0029655D01*
X0127831Y0023261D02*
X0139917Y0023261D01*
X0138318Y0021662D02*
X0129430Y0021662D01*
X0129774Y0020064D02*
X0137974Y0020064D01*
X0137974Y0018465D02*
X0129774Y0018465D01*
X0129774Y0016867D02*
X0137974Y0016867D01*
X0139136Y0015268D02*
X0128612Y0015268D01*
X0127013Y0013670D02*
X0140735Y0013670D01*
X0147013Y0013670D02*
X0150735Y0013670D01*
X0149136Y0015268D02*
X0148612Y0015268D01*
X0147831Y0023261D02*
X0149917Y0023261D01*
X0157831Y0023261D02*
X0159917Y0023261D01*
X0167831Y0023261D02*
X0169917Y0023261D01*
X0177831Y0023261D02*
X0179917Y0023261D01*
X0179136Y0015268D02*
X0178612Y0015268D01*
X0177013Y0013670D02*
X0180735Y0013670D01*
X0187013Y0013670D02*
X0190735Y0013670D01*
X0189136Y0015268D02*
X0188612Y0015268D01*
X0170735Y0013670D02*
X0167013Y0013670D01*
X0168612Y0015268D02*
X0169136Y0015268D01*
X0160735Y0013670D02*
X0157013Y0013670D01*
X0158612Y0015268D02*
X0159136Y0015268D01*
X0085140Y0213483D02*
X0082608Y0213483D01*
X0075140Y0213483D02*
X0072608Y0213483D01*
X0065140Y0213483D02*
X0062608Y0213483D01*
X0025140Y0213483D02*
X0022608Y0213483D01*
D17*
X0048874Y0166374D03*
X0041374Y0148874D03*
X0086374Y0171374D03*
X0113874Y0193874D03*
X0046374Y0086374D03*
X0038874Y0073874D03*
X0046374Y0061374D03*
X0053874Y0041374D03*
X0046374Y0038874D03*
X0018874Y0056374D03*
X0101374Y0026374D03*
X0128874Y0043874D03*
X0138874Y0043874D03*
D18*
X0033874Y0133874D03*
D19*
X0163874Y0028874D03*
X0173874Y0028874D03*
D20*
X0168874Y0091374D03*
D21*
X0171374Y0093874D01*
X0171374Y0206374D01*
X0173874Y0208874D01*
X0163874Y0208874D02*
X0148874Y0193874D01*
X0113874Y0193874D01*
X0126374Y0201374D02*
X0133874Y0208874D01*
X0126374Y0201374D02*
X0051374Y0201374D01*
X0048874Y0198874D01*
X0048874Y0166374D01*
X0041374Y0148874D02*
X0046374Y0143874D01*
X0046374Y0093874D01*
X0051374Y0088874D01*
X0051374Y0083874D01*
X0048874Y0081374D01*
X0048874Y0071374D01*
X0053874Y0066374D01*
X0053874Y0053874D01*
X0063874Y0043874D01*
X0118874Y0043874D01*
X0123874Y0048874D01*
X0133874Y0048874D01*
X0138874Y0043874D01*
X0128874Y0043874D02*
X0126374Y0041374D01*
X0061374Y0041374D01*
X0051374Y0051374D01*
X0051374Y0063874D01*
X0046374Y0068874D01*
X0046374Y0086374D01*
X0046374Y0061374D02*
X0046374Y0048874D01*
X0043874Y0046374D01*
X0031374Y0046374D01*
X0026374Y0051374D01*
X0026374Y0206374D01*
X0028874Y0208874D01*
X0023874Y0203874D02*
X0023874Y0048874D01*
X0028874Y0043874D01*
X0051374Y0043874D01*
X0053874Y0041374D01*
X0056374Y0038874D01*
X0188874Y0038874D01*
X0193874Y0033874D01*
X0193874Y0030874D01*
X0193874Y0026874D02*
X0193874Y0018874D01*
X0183874Y0018874D02*
X0183874Y0026874D01*
X0183874Y0030874D02*
X0183874Y0033874D01*
X0181374Y0036374D01*
X0048874Y0036374D01*
X0046374Y0038874D01*
X0063874Y0018874D02*
X0071374Y0026374D01*
X0101374Y0026374D01*
X0086374Y0171374D02*
X0086374Y0196374D01*
X0088874Y0198874D01*
X0133874Y0198874D01*
X0143874Y0208874D01*
X0023874Y0203874D02*
X0018874Y0208874D01*
M02*
