G75*
%MOIN*%
%OFA0B0*%
%FSLAX25Y25*%
%IPPOS*%
%LPD*%
%AMOC8*
5,1,8,0,0,1.08239X$1,22.5*
%
%ADD10C,0.00004*%
%ADD11R,0.06699X0.07498*%
%ADD12R,0.05912X0.12605*%
%ADD13R,0.11227X0.02369*%
%ADD14R,0.07800X0.07800*%
%ADD15OC8,0.12211*%
%ADD16R,0.04337X0.10243*%
%ADD17R,0.08274X0.10243*%
%ADD18R,0.10243X0.04337*%
%ADD19R,0.10243X0.08274*%
%ADD20C,0.04337*%
%ADD21R,0.03550X0.04731*%
%ADD22R,0.04337X0.04731*%
%ADD23OC8,0.07400*%
%ADD24R,0.06900X0.04337*%
%ADD25R,0.04731X0.04337*%
%ADD26R,0.07487X0.07487*%
D10*
X0008874Y0037220D02*
X0037220Y0008874D01*
X0197063Y0008874D01*
X0201787Y0013598D01*
X0201787Y0212811D01*
X0197063Y0217535D01*
X0013598Y0217535D01*
X0008874Y0212811D01*
X0008874Y0037220D01*
D11*
X0070776Y0086374D03*
X0081972Y0086374D03*
X0125776Y0193874D03*
X0136972Y0193874D03*
D12*
X0157516Y0081059D03*
X0175232Y0081059D03*
X0175232Y0041689D03*
X0157516Y0041689D03*
D13*
X0148087Y0109031D03*
X0148087Y0118874D03*
X0148087Y0128717D03*
X0174661Y0128717D03*
X0174661Y0118874D03*
X0174661Y0109031D03*
D14*
X0116433Y0109031D03*
X0116433Y0118874D03*
X0116433Y0128717D03*
D15*
X0088874Y0136197D03*
X0088874Y0101551D03*
D16*
X0053685Y0051874D03*
X0045811Y0051874D03*
X0037937Y0051874D03*
X0030063Y0051874D03*
D17*
X0019039Y0039579D03*
X0064709Y0039579D03*
D18*
X0038874Y0087063D03*
X0038874Y0094937D03*
X0038874Y0102811D03*
X0038874Y0110685D03*
X0038874Y0157063D03*
X0038874Y0164937D03*
X0038874Y0172811D03*
X0038874Y0180685D03*
D19*
X0026579Y0191709D03*
X0026579Y0146039D03*
X0026579Y0121709D03*
X0026579Y0076039D03*
D20*
X0013874Y0198874D03*
X0195874Y0198874D03*
X0195874Y0028874D03*
D21*
X0096433Y0068736D03*
X0091315Y0068736D03*
D22*
X0093913Y0054051D03*
D23*
X0093874Y0018874D03*
X0083874Y0018874D03*
X0073874Y0018874D03*
X0063874Y0018874D03*
X0053874Y0018874D03*
X0103874Y0018874D03*
X0113874Y0018874D03*
X0123874Y0018874D03*
X0143874Y0018874D03*
X0153874Y0018874D03*
X0163874Y0018874D03*
X0173874Y0018874D03*
X0183874Y0018874D03*
X0193874Y0018874D03*
X0193874Y0208874D03*
X0183874Y0208874D03*
X0173874Y0208874D03*
X0163874Y0208874D03*
X0153874Y0208874D03*
X0143874Y0208874D03*
X0133874Y0208874D03*
X0123874Y0208874D03*
X0108874Y0208874D03*
X0098874Y0208874D03*
X0088874Y0208874D03*
X0078874Y0208874D03*
X0068874Y0208874D03*
X0058874Y0208874D03*
X0048874Y0208874D03*
X0038874Y0208874D03*
X0028874Y0208874D03*
X0018874Y0208874D03*
D24*
X0078728Y0182673D03*
X0078728Y0170075D03*
X0099020Y0170075D03*
X0099020Y0182673D03*
D25*
X0099720Y0161374D03*
X0093028Y0161374D03*
D26*
X0147988Y0163520D03*
X0174760Y0163520D03*
X0174760Y0194228D03*
X0147988Y0194228D03*
M02*
