G75*
%MOIN*%
%OFA0B0*%
%FSLAX25Y25*%
%IPPOS*%
%LPD*%
%AMOC8*
5,1,8,0,0,1.08239X$1,22.5*
%
%ADD10C,0.00004*%
%ADD11R,0.07400X0.07400*%
%ADD12OC8,0.11811*%
%ADD13OC8,0.07000*%
%ADD14OC8,0.06000*%
%ADD15C,0.01600*%
%ADD16C,0.05000*%
%ADD17C,0.04528*%
%ADD18C,0.03200*%
%ADD19C,0.07000*%
D10*
X0008874Y0037220D02*
X0037220Y0008874D01*
X0197063Y0008874D01*
X0201787Y0013598D01*
X0201787Y0212811D01*
X0197063Y0217535D01*
X0013598Y0217535D01*
X0008874Y0212811D01*
X0008874Y0037220D01*
D11*
X0174228Y0083677D03*
X0174228Y0093520D03*
X0174228Y0103362D03*
D12*
X0146669Y0110843D03*
X0146669Y0076197D03*
D13*
X0122811Y0018205D03*
X0112811Y0018205D03*
X0102811Y0018205D03*
X0092811Y0018205D03*
X0082811Y0018205D03*
X0072811Y0018205D03*
X0062811Y0018205D03*
X0052811Y0018205D03*
X0047850Y0208205D03*
X0037850Y0208205D03*
X0027850Y0208205D03*
X0017850Y0208205D03*
X0057850Y0208205D03*
X0067850Y0208205D03*
X0077850Y0208205D03*
X0087850Y0208205D03*
X0097850Y0208205D03*
X0107850Y0208205D03*
X0122850Y0208205D03*
X0132850Y0208205D03*
X0142850Y0208205D03*
X0152850Y0208205D03*
X0162850Y0208205D03*
X0172850Y0208205D03*
X0182850Y0208205D03*
X0192850Y0208205D03*
D14*
X0192811Y0018205D03*
X0182811Y0018205D03*
X0172811Y0018205D03*
X0162811Y0018205D03*
X0152811Y0018205D03*
X0142811Y0018205D03*
D15*
X0089631Y0024327D02*
X0025164Y0024327D01*
X0026762Y0022729D02*
X0048991Y0022729D01*
X0050367Y0024105D02*
X0046911Y0020649D01*
X0046911Y0015761D01*
X0050367Y0012305D01*
X0055255Y0012305D01*
X0057811Y0014861D01*
X0060367Y0012305D01*
X0065255Y0012305D01*
X0067811Y0014861D01*
X0070367Y0012305D01*
X0075255Y0012305D01*
X0077811Y0014861D01*
X0080367Y0012305D01*
X0085255Y0012305D01*
X0087811Y0014861D01*
X0090367Y0012305D01*
X0095255Y0012305D01*
X0098235Y0015285D01*
X0100616Y0012905D01*
X0102611Y0012905D01*
X0102611Y0018005D01*
X0103011Y0018005D01*
X0103011Y0018405D01*
X0102611Y0018405D01*
X0102611Y0023505D01*
X0100616Y0023505D01*
X0098235Y0021124D01*
X0096031Y0023329D01*
X0096031Y0030728D01*
X0096222Y0030919D01*
X0096831Y0032389D01*
X0096831Y0033981D01*
X0096222Y0035451D01*
X0079194Y0052478D01*
X0078069Y0053604D01*
X0076599Y0054213D01*
X0054556Y0054213D01*
X0053555Y0055214D01*
X0051386Y0056113D01*
X0049039Y0056113D01*
X0046871Y0055214D01*
X0045211Y0053555D01*
X0044313Y0051386D01*
X0044313Y0050762D01*
X0043313Y0051176D01*
X0041964Y0051176D01*
X0031050Y0062089D01*
X0031050Y0203061D01*
X0032850Y0204861D01*
X0035407Y0202305D01*
X0040294Y0202305D01*
X0043275Y0205285D01*
X0045655Y0202905D01*
X0047650Y0202905D01*
X0047650Y0208005D01*
X0048050Y0208005D01*
X0048050Y0202905D01*
X0050046Y0202905D01*
X0052426Y0205285D01*
X0055407Y0202305D01*
X0060294Y0202305D01*
X0062850Y0204861D01*
X0065407Y0202305D01*
X0070294Y0202305D01*
X0072850Y0204861D01*
X0075407Y0202305D01*
X0080294Y0202305D01*
X0082850Y0204861D01*
X0085407Y0202305D01*
X0090294Y0202305D01*
X0092850Y0204861D01*
X0094650Y0203061D01*
X0094650Y0201538D01*
X0073990Y0180878D01*
X0073090Y0179978D01*
X0072603Y0178802D01*
X0072603Y0114966D01*
X0071649Y0114012D01*
X0070903Y0112211D01*
X0070903Y0110262D01*
X0071649Y0108461D01*
X0073028Y0107082D01*
X0074828Y0106336D01*
X0076778Y0106336D01*
X0078579Y0107082D01*
X0079957Y0108461D01*
X0080703Y0110262D01*
X0080703Y0112211D01*
X0079957Y0114012D01*
X0079003Y0114966D01*
X0079003Y0176840D01*
X0099663Y0197500D01*
X0100563Y0198400D01*
X0101050Y0199576D01*
X0101050Y0203061D01*
X0102850Y0204861D01*
X0104650Y0203061D01*
X0104650Y0196034D01*
X0104631Y0195987D01*
X0104631Y0194714D01*
X0105118Y0193538D01*
X0106018Y0192638D01*
X0112460Y0186195D01*
X0113361Y0185295D01*
X0114537Y0184808D01*
X0133533Y0184808D01*
X0149375Y0168966D01*
X0149375Y0164178D01*
X0148421Y0163224D01*
X0147675Y0161423D01*
X0147675Y0159474D01*
X0148421Y0157673D01*
X0149799Y0156295D01*
X0151600Y0155549D01*
X0153549Y0155549D01*
X0155350Y0156295D01*
X0156729Y0157673D01*
X0157475Y0159474D01*
X0157475Y0161423D01*
X0156729Y0163224D01*
X0155775Y0164178D01*
X0155775Y0170928D01*
X0155288Y0172104D01*
X0136671Y0190721D01*
X0135495Y0191208D01*
X0116499Y0191208D01*
X0111050Y0196656D01*
X0111050Y0197012D01*
X0112398Y0195665D01*
X0114199Y0194919D01*
X0116148Y0194919D01*
X0117949Y0195665D01*
X0118903Y0196619D01*
X0151243Y0196619D01*
X0152419Y0197106D01*
X0153319Y0198006D01*
X0155563Y0200250D01*
X0156050Y0201426D01*
X0156050Y0203061D01*
X0157850Y0204861D01*
X0160407Y0202305D01*
X0165294Y0202305D01*
X0167850Y0204861D01*
X0170407Y0202305D01*
X0175294Y0202305D01*
X0177850Y0204861D01*
X0180407Y0202305D01*
X0185294Y0202305D01*
X0187850Y0204861D01*
X0190407Y0202305D01*
X0195294Y0202305D01*
X0198750Y0205761D01*
X0198750Y0210649D01*
X0195294Y0214105D01*
X0190407Y0214105D01*
X0187850Y0211549D01*
X0185294Y0214105D01*
X0180407Y0214105D01*
X0177850Y0211549D01*
X0175294Y0214105D01*
X0170407Y0214105D01*
X0167850Y0211549D01*
X0165294Y0214105D01*
X0160407Y0214105D01*
X0157850Y0211549D01*
X0155294Y0214105D01*
X0150407Y0214105D01*
X0147850Y0211549D01*
X0145294Y0214105D01*
X0140407Y0214105D01*
X0137850Y0211549D01*
X0135294Y0214105D01*
X0130407Y0214105D01*
X0127850Y0211549D01*
X0125294Y0214105D01*
X0120407Y0214105D01*
X0116950Y0210649D01*
X0116950Y0205761D01*
X0119692Y0203019D01*
X0118903Y0203019D01*
X0117949Y0203973D01*
X0116148Y0204719D01*
X0114199Y0204719D01*
X0112398Y0203973D01*
X0111050Y0202626D01*
X0111050Y0203061D01*
X0113750Y0205761D01*
X0113750Y0210649D01*
X0110294Y0214105D01*
X0105407Y0214105D01*
X0102850Y0211549D01*
X0100294Y0214105D01*
X0095407Y0214105D01*
X0092850Y0211549D01*
X0090294Y0214105D01*
X0085407Y0214105D01*
X0082850Y0211549D01*
X0080294Y0214105D01*
X0075407Y0214105D01*
X0072850Y0211549D01*
X0070294Y0214105D01*
X0065407Y0214105D01*
X0062850Y0211549D01*
X0060294Y0214105D01*
X0055407Y0214105D01*
X0052426Y0211124D01*
X0050046Y0213505D01*
X0048050Y0213505D01*
X0048050Y0208405D01*
X0047650Y0208405D01*
X0047650Y0213505D01*
X0045655Y0213505D01*
X0043275Y0211124D01*
X0040294Y0214105D01*
X0035407Y0214105D01*
X0032850Y0211549D01*
X0030294Y0214105D01*
X0025407Y0214105D01*
X0022850Y0211549D01*
X0020294Y0214105D01*
X0015407Y0214105D01*
X0011950Y0210649D01*
X0011950Y0205761D01*
X0014650Y0203061D01*
X0014650Y0043908D01*
X0014631Y0043861D01*
X0014631Y0042588D01*
X0015118Y0041412D01*
X0016018Y0040512D01*
X0019722Y0036808D01*
X0019722Y0035458D01*
X0020468Y0033657D01*
X0021846Y0032279D01*
X0023647Y0031533D01*
X0025597Y0031533D01*
X0027398Y0032279D01*
X0028776Y0033657D01*
X0029522Y0035458D01*
X0029522Y0037408D01*
X0028776Y0039209D01*
X0027398Y0040587D01*
X0025597Y0041333D01*
X0024248Y0041333D01*
X0021050Y0044530D01*
X0021050Y0203061D01*
X0022850Y0204861D01*
X0024650Y0203061D01*
X0024650Y0061467D01*
X0024631Y0061420D01*
X0024631Y0060147D01*
X0025118Y0058971D01*
X0026018Y0058071D01*
X0037439Y0046650D01*
X0037439Y0045301D01*
X0038185Y0043500D01*
X0039563Y0042122D01*
X0041364Y0041376D01*
X0043313Y0041376D01*
X0045114Y0042122D01*
X0046493Y0043500D01*
X0047153Y0045094D01*
X0049039Y0044313D01*
X0051386Y0044313D01*
X0053555Y0045211D01*
X0054556Y0046213D01*
X0074146Y0046213D01*
X0089631Y0030728D01*
X0089631Y0023368D01*
X0087811Y0021549D01*
X0085255Y0024105D01*
X0080367Y0024105D01*
X0077811Y0021549D01*
X0075255Y0024105D01*
X0070367Y0024105D01*
X0067811Y0021549D01*
X0065255Y0024105D01*
X0060367Y0024105D01*
X0057811Y0021549D01*
X0055255Y0024105D01*
X0050367Y0024105D01*
X0047393Y0021130D02*
X0028361Y0021130D01*
X0029959Y0019532D02*
X0046911Y0019532D01*
X0046911Y0017933D02*
X0031558Y0017933D01*
X0033156Y0016335D02*
X0046911Y0016335D01*
X0047935Y0014736D02*
X0034755Y0014736D01*
X0036353Y0013138D02*
X0049534Y0013138D01*
X0056088Y0013138D02*
X0059534Y0013138D01*
X0057935Y0014736D02*
X0057687Y0014736D01*
X0056631Y0022729D02*
X0058991Y0022729D01*
X0066631Y0022729D02*
X0068991Y0022729D01*
X0076631Y0022729D02*
X0078991Y0022729D01*
X0086631Y0022729D02*
X0088991Y0022729D01*
X0089631Y0025926D02*
X0023565Y0025926D01*
X0021967Y0027525D02*
X0089631Y0027525D01*
X0089631Y0029123D02*
X0020368Y0029123D01*
X0018770Y0030722D02*
X0089631Y0030722D01*
X0088039Y0032320D02*
X0027439Y0032320D01*
X0028884Y0033919D02*
X0086440Y0033919D01*
X0084842Y0035517D02*
X0029522Y0035517D01*
X0029522Y0037116D02*
X0083243Y0037116D01*
X0081645Y0038714D02*
X0028981Y0038714D01*
X0027672Y0040313D02*
X0080046Y0040313D01*
X0078448Y0041911D02*
X0044606Y0041911D01*
X0046497Y0043510D02*
X0076849Y0043510D01*
X0075251Y0045108D02*
X0053307Y0045108D01*
X0044361Y0051502D02*
X0041637Y0051502D01*
X0040039Y0053101D02*
X0045023Y0053101D01*
X0046355Y0054699D02*
X0038440Y0054699D01*
X0036842Y0056298D02*
X0088815Y0056298D01*
X0090413Y0054699D02*
X0054070Y0054699D01*
X0045114Y0065744D02*
X0046068Y0066698D01*
X0078415Y0066698D01*
X0116397Y0028715D01*
X0117298Y0027815D01*
X0118474Y0027328D01*
X0121286Y0027328D01*
X0122240Y0026374D01*
X0124041Y0025628D01*
X0125990Y0025628D01*
X0127791Y0026374D01*
X0129170Y0027752D01*
X0129916Y0029553D01*
X0129916Y0031502D01*
X0129170Y0033303D01*
X0127791Y0034682D01*
X0125990Y0035428D01*
X0124041Y0035428D01*
X0122240Y0034682D01*
X0121286Y0033728D01*
X0120436Y0033728D01*
X0082453Y0071710D01*
X0081553Y0072610D01*
X0080377Y0073098D01*
X0046068Y0073098D01*
X0045114Y0074052D01*
X0043313Y0074798D01*
X0041364Y0074798D01*
X0039563Y0074052D01*
X0038185Y0072673D01*
X0037439Y0070872D01*
X0037439Y0068923D01*
X0038185Y0067122D01*
X0039563Y0065744D01*
X0041364Y0064998D01*
X0043313Y0064998D01*
X0045114Y0065744D01*
X0045259Y0065889D02*
X0079224Y0065889D01*
X0080822Y0064290D02*
X0031050Y0064290D01*
X0031050Y0062692D02*
X0082421Y0062692D01*
X0084019Y0061093D02*
X0032046Y0061093D01*
X0033645Y0059495D02*
X0085618Y0059495D01*
X0087216Y0057896D02*
X0035243Y0057896D01*
X0030988Y0053101D02*
X0021050Y0053101D01*
X0021050Y0054699D02*
X0029389Y0054699D01*
X0027791Y0056298D02*
X0021050Y0056298D01*
X0021050Y0057896D02*
X0026192Y0057896D01*
X0026018Y0058071D02*
X0026018Y0058071D01*
X0024901Y0059495D02*
X0021050Y0059495D01*
X0021050Y0061093D02*
X0024631Y0061093D01*
X0024650Y0062692D02*
X0021050Y0062692D01*
X0021050Y0064290D02*
X0024650Y0064290D01*
X0024650Y0065889D02*
X0021050Y0065889D01*
X0021050Y0067487D02*
X0024650Y0067487D01*
X0024650Y0069086D02*
X0021050Y0069086D01*
X0021050Y0070684D02*
X0024650Y0070684D01*
X0024650Y0072283D02*
X0021050Y0072283D01*
X0021050Y0073881D02*
X0024650Y0073881D01*
X0024650Y0075480D02*
X0021050Y0075480D01*
X0021050Y0077078D02*
X0024650Y0077078D01*
X0024650Y0078677D02*
X0021050Y0078677D01*
X0021050Y0080275D02*
X0024650Y0080275D01*
X0024650Y0081874D02*
X0021050Y0081874D01*
X0021050Y0083472D02*
X0024650Y0083472D01*
X0024650Y0085071D02*
X0021050Y0085071D01*
X0021050Y0086669D02*
X0024650Y0086669D01*
X0024650Y0088268D02*
X0021050Y0088268D01*
X0021050Y0089866D02*
X0024650Y0089866D01*
X0024650Y0091465D02*
X0021050Y0091465D01*
X0021050Y0093063D02*
X0024650Y0093063D01*
X0024650Y0094662D02*
X0021050Y0094662D01*
X0021050Y0096260D02*
X0024650Y0096260D01*
X0024650Y0097859D02*
X0021050Y0097859D01*
X0021050Y0099458D02*
X0024650Y0099458D01*
X0024650Y0101056D02*
X0021050Y0101056D01*
X0021050Y0102655D02*
X0024650Y0102655D01*
X0024650Y0104253D02*
X0021050Y0104253D01*
X0021050Y0105852D02*
X0024650Y0105852D01*
X0024650Y0107450D02*
X0021050Y0107450D01*
X0021050Y0109049D02*
X0024650Y0109049D01*
X0024650Y0110647D02*
X0021050Y0110647D01*
X0021050Y0112246D02*
X0024650Y0112246D01*
X0024650Y0113844D02*
X0021050Y0113844D01*
X0021050Y0115443D02*
X0024650Y0115443D01*
X0024650Y0117041D02*
X0021050Y0117041D01*
X0021050Y0118640D02*
X0024650Y0118640D01*
X0024650Y0120238D02*
X0021050Y0120238D01*
X0021050Y0121837D02*
X0024650Y0121837D01*
X0024650Y0123435D02*
X0021050Y0123435D01*
X0021050Y0125034D02*
X0024650Y0125034D01*
X0024650Y0126632D02*
X0021050Y0126632D01*
X0021050Y0128231D02*
X0024650Y0128231D01*
X0024650Y0129829D02*
X0021050Y0129829D01*
X0021050Y0131428D02*
X0024650Y0131428D01*
X0024650Y0133026D02*
X0021050Y0133026D01*
X0021050Y0134625D02*
X0024650Y0134625D01*
X0024650Y0136223D02*
X0021050Y0136223D01*
X0021050Y0137822D02*
X0024650Y0137822D01*
X0024650Y0139420D02*
X0021050Y0139420D01*
X0021050Y0141019D02*
X0024650Y0141019D01*
X0024650Y0142617D02*
X0021050Y0142617D01*
X0021050Y0144216D02*
X0024650Y0144216D01*
X0024650Y0145814D02*
X0021050Y0145814D01*
X0021050Y0147413D02*
X0024650Y0147413D01*
X0024650Y0149011D02*
X0021050Y0149011D01*
X0021050Y0150610D02*
X0024650Y0150610D01*
X0024650Y0152208D02*
X0021050Y0152208D01*
X0021050Y0153807D02*
X0024650Y0153807D01*
X0024650Y0155405D02*
X0021050Y0155405D01*
X0021050Y0157004D02*
X0024650Y0157004D01*
X0024650Y0158602D02*
X0021050Y0158602D01*
X0021050Y0160201D02*
X0024650Y0160201D01*
X0024650Y0161799D02*
X0021050Y0161799D01*
X0021050Y0163398D02*
X0024650Y0163398D01*
X0024650Y0164996D02*
X0021050Y0164996D01*
X0021050Y0166595D02*
X0024650Y0166595D01*
X0024650Y0168194D02*
X0021050Y0168194D01*
X0021050Y0169792D02*
X0024650Y0169792D01*
X0024650Y0171391D02*
X0021050Y0171391D01*
X0021050Y0172989D02*
X0024650Y0172989D01*
X0024650Y0174588D02*
X0021050Y0174588D01*
X0021050Y0176186D02*
X0024650Y0176186D01*
X0024650Y0177785D02*
X0021050Y0177785D01*
X0021050Y0179383D02*
X0024650Y0179383D01*
X0024650Y0180982D02*
X0021050Y0180982D01*
X0021050Y0182580D02*
X0024650Y0182580D01*
X0024650Y0184179D02*
X0021050Y0184179D01*
X0021050Y0185777D02*
X0024650Y0185777D01*
X0024650Y0187376D02*
X0021050Y0187376D01*
X0021050Y0188974D02*
X0024650Y0188974D01*
X0024650Y0190573D02*
X0021050Y0190573D01*
X0021050Y0192171D02*
X0024650Y0192171D01*
X0024650Y0193770D02*
X0021050Y0193770D01*
X0021050Y0195368D02*
X0024650Y0195368D01*
X0024650Y0196967D02*
X0021050Y0196967D01*
X0021050Y0198565D02*
X0024650Y0198565D01*
X0024650Y0200164D02*
X0021050Y0200164D01*
X0021050Y0201762D02*
X0024650Y0201762D01*
X0024351Y0203361D02*
X0021350Y0203361D01*
X0017850Y0208205D02*
X0017850Y0043244D01*
X0017831Y0043224D01*
X0024622Y0036433D01*
X0020360Y0033919D02*
X0015573Y0033919D01*
X0013974Y0035517D02*
X0019722Y0035517D01*
X0019414Y0037116D02*
X0012376Y0037116D01*
X0011276Y0038215D02*
X0011276Y0211816D01*
X0014593Y0215133D01*
X0196068Y0215133D01*
X0199385Y0211816D01*
X0199385Y0014593D01*
X0196068Y0011276D01*
X0038215Y0011276D01*
X0011276Y0038215D01*
X0011276Y0038714D02*
X0017816Y0038714D01*
X0016217Y0040313D02*
X0011276Y0040313D01*
X0011276Y0041911D02*
X0014911Y0041911D01*
X0014631Y0043510D02*
X0011276Y0043510D01*
X0011276Y0045108D02*
X0014650Y0045108D01*
X0014650Y0046707D02*
X0011276Y0046707D01*
X0011276Y0048305D02*
X0014650Y0048305D01*
X0014650Y0049904D02*
X0011276Y0049904D01*
X0011276Y0051502D02*
X0014650Y0051502D01*
X0014650Y0053101D02*
X0011276Y0053101D01*
X0011276Y0054699D02*
X0014650Y0054699D01*
X0014650Y0056298D02*
X0011276Y0056298D01*
X0011276Y0057896D02*
X0014650Y0057896D01*
X0014650Y0059495D02*
X0011276Y0059495D01*
X0011276Y0061093D02*
X0014650Y0061093D01*
X0014650Y0062692D02*
X0011276Y0062692D01*
X0011276Y0064290D02*
X0014650Y0064290D01*
X0014650Y0065889D02*
X0011276Y0065889D01*
X0011276Y0067487D02*
X0014650Y0067487D01*
X0014650Y0069086D02*
X0011276Y0069086D01*
X0011276Y0070684D02*
X0014650Y0070684D01*
X0014650Y0072283D02*
X0011276Y0072283D01*
X0011276Y0073881D02*
X0014650Y0073881D01*
X0014650Y0075480D02*
X0011276Y0075480D01*
X0011276Y0077078D02*
X0014650Y0077078D01*
X0014650Y0078677D02*
X0011276Y0078677D01*
X0011276Y0080275D02*
X0014650Y0080275D01*
X0014650Y0081874D02*
X0011276Y0081874D01*
X0011276Y0083472D02*
X0014650Y0083472D01*
X0014650Y0085071D02*
X0011276Y0085071D01*
X0011276Y0086669D02*
X0014650Y0086669D01*
X0014650Y0088268D02*
X0011276Y0088268D01*
X0011276Y0089866D02*
X0014650Y0089866D01*
X0014650Y0091465D02*
X0011276Y0091465D01*
X0011276Y0093063D02*
X0014650Y0093063D01*
X0014650Y0094662D02*
X0011276Y0094662D01*
X0011276Y0096260D02*
X0014650Y0096260D01*
X0014650Y0097859D02*
X0011276Y0097859D01*
X0011276Y0099458D02*
X0014650Y0099458D01*
X0014650Y0101056D02*
X0011276Y0101056D01*
X0011276Y0102655D02*
X0014650Y0102655D01*
X0014650Y0104253D02*
X0011276Y0104253D01*
X0011276Y0105852D02*
X0014650Y0105852D01*
X0014650Y0107450D02*
X0011276Y0107450D01*
X0011276Y0109049D02*
X0014650Y0109049D01*
X0014650Y0110647D02*
X0011276Y0110647D01*
X0011276Y0112246D02*
X0014650Y0112246D01*
X0014650Y0113844D02*
X0011276Y0113844D01*
X0011276Y0115443D02*
X0014650Y0115443D01*
X0014650Y0117041D02*
X0011276Y0117041D01*
X0011276Y0118640D02*
X0014650Y0118640D01*
X0014650Y0120238D02*
X0011276Y0120238D01*
X0011276Y0121837D02*
X0014650Y0121837D01*
X0014650Y0123435D02*
X0011276Y0123435D01*
X0011276Y0125034D02*
X0014650Y0125034D01*
X0014650Y0126632D02*
X0011276Y0126632D01*
X0011276Y0128231D02*
X0014650Y0128231D01*
X0014650Y0129829D02*
X0011276Y0129829D01*
X0011276Y0131428D02*
X0014650Y0131428D01*
X0014650Y0133026D02*
X0011276Y0133026D01*
X0011276Y0134625D02*
X0014650Y0134625D01*
X0014650Y0136223D02*
X0011276Y0136223D01*
X0011276Y0137822D02*
X0014650Y0137822D01*
X0014650Y0139420D02*
X0011276Y0139420D01*
X0011276Y0141019D02*
X0014650Y0141019D01*
X0014650Y0142617D02*
X0011276Y0142617D01*
X0011276Y0144216D02*
X0014650Y0144216D01*
X0014650Y0145814D02*
X0011276Y0145814D01*
X0011276Y0147413D02*
X0014650Y0147413D01*
X0014650Y0149011D02*
X0011276Y0149011D01*
X0011276Y0150610D02*
X0014650Y0150610D01*
X0014650Y0152208D02*
X0011276Y0152208D01*
X0011276Y0153807D02*
X0014650Y0153807D01*
X0014650Y0155405D02*
X0011276Y0155405D01*
X0011276Y0157004D02*
X0014650Y0157004D01*
X0014650Y0158602D02*
X0011276Y0158602D01*
X0011276Y0160201D02*
X0014650Y0160201D01*
X0014650Y0161799D02*
X0011276Y0161799D01*
X0011276Y0163398D02*
X0014650Y0163398D01*
X0014650Y0164996D02*
X0011276Y0164996D01*
X0011276Y0166595D02*
X0014650Y0166595D01*
X0014650Y0168194D02*
X0011276Y0168194D01*
X0011276Y0169792D02*
X0014650Y0169792D01*
X0014650Y0171391D02*
X0011276Y0171391D01*
X0011276Y0172989D02*
X0014650Y0172989D01*
X0014650Y0174588D02*
X0011276Y0174588D01*
X0011276Y0176186D02*
X0014650Y0176186D01*
X0014650Y0177785D02*
X0011276Y0177785D01*
X0011276Y0179383D02*
X0014650Y0179383D01*
X0014650Y0180982D02*
X0011276Y0180982D01*
X0011276Y0182580D02*
X0014650Y0182580D01*
X0014650Y0184179D02*
X0011276Y0184179D01*
X0011276Y0185777D02*
X0014650Y0185777D01*
X0014650Y0187376D02*
X0011276Y0187376D01*
X0011276Y0188974D02*
X0014650Y0188974D01*
X0014650Y0190573D02*
X0011276Y0190573D01*
X0011276Y0192171D02*
X0014650Y0192171D01*
X0014650Y0193770D02*
X0011276Y0193770D01*
X0011276Y0195368D02*
X0014650Y0195368D01*
X0014650Y0196967D02*
X0011276Y0196967D01*
X0011276Y0198565D02*
X0014650Y0198565D01*
X0014650Y0200164D02*
X0011276Y0200164D01*
X0011276Y0201762D02*
X0014650Y0201762D01*
X0014351Y0203361D02*
X0011276Y0203361D01*
X0011276Y0204959D02*
X0012752Y0204959D01*
X0011950Y0206558D02*
X0011276Y0206558D01*
X0011276Y0208156D02*
X0011950Y0208156D01*
X0011950Y0209755D02*
X0011276Y0209755D01*
X0011276Y0211353D02*
X0012655Y0211353D01*
X0012412Y0212952D02*
X0014254Y0212952D01*
X0014010Y0214550D02*
X0196651Y0214550D01*
X0196447Y0212952D02*
X0198250Y0212952D01*
X0198046Y0211353D02*
X0199385Y0211353D01*
X0199385Y0209755D02*
X0198750Y0209755D01*
X0198750Y0208156D02*
X0199385Y0208156D01*
X0199385Y0206558D02*
X0198750Y0206558D01*
X0199385Y0204959D02*
X0197949Y0204959D01*
X0199385Y0203361D02*
X0196350Y0203361D01*
X0199385Y0201762D02*
X0156050Y0201762D01*
X0156350Y0203361D02*
X0159351Y0203361D01*
X0155477Y0200164D02*
X0199385Y0200164D01*
X0199385Y0198565D02*
X0153878Y0198565D01*
X0152083Y0196967D02*
X0199385Y0196967D01*
X0199385Y0195368D02*
X0117233Y0195368D01*
X0113937Y0193770D02*
X0199385Y0193770D01*
X0199385Y0192171D02*
X0115535Y0192171D01*
X0115173Y0188008D02*
X0134858Y0188008D01*
X0152575Y0170291D01*
X0152575Y0160449D01*
X0157114Y0158602D02*
X0199385Y0158602D01*
X0199385Y0157004D02*
X0156060Y0157004D01*
X0157475Y0160201D02*
X0199385Y0160201D01*
X0199385Y0161799D02*
X0157319Y0161799D01*
X0156555Y0163398D02*
X0199385Y0163398D01*
X0199385Y0164996D02*
X0155775Y0164996D01*
X0155775Y0166595D02*
X0199385Y0166595D01*
X0199385Y0168194D02*
X0155775Y0168194D01*
X0155775Y0169792D02*
X0199385Y0169792D01*
X0199385Y0171391D02*
X0155583Y0171391D01*
X0154403Y0172989D02*
X0199385Y0172989D01*
X0199385Y0174588D02*
X0152804Y0174588D01*
X0151206Y0176186D02*
X0199385Y0176186D01*
X0199385Y0177785D02*
X0149607Y0177785D01*
X0148009Y0179383D02*
X0199385Y0179383D01*
X0199385Y0180982D02*
X0146410Y0180982D01*
X0144812Y0182580D02*
X0199385Y0182580D01*
X0199385Y0184179D02*
X0143213Y0184179D01*
X0141614Y0185777D02*
X0199385Y0185777D01*
X0199385Y0187376D02*
X0140016Y0187376D01*
X0138417Y0188974D02*
X0199385Y0188974D01*
X0199385Y0190573D02*
X0136819Y0190573D01*
X0134162Y0184179D02*
X0086342Y0184179D01*
X0087940Y0185777D02*
X0112878Y0185777D01*
X0111280Y0187376D02*
X0089539Y0187376D01*
X0091137Y0188974D02*
X0109681Y0188974D01*
X0108083Y0190573D02*
X0092736Y0190573D01*
X0094334Y0192171D02*
X0106484Y0192171D01*
X0105022Y0193770D02*
X0095933Y0193770D01*
X0097531Y0195368D02*
X0104631Y0195368D01*
X0104650Y0196967D02*
X0099130Y0196967D01*
X0100632Y0198565D02*
X0104650Y0198565D01*
X0104650Y0200164D02*
X0101050Y0200164D01*
X0101050Y0201762D02*
X0104650Y0201762D01*
X0104351Y0203361D02*
X0101350Y0203361D01*
X0097850Y0200213D02*
X0097850Y0208205D01*
X0094351Y0203361D02*
X0091350Y0203361D01*
X0094650Y0201762D02*
X0031050Y0201762D01*
X0031050Y0200164D02*
X0093276Y0200164D01*
X0091678Y0198565D02*
X0031050Y0198565D01*
X0031050Y0196967D02*
X0090079Y0196967D01*
X0088481Y0195368D02*
X0031050Y0195368D01*
X0031050Y0193770D02*
X0086882Y0193770D01*
X0085283Y0192171D02*
X0031050Y0192171D01*
X0031050Y0190573D02*
X0083685Y0190573D01*
X0082086Y0188974D02*
X0031050Y0188974D01*
X0031050Y0187376D02*
X0080488Y0187376D01*
X0078889Y0185777D02*
X0031050Y0185777D01*
X0031050Y0184179D02*
X0077291Y0184179D01*
X0075692Y0182580D02*
X0031050Y0182580D01*
X0031050Y0180982D02*
X0074094Y0180982D01*
X0072844Y0179383D02*
X0031050Y0179383D01*
X0031050Y0177785D02*
X0072603Y0177785D01*
X0072603Y0176186D02*
X0031050Y0176186D01*
X0031050Y0174588D02*
X0072603Y0174588D01*
X0072603Y0172989D02*
X0031050Y0172989D01*
X0031050Y0171391D02*
X0072603Y0171391D01*
X0072603Y0169792D02*
X0031050Y0169792D01*
X0031050Y0168194D02*
X0072603Y0168194D01*
X0072603Y0166595D02*
X0031050Y0166595D01*
X0031050Y0164996D02*
X0072603Y0164996D01*
X0072603Y0163398D02*
X0031050Y0163398D01*
X0031050Y0161799D02*
X0072603Y0161799D01*
X0072603Y0160201D02*
X0031050Y0160201D01*
X0031050Y0158602D02*
X0072603Y0158602D01*
X0072603Y0157004D02*
X0031050Y0157004D01*
X0031050Y0155405D02*
X0072603Y0155405D01*
X0072603Y0153807D02*
X0031050Y0153807D01*
X0031050Y0152208D02*
X0072603Y0152208D01*
X0072603Y0150610D02*
X0031050Y0150610D01*
X0031050Y0149011D02*
X0072603Y0149011D01*
X0072603Y0147413D02*
X0031050Y0147413D01*
X0031050Y0145814D02*
X0072603Y0145814D01*
X0072603Y0144216D02*
X0031050Y0144216D01*
X0031050Y0142617D02*
X0072603Y0142617D01*
X0072603Y0141019D02*
X0031050Y0141019D01*
X0031050Y0139420D02*
X0072603Y0139420D01*
X0072603Y0137822D02*
X0031050Y0137822D01*
X0031050Y0136223D02*
X0072603Y0136223D01*
X0072603Y0134625D02*
X0031050Y0134625D01*
X0031050Y0133026D02*
X0072603Y0133026D01*
X0072603Y0131428D02*
X0031050Y0131428D01*
X0031050Y0129829D02*
X0072603Y0129829D01*
X0072603Y0128231D02*
X0031050Y0128231D01*
X0031050Y0126632D02*
X0072603Y0126632D01*
X0072603Y0125034D02*
X0031050Y0125034D01*
X0031050Y0123435D02*
X0072603Y0123435D01*
X0072603Y0121837D02*
X0031050Y0121837D01*
X0031050Y0120238D02*
X0072603Y0120238D01*
X0072603Y0118640D02*
X0031050Y0118640D01*
X0031050Y0117041D02*
X0072603Y0117041D01*
X0072603Y0115443D02*
X0031050Y0115443D01*
X0031050Y0113844D02*
X0071580Y0113844D01*
X0070918Y0112246D02*
X0031050Y0112246D01*
X0031050Y0110647D02*
X0070903Y0110647D01*
X0071406Y0109049D02*
X0031050Y0109049D01*
X0031050Y0107450D02*
X0072660Y0107450D01*
X0075803Y0111236D02*
X0075803Y0178165D01*
X0097850Y0200213D01*
X0107831Y0195350D02*
X0107850Y0195370D01*
X0107850Y0208205D01*
X0113750Y0208156D02*
X0116950Y0208156D01*
X0116950Y0206558D02*
X0113750Y0206558D01*
X0112949Y0204959D02*
X0117752Y0204959D01*
X0118561Y0203361D02*
X0119351Y0203361D01*
X0115173Y0199819D02*
X0150606Y0199819D01*
X0152850Y0202063D01*
X0152850Y0208205D01*
X0149254Y0212952D02*
X0146447Y0212952D01*
X0139254Y0212952D02*
X0136447Y0212952D01*
X0129254Y0212952D02*
X0126447Y0212952D01*
X0119254Y0212952D02*
X0111447Y0212952D01*
X0113046Y0211353D02*
X0117655Y0211353D01*
X0116950Y0209755D02*
X0113750Y0209755D01*
X0111785Y0203361D02*
X0111350Y0203361D01*
X0111096Y0196967D02*
X0111050Y0196967D01*
X0112338Y0195368D02*
X0113114Y0195368D01*
X0107831Y0195350D02*
X0115173Y0188008D01*
X0112043Y0178382D02*
X0110242Y0179128D01*
X0108293Y0179128D01*
X0106492Y0178382D01*
X0105538Y0177428D01*
X0102726Y0177428D01*
X0101550Y0176941D01*
X0100649Y0176041D01*
X0090807Y0166198D01*
X0090320Y0165022D01*
X0090320Y0140556D01*
X0089366Y0139602D01*
X0088620Y0137801D01*
X0088620Y0135852D01*
X0089366Y0134051D01*
X0090744Y0132673D01*
X0092545Y0131927D01*
X0094494Y0131927D01*
X0096295Y0132673D01*
X0097674Y0134051D01*
X0098420Y0135852D01*
X0098420Y0137801D01*
X0097674Y0139602D01*
X0096720Y0140556D01*
X0096720Y0163060D01*
X0104688Y0171028D01*
X0105538Y0171028D01*
X0106492Y0170074D01*
X0108293Y0169328D01*
X0110242Y0169328D01*
X0112043Y0170074D01*
X0113422Y0171453D01*
X0114168Y0173254D01*
X0114168Y0175203D01*
X0113422Y0177004D01*
X0112043Y0178382D01*
X0112641Y0177785D02*
X0140556Y0177785D01*
X0138958Y0179383D02*
X0081546Y0179383D01*
X0079948Y0177785D02*
X0105894Y0177785D01*
X0103362Y0174228D02*
X0109268Y0174228D01*
X0111362Y0169792D02*
X0148549Y0169792D01*
X0149375Y0168194D02*
X0101853Y0168194D01*
X0103451Y0169792D02*
X0107174Y0169792D01*
X0103362Y0174228D02*
X0093520Y0164386D01*
X0093520Y0136827D01*
X0097911Y0134625D02*
X0199385Y0134625D01*
X0199385Y0136223D02*
X0098420Y0136223D01*
X0098411Y0137822D02*
X0199385Y0137822D01*
X0199385Y0139420D02*
X0097749Y0139420D01*
X0096720Y0141019D02*
X0199385Y0141019D01*
X0199385Y0142617D02*
X0096720Y0142617D01*
X0096720Y0144216D02*
X0199385Y0144216D01*
X0199385Y0145814D02*
X0096720Y0145814D01*
X0096720Y0147413D02*
X0199385Y0147413D01*
X0199385Y0149011D02*
X0096720Y0149011D01*
X0096720Y0150610D02*
X0199385Y0150610D01*
X0199385Y0152208D02*
X0096720Y0152208D01*
X0096720Y0153807D02*
X0199385Y0153807D01*
X0199385Y0155405D02*
X0096720Y0155405D01*
X0096720Y0157004D02*
X0149090Y0157004D01*
X0148036Y0158602D02*
X0096720Y0158602D01*
X0096720Y0160201D02*
X0147675Y0160201D01*
X0147831Y0161799D02*
X0096720Y0161799D01*
X0097057Y0163398D02*
X0148594Y0163398D01*
X0149375Y0164996D02*
X0098656Y0164996D01*
X0100254Y0166595D02*
X0149375Y0166595D01*
X0146950Y0171391D02*
X0113360Y0171391D01*
X0114058Y0172989D02*
X0145352Y0172989D01*
X0143753Y0174588D02*
X0114168Y0174588D01*
X0113761Y0176186D02*
X0142155Y0176186D01*
X0137359Y0180982D02*
X0083145Y0180982D01*
X0084743Y0182580D02*
X0135761Y0182580D01*
X0156447Y0212952D02*
X0159254Y0212952D01*
X0166447Y0212952D02*
X0169254Y0212952D01*
X0176447Y0212952D02*
X0179254Y0212952D01*
X0186447Y0212952D02*
X0189254Y0212952D01*
X0189351Y0203361D02*
X0186350Y0203361D01*
X0179351Y0203361D02*
X0176350Y0203361D01*
X0169351Y0203361D02*
X0166350Y0203361D01*
X0104254Y0212952D02*
X0101447Y0212952D01*
X0094254Y0212952D02*
X0091447Y0212952D01*
X0084254Y0212952D02*
X0081447Y0212952D01*
X0074254Y0212952D02*
X0071447Y0212952D01*
X0064254Y0212952D02*
X0061447Y0212952D01*
X0054254Y0212952D02*
X0050599Y0212952D01*
X0052197Y0211353D02*
X0052655Y0211353D01*
X0048050Y0211353D02*
X0047650Y0211353D01*
X0047650Y0209755D02*
X0048050Y0209755D01*
X0048050Y0206558D02*
X0047650Y0206558D01*
X0047650Y0204959D02*
X0048050Y0204959D01*
X0048050Y0203361D02*
X0047650Y0203361D01*
X0045199Y0203361D02*
X0041350Y0203361D01*
X0042949Y0204959D02*
X0043601Y0204959D01*
X0043504Y0211353D02*
X0043046Y0211353D01*
X0041447Y0212952D02*
X0045102Y0212952D01*
X0047650Y0212952D02*
X0048050Y0212952D01*
X0052100Y0204959D02*
X0052752Y0204959D01*
X0054351Y0203361D02*
X0050502Y0203361D01*
X0061350Y0203361D02*
X0064351Y0203361D01*
X0071350Y0203361D02*
X0074351Y0203361D01*
X0081350Y0203361D02*
X0084351Y0203361D01*
X0079003Y0176186D02*
X0100794Y0176186D01*
X0099196Y0174588D02*
X0079003Y0174588D01*
X0079003Y0172989D02*
X0097597Y0172989D01*
X0095999Y0171391D02*
X0079003Y0171391D01*
X0079003Y0169792D02*
X0094400Y0169792D01*
X0092802Y0168194D02*
X0079003Y0168194D01*
X0079003Y0166595D02*
X0091203Y0166595D01*
X0090320Y0164996D02*
X0079003Y0164996D01*
X0079003Y0163398D02*
X0090320Y0163398D01*
X0090320Y0161799D02*
X0079003Y0161799D01*
X0079003Y0160201D02*
X0090320Y0160201D01*
X0090320Y0158602D02*
X0079003Y0158602D01*
X0079003Y0157004D02*
X0090320Y0157004D01*
X0090320Y0155405D02*
X0079003Y0155405D01*
X0079003Y0153807D02*
X0090320Y0153807D01*
X0090320Y0152208D02*
X0079003Y0152208D01*
X0079003Y0150610D02*
X0090320Y0150610D01*
X0090320Y0149011D02*
X0079003Y0149011D01*
X0079003Y0147413D02*
X0090320Y0147413D01*
X0090320Y0145814D02*
X0079003Y0145814D01*
X0079003Y0144216D02*
X0090320Y0144216D01*
X0090320Y0142617D02*
X0079003Y0142617D01*
X0079003Y0141019D02*
X0090320Y0141019D01*
X0089290Y0139420D02*
X0079003Y0139420D01*
X0079003Y0137822D02*
X0088628Y0137822D01*
X0088620Y0136223D02*
X0079003Y0136223D01*
X0079003Y0134625D02*
X0089128Y0134625D01*
X0090391Y0133026D02*
X0079003Y0133026D01*
X0079003Y0131428D02*
X0199385Y0131428D01*
X0199385Y0133026D02*
X0096649Y0133026D01*
X0079003Y0129829D02*
X0199385Y0129829D01*
X0199385Y0128231D02*
X0079003Y0128231D01*
X0079003Y0126632D02*
X0199385Y0126632D01*
X0199385Y0125034D02*
X0079003Y0125034D01*
X0079003Y0123435D02*
X0199385Y0123435D01*
X0199385Y0121837D02*
X0079003Y0121837D01*
X0079003Y0120238D02*
X0199385Y0120238D01*
X0199385Y0118640D02*
X0150618Y0118640D01*
X0150110Y0119148D02*
X0143229Y0119148D01*
X0138364Y0114283D01*
X0138364Y0107402D01*
X0143229Y0102537D01*
X0150110Y0102537D01*
X0154975Y0107402D01*
X0154975Y0114283D01*
X0150110Y0119148D01*
X0152216Y0117041D02*
X0199385Y0117041D01*
X0199385Y0115443D02*
X0153815Y0115443D01*
X0154975Y0113844D02*
X0199385Y0113844D01*
X0199385Y0112246D02*
X0154975Y0112246D01*
X0154975Y0110647D02*
X0199385Y0110647D01*
X0199385Y0109049D02*
X0179336Y0109049D01*
X0179288Y0109097D02*
X0178406Y0109462D01*
X0170051Y0109462D01*
X0169169Y0109097D01*
X0168494Y0108422D01*
X0168128Y0107540D01*
X0168128Y0099185D01*
X0168436Y0098441D01*
X0168128Y0097697D01*
X0168128Y0089342D01*
X0168494Y0088460D01*
X0168862Y0088092D01*
X0168851Y0088072D01*
X0168728Y0087614D01*
X0168728Y0083861D01*
X0174044Y0083861D01*
X0174044Y0083493D01*
X0168728Y0083493D01*
X0168728Y0079740D01*
X0168851Y0079282D01*
X0169088Y0078872D01*
X0169423Y0078537D01*
X0169834Y0078300D01*
X0170291Y0078177D01*
X0174044Y0078177D01*
X0174044Y0083493D01*
X0174413Y0083493D01*
X0174413Y0083861D01*
X0179728Y0083861D01*
X0179728Y0087614D01*
X0179606Y0088072D01*
X0179594Y0088092D01*
X0179963Y0088460D01*
X0180328Y0089342D01*
X0180328Y0090320D01*
X0184714Y0090320D01*
X0190713Y0084320D01*
X0190713Y0055475D01*
X0171018Y0035780D01*
X0170118Y0034880D01*
X0169631Y0033703D01*
X0169631Y0022661D01*
X0167811Y0020841D01*
X0165048Y0023605D01*
X0160574Y0023605D01*
X0157811Y0020841D01*
X0156031Y0022622D01*
X0156031Y0034845D01*
X0155544Y0036021D01*
X0154643Y0036921D01*
X0149601Y0041964D01*
X0149601Y0043313D01*
X0148855Y0045114D01*
X0147476Y0046493D01*
X0145675Y0047239D01*
X0144326Y0047239D01*
X0127947Y0063618D01*
X0127947Y0064967D01*
X0127201Y0066768D01*
X0125823Y0068146D01*
X0124022Y0068892D01*
X0122073Y0068892D01*
X0120272Y0068146D01*
X0118893Y0066768D01*
X0118147Y0064967D01*
X0118147Y0063017D01*
X0118893Y0061216D01*
X0120272Y0059838D01*
X0122073Y0059092D01*
X0123422Y0059092D01*
X0139801Y0042713D01*
X0139801Y0041364D01*
X0140547Y0039563D01*
X0141925Y0038185D01*
X0143726Y0037439D01*
X0145075Y0037439D01*
X0149631Y0032883D01*
X0149631Y0022661D01*
X0147811Y0020841D01*
X0146031Y0022622D01*
X0146031Y0029097D01*
X0145544Y0030273D01*
X0144643Y0031173D01*
X0115918Y0059899D01*
X0115017Y0060799D01*
X0113841Y0061287D01*
X0112997Y0061287D01*
X0112043Y0062241D01*
X0110242Y0062987D01*
X0108293Y0062987D01*
X0106492Y0062241D01*
X0105114Y0060862D01*
X0104368Y0059061D01*
X0104368Y0057112D01*
X0105114Y0055311D01*
X0106492Y0053933D01*
X0108293Y0053187D01*
X0110242Y0053187D01*
X0112043Y0053933D01*
X0112438Y0054328D01*
X0139631Y0027135D01*
X0139631Y0022661D01*
X0137411Y0020441D01*
X0137411Y0015968D01*
X0140574Y0012805D01*
X0145048Y0012805D01*
X0147811Y0015568D01*
X0150574Y0012805D01*
X0155048Y0012805D01*
X0157811Y0015568D01*
X0160574Y0012805D01*
X0165048Y0012805D01*
X0167811Y0015568D01*
X0170574Y0012805D01*
X0175048Y0012805D01*
X0177811Y0015568D01*
X0180574Y0012805D01*
X0185048Y0012805D01*
X0187811Y0015568D01*
X0190574Y0012805D01*
X0195048Y0012805D01*
X0198211Y0015968D01*
X0198211Y0020441D01*
X0195048Y0023605D01*
X0190574Y0023605D01*
X0187811Y0020841D01*
X0185048Y0023605D01*
X0180574Y0023605D01*
X0177811Y0020841D01*
X0176031Y0022622D01*
X0176031Y0031741D01*
X0195726Y0051437D01*
X0196626Y0052337D01*
X0197113Y0053513D01*
X0197113Y0086282D01*
X0196626Y0087458D01*
X0188752Y0095332D01*
X0187852Y0096233D01*
X0186676Y0096720D01*
X0180328Y0096720D01*
X0180328Y0097697D01*
X0180020Y0098441D01*
X0180328Y0099185D01*
X0180328Y0107540D01*
X0179963Y0108422D01*
X0179288Y0109097D01*
X0180328Y0107450D02*
X0199385Y0107450D01*
X0199385Y0105852D02*
X0180328Y0105852D01*
X0180328Y0104253D02*
X0199385Y0104253D01*
X0199385Y0102655D02*
X0180328Y0102655D01*
X0180328Y0101056D02*
X0199385Y0101056D01*
X0199385Y0099458D02*
X0180328Y0099458D01*
X0180261Y0097859D02*
X0199385Y0097859D01*
X0199385Y0096260D02*
X0187784Y0096260D01*
X0189423Y0094662D02*
X0199385Y0094662D01*
X0199385Y0093063D02*
X0191021Y0093063D01*
X0192620Y0091465D02*
X0199385Y0091465D01*
X0199385Y0089866D02*
X0194218Y0089866D01*
X0195817Y0088268D02*
X0199385Y0088268D01*
X0199385Y0086669D02*
X0196953Y0086669D01*
X0197113Y0085071D02*
X0199385Y0085071D01*
X0199385Y0083472D02*
X0197113Y0083472D01*
X0197113Y0081874D02*
X0199385Y0081874D01*
X0199385Y0080275D02*
X0197113Y0080275D01*
X0197113Y0078677D02*
X0199385Y0078677D01*
X0199385Y0077078D02*
X0197113Y0077078D01*
X0197113Y0075480D02*
X0199385Y0075480D01*
X0199385Y0073881D02*
X0197113Y0073881D01*
X0197113Y0072283D02*
X0199385Y0072283D01*
X0199385Y0070684D02*
X0197113Y0070684D01*
X0197113Y0069086D02*
X0199385Y0069086D01*
X0199385Y0067487D02*
X0197113Y0067487D01*
X0197113Y0065889D02*
X0199385Y0065889D01*
X0199385Y0064290D02*
X0197113Y0064290D01*
X0197113Y0062692D02*
X0199385Y0062692D01*
X0199385Y0061093D02*
X0197113Y0061093D01*
X0197113Y0059495D02*
X0199385Y0059495D01*
X0199385Y0057896D02*
X0197113Y0057896D01*
X0197113Y0056298D02*
X0199385Y0056298D01*
X0199385Y0054699D02*
X0197113Y0054699D01*
X0196943Y0053101D02*
X0199385Y0053101D01*
X0199385Y0051502D02*
X0195791Y0051502D01*
X0194193Y0049904D02*
X0199385Y0049904D01*
X0199385Y0048305D02*
X0192594Y0048305D01*
X0190996Y0046707D02*
X0199385Y0046707D01*
X0199385Y0045108D02*
X0189397Y0045108D01*
X0187799Y0043510D02*
X0199385Y0043510D01*
X0199385Y0041911D02*
X0186200Y0041911D01*
X0184602Y0040313D02*
X0199385Y0040313D01*
X0199385Y0038714D02*
X0183003Y0038714D01*
X0181405Y0037116D02*
X0199385Y0037116D01*
X0199385Y0035517D02*
X0179806Y0035517D01*
X0178208Y0033919D02*
X0199385Y0033919D01*
X0199385Y0032320D02*
X0176609Y0032320D01*
X0176031Y0030722D02*
X0199385Y0030722D01*
X0199385Y0029123D02*
X0176031Y0029123D01*
X0176031Y0027525D02*
X0199385Y0027525D01*
X0199385Y0025926D02*
X0176031Y0025926D01*
X0176031Y0024327D02*
X0199385Y0024327D01*
X0199385Y0022729D02*
X0195923Y0022729D01*
X0197522Y0021130D02*
X0199385Y0021130D01*
X0199385Y0019532D02*
X0198211Y0019532D01*
X0198211Y0017933D02*
X0199385Y0017933D01*
X0199385Y0016335D02*
X0198211Y0016335D01*
X0199385Y0014736D02*
X0196979Y0014736D01*
X0197930Y0013138D02*
X0195381Y0013138D01*
X0196331Y0011539D02*
X0037952Y0011539D01*
X0021805Y0032320D02*
X0017171Y0032320D01*
X0016018Y0040512D02*
X0016018Y0040512D01*
X0021050Y0045108D02*
X0037518Y0045108D01*
X0037382Y0046707D02*
X0021050Y0046707D01*
X0021050Y0048305D02*
X0035784Y0048305D01*
X0034185Y0049904D02*
X0021050Y0049904D01*
X0021050Y0051502D02*
X0032587Y0051502D01*
X0038181Y0043510D02*
X0022071Y0043510D01*
X0023669Y0041911D02*
X0040071Y0041911D01*
X0042339Y0046276D02*
X0027831Y0060783D01*
X0027850Y0060803D01*
X0027850Y0208205D01*
X0031350Y0203361D02*
X0034351Y0203361D01*
X0034254Y0212952D02*
X0031447Y0212952D01*
X0024254Y0212952D02*
X0021447Y0212952D01*
X0079003Y0118640D02*
X0142721Y0118640D01*
X0141122Y0117041D02*
X0079003Y0117041D01*
X0079003Y0115443D02*
X0139524Y0115443D01*
X0138364Y0113844D02*
X0080027Y0113844D01*
X0080689Y0112246D02*
X0138364Y0112246D01*
X0138364Y0110647D02*
X0080703Y0110647D01*
X0080201Y0109049D02*
X0138364Y0109049D01*
X0138364Y0107450D02*
X0078947Y0107450D01*
X0081880Y0072283D02*
X0127948Y0072283D01*
X0129546Y0070684D02*
X0083479Y0070684D01*
X0085077Y0069086D02*
X0131145Y0069086D01*
X0132743Y0067487D02*
X0126482Y0067487D01*
X0127565Y0065889D02*
X0134342Y0065889D01*
X0135940Y0064290D02*
X0127947Y0064290D01*
X0128873Y0062692D02*
X0137539Y0062692D01*
X0139137Y0061093D02*
X0130472Y0061093D01*
X0132070Y0059495D02*
X0140736Y0059495D01*
X0140920Y0059311D02*
X0142096Y0058824D01*
X0142940Y0058824D01*
X0143894Y0057870D01*
X0145695Y0057124D01*
X0147644Y0057124D01*
X0149445Y0057870D01*
X0150823Y0059248D01*
X0151569Y0061049D01*
X0151569Y0062998D01*
X0150823Y0064799D01*
X0149445Y0066178D01*
X0147644Y0066924D01*
X0145695Y0066924D01*
X0143894Y0066178D01*
X0143499Y0065783D01*
X0118954Y0090327D01*
X0117778Y0090814D01*
X0042131Y0090814D01*
X0041177Y0091768D01*
X0039376Y0092514D01*
X0037427Y0092514D01*
X0035626Y0091768D01*
X0034248Y0090390D01*
X0033502Y0088589D01*
X0033502Y0086639D01*
X0034248Y0084839D01*
X0035626Y0083460D01*
X0037427Y0082714D01*
X0039376Y0082714D01*
X0041177Y0083460D01*
X0042131Y0084414D01*
X0115816Y0084414D01*
X0140920Y0059311D01*
X0142732Y0062024D02*
X0117142Y0087614D01*
X0038402Y0087614D01*
X0034031Y0089866D02*
X0031050Y0089866D01*
X0031050Y0088268D02*
X0033502Y0088268D01*
X0033502Y0086669D02*
X0031050Y0086669D01*
X0031050Y0085071D02*
X0034151Y0085071D01*
X0035614Y0083472D02*
X0031050Y0083472D01*
X0031050Y0081874D02*
X0118357Y0081874D01*
X0119955Y0080275D02*
X0031050Y0080275D01*
X0031050Y0078677D02*
X0121554Y0078677D01*
X0123152Y0077078D02*
X0031050Y0077078D01*
X0031050Y0075480D02*
X0124751Y0075480D01*
X0126349Y0073881D02*
X0045285Y0073881D01*
X0042339Y0069898D02*
X0079740Y0069898D01*
X0119110Y0030528D01*
X0125016Y0030528D01*
X0129577Y0032320D02*
X0134446Y0032320D01*
X0136044Y0030722D02*
X0129916Y0030722D01*
X0129738Y0029123D02*
X0137643Y0029123D01*
X0139241Y0027525D02*
X0128942Y0027525D01*
X0126711Y0025926D02*
X0139631Y0025926D01*
X0139631Y0024327D02*
X0096031Y0024327D01*
X0096031Y0025926D02*
X0123321Y0025926D01*
X0125255Y0024105D02*
X0120367Y0024105D01*
X0117387Y0021124D01*
X0115006Y0023505D01*
X0113011Y0023505D01*
X0113011Y0018405D01*
X0112611Y0018405D01*
X0112611Y0023505D01*
X0110616Y0023505D01*
X0107811Y0020700D01*
X0105006Y0023505D01*
X0103011Y0023505D01*
X0103011Y0018405D01*
X0112611Y0018405D01*
X0112611Y0018005D01*
X0107511Y0018005D01*
X0103011Y0018005D01*
X0103011Y0012905D01*
X0105006Y0012905D01*
X0107811Y0015709D01*
X0110616Y0012905D01*
X0112611Y0012905D01*
X0112611Y0018005D01*
X0113011Y0018005D01*
X0113011Y0012905D01*
X0115006Y0012905D01*
X0117387Y0015285D01*
X0120367Y0012305D01*
X0125255Y0012305D01*
X0128711Y0015761D01*
X0128711Y0020649D01*
X0125255Y0024105D01*
X0126631Y0022729D02*
X0139631Y0022729D01*
X0138100Y0021130D02*
X0128229Y0021130D01*
X0128711Y0019532D02*
X0137411Y0019532D01*
X0137411Y0017933D02*
X0128711Y0017933D01*
X0128711Y0016335D02*
X0137411Y0016335D01*
X0138643Y0014736D02*
X0127687Y0014736D01*
X0126088Y0013138D02*
X0140241Y0013138D01*
X0145381Y0013138D02*
X0150241Y0013138D01*
X0148643Y0014736D02*
X0146979Y0014736D01*
X0142831Y0018205D02*
X0142831Y0028461D01*
X0113205Y0058087D01*
X0109268Y0058087D01*
X0105725Y0054699D02*
X0099464Y0054699D01*
X0101063Y0053101D02*
X0113665Y0053101D01*
X0115264Y0051502D02*
X0102661Y0051502D01*
X0104260Y0049904D02*
X0116862Y0049904D01*
X0118461Y0048305D02*
X0105858Y0048305D01*
X0107457Y0046707D02*
X0120059Y0046707D01*
X0121658Y0045108D02*
X0109055Y0045108D01*
X0110654Y0043510D02*
X0123256Y0043510D01*
X0124855Y0041911D02*
X0112252Y0041911D01*
X0113851Y0040313D02*
X0126453Y0040313D01*
X0128052Y0038714D02*
X0115449Y0038714D01*
X0117048Y0037116D02*
X0129650Y0037116D01*
X0131249Y0035517D02*
X0118646Y0035517D01*
X0120245Y0033919D02*
X0121477Y0033919D01*
X0117998Y0027525D02*
X0096031Y0027525D01*
X0096031Y0029123D02*
X0115989Y0029123D01*
X0114391Y0030722D02*
X0096031Y0030722D01*
X0096802Y0032320D02*
X0112792Y0032320D01*
X0111194Y0033919D02*
X0096831Y0033919D01*
X0096156Y0035517D02*
X0109595Y0035517D01*
X0107997Y0037116D02*
X0094557Y0037116D01*
X0092959Y0038714D02*
X0106398Y0038714D01*
X0104800Y0040313D02*
X0091360Y0040313D01*
X0089761Y0041911D02*
X0103201Y0041911D01*
X0101603Y0043510D02*
X0088163Y0043510D01*
X0086564Y0045108D02*
X0100004Y0045108D01*
X0098406Y0046707D02*
X0084966Y0046707D01*
X0083367Y0048305D02*
X0096807Y0048305D01*
X0095209Y0049904D02*
X0081769Y0049904D01*
X0080170Y0051502D02*
X0093610Y0051502D01*
X0092012Y0053101D02*
X0078572Y0053101D01*
X0089873Y0064290D02*
X0118147Y0064290D01*
X0118282Y0062692D02*
X0110954Y0062692D01*
X0107581Y0062692D02*
X0091472Y0062692D01*
X0093070Y0061093D02*
X0105345Y0061093D01*
X0104547Y0059495D02*
X0094669Y0059495D01*
X0096267Y0057896D02*
X0104368Y0057896D01*
X0104705Y0056298D02*
X0097866Y0056298D01*
X0088274Y0065889D02*
X0118529Y0065889D01*
X0119613Y0067487D02*
X0086676Y0067487D01*
X0114308Y0061093D02*
X0119016Y0061093D01*
X0121101Y0059495D02*
X0116322Y0059495D01*
X0115918Y0059899D02*
X0115918Y0059899D01*
X0117921Y0057896D02*
X0124618Y0057896D01*
X0126216Y0056298D02*
X0119519Y0056298D01*
X0121118Y0054699D02*
X0127815Y0054699D01*
X0129413Y0053101D02*
X0122716Y0053101D01*
X0124315Y0051502D02*
X0131012Y0051502D01*
X0132610Y0049904D02*
X0125913Y0049904D01*
X0127512Y0048305D02*
X0134209Y0048305D01*
X0135807Y0046707D02*
X0129110Y0046707D01*
X0130709Y0045108D02*
X0137406Y0045108D01*
X0139004Y0043510D02*
X0132307Y0043510D01*
X0133906Y0041911D02*
X0139801Y0041911D01*
X0140236Y0040313D02*
X0135504Y0040313D01*
X0137103Y0038714D02*
X0141396Y0038714D01*
X0144701Y0042339D02*
X0123047Y0063992D01*
X0133669Y0057896D02*
X0143867Y0057896D01*
X0142732Y0062024D02*
X0146669Y0062024D01*
X0151034Y0064290D02*
X0190713Y0064290D01*
X0190713Y0062692D02*
X0151569Y0062692D01*
X0151569Y0061093D02*
X0190713Y0061093D01*
X0190713Y0059495D02*
X0150926Y0059495D01*
X0149472Y0057896D02*
X0190713Y0057896D01*
X0190713Y0056298D02*
X0135267Y0056298D01*
X0136866Y0054699D02*
X0189938Y0054699D01*
X0188339Y0053101D02*
X0138464Y0053101D01*
X0140063Y0051502D02*
X0186740Y0051502D01*
X0185142Y0049904D02*
X0141661Y0049904D01*
X0143260Y0048305D02*
X0183543Y0048305D01*
X0181945Y0046707D02*
X0146960Y0046707D01*
X0148857Y0045108D02*
X0180346Y0045108D01*
X0178748Y0043510D02*
X0149519Y0043510D01*
X0149654Y0041911D02*
X0177149Y0041911D01*
X0175551Y0040313D02*
X0151252Y0040313D01*
X0152851Y0038714D02*
X0173952Y0038714D01*
X0172354Y0037116D02*
X0154449Y0037116D01*
X0155752Y0035517D02*
X0170755Y0035517D01*
X0171018Y0035780D02*
X0171018Y0035780D01*
X0169720Y0033919D02*
X0156031Y0033919D01*
X0156031Y0032320D02*
X0169631Y0032320D01*
X0169631Y0030722D02*
X0156031Y0030722D01*
X0156031Y0029123D02*
X0169631Y0029123D01*
X0169631Y0027525D02*
X0156031Y0027525D01*
X0156031Y0025926D02*
X0169631Y0025926D01*
X0169631Y0024327D02*
X0156031Y0024327D01*
X0156031Y0022729D02*
X0159699Y0022729D01*
X0158100Y0021130D02*
X0157522Y0021130D01*
X0152831Y0018205D02*
X0152831Y0034209D01*
X0144701Y0042339D01*
X0145398Y0037116D02*
X0138701Y0037116D01*
X0140300Y0035517D02*
X0146997Y0035517D01*
X0148595Y0033919D02*
X0141898Y0033919D01*
X0143497Y0032320D02*
X0149631Y0032320D01*
X0149631Y0030722D02*
X0145095Y0030722D01*
X0144643Y0031173D02*
X0144643Y0031173D01*
X0146020Y0029123D02*
X0149631Y0029123D01*
X0149631Y0027525D02*
X0146031Y0027525D01*
X0146031Y0025926D02*
X0149631Y0025926D01*
X0149631Y0024327D02*
X0146031Y0024327D01*
X0146031Y0022729D02*
X0149631Y0022729D01*
X0148100Y0021130D02*
X0147522Y0021130D01*
X0152811Y0018205D02*
X0152831Y0018205D01*
X0156979Y0014736D02*
X0158643Y0014736D01*
X0160241Y0013138D02*
X0155381Y0013138D01*
X0165381Y0013138D02*
X0170241Y0013138D01*
X0168643Y0014736D02*
X0166979Y0014736D01*
X0167522Y0021130D02*
X0168100Y0021130D01*
X0169631Y0022729D02*
X0165923Y0022729D01*
X0172811Y0018205D02*
X0172831Y0018205D01*
X0172831Y0033067D01*
X0193913Y0054150D01*
X0193913Y0085646D01*
X0186039Y0093520D01*
X0174228Y0093520D01*
X0168128Y0093063D02*
X0031050Y0093063D01*
X0031050Y0091465D02*
X0035323Y0091465D01*
X0031050Y0094662D02*
X0168128Y0094662D01*
X0168128Y0096260D02*
X0031050Y0096260D01*
X0031050Y0097859D02*
X0168195Y0097859D01*
X0168128Y0099458D02*
X0031050Y0099458D01*
X0031050Y0101056D02*
X0168128Y0101056D01*
X0168128Y0102655D02*
X0150227Y0102655D01*
X0151826Y0104253D02*
X0168128Y0104253D01*
X0168128Y0105852D02*
X0153424Y0105852D01*
X0154975Y0107450D02*
X0168128Y0107450D01*
X0169121Y0109049D02*
X0154975Y0109049D01*
X0143112Y0102655D02*
X0031050Y0102655D01*
X0031050Y0104253D02*
X0141513Y0104253D01*
X0139914Y0105852D02*
X0031050Y0105852D01*
X0041480Y0091465D02*
X0168128Y0091465D01*
X0168128Y0089866D02*
X0119415Y0089866D01*
X0121013Y0088268D02*
X0168686Y0088268D01*
X0168728Y0086669D02*
X0122612Y0086669D01*
X0124210Y0085071D02*
X0168728Y0085071D01*
X0168728Y0083472D02*
X0151139Y0083472D01*
X0150110Y0084502D02*
X0143229Y0084502D01*
X0138364Y0079637D01*
X0138364Y0072757D01*
X0143229Y0067891D01*
X0150110Y0067891D01*
X0154975Y0072757D01*
X0154975Y0079637D01*
X0150110Y0084502D01*
X0152738Y0081874D02*
X0168728Y0081874D01*
X0168728Y0080275D02*
X0154337Y0080275D01*
X0154975Y0078677D02*
X0169283Y0078677D01*
X0174044Y0078677D02*
X0174413Y0078677D01*
X0174413Y0078177D02*
X0178165Y0078177D01*
X0178623Y0078300D01*
X0179034Y0078537D01*
X0179369Y0078872D01*
X0179606Y0079282D01*
X0179728Y0079740D01*
X0179728Y0083493D01*
X0174413Y0083493D01*
X0174413Y0078177D01*
X0174413Y0080275D02*
X0174044Y0080275D01*
X0174044Y0081874D02*
X0174413Y0081874D01*
X0174413Y0083472D02*
X0174044Y0083472D01*
X0179728Y0083472D02*
X0190713Y0083472D01*
X0190713Y0081874D02*
X0179728Y0081874D01*
X0179728Y0080275D02*
X0190713Y0080275D01*
X0190713Y0078677D02*
X0179174Y0078677D01*
X0179728Y0085071D02*
X0189963Y0085071D01*
X0188364Y0086669D02*
X0179728Y0086669D01*
X0179771Y0088268D02*
X0186766Y0088268D01*
X0185167Y0089866D02*
X0180328Y0089866D01*
X0190713Y0077078D02*
X0154975Y0077078D01*
X0154975Y0075480D02*
X0190713Y0075480D01*
X0190713Y0073881D02*
X0154975Y0073881D01*
X0154501Y0072283D02*
X0190713Y0072283D01*
X0190713Y0070684D02*
X0152903Y0070684D01*
X0151304Y0069086D02*
X0190713Y0069086D01*
X0190713Y0067487D02*
X0141794Y0067487D01*
X0142035Y0069086D02*
X0140196Y0069086D01*
X0140436Y0070684D02*
X0138597Y0070684D01*
X0138838Y0072283D02*
X0136999Y0072283D01*
X0138364Y0073881D02*
X0135400Y0073881D01*
X0133802Y0075480D02*
X0138364Y0075480D01*
X0138364Y0077078D02*
X0132203Y0077078D01*
X0130605Y0078677D02*
X0138364Y0078677D01*
X0139002Y0080275D02*
X0129006Y0080275D01*
X0127407Y0081874D02*
X0140601Y0081874D01*
X0142199Y0083472D02*
X0125809Y0083472D01*
X0116758Y0083472D02*
X0041189Y0083472D01*
X0039393Y0073881D02*
X0031050Y0073881D01*
X0031050Y0072283D02*
X0038023Y0072283D01*
X0037439Y0070684D02*
X0031050Y0070684D01*
X0031050Y0069086D02*
X0037439Y0069086D01*
X0038033Y0067487D02*
X0031050Y0067487D01*
X0031050Y0065889D02*
X0039418Y0065889D01*
X0067687Y0014736D02*
X0067935Y0014736D01*
X0069534Y0013138D02*
X0066088Y0013138D01*
X0076088Y0013138D02*
X0079534Y0013138D01*
X0077935Y0014736D02*
X0077687Y0014736D01*
X0086088Y0013138D02*
X0089534Y0013138D01*
X0087935Y0014736D02*
X0087687Y0014736D01*
X0092811Y0018205D02*
X0092831Y0018205D01*
X0092831Y0033185D01*
X0096631Y0022729D02*
X0099840Y0022729D01*
X0098241Y0021130D02*
X0098229Y0021130D01*
X0102611Y0021130D02*
X0103011Y0021130D01*
X0103011Y0019532D02*
X0102611Y0019532D01*
X0102611Y0017933D02*
X0103011Y0017933D01*
X0103011Y0016335D02*
X0102611Y0016335D01*
X0102611Y0014736D02*
X0103011Y0014736D01*
X0103011Y0013138D02*
X0102611Y0013138D01*
X0100383Y0013138D02*
X0096088Y0013138D01*
X0097687Y0014736D02*
X0098784Y0014736D01*
X0105240Y0013138D02*
X0110383Y0013138D01*
X0112611Y0013138D02*
X0113011Y0013138D01*
X0113011Y0014736D02*
X0112611Y0014736D01*
X0112611Y0016335D02*
X0113011Y0016335D01*
X0113011Y0017933D02*
X0112611Y0017933D01*
X0112611Y0019532D02*
X0113011Y0019532D01*
X0113011Y0021130D02*
X0112611Y0021130D01*
X0112611Y0022729D02*
X0113011Y0022729D01*
X0115782Y0022729D02*
X0118991Y0022729D01*
X0117393Y0021130D02*
X0117381Y0021130D01*
X0116838Y0014736D02*
X0117935Y0014736D01*
X0119534Y0013138D02*
X0115240Y0013138D01*
X0108784Y0014736D02*
X0106838Y0014736D01*
X0107381Y0021130D02*
X0108241Y0021130D01*
X0109840Y0022729D02*
X0105782Y0022729D01*
X0103011Y0022729D02*
X0102611Y0022729D01*
X0128554Y0033919D02*
X0132847Y0033919D01*
X0142811Y0018205D02*
X0142831Y0018205D01*
X0175381Y0013138D02*
X0180241Y0013138D01*
X0178643Y0014736D02*
X0176979Y0014736D01*
X0177522Y0021130D02*
X0178100Y0021130D01*
X0179699Y0022729D02*
X0176031Y0022729D01*
X0185923Y0022729D02*
X0189699Y0022729D01*
X0188100Y0021130D02*
X0187522Y0021130D01*
X0186979Y0014736D02*
X0188643Y0014736D01*
X0190241Y0013138D02*
X0185381Y0013138D01*
X0190713Y0065889D02*
X0149734Y0065889D01*
X0143605Y0065889D02*
X0143393Y0065889D01*
D16*
X0146669Y0062024D03*
X0156512Y0067929D03*
X0144701Y0042339D03*
X0125016Y0030528D03*
X0132890Y0018717D03*
X0109268Y0058087D03*
X0123047Y0063992D03*
X0091551Y0046276D03*
X0042339Y0046276D03*
X0024622Y0036433D03*
X0040370Y0022654D03*
X0042339Y0069898D03*
X0038402Y0087614D03*
X0042339Y0105331D03*
X0038402Y0115173D03*
X0075803Y0111236D03*
X0093520Y0136827D03*
X0087614Y0174228D03*
X0109268Y0174228D03*
X0115173Y0199819D03*
X0152575Y0160449D03*
X0134858Y0158480D03*
X0158480Y0189976D03*
X0189976Y0140764D03*
X0048244Y0182102D03*
D17*
X0012811Y0160449D03*
D18*
X0050213Y0050213D02*
X0075803Y0050213D01*
X0092831Y0033185D01*
D19*
X0050213Y0050213D03*
M02*
