G75*
%MOIN*%
%OFA0B0*%
%FSLAX25Y25*%
%IPPOS*%
%LPD*%
%AMOC8*
5,1,8,0,0,1.08239X$1,22.5*
%
%ADD10C,0.00004*%
%ADD11R,0.11024X0.03937*%
%ADD12R,0.06299X0.07098*%
%ADD13R,0.12205X0.05512*%
%ADD14R,0.17323X0.11811*%
%ADD15R,0.10827X0.01969*%
%ADD16R,0.03937X0.04331*%
%ADD17R,0.03937X0.09843*%
%ADD18R,0.07874X0.09843*%
%ADD19R,0.03150X0.04331*%
D10*
X0008874Y0037220D02*
X0037220Y0008874D01*
X0197063Y0008874D01*
X0201787Y0013598D01*
X0201787Y0212811D01*
X0197063Y0217535D01*
X0013598Y0217535D01*
X0008874Y0212811D01*
X0008874Y0037220D01*
D11*
X0061236Y0143717D03*
X0061236Y0150606D03*
X0061236Y0157496D03*
X0078559Y0157496D03*
X0078559Y0150606D03*
X0078559Y0143717D03*
D12*
X0101701Y0148835D03*
X0112898Y0148835D03*
X0112898Y0136827D03*
X0101701Y0136827D03*
X0101701Y0119110D03*
X0112898Y0119110D03*
X0112898Y0073835D03*
X0101701Y0073835D03*
X0101701Y0182102D03*
X0112898Y0182102D03*
D13*
X0140764Y0187024D03*
X0140764Y0169307D03*
X0180134Y0169307D03*
X0180134Y0187024D03*
D14*
X0079150Y0097457D03*
X0021276Y0097457D03*
D15*
X0135350Y0128953D03*
X0135350Y0138795D03*
X0135350Y0148638D03*
X0161925Y0148638D03*
X0161925Y0138795D03*
X0161925Y0128953D03*
D16*
X0112614Y0126984D03*
X0105921Y0126984D03*
X0105921Y0160449D03*
X0112614Y0160449D03*
X0112614Y0167535D03*
X0105921Y0167535D03*
X0105921Y0189976D03*
X0112614Y0189976D03*
X0112614Y0081709D03*
X0105921Y0081709D03*
X0136787Y0051039D03*
D17*
X0058087Y0036433D03*
X0050213Y0036433D03*
X0042339Y0036433D03*
X0034465Y0036433D03*
X0032496Y0193913D03*
X0040370Y0193913D03*
X0048244Y0193913D03*
X0056118Y0193913D03*
D18*
X0067142Y0181618D03*
X0021472Y0181618D03*
X0023441Y0048728D03*
X0069110Y0048728D03*
D19*
X0134268Y0036354D03*
X0139386Y0036354D03*
M02*
