G75*
%MOIN*%
%OFA0B0*%
%FSLAX25Y25*%
%IPPOS*%
%LPD*%
%AMOC8*
5,1,8,0,0,1.08239X$1,22.5*
%
%ADD10C,0.00004*%
%ADD11R,0.07800X0.07800*%
%ADD12OC8,0.12211*%
%ADD13OC8,0.07400*%
%ADD14OC8,0.06400*%
D10*
X0008874Y0037220D02*
X0037220Y0008874D01*
X0197063Y0008874D01*
X0201787Y0013598D01*
X0201787Y0212811D01*
X0197063Y0217535D01*
X0013598Y0217535D01*
X0008874Y0212811D01*
X0008874Y0037220D01*
D11*
X0174228Y0083677D03*
X0174228Y0093520D03*
X0174228Y0103362D03*
D12*
X0146669Y0110843D03*
X0146669Y0076197D03*
D13*
X0122811Y0018205D03*
X0112811Y0018205D03*
X0102811Y0018205D03*
X0092811Y0018205D03*
X0082811Y0018205D03*
X0072811Y0018205D03*
X0062811Y0018205D03*
X0052811Y0018205D03*
X0047850Y0208205D03*
X0037850Y0208205D03*
X0027850Y0208205D03*
X0017850Y0208205D03*
X0057850Y0208205D03*
X0067850Y0208205D03*
X0077850Y0208205D03*
X0087850Y0208205D03*
X0097850Y0208205D03*
X0107850Y0208205D03*
X0122850Y0208205D03*
X0132850Y0208205D03*
X0142850Y0208205D03*
X0152850Y0208205D03*
X0162850Y0208205D03*
X0172850Y0208205D03*
X0182850Y0208205D03*
X0192850Y0208205D03*
D14*
X0192811Y0018205D03*
X0182811Y0018205D03*
X0172811Y0018205D03*
X0162811Y0018205D03*
X0152811Y0018205D03*
X0142811Y0018205D03*
M02*
