G75*
%MOIN*%
%OFA0B0*%
%FSLAX25Y25*%
%IPPOS*%
%LPD*%
%AMOC8*
5,1,8,0,0,1.08239X$1,22.5*
%
%ADD10C,0.00004*%
%ADD11R,0.11424X0.04337*%
%ADD12R,0.06699X0.07498*%
%ADD13R,0.12605X0.05912*%
%ADD14R,0.17723X0.12211*%
%ADD15R,0.05400X0.02900*%
%ADD16R,0.11227X0.02369*%
%ADD17R,0.07800X0.07800*%
%ADD18OC8,0.12211*%
%ADD19R,0.04337X0.04731*%
%ADD20R,0.04337X0.10243*%
%ADD21R,0.08274X0.10243*%
%ADD22C,0.04337*%
%ADD23C,0.02900*%
%ADD24R,0.03550X0.04731*%
%ADD25OC8,0.07400*%
%ADD26OC8,0.06400*%
D10*
X0008874Y0037220D02*
X0037220Y0008874D01*
X0197063Y0008874D01*
X0201787Y0013598D01*
X0201787Y0212811D01*
X0197063Y0217535D01*
X0013598Y0217535D01*
X0008874Y0212811D01*
X0008874Y0037220D01*
D11*
X0061236Y0143717D03*
X0061236Y0150606D03*
X0061236Y0157496D03*
X0078559Y0157496D03*
X0078559Y0150606D03*
X0078559Y0143717D03*
D12*
X0101701Y0148835D03*
X0112898Y0148835D03*
X0112898Y0136827D03*
X0101701Y0136827D03*
X0101701Y0119110D03*
X0112898Y0119110D03*
X0112898Y0073835D03*
X0101701Y0073835D03*
X0101701Y0182102D03*
X0112898Y0182102D03*
D13*
X0140764Y0187024D03*
X0140764Y0169307D03*
X0180134Y0169307D03*
X0180134Y0187024D03*
D14*
X0079150Y0097457D03*
X0021276Y0097457D03*
D15*
X0182890Y0030559D03*
X0182890Y0026559D03*
X0192732Y0026559D03*
X0192732Y0030559D03*
D16*
X0161925Y0128953D03*
X0161925Y0138795D03*
X0161925Y0148638D03*
X0135350Y0148638D03*
X0135350Y0138795D03*
X0135350Y0128953D03*
D17*
X0174228Y0103362D03*
X0174228Y0093520D03*
X0174228Y0083677D03*
D18*
X0146669Y0076197D03*
X0146669Y0110843D03*
D19*
X0112614Y0126984D03*
X0105921Y0126984D03*
X0105921Y0160449D03*
X0112614Y0160449D03*
X0112614Y0167535D03*
X0105921Y0167535D03*
X0105921Y0189976D03*
X0112614Y0189976D03*
X0112614Y0081709D03*
X0105921Y0081709D03*
X0136787Y0051039D03*
D20*
X0058087Y0036433D03*
X0050213Y0036433D03*
X0042339Y0036433D03*
X0034465Y0036433D03*
X0032496Y0193913D03*
X0040370Y0193913D03*
X0048244Y0193913D03*
X0056118Y0193913D03*
D21*
X0067142Y0181618D03*
X0021472Y0181618D03*
X0023441Y0048728D03*
X0069110Y0048728D03*
D22*
X0014780Y0040370D03*
X0014780Y0197850D03*
X0195882Y0197850D03*
X0195882Y0040370D03*
D23*
X0146669Y0093520D03*
X0148638Y0138795D03*
X0160449Y0178165D03*
X0067929Y0168323D03*
X0058087Y0164386D03*
X0050213Y0126984D03*
X0065961Y0097457D03*
X0034465Y0097457D03*
X0022654Y0062024D03*
D24*
X0134268Y0036354D03*
X0139386Y0036354D03*
D25*
X0122811Y0018205D03*
X0112811Y0018205D03*
X0102811Y0018205D03*
X0092811Y0018205D03*
X0082811Y0018205D03*
X0072811Y0018205D03*
X0062811Y0018205D03*
X0052811Y0018205D03*
X0047850Y0208205D03*
X0037850Y0208205D03*
X0027850Y0208205D03*
X0017850Y0208205D03*
X0057850Y0208205D03*
X0067850Y0208205D03*
X0077850Y0208205D03*
X0087850Y0208205D03*
X0097850Y0208205D03*
X0107850Y0208205D03*
X0122850Y0208205D03*
X0132850Y0208205D03*
X0142850Y0208205D03*
X0152850Y0208205D03*
X0162850Y0208205D03*
X0172850Y0208205D03*
X0182850Y0208205D03*
X0192850Y0208205D03*
D26*
X0192811Y0018205D03*
X0182811Y0018205D03*
X0172811Y0018205D03*
X0162811Y0018205D03*
X0152811Y0018205D03*
X0142811Y0018205D03*
M02*
