G75*
%MOIN*%
%OFA0B0*%
%FSLAX25Y25*%
%IPPOS*%
%LPD*%
%AMOC8*
5,1,8,0,0,1.08239X$1,22.5*
%
%ADD10C,0.00004*%
%ADD11R,0.01000X0.00333*%
%ADD12R,0.00330X0.00333*%
%ADD13R,0.01330X0.00333*%
%ADD14R,0.01340X0.00333*%
%ADD15R,0.00340X0.00333*%
%ADD16R,0.11670X0.00333*%
%ADD17R,0.00340X0.00334*%
%ADD18R,0.00330X0.00334*%
%ADD19R,0.00660X0.00334*%
%ADD20R,0.01000X0.00334*%
%ADD21R,0.11670X0.00334*%
%ADD22R,0.00670X0.00333*%
%ADD23R,0.01330X0.00334*%
%ADD24R,0.01340X0.00334*%
%ADD25R,0.00670X0.00334*%
%ADD26R,0.00660X0.00333*%
%ADD27R,0.01670X0.00333*%
%ADD28R,0.02000X0.00333*%
%ADD29R,0.02670X0.00333*%
%ADD30R,0.01670X0.00334*%
%ADD31R,0.01660X0.00333*%
%ADD32R,0.01660X0.00334*%
%ADD33R,0.04000X0.00334*%
%ADD34R,0.03660X0.00334*%
%ADD35R,0.05330X0.00334*%
%ADD36R,0.02670X0.00334*%
%ADD37R,0.02660X0.00334*%
%ADD38R,0.02330X0.00334*%
%ADD39R,0.02330X0.00333*%
%ADD40R,0.04340X0.00333*%
%ADD41R,0.06000X0.00333*%
%ADD42R,0.05660X0.00333*%
%ADD43R,0.04330X0.00333*%
%ADD44R,0.04000X0.00333*%
%ADD45R,0.05670X0.00333*%
%ADD46R,0.02660X0.00333*%
%ADD47R,0.03670X0.00333*%
%ADD48R,0.03000X0.00333*%
%ADD49R,0.02340X0.00333*%
%ADD50R,0.03670X0.00334*%
%ADD51R,0.02340X0.00334*%
%ADD52R,0.02000X0.00334*%
%ADD53R,0.03000X0.00334*%
%ADD54R,0.03340X0.00333*%
%ADD55R,0.03330X0.00333*%
%ADD56R,0.05660X0.00334*%
%ADD57R,0.06000X0.00334*%
%ADD58R,0.06330X0.00334*%
%ADD59R,0.04330X0.00334*%
%ADD60R,0.04670X0.00334*%
%ADD61R,0.12000X0.00334*%
%ADD62R,0.04670X0.00333*%
%ADD63R,0.04660X0.00333*%
%ADD64R,0.05000X0.00333*%
%ADD65R,0.06330X0.00333*%
%ADD66R,0.05000X0.00334*%
%ADD67R,0.05670X0.00334*%
%ADD68R,0.10000X0.00334*%
%ADD69R,0.03660X0.00333*%
%ADD70R,0.05330X0.00333*%
%ADD71R,0.03330X0.00334*%
%ADD72R,0.10340X0.00334*%
%ADD73R,0.09660X0.00333*%
%ADD74R,0.03340X0.00334*%
%ADD75R,0.10340X0.00333*%
%ADD76R,0.11000X0.00333*%
%ADD77R,0.11660X0.00334*%
%ADD78R,0.11660X0.00333*%
%ADD79R,0.07340X0.00333*%
%ADD80R,1.78340X0.00334*%
%ADD81R,1.78340X0.00333*%
%ADD82R,1.04000X0.00333*%
%ADD83R,0.25000X0.00333*%
%ADD84R,0.09340X0.00333*%
%ADD85R,0.35340X0.00333*%
%ADD86R,1.03670X0.00333*%
%ADD87R,0.24670X0.00333*%
%ADD88R,1.03340X0.00334*%
%ADD89R,0.24340X0.00334*%
%ADD90R,0.09340X0.00334*%
%ADD91R,0.35340X0.00334*%
%ADD92R,1.03340X0.00333*%
%ADD93R,0.26340X0.00333*%
%ADD94R,0.11340X0.00333*%
%ADD95R,0.08000X0.00333*%
%ADD96R,0.08000X0.00334*%
%ADD97R,0.25000X0.00334*%
%ADD98R,0.05340X0.00333*%
%ADD99R,0.12660X0.00333*%
%ADD100R,0.09670X0.00333*%
%ADD101R,0.07330X0.00333*%
%ADD102R,0.09670X0.00334*%
%ADD103R,0.07330X0.00334*%
%ADD104R,0.12660X0.00334*%
%ADD105R,0.11000X0.00334*%
%ADD106R,0.20670X0.00333*%
%ADD107R,0.09330X0.00333*%
%ADD108R,0.29330X0.00333*%
%ADD109R,0.18330X0.00333*%
%ADD110R,0.26000X0.00333*%
%ADD111R,0.07670X0.00333*%
%ADD112R,0.20670X0.00334*%
%ADD113R,0.09330X0.00334*%
%ADD114R,0.30000X0.00334*%
%ADD115R,0.18660X0.00334*%
%ADD116R,0.26000X0.00334*%
%ADD117R,0.04660X0.00334*%
%ADD118R,0.07670X0.00334*%
%ADD119R,0.13670X0.00333*%
%ADD120R,0.30340X0.00333*%
%ADD121R,0.12000X0.00333*%
%ADD122R,0.19670X0.00333*%
%ADD123R,0.46670X0.00333*%
%ADD124R,1.61000X0.00334*%
%ADD125R,1.61000X0.00333*%
%ADD126R,0.84000X0.00333*%
%ADD127R,0.73670X0.00333*%
%ADD128R,0.10660X0.00333*%
%ADD129R,0.83670X0.00334*%
%ADD130R,0.73670X0.00334*%
%ADD131R,0.10660X0.00334*%
%ADD132R,0.83340X0.00333*%
%ADD133R,0.75670X0.00333*%
%ADD134R,0.09000X0.00333*%
%ADD135R,0.06340X0.00333*%
%ADD136R,0.09000X0.00334*%
%ADD137R,0.06340X0.00334*%
%ADD138R,0.10330X0.00334*%
%ADD139R,0.10330X0.00333*%
%ADD140R,0.17000X0.00333*%
%ADD141R,0.14330X0.00333*%
%ADD142R,0.10670X0.00333*%
%ADD143R,0.10000X0.00333*%
%ADD144R,0.08330X0.00333*%
%ADD145R,0.07660X0.00333*%
%ADD146R,0.48330X0.00333*%
%ADD147R,0.17000X0.00334*%
%ADD148R,0.14330X0.00334*%
%ADD149R,0.10670X0.00334*%
%ADD150R,0.08330X0.00334*%
%ADD151R,0.48330X0.00334*%
%ADD152R,0.07660X0.00334*%
%ADD153R,0.16670X0.00333*%
%ADD154R,0.07000X0.00333*%
%ADD155R,0.08670X0.00333*%
%ADD156R,0.15670X0.00333*%
%ADD157R,0.14660X0.00333*%
%ADD158R,0.25670X0.00333*%
%ADD159R,0.45000X0.00333*%
%ADD160R,0.24340X0.00333*%
%ADD161R,0.15670X0.00334*%
%ADD162R,0.15000X0.00334*%
%ADD163R,0.25670X0.00334*%
%ADD164R,0.15340X0.00334*%
%ADD165R,0.45000X0.00334*%
%ADD166R,0.29000X0.00334*%
%ADD167R,0.11330X0.00333*%
%ADD168R,0.11330X0.00334*%
%ADD169R,0.09660X0.00334*%
%ADD170R,0.17670X0.00334*%
%ADD171R,0.17670X0.00333*%
%ADD172R,0.11340X0.00334*%
%ADD173C,0.00800*%
D10*
X0008874Y0037220D02*
X0037220Y0008874D01*
X0197063Y0008874D01*
X0201787Y0013598D01*
X0201787Y0212811D01*
X0197063Y0217535D01*
X0013598Y0217535D01*
X0008874Y0212811D01*
X0008874Y0037220D01*
D11*
X0019337Y0032374D03*
X0019007Y0035707D03*
X0022677Y0033374D03*
X0024337Y0035707D03*
X0030677Y0033374D03*
X0034677Y0035707D03*
X0044337Y0042374D03*
X0046677Y0044374D03*
X0062007Y0034707D03*
X0063007Y0036374D03*
X0070677Y0043707D03*
X0071007Y0043374D03*
X0071677Y0042707D03*
X0071677Y0042374D03*
X0071007Y0045707D03*
X0079337Y0034374D03*
X0105337Y0048707D03*
X0114677Y0048707D03*
X0103677Y0067707D03*
X0103337Y0069374D03*
X0103677Y0070707D03*
X0107337Y0070374D03*
X0107677Y0069374D03*
X0107677Y0068707D03*
X0109007Y0069707D03*
X0109007Y0070374D03*
X0110007Y0068707D03*
X0110007Y0068374D03*
X0111007Y0069374D03*
X0111007Y0069707D03*
X0112337Y0068707D03*
X0112677Y0069707D03*
X0113007Y0070707D03*
X0114677Y0070707D03*
X0114677Y0070374D03*
X0115677Y0076707D03*
X0115677Y0077374D03*
X0117677Y0078707D03*
X0119677Y0078707D03*
X0112007Y0076707D03*
X0112007Y0076374D03*
X0108337Y0076374D03*
X0108337Y0079374D03*
X0104677Y0078707D03*
X0102677Y0078374D03*
X0102677Y0077707D03*
X0102677Y0077374D03*
X0095007Y0077374D03*
X0095007Y0079707D03*
X0092337Y0080707D03*
X0090677Y0078374D03*
X0090677Y0077707D03*
X0090677Y0077374D03*
X0092337Y0076374D03*
X0086677Y0076374D03*
X0085007Y0076707D03*
X0085007Y0078707D03*
X0083337Y0078707D03*
X0086677Y0079374D03*
X0080007Y0077374D03*
X0080007Y0076707D03*
X0080007Y0076374D03*
X0077337Y0076374D03*
X0077337Y0079374D03*
X0079337Y0070374D03*
X0081007Y0069374D03*
X0081007Y0068707D03*
X0081007Y0068374D03*
X0075337Y0068707D03*
X0075337Y0069374D03*
X0075337Y0069707D03*
X0071007Y0069707D03*
X0071007Y0069374D03*
X0071007Y0070374D03*
X0064677Y0077707D03*
X0064677Y0078374D03*
X0064677Y0078707D03*
X0056677Y0076707D03*
X0056337Y0077707D03*
X0053007Y0077707D03*
X0053007Y0077374D03*
X0053007Y0078374D03*
X0049007Y0079374D03*
X0047337Y0078707D03*
X0047337Y0076707D03*
X0049007Y0076374D03*
X0045337Y0076374D03*
X0041337Y0077707D03*
X0041337Y0078374D03*
X0041337Y0078707D03*
X0039337Y0070374D03*
X0039337Y0069707D03*
X0038007Y0069374D03*
X0038007Y0068707D03*
X0037677Y0070374D03*
X0040337Y0068707D03*
X0040337Y0068374D03*
X0041337Y0069374D03*
X0041337Y0069707D03*
X0048677Y0069707D03*
X0048677Y0069374D03*
X0048677Y0068707D03*
X0050677Y0070374D03*
X0052337Y0070707D03*
X0052337Y0067707D03*
X0033677Y0068707D03*
X0033677Y0069374D03*
X0033677Y0069707D03*
X0025007Y0068374D03*
X0025007Y0067707D03*
X0027337Y0077374D03*
X0027337Y0077707D03*
X0027337Y0078374D03*
X0030337Y0050374D03*
X0021677Y0050374D03*
X0090677Y0068707D03*
X0090677Y0069374D03*
X0090677Y0069707D03*
X0092677Y0070374D03*
X0094677Y0070374D03*
X0096337Y0069707D03*
X0096337Y0069374D03*
X0096337Y0068707D03*
X0100337Y0068374D03*
X0100677Y0069374D03*
X0122677Y0069374D03*
X0122677Y0069707D03*
X0122677Y0068707D03*
X0124677Y0070374D03*
X0131007Y0069707D03*
X0131007Y0069374D03*
X0131007Y0068707D03*
X0131337Y0076707D03*
X0133337Y0077374D03*
X0133337Y0077707D03*
X0133337Y0078374D03*
X0140007Y0070707D03*
X0140007Y0070374D03*
X0140007Y0069707D03*
X0140007Y0067707D03*
X0141677Y0068374D03*
X0143007Y0076374D03*
X0150677Y0078707D03*
X0152337Y0078707D03*
X0152337Y0076707D03*
X0156337Y0078707D03*
X0162007Y0077374D03*
X0162007Y0076707D03*
X0164007Y0078707D03*
X0161677Y0070374D03*
X0161677Y0069707D03*
X0161677Y0069374D03*
X0159337Y0067707D03*
X0155337Y0068707D03*
X0155337Y0069374D03*
X0155337Y0069707D03*
X0151677Y0070374D03*
X0149677Y0069707D03*
X0149677Y0069374D03*
X0149677Y0068707D03*
X0166007Y0068707D03*
X0166007Y0069374D03*
X0166007Y0069707D03*
X0168007Y0070374D03*
X0166007Y0044374D03*
X0166007Y0043707D03*
X0166007Y0043374D03*
X0166007Y0042707D03*
X0164677Y0042707D03*
X0164677Y0043374D03*
X0164677Y0043707D03*
X0168337Y0043707D03*
X0168337Y0043374D03*
X0168337Y0042707D03*
X0160007Y0042707D03*
X0160007Y0043374D03*
X0160007Y0043707D03*
X0159337Y0042374D03*
X0156337Y0042707D03*
X0156337Y0043374D03*
X0156337Y0043707D03*
X0155007Y0043707D03*
X0155007Y0042707D03*
X0153677Y0043707D03*
X0152337Y0043707D03*
X0152337Y0043374D03*
X0152337Y0042707D03*
X0152007Y0044707D03*
X0150007Y0043707D03*
X0148337Y0041707D03*
X0145677Y0035707D03*
X0145677Y0035374D03*
X0145677Y0034707D03*
X0145677Y0034374D03*
X0155337Y0036374D03*
X0135337Y0044707D03*
X0185677Y0041374D03*
X0185677Y0040707D03*
X0186007Y0039707D03*
X0186007Y0039374D03*
X0190337Y0039374D03*
X0191337Y0136707D03*
X0191337Y0137374D03*
X0191337Y0138374D03*
X0191337Y0138707D03*
X0190007Y0138707D03*
X0189677Y0138374D03*
X0189677Y0137707D03*
X0189677Y0137374D03*
X0188337Y0137374D03*
X0188337Y0137707D03*
X0187007Y0137707D03*
X0187007Y0137374D03*
X0185677Y0137374D03*
X0185677Y0137707D03*
X0185677Y0138374D03*
X0185337Y0138707D03*
X0185337Y0139374D03*
X0184007Y0138374D03*
X0183677Y0138707D03*
X0184007Y0137374D03*
X0183677Y0136707D03*
X0181677Y0138374D03*
X0180007Y0138374D03*
X0180007Y0138707D03*
X0178337Y0136707D03*
X0176677Y0137374D03*
X0176677Y0137707D03*
X0176677Y0138374D03*
X0176337Y0138707D03*
X0174337Y0138707D03*
X0174007Y0138374D03*
X0174007Y0137707D03*
X0174007Y0137374D03*
X0174337Y0136707D03*
X0176337Y0136707D03*
X0172007Y0136707D03*
X0172007Y0136374D03*
X0172007Y0137374D03*
X0172007Y0137707D03*
X0172007Y0138374D03*
X0172007Y0138707D03*
X0170007Y0138707D03*
X0170007Y0138374D03*
X0170007Y0137707D03*
X0170007Y0137374D03*
X0170007Y0136707D03*
X0170007Y0136374D03*
X0168007Y0136374D03*
X0168007Y0136707D03*
X0168007Y0137374D03*
X0168007Y0137707D03*
X0168007Y0138374D03*
X0166337Y0138374D03*
X0166007Y0138707D03*
X0166337Y0137374D03*
X0166007Y0136707D03*
X0164007Y0138374D03*
X0162337Y0138374D03*
X0162337Y0138707D03*
X0160677Y0136707D03*
X0158677Y0136707D03*
X0158677Y0136374D03*
X0158677Y0137374D03*
X0158677Y0137707D03*
X0158677Y0138374D03*
X0158677Y0138707D03*
X0158677Y0139707D03*
X0158677Y0140374D03*
X0158677Y0140707D03*
X0156677Y0138374D03*
X0156677Y0137707D03*
X0156677Y0137374D03*
X0156677Y0136707D03*
X0156677Y0136374D03*
X0155007Y0136374D03*
X0155007Y0136707D03*
X0155007Y0137374D03*
X0155007Y0137707D03*
X0155007Y0138374D03*
X0155007Y0138707D03*
X0155007Y0139374D03*
X0155007Y0140374D03*
X0155007Y0140707D03*
X0152677Y0138707D03*
X0153007Y0138374D03*
X0153007Y0137374D03*
X0152677Y0136707D03*
X0150677Y0138374D03*
X0149007Y0138374D03*
X0149007Y0138707D03*
X0149007Y0139374D03*
X0149007Y0139707D03*
X0149007Y0140374D03*
X0149007Y0140707D03*
X0146677Y0138707D03*
X0147007Y0138374D03*
X0147007Y0137707D03*
X0147007Y0137374D03*
X0146677Y0136707D03*
X0144677Y0136707D03*
X0144677Y0137374D03*
X0144677Y0137707D03*
X0144677Y0138374D03*
X0144677Y0138707D03*
X0144677Y0139707D03*
X0144677Y0140374D03*
X0144677Y0140707D03*
X0140677Y0138374D03*
X0140337Y0138707D03*
X0140677Y0137707D03*
X0140677Y0137374D03*
X0140337Y0136707D03*
X0142337Y0136707D03*
X0142337Y0136374D03*
X0137337Y0137374D03*
X0137337Y0137707D03*
X0137337Y0138374D03*
X0137007Y0138707D03*
X0135007Y0138707D03*
X0134677Y0138374D03*
X0134677Y0137707D03*
X0134677Y0137374D03*
X0135007Y0136707D03*
X0137007Y0136707D03*
X0132677Y0136707D03*
X0132677Y0136374D03*
X0132677Y0137374D03*
X0132677Y0137707D03*
X0132677Y0138374D03*
X0132677Y0138707D03*
X0130677Y0138707D03*
X0130677Y0138374D03*
X0130677Y0137707D03*
X0130677Y0137374D03*
X0130677Y0136707D03*
X0130677Y0136374D03*
X0128677Y0136374D03*
X0128677Y0136707D03*
X0128677Y0137374D03*
X0128677Y0137707D03*
X0128677Y0138374D03*
X0149007Y0137707D03*
X0149007Y0137374D03*
X0149007Y0136707D03*
X0163007Y0147707D03*
X0187677Y0139374D03*
X0190007Y0139374D03*
X0193337Y0137374D03*
X0193337Y0136707D03*
D12*
X0193342Y0138707D03*
X0186672Y0144374D03*
X0186672Y0144707D03*
X0186672Y0145374D03*
X0186672Y0145707D03*
X0186672Y0146374D03*
X0186672Y0146707D03*
X0185342Y0146707D03*
X0185342Y0146374D03*
X0185342Y0145707D03*
X0185342Y0145374D03*
X0184672Y0144707D03*
X0182672Y0144707D03*
X0182342Y0146374D03*
X0182342Y0146707D03*
X0184672Y0147374D03*
X0179342Y0147374D03*
X0179342Y0146707D03*
X0179342Y0146374D03*
X0179342Y0145707D03*
X0179342Y0145374D03*
X0179342Y0144707D03*
X0179342Y0144374D03*
X0177342Y0147374D03*
X0179342Y0148374D03*
X0179342Y0148707D03*
X0179342Y0149374D03*
X0175672Y0145707D03*
X0175672Y0145374D03*
X0175342Y0144707D03*
X0173342Y0144707D03*
X0173342Y0145374D03*
X0173342Y0145707D03*
X0173342Y0146707D03*
X0173672Y0147374D03*
X0171672Y0147374D03*
X0171672Y0146707D03*
X0171672Y0146374D03*
X0171672Y0145707D03*
X0171672Y0145374D03*
X0171672Y0144707D03*
X0171672Y0144374D03*
X0169342Y0144374D03*
X0169342Y0144707D03*
X0169342Y0145374D03*
X0169342Y0145707D03*
X0169342Y0146374D03*
X0169342Y0146707D03*
X0169672Y0147374D03*
X0167342Y0147374D03*
X0165342Y0147707D03*
X0165342Y0148374D03*
X0165342Y0148707D03*
X0165342Y0149374D03*
X0163672Y0147374D03*
X0163672Y0146374D03*
X0162342Y0145707D03*
X0162342Y0144707D03*
X0165342Y0144707D03*
X0165342Y0145374D03*
X0165342Y0145707D03*
X0165342Y0146374D03*
X0165342Y0146707D03*
X0167342Y0144707D03*
X0162342Y0147374D03*
X0158672Y0146707D03*
X0158672Y0146374D03*
X0158672Y0145707D03*
X0158672Y0145374D03*
X0156342Y0144707D03*
X0155672Y0145374D03*
X0155672Y0145707D03*
X0155672Y0146374D03*
X0155672Y0146707D03*
X0156342Y0147374D03*
X0154342Y0147374D03*
X0154342Y0146707D03*
X0154342Y0146374D03*
X0154342Y0145707D03*
X0154342Y0145374D03*
X0154342Y0144707D03*
X0154342Y0144374D03*
X0152342Y0147374D03*
X0148672Y0147374D03*
X0148672Y0147707D03*
X0148672Y0148374D03*
X0148672Y0148707D03*
X0148672Y0149374D03*
X0148672Y0146707D03*
X0148672Y0146374D03*
X0148672Y0145707D03*
X0148672Y0145374D03*
X0148672Y0144707D03*
X0146342Y0144707D03*
X0144342Y0144707D03*
X0142672Y0144707D03*
X0140672Y0144707D03*
X0140672Y0145374D03*
X0140672Y0145707D03*
X0140672Y0146707D03*
X0144672Y0147374D03*
X0146342Y0147374D03*
X0136342Y0147374D03*
X0136342Y0146707D03*
X0136342Y0146374D03*
X0136342Y0145707D03*
X0136342Y0145374D03*
X0136342Y0144707D03*
X0136342Y0144374D03*
X0134342Y0147374D03*
X0132342Y0147374D03*
X0132342Y0147707D03*
X0132342Y0146707D03*
X0132342Y0146374D03*
X0132342Y0145707D03*
X0132342Y0145374D03*
X0132342Y0144707D03*
X0132342Y0144374D03*
X0130672Y0144374D03*
X0130672Y0144707D03*
X0130672Y0145374D03*
X0130672Y0145707D03*
X0130672Y0146374D03*
X0130672Y0146707D03*
X0130672Y0147374D03*
X0128672Y0147374D03*
X0128342Y0146707D03*
X0128342Y0146374D03*
X0128342Y0145707D03*
X0128342Y0145374D03*
X0128342Y0144707D03*
X0128342Y0144374D03*
X0126342Y0144707D03*
X0124342Y0144374D03*
X0124342Y0143707D03*
X0124672Y0143374D03*
X0124342Y0145374D03*
X0124342Y0145707D03*
X0124342Y0146374D03*
X0124342Y0146707D03*
X0124342Y0147374D03*
X0126342Y0147374D03*
X0121342Y0145707D03*
X0121342Y0145374D03*
X0120672Y0146374D03*
X0119672Y0146374D03*
X0119342Y0147374D03*
X0120672Y0147374D03*
X0120672Y0147707D03*
X0120672Y0148374D03*
X0120342Y0148707D03*
X0119342Y0148707D03*
X0118342Y0145707D03*
X0117672Y0144374D03*
X0114672Y0144374D03*
X0114672Y0144707D03*
X0114672Y0145374D03*
X0114672Y0145707D03*
X0114672Y0146374D03*
X0114672Y0146707D03*
X0114672Y0147374D03*
X0114672Y0147707D03*
X0114672Y0148707D03*
X0110672Y0146707D03*
X0110672Y0146374D03*
X0110672Y0145707D03*
X0110672Y0145374D03*
X0110672Y0144707D03*
X0110672Y0144374D03*
X0108672Y0145374D03*
X0108672Y0145707D03*
X0108342Y0144707D03*
X0107672Y0144707D03*
X0107342Y0145374D03*
X0107342Y0145707D03*
X0105672Y0145707D03*
X0105672Y0145374D03*
X0105672Y0146374D03*
X0105672Y0146707D03*
X0106672Y0147374D03*
X0106672Y0147707D03*
X0109342Y0147707D03*
X0109342Y0147374D03*
X0103342Y0147374D03*
X0102672Y0146707D03*
X0102672Y0146374D03*
X0101342Y0146374D03*
X0101342Y0146707D03*
X0101342Y0147374D03*
X0101342Y0145707D03*
X0101342Y0145374D03*
X0101342Y0144707D03*
X0101342Y0144374D03*
X0099342Y0147374D03*
X0097342Y0147374D03*
X0097342Y0146707D03*
X0097342Y0146374D03*
X0097342Y0145707D03*
X0097342Y0145374D03*
X0097342Y0144707D03*
X0094672Y0144707D03*
X0094672Y0144374D03*
X0094672Y0145374D03*
X0094672Y0145707D03*
X0094672Y0146374D03*
X0094672Y0146707D03*
X0094672Y0147374D03*
X0094672Y0147707D03*
X0094672Y0148707D03*
X0093342Y0146707D03*
X0093342Y0146374D03*
X0093342Y0145707D03*
X0093342Y0145374D03*
X0092672Y0144707D03*
X0090342Y0145374D03*
X0090342Y0145707D03*
X0090342Y0146374D03*
X0090342Y0146707D03*
X0092672Y0147374D03*
X0086672Y0146707D03*
X0086672Y0146374D03*
X0086672Y0145707D03*
X0086672Y0145374D03*
X0086672Y0144707D03*
X0086672Y0144374D03*
X0083342Y0144374D03*
X0083342Y0143707D03*
X0083342Y0143374D03*
X0083342Y0145374D03*
X0083342Y0145707D03*
X0083342Y0146374D03*
X0083342Y0146707D03*
X0083342Y0147374D03*
X0081342Y0147374D03*
X0080672Y0146707D03*
X0080672Y0146374D03*
X0080672Y0145707D03*
X0080672Y0145374D03*
X0081342Y0144707D03*
X0079342Y0144707D03*
X0079342Y0145374D03*
X0079342Y0145707D03*
X0079342Y0146374D03*
X0079342Y0146707D03*
X0079342Y0147374D03*
X0079342Y0147707D03*
X0079342Y0148374D03*
X0079342Y0148707D03*
X0079342Y0149374D03*
X0077672Y0145707D03*
X0077672Y0145374D03*
X0077342Y0144707D03*
X0075342Y0144707D03*
X0075342Y0145374D03*
X0075342Y0145707D03*
X0075342Y0146707D03*
X0075672Y0147374D03*
X0073672Y0147374D03*
X0073672Y0146707D03*
X0073672Y0146374D03*
X0073672Y0145707D03*
X0073672Y0145374D03*
X0073672Y0144707D03*
X0073672Y0148374D03*
X0073672Y0148707D03*
X0068672Y0146707D03*
X0068672Y0146374D03*
X0068672Y0145707D03*
X0068672Y0145374D03*
X0066342Y0144707D03*
X0065672Y0145374D03*
X0065672Y0145707D03*
X0065672Y0146374D03*
X0065672Y0146707D03*
X0066342Y0147374D03*
X0064342Y0147374D03*
X0064342Y0146707D03*
X0064342Y0146374D03*
X0064342Y0145707D03*
X0064342Y0145374D03*
X0064342Y0144707D03*
X0064342Y0144374D03*
X0061672Y0144374D03*
X0061672Y0144707D03*
X0061672Y0145374D03*
X0061672Y0145707D03*
X0061672Y0146374D03*
X0061672Y0146707D03*
X0061672Y0147374D03*
X0059342Y0146707D03*
X0059342Y0146374D03*
X0059342Y0145707D03*
X0059342Y0145374D03*
X0059342Y0144707D03*
X0059342Y0144374D03*
X0057342Y0147374D03*
X0055672Y0144707D03*
X0055672Y0144374D03*
X0058342Y0161374D03*
X0058342Y0161707D03*
X0058342Y0162374D03*
X0058342Y0162707D03*
X0058342Y0163374D03*
X0058342Y0164374D03*
X0058342Y0164707D03*
X0058342Y0165374D03*
X0058342Y0165707D03*
X0061672Y0165707D03*
X0061672Y0165374D03*
X0061672Y0164707D03*
X0061672Y0164374D03*
X0061672Y0163374D03*
X0061672Y0162707D03*
X0061672Y0162374D03*
X0061672Y0161707D03*
X0061672Y0161374D03*
X0056672Y0161707D03*
X0054672Y0161707D03*
X0054672Y0162374D03*
X0054672Y0162707D03*
X0054672Y0163707D03*
X0050672Y0163707D03*
X0050672Y0163374D03*
X0050672Y0162707D03*
X0050672Y0162374D03*
X0046672Y0164374D03*
X0046672Y0164707D03*
X0046342Y0163707D03*
X0045672Y0162374D03*
X0045342Y0161707D03*
X0045342Y0161374D03*
X0043672Y0162374D03*
X0043672Y0162707D03*
X0042672Y0162707D03*
X0042672Y0163374D03*
X0042342Y0163707D03*
X0044342Y0164374D03*
X0044342Y0164707D03*
X0044672Y0163707D03*
X0044672Y0163374D03*
X0043342Y0161707D03*
X0043342Y0161374D03*
X0040672Y0161707D03*
X0038672Y0161707D03*
X0038672Y0162374D03*
X0038672Y0162707D03*
X0038672Y0163707D03*
X0034672Y0163707D03*
X0034672Y0163374D03*
X0034672Y0162707D03*
X0034672Y0162374D03*
X0032342Y0164374D03*
X0031672Y0163707D03*
X0031672Y0163374D03*
X0028672Y0163374D03*
X0028672Y0163707D03*
X0028342Y0162707D03*
X0028342Y0162374D03*
X0027342Y0161707D03*
X0027672Y0161374D03*
X0026672Y0163374D03*
X0026672Y0163707D03*
X0026342Y0164374D03*
X0026342Y0164707D03*
X0024342Y0165374D03*
X0023672Y0165374D03*
X0023672Y0164707D03*
X0023672Y0164374D03*
X0023672Y0163707D03*
X0023672Y0163374D03*
X0023672Y0162707D03*
X0023672Y0162374D03*
X0023672Y0161707D03*
X0023672Y0161374D03*
X0021342Y0161374D03*
X0021342Y0161707D03*
X0020342Y0162707D03*
X0020342Y0163374D03*
X0020342Y0163707D03*
X0020342Y0164374D03*
X0020342Y0164707D03*
X0019672Y0165707D03*
X0017672Y0165374D03*
X0017342Y0164707D03*
X0017342Y0164374D03*
X0017342Y0163707D03*
X0017342Y0163374D03*
X0017342Y0162707D03*
X0017672Y0162374D03*
X0019672Y0161707D03*
X0097342Y0148707D03*
X0097342Y0148374D03*
X0132342Y0148707D03*
X0138672Y0136707D03*
X0150672Y0136707D03*
X0160672Y0138707D03*
X0162672Y0136707D03*
X0178342Y0138707D03*
X0180342Y0136707D03*
X0181672Y0136707D03*
X0152672Y0077374D03*
X0150672Y0054707D03*
X0150672Y0054374D03*
X0150672Y0053707D03*
X0150672Y0053374D03*
X0150672Y0052707D03*
X0150672Y0052374D03*
X0150672Y0051707D03*
X0150672Y0051374D03*
X0150672Y0050707D03*
X0150672Y0050374D03*
X0152672Y0050374D03*
X0153342Y0051374D03*
X0153342Y0051707D03*
X0153342Y0052374D03*
X0154342Y0052374D03*
X0154672Y0052707D03*
X0154672Y0050374D03*
X0156672Y0050374D03*
X0157342Y0051374D03*
X0157342Y0052374D03*
X0159672Y0052374D03*
X0159672Y0052707D03*
X0159672Y0051707D03*
X0159672Y0051374D03*
X0159672Y0050707D03*
X0159672Y0050374D03*
X0161342Y0050374D03*
X0161342Y0050707D03*
X0161342Y0051374D03*
X0161342Y0051707D03*
X0161342Y0052374D03*
X0161342Y0052707D03*
X0161342Y0053374D03*
X0163672Y0053374D03*
X0163672Y0052707D03*
X0163672Y0052374D03*
X0163672Y0051707D03*
X0163672Y0051374D03*
X0163672Y0050707D03*
X0163342Y0050374D03*
X0166342Y0050374D03*
X0166342Y0050707D03*
X0166342Y0051374D03*
X0166342Y0051707D03*
X0166342Y0052374D03*
X0166342Y0052707D03*
X0166342Y0053707D03*
X0166342Y0054374D03*
X0169672Y0052707D03*
X0171342Y0052707D03*
X0171342Y0052374D03*
X0171342Y0051707D03*
X0171342Y0051374D03*
X0171342Y0050707D03*
X0171342Y0050374D03*
X0169672Y0050707D03*
X0169342Y0050374D03*
X0167672Y0050374D03*
X0173342Y0050374D03*
X0173672Y0050707D03*
X0173672Y0051374D03*
X0173342Y0051707D03*
X0175672Y0054707D03*
X0177672Y0053374D03*
X0177672Y0052707D03*
X0177672Y0052374D03*
X0177672Y0051707D03*
X0177672Y0051374D03*
X0177672Y0050707D03*
X0177672Y0050374D03*
X0179672Y0050374D03*
X0181672Y0050374D03*
X0181672Y0050707D03*
X0181672Y0051374D03*
X0181672Y0051707D03*
X0181672Y0052374D03*
X0181672Y0052707D03*
X0185672Y0052707D03*
X0185672Y0052374D03*
X0185672Y0051707D03*
X0185672Y0051374D03*
X0185672Y0050707D03*
X0185672Y0050374D03*
X0187672Y0050374D03*
X0187672Y0051707D03*
X0189342Y0051707D03*
X0189342Y0051374D03*
X0189342Y0050707D03*
X0189342Y0050374D03*
X0189342Y0052374D03*
X0189342Y0052707D03*
X0189672Y0053374D03*
X0189672Y0053707D03*
X0190342Y0053707D03*
X0190342Y0053374D03*
X0190672Y0052707D03*
X0191342Y0051374D03*
X0191672Y0050707D03*
X0192342Y0051707D03*
X0192672Y0052374D03*
X0192672Y0052707D03*
X0193672Y0053374D03*
X0193672Y0053707D03*
X0193672Y0054707D03*
X0189672Y0054707D03*
X0178672Y0037707D03*
X0167672Y0037707D03*
X0152342Y0042374D03*
X0153342Y0045707D03*
X0147342Y0050374D03*
X0147342Y0050707D03*
X0147342Y0051374D03*
X0147342Y0051707D03*
X0147342Y0052374D03*
X0147342Y0052707D03*
X0147342Y0053374D03*
X0147342Y0054374D03*
X0147342Y0054707D03*
X0145672Y0052707D03*
X0145672Y0052374D03*
X0145672Y0051707D03*
X0145672Y0051374D03*
X0145672Y0050707D03*
X0145672Y0050374D03*
X0143342Y0050374D03*
X0143342Y0050707D03*
X0143342Y0051374D03*
X0143342Y0051707D03*
X0143342Y0052374D03*
X0143342Y0052707D03*
X0140342Y0052707D03*
X0140342Y0052374D03*
X0140342Y0051707D03*
X0140342Y0051374D03*
X0140342Y0053374D03*
X0135672Y0052374D03*
X0135342Y0052707D03*
X0135672Y0051374D03*
X0135342Y0050707D03*
X0132672Y0052374D03*
X0131342Y0052374D03*
X0131342Y0052707D03*
X0131342Y0051707D03*
X0131342Y0051374D03*
X0131342Y0050707D03*
X0131342Y0050374D03*
X0128672Y0050374D03*
X0128672Y0050707D03*
X0128672Y0051374D03*
X0128672Y0051707D03*
X0128672Y0052374D03*
X0128672Y0052707D03*
X0126342Y0052707D03*
X0126342Y0052374D03*
X0126342Y0051707D03*
X0126342Y0051374D03*
X0126342Y0050707D03*
X0126342Y0050374D03*
X0122672Y0050707D03*
X0122342Y0050374D03*
X0122672Y0051374D03*
X0122342Y0051707D03*
X0120342Y0051707D03*
X0120342Y0051374D03*
X0120342Y0050707D03*
X0120342Y0050374D03*
X0118672Y0050374D03*
X0118672Y0050707D03*
X0118672Y0051374D03*
X0118672Y0051707D03*
X0118672Y0052374D03*
X0118672Y0052707D03*
X0120342Y0052707D03*
X0120342Y0052374D03*
X0116342Y0052374D03*
X0116342Y0052707D03*
X0116342Y0051707D03*
X0116342Y0051374D03*
X0116342Y0050707D03*
X0116342Y0050374D03*
X0114342Y0051374D03*
X0114342Y0051707D03*
X0114672Y0052374D03*
X0114672Y0052707D03*
X0112672Y0052707D03*
X0112672Y0052374D03*
X0112342Y0053374D03*
X0113342Y0050707D03*
X0113342Y0050374D03*
X0113672Y0049707D03*
X0109342Y0050374D03*
X0109342Y0050707D03*
X0109342Y0051374D03*
X0109342Y0051707D03*
X0109342Y0052374D03*
X0109342Y0052707D03*
X0109342Y0053374D03*
X0109342Y0053707D03*
X0109342Y0054374D03*
X0109342Y0054707D03*
X0106672Y0052374D03*
X0106672Y0051707D03*
X0106672Y0051374D03*
X0107342Y0050374D03*
X0104672Y0050374D03*
X0104672Y0050707D03*
X0104342Y0049707D03*
X0104672Y0049374D03*
X0103672Y0051374D03*
X0103672Y0051707D03*
X0103342Y0052374D03*
X0103342Y0052707D03*
X0105342Y0052707D03*
X0105342Y0052374D03*
X0105672Y0053374D03*
X0114672Y0071374D03*
X0114672Y0071707D03*
X0133672Y0045374D03*
X0137342Y0042707D03*
X0137342Y0042374D03*
X0137342Y0040707D03*
X0136342Y0040707D03*
X0135672Y0040374D03*
X0136342Y0039374D03*
X0137342Y0039374D03*
X0142672Y0041707D03*
X0142672Y0042374D03*
X0144672Y0043374D03*
X0145342Y0044707D03*
X0144672Y0038707D03*
X0144672Y0038374D03*
X0145672Y0033707D03*
X0145672Y0033374D03*
X0145672Y0032707D03*
X0085342Y0077374D03*
X0076672Y0047374D03*
X0072342Y0044374D03*
X0062672Y0038707D03*
X0051342Y0049707D03*
X0052342Y0050707D03*
X0053342Y0051707D03*
X0049342Y0048707D03*
X0049342Y0048374D03*
X0049342Y0047374D03*
X0049342Y0046707D03*
X0049342Y0046374D03*
X0049342Y0045707D03*
X0049342Y0045374D03*
X0048342Y0046374D03*
X0048672Y0046707D03*
X0047672Y0045707D03*
X0047342Y0045374D03*
X0046672Y0044707D03*
X0045672Y0043707D03*
X0045342Y0043374D03*
X0047672Y0043707D03*
X0045672Y0045707D03*
X0043672Y0045707D03*
X0043672Y0045374D03*
X0043672Y0046374D03*
X0043672Y0046707D03*
X0043672Y0047707D03*
X0042672Y0047707D03*
X0042672Y0048707D03*
X0041672Y0049707D03*
X0040672Y0050707D03*
X0039672Y0051707D03*
X0042672Y0040374D03*
X0043342Y0040374D03*
X0041672Y0039374D03*
X0040672Y0038374D03*
X0035342Y0036707D03*
X0035342Y0036374D03*
X0033342Y0036374D03*
X0033342Y0036707D03*
X0033342Y0035374D03*
X0033342Y0034707D03*
X0033342Y0034374D03*
X0033342Y0033707D03*
X0033342Y0033374D03*
X0033342Y0032707D03*
X0033342Y0032374D03*
X0031342Y0032707D03*
X0030342Y0032707D03*
X0029342Y0032707D03*
X0029342Y0032374D03*
X0029342Y0033374D03*
X0029342Y0033707D03*
X0030342Y0033707D03*
X0029672Y0035707D03*
X0029672Y0036374D03*
X0029672Y0036707D03*
X0030342Y0036707D03*
X0031342Y0036707D03*
X0028342Y0036707D03*
X0028342Y0036374D03*
X0028342Y0035707D03*
X0026672Y0036707D03*
X0023672Y0036707D03*
X0023672Y0036374D03*
X0021672Y0036374D03*
X0021672Y0036707D03*
X0019672Y0036707D03*
X0019672Y0036374D03*
X0016672Y0036707D03*
X0021342Y0033707D03*
X0021342Y0033374D03*
X0021342Y0032707D03*
X0021342Y0032374D03*
X0022342Y0032707D03*
X0022342Y0033707D03*
X0023342Y0032707D03*
X0024342Y0033374D03*
X0024672Y0032707D03*
X0024672Y0032374D03*
X0025672Y0032374D03*
X0025672Y0032707D03*
X0023672Y0039707D03*
X0028342Y0039707D03*
X0048672Y0040374D03*
X0048672Y0040707D03*
X0049672Y0041707D03*
X0041342Y0068374D03*
X0041342Y0068707D03*
X0040342Y0069374D03*
X0040342Y0069707D03*
X0039342Y0068707D03*
X0039342Y0068374D03*
X0047672Y0077374D03*
D13*
X0047172Y0076374D03*
X0045842Y0078374D03*
X0044842Y0079374D03*
X0047172Y0079374D03*
X0052842Y0078707D03*
X0052842Y0076707D03*
X0054842Y0076707D03*
X0054842Y0077374D03*
X0058842Y0070374D03*
X0058842Y0068374D03*
X0060172Y0067707D03*
X0061172Y0068707D03*
X0061172Y0069374D03*
X0061172Y0069707D03*
X0066842Y0070374D03*
X0066842Y0068374D03*
X0069172Y0068707D03*
X0069172Y0069374D03*
X0069172Y0069707D03*
X0071172Y0070707D03*
X0073172Y0070374D03*
X0075172Y0070374D03*
X0075172Y0070707D03*
X0077172Y0070374D03*
X0077172Y0069707D03*
X0077172Y0069374D03*
X0077172Y0068707D03*
X0077172Y0068374D03*
X0077172Y0067707D03*
X0079172Y0067707D03*
X0079172Y0068374D03*
X0079172Y0068707D03*
X0079172Y0069374D03*
X0079172Y0069707D03*
X0081172Y0069707D03*
X0083172Y0068374D03*
X0084842Y0076374D03*
X0084842Y0079374D03*
X0080172Y0079374D03*
X0080172Y0077707D03*
X0075842Y0077374D03*
X0075842Y0076707D03*
X0073842Y0076707D03*
X0073842Y0076374D03*
X0073842Y0077374D03*
X0073842Y0077707D03*
X0073842Y0078374D03*
X0073842Y0078707D03*
X0069172Y0078374D03*
X0069172Y0077707D03*
X0069172Y0077374D03*
X0068172Y0079374D03*
X0066842Y0078707D03*
X0064842Y0076374D03*
X0075172Y0068374D03*
X0073172Y0045374D03*
X0075842Y0041707D03*
X0075842Y0041374D03*
X0076172Y0040707D03*
X0076172Y0038707D03*
X0075842Y0037374D03*
X0076842Y0036374D03*
X0076842Y0034374D03*
X0079172Y0034707D03*
X0079172Y0036374D03*
X0079172Y0037374D03*
X0079172Y0037707D03*
X0079172Y0038374D03*
X0079172Y0038707D03*
X0079172Y0040707D03*
X0079172Y0041374D03*
X0079172Y0041707D03*
X0073842Y0039707D03*
X0073842Y0039374D03*
X0070842Y0039374D03*
X0070842Y0039707D03*
X0071172Y0036374D03*
X0068842Y0034374D03*
X0065172Y0035374D03*
X0065172Y0035707D03*
X0065172Y0037374D03*
X0065172Y0037707D03*
X0065172Y0038374D03*
X0065172Y0038707D03*
X0065172Y0039374D03*
X0065172Y0039707D03*
X0065172Y0041374D03*
X0065172Y0041707D03*
X0065172Y0042374D03*
X0065172Y0042707D03*
X0065172Y0043374D03*
X0062842Y0041707D03*
X0059842Y0039374D03*
X0059842Y0038707D03*
X0044172Y0041374D03*
X0043172Y0048374D03*
X0043172Y0049707D03*
X0032842Y0035707D03*
X0030842Y0035707D03*
X0030842Y0036374D03*
X0030842Y0032374D03*
X0026172Y0035707D03*
X0026172Y0036374D03*
X0022842Y0032374D03*
X0017172Y0035707D03*
X0026842Y0068374D03*
X0026842Y0070374D03*
X0029172Y0069707D03*
X0029172Y0069374D03*
X0029172Y0068707D03*
X0033842Y0068374D03*
X0033842Y0070374D03*
X0033842Y0070707D03*
X0035842Y0070374D03*
X0035842Y0068374D03*
X0039172Y0070707D03*
X0041172Y0070374D03*
X0030842Y0079374D03*
X0067172Y0144374D03*
X0067172Y0147707D03*
X0069842Y0149374D03*
X0072842Y0144374D03*
X0082172Y0144374D03*
X0091842Y0144374D03*
X0091842Y0147707D03*
X0104172Y0147707D03*
X0120172Y0144374D03*
X0128842Y0138707D03*
X0150842Y0138707D03*
X0156842Y0138707D03*
X0157172Y0144374D03*
X0157172Y0147707D03*
X0163172Y0144374D03*
X0164172Y0138707D03*
X0168172Y0138707D03*
X0179172Y0139374D03*
X0181842Y0138707D03*
X0183842Y0147707D03*
X0137172Y0185707D03*
X0137172Y0186374D03*
X0137172Y0186707D03*
X0049172Y0164707D03*
X0033172Y0164707D03*
X0018842Y0161374D03*
X0100842Y0075374D03*
X0108842Y0070707D03*
X0110842Y0070374D03*
X0112842Y0070374D03*
X0112172Y0068374D03*
X0111842Y0067707D03*
X0113842Y0076707D03*
X0113842Y0077374D03*
X0131172Y0070707D03*
X0131172Y0070374D03*
X0131172Y0068374D03*
X0133172Y0068374D03*
X0133172Y0070374D03*
X0139842Y0069374D03*
X0141842Y0069374D03*
X0141842Y0069707D03*
X0141842Y0070374D03*
X0141842Y0070707D03*
X0141842Y0068707D03*
X0141172Y0076707D03*
X0141172Y0078707D03*
X0150842Y0078374D03*
X0152172Y0079374D03*
X0154172Y0078707D03*
X0154172Y0078374D03*
X0154172Y0077707D03*
X0154172Y0077374D03*
X0154172Y0076707D03*
X0154172Y0076374D03*
X0152172Y0076374D03*
X0156172Y0076374D03*
X0156172Y0076707D03*
X0156172Y0077374D03*
X0156172Y0077707D03*
X0156172Y0078374D03*
X0158172Y0078374D03*
X0158172Y0078707D03*
X0158172Y0077707D03*
X0158172Y0077374D03*
X0158172Y0076707D03*
X0158172Y0076374D03*
X0160172Y0076707D03*
X0160172Y0077374D03*
X0161842Y0077707D03*
X0161842Y0076374D03*
X0163842Y0076374D03*
X0163842Y0076707D03*
X0163842Y0077374D03*
X0163842Y0077707D03*
X0163842Y0078374D03*
X0161842Y0070707D03*
X0163842Y0070374D03*
X0165842Y0070374D03*
X0165842Y0068374D03*
X0167842Y0068374D03*
X0167842Y0068707D03*
X0167842Y0069374D03*
X0167842Y0069707D03*
X0167842Y0067707D03*
X0155842Y0053374D03*
X0151842Y0053374D03*
X0149842Y0043374D03*
X0157842Y0043707D03*
X0136842Y0038707D03*
X0136842Y0037707D03*
X0136842Y0037374D03*
X0134172Y0053374D03*
X0108172Y0053374D03*
D14*
X0112507Y0069374D03*
X0105507Y0070374D03*
X0104507Y0076374D03*
X0104507Y0076707D03*
X0104507Y0077374D03*
X0104507Y0077707D03*
X0104507Y0078374D03*
X0106507Y0078374D03*
X0106507Y0078707D03*
X0106507Y0079374D03*
X0106507Y0077707D03*
X0106507Y0077374D03*
X0106507Y0076707D03*
X0106507Y0076374D03*
X0108507Y0078374D03*
X0108507Y0078707D03*
X0102507Y0078707D03*
X0100507Y0078707D03*
X0100507Y0076707D03*
X0102507Y0076707D03*
X0102507Y0076374D03*
X0100507Y0070707D03*
X0098507Y0070374D03*
X0096507Y0070374D03*
X0096507Y0070707D03*
X0094507Y0069707D03*
X0094507Y0069374D03*
X0094507Y0068707D03*
X0094507Y0068374D03*
X0094507Y0067707D03*
X0092507Y0067707D03*
X0092507Y0068374D03*
X0092507Y0068707D03*
X0092507Y0069374D03*
X0092507Y0069707D03*
X0090507Y0070374D03*
X0088507Y0070374D03*
X0090507Y0068374D03*
X0096507Y0068374D03*
X0098507Y0068374D03*
X0092507Y0076707D03*
X0090507Y0076707D03*
X0090507Y0078707D03*
X0083507Y0078374D03*
X0058507Y0078707D03*
X0058507Y0076707D03*
X0056507Y0076374D03*
X0050507Y0069707D03*
X0050507Y0069374D03*
X0050507Y0068707D03*
X0050507Y0068374D03*
X0050507Y0067707D03*
X0048507Y0068374D03*
X0048507Y0070374D03*
X0046507Y0070374D03*
X0045507Y0076707D03*
X0045507Y0078707D03*
X0043507Y0078707D03*
X0041507Y0076374D03*
X0029507Y0076707D03*
X0027507Y0076707D03*
X0027507Y0076374D03*
X0027507Y0078707D03*
X0029507Y0078707D03*
X0048507Y0050374D03*
X0030507Y0039374D03*
X0027507Y0032374D03*
X0021507Y0039374D03*
X0019507Y0033374D03*
X0068507Y0037374D03*
X0068507Y0037707D03*
X0068507Y0038374D03*
X0068507Y0038707D03*
X0068507Y0039374D03*
X0068507Y0039707D03*
X0068507Y0041374D03*
X0068507Y0041707D03*
X0068507Y0042374D03*
X0068507Y0042707D03*
X0068507Y0043374D03*
X0073507Y0045707D03*
X0115507Y0076374D03*
X0115507Y0077707D03*
X0117507Y0077707D03*
X0117507Y0077374D03*
X0117507Y0076707D03*
X0117507Y0076374D03*
X0117507Y0078374D03*
X0119507Y0078374D03*
X0119507Y0077707D03*
X0119507Y0077374D03*
X0119507Y0076707D03*
X0119507Y0076374D03*
X0121507Y0076374D03*
X0121507Y0076707D03*
X0121507Y0077374D03*
X0121507Y0077707D03*
X0121507Y0078374D03*
X0121507Y0078707D03*
X0123507Y0077374D03*
X0123507Y0076707D03*
X0122507Y0070374D03*
X0120507Y0070374D03*
X0120507Y0068374D03*
X0122507Y0068374D03*
X0124507Y0068374D03*
X0124507Y0068707D03*
X0124507Y0069374D03*
X0124507Y0069707D03*
X0124507Y0067707D03*
X0126507Y0067707D03*
X0126507Y0068374D03*
X0126507Y0068707D03*
X0126507Y0069374D03*
X0126507Y0069707D03*
X0126507Y0070374D03*
X0126507Y0070707D03*
X0129507Y0076374D03*
X0129507Y0076707D03*
X0129507Y0077374D03*
X0129507Y0077707D03*
X0129507Y0078374D03*
X0129507Y0078707D03*
X0131507Y0078707D03*
X0131507Y0078374D03*
X0131507Y0077707D03*
X0131507Y0077374D03*
X0131507Y0079374D03*
X0133507Y0078707D03*
X0133507Y0076707D03*
X0135507Y0076707D03*
X0135507Y0078707D03*
X0147507Y0070374D03*
X0147507Y0068374D03*
X0149507Y0068374D03*
X0149507Y0070374D03*
X0151507Y0069707D03*
X0151507Y0069374D03*
X0151507Y0068707D03*
X0151507Y0068374D03*
X0151507Y0067707D03*
X0153507Y0067707D03*
X0153507Y0068374D03*
X0153507Y0068707D03*
X0153507Y0069374D03*
X0153507Y0069707D03*
X0153507Y0070374D03*
X0153507Y0070707D03*
X0155507Y0070707D03*
X0155507Y0070374D03*
X0155507Y0068374D03*
X0157507Y0068374D03*
X0157507Y0070374D03*
X0168507Y0053374D03*
X0161507Y0042374D03*
X0151507Y0044374D03*
X0145507Y0036374D03*
X0182507Y0069707D03*
X0182507Y0070374D03*
X0182507Y0070707D03*
X0182507Y0079374D03*
X0182507Y0079707D03*
X0182507Y0080374D03*
X0161507Y0139374D03*
X0166507Y0147707D03*
X0145507Y0147707D03*
X0139507Y0139374D03*
X0125507Y0144374D03*
X0096507Y0144374D03*
X0084507Y0182707D03*
X0084507Y0183374D03*
X0084507Y0183707D03*
D15*
X0057007Y0162707D03*
X0057007Y0162374D03*
X0055007Y0164374D03*
X0053007Y0164374D03*
X0053007Y0163707D03*
X0053007Y0163374D03*
X0053007Y0162707D03*
X0053007Y0162374D03*
X0053007Y0161707D03*
X0053007Y0161374D03*
X0050007Y0161707D03*
X0048007Y0161707D03*
X0048007Y0162374D03*
X0048007Y0162707D03*
X0048007Y0163374D03*
X0048007Y0163707D03*
X0048007Y0164707D03*
X0048007Y0165374D03*
X0048007Y0165707D03*
X0048007Y0166374D03*
X0050007Y0164374D03*
X0046007Y0163374D03*
X0046007Y0162707D03*
X0045007Y0162707D03*
X0045007Y0162374D03*
X0044007Y0163374D03*
X0044007Y0163707D03*
X0043007Y0162374D03*
X0041007Y0162374D03*
X0041007Y0162707D03*
X0042007Y0164374D03*
X0042007Y0164707D03*
X0039007Y0164374D03*
X0037007Y0164374D03*
X0037007Y0163707D03*
X0037007Y0163374D03*
X0037007Y0162707D03*
X0037007Y0162374D03*
X0037007Y0161707D03*
X0037007Y0161374D03*
X0034007Y0161707D03*
X0032007Y0161707D03*
X0034007Y0164374D03*
X0029007Y0164374D03*
X0029007Y0164707D03*
X0027007Y0162707D03*
X0027007Y0162374D03*
X0028007Y0161707D03*
X0020007Y0162374D03*
X0018007Y0161707D03*
X0018007Y0165707D03*
X0020007Y0165374D03*
X0057007Y0146707D03*
X0057007Y0146374D03*
X0057007Y0145707D03*
X0057007Y0145374D03*
X0057007Y0144707D03*
X0057007Y0144374D03*
X0068007Y0144707D03*
X0071007Y0144707D03*
X0071007Y0144374D03*
X0071007Y0145374D03*
X0071007Y0145707D03*
X0071007Y0146374D03*
X0071007Y0146707D03*
X0071007Y0147374D03*
X0071007Y0148374D03*
X0071007Y0148707D03*
X0068007Y0147374D03*
X0087007Y0147374D03*
X0089007Y0147374D03*
X0089007Y0146707D03*
X0089007Y0146374D03*
X0089007Y0145707D03*
X0089007Y0145374D03*
X0089007Y0144707D03*
X0089007Y0144374D03*
X0091007Y0144707D03*
X0091007Y0147374D03*
X0099007Y0146707D03*
X0099007Y0146374D03*
X0099007Y0145707D03*
X0099007Y0145374D03*
X0099007Y0144707D03*
X0099007Y0144374D03*
X0103007Y0144707D03*
X0105007Y0144707D03*
X0107007Y0146374D03*
X0107007Y0146707D03*
X0109007Y0146707D03*
X0109007Y0146374D03*
X0108007Y0144374D03*
X0105007Y0147374D03*
X0111007Y0147374D03*
X0113007Y0147374D03*
X0113007Y0146707D03*
X0113007Y0146374D03*
X0113007Y0145707D03*
X0113007Y0145374D03*
X0113007Y0144707D03*
X0113007Y0144374D03*
X0118007Y0144707D03*
X0119007Y0145707D03*
X0118007Y0146374D03*
X0119007Y0147707D03*
X0119007Y0148374D03*
X0121007Y0144707D03*
X0127007Y0145374D03*
X0127007Y0145707D03*
X0127007Y0146374D03*
X0127007Y0146707D03*
X0134007Y0146707D03*
X0134007Y0146374D03*
X0134007Y0145707D03*
X0134007Y0145374D03*
X0134007Y0144707D03*
X0134007Y0144374D03*
X0139007Y0144374D03*
X0139007Y0144707D03*
X0139007Y0145374D03*
X0139007Y0145707D03*
X0139007Y0146374D03*
X0139007Y0146707D03*
X0139007Y0147374D03*
X0141007Y0147374D03*
X0143007Y0145707D03*
X0143007Y0145374D03*
X0144007Y0146374D03*
X0144007Y0146707D03*
X0147007Y0146707D03*
X0147007Y0146374D03*
X0147007Y0145707D03*
X0147007Y0145374D03*
X0152007Y0145374D03*
X0152007Y0145707D03*
X0152007Y0146374D03*
X0152007Y0146707D03*
X0152007Y0144707D03*
X0152007Y0144374D03*
X0158007Y0144707D03*
X0162007Y0145374D03*
X0164007Y0144707D03*
X0164007Y0146707D03*
X0168007Y0146707D03*
X0168007Y0146374D03*
X0168007Y0145707D03*
X0168007Y0145374D03*
X0164007Y0136707D03*
X0158007Y0147374D03*
X0177007Y0146707D03*
X0177007Y0146374D03*
X0177007Y0145707D03*
X0177007Y0145374D03*
X0177007Y0144707D03*
X0177007Y0144374D03*
X0183007Y0147374D03*
X0187007Y0147374D03*
X0189007Y0147374D03*
X0189007Y0146707D03*
X0189007Y0146374D03*
X0189007Y0145707D03*
X0189007Y0145374D03*
X0189007Y0144707D03*
X0189007Y0144374D03*
X0192007Y0144374D03*
X0192007Y0144707D03*
X0192007Y0145374D03*
X0192007Y0145707D03*
X0192007Y0146374D03*
X0192007Y0146707D03*
X0192007Y0147374D03*
X0192007Y0147707D03*
X0192007Y0148374D03*
X0192007Y0148707D03*
X0189007Y0148707D03*
X0189007Y0148374D03*
X0189007Y0149374D03*
X0110007Y0069707D03*
X0110007Y0069374D03*
X0109007Y0068707D03*
X0109007Y0068374D03*
X0111007Y0068374D03*
X0111007Y0068707D03*
X0115007Y0053374D03*
X0113007Y0051707D03*
X0113007Y0051374D03*
X0114007Y0050707D03*
X0114007Y0050374D03*
X0114007Y0049374D03*
X0107007Y0050707D03*
X0107007Y0052707D03*
X0105007Y0051707D03*
X0105007Y0051374D03*
X0104007Y0050707D03*
X0104007Y0050374D03*
X0103007Y0053374D03*
X0124007Y0052707D03*
X0124007Y0052374D03*
X0124007Y0051707D03*
X0124007Y0051374D03*
X0124007Y0050707D03*
X0124007Y0050374D03*
X0133007Y0050374D03*
X0135007Y0050374D03*
X0137007Y0050374D03*
X0137007Y0050707D03*
X0137007Y0051374D03*
X0137007Y0051707D03*
X0140007Y0050707D03*
X0140007Y0053707D03*
X0137007Y0054374D03*
X0133007Y0052707D03*
X0138007Y0037707D03*
X0143007Y0037707D03*
X0148007Y0042707D03*
X0153007Y0050707D03*
X0153007Y0052707D03*
X0157007Y0052707D03*
X0157007Y0050707D03*
X0170007Y0051374D03*
X0170007Y0051707D03*
X0170007Y0052374D03*
X0176007Y0052374D03*
X0176007Y0052707D03*
X0176007Y0051707D03*
X0176007Y0051374D03*
X0176007Y0050707D03*
X0176007Y0050374D03*
X0176007Y0053707D03*
X0176007Y0054374D03*
X0180007Y0053374D03*
X0180007Y0052707D03*
X0180007Y0052374D03*
X0180007Y0051707D03*
X0180007Y0051374D03*
X0180007Y0050707D03*
X0184007Y0050707D03*
X0184007Y0050374D03*
X0184007Y0051374D03*
X0184007Y0051707D03*
X0184007Y0052374D03*
X0184007Y0052707D03*
X0188007Y0051374D03*
X0188007Y0050707D03*
X0191007Y0051707D03*
X0191007Y0052374D03*
X0192007Y0051374D03*
X0194007Y0051374D03*
X0194007Y0051707D03*
X0194007Y0052374D03*
X0194007Y0052707D03*
X0193007Y0053374D03*
X0193007Y0053707D03*
X0194007Y0050707D03*
X0194007Y0050374D03*
X0161007Y0037707D03*
X0073007Y0042707D03*
X0053007Y0051374D03*
X0052007Y0050374D03*
X0051007Y0049374D03*
X0049007Y0044707D03*
X0049007Y0044374D03*
X0049007Y0043707D03*
X0049007Y0043374D03*
X0048007Y0043374D03*
X0049007Y0042374D03*
X0049007Y0041707D03*
X0049007Y0041374D03*
X0045007Y0040707D03*
X0044007Y0042707D03*
X0044007Y0043374D03*
X0044007Y0043707D03*
X0044007Y0044374D03*
X0044007Y0044707D03*
X0045007Y0046374D03*
X0046007Y0045374D03*
X0042007Y0049374D03*
X0041007Y0050374D03*
X0040007Y0051374D03*
X0042007Y0039707D03*
X0041007Y0038707D03*
X0034007Y0036707D03*
X0034007Y0036374D03*
X0032007Y0036374D03*
X0032007Y0033374D03*
X0032007Y0032707D03*
X0032007Y0032374D03*
X0028007Y0032707D03*
X0028007Y0033374D03*
X0028007Y0033707D03*
X0027007Y0033707D03*
X0027007Y0033374D03*
X0027007Y0032707D03*
X0026007Y0033374D03*
X0026007Y0033707D03*
X0027007Y0034374D03*
X0027007Y0034707D03*
X0025007Y0036374D03*
X0025007Y0036707D03*
X0023007Y0036707D03*
X0023007Y0036374D03*
X0021007Y0036374D03*
X0021007Y0036707D03*
X0021007Y0035707D03*
X0020007Y0033707D03*
X0019007Y0033707D03*
X0020007Y0032707D03*
X0024007Y0033707D03*
X0018007Y0036707D03*
D16*
X0046672Y0034707D03*
X0046672Y0034374D03*
X0046672Y0033707D03*
X0046672Y0033374D03*
X0046672Y0032707D03*
X0046672Y0032374D03*
D17*
X0053007Y0038041D03*
X0049007Y0043041D03*
X0049007Y0044041D03*
X0048007Y0046041D03*
X0047007Y0045041D03*
X0046007Y0044041D03*
X0045007Y0043041D03*
X0044007Y0043041D03*
X0044007Y0044041D03*
X0034007Y0036041D03*
X0032007Y0033041D03*
X0028007Y0033041D03*
X0027007Y0033041D03*
X0025007Y0034041D03*
X0024007Y0034041D03*
X0023007Y0036041D03*
X0023007Y0037041D03*
X0021007Y0036041D03*
X0018007Y0036041D03*
X0020007Y0033041D03*
X0025007Y0036041D03*
X0083007Y0076041D03*
X0103007Y0053041D03*
X0105007Y0052041D03*
X0104007Y0051041D03*
X0113007Y0052041D03*
X0114007Y0051041D03*
X0114007Y0049041D03*
X0115007Y0053041D03*
X0124007Y0052041D03*
X0124007Y0051041D03*
X0124007Y0050041D03*
X0135007Y0053041D03*
X0137007Y0052041D03*
X0137007Y0051041D03*
X0140007Y0051041D03*
X0140007Y0054041D03*
X0155007Y0053041D03*
X0154007Y0046041D03*
X0170007Y0051041D03*
X0170007Y0052041D03*
X0176007Y0052041D03*
X0176007Y0053041D03*
X0176007Y0054041D03*
X0176007Y0051041D03*
X0176007Y0050041D03*
X0180007Y0051041D03*
X0180007Y0052041D03*
X0180007Y0053041D03*
X0182007Y0053041D03*
X0184007Y0053041D03*
X0184007Y0052041D03*
X0184007Y0051041D03*
X0184007Y0050041D03*
X0186007Y0053041D03*
X0188007Y0051041D03*
X0191007Y0052041D03*
X0192007Y0051041D03*
X0194007Y0051041D03*
X0194007Y0052041D03*
X0194007Y0050041D03*
X0111007Y0069041D03*
X0110007Y0070041D03*
X0109007Y0069041D03*
X0113007Y0145041D03*
X0113007Y0146041D03*
X0113007Y0147041D03*
X0109007Y0147041D03*
X0107007Y0147041D03*
X0103007Y0147041D03*
X0099007Y0147041D03*
X0099007Y0146041D03*
X0099007Y0145041D03*
X0093007Y0145041D03*
X0093007Y0147041D03*
X0089007Y0147041D03*
X0089007Y0146041D03*
X0089007Y0145041D03*
X0081007Y0145041D03*
X0081007Y0147041D03*
X0071007Y0147041D03*
X0071007Y0148041D03*
X0071007Y0146041D03*
X0071007Y0145041D03*
X0066007Y0145041D03*
X0066007Y0147041D03*
X0057007Y0147041D03*
X0057007Y0146041D03*
X0057007Y0145041D03*
X0057007Y0162041D03*
X0053007Y0162041D03*
X0053007Y0163041D03*
X0053007Y0164041D03*
X0048007Y0164041D03*
X0048007Y0165041D03*
X0048007Y0166041D03*
X0048007Y0163041D03*
X0048007Y0162041D03*
X0046007Y0163041D03*
X0045007Y0162041D03*
X0044007Y0163041D03*
X0043007Y0162041D03*
X0041007Y0162041D03*
X0037007Y0162041D03*
X0037007Y0163041D03*
X0037007Y0164041D03*
X0032007Y0164041D03*
X0028007Y0162041D03*
X0027007Y0163041D03*
X0020007Y0162041D03*
X0020007Y0165041D03*
X0118007Y0146041D03*
X0119007Y0148041D03*
X0121007Y0146041D03*
X0127007Y0146041D03*
X0134007Y0146041D03*
X0134007Y0147041D03*
X0134007Y0145041D03*
X0139007Y0145041D03*
X0139007Y0146041D03*
X0139007Y0147041D03*
X0143007Y0145041D03*
X0152007Y0145041D03*
X0152007Y0146041D03*
X0152007Y0147041D03*
X0156007Y0147041D03*
X0156007Y0145041D03*
X0162007Y0145041D03*
X0164007Y0147041D03*
X0168007Y0146041D03*
X0177007Y0146041D03*
X0177007Y0147041D03*
X0177007Y0145041D03*
X0185007Y0145041D03*
X0185007Y0147041D03*
X0189007Y0147041D03*
X0189007Y0148041D03*
X0189007Y0149041D03*
X0189007Y0146041D03*
X0189007Y0145041D03*
X0192007Y0145041D03*
X0192007Y0146041D03*
X0192007Y0147041D03*
X0192007Y0148041D03*
D18*
X0186672Y0147041D03*
X0186672Y0146041D03*
X0186672Y0145041D03*
X0182672Y0147041D03*
X0179342Y0147041D03*
X0179342Y0148041D03*
X0179342Y0149041D03*
X0179342Y0146041D03*
X0179342Y0145041D03*
X0175672Y0145041D03*
X0175342Y0146041D03*
X0173342Y0146041D03*
X0173342Y0147041D03*
X0171672Y0147041D03*
X0171672Y0146041D03*
X0171672Y0145041D03*
X0173342Y0145041D03*
X0169342Y0145041D03*
X0169342Y0146041D03*
X0169342Y0147041D03*
X0167672Y0147041D03*
X0167672Y0145041D03*
X0165342Y0145041D03*
X0165342Y0146041D03*
X0165342Y0147041D03*
X0165342Y0148041D03*
X0165342Y0149041D03*
X0158342Y0147041D03*
X0158672Y0146041D03*
X0158342Y0145041D03*
X0155672Y0146041D03*
X0154342Y0146041D03*
X0154342Y0147041D03*
X0154342Y0145041D03*
X0148672Y0145041D03*
X0148672Y0146041D03*
X0148672Y0147041D03*
X0148672Y0148041D03*
X0148672Y0149041D03*
X0146672Y0147041D03*
X0146672Y0145041D03*
X0144342Y0147041D03*
X0142672Y0146041D03*
X0140672Y0146041D03*
X0140672Y0147041D03*
X0140672Y0145041D03*
X0136342Y0145041D03*
X0136342Y0146041D03*
X0136342Y0147041D03*
X0132342Y0147041D03*
X0132342Y0146041D03*
X0132342Y0145041D03*
X0130672Y0145041D03*
X0130672Y0146041D03*
X0130672Y0147041D03*
X0132342Y0149041D03*
X0128342Y0147041D03*
X0128342Y0146041D03*
X0128342Y0145041D03*
X0126672Y0145041D03*
X0126672Y0147041D03*
X0124342Y0147041D03*
X0124342Y0146041D03*
X0124342Y0145041D03*
X0124342Y0144041D03*
X0121342Y0145041D03*
X0120342Y0147041D03*
X0119672Y0147041D03*
X0119342Y0146041D03*
X0120672Y0148041D03*
X0114672Y0149041D03*
X0114672Y0147041D03*
X0114672Y0146041D03*
X0114672Y0145041D03*
X0110672Y0145041D03*
X0110672Y0146041D03*
X0110672Y0147041D03*
X0108672Y0146041D03*
X0108342Y0145041D03*
X0107672Y0145041D03*
X0107342Y0146041D03*
X0105342Y0147041D03*
X0105342Y0145041D03*
X0101342Y0145041D03*
X0101342Y0146041D03*
X0101342Y0147041D03*
X0097342Y0147041D03*
X0097342Y0148041D03*
X0097342Y0146041D03*
X0097342Y0145041D03*
X0094672Y0145041D03*
X0094672Y0146041D03*
X0094672Y0147041D03*
X0093342Y0146041D03*
X0090672Y0147041D03*
X0090342Y0146041D03*
X0090672Y0145041D03*
X0094672Y0149041D03*
X0086672Y0147041D03*
X0086672Y0146041D03*
X0086672Y0145041D03*
X0083342Y0145041D03*
X0083342Y0146041D03*
X0083342Y0147041D03*
X0080672Y0146041D03*
X0079342Y0146041D03*
X0079342Y0147041D03*
X0079342Y0148041D03*
X0079342Y0149041D03*
X0077342Y0146041D03*
X0077672Y0145041D03*
X0079342Y0145041D03*
X0075342Y0145041D03*
X0075342Y0146041D03*
X0075342Y0147041D03*
X0073672Y0147041D03*
X0073672Y0148041D03*
X0073672Y0146041D03*
X0073672Y0145041D03*
X0070672Y0149041D03*
X0068342Y0147041D03*
X0068672Y0146041D03*
X0068342Y0145041D03*
X0065672Y0146041D03*
X0064342Y0146041D03*
X0064342Y0147041D03*
X0064342Y0145041D03*
X0061672Y0145041D03*
X0061672Y0146041D03*
X0061672Y0147041D03*
X0059342Y0147041D03*
X0059342Y0146041D03*
X0059342Y0145041D03*
X0058342Y0162041D03*
X0058342Y0163041D03*
X0058342Y0164041D03*
X0058342Y0165041D03*
X0058342Y0166041D03*
X0056672Y0163041D03*
X0054672Y0163041D03*
X0054672Y0164041D03*
X0054672Y0162041D03*
X0050672Y0163041D03*
X0050342Y0164041D03*
X0050342Y0162041D03*
X0046342Y0164041D03*
X0044672Y0163041D03*
X0044342Y0164041D03*
X0042672Y0163041D03*
X0042342Y0164041D03*
X0040672Y0163041D03*
X0038672Y0163041D03*
X0038672Y0164041D03*
X0038672Y0162041D03*
X0034342Y0162041D03*
X0034342Y0164041D03*
X0028672Y0164041D03*
X0028342Y0163041D03*
X0027342Y0162041D03*
X0026672Y0164041D03*
X0024672Y0165041D03*
X0023672Y0165041D03*
X0023672Y0166041D03*
X0023672Y0164041D03*
X0023672Y0163041D03*
X0023672Y0162041D03*
X0020342Y0163041D03*
X0020342Y0164041D03*
X0017672Y0165041D03*
X0017342Y0164041D03*
X0017342Y0163041D03*
X0017672Y0162041D03*
X0043672Y0162041D03*
X0045672Y0162041D03*
X0061672Y0162041D03*
X0061672Y0163041D03*
X0061672Y0164041D03*
X0061672Y0165041D03*
X0061672Y0166041D03*
X0083342Y0144041D03*
X0083342Y0143041D03*
X0085342Y0078041D03*
X0095342Y0078041D03*
X0095342Y0079041D03*
X0114672Y0071041D03*
X0109342Y0055041D03*
X0109342Y0054041D03*
X0109342Y0052041D03*
X0109342Y0051041D03*
X0106672Y0051041D03*
X0106672Y0052041D03*
X0107342Y0053041D03*
X0105672Y0053041D03*
X0103672Y0052041D03*
X0104672Y0051041D03*
X0104342Y0050041D03*
X0104672Y0049041D03*
X0112342Y0053041D03*
X0113342Y0051041D03*
X0113672Y0050041D03*
X0114342Y0052041D03*
X0116342Y0052041D03*
X0116342Y0051041D03*
X0116342Y0050041D03*
X0118672Y0050041D03*
X0118672Y0051041D03*
X0118672Y0052041D03*
X0118672Y0053041D03*
X0116672Y0053041D03*
X0120672Y0053041D03*
X0120342Y0051041D03*
X0122672Y0051041D03*
X0124342Y0053041D03*
X0126342Y0052041D03*
X0126342Y0051041D03*
X0126342Y0050041D03*
X0128672Y0050041D03*
X0128672Y0051041D03*
X0128672Y0052041D03*
X0128672Y0053041D03*
X0131342Y0053041D03*
X0131342Y0052041D03*
X0131342Y0051041D03*
X0131342Y0050041D03*
X0132672Y0052041D03*
X0133342Y0053041D03*
X0135672Y0052041D03*
X0135672Y0051041D03*
X0140342Y0052041D03*
X0140342Y0053041D03*
X0143342Y0052041D03*
X0143342Y0051041D03*
X0143342Y0050041D03*
X0145672Y0050041D03*
X0145672Y0051041D03*
X0145672Y0052041D03*
X0145672Y0053041D03*
X0147342Y0053041D03*
X0147342Y0052041D03*
X0147342Y0051041D03*
X0147342Y0050041D03*
X0143672Y0053041D03*
X0150672Y0054041D03*
X0150672Y0055041D03*
X0152672Y0053041D03*
X0153342Y0052041D03*
X0153342Y0051041D03*
X0154342Y0052041D03*
X0156672Y0053041D03*
X0157342Y0052041D03*
X0157342Y0051041D03*
X0159672Y0051041D03*
X0159672Y0052041D03*
X0159672Y0053041D03*
X0161342Y0053041D03*
X0161342Y0052041D03*
X0161342Y0051041D03*
X0159672Y0050041D03*
X0163672Y0051041D03*
X0163672Y0052041D03*
X0163672Y0053041D03*
X0166342Y0053041D03*
X0166342Y0054041D03*
X0167672Y0053041D03*
X0166342Y0052041D03*
X0166342Y0051041D03*
X0169342Y0053041D03*
X0171672Y0053041D03*
X0171342Y0051041D03*
X0173672Y0051041D03*
X0177672Y0051041D03*
X0177672Y0052041D03*
X0177672Y0053041D03*
X0181672Y0052041D03*
X0181672Y0051041D03*
X0181672Y0050041D03*
X0185672Y0051041D03*
X0189342Y0051041D03*
X0189342Y0052041D03*
X0189672Y0053041D03*
X0190672Y0053041D03*
X0192342Y0052041D03*
X0192672Y0053041D03*
X0193672Y0053041D03*
X0191342Y0051041D03*
X0189342Y0050041D03*
X0158342Y0044041D03*
X0157342Y0044041D03*
X0150672Y0051041D03*
X0150672Y0052041D03*
X0145342Y0045041D03*
X0144672Y0043041D03*
X0144672Y0039041D03*
X0144672Y0038041D03*
X0145672Y0033041D03*
X0137342Y0039041D03*
X0136342Y0039041D03*
X0150342Y0076041D03*
X0152672Y0078041D03*
X0052672Y0051041D03*
X0051672Y0050041D03*
X0050672Y0049041D03*
X0049672Y0049041D03*
X0049342Y0046041D03*
X0047342Y0044041D03*
X0046342Y0045041D03*
X0045342Y0046041D03*
X0044342Y0047041D03*
X0043672Y0047041D03*
X0043672Y0046041D03*
X0043672Y0045041D03*
X0042672Y0048041D03*
X0042342Y0049041D03*
X0043342Y0049041D03*
X0041342Y0050041D03*
X0040342Y0051041D03*
X0048342Y0043041D03*
X0042342Y0040041D03*
X0041342Y0039041D03*
X0035342Y0036041D03*
X0033342Y0036041D03*
X0033342Y0035041D03*
X0033342Y0033041D03*
X0031342Y0033041D03*
X0030342Y0033041D03*
X0029342Y0033041D03*
X0029672Y0036041D03*
X0028342Y0036041D03*
X0025672Y0036041D03*
X0023672Y0036041D03*
X0021672Y0036041D03*
X0021672Y0037041D03*
X0019672Y0036041D03*
X0021342Y0033041D03*
X0022342Y0033041D03*
X0023342Y0033041D03*
X0026342Y0034041D03*
X0031342Y0036041D03*
X0039342Y0069041D03*
X0040342Y0070041D03*
X0041342Y0069041D03*
X0038672Y0079041D03*
X0047672Y0078041D03*
D19*
X0047507Y0077041D03*
X0056507Y0077041D03*
X0060507Y0068041D03*
X0068507Y0079041D03*
X0093507Y0071041D03*
X0100507Y0069041D03*
X0103507Y0070041D03*
X0107507Y0070041D03*
X0126507Y0053041D03*
X0134507Y0045041D03*
X0152507Y0077041D03*
X0150507Y0079041D03*
X0193507Y0054041D03*
X0118507Y0145041D03*
X0043507Y0048041D03*
X0043507Y0040041D03*
X0030507Y0039041D03*
X0024507Y0033041D03*
X0021507Y0039041D03*
X0070507Y0036041D03*
X0071507Y0036041D03*
X0074507Y0036041D03*
X0077507Y0035041D03*
D20*
X0079337Y0036041D03*
X0071337Y0043041D03*
X0070337Y0044041D03*
X0070677Y0046041D03*
X0073007Y0045041D03*
X0065337Y0036041D03*
X0063007Y0036041D03*
X0062007Y0035041D03*
X0049677Y0048041D03*
X0034677Y0037041D03*
X0029007Y0034041D03*
X0025677Y0033041D03*
X0024337Y0037041D03*
X0021007Y0034041D03*
X0019337Y0034041D03*
X0019007Y0037041D03*
X0017337Y0037041D03*
X0025007Y0068041D03*
X0028677Y0068041D03*
X0033677Y0069041D03*
X0033677Y0070041D03*
X0038007Y0069041D03*
X0039337Y0070041D03*
X0041337Y0070041D03*
X0048677Y0070041D03*
X0048677Y0069041D03*
X0052337Y0068041D03*
X0052337Y0071041D03*
X0049007Y0076041D03*
X0049007Y0079041D03*
X0045337Y0079041D03*
X0041337Y0078041D03*
X0053007Y0078041D03*
X0053007Y0077041D03*
X0064677Y0078041D03*
X0071007Y0070041D03*
X0068677Y0068041D03*
X0075337Y0069041D03*
X0075337Y0070041D03*
X0081007Y0069041D03*
X0086677Y0076041D03*
X0086677Y0079041D03*
X0090677Y0078041D03*
X0090677Y0077041D03*
X0090677Y0070041D03*
X0090677Y0069041D03*
X0096337Y0069041D03*
X0096337Y0070041D03*
X0100337Y0068041D03*
X0103677Y0068041D03*
X0107677Y0069041D03*
X0109007Y0070041D03*
X0111007Y0070041D03*
X0114677Y0070041D03*
X0112007Y0076041D03*
X0115677Y0077041D03*
X0108337Y0076041D03*
X0108337Y0079041D03*
X0102677Y0078041D03*
X0102677Y0077041D03*
X0122677Y0070041D03*
X0122677Y0069041D03*
X0131007Y0069041D03*
X0131007Y0070041D03*
X0133337Y0077041D03*
X0133337Y0078041D03*
X0143007Y0079041D03*
X0140007Y0070041D03*
X0140007Y0068041D03*
X0149677Y0069041D03*
X0149677Y0070041D03*
X0155337Y0070041D03*
X0155337Y0069041D03*
X0159337Y0068041D03*
X0161677Y0070041D03*
X0166007Y0070041D03*
X0166007Y0069041D03*
X0162007Y0077041D03*
X0166007Y0044041D03*
X0166007Y0043041D03*
X0164677Y0043041D03*
X0162337Y0043041D03*
X0160007Y0043041D03*
X0156337Y0043041D03*
X0152337Y0043041D03*
X0152337Y0045041D03*
X0145677Y0035041D03*
X0168337Y0043041D03*
X0185677Y0041041D03*
X0186007Y0040041D03*
X0190337Y0039041D03*
X0189677Y0137041D03*
X0189677Y0138041D03*
X0190007Y0139041D03*
X0187677Y0139041D03*
X0188337Y0137041D03*
X0187007Y0137041D03*
X0185677Y0138041D03*
X0185337Y0139041D03*
X0184007Y0137041D03*
X0178337Y0137041D03*
X0176677Y0137041D03*
X0176677Y0138041D03*
X0174007Y0138041D03*
X0174007Y0137041D03*
X0172007Y0137041D03*
X0172007Y0138041D03*
X0170007Y0138041D03*
X0170007Y0137041D03*
X0170007Y0136041D03*
X0168007Y0136041D03*
X0168007Y0137041D03*
X0168007Y0138041D03*
X0166337Y0137041D03*
X0160677Y0137041D03*
X0158677Y0137041D03*
X0158677Y0138041D03*
X0158677Y0140041D03*
X0158677Y0141041D03*
X0156677Y0138041D03*
X0156677Y0137041D03*
X0156677Y0136041D03*
X0155007Y0136041D03*
X0155007Y0137041D03*
X0155007Y0138041D03*
X0155007Y0139041D03*
X0155007Y0141041D03*
X0153007Y0137041D03*
X0149007Y0137041D03*
X0149007Y0138041D03*
X0149007Y0139041D03*
X0149007Y0140041D03*
X0149007Y0141041D03*
X0147007Y0138041D03*
X0147007Y0137041D03*
X0148337Y0136041D03*
X0144677Y0137041D03*
X0144677Y0138041D03*
X0144677Y0140041D03*
X0144677Y0141041D03*
X0140677Y0138041D03*
X0140677Y0137041D03*
X0142337Y0136041D03*
X0137337Y0137041D03*
X0137337Y0138041D03*
X0134677Y0138041D03*
X0134677Y0137041D03*
X0132677Y0137041D03*
X0132677Y0138041D03*
X0130677Y0138041D03*
X0130677Y0137041D03*
X0130677Y0136041D03*
X0128677Y0136041D03*
X0128677Y0137041D03*
X0128677Y0138041D03*
X0132677Y0136041D03*
X0158677Y0136041D03*
X0163007Y0146041D03*
X0172007Y0136041D03*
X0191337Y0137041D03*
X0193337Y0137041D03*
X0080007Y0077041D03*
X0077337Y0079041D03*
X0027337Y0078041D03*
X0027337Y0077041D03*
D21*
X0046672Y0035041D03*
X0046672Y0034041D03*
X0046672Y0033041D03*
D22*
X0044172Y0039374D03*
X0044172Y0040374D03*
X0045172Y0040374D03*
X0043842Y0041707D03*
X0044842Y0042707D03*
X0048842Y0042707D03*
X0049842Y0041374D03*
X0050842Y0040374D03*
X0051842Y0039374D03*
X0052842Y0038374D03*
X0059842Y0035707D03*
X0059842Y0035374D03*
X0059842Y0034707D03*
X0059842Y0034374D03*
X0061842Y0034374D03*
X0063172Y0034374D03*
X0063172Y0034707D03*
X0061842Y0036374D03*
X0065172Y0036374D03*
X0067172Y0036374D03*
X0067172Y0035707D03*
X0067172Y0035374D03*
X0067172Y0034707D03*
X0067172Y0034374D03*
X0065842Y0034374D03*
X0069172Y0034707D03*
X0069172Y0035374D03*
X0069172Y0035707D03*
X0069172Y0036374D03*
X0073172Y0036374D03*
X0072842Y0034707D03*
X0072842Y0034374D03*
X0073842Y0034374D03*
X0073842Y0034707D03*
X0074842Y0034707D03*
X0074842Y0034374D03*
X0076172Y0035374D03*
X0076172Y0035707D03*
X0079842Y0035707D03*
X0079842Y0035374D03*
X0072842Y0042374D03*
X0071172Y0045374D03*
X0050172Y0048374D03*
X0032172Y0036707D03*
X0032172Y0033707D03*
X0025172Y0033707D03*
X0025172Y0033374D03*
X0037842Y0069707D03*
X0039172Y0069374D03*
X0030842Y0070707D03*
X0070842Y0079374D03*
X0082842Y0079374D03*
X0085172Y0078374D03*
X0083172Y0076374D03*
X0095172Y0077707D03*
X0095172Y0079374D03*
X0107172Y0070707D03*
X0108842Y0069374D03*
X0128172Y0070707D03*
X0150172Y0079374D03*
X0152842Y0045374D03*
X0153842Y0043374D03*
X0153842Y0042707D03*
X0153842Y0042374D03*
X0154842Y0043374D03*
X0158172Y0043374D03*
X0158172Y0042707D03*
X0158172Y0042374D03*
X0160172Y0044374D03*
X0162172Y0043707D03*
X0162172Y0042707D03*
X0165842Y0042374D03*
X0167172Y0043374D03*
X0167172Y0043707D03*
X0154842Y0036707D03*
X0151172Y0042374D03*
X0151172Y0042707D03*
X0151172Y0043374D03*
X0151172Y0043707D03*
X0149842Y0042707D03*
X0136842Y0041374D03*
X0135842Y0044374D03*
X0136842Y0038374D03*
X0185842Y0040374D03*
X0190172Y0039707D03*
X0189842Y0054374D03*
X0148172Y0144374D03*
X0120172Y0146707D03*
X0119172Y0144707D03*
X0083172Y0144707D03*
X0078842Y0144374D03*
X0048172Y0164374D03*
X0023842Y0165707D03*
D23*
X0018842Y0166041D03*
X0094842Y0080041D03*
X0094842Y0077041D03*
X0084842Y0079041D03*
X0080172Y0079041D03*
X0077172Y0076041D03*
X0075842Y0077041D03*
X0073842Y0077041D03*
X0073842Y0078041D03*
X0073842Y0076041D03*
X0069172Y0077041D03*
X0069172Y0078041D03*
X0068172Y0076041D03*
X0064842Y0076041D03*
X0064842Y0079041D03*
X0060172Y0071041D03*
X0061172Y0070041D03*
X0061172Y0069041D03*
X0069172Y0069041D03*
X0069172Y0070041D03*
X0071172Y0068041D03*
X0075172Y0068041D03*
X0077172Y0068041D03*
X0077172Y0069041D03*
X0077172Y0070041D03*
X0079172Y0070041D03*
X0079172Y0069041D03*
X0079172Y0068041D03*
X0081172Y0068041D03*
X0081172Y0072041D03*
X0106842Y0071041D03*
X0109842Y0068041D03*
X0112172Y0068041D03*
X0112842Y0070041D03*
X0113172Y0071041D03*
X0113842Y0077041D03*
X0111842Y0077041D03*
X0112172Y0079041D03*
X0120842Y0067041D03*
X0131172Y0068041D03*
X0139842Y0071041D03*
X0141842Y0071041D03*
X0141842Y0070041D03*
X0141842Y0069041D03*
X0147842Y0067041D03*
X0154172Y0076041D03*
X0154172Y0077041D03*
X0154172Y0078041D03*
X0156172Y0078041D03*
X0156172Y0077041D03*
X0156172Y0076041D03*
X0158172Y0076041D03*
X0158172Y0077041D03*
X0158172Y0078041D03*
X0160172Y0077041D03*
X0163842Y0077041D03*
X0163842Y0078041D03*
X0163842Y0076041D03*
X0167842Y0070041D03*
X0167842Y0069041D03*
X0167842Y0068041D03*
X0165842Y0068041D03*
X0161842Y0068041D03*
X0152172Y0079041D03*
X0174842Y0055041D03*
X0167842Y0044041D03*
X0164172Y0044041D03*
X0159842Y0044041D03*
X0149172Y0044041D03*
X0136842Y0043041D03*
X0136842Y0042041D03*
X0136842Y0041041D03*
X0136842Y0037041D03*
X0079172Y0038041D03*
X0079172Y0039041D03*
X0079172Y0041041D03*
X0079172Y0042041D03*
X0073842Y0040041D03*
X0073842Y0039041D03*
X0070842Y0039041D03*
X0070842Y0040041D03*
X0071172Y0035041D03*
X0065172Y0035041D03*
X0065172Y0038041D03*
X0065172Y0039041D03*
X0065172Y0042041D03*
X0065172Y0043041D03*
X0059842Y0039041D03*
X0048842Y0050041D03*
X0040172Y0068041D03*
X0037172Y0071041D03*
X0033842Y0068041D03*
X0029172Y0069041D03*
X0029172Y0070041D03*
X0044842Y0076041D03*
X0045842Y0077041D03*
X0047172Y0079041D03*
X0054842Y0077041D03*
X0056172Y0078041D03*
X0032842Y0037041D03*
X0030842Y0037041D03*
X0030842Y0034041D03*
X0032842Y0034041D03*
X0026172Y0037041D03*
X0022842Y0034041D03*
X0137172Y0186041D03*
X0137172Y0187041D03*
D24*
X0139507Y0136041D03*
X0182507Y0080041D03*
X0182507Y0079041D03*
X0182507Y0071041D03*
X0182507Y0070041D03*
X0168507Y0050041D03*
X0165507Y0050041D03*
X0161507Y0044041D03*
X0145507Y0036041D03*
X0149507Y0068041D03*
X0151507Y0068041D03*
X0151507Y0069041D03*
X0151507Y0070041D03*
X0153507Y0070041D03*
X0153507Y0071041D03*
X0153507Y0069041D03*
X0153507Y0068041D03*
X0155507Y0068041D03*
X0133507Y0079041D03*
X0131507Y0079041D03*
X0131507Y0078041D03*
X0131507Y0077041D03*
X0129507Y0077041D03*
X0129507Y0078041D03*
X0129507Y0079041D03*
X0129507Y0076041D03*
X0126507Y0071041D03*
X0126507Y0070041D03*
X0126507Y0069041D03*
X0126507Y0068041D03*
X0124507Y0068041D03*
X0124507Y0069041D03*
X0124507Y0070041D03*
X0122507Y0068041D03*
X0121507Y0076041D03*
X0121507Y0077041D03*
X0121507Y0078041D03*
X0119507Y0078041D03*
X0119507Y0077041D03*
X0119507Y0076041D03*
X0117507Y0076041D03*
X0117507Y0077041D03*
X0117507Y0078041D03*
X0123507Y0077041D03*
X0112507Y0069041D03*
X0106507Y0076041D03*
X0106507Y0077041D03*
X0106507Y0078041D03*
X0106507Y0079041D03*
X0104507Y0078041D03*
X0104507Y0077041D03*
X0104507Y0076041D03*
X0096507Y0068041D03*
X0094507Y0068041D03*
X0094507Y0069041D03*
X0094507Y0070041D03*
X0092507Y0070041D03*
X0092507Y0069041D03*
X0092507Y0068041D03*
X0090507Y0068041D03*
X0092507Y0077041D03*
X0073507Y0043041D03*
X0068507Y0043041D03*
X0068507Y0042041D03*
X0068507Y0039041D03*
X0068507Y0038041D03*
X0050507Y0068041D03*
X0050507Y0069041D03*
X0050507Y0070041D03*
X0048507Y0068041D03*
X0041507Y0076041D03*
X0041507Y0079041D03*
X0027507Y0079041D03*
X0056507Y0079041D03*
X0020507Y0037041D03*
X0027507Y0034041D03*
X0084507Y0183041D03*
D25*
X0119842Y0149041D03*
X0083172Y0079041D03*
X0085172Y0077041D03*
X0092172Y0076041D03*
X0109842Y0069041D03*
X0109172Y0053041D03*
X0128172Y0071041D03*
X0150842Y0053041D03*
X0151172Y0044041D03*
X0151172Y0043041D03*
X0152842Y0044041D03*
X0153842Y0044041D03*
X0153842Y0043041D03*
X0154842Y0043041D03*
X0158172Y0043041D03*
X0156172Y0036041D03*
X0145842Y0034041D03*
X0186172Y0039041D03*
X0190172Y0040041D03*
X0189842Y0054041D03*
X0185842Y0137041D03*
X0187172Y0138041D03*
X0188172Y0138041D03*
X0079842Y0035041D03*
X0076172Y0035041D03*
X0074842Y0035041D03*
X0073842Y0035041D03*
X0072842Y0035041D03*
X0073172Y0036041D03*
X0069172Y0036041D03*
X0069172Y0035041D03*
X0067172Y0035041D03*
X0067172Y0036041D03*
X0063172Y0035041D03*
X0061842Y0036041D03*
X0059842Y0036041D03*
X0059842Y0035041D03*
X0052172Y0039041D03*
X0051172Y0040041D03*
X0050172Y0041041D03*
X0048842Y0041041D03*
X0049172Y0042041D03*
X0049172Y0045041D03*
X0049172Y0047041D03*
X0044172Y0042041D03*
X0032172Y0036041D03*
X0040172Y0069041D03*
X0037842Y0070041D03*
X0030842Y0071041D03*
X0031172Y0079041D03*
X0070842Y0079041D03*
D26*
X0068507Y0076374D03*
X0060507Y0070707D03*
X0056507Y0077374D03*
X0047507Y0078374D03*
X0038507Y0079374D03*
X0037507Y0070707D03*
X0043507Y0048707D03*
X0049507Y0047707D03*
X0050507Y0048707D03*
X0050507Y0040707D03*
X0051507Y0039707D03*
X0052507Y0038707D03*
X0048507Y0039374D03*
X0048507Y0039707D03*
X0064507Y0034374D03*
X0070507Y0035374D03*
X0070507Y0035707D03*
X0071507Y0035707D03*
X0071507Y0035374D03*
X0071507Y0034707D03*
X0071507Y0034374D03*
X0074507Y0036374D03*
X0077507Y0035707D03*
X0077507Y0035374D03*
X0072507Y0044707D03*
X0100507Y0068707D03*
X0103507Y0069707D03*
X0103507Y0070374D03*
X0107507Y0069707D03*
X0118507Y0079374D03*
X0139507Y0054374D03*
X0139507Y0050374D03*
X0144507Y0042707D03*
X0144507Y0042374D03*
X0144507Y0039374D03*
X0151507Y0038374D03*
X0163507Y0043707D03*
X0193507Y0054374D03*
X0165507Y0080374D03*
X0165507Y0080707D03*
X0152507Y0078374D03*
X0150507Y0076374D03*
X0124507Y0144707D03*
X0118507Y0145374D03*
X0165507Y0147374D03*
X0059507Y0147374D03*
D27*
X0058342Y0147707D03*
X0063672Y0147707D03*
X0076672Y0147707D03*
X0081342Y0166707D03*
X0096672Y0147707D03*
X0138342Y0147707D03*
X0145342Y0144374D03*
X0151672Y0139374D03*
X0148672Y0136374D03*
X0174672Y0147707D03*
X0175342Y0139374D03*
X0178672Y0137374D03*
X0182672Y0139374D03*
X0186342Y0136707D03*
X0186342Y0136374D03*
X0187672Y0138374D03*
X0187672Y0138707D03*
X0192342Y0139374D03*
X0183672Y0144374D03*
X0142672Y0079374D03*
X0143672Y0078374D03*
X0143672Y0077707D03*
X0143672Y0077374D03*
X0149672Y0070707D03*
X0147672Y0069707D03*
X0147672Y0069374D03*
X0147672Y0068707D03*
X0149342Y0067707D03*
X0155672Y0067707D03*
X0157342Y0068707D03*
X0157342Y0069374D03*
X0157342Y0069707D03*
X0159672Y0069707D03*
X0159672Y0069374D03*
X0159672Y0068707D03*
X0159672Y0068374D03*
X0159672Y0070374D03*
X0159672Y0070707D03*
X0161672Y0067707D03*
X0165672Y0053374D03*
X0172672Y0053374D03*
X0167672Y0042374D03*
X0156342Y0041374D03*
X0155672Y0042374D03*
X0130672Y0053374D03*
X0125342Y0053374D03*
X0121672Y0053374D03*
X0122342Y0067707D03*
X0120672Y0068707D03*
X0120672Y0069374D03*
X0120672Y0069707D03*
X0122672Y0070707D03*
X0114672Y0069707D03*
X0107672Y0068374D03*
X0111672Y0077374D03*
X0112342Y0079374D03*
X0100672Y0078374D03*
X0100672Y0077707D03*
X0100672Y0077374D03*
X0094672Y0076707D03*
X0092672Y0077374D03*
X0090342Y0076374D03*
X0090672Y0070707D03*
X0094672Y0080374D03*
X0081342Y0072374D03*
X0077342Y0070707D03*
X0081342Y0067707D03*
X0068342Y0067707D03*
X0058342Y0077374D03*
X0058342Y0077707D03*
X0058342Y0078374D03*
X0056672Y0079374D03*
X0052672Y0076374D03*
X0048672Y0070707D03*
X0041342Y0070707D03*
X0040342Y0067707D03*
X0039342Y0076374D03*
X0039342Y0078374D03*
X0039342Y0078707D03*
X0028342Y0067707D03*
X0043342Y0047374D03*
X0043672Y0040707D03*
X0044342Y0039707D03*
X0062672Y0041374D03*
X0065342Y0034707D03*
X0071342Y0038374D03*
X0072342Y0037374D03*
X0073342Y0038374D03*
X0073672Y0038707D03*
X0073672Y0040374D03*
X0076672Y0034707D03*
X0075342Y0045374D03*
X0075342Y0045707D03*
X0070342Y0046374D03*
X0064672Y0048374D03*
X0022342Y0035707D03*
X0017342Y0036374D03*
X0129342Y0079374D03*
X0133342Y0076374D03*
X0052342Y0164707D03*
X0036342Y0164707D03*
D28*
X0039507Y0163374D03*
X0039507Y0161374D03*
X0048837Y0161374D03*
X0055507Y0161374D03*
X0055507Y0163374D03*
X0060837Y0147707D03*
X0070177Y0147707D03*
X0076177Y0146374D03*
X0076177Y0144374D03*
X0082507Y0147707D03*
X0088177Y0147707D03*
X0100507Y0147707D03*
X0112177Y0147707D03*
X0125177Y0147707D03*
X0129837Y0147707D03*
X0135507Y0147707D03*
X0141507Y0146374D03*
X0141507Y0144374D03*
X0153507Y0147707D03*
X0161507Y0137707D03*
X0166177Y0144374D03*
X0170837Y0147707D03*
X0174177Y0146374D03*
X0174177Y0144374D03*
X0178507Y0147707D03*
X0188177Y0147707D03*
X0179177Y0137707D03*
X0162177Y0079374D03*
X0158507Y0079374D03*
X0154507Y0079374D03*
X0143507Y0078707D03*
X0143507Y0076707D03*
X0141177Y0077374D03*
X0141177Y0077707D03*
X0141177Y0078374D03*
X0135507Y0078374D03*
X0135507Y0077707D03*
X0135507Y0077374D03*
X0133837Y0079374D03*
X0128837Y0070374D03*
X0128837Y0069707D03*
X0128837Y0069374D03*
X0128837Y0068707D03*
X0128837Y0068374D03*
X0128837Y0067707D03*
X0131507Y0067707D03*
X0138177Y0054707D03*
X0144837Y0053374D03*
X0153837Y0039707D03*
X0153837Y0039374D03*
X0153837Y0038707D03*
X0153837Y0038374D03*
X0158837Y0038374D03*
X0158837Y0038707D03*
X0158837Y0039374D03*
X0158837Y0037707D03*
X0158837Y0037374D03*
X0165837Y0038374D03*
X0165837Y0039707D03*
X0165837Y0040374D03*
X0162837Y0043374D03*
X0170837Y0043374D03*
X0170837Y0043707D03*
X0170837Y0042707D03*
X0170837Y0042374D03*
X0170837Y0041707D03*
X0170837Y0040374D03*
X0170837Y0039707D03*
X0170837Y0039374D03*
X0170837Y0038707D03*
X0170837Y0038374D03*
X0175177Y0053374D03*
X0183177Y0053374D03*
X0165507Y0067707D03*
X0127837Y0053374D03*
X0117837Y0053374D03*
X0100177Y0067707D03*
X0098507Y0068707D03*
X0098507Y0069374D03*
X0098507Y0069707D03*
X0096837Y0067707D03*
X0090177Y0067707D03*
X0094507Y0076374D03*
X0092837Y0077707D03*
X0094507Y0080707D03*
X0090177Y0079374D03*
X0077837Y0077707D03*
X0071507Y0077707D03*
X0071507Y0077374D03*
X0071507Y0076707D03*
X0071507Y0076374D03*
X0071507Y0078374D03*
X0071507Y0078707D03*
X0066837Y0078374D03*
X0064837Y0079374D03*
X0058837Y0069707D03*
X0058837Y0069374D03*
X0058837Y0068707D03*
X0052837Y0068707D03*
X0052837Y0068374D03*
X0052837Y0069374D03*
X0052837Y0069707D03*
X0052837Y0070374D03*
X0052837Y0071374D03*
X0052837Y0071707D03*
X0048177Y0067707D03*
X0046177Y0077707D03*
X0043507Y0078374D03*
X0041507Y0079374D03*
X0039177Y0077707D03*
X0031837Y0076707D03*
X0031837Y0076374D03*
X0031837Y0078707D03*
X0029507Y0078374D03*
X0029507Y0077707D03*
X0029507Y0077374D03*
X0031507Y0070374D03*
X0031507Y0069707D03*
X0031507Y0069374D03*
X0031507Y0068707D03*
X0031507Y0068374D03*
X0034177Y0067707D03*
X0035837Y0068707D03*
X0035837Y0069374D03*
X0035837Y0069707D03*
X0060177Y0039707D03*
X0062507Y0035707D03*
X0062507Y0035374D03*
X0072177Y0041707D03*
X0074507Y0043707D03*
X0074837Y0044374D03*
X0070177Y0046707D03*
X0065507Y0047707D03*
X0074837Y0067707D03*
X0108837Y0077707D03*
X0111507Y0077707D03*
X0115837Y0079374D03*
X0121837Y0079374D03*
D29*
X0114842Y0078707D03*
X0111172Y0078707D03*
X0111172Y0078374D03*
X0117842Y0068707D03*
X0117842Y0068374D03*
X0101172Y0070374D03*
X0093172Y0078707D03*
X0085842Y0070707D03*
X0081842Y0070374D03*
X0080842Y0078374D03*
X0080842Y0078707D03*
X0055842Y0078707D03*
X0052842Y0079374D03*
X0049842Y0078707D03*
X0049842Y0076707D03*
X0055842Y0069707D03*
X0055842Y0069374D03*
X0055842Y0068707D03*
X0037842Y0067707D03*
X0034842Y0076374D03*
X0034842Y0076707D03*
X0034842Y0077374D03*
X0030172Y0049707D03*
X0021842Y0049707D03*
X0045842Y0046707D03*
X0073842Y0035707D03*
X0073842Y0035374D03*
X0135842Y0068374D03*
X0135842Y0068707D03*
X0139172Y0068707D03*
X0139172Y0068374D03*
X0149842Y0076707D03*
X0161172Y0078707D03*
X0140842Y0042374D03*
X0149842Y0037707D03*
X0175842Y0037707D03*
X0183172Y0037707D03*
X0188842Y0041374D03*
X0192842Y0041374D03*
X0191842Y0037374D03*
X0192172Y0136374D03*
X0192172Y0137707D03*
X0182842Y0136374D03*
X0179172Y0136374D03*
X0165172Y0136374D03*
X0151842Y0136374D03*
X0170172Y0166707D03*
X0170172Y0167374D03*
X0170172Y0167707D03*
X0170172Y0168374D03*
X0170172Y0168707D03*
X0185172Y0168707D03*
X0185172Y0168374D03*
X0185172Y0167707D03*
X0185172Y0167374D03*
X0185172Y0166707D03*
X0187842Y0169374D03*
X0187842Y0169707D03*
X0187842Y0170374D03*
X0187842Y0170707D03*
X0187842Y0171374D03*
X0192842Y0174374D03*
X0192842Y0174707D03*
X0192842Y0175374D03*
X0192842Y0175707D03*
X0192842Y0176374D03*
X0192842Y0176707D03*
X0192842Y0177374D03*
X0192842Y0177707D03*
X0192842Y0178374D03*
X0192842Y0178707D03*
X0192842Y0179374D03*
X0192842Y0179707D03*
X0192842Y0180374D03*
X0192842Y0180707D03*
X0192842Y0181374D03*
X0192842Y0181707D03*
X0192842Y0182374D03*
X0192842Y0182707D03*
X0192842Y0183374D03*
X0192842Y0183707D03*
X0192842Y0184374D03*
X0192842Y0184707D03*
X0192842Y0185374D03*
X0192842Y0185707D03*
X0192842Y0186374D03*
X0192842Y0186707D03*
D30*
X0160342Y0146041D03*
X0161672Y0136041D03*
X0151672Y0136041D03*
X0175342Y0136041D03*
X0179342Y0136041D03*
X0179672Y0138041D03*
X0182672Y0136041D03*
X0186342Y0136041D03*
X0161672Y0078041D03*
X0161672Y0076041D03*
X0158342Y0079041D03*
X0154342Y0079041D03*
X0159672Y0071041D03*
X0159672Y0070041D03*
X0159672Y0069041D03*
X0157342Y0069041D03*
X0157342Y0070041D03*
X0147672Y0070041D03*
X0147672Y0069041D03*
X0142672Y0076041D03*
X0143672Y0077041D03*
X0143672Y0078041D03*
X0121672Y0079041D03*
X0115672Y0079041D03*
X0115342Y0078041D03*
X0115342Y0076041D03*
X0108672Y0078041D03*
X0102672Y0079041D03*
X0100672Y0078041D03*
X0100672Y0077041D03*
X0102342Y0076041D03*
X0103672Y0071041D03*
X0107672Y0068041D03*
X0120672Y0069041D03*
X0120672Y0070041D03*
X0090342Y0079041D03*
X0084672Y0076041D03*
X0083672Y0078041D03*
X0081342Y0070041D03*
X0071342Y0071041D03*
X0058342Y0077041D03*
X0058342Y0078041D03*
X0041342Y0071041D03*
X0039342Y0071041D03*
X0039342Y0076041D03*
X0039342Y0078041D03*
X0043342Y0050041D03*
X0046342Y0050041D03*
X0030342Y0050041D03*
X0021672Y0050041D03*
X0062672Y0042041D03*
X0072342Y0042041D03*
X0076342Y0039041D03*
X0076672Y0036041D03*
X0155672Y0044041D03*
X0155672Y0050041D03*
D31*
X0159007Y0053374D03*
X0164007Y0042374D03*
X0144007Y0041707D03*
X0138007Y0043707D03*
X0133007Y0068707D03*
X0133007Y0069374D03*
X0133007Y0069707D03*
X0111007Y0070707D03*
X0110007Y0067707D03*
X0101007Y0069707D03*
X0078007Y0076707D03*
X0078007Y0077374D03*
X0069007Y0076707D03*
X0069007Y0078707D03*
X0069007Y0070707D03*
X0069007Y0070374D03*
X0069007Y0068374D03*
X0067007Y0068707D03*
X0067007Y0069374D03*
X0067007Y0069707D03*
X0071007Y0067707D03*
X0061007Y0068374D03*
X0061007Y0070374D03*
X0046007Y0077374D03*
X0038007Y0068374D03*
X0032007Y0077374D03*
X0032007Y0077707D03*
X0032007Y0078374D03*
X0029007Y0070707D03*
X0029007Y0070374D03*
X0029007Y0068374D03*
X0027007Y0068707D03*
X0027007Y0069374D03*
X0027007Y0069707D03*
X0049007Y0049707D03*
X0060007Y0036374D03*
X0071007Y0038707D03*
X0071007Y0040374D03*
X0074007Y0043374D03*
X0075007Y0044707D03*
X0076007Y0038374D03*
X0076007Y0037707D03*
X0166007Y0070707D03*
X0187007Y0053374D03*
X0189007Y0136374D03*
X0189007Y0136707D03*
X0165007Y0139374D03*
X0161007Y0137374D03*
X0142007Y0147707D03*
X0136007Y0139374D03*
X0104007Y0144374D03*
X0073007Y0147707D03*
X0056007Y0164707D03*
X0040007Y0164707D03*
X0033007Y0161374D03*
D32*
X0032007Y0078041D03*
X0032007Y0077041D03*
X0027007Y0070041D03*
X0027007Y0069041D03*
X0038007Y0068041D03*
X0047007Y0076041D03*
X0046007Y0078041D03*
X0067007Y0070041D03*
X0067007Y0069041D03*
X0074007Y0079041D03*
X0078007Y0077041D03*
X0080007Y0076041D03*
X0076007Y0047041D03*
X0076007Y0042041D03*
X0076007Y0041041D03*
X0076007Y0038041D03*
X0109007Y0071041D03*
X0111007Y0071041D03*
X0133007Y0070041D03*
X0133007Y0069041D03*
X0134007Y0050041D03*
X0137007Y0044041D03*
X0162007Y0071041D03*
X0162007Y0079041D03*
X0152007Y0076041D03*
X0151007Y0078041D03*
X0165007Y0136041D03*
X0162007Y0138041D03*
X0136007Y0136041D03*
X0189007Y0136041D03*
X0029007Y0037041D03*
D33*
X0029837Y0040041D03*
X0029507Y0041041D03*
X0029177Y0043041D03*
X0022837Y0043041D03*
X0022507Y0041041D03*
X0022177Y0040041D03*
X0061507Y0038041D03*
X0126177Y0076041D03*
X0126177Y0078041D03*
X0140177Y0043041D03*
X0139837Y0037041D03*
X0147177Y0042041D03*
X0169507Y0037041D03*
X0174837Y0037041D03*
D34*
X0153007Y0038041D03*
X0145007Y0037041D03*
X0163007Y0069041D03*
X0147007Y0078041D03*
X0192007Y0149041D03*
X0078007Y0040041D03*
X0061007Y0043041D03*
X0068007Y0072041D03*
X0066007Y0077041D03*
X0028007Y0072041D03*
X0026007Y0050041D03*
X0023007Y0042041D03*
X0029007Y0042041D03*
D35*
X0030842Y0045041D03*
X0021172Y0045041D03*
X0044842Y0069041D03*
X0065842Y0049041D03*
X0151842Y0037041D03*
X0163842Y0037041D03*
X0163842Y0041041D03*
X0181172Y0037041D03*
D36*
X0188842Y0041041D03*
X0165842Y0071041D03*
X0135842Y0069041D03*
X0135842Y0068041D03*
X0117842Y0068041D03*
X0109172Y0077041D03*
X0093172Y0078041D03*
X0085842Y0068041D03*
X0066172Y0047041D03*
X0062172Y0041041D03*
X0055842Y0069041D03*
X0055842Y0070041D03*
X0044172Y0071041D03*
X0034842Y0077041D03*
X0151842Y0139041D03*
X0157842Y0139041D03*
X0165172Y0139041D03*
X0182842Y0139041D03*
X0185172Y0167041D03*
X0185172Y0168041D03*
X0187842Y0169041D03*
X0187842Y0170041D03*
X0187842Y0171041D03*
X0192842Y0175041D03*
X0192842Y0176041D03*
X0192842Y0177041D03*
X0192842Y0178041D03*
X0192842Y0179041D03*
X0192842Y0180041D03*
X0192842Y0181041D03*
X0192842Y0182041D03*
X0192842Y0183041D03*
X0192842Y0184041D03*
X0192842Y0185041D03*
X0192842Y0186041D03*
X0170172Y0168041D03*
X0170172Y0167041D03*
X0158842Y0037041D03*
D37*
X0187507Y0037041D03*
X0149507Y0071041D03*
X0146507Y0077041D03*
X0133507Y0076041D03*
X0122507Y0071041D03*
X0090507Y0071041D03*
X0048507Y0071041D03*
X0031507Y0076041D03*
X0162507Y0175041D03*
X0162507Y0176041D03*
X0162507Y0177041D03*
X0162507Y0178041D03*
X0162507Y0179041D03*
X0162507Y0180041D03*
X0162507Y0181041D03*
X0162507Y0182041D03*
X0162507Y0183041D03*
X0162507Y0184041D03*
X0162507Y0185041D03*
X0162507Y0186041D03*
X0167507Y0171041D03*
X0167507Y0170041D03*
X0167507Y0169041D03*
D38*
X0172672Y0166041D03*
X0172672Y0165041D03*
X0172672Y0164041D03*
X0182672Y0164041D03*
X0182672Y0165041D03*
X0182672Y0166041D03*
X0190342Y0172041D03*
X0190342Y0173041D03*
X0190342Y0174041D03*
X0192342Y0139041D03*
X0179342Y0139041D03*
X0175342Y0139041D03*
X0161672Y0139041D03*
X0145342Y0136041D03*
X0139672Y0139041D03*
X0166342Y0080041D03*
X0166342Y0079041D03*
X0166342Y0078041D03*
X0166342Y0077041D03*
X0166342Y0076041D03*
X0139342Y0069041D03*
X0138342Y0077041D03*
X0138342Y0078041D03*
X0125672Y0079041D03*
X0114672Y0068041D03*
X0111342Y0078041D03*
X0101342Y0070041D03*
X0077672Y0078041D03*
X0071342Y0076041D03*
X0056672Y0076041D03*
X0043672Y0070041D03*
X0069672Y0047041D03*
X0143672Y0042041D03*
X0143672Y0040041D03*
X0146342Y0038041D03*
X0149672Y0038041D03*
X0149672Y0040041D03*
X0146342Y0043041D03*
X0146342Y0044041D03*
X0158672Y0040041D03*
X0179342Y0040041D03*
X0183342Y0040041D03*
X0183342Y0038041D03*
X0188342Y0040041D03*
X0191672Y0037041D03*
X0192342Y0039041D03*
X0192672Y0040041D03*
X0192672Y0041041D03*
D39*
X0192672Y0040707D03*
X0192672Y0040374D03*
X0192342Y0039707D03*
X0192342Y0039374D03*
X0188342Y0039707D03*
X0183342Y0039707D03*
X0183342Y0039374D03*
X0183342Y0040374D03*
X0183342Y0041374D03*
X0179342Y0040374D03*
X0179342Y0039707D03*
X0179342Y0039374D03*
X0170672Y0037707D03*
X0165672Y0037707D03*
X0158672Y0039707D03*
X0153672Y0040374D03*
X0153672Y0037707D03*
X0149672Y0038374D03*
X0149672Y0040374D03*
X0146342Y0040374D03*
X0146342Y0041707D03*
X0146342Y0042707D03*
X0146342Y0043374D03*
X0146342Y0043707D03*
X0143672Y0040374D03*
X0143672Y0039707D03*
X0146342Y0038374D03*
X0114672Y0068374D03*
X0114672Y0068707D03*
X0125672Y0079374D03*
X0138342Y0078374D03*
X0138342Y0077707D03*
X0138342Y0077374D03*
X0166342Y0077374D03*
X0166342Y0077707D03*
X0166342Y0078374D03*
X0166342Y0078707D03*
X0166342Y0079374D03*
X0166342Y0079707D03*
X0166342Y0076707D03*
X0166342Y0076374D03*
X0175342Y0136374D03*
X0172672Y0164374D03*
X0172672Y0164707D03*
X0172672Y0165374D03*
X0172672Y0165707D03*
X0172672Y0166374D03*
X0182672Y0166374D03*
X0182672Y0165707D03*
X0182672Y0165374D03*
X0182672Y0164707D03*
X0182672Y0164374D03*
X0190342Y0171707D03*
X0190342Y0172374D03*
X0190342Y0172707D03*
X0190342Y0173374D03*
X0190342Y0173707D03*
X0139672Y0136374D03*
X0083672Y0077707D03*
X0075342Y0046707D03*
X0069342Y0044374D03*
X0065672Y0047374D03*
X0061672Y0037374D03*
X0043672Y0069707D03*
X0043672Y0070374D03*
X0031342Y0067707D03*
X0027672Y0079374D03*
X0030342Y0039707D03*
X0021672Y0039707D03*
D40*
X0023007Y0042374D03*
X0023007Y0042707D03*
X0023007Y0046707D03*
X0029007Y0046707D03*
X0029007Y0042707D03*
X0029007Y0042374D03*
X0131007Y0139374D03*
X0140007Y0039707D03*
X0140007Y0037374D03*
X0145007Y0037374D03*
D41*
X0151837Y0037374D03*
X0151837Y0040707D03*
X0163837Y0040707D03*
X0163837Y0039374D03*
X0163837Y0038707D03*
X0181507Y0038707D03*
X0191177Y0073374D03*
X0191177Y0073707D03*
X0191177Y0074374D03*
X0130837Y0072707D03*
X0130837Y0072374D03*
X0082507Y0079707D03*
X0082507Y0080374D03*
D42*
X0148007Y0039707D03*
X0148007Y0039374D03*
X0148007Y0038707D03*
X0164007Y0037374D03*
D43*
X0169672Y0037374D03*
X0157672Y0040374D03*
X0157672Y0040707D03*
X0136672Y0070374D03*
X0138342Y0079374D03*
X0147342Y0078707D03*
X0147342Y0078374D03*
X0170342Y0139374D03*
X0084672Y0069374D03*
X0077672Y0042707D03*
X0077672Y0040374D03*
X0077672Y0039374D03*
X0035672Y0078374D03*
X0035672Y0078707D03*
X0029342Y0046374D03*
X0029672Y0040707D03*
X0022342Y0040707D03*
X0022672Y0046374D03*
D44*
X0022507Y0043374D03*
X0022177Y0040374D03*
X0029837Y0040374D03*
X0029507Y0043374D03*
X0056177Y0067707D03*
X0061507Y0042374D03*
X0061177Y0038374D03*
X0077837Y0039707D03*
X0174837Y0037374D03*
D45*
X0181342Y0037374D03*
X0181672Y0038374D03*
X0157672Y0072374D03*
X0157672Y0072707D03*
X0066342Y0048707D03*
X0030672Y0045707D03*
X0030672Y0045374D03*
X0021342Y0045374D03*
X0021342Y0045707D03*
D46*
X0043507Y0069374D03*
X0055507Y0078374D03*
X0082507Y0076707D03*
X0087507Y0076707D03*
X0087507Y0078707D03*
X0085507Y0070374D03*
X0102507Y0079374D03*
X0107507Y0067707D03*
X0146507Y0076374D03*
X0146507Y0076707D03*
X0146507Y0077374D03*
X0187507Y0037707D03*
X0187507Y0037374D03*
X0161507Y0136374D03*
X0145507Y0139374D03*
X0167507Y0169374D03*
X0167507Y0169707D03*
X0167507Y0170374D03*
X0167507Y0170707D03*
X0167507Y0171374D03*
X0162507Y0174374D03*
X0162507Y0174707D03*
X0162507Y0175374D03*
X0162507Y0175707D03*
X0162507Y0176374D03*
X0162507Y0176707D03*
X0162507Y0177374D03*
X0162507Y0177707D03*
X0162507Y0178374D03*
X0162507Y0178707D03*
X0162507Y0179374D03*
X0162507Y0179707D03*
X0162507Y0180374D03*
X0162507Y0180707D03*
X0162507Y0181374D03*
X0162507Y0181707D03*
X0162507Y0182374D03*
X0162507Y0182707D03*
X0162507Y0183374D03*
X0162507Y0183707D03*
X0162507Y0184374D03*
X0162507Y0184707D03*
X0162507Y0185374D03*
X0162507Y0185707D03*
X0162507Y0186374D03*
X0162507Y0186707D03*
X0069507Y0047374D03*
X0066507Y0046707D03*
D47*
X0061342Y0042707D03*
X0061672Y0037707D03*
X0072342Y0040707D03*
X0072342Y0068707D03*
X0061672Y0076374D03*
X0061672Y0076707D03*
X0061672Y0077374D03*
X0061672Y0077707D03*
X0061672Y0078374D03*
X0061672Y0078707D03*
X0042672Y0077374D03*
X0043342Y0067707D03*
X0029342Y0041374D03*
X0022672Y0041374D03*
X0126342Y0076374D03*
X0126342Y0077707D03*
X0136342Y0069707D03*
X0144342Y0067707D03*
D48*
X0144677Y0068374D03*
X0144677Y0068707D03*
X0144677Y0069374D03*
X0144677Y0069707D03*
X0144677Y0070374D03*
X0144677Y0070707D03*
X0146677Y0077707D03*
X0146677Y0079374D03*
X0150337Y0077374D03*
X0161007Y0078374D03*
X0138337Y0078707D03*
X0138337Y0076707D03*
X0138337Y0076374D03*
X0136007Y0070707D03*
X0136007Y0069374D03*
X0136007Y0067707D03*
X0117677Y0069374D03*
X0117677Y0069707D03*
X0114677Y0067707D03*
X0109337Y0076707D03*
X0114677Y0078374D03*
X0097677Y0078374D03*
X0097677Y0078707D03*
X0097677Y0079374D03*
X0097677Y0077707D03*
X0097677Y0077374D03*
X0097677Y0076707D03*
X0097677Y0076374D03*
X0093337Y0078374D03*
X0087677Y0078374D03*
X0083007Y0077374D03*
X0082007Y0071707D03*
X0082007Y0070707D03*
X0085677Y0067707D03*
X0069007Y0047707D03*
X0066677Y0046374D03*
X0068677Y0044707D03*
X0072337Y0041374D03*
X0072337Y0037707D03*
X0075007Y0046374D03*
X0061677Y0040707D03*
X0064007Y0068374D03*
X0064007Y0068707D03*
X0064007Y0069374D03*
X0064007Y0069707D03*
X0064007Y0070374D03*
X0064007Y0070707D03*
X0064007Y0071374D03*
X0064007Y0071707D03*
X0056007Y0070707D03*
X0056007Y0070374D03*
X0056007Y0068374D03*
X0050007Y0078374D03*
X0038677Y0077374D03*
X0035007Y0077707D03*
X0035007Y0079374D03*
X0026007Y0050374D03*
X0100007Y0165374D03*
X0100007Y0165707D03*
X0100007Y0166374D03*
X0100007Y0166707D03*
X0100007Y0167374D03*
X0100007Y0167707D03*
X0100007Y0168374D03*
X0100007Y0168707D03*
X0100007Y0169374D03*
X0100007Y0169707D03*
X0100007Y0170374D03*
X0100007Y0170707D03*
X0100007Y0171374D03*
X0100007Y0171707D03*
X0100007Y0172374D03*
X0100007Y0172707D03*
X0100007Y0173374D03*
X0100007Y0173707D03*
X0100007Y0174374D03*
X0123007Y0172707D03*
X0123007Y0172374D03*
X0123007Y0171707D03*
X0123007Y0171374D03*
X0123007Y0170707D03*
X0123007Y0170374D03*
X0123007Y0169707D03*
X0123007Y0169374D03*
X0123007Y0168707D03*
X0123007Y0168374D03*
X0123007Y0167707D03*
X0123007Y0167374D03*
X0123007Y0166707D03*
X0123007Y0166374D03*
X0123007Y0165707D03*
X0123007Y0165374D03*
X0145677Y0136374D03*
X0180337Y0041374D03*
X0191677Y0038374D03*
X0191677Y0037707D03*
D49*
X0188007Y0039374D03*
X0176007Y0039374D03*
X0176007Y0039707D03*
X0176007Y0040374D03*
X0176007Y0041707D03*
X0176007Y0042374D03*
X0176007Y0042707D03*
X0176007Y0043374D03*
X0176007Y0043707D03*
X0176007Y0038707D03*
X0176007Y0038374D03*
X0162007Y0039707D03*
X0162007Y0040374D03*
X0159007Y0041374D03*
X0146007Y0037707D03*
X0141007Y0037707D03*
X0141007Y0038374D03*
X0141007Y0038707D03*
X0141007Y0039374D03*
X0141007Y0040374D03*
X0141007Y0041707D03*
X0141007Y0043707D03*
X0118007Y0067707D03*
X0109007Y0077374D03*
X0093007Y0079374D03*
X0074007Y0079374D03*
X0061007Y0079374D03*
X0044007Y0070707D03*
X0026007Y0051707D03*
X0026007Y0051374D03*
X0026007Y0050707D03*
X0061007Y0043374D03*
X0136007Y0136374D03*
X0158007Y0139374D03*
X0165007Y0171707D03*
X0165007Y0172374D03*
X0165007Y0172707D03*
X0165007Y0173374D03*
X0165007Y0173707D03*
X0151007Y0077707D03*
D50*
X0117342Y0071041D03*
X0072342Y0069041D03*
X0061672Y0076041D03*
X0061672Y0077041D03*
X0061672Y0078041D03*
X0056342Y0071041D03*
X0042672Y0077041D03*
X0035342Y0078041D03*
X0072342Y0041041D03*
X0072342Y0038041D03*
D51*
X0046007Y0047041D03*
X0026007Y0051041D03*
X0026007Y0052041D03*
X0034007Y0071041D03*
X0061007Y0079041D03*
X0093007Y0079041D03*
X0141007Y0044041D03*
X0141007Y0042041D03*
X0141007Y0039041D03*
X0141007Y0038041D03*
X0162007Y0040041D03*
X0176007Y0040041D03*
X0176007Y0039041D03*
X0176007Y0038041D03*
X0176007Y0042041D03*
X0176007Y0043041D03*
X0176007Y0044041D03*
X0188007Y0039041D03*
X0192007Y0136041D03*
X0192007Y0138041D03*
X0165007Y0172041D03*
X0165007Y0173041D03*
X0165007Y0174041D03*
X0136007Y0139041D03*
D52*
X0125837Y0143041D03*
X0135507Y0078041D03*
X0135507Y0077041D03*
X0141177Y0077041D03*
X0141177Y0078041D03*
X0131177Y0071041D03*
X0128837Y0070041D03*
X0128837Y0069041D03*
X0128837Y0068041D03*
X0121177Y0052041D03*
X0121177Y0050041D03*
X0108507Y0050041D03*
X0105507Y0070041D03*
X0100177Y0071041D03*
X0098507Y0070041D03*
X0098507Y0069041D03*
X0096837Y0071041D03*
X0094507Y0076041D03*
X0090177Y0076041D03*
X0088507Y0070041D03*
X0080507Y0078041D03*
X0077507Y0071041D03*
X0074837Y0071041D03*
X0073177Y0070041D03*
X0068837Y0071041D03*
X0071507Y0077041D03*
X0071507Y0078041D03*
X0058837Y0070041D03*
X0058837Y0069041D03*
X0052837Y0069041D03*
X0052837Y0070041D03*
X0052837Y0072041D03*
X0052507Y0076041D03*
X0052837Y0079041D03*
X0046507Y0070041D03*
X0035837Y0070041D03*
X0035837Y0069041D03*
X0031507Y0069041D03*
X0031507Y0070041D03*
X0031507Y0068041D03*
X0028837Y0071041D03*
X0027837Y0076041D03*
X0029507Y0077041D03*
X0029507Y0078041D03*
X0044177Y0041041D03*
X0065177Y0048041D03*
X0074507Y0044041D03*
X0075177Y0045041D03*
X0138177Y0050041D03*
X0149507Y0043041D03*
X0153837Y0040041D03*
X0153837Y0039041D03*
X0158837Y0039041D03*
X0158837Y0038041D03*
X0165837Y0038041D03*
X0165837Y0040041D03*
X0170837Y0040041D03*
X0170837Y0039041D03*
X0170837Y0038041D03*
X0170837Y0042041D03*
X0170837Y0043041D03*
X0170837Y0044041D03*
X0172177Y0050041D03*
X0172177Y0052041D03*
X0178507Y0050041D03*
X0186507Y0050041D03*
X0186507Y0052041D03*
X0163837Y0070041D03*
X0155837Y0071041D03*
X0151507Y0050041D03*
X0162177Y0050041D03*
D53*
X0146677Y0040041D03*
X0144677Y0069041D03*
X0144677Y0070041D03*
X0144677Y0071041D03*
X0150007Y0077041D03*
X0146677Y0079041D03*
X0138337Y0079041D03*
X0136007Y0071041D03*
X0117677Y0069041D03*
X0097677Y0076041D03*
X0097677Y0077041D03*
X0097677Y0078041D03*
X0097677Y0079041D03*
X0086007Y0071041D03*
X0085337Y0070041D03*
X0082677Y0077041D03*
X0064007Y0072041D03*
X0064007Y0071041D03*
X0064007Y0070041D03*
X0064007Y0069041D03*
X0064007Y0068041D03*
X0056007Y0068041D03*
X0035007Y0076041D03*
X0035007Y0079041D03*
X0068337Y0045041D03*
X0074677Y0046041D03*
X0060677Y0040041D03*
X0145677Y0139041D03*
X0123007Y0166041D03*
X0123007Y0167041D03*
X0123007Y0168041D03*
X0123007Y0169041D03*
X0123007Y0170041D03*
X0123007Y0171041D03*
X0123007Y0172041D03*
X0123007Y0173041D03*
X0100007Y0173041D03*
X0100007Y0174041D03*
X0100007Y0172041D03*
X0100007Y0171041D03*
X0100007Y0170041D03*
X0100007Y0169041D03*
X0100007Y0168041D03*
X0100007Y0167041D03*
X0100007Y0166041D03*
X0187337Y0038041D03*
X0191677Y0038041D03*
D54*
X0187507Y0038374D03*
X0187507Y0038707D03*
X0140507Y0042707D03*
X0117507Y0070374D03*
X0117507Y0070707D03*
X0126507Y0076707D03*
X0126507Y0077374D03*
X0067507Y0045707D03*
X0065507Y0049374D03*
X0046507Y0050707D03*
X0045507Y0050374D03*
X0042507Y0076707D03*
X0038507Y0076707D03*
X0080507Y0167374D03*
X0080507Y0167707D03*
X0080507Y0168374D03*
X0080507Y0168707D03*
X0080507Y0169374D03*
X0080507Y0169707D03*
X0080507Y0170374D03*
X0080507Y0170707D03*
X0080507Y0171374D03*
X0080507Y0179374D03*
X0080507Y0179707D03*
X0080507Y0180374D03*
X0080507Y0180707D03*
X0080507Y0181374D03*
X0080507Y0181707D03*
X0080507Y0182374D03*
X0080507Y0182707D03*
X0080507Y0183374D03*
X0080507Y0183707D03*
X0080507Y0189374D03*
X0080507Y0189707D03*
X0088507Y0189707D03*
X0088507Y0189374D03*
X0093507Y0188707D03*
X0093507Y0188374D03*
X0093507Y0187707D03*
X0093507Y0187374D03*
X0093507Y0186707D03*
X0093507Y0186374D03*
X0093507Y0185707D03*
X0093507Y0185374D03*
X0093507Y0184707D03*
X0093507Y0184374D03*
X0093507Y0183707D03*
X0093507Y0183374D03*
X0093507Y0182707D03*
X0093507Y0182374D03*
X0093507Y0181707D03*
X0093507Y0181374D03*
X0088507Y0181374D03*
X0088507Y0181707D03*
X0088507Y0182374D03*
X0088507Y0182707D03*
X0088507Y0183374D03*
X0088507Y0183707D03*
X0088507Y0180707D03*
X0088507Y0180374D03*
X0088507Y0179707D03*
X0088507Y0179374D03*
X0088507Y0172707D03*
X0088507Y0172374D03*
X0088507Y0171707D03*
X0088507Y0171374D03*
X0088507Y0170707D03*
X0088507Y0170374D03*
X0088507Y0169707D03*
X0088507Y0169374D03*
X0088507Y0168707D03*
X0088507Y0168374D03*
X0088507Y0167707D03*
X0088507Y0167374D03*
X0088507Y0166707D03*
X0088507Y0166374D03*
X0088507Y0165707D03*
X0088507Y0165374D03*
X0101507Y0181374D03*
X0101507Y0181707D03*
X0101507Y0182374D03*
X0101507Y0182707D03*
X0101507Y0183374D03*
X0101507Y0183707D03*
X0101507Y0184374D03*
X0101507Y0184707D03*
X0101507Y0185374D03*
X0101507Y0185707D03*
X0101507Y0186374D03*
X0101507Y0186707D03*
X0101507Y0187374D03*
X0101507Y0187707D03*
X0101507Y0188374D03*
X0101507Y0188707D03*
X0108507Y0188707D03*
X0108507Y0188374D03*
X0108507Y0187707D03*
X0108507Y0187374D03*
X0152507Y0187374D03*
X0152507Y0187707D03*
X0152507Y0188374D03*
X0152507Y0188707D03*
D55*
X0154172Y0186707D03*
X0154172Y0186374D03*
X0154172Y0185707D03*
X0154172Y0185374D03*
X0154172Y0184707D03*
X0154172Y0184374D03*
X0154172Y0182374D03*
X0154172Y0181707D03*
X0154172Y0181374D03*
X0154172Y0180707D03*
X0154172Y0180374D03*
X0154172Y0179707D03*
X0154172Y0179374D03*
X0154172Y0172707D03*
X0154172Y0172374D03*
X0154172Y0171707D03*
X0154172Y0171374D03*
X0154172Y0170707D03*
X0154172Y0170374D03*
X0154172Y0166374D03*
X0154172Y0165707D03*
X0154172Y0165374D03*
X0147842Y0171707D03*
X0147842Y0172374D03*
X0147842Y0172707D03*
X0146172Y0167707D03*
X0146172Y0167374D03*
X0146172Y0166707D03*
X0146172Y0166374D03*
X0146172Y0165707D03*
X0146172Y0165374D03*
X0141172Y0165374D03*
X0141172Y0165707D03*
X0141172Y0166374D03*
X0141172Y0166707D03*
X0141172Y0167374D03*
X0141172Y0167707D03*
X0141172Y0170374D03*
X0141172Y0170707D03*
X0141172Y0171374D03*
X0141172Y0171707D03*
X0141172Y0172374D03*
X0141172Y0172707D03*
X0141172Y0173374D03*
X0141172Y0173707D03*
X0141172Y0174374D03*
X0141172Y0179374D03*
X0141172Y0179707D03*
X0141172Y0180374D03*
X0141172Y0180707D03*
X0146172Y0180707D03*
X0146172Y0180374D03*
X0146172Y0179707D03*
X0146172Y0179374D03*
X0146172Y0181374D03*
X0146172Y0181707D03*
X0146172Y0182374D03*
X0146172Y0184374D03*
X0146172Y0184707D03*
X0146172Y0185374D03*
X0146172Y0185707D03*
X0146172Y0186374D03*
X0146172Y0186707D03*
X0147842Y0187374D03*
X0147842Y0187707D03*
X0147842Y0188374D03*
X0147842Y0188707D03*
X0141172Y0188707D03*
X0141172Y0188374D03*
X0141172Y0187707D03*
X0141172Y0187374D03*
X0141172Y0186707D03*
X0141172Y0186374D03*
X0141172Y0185707D03*
X0141172Y0189374D03*
X0141172Y0189707D03*
X0133172Y0189707D03*
X0133172Y0189374D03*
X0133172Y0188707D03*
X0133172Y0188374D03*
X0133172Y0187707D03*
X0133172Y0187374D03*
X0133172Y0186707D03*
X0133172Y0186374D03*
X0133172Y0185707D03*
X0133172Y0180707D03*
X0133172Y0180374D03*
X0133172Y0179707D03*
X0133172Y0179374D03*
X0133172Y0174374D03*
X0133172Y0173707D03*
X0133172Y0173374D03*
X0133172Y0172707D03*
X0133172Y0172374D03*
X0133172Y0171707D03*
X0133172Y0171374D03*
X0133172Y0170707D03*
X0133172Y0170374D03*
X0133172Y0167707D03*
X0133172Y0167374D03*
X0133172Y0166707D03*
X0133172Y0166374D03*
X0133172Y0165707D03*
X0133172Y0165374D03*
X0133172Y0164707D03*
X0133172Y0164374D03*
X0133172Y0163707D03*
X0141172Y0163707D03*
X0141172Y0164374D03*
X0141172Y0164707D03*
X0127842Y0181374D03*
X0127842Y0181707D03*
X0127842Y0182374D03*
X0127842Y0182707D03*
X0127842Y0183374D03*
X0127842Y0183707D03*
X0127842Y0185707D03*
X0127842Y0186374D03*
X0127842Y0186707D03*
X0127842Y0187374D03*
X0127842Y0187707D03*
X0127842Y0188374D03*
X0127842Y0188707D03*
X0114842Y0188707D03*
X0114842Y0188374D03*
X0114842Y0187707D03*
X0114842Y0187374D03*
X0114842Y0186707D03*
X0114842Y0186374D03*
X0114842Y0185707D03*
X0114842Y0181707D03*
X0114842Y0181374D03*
X0106842Y0181374D03*
X0106842Y0181707D03*
X0106842Y0182374D03*
X0106842Y0182707D03*
X0106842Y0183374D03*
X0106842Y0183707D03*
X0114842Y0172707D03*
X0114842Y0172374D03*
X0114842Y0171707D03*
X0114842Y0171374D03*
X0114842Y0170707D03*
X0114842Y0170374D03*
X0114842Y0167707D03*
X0114842Y0167374D03*
X0114842Y0166707D03*
X0114842Y0166374D03*
X0114842Y0165707D03*
X0114842Y0165374D03*
X0082172Y0165374D03*
X0082172Y0165707D03*
X0082172Y0166374D03*
X0082172Y0171707D03*
X0082172Y0172374D03*
X0082172Y0172707D03*
X0075172Y0181374D03*
X0075172Y0181707D03*
X0075172Y0182374D03*
X0075172Y0182707D03*
X0075172Y0183374D03*
X0075172Y0183707D03*
X0075172Y0185707D03*
X0075172Y0186374D03*
X0075172Y0186707D03*
X0075172Y0187374D03*
X0075172Y0187707D03*
X0075172Y0188374D03*
X0075172Y0188707D03*
X0151842Y0137707D03*
X0165172Y0137707D03*
X0182842Y0137707D03*
X0184842Y0078707D03*
X0184842Y0078374D03*
X0184842Y0077707D03*
X0180172Y0077707D03*
X0180172Y0078374D03*
X0180172Y0078707D03*
X0162842Y0068374D03*
X0155842Y0051707D03*
X0137842Y0040374D03*
X0134172Y0051707D03*
X0087842Y0077374D03*
X0087842Y0077707D03*
X0082172Y0071374D03*
X0078172Y0072374D03*
X0078172Y0072707D03*
X0077172Y0078707D03*
X0072172Y0068374D03*
X0065842Y0076707D03*
X0063842Y0067707D03*
X0050172Y0077374D03*
X0050172Y0077707D03*
X0067842Y0045374D03*
X0061172Y0040374D03*
X0188842Y0040374D03*
X0188842Y0040707D03*
X0191842Y0038707D03*
D56*
X0148007Y0039041D03*
D57*
X0163837Y0039041D03*
X0181507Y0041041D03*
X0191177Y0073041D03*
X0191177Y0074041D03*
X0082507Y0080041D03*
D58*
X0181342Y0039041D03*
X0111672Y0189041D03*
X0111672Y0190041D03*
D59*
X0138342Y0076041D03*
X0136672Y0070041D03*
X0157672Y0041041D03*
X0077672Y0043041D03*
X0046672Y0040041D03*
D60*
X0029842Y0046041D03*
X0022172Y0046041D03*
X0066842Y0041041D03*
X0066842Y0040041D03*
X0104172Y0069041D03*
X0130842Y0139041D03*
X0170172Y0139041D03*
X0150172Y0189041D03*
X0150172Y0190041D03*
X0087842Y0188041D03*
X0191842Y0077041D03*
X0191842Y0076041D03*
X0191842Y0075041D03*
D61*
X0136177Y0040041D03*
D62*
X0151842Y0041374D03*
X0163842Y0041374D03*
X0170172Y0041374D03*
X0170172Y0040707D03*
X0191842Y0074707D03*
X0191842Y0075374D03*
X0191842Y0075707D03*
X0191842Y0076374D03*
X0191842Y0076707D03*
X0191842Y0077374D03*
X0103842Y0068374D03*
X0086842Y0068374D03*
X0066842Y0040707D03*
X0066842Y0040374D03*
X0087842Y0187374D03*
X0087842Y0187707D03*
X0087842Y0188374D03*
X0087842Y0188707D03*
X0150172Y0189374D03*
X0150172Y0189707D03*
D63*
X0182507Y0072707D03*
X0182507Y0072374D03*
X0182507Y0071707D03*
X0182507Y0071374D03*
X0147507Y0042374D03*
X0140507Y0041374D03*
X0140507Y0040707D03*
X0077507Y0042374D03*
D64*
X0104007Y0068707D03*
X0088677Y0080707D03*
X0125677Y0078707D03*
X0139677Y0043374D03*
X0145677Y0041374D03*
X0145677Y0040707D03*
X0175337Y0040707D03*
X0175337Y0041374D03*
X0171337Y0171707D03*
X0171337Y0172374D03*
X0171337Y0172707D03*
X0171337Y0173374D03*
X0171337Y0173707D03*
X0171337Y0174374D03*
X0171337Y0174707D03*
X0171337Y0175374D03*
X0171337Y0175707D03*
X0171337Y0176374D03*
X0171337Y0176707D03*
X0171337Y0179374D03*
X0171337Y0179707D03*
X0171337Y0180374D03*
X0171337Y0180707D03*
X0171337Y0181374D03*
X0171337Y0181707D03*
X0171337Y0182374D03*
X0171337Y0182707D03*
X0171337Y0183374D03*
X0171337Y0183707D03*
X0174007Y0184374D03*
X0174007Y0184707D03*
X0174007Y0185374D03*
X0174007Y0185707D03*
X0174007Y0186374D03*
X0174007Y0186707D03*
X0171337Y0189707D03*
X0171337Y0190374D03*
X0171337Y0190707D03*
X0171337Y0191374D03*
X0171337Y0191707D03*
X0166337Y0188707D03*
X0166337Y0188374D03*
X0166337Y0187707D03*
X0166337Y0187374D03*
X0181337Y0186707D03*
X0181337Y0186374D03*
X0181337Y0185707D03*
X0181337Y0185374D03*
X0181337Y0184707D03*
X0181337Y0184374D03*
X0184007Y0183707D03*
X0184007Y0183374D03*
X0184007Y0182707D03*
X0184007Y0182374D03*
X0184007Y0181707D03*
X0184007Y0181374D03*
X0184007Y0180707D03*
X0184007Y0180374D03*
X0184007Y0179707D03*
X0184007Y0179374D03*
X0184007Y0176707D03*
X0184007Y0176374D03*
X0184007Y0175707D03*
X0184007Y0175374D03*
X0184007Y0174707D03*
X0184007Y0174374D03*
X0184007Y0173707D03*
X0184007Y0173374D03*
X0184007Y0172707D03*
X0184007Y0172374D03*
X0184007Y0171707D03*
X0189007Y0187374D03*
X0189007Y0187707D03*
X0189007Y0188374D03*
X0189007Y0188707D03*
X0184007Y0189707D03*
X0184007Y0190374D03*
X0184007Y0190707D03*
X0184007Y0191374D03*
X0184007Y0191707D03*
X0140337Y0182374D03*
X0140337Y0181707D03*
X0140337Y0181374D03*
X0134007Y0181374D03*
X0134007Y0181707D03*
X0134007Y0182374D03*
X0081337Y0187374D03*
X0081337Y0187707D03*
X0081337Y0188374D03*
X0081337Y0188707D03*
X0026007Y0049707D03*
X0021677Y0043707D03*
X0030337Y0043707D03*
D65*
X0111672Y0189374D03*
X0111672Y0189707D03*
X0181342Y0040707D03*
D66*
X0145677Y0041041D03*
X0140337Y0041041D03*
X0088677Y0081041D03*
X0171337Y0172041D03*
X0171337Y0173041D03*
X0171337Y0174041D03*
X0171337Y0175041D03*
X0171337Y0176041D03*
X0171337Y0180041D03*
X0171337Y0181041D03*
X0171337Y0182041D03*
X0171337Y0183041D03*
X0171337Y0184041D03*
X0174007Y0185041D03*
X0174007Y0186041D03*
X0171337Y0190041D03*
X0171337Y0191041D03*
X0166337Y0189041D03*
X0166337Y0188041D03*
X0166337Y0187041D03*
X0181337Y0186041D03*
X0181337Y0185041D03*
X0184007Y0184041D03*
X0184007Y0183041D03*
X0184007Y0182041D03*
X0184007Y0181041D03*
X0184007Y0180041D03*
X0184007Y0176041D03*
X0184007Y0175041D03*
X0184007Y0174041D03*
X0184007Y0173041D03*
X0184007Y0172041D03*
X0189007Y0187041D03*
X0189007Y0188041D03*
X0189007Y0189041D03*
X0184007Y0190041D03*
X0184007Y0191041D03*
X0140337Y0182041D03*
X0140337Y0181041D03*
X0134007Y0181041D03*
X0134007Y0182041D03*
X0081337Y0188041D03*
D67*
X0030672Y0044041D03*
X0021342Y0044041D03*
X0151672Y0041041D03*
D68*
X0172837Y0041041D03*
X0064837Y0080041D03*
D69*
X0066007Y0077374D03*
X0068007Y0072707D03*
X0068007Y0072374D03*
X0068007Y0071707D03*
X0068007Y0071374D03*
X0077007Y0078374D03*
X0085007Y0069707D03*
X0068007Y0048374D03*
X0078007Y0043374D03*
X0029007Y0041707D03*
X0023007Y0041707D03*
X0028007Y0071374D03*
X0028007Y0071707D03*
X0028007Y0072374D03*
X0028007Y0072707D03*
X0060007Y0163707D03*
X0163007Y0068707D03*
D70*
X0073172Y0072374D03*
X0073172Y0072707D03*
X0044842Y0068707D03*
X0030842Y0044707D03*
X0030842Y0044374D03*
X0021172Y0044374D03*
X0021172Y0044707D03*
D71*
X0050172Y0077041D03*
X0050172Y0078041D03*
X0067172Y0046041D03*
X0082172Y0071041D03*
X0087842Y0077041D03*
X0087842Y0078041D03*
X0104172Y0146041D03*
X0114842Y0166041D03*
X0114842Y0167041D03*
X0114842Y0168041D03*
X0114842Y0170041D03*
X0114842Y0171041D03*
X0114842Y0172041D03*
X0114842Y0173041D03*
X0114842Y0181041D03*
X0114842Y0182041D03*
X0114842Y0186041D03*
X0114842Y0187041D03*
X0114842Y0188041D03*
X0106842Y0183041D03*
X0106842Y0182041D03*
X0106842Y0181041D03*
X0127842Y0181041D03*
X0127842Y0182041D03*
X0127842Y0183041D03*
X0127842Y0186041D03*
X0127842Y0187041D03*
X0127842Y0188041D03*
X0133172Y0188041D03*
X0133172Y0189041D03*
X0133172Y0190041D03*
X0133172Y0187041D03*
X0133172Y0186041D03*
X0133172Y0180041D03*
X0133172Y0174041D03*
X0133172Y0173041D03*
X0133172Y0172041D03*
X0133172Y0171041D03*
X0133172Y0170041D03*
X0133172Y0168041D03*
X0133172Y0167041D03*
X0133172Y0166041D03*
X0133172Y0165041D03*
X0133172Y0164041D03*
X0141172Y0164041D03*
X0141172Y0165041D03*
X0141172Y0166041D03*
X0141172Y0167041D03*
X0141172Y0168041D03*
X0141172Y0170041D03*
X0141172Y0171041D03*
X0141172Y0172041D03*
X0141172Y0173041D03*
X0141172Y0174041D03*
X0146172Y0168041D03*
X0146172Y0167041D03*
X0146172Y0166041D03*
X0147842Y0172041D03*
X0147842Y0173041D03*
X0154172Y0173041D03*
X0154172Y0172041D03*
X0154172Y0171041D03*
X0154172Y0170041D03*
X0154172Y0166041D03*
X0154172Y0180041D03*
X0154172Y0181041D03*
X0154172Y0182041D03*
X0154172Y0184041D03*
X0154172Y0185041D03*
X0154172Y0186041D03*
X0154172Y0187041D03*
X0147842Y0188041D03*
X0146172Y0187041D03*
X0146172Y0186041D03*
X0146172Y0185041D03*
X0146172Y0184041D03*
X0146172Y0182041D03*
X0146172Y0181041D03*
X0146172Y0180041D03*
X0141172Y0180041D03*
X0141172Y0186041D03*
X0141172Y0187041D03*
X0141172Y0188041D03*
X0141172Y0189041D03*
X0141172Y0190041D03*
X0183842Y0146041D03*
X0182842Y0138041D03*
X0165172Y0138041D03*
X0151842Y0138041D03*
X0180172Y0078041D03*
X0184842Y0078041D03*
X0082172Y0166041D03*
X0082172Y0172041D03*
X0082172Y0173041D03*
X0075172Y0181041D03*
X0075172Y0182041D03*
X0075172Y0183041D03*
X0075172Y0186041D03*
X0075172Y0187041D03*
X0075172Y0188041D03*
X0033172Y0163041D03*
D72*
X0021007Y0078041D03*
X0021007Y0077041D03*
X0021007Y0076041D03*
X0026007Y0048041D03*
X0026007Y0047041D03*
D73*
X0026007Y0047374D03*
X0026007Y0047707D03*
X0123007Y0163707D03*
X0123007Y0164374D03*
X0123007Y0164707D03*
X0123007Y0173374D03*
X0123007Y0173707D03*
X0123007Y0174374D03*
X0072007Y0184374D03*
X0072007Y0184707D03*
X0072007Y0185374D03*
D74*
X0080507Y0183041D03*
X0080507Y0182041D03*
X0080507Y0181041D03*
X0080507Y0180041D03*
X0088507Y0180041D03*
X0088507Y0181041D03*
X0088507Y0182041D03*
X0088507Y0183041D03*
X0093507Y0183041D03*
X0093507Y0184041D03*
X0093507Y0185041D03*
X0093507Y0186041D03*
X0093507Y0187041D03*
X0093507Y0188041D03*
X0088507Y0189041D03*
X0088507Y0190041D03*
X0093507Y0182041D03*
X0093507Y0181041D03*
X0088507Y0173041D03*
X0088507Y0172041D03*
X0088507Y0171041D03*
X0088507Y0170041D03*
X0088507Y0169041D03*
X0088507Y0168041D03*
X0088507Y0167041D03*
X0088507Y0166041D03*
X0080507Y0167041D03*
X0080507Y0168041D03*
X0080507Y0169041D03*
X0080507Y0170041D03*
X0080507Y0171041D03*
X0080507Y0189041D03*
X0080507Y0190041D03*
X0101507Y0188041D03*
X0101507Y0187041D03*
X0101507Y0186041D03*
X0101507Y0185041D03*
X0101507Y0184041D03*
X0101507Y0183041D03*
X0101507Y0182041D03*
X0101507Y0181041D03*
X0108507Y0188041D03*
X0145507Y0146041D03*
X0152507Y0188041D03*
X0126507Y0077041D03*
X0117507Y0070041D03*
X0144507Y0068041D03*
X0146507Y0076041D03*
X0068507Y0048041D03*
X0043507Y0068041D03*
X0038507Y0077041D03*
D75*
X0021007Y0077374D03*
X0021007Y0077707D03*
X0021007Y0078374D03*
X0021007Y0078707D03*
X0021007Y0076707D03*
X0021007Y0076374D03*
X0026007Y0048374D03*
D76*
X0026007Y0048707D03*
X0101677Y0080707D03*
X0159007Y0080707D03*
X0159007Y0080374D03*
X0159007Y0079707D03*
X0174677Y0070707D03*
X0174677Y0070374D03*
X0174677Y0069707D03*
X0188677Y0069374D03*
X0188677Y0068707D03*
X0188677Y0068374D03*
D77*
X0026007Y0049041D03*
D78*
X0026007Y0049374D03*
D79*
X0046507Y0049374D03*
D80*
X0105007Y0062041D03*
X0105007Y0063041D03*
X0105007Y0064041D03*
X0105007Y0065041D03*
X0105007Y0066041D03*
X0105007Y0082041D03*
X0105007Y0083041D03*
X0105007Y0084041D03*
X0105007Y0085041D03*
X0105007Y0086041D03*
X0105007Y0155041D03*
D81*
X0105007Y0155374D03*
X0105007Y0155707D03*
X0105007Y0086374D03*
X0105007Y0085707D03*
X0105007Y0085374D03*
X0105007Y0084707D03*
X0105007Y0084374D03*
X0105007Y0083707D03*
X0105007Y0083374D03*
X0105007Y0082707D03*
X0105007Y0082374D03*
X0105007Y0081707D03*
X0105007Y0081374D03*
X0105007Y0065707D03*
X0105007Y0065374D03*
X0105007Y0064707D03*
X0105007Y0064374D03*
X0105007Y0063707D03*
X0105007Y0063374D03*
X0105007Y0062707D03*
X0105007Y0062374D03*
D82*
X0067837Y0066374D03*
D83*
X0134337Y0066374D03*
X0181677Y0067707D03*
D84*
X0189507Y0069707D03*
X0189507Y0070374D03*
X0189507Y0070707D03*
X0153507Y0066707D03*
X0153507Y0066374D03*
D85*
X0176507Y0066374D03*
X0176507Y0066707D03*
X0176507Y0067374D03*
D86*
X0067672Y0066707D03*
D87*
X0134172Y0066707D03*
D88*
X0067507Y0067041D03*
D89*
X0134007Y0067041D03*
D90*
X0153507Y0067041D03*
X0189507Y0070041D03*
X0189507Y0071041D03*
D91*
X0176507Y0067041D03*
D92*
X0067507Y0067374D03*
D93*
X0133007Y0067374D03*
D94*
X0152507Y0067374D03*
X0084507Y0184374D03*
X0084507Y0184707D03*
X0084507Y0185374D03*
X0084507Y0185707D03*
X0084507Y0186374D03*
X0084507Y0186707D03*
D95*
X0086177Y0174374D03*
X0086177Y0173707D03*
X0086177Y0173374D03*
X0086177Y0164707D03*
X0086177Y0164374D03*
X0086177Y0163707D03*
X0097507Y0179374D03*
X0097507Y0179707D03*
X0097507Y0180374D03*
X0097507Y0180707D03*
X0097507Y0189374D03*
X0097507Y0189707D03*
X0110837Y0185374D03*
X0110837Y0184707D03*
X0110837Y0184374D03*
X0110837Y0180707D03*
X0110837Y0180374D03*
X0110837Y0179707D03*
X0110837Y0179374D03*
X0150177Y0169707D03*
X0150177Y0169374D03*
X0150177Y0168707D03*
X0150177Y0168374D03*
X0150177Y0164707D03*
X0150177Y0164374D03*
X0150177Y0163707D03*
X0182507Y0074374D03*
X0182507Y0073707D03*
X0182507Y0073374D03*
X0019837Y0068374D03*
X0019837Y0067707D03*
D96*
X0019837Y0068041D03*
X0086177Y0164041D03*
X0086177Y0165041D03*
X0086177Y0174041D03*
X0097507Y0180041D03*
X0097507Y0189041D03*
X0097507Y0190041D03*
X0110837Y0185041D03*
X0110837Y0184041D03*
X0110837Y0180041D03*
X0150177Y0169041D03*
X0150177Y0165041D03*
X0150177Y0164041D03*
X0182507Y0074041D03*
X0182507Y0073041D03*
D97*
X0181677Y0068041D03*
D98*
X0125507Y0078374D03*
X0044507Y0068374D03*
D99*
X0175507Y0068374D03*
X0175507Y0068707D03*
X0175507Y0069374D03*
D100*
X0096672Y0163707D03*
X0096672Y0164374D03*
X0096672Y0164707D03*
X0111672Y0168374D03*
X0111672Y0168707D03*
X0111672Y0169374D03*
X0111672Y0169707D03*
X0124672Y0184374D03*
X0124672Y0184707D03*
X0124672Y0185374D03*
X0020672Y0072707D03*
X0020672Y0072374D03*
X0020672Y0071707D03*
X0020672Y0071374D03*
X0020672Y0070707D03*
X0020672Y0070374D03*
X0020672Y0069707D03*
X0020672Y0069374D03*
X0020672Y0068707D03*
D101*
X0058172Y0071374D03*
X0058172Y0071707D03*
X0085842Y0068707D03*
X0164842Y0071374D03*
X0164842Y0071707D03*
X0164842Y0072374D03*
X0164842Y0072707D03*
X0171842Y0076374D03*
X0171842Y0076707D03*
X0171842Y0077374D03*
D102*
X0096672Y0164041D03*
X0096672Y0165041D03*
X0111672Y0169041D03*
X0124672Y0184041D03*
X0124672Y0185041D03*
X0020672Y0072041D03*
X0020672Y0071041D03*
X0020672Y0070041D03*
X0020672Y0069041D03*
D103*
X0058172Y0072041D03*
X0085842Y0069041D03*
X0089842Y0080041D03*
X0164842Y0072041D03*
X0171842Y0076041D03*
X0171842Y0077041D03*
D104*
X0175507Y0069041D03*
D105*
X0174677Y0070041D03*
X0174677Y0071041D03*
X0188677Y0069041D03*
X0159007Y0080041D03*
X0159007Y0081041D03*
D106*
X0040842Y0072707D03*
X0040842Y0072374D03*
X0040842Y0071707D03*
X0040842Y0071374D03*
D107*
X0075172Y0071374D03*
X0075172Y0071707D03*
X0173842Y0071707D03*
X0173842Y0071374D03*
X0173842Y0072374D03*
X0173842Y0072707D03*
D108*
X0099172Y0071707D03*
X0099172Y0071374D03*
D109*
X0124672Y0071374D03*
X0124672Y0071707D03*
D110*
X0147507Y0071707D03*
X0147507Y0071374D03*
D111*
X0190342Y0071374D03*
X0190342Y0071707D03*
X0190342Y0072374D03*
X0190342Y0072707D03*
X0190342Y0079374D03*
X0190342Y0079707D03*
X0190342Y0080374D03*
X0177672Y0161707D03*
X0177672Y0162374D03*
X0177672Y0162707D03*
X0177672Y0163374D03*
X0177672Y0163707D03*
X0177672Y0187374D03*
X0177672Y0187707D03*
X0177672Y0188374D03*
X0177672Y0188707D03*
X0177672Y0192374D03*
X0177672Y0192707D03*
X0177672Y0193374D03*
X0177672Y0193707D03*
X0177672Y0194374D03*
D112*
X0040842Y0072041D03*
D113*
X0075172Y0072041D03*
X0173842Y0072041D03*
D114*
X0099177Y0072041D03*
D115*
X0124507Y0072041D03*
D116*
X0147507Y0072041D03*
D117*
X0182507Y0072041D03*
D118*
X0190342Y0072041D03*
X0190342Y0079041D03*
X0190342Y0080041D03*
X0177672Y0162041D03*
X0177672Y0163041D03*
X0177672Y0187041D03*
X0177672Y0188041D03*
X0177672Y0189041D03*
X0177672Y0192041D03*
X0177672Y0193041D03*
X0177672Y0194041D03*
D119*
X0058672Y0072707D03*
X0058672Y0072374D03*
D120*
X0099007Y0072374D03*
D121*
X0121177Y0072374D03*
D122*
X0144342Y0072374D03*
X0144342Y0072707D03*
D123*
X0103842Y0072707D03*
D124*
X0096337Y0073041D03*
X0096337Y0074041D03*
D125*
X0096337Y0074374D03*
X0096337Y0073707D03*
X0096337Y0073374D03*
D126*
X0057837Y0074707D03*
D127*
X0138672Y0074707D03*
X0138672Y0075374D03*
D128*
X0182507Y0075374D03*
X0182507Y0075707D03*
X0182507Y0076374D03*
X0182507Y0076707D03*
X0182507Y0077374D03*
X0182507Y0074707D03*
D129*
X0057672Y0075041D03*
D130*
X0138672Y0075041D03*
D131*
X0182507Y0075041D03*
X0182507Y0076041D03*
X0182507Y0077041D03*
D132*
X0057507Y0075707D03*
X0057507Y0075374D03*
D133*
X0137672Y0075707D03*
D134*
X0172677Y0077707D03*
X0172677Y0078374D03*
X0172677Y0078707D03*
X0020337Y0079374D03*
D135*
X0151007Y0173374D03*
X0151007Y0173707D03*
X0151007Y0174374D03*
X0191007Y0078707D03*
X0191007Y0078374D03*
X0191007Y0077707D03*
D136*
X0172677Y0078041D03*
X0020337Y0079041D03*
D137*
X0151007Y0174041D03*
X0191007Y0078041D03*
D138*
X0173342Y0079041D03*
X0173342Y0080041D03*
D139*
X0173342Y0079707D03*
X0173342Y0079374D03*
D140*
X0024337Y0079707D03*
D141*
X0040672Y0079707D03*
X0040672Y0080374D03*
D142*
X0053842Y0080374D03*
X0053842Y0080707D03*
X0053842Y0079707D03*
D143*
X0064837Y0079707D03*
X0064837Y0080374D03*
D144*
X0074672Y0080374D03*
X0074672Y0079707D03*
D145*
X0090007Y0079707D03*
X0149007Y0079707D03*
X0149007Y0080374D03*
D146*
X0120342Y0080374D03*
X0120342Y0079707D03*
D147*
X0024337Y0080041D03*
D148*
X0040672Y0080041D03*
D149*
X0053842Y0080041D03*
X0053842Y0081041D03*
D150*
X0074672Y0080041D03*
D151*
X0120342Y0080041D03*
D152*
X0149007Y0080041D03*
D153*
X0024172Y0080374D03*
D154*
X0089677Y0080374D03*
D155*
X0174172Y0080374D03*
D156*
X0023672Y0080707D03*
D157*
X0040507Y0080707D03*
D158*
X0072672Y0080707D03*
D159*
X0130337Y0080707D03*
D160*
X0182007Y0080707D03*
D161*
X0023672Y0081041D03*
D162*
X0040337Y0081041D03*
D163*
X0072672Y0081041D03*
D164*
X0099507Y0081041D03*
D165*
X0130337Y0081041D03*
D166*
X0179677Y0081041D03*
D167*
X0110842Y0163707D03*
X0110842Y0164374D03*
X0110842Y0164707D03*
X0110842Y0173374D03*
X0110842Y0173707D03*
X0110842Y0174374D03*
X0123842Y0179374D03*
X0123842Y0179707D03*
X0123842Y0180374D03*
X0123842Y0180707D03*
X0123842Y0189374D03*
X0123842Y0189707D03*
X0137172Y0185374D03*
X0137172Y0184707D03*
X0137172Y0184374D03*
X0137172Y0183707D03*
X0137172Y0183374D03*
X0137172Y0182707D03*
X0137172Y0169707D03*
X0137172Y0169374D03*
X0137172Y0168707D03*
X0137172Y0168374D03*
X0150172Y0182707D03*
X0150172Y0183374D03*
X0150172Y0183707D03*
X0071172Y0180707D03*
X0071172Y0180374D03*
X0071172Y0179707D03*
X0071172Y0179374D03*
X0071172Y0189374D03*
X0071172Y0189707D03*
D168*
X0071172Y0190041D03*
X0071172Y0189041D03*
X0071172Y0180041D03*
X0110842Y0174041D03*
X0110842Y0165041D03*
X0110842Y0164041D03*
X0123842Y0180041D03*
X0123842Y0189041D03*
X0123842Y0190041D03*
X0137172Y0185041D03*
X0137172Y0184041D03*
X0137172Y0183041D03*
X0150172Y0183041D03*
X0137172Y0169041D03*
D169*
X0123007Y0165041D03*
X0123007Y0164041D03*
X0123007Y0174041D03*
X0072007Y0184041D03*
X0072007Y0185041D03*
D170*
X0177672Y0179041D03*
X0177672Y0178041D03*
X0177672Y0177041D03*
D171*
X0177672Y0177374D03*
X0177672Y0177707D03*
X0177672Y0178374D03*
X0177672Y0178707D03*
D172*
X0084507Y0184041D03*
X0084507Y0185041D03*
X0084507Y0186041D03*
X0084507Y0187041D03*
D173*
X0179874Y0032124D02*
X0179874Y0025624D01*
X0179876Y0025564D01*
X0179881Y0025503D01*
X0179890Y0025444D01*
X0179903Y0025385D01*
X0179919Y0025326D01*
X0179939Y0025269D01*
X0179962Y0025214D01*
X0179989Y0025159D01*
X0180018Y0025107D01*
X0180051Y0025056D01*
X0180087Y0025007D01*
X0180125Y0024961D01*
X0180167Y0024917D01*
X0180211Y0024875D01*
X0180257Y0024837D01*
X0180306Y0024801D01*
X0180357Y0024768D01*
X0180409Y0024739D01*
X0180464Y0024712D01*
X0180519Y0024689D01*
X0180576Y0024669D01*
X0180635Y0024653D01*
X0180694Y0024640D01*
X0180753Y0024631D01*
X0180814Y0024626D01*
X0180874Y0024624D01*
X0186874Y0024624D02*
X0186934Y0024626D01*
X0186995Y0024631D01*
X0187054Y0024640D01*
X0187113Y0024653D01*
X0187172Y0024669D01*
X0187229Y0024689D01*
X0187284Y0024712D01*
X0187339Y0024739D01*
X0187391Y0024768D01*
X0187442Y0024801D01*
X0187491Y0024837D01*
X0187537Y0024875D01*
X0187581Y0024917D01*
X0187623Y0024961D01*
X0187661Y0025007D01*
X0187697Y0025056D01*
X0187730Y0025107D01*
X0187759Y0025159D01*
X0187786Y0025214D01*
X0187809Y0025269D01*
X0187829Y0025326D01*
X0187845Y0025385D01*
X0187858Y0025444D01*
X0187867Y0025503D01*
X0187872Y0025564D01*
X0187874Y0025624D01*
X0187874Y0032124D01*
X0187872Y0032184D01*
X0187867Y0032245D01*
X0187858Y0032304D01*
X0187845Y0032363D01*
X0187829Y0032422D01*
X0187809Y0032479D01*
X0187786Y0032534D01*
X0187759Y0032589D01*
X0187730Y0032641D01*
X0187697Y0032692D01*
X0187661Y0032741D01*
X0187623Y0032787D01*
X0187581Y0032831D01*
X0187537Y0032873D01*
X0187491Y0032911D01*
X0187442Y0032947D01*
X0187391Y0032980D01*
X0187339Y0033009D01*
X0187284Y0033036D01*
X0187229Y0033059D01*
X0187172Y0033079D01*
X0187113Y0033095D01*
X0187054Y0033108D01*
X0186995Y0033117D01*
X0186934Y0033122D01*
X0186874Y0033124D01*
X0189874Y0032124D02*
X0189874Y0025624D01*
X0189876Y0025564D01*
X0189881Y0025503D01*
X0189890Y0025444D01*
X0189903Y0025385D01*
X0189919Y0025326D01*
X0189939Y0025269D01*
X0189962Y0025214D01*
X0189989Y0025159D01*
X0190018Y0025107D01*
X0190051Y0025056D01*
X0190087Y0025007D01*
X0190125Y0024961D01*
X0190167Y0024917D01*
X0190211Y0024875D01*
X0190257Y0024837D01*
X0190306Y0024801D01*
X0190357Y0024768D01*
X0190409Y0024739D01*
X0190464Y0024712D01*
X0190519Y0024689D01*
X0190576Y0024669D01*
X0190635Y0024653D01*
X0190694Y0024640D01*
X0190753Y0024631D01*
X0190814Y0024626D01*
X0190874Y0024624D01*
X0196874Y0024624D02*
X0196934Y0024626D01*
X0196995Y0024631D01*
X0197054Y0024640D01*
X0197113Y0024653D01*
X0197172Y0024669D01*
X0197229Y0024689D01*
X0197284Y0024712D01*
X0197339Y0024739D01*
X0197391Y0024768D01*
X0197442Y0024801D01*
X0197491Y0024837D01*
X0197537Y0024875D01*
X0197581Y0024917D01*
X0197623Y0024961D01*
X0197661Y0025007D01*
X0197697Y0025056D01*
X0197730Y0025107D01*
X0197759Y0025159D01*
X0197786Y0025214D01*
X0197809Y0025269D01*
X0197829Y0025326D01*
X0197845Y0025385D01*
X0197858Y0025444D01*
X0197867Y0025503D01*
X0197872Y0025564D01*
X0197874Y0025624D01*
X0197874Y0032124D01*
X0197872Y0032184D01*
X0197867Y0032245D01*
X0197858Y0032304D01*
X0197845Y0032363D01*
X0197829Y0032422D01*
X0197809Y0032479D01*
X0197786Y0032534D01*
X0197759Y0032589D01*
X0197730Y0032641D01*
X0197697Y0032692D01*
X0197661Y0032741D01*
X0197623Y0032787D01*
X0197581Y0032831D01*
X0197537Y0032873D01*
X0197491Y0032911D01*
X0197442Y0032947D01*
X0197391Y0032980D01*
X0197339Y0033009D01*
X0197284Y0033036D01*
X0197229Y0033059D01*
X0197172Y0033079D01*
X0197113Y0033095D01*
X0197054Y0033108D01*
X0196995Y0033117D01*
X0196934Y0033122D01*
X0196874Y0033124D01*
X0190874Y0033124D02*
X0190814Y0033122D01*
X0190753Y0033117D01*
X0190694Y0033108D01*
X0190635Y0033095D01*
X0190576Y0033079D01*
X0190519Y0033059D01*
X0190464Y0033036D01*
X0190409Y0033009D01*
X0190357Y0032980D01*
X0190306Y0032947D01*
X0190257Y0032911D01*
X0190211Y0032873D01*
X0190167Y0032831D01*
X0190125Y0032787D01*
X0190087Y0032741D01*
X0190051Y0032692D01*
X0190018Y0032641D01*
X0189989Y0032589D01*
X0189962Y0032534D01*
X0189939Y0032479D01*
X0189919Y0032422D01*
X0189903Y0032363D01*
X0189890Y0032304D01*
X0189881Y0032245D01*
X0189876Y0032184D01*
X0189874Y0032124D01*
X0180874Y0033124D02*
X0180814Y0033122D01*
X0180753Y0033117D01*
X0180694Y0033108D01*
X0180635Y0033095D01*
X0180576Y0033079D01*
X0180519Y0033059D01*
X0180464Y0033036D01*
X0180409Y0033009D01*
X0180357Y0032980D01*
X0180306Y0032947D01*
X0180257Y0032911D01*
X0180211Y0032873D01*
X0180167Y0032831D01*
X0180125Y0032787D01*
X0180087Y0032741D01*
X0180051Y0032692D01*
X0180018Y0032641D01*
X0179989Y0032589D01*
X0179962Y0032534D01*
X0179939Y0032479D01*
X0179919Y0032422D01*
X0179903Y0032363D01*
X0179890Y0032304D01*
X0179881Y0032245D01*
X0179876Y0032184D01*
X0179874Y0032124D01*
M02*
