%
M48
M72
T01C0.01575
T02C0.03937
T03C0.04000
T04C0.07874
%
T01
X46374Y38874
X53874Y41374
X46374Y61374
X38874Y73874
X46374Y86374
X18874Y56374
X33874Y133874
X41374Y148874
X48874Y166374
X76374Y196374
X113874Y193874
X168874Y91374
X138874Y43874
X128874Y43874
X101374Y26374
X163874Y28874
X173874Y28874
T02
X116433Y109031
X116433Y118874
X116433Y128717
T03
X53874Y18874
X63874Y18874
X73874Y18874
X83874Y18874
X93874Y18874
X103874Y18874
X113874Y18874
X123874Y18874
X143874Y18874
X153874Y18874
X163874Y18874
X173874Y18874
X183874Y18874
X193874Y18874
X193874Y208874
X183874Y208874
X173874Y208874
X163874Y208874
X153874Y208874
X143874Y208874
X133874Y208874
X123874Y208874
X108874Y208874
X98874Y208874
X88874Y208874
X78874Y208874
X68874Y208874
X58874Y208874
X48874Y208874
X38874Y208874
X28874Y208874
X18874Y208874
T04
X88874Y101551
X88874Y136197
M30
