G75*
%MOIN*%
%OFA0B0*%
%FSLAX25Y25*%
%IPPOS*%
%LPD*%
%AMOC8*
5,1,8,0,0,1.08239X$1,22.5*
%
%ADD10C,0.00004*%
%ADD11R,0.07330X0.00333*%
%ADD12R,0.07330X0.00334*%
%ADD13R,0.01340X0.00333*%
%ADD14R,0.01330X0.00333*%
%ADD15R,0.01340X0.00334*%
%ADD16R,0.01330X0.00334*%
%ADD17R,0.01670X0.00333*%
%ADD18R,0.01670X0.00334*%
%ADD19R,0.01000X0.00333*%
%ADD20R,0.00670X0.00333*%
%ADD21R,0.01000X0.00334*%
%ADD22R,0.07000X0.00334*%
%ADD23R,0.07000X0.00333*%
%ADD24R,0.00660X0.00333*%
%ADD25R,0.00660X0.00334*%
%ADD26R,0.08660X0.00333*%
%ADD27R,0.08660X0.00334*%
%ADD28R,0.04670X0.00333*%
%ADD29R,0.04000X0.00333*%
%ADD30R,0.03000X0.00334*%
%ADD31R,0.03000X0.00333*%
%ADD32R,0.02000X0.00333*%
%ADD33R,0.07660X0.00334*%
%ADD34R,0.08000X0.00333*%
%ADD35R,0.05340X0.00333*%
%ADD36R,0.04000X0.00334*%
%ADD37R,0.05340X0.00334*%
%ADD38R,0.00340X0.00333*%
%ADD39R,0.05330X0.00333*%
%ADD40R,0.05330X0.00334*%
%ADD41R,0.01660X0.00333*%
%ADD42R,0.06670X0.00333*%
%ADD43R,0.06000X0.00333*%
%ADD44R,0.06670X0.00334*%
%ADD45R,0.00670X0.00334*%
%ADD46R,0.03660X0.00334*%
%ADD47R,0.02000X0.00334*%
%ADD48R,0.03660X0.00333*%
%ADD49R,0.08000X0.00334*%
%ADD50R,0.01660X0.00334*%
%ADD51R,0.00330X0.00333*%
%ADD52R,0.04330X0.00333*%
%ADD53R,0.03330X0.00334*%
%ADD54R,0.03670X0.00333*%
%ADD55R,0.03670X0.00334*%
%ADD56R,0.05000X0.00333*%
%ADD57R,0.04670X0.00334*%
%ADD58R,0.04340X0.00333*%
%ADD59R,0.06330X0.00333*%
%ADD60R,0.06340X0.00333*%
%ADD61R,0.06330X0.00334*%
%ADD62R,0.02670X0.00333*%
%ADD63R,0.02670X0.00334*%
%ADD64R,0.06340X0.00334*%
%ADD65R,0.02330X0.00333*%
%ADD66R,0.03330X0.00333*%
%ADD67R,0.02660X0.00334*%
%ADD68R,0.02660X0.00333*%
%ADD69R,0.02330X0.00334*%
%ADD70R,0.05670X0.00334*%
%ADD71R,0.05000X0.00334*%
%ADD72R,0.04330X0.00334*%
%ADD73R,0.04660X0.00333*%
%ADD74R,0.04660X0.00334*%
%ADD75R,0.02340X0.00334*%
%ADD76R,0.03340X0.00334*%
%ADD77R,0.00340X0.00334*%
%ADD78R,0.05670X0.00333*%
%ADD79R,0.00330X0.00334*%
%ADD80R,0.07660X0.00333*%
%ADD81R,0.02340X0.00333*%
%ADD82R,0.18670X0.00333*%
%ADD83R,0.18670X0.00334*%
%ADD84R,0.26000X0.00334*%
%ADD85R,0.26000X0.00333*%
%ADD86R,0.17000X0.00334*%
%ADD87R,0.17000X0.00333*%
%ADD88R,0.20660X0.00333*%
%ADD89R,0.20660X0.00334*%
%ADD90R,0.37000X0.00333*%
%ADD91R,0.37000X0.00334*%
%ADD92R,0.40660X0.00334*%
%ADD93R,0.40660X0.00333*%
%ADD94R,0.11660X0.00334*%
%ADD95R,0.11660X0.00333*%
%ADD96R,0.04340X0.00334*%
%ADD97R,0.09000X0.00333*%
%ADD98R,0.10000X0.00333*%
%ADD99R,0.09000X0.00334*%
%ADD100R,0.10000X0.00334*%
%ADD101R,0.05660X0.00333*%
%ADD102R,0.48000X0.00334*%
%ADD103R,0.48000X0.00333*%
%ADD104R,0.33330X0.00333*%
%ADD105R,0.29670X0.00334*%
%ADD106R,0.29670X0.00333*%
%ADD107C,0.00500*%
%ADD108C,0.01000*%
%ADD109C,0.00800*%
%ADD110C,0.02600*%
%ADD111C,0.01270*%
D10*
X0008874Y0037220D02*
X0037220Y0008874D01*
X0197063Y0008874D01*
X0201787Y0013598D01*
X0201787Y0212811D01*
X0197063Y0217535D01*
X0013598Y0217535D01*
X0008874Y0212811D01*
X0008874Y0037220D01*
D11*
X0050207Y0087706D03*
X0050207Y0088373D03*
X0074207Y0052706D03*
X0074207Y0052373D03*
X0076207Y0029373D03*
X0076207Y0028706D03*
X0104877Y0035706D03*
X0133877Y0043373D03*
X0133877Y0043706D03*
X0133877Y0026706D03*
X0133877Y0026373D03*
X0133877Y0025706D03*
X0050207Y0158373D03*
X0049877Y0158706D03*
D12*
X0050207Y0158039D03*
X0050207Y0088039D03*
X0076207Y0029039D03*
X0107207Y0045039D03*
X0133877Y0044039D03*
X0133877Y0043039D03*
X0133877Y0027039D03*
X0133877Y0026039D03*
D13*
X0129542Y0027373D03*
X0129542Y0027706D03*
X0129542Y0028373D03*
X0129542Y0028706D03*
X0129542Y0029373D03*
X0129542Y0029706D03*
X0129542Y0034373D03*
X0129542Y0034706D03*
X0129542Y0035373D03*
X0129542Y0035706D03*
X0129542Y0040373D03*
X0129542Y0040706D03*
X0129542Y0041373D03*
X0129542Y0041706D03*
X0129542Y0042373D03*
X0129542Y0042706D03*
X0142542Y0038373D03*
X0142542Y0037706D03*
X0142542Y0037373D03*
X0142542Y0032706D03*
X0142542Y0032373D03*
X0142542Y0031706D03*
X0108542Y0061373D03*
X0108542Y0065373D03*
X0104542Y0067373D03*
X0104542Y0073373D03*
X0104542Y0082373D03*
X0104542Y0084706D03*
X0129542Y0110706D03*
X0130542Y0111706D03*
X0128542Y0119706D03*
X0126542Y0123373D03*
X0126542Y0129706D03*
X0126042Y0180206D03*
X0121042Y0180206D03*
X0186542Y0116373D03*
X0186542Y0100706D03*
X0186542Y0094373D03*
X0188542Y0182706D03*
X0104542Y0042706D03*
X0049542Y0110373D03*
D14*
X0048207Y0111373D03*
X0047877Y0111706D03*
X0045207Y0111706D03*
X0047207Y0097373D03*
X0050877Y0097373D03*
X0049207Y0093706D03*
X0073207Y0038373D03*
X0075207Y0034706D03*
X0076877Y0038373D03*
X0104207Y0050706D03*
X0108207Y0042706D03*
X0106207Y0041373D03*
X0105207Y0059706D03*
X0108207Y0084706D03*
X0128207Y0109373D03*
X0127207Y0110373D03*
X0126877Y0110706D03*
X0129207Y0110373D03*
X0126207Y0116706D03*
X0130207Y0123373D03*
X0130207Y0129706D03*
X0157877Y0142706D03*
X0160207Y0140373D03*
X0183877Y0135706D03*
X0188207Y0142373D03*
X0190207Y0143706D03*
X0186207Y0150706D03*
X0189877Y0167373D03*
X0190207Y0176373D03*
X0186207Y0179373D03*
X0190207Y0181373D03*
X0190207Y0187373D03*
X0186207Y0187373D03*
X0186207Y0189373D03*
X0190207Y0128706D03*
X0189207Y0125706D03*
X0190207Y0124706D03*
X0186877Y0122373D03*
X0186207Y0118706D03*
X0190207Y0116373D03*
X0191877Y0109373D03*
X0189877Y0100706D03*
X0186207Y0096706D03*
X0186207Y0067706D03*
X0190207Y0067706D03*
X0189877Y0049373D03*
X0143877Y0036706D03*
X0143877Y0036373D03*
X0143877Y0035706D03*
X0143877Y0035373D03*
X0143877Y0034706D03*
X0143877Y0034373D03*
X0143877Y0033706D03*
X0143877Y0033373D03*
X0141207Y0031373D03*
X0141207Y0030706D03*
X0141207Y0030373D03*
X0138207Y0028373D03*
X0138207Y0027706D03*
X0138207Y0027373D03*
X0135207Y0033373D03*
X0135207Y0033706D03*
X0135207Y0034373D03*
X0135207Y0034706D03*
X0135207Y0035373D03*
X0135207Y0035706D03*
X0135207Y0036373D03*
X0135207Y0036706D03*
X0138207Y0041706D03*
X0138207Y0042373D03*
X0138207Y0042706D03*
X0141207Y0039706D03*
X0141207Y0039373D03*
X0141207Y0038706D03*
X0128207Y0038706D03*
X0128207Y0038373D03*
X0128207Y0037706D03*
X0128207Y0037373D03*
X0128207Y0039373D03*
X0128207Y0039706D03*
X0128207Y0032706D03*
X0128207Y0032373D03*
X0128207Y0031706D03*
X0128207Y0031373D03*
X0128207Y0030706D03*
X0128207Y0030373D03*
X0051207Y0165373D03*
X0051207Y0167373D03*
X0047877Y0181706D03*
D15*
X0126542Y0121039D03*
X0126542Y0117039D03*
X0126542Y0111039D03*
X0106542Y0081039D03*
X0104542Y0065039D03*
X0104542Y0051039D03*
X0129542Y0042039D03*
X0129542Y0041039D03*
X0129542Y0035039D03*
X0129542Y0029039D03*
X0129542Y0028039D03*
X0142542Y0032039D03*
X0142542Y0038039D03*
X0186542Y0107039D03*
X0187542Y0124039D03*
D16*
X0190207Y0132039D03*
X0183877Y0136039D03*
X0157877Y0143039D03*
X0186207Y0167039D03*
X0187877Y0178039D03*
X0188207Y0186039D03*
X0129877Y0111039D03*
X0105207Y0076039D03*
X0104207Y0073039D03*
X0104207Y0067039D03*
X0108207Y0065039D03*
X0105877Y0061039D03*
X0103877Y0058039D03*
X0102207Y0039039D03*
X0128207Y0039039D03*
X0128207Y0038039D03*
X0128207Y0032039D03*
X0128207Y0031039D03*
X0128207Y0030039D03*
X0135207Y0033039D03*
X0135207Y0034039D03*
X0135207Y0035039D03*
X0135207Y0036039D03*
X0135207Y0037039D03*
X0138207Y0042039D03*
X0141207Y0039039D03*
X0143877Y0037039D03*
X0143877Y0036039D03*
X0143877Y0035039D03*
X0143877Y0034039D03*
X0143877Y0033039D03*
X0141207Y0031039D03*
X0141207Y0030039D03*
X0138207Y0028039D03*
X0186207Y0049039D03*
X0186207Y0070039D03*
X0190207Y0070039D03*
X0189877Y0097039D03*
X0191877Y0103039D03*
X0189877Y0107039D03*
X0073207Y0036039D03*
X0073207Y0032039D03*
X0047207Y0091039D03*
X0047207Y0095039D03*
X0051207Y0109039D03*
X0049877Y0110039D03*
X0051207Y0161039D03*
X0050877Y0165039D03*
X0047207Y0165039D03*
X0051207Y0182039D03*
D17*
X0050707Y0167706D03*
X0047377Y0167706D03*
X0047377Y0161373D03*
X0050707Y0161373D03*
X0047707Y0094706D03*
X0073707Y0035706D03*
X0107707Y0079373D03*
X0132707Y0073706D03*
X0132707Y0073373D03*
X0140707Y0052373D03*
X0140707Y0051706D03*
X0139707Y0041373D03*
X0139707Y0040706D03*
X0139707Y0040373D03*
X0139707Y0029706D03*
X0139707Y0029373D03*
X0139707Y0028706D03*
X0126707Y0033373D03*
X0126707Y0033706D03*
X0126707Y0034373D03*
X0126707Y0034706D03*
X0126707Y0035373D03*
X0126707Y0035706D03*
X0126707Y0036373D03*
X0126707Y0036706D03*
X0165377Y0094373D03*
X0165377Y0098706D03*
X0187707Y0119706D03*
X0186377Y0133706D03*
X0186707Y0167373D03*
X0188707Y0177373D03*
X0188377Y0177706D03*
X0187707Y0183373D03*
X0186377Y0184373D03*
X0130377Y0111373D03*
X0186707Y0070373D03*
X0189707Y0070373D03*
X0189707Y0067373D03*
X0186707Y0067373D03*
X0186707Y0049373D03*
D18*
X0186377Y0076039D03*
X0186707Y0097039D03*
X0140707Y0052039D03*
X0139707Y0041039D03*
X0139707Y0029039D03*
X0126707Y0033039D03*
X0126707Y0034039D03*
X0126707Y0035039D03*
X0126707Y0036039D03*
X0126707Y0037039D03*
X0104707Y0059039D03*
X0102707Y0059039D03*
X0132707Y0074039D03*
X0186377Y0179039D03*
X0189707Y0187039D03*
D19*
X0190372Y0187706D03*
X0190712Y0188373D03*
X0190712Y0188706D03*
X0190712Y0189373D03*
X0186042Y0187706D03*
X0186042Y0184706D03*
X0186042Y0183373D03*
X0186042Y0182706D03*
X0186042Y0182373D03*
X0186042Y0181706D03*
X0186042Y0181373D03*
X0186042Y0179706D03*
X0186042Y0177706D03*
X0186042Y0177373D03*
X0186042Y0176706D03*
X0186042Y0176373D03*
X0190712Y0172706D03*
X0190712Y0172373D03*
X0190712Y0171706D03*
X0190372Y0171373D03*
X0190372Y0166706D03*
X0190712Y0166373D03*
X0190712Y0165706D03*
X0190712Y0165373D03*
X0186042Y0165373D03*
X0186042Y0166706D03*
X0186042Y0150373D03*
X0186042Y0148706D03*
X0186042Y0145706D03*
X0186042Y0144373D03*
X0186372Y0143706D03*
X0186042Y0140706D03*
X0186042Y0140373D03*
X0186042Y0139706D03*
X0186042Y0139373D03*
X0184042Y0136373D03*
X0190372Y0139373D03*
X0190712Y0139706D03*
X0190712Y0140373D03*
X0190712Y0140706D03*
X0190712Y0144373D03*
X0190712Y0144706D03*
X0190712Y0145373D03*
X0186042Y0126706D03*
X0187712Y0124373D03*
X0187372Y0123706D03*
X0187372Y0123373D03*
X0187042Y0122706D03*
X0184372Y0122373D03*
X0184042Y0122706D03*
X0184042Y0123373D03*
X0184042Y0123706D03*
X0184042Y0124373D03*
X0186042Y0118373D03*
X0186042Y0116706D03*
X0190372Y0116706D03*
X0190712Y0117373D03*
X0190712Y0117706D03*
X0190712Y0118373D03*
X0190372Y0121373D03*
X0190372Y0121706D03*
X0190712Y0122373D03*
X0190712Y0122706D03*
X0190712Y0123373D03*
X0190712Y0123706D03*
X0190372Y0124373D03*
X0190712Y0113706D03*
X0190372Y0113373D03*
X0190042Y0109373D03*
X0190372Y0108706D03*
X0190372Y0108373D03*
X0190372Y0107706D03*
X0190042Y0107373D03*
X0192372Y0107373D03*
X0192372Y0106706D03*
X0192372Y0106373D03*
X0192372Y0108373D03*
X0192372Y0108706D03*
X0192372Y0102706D03*
X0192372Y0102373D03*
X0192372Y0100706D03*
X0192372Y0100373D03*
X0190372Y0101373D03*
X0190372Y0101706D03*
X0190372Y0102373D03*
X0186042Y0101373D03*
X0186042Y0096373D03*
X0186042Y0094706D03*
X0186042Y0091706D03*
X0186042Y0091373D03*
X0186042Y0090706D03*
X0186042Y0090373D03*
X0190372Y0090373D03*
X0190712Y0090706D03*
X0190712Y0091373D03*
X0190712Y0091706D03*
X0190372Y0094706D03*
X0190712Y0095373D03*
X0190712Y0095706D03*
X0190372Y0096706D03*
X0186042Y0107373D03*
X0186042Y0107706D03*
X0186042Y0109373D03*
X0167042Y0097373D03*
X0166712Y0097706D03*
X0167042Y0095706D03*
X0166712Y0095373D03*
X0164042Y0095373D03*
X0163712Y0095706D03*
X0163712Y0097373D03*
X0164042Y0097706D03*
X0142042Y0085706D03*
X0142042Y0085373D03*
X0142042Y0084706D03*
X0142042Y0081373D03*
X0142042Y0080706D03*
X0142042Y0080373D03*
X0142042Y0079706D03*
X0142042Y0079373D03*
X0142042Y0078706D03*
X0142042Y0078373D03*
X0142042Y0073706D03*
X0142042Y0073373D03*
X0142042Y0072706D03*
X0142042Y0072373D03*
X0142042Y0071706D03*
X0142042Y0071373D03*
X0142042Y0070706D03*
X0142042Y0070373D03*
X0139372Y0070373D03*
X0139372Y0070706D03*
X0139372Y0071373D03*
X0139372Y0071706D03*
X0139372Y0072373D03*
X0139372Y0072706D03*
X0136712Y0072706D03*
X0136712Y0072373D03*
X0136712Y0071706D03*
X0136712Y0071373D03*
X0136712Y0070706D03*
X0136712Y0070373D03*
X0134042Y0070373D03*
X0134042Y0070706D03*
X0134042Y0071373D03*
X0134042Y0071706D03*
X0134042Y0072373D03*
X0131372Y0072373D03*
X0131372Y0071706D03*
X0131372Y0071373D03*
X0131372Y0070706D03*
X0131372Y0070373D03*
X0133042Y0068706D03*
X0133042Y0068373D03*
X0134042Y0066706D03*
X0134042Y0066373D03*
X0134042Y0065706D03*
X0134042Y0065373D03*
X0134042Y0064706D03*
X0134042Y0064373D03*
X0134042Y0063706D03*
X0134042Y0063373D03*
X0134042Y0062706D03*
X0131372Y0062706D03*
X0131372Y0063373D03*
X0131372Y0063706D03*
X0131372Y0064373D03*
X0131372Y0064706D03*
X0131372Y0065373D03*
X0131372Y0065706D03*
X0128712Y0065706D03*
X0128712Y0065373D03*
X0128712Y0064706D03*
X0128712Y0064373D03*
X0128712Y0063706D03*
X0128712Y0063373D03*
X0128712Y0062706D03*
X0128712Y0066373D03*
X0128712Y0066706D03*
X0128712Y0070373D03*
X0128712Y0070706D03*
X0128712Y0071373D03*
X0128712Y0077373D03*
X0128712Y0077706D03*
X0128712Y0078373D03*
X0128712Y0078706D03*
X0128712Y0079373D03*
X0128712Y0079706D03*
X0134042Y0079706D03*
X0134042Y0079373D03*
X0134042Y0078706D03*
X0134042Y0078373D03*
X0134042Y0077706D03*
X0134042Y0077373D03*
X0136712Y0073706D03*
X0136712Y0073373D03*
X0136712Y0066706D03*
X0136712Y0066373D03*
X0136712Y0065706D03*
X0136712Y0065373D03*
X0136712Y0062706D03*
X0136712Y0062373D03*
X0136712Y0061706D03*
X0139372Y0057706D03*
X0139372Y0057373D03*
X0139372Y0056706D03*
X0139372Y0056373D03*
X0139372Y0055706D03*
X0139372Y0055373D03*
X0139372Y0050373D03*
X0139372Y0049706D03*
X0139372Y0049373D03*
X0139372Y0048706D03*
X0139372Y0048373D03*
X0141042Y0046706D03*
X0141042Y0046373D03*
X0142042Y0048373D03*
X0142042Y0048706D03*
X0142042Y0049373D03*
X0142042Y0049706D03*
X0142042Y0050373D03*
X0136712Y0049373D03*
X0136712Y0048706D03*
X0136712Y0048373D03*
X0128712Y0049373D03*
X0142042Y0061706D03*
X0142042Y0062373D03*
X0142042Y0062706D03*
X0142042Y0065373D03*
X0142042Y0065706D03*
X0142042Y0066373D03*
X0142042Y0066706D03*
X0136712Y0084706D03*
X0136712Y0085373D03*
X0136712Y0085706D03*
X0134042Y0092373D03*
X0134042Y0092706D03*
X0134042Y0093373D03*
X0134042Y0093706D03*
X0134042Y0094373D03*
X0134042Y0094706D03*
X0134042Y0095373D03*
X0134042Y0095706D03*
X0131372Y0094706D03*
X0131372Y0094373D03*
X0131372Y0093706D03*
X0131372Y0093373D03*
X0131372Y0092706D03*
X0131372Y0092373D03*
X0128712Y0092373D03*
X0128712Y0092706D03*
X0128712Y0093373D03*
X0128712Y0093706D03*
X0128712Y0094373D03*
X0128712Y0094706D03*
X0128712Y0095373D03*
X0128712Y0095706D03*
X0126372Y0111373D03*
X0126042Y0115373D03*
X0126042Y0115706D03*
X0126042Y0116373D03*
X0126372Y0121373D03*
X0126042Y0121706D03*
X0126042Y0122373D03*
X0126042Y0122706D03*
X0126372Y0127373D03*
X0126042Y0128373D03*
X0126042Y0128706D03*
X0126372Y0129373D03*
X0130712Y0129373D03*
X0130712Y0128706D03*
X0130712Y0127706D03*
X0130712Y0127373D03*
X0130712Y0122706D03*
X0130712Y0121706D03*
X0130712Y0121373D03*
X0157712Y0143373D03*
X0162372Y0142706D03*
X0163042Y0143373D03*
X0165042Y0143373D03*
X0165712Y0142706D03*
X0165372Y0140706D03*
X0165042Y0140373D03*
X0163042Y0140373D03*
X0162712Y0140706D03*
X0126542Y0176873D03*
X0126542Y0178873D03*
X0126542Y0179206D03*
X0126212Y0179873D03*
X0120872Y0179873D03*
X0120542Y0179206D03*
X0120542Y0178873D03*
X0120542Y0176873D03*
X0186042Y0193706D03*
X0186042Y0195373D03*
X0104042Y0090373D03*
X0104042Y0089706D03*
X0104042Y0089373D03*
X0104042Y0088706D03*
X0104372Y0084373D03*
X0104042Y0083706D03*
X0104042Y0083373D03*
X0104372Y0082706D03*
X0104042Y0078706D03*
X0104042Y0078373D03*
X0104042Y0077706D03*
X0104042Y0077373D03*
X0106372Y0077373D03*
X0106372Y0077706D03*
X0106712Y0078373D03*
X0108712Y0078373D03*
X0108712Y0076706D03*
X0108712Y0076373D03*
X0104042Y0072706D03*
X0104042Y0072373D03*
X0104042Y0071706D03*
X0104042Y0071373D03*
X0106372Y0067373D03*
X0106372Y0066706D03*
X0106372Y0066373D03*
X0106372Y0065706D03*
X0106372Y0065373D03*
X0104372Y0065373D03*
X0104042Y0065706D03*
X0104042Y0066373D03*
X0104042Y0066706D03*
X0108712Y0067373D03*
X0108712Y0067706D03*
X0108712Y0065706D03*
X0106042Y0061373D03*
X0105712Y0060706D03*
X0105372Y0060373D03*
X0105042Y0059373D03*
X0102372Y0059373D03*
X0102372Y0059706D03*
X0102372Y0061373D03*
X0102372Y0061706D03*
X0104042Y0056373D03*
X0104042Y0055706D03*
X0104042Y0055373D03*
X0104042Y0054706D03*
X0108372Y0054706D03*
X0108712Y0055373D03*
X0108712Y0055706D03*
X0108712Y0058373D03*
X0108712Y0058706D03*
X0108712Y0059373D03*
X0108712Y0060706D03*
X0104042Y0050373D03*
X0104042Y0049706D03*
X0104042Y0049373D03*
X0104042Y0044706D03*
X0104042Y0044373D03*
X0104042Y0043706D03*
X0104042Y0043373D03*
X0108372Y0043373D03*
X0108372Y0044373D03*
X0108372Y0044706D03*
X0110372Y0044706D03*
X0110372Y0044373D03*
X0110712Y0043706D03*
X0110712Y0043373D03*
X0110712Y0042706D03*
X0108712Y0036706D03*
X0102042Y0038706D03*
X0102042Y0039373D03*
X0077372Y0037706D03*
X0077372Y0036706D03*
X0077372Y0036373D03*
X0073042Y0036373D03*
X0072712Y0036706D03*
X0072712Y0037373D03*
X0072712Y0037706D03*
X0072712Y0042373D03*
X0072712Y0042706D03*
X0072712Y0043373D03*
X0072712Y0043706D03*
X0077372Y0046706D03*
X0077372Y0048373D03*
X0072372Y0050373D03*
X0072372Y0050706D03*
X0072042Y0051373D03*
X0071712Y0051706D03*
X0073042Y0031706D03*
X0072712Y0031373D03*
X0072712Y0030706D03*
X0072712Y0030373D03*
X0072712Y0029706D03*
X0077372Y0030373D03*
X0077372Y0031373D03*
X0077372Y0031706D03*
X0108372Y0082373D03*
X0108712Y0082706D03*
X0108712Y0084373D03*
X0051372Y0089373D03*
X0051372Y0090373D03*
X0051372Y0090706D03*
X0047042Y0090706D03*
X0046712Y0090373D03*
X0046712Y0089706D03*
X0046712Y0089373D03*
X0046712Y0088706D03*
X0047042Y0095373D03*
X0046712Y0095706D03*
X0046712Y0096373D03*
X0046712Y0096706D03*
X0051372Y0096706D03*
X0051372Y0095706D03*
X0051372Y0095373D03*
X0046712Y0101373D03*
X0046712Y0101706D03*
X0046712Y0102373D03*
X0046712Y0102706D03*
X0051372Y0105706D03*
X0051372Y0107373D03*
X0051372Y0110373D03*
X0051372Y0110706D03*
X0051372Y0111373D03*
X0051372Y0111706D03*
X0051372Y0112373D03*
X0051372Y0112706D03*
X0049042Y0110706D03*
X0045372Y0109373D03*
X0045042Y0109706D03*
X0045042Y0110373D03*
X0045042Y0111373D03*
X0046712Y0159373D03*
X0046712Y0159706D03*
X0046712Y0160373D03*
X0047042Y0160706D03*
X0051372Y0160706D03*
X0051372Y0160373D03*
X0051372Y0159373D03*
X0051372Y0165706D03*
X0051372Y0166706D03*
X0047042Y0167373D03*
X0046712Y0166706D03*
X0046712Y0166373D03*
X0046712Y0165706D03*
X0047042Y0165373D03*
X0046712Y0171706D03*
X0046712Y0172373D03*
X0046712Y0172706D03*
X0046712Y0175706D03*
X0045042Y0179706D03*
X0045042Y0181373D03*
X0045042Y0181706D03*
X0048042Y0181373D03*
X0048042Y0180706D03*
X0048042Y0180373D03*
X0051372Y0179706D03*
X0051372Y0179373D03*
X0051372Y0177706D03*
X0051372Y0177373D03*
X0051372Y0176373D03*
X0051372Y0181373D03*
X0051372Y0181706D03*
X0186042Y0075706D03*
X0186042Y0069706D03*
X0190372Y0069706D03*
X0190712Y0069373D03*
X0190712Y0068706D03*
X0190712Y0068373D03*
X0190712Y0064706D03*
X0190712Y0064373D03*
X0190712Y0063706D03*
X0190372Y0063373D03*
X0190712Y0060373D03*
X0190712Y0059706D03*
X0190712Y0059373D03*
X0190712Y0054706D03*
X0190712Y0054373D03*
X0190712Y0053706D03*
X0190372Y0053373D03*
X0190372Y0048706D03*
X0190712Y0048373D03*
X0190712Y0047706D03*
X0190712Y0047373D03*
X0186042Y0047373D03*
X0186042Y0048706D03*
X0186042Y0059373D03*
X0186042Y0059706D03*
X0186042Y0060373D03*
X0186042Y0060706D03*
X0186042Y0063373D03*
X0186042Y0063706D03*
X0186042Y0064373D03*
X0186042Y0064706D03*
D20*
X0185877Y0068373D03*
X0185877Y0068706D03*
X0185877Y0069373D03*
X0185877Y0074373D03*
X0185877Y0074706D03*
X0185877Y0075373D03*
X0185877Y0095373D03*
X0185877Y0095706D03*
X0185877Y0101706D03*
X0185877Y0102373D03*
X0185877Y0102706D03*
X0190207Y0102706D03*
X0185877Y0108373D03*
X0185877Y0108706D03*
X0188207Y0116373D03*
X0188207Y0116706D03*
X0188207Y0117373D03*
X0188207Y0117706D03*
X0188207Y0118373D03*
X0188207Y0118706D03*
X0185877Y0117706D03*
X0185877Y0117373D03*
X0184207Y0124706D03*
X0184207Y0125373D03*
X0183877Y0135373D03*
X0185877Y0144706D03*
X0185877Y0145373D03*
X0185877Y0149373D03*
X0185877Y0149706D03*
X0185877Y0165706D03*
X0185877Y0166373D03*
X0188207Y0187373D03*
X0188207Y0187706D03*
X0188207Y0188373D03*
X0188207Y0188706D03*
X0188207Y0189373D03*
X0188207Y0190706D03*
X0185877Y0188706D03*
X0185877Y0188373D03*
X0185877Y0194373D03*
X0185877Y0194706D03*
X0165877Y0142373D03*
X0165877Y0141706D03*
X0165877Y0141373D03*
X0162207Y0141373D03*
X0162207Y0141706D03*
X0162207Y0142373D03*
X0159207Y0141373D03*
X0158877Y0141706D03*
X0130877Y0128373D03*
X0130877Y0122373D03*
X0126207Y0127706D03*
X0126207Y0111706D03*
X0108877Y0083706D03*
X0108877Y0083373D03*
X0108877Y0077706D03*
X0108877Y0077373D03*
X0108877Y0066706D03*
X0108877Y0066373D03*
X0108877Y0060373D03*
X0108877Y0059706D03*
X0102207Y0060373D03*
X0102207Y0060706D03*
X0077207Y0029706D03*
X0072877Y0046706D03*
X0072877Y0047373D03*
X0072877Y0047706D03*
X0072877Y0048373D03*
X0051207Y0088706D03*
X0046877Y0105706D03*
X0046877Y0106373D03*
X0046877Y0106706D03*
X0046877Y0107373D03*
X0044877Y0110706D03*
X0046877Y0173373D03*
X0046877Y0176373D03*
X0046877Y0176706D03*
X0046877Y0177373D03*
X0046877Y0177706D03*
X0045207Y0179373D03*
X0044877Y0180373D03*
X0044877Y0180706D03*
X0120377Y0178206D03*
X0120377Y0177873D03*
X0120377Y0177206D03*
X0120377Y0173873D03*
X0120377Y0173206D03*
X0120377Y0172873D03*
X0120377Y0172206D03*
X0120377Y0171873D03*
X0120377Y0171206D03*
X0120377Y0170873D03*
X0123377Y0170873D03*
X0123377Y0171206D03*
X0123377Y0171873D03*
X0123377Y0172206D03*
X0123377Y0172873D03*
X0123377Y0173206D03*
X0126707Y0173206D03*
X0126707Y0172873D03*
X0126707Y0172206D03*
X0126707Y0171873D03*
X0126707Y0171206D03*
X0126707Y0170873D03*
X0126707Y0168206D03*
X0126707Y0167873D03*
X0126707Y0167206D03*
X0126707Y0166873D03*
X0126707Y0166206D03*
X0126707Y0165873D03*
X0126707Y0165206D03*
X0126707Y0173873D03*
X0126707Y0174206D03*
X0126707Y0177206D03*
X0126707Y0177873D03*
X0126707Y0178206D03*
X0162207Y0098373D03*
X0162207Y0097706D03*
X0162207Y0097373D03*
X0162207Y0096706D03*
X0162207Y0095706D03*
X0162207Y0095373D03*
X0167207Y0096373D03*
X0167207Y0096706D03*
X0132207Y0050373D03*
X0132207Y0049706D03*
X0132207Y0049373D03*
X0132207Y0048706D03*
X0132207Y0048373D03*
X0185877Y0048373D03*
X0185877Y0047706D03*
D21*
X0186042Y0047039D03*
X0190712Y0047039D03*
X0190712Y0048039D03*
X0190372Y0049039D03*
X0190712Y0054039D03*
X0190712Y0055039D03*
X0190372Y0059039D03*
X0190712Y0060039D03*
X0190712Y0064039D03*
X0190372Y0068039D03*
X0190712Y0069039D03*
X0186042Y0068039D03*
X0186042Y0065039D03*
X0186042Y0064039D03*
X0186042Y0060039D03*
X0186042Y0059039D03*
X0186042Y0091039D03*
X0186042Y0092039D03*
X0186042Y0095039D03*
X0190712Y0096039D03*
X0192372Y0100039D03*
X0192372Y0101039D03*
X0192372Y0102039D03*
X0190372Y0102039D03*
X0190042Y0101039D03*
X0190042Y0103039D03*
X0186042Y0103039D03*
X0186042Y0101039D03*
X0190372Y0108039D03*
X0192372Y0107039D03*
X0192372Y0109039D03*
X0186042Y0117039D03*
X0190712Y0118039D03*
X0190712Y0123039D03*
X0190712Y0124039D03*
X0187042Y0123039D03*
X0184042Y0123039D03*
X0184042Y0124039D03*
X0184372Y0125039D03*
X0186042Y0140039D03*
X0186042Y0141039D03*
X0186042Y0144039D03*
X0186042Y0146039D03*
X0190372Y0144039D03*
X0190712Y0145039D03*
X0190712Y0140039D03*
X0190712Y0165039D03*
X0190712Y0166039D03*
X0190372Y0167039D03*
X0186042Y0165039D03*
X0190712Y0172039D03*
X0190712Y0173039D03*
X0190372Y0176039D03*
X0186042Y0176039D03*
X0186042Y0177039D03*
X0186042Y0178039D03*
X0186042Y0182039D03*
X0186042Y0183039D03*
X0186042Y0189039D03*
X0190372Y0190039D03*
X0190712Y0189039D03*
X0190712Y0188039D03*
X0165372Y0143039D03*
X0165712Y0141039D03*
X0162372Y0141039D03*
X0162712Y0143039D03*
X0160372Y0140039D03*
X0130712Y0129039D03*
X0130712Y0123039D03*
X0130372Y0121039D03*
X0126042Y0122039D03*
X0126372Y0123039D03*
X0126042Y0128039D03*
X0126042Y0129039D03*
X0126042Y0116039D03*
X0126042Y0115039D03*
X0130712Y0112039D03*
X0128712Y0096039D03*
X0128712Y0095039D03*
X0128712Y0094039D03*
X0128712Y0093039D03*
X0128712Y0092039D03*
X0131372Y0092039D03*
X0131372Y0093039D03*
X0131372Y0094039D03*
X0131372Y0095039D03*
X0134042Y0095039D03*
X0134042Y0094039D03*
X0134042Y0093039D03*
X0134042Y0092039D03*
X0134042Y0096039D03*
X0136712Y0086039D03*
X0136712Y0085039D03*
X0142042Y0085039D03*
X0142042Y0086039D03*
X0142042Y0081039D03*
X0142042Y0080039D03*
X0142042Y0079039D03*
X0142042Y0078039D03*
X0142042Y0074039D03*
X0142042Y0073039D03*
X0142042Y0072039D03*
X0142042Y0071039D03*
X0142042Y0070039D03*
X0139372Y0070039D03*
X0139372Y0071039D03*
X0139372Y0072039D03*
X0139372Y0073039D03*
X0136712Y0073039D03*
X0136712Y0072039D03*
X0136712Y0071039D03*
X0136712Y0070039D03*
X0134042Y0070039D03*
X0134042Y0071039D03*
X0134042Y0072039D03*
X0131372Y0072039D03*
X0131372Y0071039D03*
X0131372Y0070039D03*
X0133042Y0068039D03*
X0134042Y0066039D03*
X0134042Y0065039D03*
X0134042Y0064039D03*
X0134042Y0063039D03*
X0131372Y0063039D03*
X0131372Y0064039D03*
X0131372Y0065039D03*
X0128712Y0065039D03*
X0128712Y0064039D03*
X0128712Y0063039D03*
X0128712Y0066039D03*
X0128712Y0070039D03*
X0128712Y0071039D03*
X0128712Y0078039D03*
X0128712Y0079039D03*
X0134042Y0079039D03*
X0134042Y0078039D03*
X0136712Y0074039D03*
X0136712Y0066039D03*
X0136712Y0063039D03*
X0136712Y0062039D03*
X0139372Y0057039D03*
X0139372Y0056039D03*
X0139372Y0050039D03*
X0139372Y0049039D03*
X0139372Y0048039D03*
X0142042Y0048039D03*
X0142042Y0049039D03*
X0142042Y0050039D03*
X0136712Y0049039D03*
X0136712Y0048039D03*
X0128712Y0049039D03*
X0142042Y0062039D03*
X0142042Y0063039D03*
X0142042Y0066039D03*
X0164372Y0095039D03*
X0166372Y0095039D03*
X0166372Y0098039D03*
X0164372Y0098039D03*
X0190712Y0091039D03*
X0110712Y0044039D03*
X0110712Y0043039D03*
X0110372Y0042039D03*
X0108372Y0043039D03*
X0104372Y0043039D03*
X0104042Y0044039D03*
X0104042Y0050039D03*
X0104042Y0055039D03*
X0104042Y0056039D03*
X0105372Y0060039D03*
X0108712Y0061039D03*
X0108712Y0059039D03*
X0108712Y0056039D03*
X0108712Y0055039D03*
X0102372Y0061039D03*
X0106372Y0065039D03*
X0106372Y0066039D03*
X0106372Y0067039D03*
X0104042Y0066039D03*
X0108712Y0066039D03*
X0104042Y0072039D03*
X0104372Y0077039D03*
X0104042Y0078039D03*
X0106042Y0077039D03*
X0106372Y0078039D03*
X0108712Y0078039D03*
X0108712Y0077039D03*
X0108712Y0083039D03*
X0108712Y0084039D03*
X0104042Y0084039D03*
X0104042Y0083039D03*
X0104042Y0089039D03*
X0104042Y0090039D03*
X0072042Y0051039D03*
X0077372Y0048039D03*
X0077372Y0047039D03*
X0072712Y0044039D03*
X0072712Y0043039D03*
X0073042Y0038039D03*
X0072712Y0037039D03*
X0077042Y0036039D03*
X0077372Y0038039D03*
X0077042Y0032039D03*
X0077372Y0030039D03*
X0072712Y0030039D03*
X0072712Y0031039D03*
X0108712Y0037039D03*
X0051372Y0089039D03*
X0051042Y0091039D03*
X0051042Y0095039D03*
X0051372Y0097039D03*
X0047042Y0097039D03*
X0046712Y0096039D03*
X0046712Y0090039D03*
X0046712Y0089039D03*
X0046712Y0102039D03*
X0046712Y0103039D03*
X0051372Y0106039D03*
X0051372Y0107039D03*
X0051372Y0110039D03*
X0051372Y0111039D03*
X0051372Y0112039D03*
X0051372Y0113039D03*
X0048712Y0111039D03*
X0045042Y0111039D03*
X0045042Y0110039D03*
X0045372Y0109039D03*
X0046712Y0159039D03*
X0046712Y0160039D03*
X0047042Y0161039D03*
X0051372Y0159039D03*
X0051372Y0166039D03*
X0051372Y0167039D03*
X0046712Y0167039D03*
X0046712Y0166039D03*
X0046712Y0172039D03*
X0046712Y0173039D03*
X0051372Y0176039D03*
X0051372Y0180039D03*
X0048042Y0181039D03*
X0045042Y0180039D03*
X0120542Y0179539D03*
X0126542Y0179539D03*
D22*
X0123542Y0176539D03*
X0123542Y0170539D03*
X0123542Y0164539D03*
X0187372Y0139039D03*
X0187372Y0090039D03*
X0187372Y0063039D03*
X0135372Y0039039D03*
X0135372Y0031039D03*
X0135372Y0030039D03*
X0074372Y0052039D03*
D23*
X0074372Y0046373D03*
X0105372Y0054373D03*
X0135372Y0039706D03*
X0135372Y0039373D03*
X0135372Y0038706D03*
X0135372Y0031373D03*
X0135372Y0030706D03*
X0135372Y0030373D03*
X0187372Y0058706D03*
X0189042Y0103373D03*
X0189042Y0109706D03*
X0186712Y0112373D03*
X0123542Y0164206D03*
X0123542Y0164873D03*
X0123542Y0169873D03*
X0123542Y0170206D03*
X0123542Y0175873D03*
X0123542Y0176206D03*
X0048372Y0105373D03*
D24*
X0051542Y0106373D03*
X0051542Y0106706D03*
X0051542Y0096373D03*
X0051542Y0089706D03*
X0077542Y0047706D03*
X0077542Y0047373D03*
X0077542Y0037373D03*
X0077542Y0030706D03*
X0108542Y0043706D03*
X0110542Y0042373D03*
X0110542Y0041706D03*
X0108542Y0056373D03*
X0129542Y0072706D03*
X0137542Y0051373D03*
X0137542Y0050706D03*
X0158542Y0095373D03*
X0158542Y0095706D03*
X0158542Y0096706D03*
X0158542Y0097373D03*
X0158542Y0097706D03*
X0158542Y0098373D03*
X0163542Y0096706D03*
X0163542Y0096373D03*
X0190542Y0096373D03*
X0192542Y0101373D03*
X0192542Y0101706D03*
X0192542Y0107706D03*
X0190542Y0118706D03*
X0190542Y0119373D03*
X0190542Y0145706D03*
X0190542Y0173373D03*
X0190542Y0177373D03*
X0190542Y0177706D03*
X0190542Y0178373D03*
X0190542Y0178706D03*
X0190542Y0179373D03*
X0190542Y0179706D03*
X0190542Y0182373D03*
X0190542Y0182706D03*
X0190542Y0183373D03*
X0190542Y0183706D03*
X0190542Y0184373D03*
X0190542Y0184706D03*
X0190542Y0189706D03*
X0160542Y0143706D03*
X0160542Y0143373D03*
X0160542Y0142706D03*
X0160542Y0142373D03*
X0160542Y0141706D03*
X0160542Y0141373D03*
X0160542Y0139706D03*
X0158542Y0142373D03*
X0157542Y0142373D03*
X0157542Y0141706D03*
X0157542Y0141373D03*
X0157542Y0140706D03*
X0157542Y0140373D03*
X0157542Y0139706D03*
X0157542Y0143706D03*
X0190542Y0060706D03*
X0190542Y0055373D03*
X0051542Y0159706D03*
X0051542Y0166373D03*
X0051542Y0176706D03*
X0051542Y0180373D03*
X0051542Y0180706D03*
D25*
X0051542Y0181039D03*
X0051542Y0177039D03*
X0051542Y0160039D03*
X0051542Y0096039D03*
X0051542Y0090039D03*
X0077542Y0037039D03*
X0077542Y0031039D03*
X0102542Y0062039D03*
X0108542Y0058039D03*
X0108542Y0068039D03*
X0108542Y0076039D03*
X0129542Y0073039D03*
X0137542Y0051039D03*
X0108542Y0044039D03*
X0158542Y0095039D03*
X0158542Y0096039D03*
X0158542Y0097039D03*
X0158542Y0098039D03*
X0163542Y0097039D03*
X0163542Y0096039D03*
X0190542Y0095039D03*
X0190542Y0092039D03*
X0192542Y0108039D03*
X0190542Y0117039D03*
X0190542Y0119039D03*
X0190542Y0122039D03*
X0190542Y0141039D03*
X0190542Y0146039D03*
X0160542Y0144039D03*
X0160542Y0143039D03*
X0160542Y0142039D03*
X0160542Y0141039D03*
X0159542Y0141039D03*
X0157542Y0141039D03*
X0157542Y0140039D03*
X0157542Y0142039D03*
X0157542Y0144039D03*
X0190542Y0178039D03*
X0190542Y0179039D03*
X0190542Y0181039D03*
X0190542Y0183039D03*
X0190542Y0184039D03*
X0190542Y0185039D03*
X0190542Y0065039D03*
D26*
X0134542Y0038373D03*
X0134542Y0037706D03*
X0134542Y0037373D03*
X0134542Y0032706D03*
X0134542Y0032373D03*
X0134542Y0031706D03*
D27*
X0134542Y0032039D03*
X0134542Y0038039D03*
D28*
X0132207Y0046373D03*
X0132207Y0046706D03*
X0132207Y0051706D03*
X0187877Y0052373D03*
X0187877Y0170373D03*
X0075207Y0038706D03*
X0075207Y0032373D03*
X0049207Y0091373D03*
X0049207Y0097706D03*
D29*
X0049212Y0094373D03*
X0049212Y0091706D03*
X0075212Y0035373D03*
X0075212Y0032706D03*
X0107212Y0074373D03*
X0106542Y0081706D03*
X0106542Y0085373D03*
X0128542Y0120373D03*
X0128542Y0130373D03*
X0188212Y0186706D03*
X0188212Y0070706D03*
D30*
X0189042Y0125039D03*
X0189042Y0128039D03*
X0188372Y0131039D03*
X0187712Y0133039D03*
X0130372Y0087039D03*
X0128372Y0120039D03*
X0107212Y0159539D03*
X0107212Y0160539D03*
X0107212Y0161539D03*
X0123542Y0181539D03*
X0049042Y0094039D03*
X0049042Y0092039D03*
X0075042Y0035039D03*
X0075042Y0033039D03*
X0130372Y0033039D03*
X0130372Y0034039D03*
X0130372Y0036039D03*
X0130372Y0037039D03*
D31*
X0130372Y0036706D03*
X0130372Y0036373D03*
X0130372Y0033706D03*
X0130372Y0033373D03*
X0106372Y0041706D03*
X0103712Y0058706D03*
X0107712Y0078706D03*
X0106372Y0081373D03*
X0106372Y0085706D03*
X0128372Y0124373D03*
X0128372Y0130706D03*
X0107212Y0159873D03*
X0107212Y0160206D03*
X0107212Y0160873D03*
X0107212Y0161206D03*
X0107212Y0161873D03*
X0049712Y0182706D03*
X0046372Y0112373D03*
X0049042Y0098373D03*
X0075042Y0039373D03*
X0188042Y0127706D03*
X0188042Y0129706D03*
X0188712Y0132706D03*
D32*
X0186542Y0130373D03*
X0189872Y0128373D03*
X0185542Y0121373D03*
X0186872Y0143373D03*
X0189542Y0143373D03*
X0188212Y0168373D03*
X0189872Y0176706D03*
X0187542Y0190373D03*
X0129872Y0120706D03*
X0128212Y0109706D03*
X0141542Y0086706D03*
X0141542Y0086373D03*
X0133542Y0069706D03*
X0133542Y0069373D03*
X0141542Y0047706D03*
X0141542Y0047373D03*
X0107542Y0042373D03*
X0107212Y0062373D03*
X0105872Y0068373D03*
X0105212Y0076373D03*
X0076542Y0035706D03*
X0050542Y0094706D03*
X0050872Y0109373D03*
X0049212Y0162373D03*
X0049212Y0168706D03*
X0046212Y0182706D03*
X0188212Y0071373D03*
X0188212Y0066373D03*
X0188212Y0050373D03*
D33*
X0187042Y0046039D03*
X0105042Y0036039D03*
X0187042Y0164039D03*
D34*
X0186872Y0164373D03*
X0186872Y0164706D03*
X0186872Y0148373D03*
X0186872Y0112706D03*
X0127212Y0108706D03*
X0127212Y0108373D03*
X0127212Y0126706D03*
X0105212Y0048706D03*
X0105212Y0048373D03*
X0105212Y0036373D03*
X0186872Y0046373D03*
X0186872Y0046706D03*
D35*
X0188542Y0110373D03*
X0128542Y0114373D03*
X0128542Y0117373D03*
X0106542Y0088373D03*
X0106542Y0087706D03*
X0106542Y0073706D03*
X0106542Y0070706D03*
X0106542Y0070373D03*
X0106542Y0051373D03*
X0106542Y0039373D03*
X0106542Y0038706D03*
X0047542Y0174706D03*
D36*
X0049212Y0098039D03*
X0075212Y0039039D03*
X0106212Y0042039D03*
X0107212Y0052039D03*
X0129212Y0118039D03*
X0128542Y0124039D03*
X0188212Y0143039D03*
X0188872Y0077039D03*
X0188212Y0067039D03*
D37*
X0188542Y0104039D03*
X0128542Y0114039D03*
X0106542Y0088039D03*
X0106542Y0039039D03*
D38*
X0102042Y0039706D03*
X0131042Y0112373D03*
D39*
X0131877Y0051373D03*
X0131877Y0050706D03*
X0131877Y0047706D03*
X0131877Y0047373D03*
X0188207Y0055706D03*
X0188207Y0056373D03*
X0188207Y0073373D03*
X0188207Y0073706D03*
X0188207Y0135706D03*
X0188207Y0136373D03*
X0188207Y0173706D03*
X0188207Y0174373D03*
X0188207Y0192706D03*
X0188207Y0193373D03*
X0074377Y0182873D03*
X0074377Y0182206D03*
X0074377Y0181873D03*
X0074377Y0181206D03*
X0074377Y0180873D03*
X0074377Y0180206D03*
X0074377Y0179873D03*
X0074377Y0179206D03*
X0074377Y0178873D03*
X0074377Y0178206D03*
X0074377Y0166873D03*
X0074377Y0166206D03*
X0074377Y0165873D03*
X0074377Y0165206D03*
X0074377Y0164873D03*
X0049207Y0170706D03*
X0049207Y0100706D03*
X0049207Y0100373D03*
X0075207Y0041706D03*
X0075207Y0041373D03*
D40*
X0075207Y0042039D03*
X0049207Y0101039D03*
X0074377Y0164539D03*
X0074377Y0165539D03*
X0074377Y0166539D03*
X0074377Y0178539D03*
X0074377Y0179539D03*
X0074377Y0180539D03*
X0074377Y0181539D03*
X0074377Y0182539D03*
X0049207Y0171039D03*
X0131877Y0051039D03*
X0131877Y0047039D03*
X0188207Y0056039D03*
X0188207Y0073039D03*
X0188207Y0136039D03*
X0188207Y0174039D03*
X0188207Y0193039D03*
D41*
X0189042Y0182373D03*
X0190042Y0181706D03*
X0160042Y0140706D03*
X0164042Y0139706D03*
X0188042Y0124706D03*
X0190042Y0131706D03*
X0190042Y0094373D03*
X0137042Y0086706D03*
X0137042Y0086373D03*
X0129042Y0072373D03*
X0129042Y0071706D03*
X0130042Y0068706D03*
X0130042Y0068373D03*
X0129042Y0050373D03*
X0129042Y0049706D03*
X0129042Y0048706D03*
X0129042Y0048373D03*
X0137042Y0049706D03*
X0137042Y0050373D03*
X0138042Y0046706D03*
X0138042Y0046373D03*
X0105042Y0042373D03*
X0127042Y0120706D03*
X0051042Y0175706D03*
D42*
X0048207Y0175373D03*
X0107207Y0045373D03*
X0187207Y0058373D03*
X0187207Y0062706D03*
X0187207Y0089706D03*
X0188877Y0103706D03*
X0187207Y0138706D03*
D43*
X0106872Y0045706D03*
X0073872Y0045706D03*
X0047872Y0104706D03*
D44*
X0048207Y0105039D03*
X0074207Y0046039D03*
X0105207Y0054039D03*
X0188877Y0110039D03*
D45*
X0190207Y0109039D03*
X0185877Y0109039D03*
X0185877Y0108039D03*
X0185877Y0102039D03*
X0185877Y0096039D03*
X0167207Y0096039D03*
X0167207Y0097039D03*
X0162207Y0097039D03*
X0162207Y0096039D03*
X0162207Y0095039D03*
X0162207Y0098039D03*
X0185877Y0118039D03*
X0188207Y0118039D03*
X0188207Y0117039D03*
X0185877Y0134039D03*
X0185877Y0145039D03*
X0185877Y0149039D03*
X0185877Y0150039D03*
X0185877Y0166039D03*
X0185877Y0185039D03*
X0185877Y0188039D03*
X0188207Y0188039D03*
X0188207Y0189039D03*
X0185877Y0194039D03*
X0185877Y0195039D03*
X0165877Y0142039D03*
X0162207Y0142039D03*
X0158877Y0142039D03*
X0130877Y0128039D03*
X0130877Y0122039D03*
X0104207Y0079039D03*
X0108877Y0067039D03*
X0108877Y0060039D03*
X0102207Y0060039D03*
X0104207Y0049039D03*
X0132207Y0049039D03*
X0132207Y0048039D03*
X0132207Y0050039D03*
X0185877Y0048039D03*
X0185877Y0069039D03*
X0185877Y0074039D03*
X0185877Y0075039D03*
X0126707Y0165539D03*
X0126707Y0166539D03*
X0126707Y0167539D03*
X0126707Y0171539D03*
X0126707Y0172539D03*
X0126707Y0173539D03*
X0123377Y0173539D03*
X0123377Y0172539D03*
X0123377Y0171539D03*
X0120377Y0171539D03*
X0120377Y0172539D03*
X0120377Y0173539D03*
X0120377Y0177539D03*
X0120377Y0178539D03*
X0126707Y0178539D03*
X0126707Y0177539D03*
X0051207Y0179039D03*
X0046877Y0177039D03*
X0046877Y0176039D03*
X0044877Y0181039D03*
X0046877Y0107039D03*
X0046877Y0106039D03*
X0072877Y0048039D03*
X0072877Y0047039D03*
D46*
X0130042Y0069039D03*
X0138042Y0047039D03*
X0188042Y0100039D03*
X0049042Y0162039D03*
D47*
X0121712Y0180539D03*
X0125372Y0180539D03*
X0186542Y0184039D03*
X0189872Y0171039D03*
X0189872Y0129039D03*
X0186542Y0127039D03*
X0188212Y0098039D03*
X0189872Y0053039D03*
X0141542Y0047039D03*
X0133542Y0069039D03*
X0137212Y0087039D03*
X0141542Y0087039D03*
X0107872Y0082039D03*
D48*
X0130042Y0069706D03*
X0130042Y0069373D03*
X0138042Y0047706D03*
X0138042Y0047373D03*
X0188042Y0106373D03*
X0049042Y0164373D03*
X0049042Y0168373D03*
D49*
X0127212Y0127039D03*
X0127212Y0109039D03*
X0105212Y0048039D03*
X0186872Y0113039D03*
X0186872Y0148039D03*
D50*
X0164042Y0144039D03*
X0188042Y0183039D03*
X0105042Y0082039D03*
X0129042Y0072039D03*
X0130042Y0068039D03*
X0129042Y0050039D03*
X0129042Y0048039D03*
X0137042Y0050039D03*
D51*
X0108707Y0056706D03*
X0077377Y0048706D03*
X0051377Y0107706D03*
X0190707Y0092373D03*
X0190707Y0065373D03*
X0190707Y0141373D03*
D52*
X0188707Y0151706D03*
X0188377Y0167706D03*
X0188377Y0097373D03*
X0188377Y0049706D03*
X0139377Y0087373D03*
X0139377Y0087706D03*
X0131377Y0081373D03*
X0131377Y0080706D03*
X0131377Y0075706D03*
X0131377Y0075373D03*
X0106377Y0064706D03*
D53*
X0187207Y0052039D03*
X0188207Y0050039D03*
X0188207Y0071039D03*
X0188207Y0168039D03*
X0187207Y0170039D03*
D54*
X0188377Y0115706D03*
X0188377Y0093706D03*
X0140707Y0051373D03*
X0140707Y0050706D03*
X0132707Y0072706D03*
X0106377Y0064373D03*
D55*
X0132707Y0073039D03*
X0140707Y0051039D03*
D56*
X0106712Y0051706D03*
X0128712Y0117706D03*
X0123542Y0180873D03*
X0188042Y0170706D03*
X0188372Y0151373D03*
X0188372Y0076373D03*
X0188042Y0052706D03*
D57*
X0132207Y0052039D03*
D58*
X0132042Y0052373D03*
X0188042Y0100373D03*
X0188042Y0106706D03*
X0123542Y0181206D03*
X0049042Y0164706D03*
X0049042Y0161706D03*
D59*
X0109207Y0164873D03*
X0109207Y0165206D03*
X0109207Y0165873D03*
X0109207Y0166206D03*
X0109207Y0166873D03*
X0109207Y0178206D03*
X0109207Y0178873D03*
X0109207Y0179206D03*
X0109207Y0179873D03*
X0109207Y0180206D03*
X0109207Y0180873D03*
X0109207Y0181206D03*
X0131377Y0091706D03*
X0131377Y0091373D03*
X0131377Y0090706D03*
X0131377Y0090373D03*
X0131377Y0088706D03*
X0131377Y0088373D03*
X0131377Y0087706D03*
X0131377Y0087373D03*
X0131377Y0084373D03*
X0131377Y0083706D03*
X0131377Y0083373D03*
X0131377Y0082706D03*
X0131377Y0080373D03*
X0131377Y0076706D03*
X0131377Y0076373D03*
X0139377Y0076373D03*
X0139377Y0076706D03*
X0139377Y0077373D03*
X0139377Y0077706D03*
X0139377Y0082706D03*
X0139377Y0083373D03*
X0139377Y0083706D03*
X0139377Y0084373D03*
X0139377Y0069706D03*
X0139377Y0069373D03*
X0139377Y0068706D03*
X0139377Y0068373D03*
X0139377Y0064706D03*
X0139377Y0064373D03*
X0139377Y0063706D03*
X0139377Y0063373D03*
X0139377Y0059373D03*
X0139377Y0058706D03*
X0139377Y0058373D03*
X0139377Y0054706D03*
X0139377Y0054373D03*
X0139377Y0053706D03*
X0139377Y0053373D03*
X0131377Y0053373D03*
X0131377Y0053706D03*
X0131377Y0054373D03*
X0131377Y0054706D03*
X0131377Y0058373D03*
X0131377Y0058706D03*
X0131377Y0059373D03*
X0131377Y0060706D03*
X0131377Y0061373D03*
X0131377Y0061706D03*
X0131377Y0062373D03*
D60*
X0105042Y0053706D03*
X0187042Y0062373D03*
X0187042Y0089373D03*
X0187042Y0138373D03*
D61*
X0139377Y0084039D03*
X0139377Y0083039D03*
X0139377Y0077039D03*
X0131377Y0077039D03*
X0131377Y0080039D03*
X0131377Y0083039D03*
X0131377Y0084039D03*
X0131377Y0088039D03*
X0131377Y0090039D03*
X0131377Y0091039D03*
X0139377Y0069039D03*
X0139377Y0068039D03*
X0139377Y0065039D03*
X0139377Y0064039D03*
X0139377Y0059039D03*
X0139377Y0058039D03*
X0139377Y0055039D03*
X0139377Y0054039D03*
X0131377Y0054039D03*
X0131377Y0055039D03*
X0131377Y0058039D03*
X0131377Y0059039D03*
X0131377Y0061039D03*
X0131377Y0062039D03*
X0109207Y0164539D03*
X0109207Y0165539D03*
X0109207Y0166539D03*
X0109207Y0178539D03*
X0109207Y0179539D03*
X0109207Y0180539D03*
X0109207Y0181539D03*
D62*
X0107377Y0181873D03*
X0107377Y0182206D03*
X0107377Y0182873D03*
X0046207Y0182373D03*
X0131207Y0085706D03*
X0131207Y0085373D03*
X0139207Y0088373D03*
X0139207Y0088706D03*
X0161207Y0094373D03*
X0161207Y0094706D03*
X0188207Y0093373D03*
X0188207Y0099706D03*
X0188207Y0115373D03*
X0189207Y0125373D03*
X0189207Y0129373D03*
X0189207Y0131373D03*
X0186877Y0133373D03*
X0186877Y0178373D03*
X0187207Y0189706D03*
X0105207Y0076706D03*
X0131207Y0056706D03*
X0131207Y0056373D03*
X0132207Y0055706D03*
X0132207Y0055373D03*
X0132207Y0057373D03*
X0132207Y0057706D03*
D63*
X0132207Y0057039D03*
X0131207Y0056039D03*
X0107207Y0062039D03*
X0131207Y0086039D03*
X0139207Y0088039D03*
X0187207Y0119039D03*
X0186877Y0130039D03*
X0188207Y0106039D03*
X0187207Y0187039D03*
X0107377Y0182539D03*
D64*
X0048042Y0175039D03*
X0187042Y0058039D03*
D65*
X0165377Y0094706D03*
X0165377Y0098373D03*
X0161377Y0096373D03*
X0157707Y0096373D03*
X0187377Y0119373D03*
X0189707Y0132373D03*
X0186707Y0178706D03*
X0186707Y0183706D03*
X0103707Y0058373D03*
X0050707Y0109706D03*
X0046377Y0112706D03*
D66*
X0107207Y0061706D03*
X0187207Y0127373D03*
X0187207Y0130706D03*
X0188207Y0142706D03*
X0188207Y0186373D03*
X0188207Y0097706D03*
X0188207Y0066706D03*
X0049877Y0182373D03*
D67*
X0130542Y0085039D03*
X0106542Y0064039D03*
D68*
X0105542Y0067706D03*
X0130542Y0084706D03*
X0130542Y0086373D03*
X0130542Y0086706D03*
X0157542Y0094373D03*
X0157542Y0094706D03*
X0185542Y0121706D03*
D69*
X0189707Y0177039D03*
X0189707Y0182039D03*
X0187377Y0190039D03*
X0107707Y0079039D03*
X0105707Y0068039D03*
X0049707Y0183039D03*
D70*
X0106377Y0071039D03*
D71*
X0106712Y0074039D03*
X0188372Y0151039D03*
D72*
X0188377Y0116039D03*
X0188377Y0094039D03*
X0131377Y0081039D03*
X0131377Y0076039D03*
X0046707Y0182039D03*
D73*
X0128542Y0123706D03*
X0188542Y0076706D03*
D74*
X0128542Y0130039D03*
X0106542Y0085039D03*
D75*
X0128042Y0110039D03*
X0164042Y0140039D03*
X0049042Y0164039D03*
D76*
X0046542Y0112039D03*
X0185542Y0122039D03*
D77*
X0126042Y0112039D03*
X0045042Y0179039D03*
D78*
X0128377Y0114706D03*
D79*
X0190377Y0121039D03*
D80*
X0187042Y0147706D03*
X0127042Y0126373D03*
D81*
X0164042Y0143706D03*
D82*
X0088377Y0148873D03*
X0088377Y0149206D03*
X0088377Y0149873D03*
X0088377Y0150206D03*
X0088377Y0150873D03*
X0088377Y0151206D03*
X0088377Y0151873D03*
X0088377Y0152206D03*
X0088377Y0192873D03*
X0088377Y0193206D03*
X0088377Y0193873D03*
X0088377Y0194206D03*
X0088377Y0194873D03*
X0088377Y0195206D03*
X0088377Y0195873D03*
D83*
X0088377Y0195539D03*
X0088377Y0194539D03*
X0088377Y0193539D03*
X0088377Y0151539D03*
X0088377Y0150539D03*
X0088377Y0149539D03*
D84*
X0088372Y0152539D03*
X0088372Y0153539D03*
X0088372Y0154539D03*
X0088372Y0189539D03*
X0088372Y0190539D03*
X0088372Y0191539D03*
X0088372Y0192539D03*
D85*
X0088372Y0192206D03*
X0088372Y0191873D03*
X0088372Y0191206D03*
X0088372Y0190873D03*
X0088372Y0190206D03*
X0088372Y0189873D03*
X0088372Y0189206D03*
X0088372Y0155206D03*
X0088372Y0154873D03*
X0088372Y0154206D03*
X0088372Y0153873D03*
X0088372Y0153206D03*
X0088372Y0152873D03*
D86*
X0083872Y0155539D03*
X0083872Y0156539D03*
X0083872Y0157539D03*
X0083872Y0158539D03*
X0083872Y0159539D03*
D87*
X0083872Y0159206D03*
X0083872Y0158873D03*
X0083872Y0158206D03*
X0083872Y0157873D03*
X0083872Y0157206D03*
X0083872Y0156873D03*
X0083872Y0156206D03*
X0083872Y0155873D03*
D88*
X0082042Y0159873D03*
X0082042Y0160206D03*
X0082042Y0160873D03*
X0082042Y0161206D03*
X0082042Y0161873D03*
D89*
X0082042Y0161539D03*
X0082042Y0160539D03*
D90*
X0090212Y0162206D03*
X0090212Y0162873D03*
X0090212Y0163206D03*
X0090212Y0183206D03*
X0090212Y0183873D03*
X0090212Y0184206D03*
X0090212Y0184873D03*
D91*
X0090212Y0184539D03*
X0090212Y0183539D03*
X0090212Y0162539D03*
D92*
X0092042Y0163539D03*
D93*
X0092042Y0163873D03*
X0092042Y0164206D03*
D94*
X0091542Y0164539D03*
X0091542Y0165539D03*
X0091542Y0166539D03*
X0091542Y0167539D03*
X0091542Y0168539D03*
X0091542Y0169539D03*
X0091542Y0177539D03*
X0091542Y0178539D03*
X0091542Y0179539D03*
X0091542Y0180539D03*
X0091542Y0181539D03*
X0091542Y0182539D03*
D95*
X0091542Y0182206D03*
X0091542Y0181873D03*
X0091542Y0181206D03*
X0091542Y0180873D03*
X0091542Y0180206D03*
X0091542Y0179873D03*
X0091542Y0179206D03*
X0091542Y0178873D03*
X0091542Y0178206D03*
X0091542Y0177873D03*
X0091542Y0177206D03*
X0091542Y0176873D03*
X0091542Y0182873D03*
X0091542Y0170206D03*
X0091542Y0169873D03*
X0091542Y0169206D03*
X0091542Y0168873D03*
X0091542Y0168206D03*
X0091542Y0167873D03*
X0091542Y0167206D03*
X0091542Y0166873D03*
X0091542Y0166206D03*
X0091542Y0165873D03*
X0091542Y0165206D03*
X0091542Y0164873D03*
D96*
X0049042Y0168039D03*
D97*
X0072542Y0168206D03*
X0072542Y0167873D03*
X0072542Y0167206D03*
X0072542Y0168873D03*
X0072542Y0169206D03*
X0072542Y0169873D03*
X0072542Y0170206D03*
X0072542Y0176873D03*
X0072542Y0177206D03*
X0072542Y0177873D03*
D98*
X0111042Y0177873D03*
X0111042Y0177206D03*
X0111042Y0176873D03*
X0111042Y0170206D03*
X0111042Y0169873D03*
X0111042Y0169206D03*
X0111042Y0168873D03*
X0111042Y0168206D03*
X0111042Y0167873D03*
X0111042Y0167206D03*
D99*
X0072542Y0167539D03*
X0072542Y0168539D03*
X0072542Y0169539D03*
X0072542Y0177539D03*
D100*
X0111042Y0177539D03*
X0111042Y0169539D03*
X0111042Y0168539D03*
X0111042Y0167539D03*
D101*
X0049042Y0171373D03*
D102*
X0092042Y0171539D03*
X0092042Y0170539D03*
X0092042Y0172539D03*
X0092042Y0173539D03*
X0092042Y0174539D03*
X0092042Y0175539D03*
X0092042Y0176539D03*
D103*
X0092042Y0176206D03*
X0092042Y0175873D03*
X0092042Y0175206D03*
X0092042Y0174873D03*
X0092042Y0174206D03*
X0092042Y0173873D03*
X0092042Y0173206D03*
X0092042Y0172873D03*
X0092042Y0172206D03*
X0092042Y0171873D03*
X0092042Y0171206D03*
X0092042Y0170873D03*
D104*
X0088377Y0185206D03*
D105*
X0090207Y0185539D03*
X0090207Y0186539D03*
X0090207Y0187539D03*
X0090207Y0188539D03*
D106*
X0090207Y0188206D03*
X0090207Y0187873D03*
X0090207Y0187206D03*
X0090207Y0186873D03*
X0090207Y0186206D03*
X0090207Y0185873D03*
X0090207Y0188873D03*
D107*
X0154484Y0136591D02*
X0154484Y0101157D01*
X0154681Y0101157D02*
X0168067Y0101157D01*
X0168264Y0101157D02*
X0168264Y0136591D01*
X0168067Y0136591D02*
X0154681Y0136591D01*
X0154563Y0073185D02*
X0154563Y0049563D01*
X0178185Y0049563D01*
X0178185Y0073185D01*
X0154563Y0073185D01*
X0162437Y0061374D02*
X0162439Y0061499D01*
X0162445Y0061624D01*
X0162455Y0061748D01*
X0162469Y0061872D01*
X0162486Y0061996D01*
X0162508Y0062119D01*
X0162534Y0062241D01*
X0162563Y0062363D01*
X0162596Y0062483D01*
X0162634Y0062602D01*
X0162674Y0062721D01*
X0162719Y0062837D01*
X0162767Y0062952D01*
X0162819Y0063066D01*
X0162875Y0063178D01*
X0162934Y0063288D01*
X0162996Y0063396D01*
X0163062Y0063503D01*
X0163131Y0063607D01*
X0163204Y0063708D01*
X0163279Y0063808D01*
X0163358Y0063905D01*
X0163440Y0063999D01*
X0163525Y0064091D01*
X0163612Y0064180D01*
X0163703Y0064266D01*
X0163796Y0064349D01*
X0163892Y0064430D01*
X0163990Y0064507D01*
X0164090Y0064581D01*
X0164193Y0064652D01*
X0164298Y0064719D01*
X0164406Y0064784D01*
X0164515Y0064844D01*
X0164626Y0064902D01*
X0164739Y0064955D01*
X0164853Y0065005D01*
X0164969Y0065052D01*
X0165086Y0065094D01*
X0165205Y0065133D01*
X0165325Y0065169D01*
X0165446Y0065200D01*
X0165568Y0065228D01*
X0165690Y0065251D01*
X0165814Y0065271D01*
X0165938Y0065287D01*
X0166062Y0065299D01*
X0166187Y0065307D01*
X0166312Y0065311D01*
X0166436Y0065311D01*
X0166561Y0065307D01*
X0166686Y0065299D01*
X0166810Y0065287D01*
X0166934Y0065271D01*
X0167058Y0065251D01*
X0167180Y0065228D01*
X0167302Y0065200D01*
X0167423Y0065169D01*
X0167543Y0065133D01*
X0167662Y0065094D01*
X0167779Y0065052D01*
X0167895Y0065005D01*
X0168009Y0064955D01*
X0168122Y0064902D01*
X0168233Y0064844D01*
X0168343Y0064784D01*
X0168450Y0064719D01*
X0168555Y0064652D01*
X0168658Y0064581D01*
X0168758Y0064507D01*
X0168856Y0064430D01*
X0168952Y0064349D01*
X0169045Y0064266D01*
X0169136Y0064180D01*
X0169223Y0064091D01*
X0169308Y0063999D01*
X0169390Y0063905D01*
X0169469Y0063808D01*
X0169544Y0063708D01*
X0169617Y0063607D01*
X0169686Y0063503D01*
X0169752Y0063396D01*
X0169814Y0063288D01*
X0169873Y0063178D01*
X0169929Y0063066D01*
X0169981Y0062952D01*
X0170029Y0062837D01*
X0170074Y0062721D01*
X0170114Y0062602D01*
X0170152Y0062483D01*
X0170185Y0062363D01*
X0170214Y0062241D01*
X0170240Y0062119D01*
X0170262Y0061996D01*
X0170279Y0061872D01*
X0170293Y0061748D01*
X0170303Y0061624D01*
X0170309Y0061499D01*
X0170311Y0061374D01*
X0170309Y0061249D01*
X0170303Y0061124D01*
X0170293Y0061000D01*
X0170279Y0060876D01*
X0170262Y0060752D01*
X0170240Y0060629D01*
X0170214Y0060507D01*
X0170185Y0060385D01*
X0170152Y0060265D01*
X0170114Y0060146D01*
X0170074Y0060027D01*
X0170029Y0059911D01*
X0169981Y0059796D01*
X0169929Y0059682D01*
X0169873Y0059570D01*
X0169814Y0059460D01*
X0169752Y0059352D01*
X0169686Y0059245D01*
X0169617Y0059141D01*
X0169544Y0059040D01*
X0169469Y0058940D01*
X0169390Y0058843D01*
X0169308Y0058749D01*
X0169223Y0058657D01*
X0169136Y0058568D01*
X0169045Y0058482D01*
X0168952Y0058399D01*
X0168856Y0058318D01*
X0168758Y0058241D01*
X0168658Y0058167D01*
X0168555Y0058096D01*
X0168450Y0058029D01*
X0168342Y0057964D01*
X0168233Y0057904D01*
X0168122Y0057846D01*
X0168009Y0057793D01*
X0167895Y0057743D01*
X0167779Y0057696D01*
X0167662Y0057654D01*
X0167543Y0057615D01*
X0167423Y0057579D01*
X0167302Y0057548D01*
X0167180Y0057520D01*
X0167058Y0057497D01*
X0166934Y0057477D01*
X0166810Y0057461D01*
X0166686Y0057449D01*
X0166561Y0057441D01*
X0166436Y0057437D01*
X0166312Y0057437D01*
X0166187Y0057441D01*
X0166062Y0057449D01*
X0165938Y0057461D01*
X0165814Y0057477D01*
X0165690Y0057497D01*
X0165568Y0057520D01*
X0165446Y0057548D01*
X0165325Y0057579D01*
X0165205Y0057615D01*
X0165086Y0057654D01*
X0164969Y0057696D01*
X0164853Y0057743D01*
X0164739Y0057793D01*
X0164626Y0057846D01*
X0164515Y0057904D01*
X0164405Y0057964D01*
X0164298Y0058029D01*
X0164193Y0058096D01*
X0164090Y0058167D01*
X0163990Y0058241D01*
X0163892Y0058318D01*
X0163796Y0058399D01*
X0163703Y0058482D01*
X0163612Y0058568D01*
X0163525Y0058657D01*
X0163440Y0058749D01*
X0163358Y0058843D01*
X0163279Y0058940D01*
X0163204Y0059040D01*
X0163131Y0059141D01*
X0163062Y0059245D01*
X0162996Y0059352D01*
X0162934Y0059460D01*
X0162875Y0059570D01*
X0162819Y0059682D01*
X0162767Y0059796D01*
X0162719Y0059911D01*
X0162674Y0060027D01*
X0162634Y0060146D01*
X0162596Y0060265D01*
X0162563Y0060385D01*
X0162534Y0060507D01*
X0162508Y0060629D01*
X0162486Y0060752D01*
X0162469Y0060876D01*
X0162455Y0061000D01*
X0162445Y0061124D01*
X0162439Y0061249D01*
X0162437Y0061374D01*
X0160455Y0061374D02*
X0160457Y0061528D01*
X0160463Y0061681D01*
X0160473Y0061835D01*
X0160487Y0061988D01*
X0160505Y0062140D01*
X0160527Y0062292D01*
X0160552Y0062444D01*
X0160582Y0062595D01*
X0160616Y0062745D01*
X0160653Y0062894D01*
X0160695Y0063042D01*
X0160740Y0063188D01*
X0160789Y0063334D01*
X0160842Y0063478D01*
X0160898Y0063621D01*
X0160958Y0063763D01*
X0161022Y0063903D01*
X0161090Y0064041D01*
X0161161Y0064177D01*
X0161235Y0064311D01*
X0161313Y0064444D01*
X0161395Y0064574D01*
X0161479Y0064702D01*
X0161567Y0064828D01*
X0161659Y0064952D01*
X0161753Y0065073D01*
X0161851Y0065192D01*
X0161951Y0065308D01*
X0162055Y0065421D01*
X0162162Y0065532D01*
X0162271Y0065640D01*
X0162383Y0065745D01*
X0162498Y0065847D01*
X0162615Y0065946D01*
X0162735Y0066042D01*
X0162858Y0066135D01*
X0162982Y0066225D01*
X0163110Y0066311D01*
X0163239Y0066395D01*
X0163370Y0066474D01*
X0163504Y0066550D01*
X0163639Y0066623D01*
X0163776Y0066692D01*
X0163915Y0066758D01*
X0164056Y0066820D01*
X0164198Y0066878D01*
X0164342Y0066933D01*
X0164487Y0066984D01*
X0164633Y0067031D01*
X0164780Y0067074D01*
X0164929Y0067114D01*
X0165078Y0067149D01*
X0165229Y0067181D01*
X0165380Y0067209D01*
X0165532Y0067233D01*
X0165684Y0067253D01*
X0165837Y0067269D01*
X0165990Y0067281D01*
X0166144Y0067289D01*
X0166297Y0067293D01*
X0166451Y0067293D01*
X0166604Y0067289D01*
X0166758Y0067281D01*
X0166911Y0067269D01*
X0167064Y0067253D01*
X0167216Y0067233D01*
X0167368Y0067209D01*
X0167519Y0067181D01*
X0167670Y0067149D01*
X0167819Y0067114D01*
X0167968Y0067074D01*
X0168115Y0067031D01*
X0168261Y0066984D01*
X0168406Y0066933D01*
X0168550Y0066878D01*
X0168692Y0066820D01*
X0168833Y0066758D01*
X0168972Y0066692D01*
X0169109Y0066623D01*
X0169244Y0066550D01*
X0169378Y0066474D01*
X0169509Y0066395D01*
X0169638Y0066311D01*
X0169766Y0066225D01*
X0169890Y0066135D01*
X0170013Y0066042D01*
X0170133Y0065946D01*
X0170250Y0065847D01*
X0170365Y0065745D01*
X0170477Y0065640D01*
X0170586Y0065532D01*
X0170693Y0065421D01*
X0170797Y0065308D01*
X0170897Y0065192D01*
X0170995Y0065073D01*
X0171089Y0064952D01*
X0171181Y0064828D01*
X0171269Y0064702D01*
X0171353Y0064574D01*
X0171435Y0064444D01*
X0171513Y0064311D01*
X0171587Y0064177D01*
X0171658Y0064041D01*
X0171726Y0063903D01*
X0171790Y0063763D01*
X0171850Y0063621D01*
X0171906Y0063478D01*
X0171959Y0063334D01*
X0172008Y0063188D01*
X0172053Y0063042D01*
X0172095Y0062894D01*
X0172132Y0062745D01*
X0172166Y0062595D01*
X0172196Y0062444D01*
X0172221Y0062292D01*
X0172243Y0062140D01*
X0172261Y0061988D01*
X0172275Y0061835D01*
X0172285Y0061681D01*
X0172291Y0061528D01*
X0172293Y0061374D01*
X0172291Y0061220D01*
X0172285Y0061067D01*
X0172275Y0060913D01*
X0172261Y0060760D01*
X0172243Y0060608D01*
X0172221Y0060456D01*
X0172196Y0060304D01*
X0172166Y0060153D01*
X0172132Y0060003D01*
X0172095Y0059854D01*
X0172053Y0059706D01*
X0172008Y0059560D01*
X0171959Y0059414D01*
X0171906Y0059270D01*
X0171850Y0059127D01*
X0171790Y0058985D01*
X0171726Y0058845D01*
X0171658Y0058707D01*
X0171587Y0058571D01*
X0171513Y0058437D01*
X0171435Y0058304D01*
X0171353Y0058174D01*
X0171269Y0058046D01*
X0171181Y0057920D01*
X0171089Y0057796D01*
X0170995Y0057675D01*
X0170897Y0057556D01*
X0170797Y0057440D01*
X0170693Y0057327D01*
X0170586Y0057216D01*
X0170477Y0057108D01*
X0170365Y0057003D01*
X0170250Y0056901D01*
X0170133Y0056802D01*
X0170013Y0056706D01*
X0169890Y0056613D01*
X0169766Y0056523D01*
X0169638Y0056437D01*
X0169509Y0056353D01*
X0169378Y0056274D01*
X0169244Y0056198D01*
X0169109Y0056125D01*
X0168972Y0056056D01*
X0168833Y0055990D01*
X0168692Y0055928D01*
X0168550Y0055870D01*
X0168406Y0055815D01*
X0168261Y0055764D01*
X0168115Y0055717D01*
X0167968Y0055674D01*
X0167819Y0055634D01*
X0167670Y0055599D01*
X0167519Y0055567D01*
X0167368Y0055539D01*
X0167216Y0055515D01*
X0167064Y0055495D01*
X0166911Y0055479D01*
X0166758Y0055467D01*
X0166604Y0055459D01*
X0166451Y0055455D01*
X0166297Y0055455D01*
X0166144Y0055459D01*
X0165990Y0055467D01*
X0165837Y0055479D01*
X0165684Y0055495D01*
X0165532Y0055515D01*
X0165380Y0055539D01*
X0165229Y0055567D01*
X0165078Y0055599D01*
X0164929Y0055634D01*
X0164780Y0055674D01*
X0164633Y0055717D01*
X0164487Y0055764D01*
X0164342Y0055815D01*
X0164198Y0055870D01*
X0164056Y0055928D01*
X0163915Y0055990D01*
X0163776Y0056056D01*
X0163639Y0056125D01*
X0163504Y0056198D01*
X0163370Y0056274D01*
X0163239Y0056353D01*
X0163110Y0056437D01*
X0162982Y0056523D01*
X0162858Y0056613D01*
X0162735Y0056706D01*
X0162615Y0056802D01*
X0162498Y0056901D01*
X0162383Y0057003D01*
X0162271Y0057108D01*
X0162162Y0057216D01*
X0162055Y0057327D01*
X0161951Y0057440D01*
X0161851Y0057556D01*
X0161753Y0057675D01*
X0161659Y0057796D01*
X0161567Y0057920D01*
X0161479Y0058046D01*
X0161395Y0058174D01*
X0161313Y0058304D01*
X0161235Y0058437D01*
X0161161Y0058571D01*
X0161090Y0058707D01*
X0161022Y0058845D01*
X0160958Y0058985D01*
X0160898Y0059127D01*
X0160842Y0059270D01*
X0160789Y0059414D01*
X0160740Y0059560D01*
X0160695Y0059706D01*
X0160653Y0059854D01*
X0160616Y0060003D01*
X0160582Y0060153D01*
X0160552Y0060304D01*
X0160527Y0060456D01*
X0160505Y0060608D01*
X0160487Y0060760D01*
X0160473Y0060913D01*
X0160463Y0061067D01*
X0160457Y0061220D01*
X0160455Y0061374D01*
D108*
X0065890Y0031114D02*
X0017858Y0031114D01*
X0017858Y0031205D02*
X0017858Y0032976D01*
X0017858Y0046165D02*
X0017858Y0047650D01*
X0017858Y0051193D01*
X0026126Y0051193D01*
X0026126Y0047650D02*
X0017858Y0047650D01*
X0018114Y0074858D02*
X0018114Y0122890D01*
X0018205Y0122890D02*
X0019976Y0122890D01*
X0033165Y0122890D02*
X0034650Y0122890D01*
X0038193Y0122890D01*
X0038193Y0114622D01*
X0034650Y0114622D02*
X0034650Y0122890D01*
X0034650Y0144858D02*
X0033165Y0144858D01*
X0034650Y0144858D02*
X0038193Y0144858D01*
X0038193Y0153126D01*
X0034650Y0153126D02*
X0034650Y0144858D01*
X0019976Y0144858D02*
X0018205Y0144858D01*
X0018114Y0144858D02*
X0018114Y0192890D01*
X0018205Y0192890D02*
X0019976Y0192890D01*
X0033165Y0192890D02*
X0034650Y0192890D01*
X0038193Y0192890D01*
X0038193Y0184622D01*
X0034650Y0184622D02*
X0034650Y0192890D01*
X0034650Y0083126D02*
X0034650Y0074858D01*
X0033165Y0074858D01*
X0034650Y0074858D02*
X0038193Y0074858D01*
X0038193Y0083126D01*
X0019976Y0074858D02*
X0018205Y0074858D01*
X0057622Y0051193D02*
X0065890Y0051193D01*
X0065890Y0047650D01*
X0065890Y0046165D01*
X0065890Y0047650D02*
X0057622Y0047650D01*
X0065890Y0032976D02*
X0065890Y0031205D01*
D109*
X0089976Y0053500D02*
X0089976Y0065272D01*
X0097693Y0065154D02*
X0097693Y0053500D01*
X0100974Y0163574D02*
X0100974Y0163594D01*
X0081484Y0163594D01*
X0081484Y0164504D01*
X0081374Y0170474D02*
X0081374Y0173874D01*
X0091374Y0183874D01*
X0101054Y0184074D02*
X0101054Y0184084D01*
X0081494Y0184084D01*
X0081494Y0183194D01*
X0081374Y0177274D02*
X0081374Y0173874D01*
X0100974Y0163574D02*
X0101174Y0163574D01*
X0101174Y0164574D01*
X0101374Y0170674D02*
X0101374Y0177374D01*
X0101254Y0183004D02*
X0101254Y0184074D01*
X0101054Y0184074D01*
D110*
X0149732Y0174744D02*
X0158006Y0174744D01*
X0153869Y0170607D02*
X0153869Y0178881D01*
D111*
X0146689Y0186748D02*
X0146689Y0171000D01*
X0153500Y0164189D02*
X0169248Y0164189D01*
X0176059Y0171000D02*
X0176059Y0186748D01*
X0169248Y0193559D02*
X0153500Y0193559D01*
M02*
