%
M48
M72
T01C0.02000
T02C0.02362
T03C0.03000
T04C0.03937
T05C0.04000
T06C0.07874
%
T01
X404154Y388795
X392343Y388795
X378563Y388795
X402185Y308087
X410059Y302181
X402185Y294307
X410059Y266748
X447665Y276543
X467146Y264780
X522264Y254937
X553760Y264780
X555728Y274622
X569508Y256906
X610846Y266748
X602972Y294307
X610846Y302181
X602972Y308087
X604941Y388795
X593130Y388795
X579350Y388795
X368720Y256906
X352972Y264780
X354941Y274622
X321476Y254937
X266358Y264780
X246878Y276543
X209272Y266748
X201398Y294307
X209272Y302181
X201398Y308087
X154154Y274622
X152185Y264780
X167933Y256906
X120689Y254937
X65571Y264780
X46091Y276543
X177776Y388795
X191555Y388795
X203366Y388795
T02
X67539Y22654
X51791Y36433
X69508Y46276
X69508Y69898
X65571Y87614
X69508Y105331
X65571Y115173
X102972Y111236
X126594Y101394
X120689Y136827
X162028Y158480
X179744Y160449
X217146Y140764
X240768Y160449
X276201Y182102
X315571Y174228
X337224Y174228
X362815Y158480
X380531Y160449
X386437Y189976
X343130Y199819
X360846Y235252
X305728Y254937
X282232Y254937
X266358Y274622
X270295Y284465
X185650Y189976
X142343Y199819
X136437Y174228
X114783Y174228
X75413Y182102
X39980Y160449
X160059Y235252
X104941Y254937
X81445Y254937
X65571Y274622
X69508Y284465
X138406Y292339
X146280Y310055
X177776Y286433
X171870Y335646
X167933Y390764
X158091Y392732
X69508Y380921
X270295Y380921
X358878Y392732
X368720Y390764
X467146Y274622
X471083Y284465
X483020Y254937
X506516Y254937
X539980Y292339
X547854Y310055
X579350Y286433
X573445Y335646
X569508Y390764
X559665Y392732
X471083Y380921
X372657Y335646
X347067Y310055
X339193Y292339
X378563Y286433
X476988Y182102
X441555Y160449
X417933Y140764
X467146Y115173
X471083Y105331
X467146Y87614
X471083Y69898
X471083Y46276
X453366Y36433
X469114Y22654
X520295Y46276
X538012Y58087
X551791Y63992
X575413Y62024
X585256Y67929
X595098Y62024
X573445Y42339
X553760Y30528
X561634Y18717
X528169Y101394
X504547Y111236
X522264Y136827
X563602Y158480
X581319Y160449
X587224Y189976
X543917Y199819
X538012Y174228
X516358Y174228
X561634Y235252
X618720Y140764
X394311Y62024
X384469Y67929
X374626Y62024
X351004Y63992
X337224Y58087
X319508Y46276
X352972Y30528
X360846Y18717
X372657Y42339
X327382Y101394
X303760Y111236
X321476Y136827
X270295Y105331
X266358Y115173
X266358Y87614
X270295Y69898
X270295Y46276
X252579Y36433
X268327Y22654
X193524Y62024
X183681Y67929
X173839Y62024
X150217Y63992
X136437Y58087
X118720Y46276
X152185Y30528
X160059Y18717
X171870Y42339
T03
X77382Y50213
X278169Y50213
X478957Y50213
X193524Y254937
X394311Y254937
X595098Y254937
T04
X201398Y83677
X201398Y93520
X201398Y103362
X402185Y83677
X402185Y93520
X402185Y103362
X602972Y83677
X602972Y93520
X602972Y103362
X528169Y294307
X528169Y304150
X528169Y313992
X327382Y313992
X327382Y304150
X327382Y294307
X126594Y294307
X126594Y304150
X126594Y313992
T05
X80000Y18205
X90000Y18205
X100000Y18205
X110000Y18205
X120000Y18205
X130000Y18205
X140000Y18205
X150000Y18205
X170000Y18205
X180000Y18205
X190000Y18205
X200000Y18205
X210000Y18205
X220000Y18205
X280787Y18205
X290787Y18205
X300787Y18205
X310787Y18205
X320787Y18205
X330787Y18205
X340787Y18205
X350787Y18205
X370787Y18205
X380787Y18205
X390787Y18205
X400787Y18205
X410787Y18205
X420787Y18205
X481575Y18205
X491575Y18205
X501575Y18205
X511575Y18205
X521575Y18205
X531575Y18205
X541575Y18205
X551575Y18205
X571575Y18205
X581575Y18205
X591575Y18205
X601575Y18205
X611575Y18205
X621575Y18205
X621575Y208205
X611575Y208205
X601575Y208205
X591575Y208205
X581575Y208205
X571575Y208205
X561575Y208205
X551575Y208205
X536575Y208205
X526575Y208205
X516575Y208205
X506575Y208205
X496575Y208205
X486575Y208205
X476575Y208205
X466575Y208205
X456575Y208205
X446575Y208205
X481575Y234740
X491575Y234740
X501575Y234740
X511575Y234740
X521575Y234740
X531575Y234740
X541575Y234740
X551575Y234740
X571575Y234740
X581575Y234740
X591575Y234740
X601575Y234740
X611575Y234740
X621575Y234740
X420787Y424740
X410787Y424740
X400787Y424740
X390787Y424740
X380787Y424740
X370787Y424740
X360787Y424740
X350787Y424740
X335787Y424740
X325787Y424740
X315787Y424740
X305787Y424740
X295787Y424740
X285787Y424740
X275787Y424740
X265787Y424740
X255787Y424740
X245787Y424740
X220000Y424740
X210000Y424740
X200000Y424740
X190000Y424740
X180000Y424740
X170000Y424740
X160000Y424740
X150000Y424740
X135000Y424740
X125000Y424740
X115000Y424740
X105000Y424740
X95000Y424740
X85000Y424740
X75000Y424740
X65000Y424740
X55000Y424740
X45000Y424740
X80000Y234740
X90000Y234740
X100000Y234740
X110000Y234740
X120000Y234740
X130000Y234740
X140000Y234740
X150000Y234740
X170000Y234740
X180000Y234740
X190000Y234740
X200000Y234740
X210000Y234740
X220000Y234740
X220000Y208205
X210000Y208205
X200000Y208205
X190000Y208205
X180000Y208205
X170000Y208205
X160000Y208205
X150000Y208205
X135000Y208205
X125000Y208205
X115000Y208205
X105000Y208205
X95000Y208205
X85000Y208205
X75000Y208205
X65000Y208205
X55000Y208205
X45000Y208205
X245787Y208205
X255787Y208205
X265787Y208205
X275787Y208205
X285787Y208205
X295787Y208205
X305787Y208205
X315787Y208205
X325787Y208205
X335787Y208205
X350787Y208205
X360787Y208205
X370787Y208205
X380787Y208205
X390787Y208205
X400787Y208205
X410787Y208205
X420787Y208205
X420787Y234740
X410787Y234740
X400787Y234740
X390787Y234740
X380787Y234740
X370787Y234740
X350787Y234740
X340787Y234740
X330787Y234740
X320787Y234740
X310787Y234740
X300787Y234740
X290787Y234740
X280787Y234740
X446575Y424740
X456575Y424740
X466575Y424740
X476575Y424740
X486575Y424740
X496575Y424740
X506575Y424740
X516575Y424740
X526575Y424740
X536575Y424740
X551575Y424740
X561575Y424740
X571575Y424740
X581575Y424740
X591575Y424740
X601575Y424740
X611575Y424740
X621575Y424740
T06
X173839Y76197
X173839Y110843
X374626Y76197
X374626Y110843
X575413Y76197
X575413Y110843
X500610Y286827
X500610Y321472
X299823Y321472
X299823Y286827
X99035Y321472
X99035Y286827
M30
