G75*
%MOIN*%
%OFA0B0*%
%FSLAX25Y25*%
%IPPOS*%
%LPD*%
%AMOC8*
5,1,8,0,0,1.08239X$1,22.5*
%
%ADD10C,0.00004*%
%ADD11R,0.07290X0.09258*%
%ADD12R,0.11424X0.04337*%
%ADD13R,0.06699X0.07498*%
%ADD14R,0.12605X0.05912*%
%ADD15R,0.17723X0.12211*%
%ADD16R,0.05400X0.02900*%
%ADD17R,0.11227X0.02369*%
%ADD18R,0.07800X0.07800*%
%ADD19OC8,0.12211*%
%ADD20R,0.04337X0.04731*%
%ADD21R,0.04337X0.10243*%
%ADD22R,0.08274X0.10243*%
%ADD23C,0.07800*%
%ADD24C,0.04337*%
%ADD25C,0.02900*%
%ADD26R,0.03550X0.04731*%
%ADD27R,0.09258X0.07290*%
%ADD28R,0.04337X0.11424*%
%ADD29R,0.12211X0.17723*%
D10*
X0036043Y0037220D02*
X0064390Y0008874D01*
X0224232Y0008874D01*
X0228957Y0013598D01*
X0228957Y0212811D01*
X0224232Y0217535D01*
X0040768Y0217535D01*
X0036043Y0212811D01*
X0036043Y0037220D01*
X0236831Y0037220D02*
X0265177Y0008874D01*
X0425020Y0008874D01*
X0429744Y0013598D01*
X0429744Y0212811D01*
X0425020Y0217535D01*
X0241555Y0217535D01*
X0236831Y0212811D01*
X0236831Y0037220D01*
X0437618Y0037220D02*
X0465965Y0008874D01*
X0625807Y0008874D01*
X0630531Y0013598D01*
X0630531Y0212811D01*
X0625807Y0217535D01*
X0442343Y0217535D01*
X0437618Y0212811D01*
X0437618Y0037220D01*
X0425020Y0225409D02*
X0265177Y0225409D01*
X0236831Y0253756D01*
X0236831Y0429346D01*
X0241555Y0434071D01*
X0425020Y0434071D01*
X0429744Y0429346D01*
X0429744Y0230134D01*
X0425020Y0225409D01*
X0437618Y0253756D02*
X0465965Y0225409D01*
X0625807Y0225409D01*
X0630531Y0230134D01*
X0630531Y0429346D01*
X0625807Y0434071D01*
X0442343Y0434071D01*
X0437618Y0429346D01*
X0437618Y0253756D01*
X0228957Y0230134D02*
X0224232Y0225409D01*
X0064390Y0225409D01*
X0036043Y0253756D01*
X0036043Y0429346D01*
X0040768Y0434071D01*
X0224232Y0434071D01*
X0228957Y0429346D01*
X0228957Y0230134D01*
D11*
X0209272Y0065469D03*
X0209272Y0050705D03*
X0410059Y0050705D03*
X0410059Y0065469D03*
X0610846Y0065469D03*
X0610846Y0050705D03*
D12*
X0507303Y0143717D03*
X0507303Y0150606D03*
X0507303Y0157496D03*
X0489980Y0157496D03*
X0489980Y0150606D03*
X0489980Y0143717D03*
X0306516Y0143717D03*
X0306516Y0150606D03*
X0306516Y0157496D03*
X0289193Y0157496D03*
X0289193Y0150606D03*
X0289193Y0143717D03*
X0105728Y0143717D03*
X0105728Y0150606D03*
X0105728Y0157496D03*
X0088406Y0157496D03*
X0088406Y0150606D03*
X0088406Y0143717D03*
D13*
X0128870Y0148835D03*
X0140067Y0148835D03*
X0140067Y0136827D03*
X0128870Y0136827D03*
X0128870Y0119110D03*
X0140067Y0119110D03*
X0140067Y0091551D03*
X0128870Y0091551D03*
X0128870Y0073835D03*
X0140067Y0073835D03*
X0140067Y0182102D03*
X0128870Y0182102D03*
X0130839Y0254937D03*
X0142035Y0254937D03*
X0142035Y0274622D03*
X0130839Y0274622D03*
X0130839Y0333677D03*
X0142035Y0333677D03*
X0142035Y0355331D03*
X0130839Y0355331D03*
X0130839Y0367339D03*
X0142035Y0367339D03*
X0142035Y0398638D03*
X0130839Y0398638D03*
X0331626Y0398638D03*
X0342823Y0398638D03*
X0342823Y0367339D03*
X0331626Y0367339D03*
X0331626Y0355331D03*
X0342823Y0355331D03*
X0342823Y0333677D03*
X0331626Y0333677D03*
X0331626Y0274622D03*
X0342823Y0274622D03*
X0342823Y0254937D03*
X0331626Y0254937D03*
X0329657Y0182102D03*
X0340854Y0182102D03*
X0340854Y0148835D03*
X0329657Y0148835D03*
X0329657Y0136827D03*
X0340854Y0136827D03*
X0340854Y0119110D03*
X0329657Y0119110D03*
X0329657Y0091551D03*
X0340854Y0091551D03*
X0340854Y0073835D03*
X0329657Y0073835D03*
X0530445Y0073835D03*
X0541642Y0073835D03*
X0541642Y0091551D03*
X0530445Y0091551D03*
X0530445Y0119110D03*
X0541642Y0119110D03*
X0541642Y0136827D03*
X0530445Y0136827D03*
X0530445Y0148835D03*
X0541642Y0148835D03*
X0541642Y0182102D03*
X0530445Y0182102D03*
X0532413Y0254937D03*
X0543610Y0254937D03*
X0543610Y0274622D03*
X0532413Y0274622D03*
X0532413Y0333677D03*
X0543610Y0333677D03*
X0543610Y0355331D03*
X0532413Y0355331D03*
X0532413Y0367339D03*
X0543610Y0367339D03*
X0543610Y0398638D03*
X0532413Y0398638D03*
D14*
X0512421Y0356315D03*
X0512421Y0338598D03*
X0473051Y0338598D03*
X0473051Y0356315D03*
X0311634Y0356315D03*
X0311634Y0338598D03*
X0272264Y0338598D03*
X0272264Y0356315D03*
X0110846Y0356315D03*
X0110846Y0338598D03*
X0071476Y0338598D03*
X0071476Y0356315D03*
X0167933Y0187024D03*
X0167933Y0169307D03*
X0207303Y0169307D03*
X0207303Y0187024D03*
X0368720Y0187024D03*
X0368720Y0169307D03*
X0408091Y0169307D03*
X0408091Y0187024D03*
X0569508Y0187024D03*
X0569508Y0169307D03*
X0608878Y0169307D03*
X0608878Y0187024D03*
D15*
X0507894Y0097457D03*
X0450020Y0097457D03*
X0307106Y0097457D03*
X0249232Y0097457D03*
X0106319Y0097457D03*
X0048445Y0097457D03*
D16*
X0210059Y0030559D03*
X0210059Y0026559D03*
X0219902Y0026559D03*
X0219902Y0030559D03*
X0410846Y0030559D03*
X0410846Y0026559D03*
X0420689Y0026559D03*
X0420689Y0030559D03*
X0611634Y0030559D03*
X0611634Y0026559D03*
X0621476Y0026559D03*
X0621476Y0030559D03*
X0620689Y0243094D03*
X0620689Y0247094D03*
X0610846Y0247094D03*
X0610846Y0243094D03*
X0419902Y0243094D03*
X0419902Y0247094D03*
X0410059Y0247094D03*
X0410059Y0243094D03*
X0219114Y0243094D03*
X0219114Y0247094D03*
X0209272Y0247094D03*
X0209272Y0243094D03*
D17*
X0189094Y0148638D03*
X0189094Y0138795D03*
X0189094Y0128953D03*
X0162520Y0128953D03*
X0162520Y0138795D03*
X0162520Y0148638D03*
X0363307Y0148638D03*
X0363307Y0138795D03*
X0363307Y0128953D03*
X0389882Y0128953D03*
X0389882Y0138795D03*
X0389882Y0148638D03*
X0564094Y0148638D03*
X0564094Y0138795D03*
X0564094Y0128953D03*
X0590669Y0128953D03*
X0590669Y0138795D03*
X0590669Y0148638D03*
X0484370Y0382890D03*
X0484370Y0392732D03*
X0484370Y0402575D03*
X0457795Y0402575D03*
X0457795Y0392732D03*
X0457795Y0382890D03*
X0283583Y0382890D03*
X0283583Y0392732D03*
X0283583Y0402575D03*
X0257008Y0402575D03*
X0257008Y0392732D03*
X0257008Y0382890D03*
X0082795Y0382890D03*
X0082795Y0392732D03*
X0082795Y0402575D03*
X0056220Y0402575D03*
X0056220Y0392732D03*
X0056220Y0382890D03*
D18*
X0126594Y0313992D03*
X0126594Y0304150D03*
X0126594Y0294307D03*
X0327382Y0294307D03*
X0327382Y0304150D03*
X0327382Y0313992D03*
X0528169Y0313992D03*
X0528169Y0304150D03*
X0528169Y0294307D03*
X0602972Y0103362D03*
X0602972Y0093520D03*
X0602972Y0083677D03*
X0402185Y0083677D03*
X0402185Y0093520D03*
X0402185Y0103362D03*
X0201398Y0103362D03*
X0201398Y0093520D03*
X0201398Y0083677D03*
D19*
X0173839Y0076197D03*
X0173839Y0110843D03*
X0374626Y0110843D03*
X0374626Y0076197D03*
X0575413Y0076197D03*
X0575413Y0110843D03*
X0500610Y0286827D03*
X0500610Y0321472D03*
X0299823Y0321472D03*
X0299823Y0286827D03*
X0099035Y0286827D03*
X0099035Y0321472D03*
D20*
X0135059Y0343520D03*
X0141752Y0343520D03*
X0137531Y0378953D03*
X0130839Y0378953D03*
X0130839Y0386039D03*
X0137531Y0386039D03*
X0135059Y0408480D03*
X0141752Y0408480D03*
X0057657Y0310094D03*
X0135059Y0284465D03*
X0141752Y0284465D03*
X0141752Y0264780D03*
X0135059Y0264780D03*
X0133091Y0189976D03*
X0139783Y0189976D03*
X0139783Y0167535D03*
X0133091Y0167535D03*
X0133091Y0160449D03*
X0139783Y0160449D03*
X0139783Y0126984D03*
X0133091Y0126984D03*
X0133091Y0101394D03*
X0139783Y0101394D03*
X0139783Y0081709D03*
X0133091Y0081709D03*
X0163957Y0051039D03*
X0333878Y0081709D03*
X0340571Y0081709D03*
X0340571Y0101394D03*
X0333878Y0101394D03*
X0333878Y0126984D03*
X0340571Y0126984D03*
X0340571Y0160449D03*
X0333878Y0160449D03*
X0333878Y0167535D03*
X0340571Y0167535D03*
X0340571Y0189976D03*
X0333878Y0189976D03*
X0335846Y0264780D03*
X0342539Y0264780D03*
X0342539Y0284465D03*
X0335846Y0284465D03*
X0258445Y0310094D03*
X0335846Y0343520D03*
X0342539Y0343520D03*
X0338319Y0378953D03*
X0331626Y0378953D03*
X0331626Y0386039D03*
X0338319Y0386039D03*
X0335846Y0408480D03*
X0342539Y0408480D03*
X0459232Y0310094D03*
X0536634Y0284465D03*
X0543327Y0284465D03*
X0543327Y0264780D03*
X0536634Y0264780D03*
X0534665Y0189976D03*
X0541358Y0189976D03*
X0541358Y0167535D03*
X0534665Y0167535D03*
X0534665Y0160449D03*
X0541358Y0160449D03*
X0541358Y0126984D03*
X0534665Y0126984D03*
X0534665Y0101394D03*
X0541358Y0101394D03*
X0541358Y0081709D03*
X0534665Y0081709D03*
X0565531Y0051039D03*
X0364744Y0051039D03*
X0536634Y0343520D03*
X0543327Y0343520D03*
X0539106Y0378953D03*
X0532413Y0378953D03*
X0532413Y0386039D03*
X0539106Y0386039D03*
X0536634Y0408480D03*
X0543327Y0408480D03*
D21*
X0587224Y0319898D03*
X0595098Y0319898D03*
X0602972Y0319898D03*
X0610846Y0319898D03*
X0610846Y0282496D03*
X0602972Y0282496D03*
X0595098Y0282496D03*
X0587224Y0282496D03*
X0484862Y0193913D03*
X0476988Y0193913D03*
X0469114Y0193913D03*
X0461240Y0193913D03*
X0410059Y0282496D03*
X0402185Y0282496D03*
X0394311Y0282496D03*
X0386437Y0282496D03*
X0386437Y0319898D03*
X0394311Y0319898D03*
X0402185Y0319898D03*
X0410059Y0319898D03*
X0284075Y0193913D03*
X0276201Y0193913D03*
X0268327Y0193913D03*
X0260453Y0193913D03*
X0209272Y0282496D03*
X0201398Y0282496D03*
X0193524Y0282496D03*
X0185650Y0282496D03*
X0185650Y0319898D03*
X0193524Y0319898D03*
X0201398Y0319898D03*
X0209272Y0319898D03*
X0083287Y0193913D03*
X0075413Y0193913D03*
X0067539Y0193913D03*
X0059665Y0193913D03*
X0061634Y0036433D03*
X0069508Y0036433D03*
X0077382Y0036433D03*
X0085256Y0036433D03*
X0262421Y0036433D03*
X0270295Y0036433D03*
X0278169Y0036433D03*
X0286043Y0036433D03*
X0463209Y0036433D03*
X0471083Y0036433D03*
X0478957Y0036433D03*
X0486831Y0036433D03*
D22*
X0497854Y0048728D03*
X0452185Y0048728D03*
X0297067Y0048728D03*
X0251398Y0048728D03*
X0096280Y0048728D03*
X0050610Y0048728D03*
X0048642Y0181618D03*
X0094311Y0181618D03*
X0174626Y0270201D03*
X0220295Y0270201D03*
X0220295Y0307602D03*
X0174626Y0307602D03*
X0249429Y0181618D03*
X0295098Y0181618D03*
X0375413Y0270201D03*
X0421083Y0270201D03*
X0421083Y0307602D03*
X0375413Y0307602D03*
X0450217Y0181618D03*
X0495886Y0181618D03*
X0576201Y0270201D03*
X0621870Y0270201D03*
X0621870Y0307602D03*
X0576201Y0307602D03*
D23*
X0571575Y0234740D03*
X0581575Y0234740D03*
X0591575Y0234740D03*
X0601575Y0234740D03*
X0611575Y0234740D03*
X0621575Y0234740D03*
X0621575Y0208205D03*
X0611575Y0208205D03*
X0601575Y0208205D03*
X0591575Y0208205D03*
X0581575Y0208205D03*
X0571575Y0208205D03*
X0561575Y0208205D03*
X0551575Y0208205D03*
X0536575Y0208205D03*
X0526575Y0208205D03*
X0516575Y0208205D03*
X0506575Y0208205D03*
X0496575Y0208205D03*
X0486575Y0208205D03*
X0476575Y0208205D03*
X0466575Y0208205D03*
X0456575Y0208205D03*
X0446575Y0208205D03*
X0420787Y0208205D03*
X0410787Y0208205D03*
X0400787Y0208205D03*
X0390787Y0208205D03*
X0380787Y0208205D03*
X0370787Y0208205D03*
X0360787Y0208205D03*
X0350787Y0208205D03*
X0335787Y0208205D03*
X0325787Y0208205D03*
X0315787Y0208205D03*
X0305787Y0208205D03*
X0295787Y0208205D03*
X0285787Y0208205D03*
X0275787Y0208205D03*
X0265787Y0208205D03*
X0255787Y0208205D03*
X0245787Y0208205D03*
X0220000Y0208205D03*
X0210000Y0208205D03*
X0200000Y0208205D03*
X0190000Y0208205D03*
X0180000Y0208205D03*
X0170000Y0208205D03*
X0160000Y0208205D03*
X0150000Y0208205D03*
X0135000Y0208205D03*
X0125000Y0208205D03*
X0115000Y0208205D03*
X0105000Y0208205D03*
X0095000Y0208205D03*
X0085000Y0208205D03*
X0075000Y0208205D03*
X0065000Y0208205D03*
X0055000Y0208205D03*
X0045000Y0208205D03*
X0080000Y0234740D03*
X0090000Y0234740D03*
X0100000Y0234740D03*
X0110000Y0234740D03*
X0120000Y0234740D03*
X0130000Y0234740D03*
X0140000Y0234740D03*
X0150000Y0234740D03*
X0170000Y0234740D03*
X0180000Y0234740D03*
X0190000Y0234740D03*
X0200000Y0234740D03*
X0210000Y0234740D03*
X0220000Y0234740D03*
X0280787Y0234740D03*
X0290787Y0234740D03*
X0300787Y0234740D03*
X0310787Y0234740D03*
X0320787Y0234740D03*
X0330787Y0234740D03*
X0340787Y0234740D03*
X0350787Y0234740D03*
X0370787Y0234740D03*
X0380787Y0234740D03*
X0390787Y0234740D03*
X0400787Y0234740D03*
X0410787Y0234740D03*
X0420787Y0234740D03*
X0481575Y0234740D03*
X0491575Y0234740D03*
X0501575Y0234740D03*
X0511575Y0234740D03*
X0521575Y0234740D03*
X0531575Y0234740D03*
X0541575Y0234740D03*
X0551575Y0234740D03*
X0551575Y0424740D03*
X0561575Y0424740D03*
X0571575Y0424740D03*
X0581575Y0424740D03*
X0591575Y0424740D03*
X0601575Y0424740D03*
X0611575Y0424740D03*
X0621575Y0424740D03*
X0536575Y0424740D03*
X0526575Y0424740D03*
X0516575Y0424740D03*
X0506575Y0424740D03*
X0496575Y0424740D03*
X0486575Y0424740D03*
X0476575Y0424740D03*
X0466575Y0424740D03*
X0456575Y0424740D03*
X0446575Y0424740D03*
X0420787Y0424740D03*
X0410787Y0424740D03*
X0400787Y0424740D03*
X0390787Y0424740D03*
X0380787Y0424740D03*
X0370787Y0424740D03*
X0360787Y0424740D03*
X0350787Y0424740D03*
X0335787Y0424740D03*
X0325787Y0424740D03*
X0315787Y0424740D03*
X0305787Y0424740D03*
X0295787Y0424740D03*
X0285787Y0424740D03*
X0275787Y0424740D03*
X0265787Y0424740D03*
X0255787Y0424740D03*
X0245787Y0424740D03*
X0220000Y0424740D03*
X0210000Y0424740D03*
X0200000Y0424740D03*
X0190000Y0424740D03*
X0180000Y0424740D03*
X0170000Y0424740D03*
X0160000Y0424740D03*
X0150000Y0424740D03*
X0135000Y0424740D03*
X0125000Y0424740D03*
X0115000Y0424740D03*
X0105000Y0424740D03*
X0095000Y0424740D03*
X0085000Y0424740D03*
X0075000Y0424740D03*
X0065000Y0424740D03*
X0055000Y0424740D03*
X0045000Y0424740D03*
X0080000Y0018205D03*
X0090000Y0018205D03*
X0100000Y0018205D03*
X0110000Y0018205D03*
X0120000Y0018205D03*
X0130000Y0018205D03*
X0140000Y0018205D03*
X0150000Y0018205D03*
X0170000Y0018205D03*
X0180000Y0018205D03*
X0190000Y0018205D03*
X0200000Y0018205D03*
X0210000Y0018205D03*
X0220000Y0018205D03*
X0280787Y0018205D03*
X0290787Y0018205D03*
X0300787Y0018205D03*
X0310787Y0018205D03*
X0320787Y0018205D03*
X0330787Y0018205D03*
X0340787Y0018205D03*
X0350787Y0018205D03*
X0370787Y0018205D03*
X0380787Y0018205D03*
X0390787Y0018205D03*
X0400787Y0018205D03*
X0410787Y0018205D03*
X0420787Y0018205D03*
X0481575Y0018205D03*
X0491575Y0018205D03*
X0501575Y0018205D03*
X0511575Y0018205D03*
X0521575Y0018205D03*
X0531575Y0018205D03*
X0541575Y0018205D03*
X0551575Y0018205D03*
X0571575Y0018205D03*
X0581575Y0018205D03*
X0591575Y0018205D03*
X0601575Y0018205D03*
X0611575Y0018205D03*
X0621575Y0018205D03*
D24*
X0624626Y0040370D03*
X0443524Y0040370D03*
X0423839Y0040370D03*
X0242736Y0040370D03*
X0223051Y0040370D03*
X0041949Y0040370D03*
X0041949Y0197850D03*
X0041949Y0256906D03*
X0223051Y0256906D03*
X0242736Y0256906D03*
X0242736Y0197850D03*
X0223051Y0197850D03*
X0423839Y0197850D03*
X0443524Y0197850D03*
X0443524Y0256906D03*
X0423839Y0256906D03*
X0624626Y0256906D03*
X0624626Y0197850D03*
X0624626Y0414386D03*
X0443524Y0414386D03*
X0423839Y0414386D03*
X0242736Y0414386D03*
X0223051Y0414386D03*
X0041949Y0414386D03*
D25*
X0069508Y0392732D03*
X0125035Y0408984D03*
X0091161Y0347457D03*
X0099035Y0304150D03*
X0122657Y0284465D03*
X0187618Y0178165D03*
X0175807Y0138795D03*
X0173839Y0093520D03*
X0250610Y0062024D03*
X0262421Y0097457D03*
X0293917Y0097457D03*
X0278169Y0126984D03*
X0286043Y0164386D03*
X0295886Y0168323D03*
X0376594Y0138795D03*
X0388406Y0178165D03*
X0478957Y0126984D03*
X0494705Y0097457D03*
X0463209Y0097457D03*
X0451398Y0062024D03*
X0374626Y0093520D03*
X0486831Y0164386D03*
X0496673Y0168323D03*
X0577382Y0138795D03*
X0589193Y0178165D03*
X0575413Y0093520D03*
X0524232Y0284465D03*
X0500610Y0304150D03*
X0492736Y0347457D03*
X0471083Y0392732D03*
X0526610Y0408984D03*
X0325823Y0408984D03*
X0270295Y0392732D03*
X0291949Y0347457D03*
X0299823Y0304150D03*
X0323445Y0284465D03*
X0095098Y0168323D03*
X0085256Y0164386D03*
X0077382Y0126984D03*
X0093130Y0097457D03*
X0061634Y0097457D03*
X0049823Y0062024D03*
D26*
X0161437Y0036354D03*
X0166555Y0036354D03*
X0362224Y0036354D03*
X0367343Y0036354D03*
X0563012Y0036354D03*
X0568130Y0036354D03*
X0461831Y0295409D03*
X0456713Y0295409D03*
X0261043Y0295409D03*
X0255925Y0295409D03*
X0060256Y0295409D03*
X0055138Y0295409D03*
D27*
G36*
X0051782Y0262070D02*
X0058327Y0255525D01*
X0053172Y0250370D01*
X0046627Y0256915D01*
X0051782Y0262070D01*
G37*
G36*
X0062222Y0251630D02*
X0068767Y0245085D01*
X0063612Y0239930D01*
X0057067Y0246475D01*
X0062222Y0251630D01*
G37*
G36*
X0252569Y0262070D02*
X0259114Y0255525D01*
X0253959Y0250370D01*
X0247414Y0256915D01*
X0252569Y0262070D01*
G37*
G36*
X0263009Y0251630D02*
X0269554Y0245085D01*
X0264399Y0239930D01*
X0257854Y0246475D01*
X0263009Y0251630D01*
G37*
G36*
X0453357Y0262070D02*
X0459902Y0255525D01*
X0454747Y0250370D01*
X0448202Y0256915D01*
X0453357Y0262070D01*
G37*
G36*
X0463796Y0251630D02*
X0470341Y0245085D01*
X0465186Y0239930D01*
X0458641Y0246475D01*
X0463796Y0251630D01*
G37*
D28*
X0507500Y0384071D03*
X0514390Y0384071D03*
X0521280Y0384071D03*
X0521280Y0401394D03*
X0514390Y0401394D03*
X0507500Y0401394D03*
X0320492Y0401394D03*
X0313602Y0401394D03*
X0306713Y0401394D03*
X0306713Y0384071D03*
X0313602Y0384071D03*
X0320492Y0384071D03*
X0119705Y0384071D03*
X0112815Y0384071D03*
X0105925Y0384071D03*
X0105925Y0401394D03*
X0112815Y0401394D03*
X0119705Y0401394D03*
D29*
X0191555Y0403953D03*
X0191555Y0346079D03*
X0392343Y0346079D03*
X0392343Y0403953D03*
X0593130Y0403953D03*
X0593130Y0346079D03*
M02*
