G75*
%MOIN*%
%OFA0B0*%
%FSLAX25Y25*%
%IPPOS*%
%LPD*%
%AMOC8*
5,1,8,0,0,1.08239X$1,22.5*
%
%ADD10C,0.00004*%
%ADD11C,0.00800*%
%ADD12C,0.00400*%
%ADD13C,0.01000*%
%ADD14C,0.00500*%
%ADD15C,0.01600*%
%ADD16C,0.01575*%
D10*
X0036043Y0037220D02*
X0064390Y0008874D01*
X0224232Y0008874D01*
X0228957Y0013598D01*
X0228957Y0212811D01*
X0224232Y0217535D01*
X0040768Y0217535D01*
X0036043Y0212811D01*
X0036043Y0037220D01*
X0236831Y0037220D02*
X0265177Y0008874D01*
X0425020Y0008874D01*
X0429744Y0013598D01*
X0429744Y0212811D01*
X0425020Y0217535D01*
X0241555Y0217535D01*
X0236831Y0212811D01*
X0236831Y0037220D01*
X0437618Y0037220D02*
X0465965Y0008874D01*
X0625807Y0008874D01*
X0630531Y0013598D01*
X0630531Y0212811D01*
X0625807Y0217535D01*
X0442343Y0217535D01*
X0437618Y0212811D01*
X0437618Y0037220D01*
X0425020Y0225409D02*
X0265177Y0225409D01*
X0236831Y0253756D01*
X0236831Y0429346D01*
X0241555Y0434071D01*
X0425020Y0434071D01*
X0429744Y0429346D01*
X0429744Y0230134D01*
X0425020Y0225409D01*
X0437618Y0253756D02*
X0465965Y0225409D01*
X0625807Y0225409D01*
X0630531Y0230134D01*
X0630531Y0429346D01*
X0625807Y0434071D01*
X0442343Y0434071D01*
X0437618Y0429346D01*
X0437618Y0253756D01*
X0228957Y0230134D02*
X0224232Y0225409D01*
X0064390Y0225409D01*
X0036043Y0253756D01*
X0036043Y0429346D01*
X0040768Y0434071D01*
X0224232Y0434071D01*
X0228957Y0429346D01*
X0228957Y0230134D01*
D11*
X0223114Y0241844D02*
X0223114Y0248344D01*
X0223112Y0248404D01*
X0223107Y0248465D01*
X0223098Y0248524D01*
X0223085Y0248583D01*
X0223069Y0248642D01*
X0223049Y0248699D01*
X0223026Y0248754D01*
X0222999Y0248809D01*
X0222970Y0248861D01*
X0222937Y0248912D01*
X0222901Y0248961D01*
X0222863Y0249007D01*
X0222821Y0249051D01*
X0222777Y0249093D01*
X0222731Y0249131D01*
X0222682Y0249167D01*
X0222631Y0249200D01*
X0222579Y0249229D01*
X0222524Y0249256D01*
X0222469Y0249279D01*
X0222412Y0249299D01*
X0222353Y0249315D01*
X0222294Y0249328D01*
X0222235Y0249337D01*
X0222174Y0249342D01*
X0222114Y0249344D01*
X0216114Y0249344D02*
X0216054Y0249342D01*
X0215993Y0249337D01*
X0215934Y0249328D01*
X0215875Y0249315D01*
X0215816Y0249299D01*
X0215759Y0249279D01*
X0215704Y0249256D01*
X0215649Y0249229D01*
X0215597Y0249200D01*
X0215546Y0249167D01*
X0215497Y0249131D01*
X0215451Y0249093D01*
X0215407Y0249051D01*
X0215365Y0249007D01*
X0215327Y0248961D01*
X0215291Y0248912D01*
X0215258Y0248861D01*
X0215229Y0248809D01*
X0215202Y0248754D01*
X0215179Y0248699D01*
X0215159Y0248642D01*
X0215143Y0248583D01*
X0215130Y0248524D01*
X0215121Y0248465D01*
X0215116Y0248404D01*
X0215114Y0248344D01*
X0215114Y0241844D01*
X0215116Y0241784D01*
X0215121Y0241723D01*
X0215130Y0241664D01*
X0215143Y0241605D01*
X0215159Y0241546D01*
X0215179Y0241489D01*
X0215202Y0241434D01*
X0215229Y0241379D01*
X0215258Y0241327D01*
X0215291Y0241276D01*
X0215327Y0241227D01*
X0215365Y0241181D01*
X0215407Y0241137D01*
X0215451Y0241095D01*
X0215497Y0241057D01*
X0215546Y0241021D01*
X0215597Y0240988D01*
X0215649Y0240959D01*
X0215704Y0240932D01*
X0215759Y0240909D01*
X0215816Y0240889D01*
X0215875Y0240873D01*
X0215934Y0240860D01*
X0215993Y0240851D01*
X0216054Y0240846D01*
X0216114Y0240844D01*
X0213272Y0241844D02*
X0213272Y0248344D01*
X0213270Y0248404D01*
X0213265Y0248465D01*
X0213256Y0248524D01*
X0213243Y0248583D01*
X0213227Y0248642D01*
X0213207Y0248699D01*
X0213184Y0248754D01*
X0213157Y0248809D01*
X0213128Y0248861D01*
X0213095Y0248912D01*
X0213059Y0248961D01*
X0213021Y0249007D01*
X0212979Y0249051D01*
X0212935Y0249093D01*
X0212889Y0249131D01*
X0212840Y0249167D01*
X0212789Y0249200D01*
X0212737Y0249229D01*
X0212682Y0249256D01*
X0212627Y0249279D01*
X0212570Y0249299D01*
X0212511Y0249315D01*
X0212452Y0249328D01*
X0212393Y0249337D01*
X0212332Y0249342D01*
X0212272Y0249344D01*
X0206272Y0249344D02*
X0206212Y0249342D01*
X0206151Y0249337D01*
X0206092Y0249328D01*
X0206033Y0249315D01*
X0205974Y0249299D01*
X0205917Y0249279D01*
X0205862Y0249256D01*
X0205807Y0249229D01*
X0205755Y0249200D01*
X0205704Y0249167D01*
X0205655Y0249131D01*
X0205609Y0249093D01*
X0205565Y0249051D01*
X0205523Y0249007D01*
X0205485Y0248961D01*
X0205449Y0248912D01*
X0205416Y0248861D01*
X0205387Y0248809D01*
X0205360Y0248754D01*
X0205337Y0248699D01*
X0205317Y0248642D01*
X0205301Y0248583D01*
X0205288Y0248524D01*
X0205279Y0248465D01*
X0205274Y0248404D01*
X0205272Y0248344D01*
X0205272Y0241844D01*
X0205274Y0241784D01*
X0205279Y0241723D01*
X0205288Y0241664D01*
X0205301Y0241605D01*
X0205317Y0241546D01*
X0205337Y0241489D01*
X0205360Y0241434D01*
X0205387Y0241379D01*
X0205416Y0241327D01*
X0205449Y0241276D01*
X0205485Y0241227D01*
X0205523Y0241181D01*
X0205565Y0241137D01*
X0205609Y0241095D01*
X0205655Y0241057D01*
X0205704Y0241021D01*
X0205755Y0240988D01*
X0205807Y0240959D01*
X0205862Y0240932D01*
X0205917Y0240909D01*
X0205974Y0240889D01*
X0206033Y0240873D01*
X0206092Y0240860D01*
X0206151Y0240851D01*
X0206212Y0240846D01*
X0206272Y0240844D01*
X0212272Y0240844D02*
X0212332Y0240846D01*
X0212393Y0240851D01*
X0212452Y0240860D01*
X0212511Y0240873D01*
X0212570Y0240889D01*
X0212627Y0240909D01*
X0212682Y0240932D01*
X0212737Y0240959D01*
X0212789Y0240988D01*
X0212840Y0241021D01*
X0212889Y0241057D01*
X0212935Y0241095D01*
X0212979Y0241137D01*
X0213021Y0241181D01*
X0213059Y0241227D01*
X0213095Y0241276D01*
X0213128Y0241327D01*
X0213157Y0241379D01*
X0213184Y0241434D01*
X0213207Y0241489D01*
X0213227Y0241546D01*
X0213243Y0241605D01*
X0213256Y0241664D01*
X0213265Y0241723D01*
X0213270Y0241784D01*
X0213272Y0241844D01*
X0222114Y0240844D02*
X0222174Y0240846D01*
X0222235Y0240851D01*
X0222294Y0240860D01*
X0222353Y0240873D01*
X0222412Y0240889D01*
X0222469Y0240909D01*
X0222524Y0240932D01*
X0222579Y0240959D01*
X0222631Y0240988D01*
X0222682Y0241021D01*
X0222731Y0241057D01*
X0222777Y0241095D01*
X0222821Y0241137D01*
X0222863Y0241181D01*
X0222901Y0241227D01*
X0222937Y0241276D01*
X0222970Y0241327D01*
X0222999Y0241379D01*
X0223026Y0241434D01*
X0223049Y0241489D01*
X0223069Y0241546D01*
X0223085Y0241605D01*
X0223098Y0241664D01*
X0223107Y0241723D01*
X0223112Y0241784D01*
X0223114Y0241844D01*
X0256724Y0265263D02*
X0256724Y0267433D01*
X0261065Y0271774D01*
X0258894Y0271774D02*
X0261065Y0269603D01*
X0262150Y0266348D02*
X0264320Y0266348D01*
X0266491Y0264178D01*
X0266491Y0262007D01*
X0265405Y0260922D01*
X0261065Y0265263D01*
X0259980Y0264178D02*
X0262150Y0266348D01*
X0259980Y0264178D02*
X0259980Y0262007D01*
X0262150Y0259837D01*
X0265405Y0256581D02*
X0269746Y0260922D01*
X0270831Y0259837D01*
X0270831Y0257667D01*
X0273002Y0257667D01*
X0273002Y0255496D01*
X0269746Y0252241D01*
X0267576Y0254411D02*
X0270831Y0257667D01*
X0276257Y0254411D02*
X0279512Y0251156D01*
X0279512Y0248985D01*
X0277342Y0246815D01*
X0275172Y0246815D01*
X0271916Y0250071D01*
X0269746Y0247900D02*
X0276257Y0254411D01*
X0271370Y0288806D02*
X0268301Y0288806D01*
X0266766Y0290340D01*
X0266766Y0294944D01*
X0275974Y0294944D01*
X0272905Y0294944D02*
X0272905Y0290340D01*
X0271370Y0288806D01*
X0271370Y0298013D02*
X0268301Y0298013D01*
X0266766Y0299548D01*
X0266766Y0302617D01*
X0268301Y0304152D01*
X0271370Y0304152D01*
X0272905Y0302617D01*
X0272905Y0299548D01*
X0271370Y0298013D01*
X0262382Y0298874D02*
X0262382Y0310646D01*
X0266766Y0313360D02*
X0272905Y0313360D01*
X0272905Y0308756D01*
X0271370Y0307221D01*
X0266766Y0307221D01*
X0266766Y0316429D02*
X0269835Y0321033D01*
X0272905Y0316429D01*
X0275974Y0321033D02*
X0266766Y0321033D01*
X0262897Y0325402D02*
X0261362Y0323868D01*
X0256758Y0323868D01*
X0252376Y0322128D02*
X0252376Y0320593D01*
X0243168Y0320593D01*
X0243168Y0322128D02*
X0243168Y0319058D01*
X0243168Y0315989D02*
X0243168Y0312920D01*
X0243168Y0314454D02*
X0249306Y0314454D01*
X0249306Y0315989D01*
X0252376Y0314454D02*
X0253910Y0314454D01*
X0254665Y0310646D02*
X0254665Y0298992D01*
X0252376Y0300643D02*
X0243168Y0300643D01*
X0243168Y0303712D02*
X0243168Y0308316D01*
X0244702Y0309850D01*
X0247772Y0309850D01*
X0249306Y0308316D01*
X0249306Y0303712D01*
X0241633Y0303712D01*
X0240098Y0305246D01*
X0240098Y0306781D01*
X0247772Y0300643D02*
X0249306Y0299108D01*
X0249306Y0296039D01*
X0247772Y0294504D01*
X0243168Y0294504D01*
X0244702Y0289900D02*
X0243168Y0288365D01*
X0244702Y0289900D02*
X0250841Y0289900D01*
X0249306Y0291435D02*
X0249306Y0288365D01*
X0262897Y0325402D02*
X0262897Y0330006D01*
X0256758Y0330006D01*
X0258293Y0333076D02*
X0261362Y0333076D01*
X0262897Y0334610D01*
X0262897Y0337680D01*
X0261362Y0339214D01*
X0258293Y0339214D01*
X0256758Y0337680D01*
X0256758Y0334610D01*
X0258293Y0333076D01*
X0256758Y0342284D02*
X0258293Y0343818D01*
X0264431Y0343818D01*
X0262897Y0342284D02*
X0262897Y0345353D01*
X0262897Y0348422D02*
X0262897Y0351491D01*
X0264431Y0349957D02*
X0258293Y0349957D01*
X0256758Y0348422D01*
X0256758Y0354561D02*
X0262897Y0354561D01*
X0262897Y0360699D02*
X0258293Y0360699D01*
X0256758Y0359165D01*
X0256758Y0354561D01*
X0258293Y0363769D02*
X0261362Y0363769D01*
X0262897Y0365303D01*
X0262897Y0369907D01*
X0265966Y0369907D02*
X0256758Y0369907D01*
X0256758Y0365303D01*
X0258293Y0363769D01*
X0250344Y0369329D02*
X0241136Y0369329D01*
X0241136Y0372398D02*
X0241136Y0377002D01*
X0242671Y0378537D01*
X0245740Y0378537D01*
X0247275Y0377002D01*
X0247275Y0372398D01*
X0245740Y0369329D02*
X0247275Y0367795D01*
X0247275Y0364725D01*
X0245740Y0363191D01*
X0241136Y0363191D01*
X0241136Y0381606D02*
X0242671Y0383141D01*
X0248809Y0383141D01*
X0247275Y0384676D02*
X0247275Y0381606D01*
X0247275Y0389280D02*
X0241136Y0389280D01*
X0241136Y0390814D02*
X0241136Y0387745D01*
X0242671Y0393883D02*
X0247275Y0393883D01*
X0247275Y0390814D02*
X0247275Y0389280D01*
X0250344Y0389280D02*
X0251879Y0389280D01*
X0242671Y0393883D02*
X0241136Y0395418D01*
X0242671Y0396953D01*
X0241136Y0398487D01*
X0242671Y0400022D01*
X0247275Y0400022D01*
X0247275Y0403091D02*
X0247275Y0407695D01*
X0245740Y0409230D01*
X0244205Y0407695D01*
X0244205Y0404626D01*
X0242671Y0403091D01*
X0241136Y0404626D01*
X0241136Y0409230D01*
X0291302Y0404868D02*
X0291302Y0398729D01*
X0291302Y0395660D02*
X0291302Y0389521D01*
X0291302Y0386452D02*
X0291302Y0381848D01*
X0292836Y0380313D01*
X0298975Y0380313D01*
X0300509Y0381848D01*
X0300509Y0386452D01*
X0291302Y0386452D01*
X0295905Y0392591D02*
X0295905Y0395660D01*
X0291302Y0395660D02*
X0300509Y0395660D01*
X0300509Y0389521D01*
X0300509Y0404868D02*
X0291302Y0404868D01*
X0357081Y0349331D02*
X0363592Y0355842D01*
X0361422Y0353671D02*
X0364678Y0350416D01*
X0364678Y0348246D01*
X0362507Y0346075D01*
X0360337Y0346075D01*
X0357081Y0349331D01*
X0364677Y0343905D02*
X0364677Y0341735D01*
X0367933Y0338479D01*
X0372274Y0342820D01*
X0374444Y0340649D02*
X0378785Y0336309D01*
X0370103Y0336309D01*
X0374444Y0331968D01*
X0376614Y0329798D02*
X0380955Y0325457D01*
X0385295Y0329798D02*
X0376614Y0329798D01*
X0380955Y0334138D02*
X0385295Y0329798D01*
X0367637Y0327372D02*
X0367637Y0322768D01*
X0366102Y0321233D01*
X0363033Y0321233D01*
X0361498Y0322768D01*
X0361498Y0327372D01*
X0358429Y0327372D02*
X0367637Y0327372D01*
X0366102Y0318164D02*
X0363033Y0318164D01*
X0361498Y0316629D01*
X0361498Y0313560D01*
X0363033Y0312025D01*
X0366102Y0312025D01*
X0367637Y0313560D01*
X0367637Y0316629D01*
X0366102Y0318164D01*
X0364568Y0308956D02*
X0367637Y0305887D01*
X0367637Y0304352D01*
X0367637Y0301283D02*
X0367637Y0298213D01*
X0369172Y0299748D02*
X0363033Y0299748D01*
X0361498Y0298213D01*
X0361498Y0295144D02*
X0367637Y0289006D01*
X0369172Y0289006D01*
X0370706Y0290540D01*
X0370706Y0293610D01*
X0369172Y0295144D01*
X0361498Y0295144D02*
X0361498Y0289006D01*
X0361498Y0282065D02*
X0361498Y0277461D01*
X0363033Y0275926D01*
X0366102Y0275926D01*
X0367637Y0277461D01*
X0367637Y0282065D01*
X0358429Y0282065D01*
X0363033Y0272857D02*
X0361498Y0271322D01*
X0361498Y0268253D01*
X0363033Y0266718D01*
X0366102Y0266718D01*
X0367637Y0268253D01*
X0367637Y0271322D01*
X0366102Y0272857D01*
X0363033Y0272857D01*
X0361498Y0263649D02*
X0367637Y0263649D01*
X0364568Y0263649D02*
X0367637Y0260580D01*
X0367637Y0259045D01*
X0367637Y0255976D02*
X0367637Y0252906D01*
X0369172Y0254441D02*
X0363033Y0254441D01*
X0361498Y0252906D01*
X0361498Y0249837D02*
X0361498Y0243698D01*
X0361498Y0246768D02*
X0370706Y0246768D01*
X0367637Y0249837D01*
X0406059Y0248344D02*
X0406059Y0241844D01*
X0406061Y0241784D01*
X0406066Y0241723D01*
X0406075Y0241664D01*
X0406088Y0241605D01*
X0406104Y0241546D01*
X0406124Y0241489D01*
X0406147Y0241434D01*
X0406174Y0241379D01*
X0406203Y0241327D01*
X0406236Y0241276D01*
X0406272Y0241227D01*
X0406310Y0241181D01*
X0406352Y0241137D01*
X0406396Y0241095D01*
X0406442Y0241057D01*
X0406491Y0241021D01*
X0406542Y0240988D01*
X0406594Y0240959D01*
X0406649Y0240932D01*
X0406704Y0240909D01*
X0406761Y0240889D01*
X0406820Y0240873D01*
X0406879Y0240860D01*
X0406938Y0240851D01*
X0406999Y0240846D01*
X0407059Y0240844D01*
X0413059Y0240844D02*
X0413119Y0240846D01*
X0413180Y0240851D01*
X0413239Y0240860D01*
X0413298Y0240873D01*
X0413357Y0240889D01*
X0413414Y0240909D01*
X0413469Y0240932D01*
X0413524Y0240959D01*
X0413576Y0240988D01*
X0413627Y0241021D01*
X0413676Y0241057D01*
X0413722Y0241095D01*
X0413766Y0241137D01*
X0413808Y0241181D01*
X0413846Y0241227D01*
X0413882Y0241276D01*
X0413915Y0241327D01*
X0413944Y0241379D01*
X0413971Y0241434D01*
X0413994Y0241489D01*
X0414014Y0241546D01*
X0414030Y0241605D01*
X0414043Y0241664D01*
X0414052Y0241723D01*
X0414057Y0241784D01*
X0414059Y0241844D01*
X0414059Y0248344D01*
X0414057Y0248404D01*
X0414052Y0248465D01*
X0414043Y0248524D01*
X0414030Y0248583D01*
X0414014Y0248642D01*
X0413994Y0248699D01*
X0413971Y0248754D01*
X0413944Y0248809D01*
X0413915Y0248861D01*
X0413882Y0248912D01*
X0413846Y0248961D01*
X0413808Y0249007D01*
X0413766Y0249051D01*
X0413722Y0249093D01*
X0413676Y0249131D01*
X0413627Y0249167D01*
X0413576Y0249200D01*
X0413524Y0249229D01*
X0413469Y0249256D01*
X0413414Y0249279D01*
X0413357Y0249299D01*
X0413298Y0249315D01*
X0413239Y0249328D01*
X0413180Y0249337D01*
X0413119Y0249342D01*
X0413059Y0249344D01*
X0415902Y0248344D02*
X0415902Y0241844D01*
X0415904Y0241784D01*
X0415909Y0241723D01*
X0415918Y0241664D01*
X0415931Y0241605D01*
X0415947Y0241546D01*
X0415967Y0241489D01*
X0415990Y0241434D01*
X0416017Y0241379D01*
X0416046Y0241327D01*
X0416079Y0241276D01*
X0416115Y0241227D01*
X0416153Y0241181D01*
X0416195Y0241137D01*
X0416239Y0241095D01*
X0416285Y0241057D01*
X0416334Y0241021D01*
X0416385Y0240988D01*
X0416437Y0240959D01*
X0416492Y0240932D01*
X0416547Y0240909D01*
X0416604Y0240889D01*
X0416663Y0240873D01*
X0416722Y0240860D01*
X0416781Y0240851D01*
X0416842Y0240846D01*
X0416902Y0240844D01*
X0422902Y0240844D02*
X0422962Y0240846D01*
X0423023Y0240851D01*
X0423082Y0240860D01*
X0423141Y0240873D01*
X0423200Y0240889D01*
X0423257Y0240909D01*
X0423312Y0240932D01*
X0423367Y0240959D01*
X0423419Y0240988D01*
X0423470Y0241021D01*
X0423519Y0241057D01*
X0423565Y0241095D01*
X0423609Y0241137D01*
X0423651Y0241181D01*
X0423689Y0241227D01*
X0423725Y0241276D01*
X0423758Y0241327D01*
X0423787Y0241379D01*
X0423814Y0241434D01*
X0423837Y0241489D01*
X0423857Y0241546D01*
X0423873Y0241605D01*
X0423886Y0241664D01*
X0423895Y0241723D01*
X0423900Y0241784D01*
X0423902Y0241844D01*
X0423902Y0248344D01*
X0423900Y0248404D01*
X0423895Y0248465D01*
X0423886Y0248524D01*
X0423873Y0248583D01*
X0423857Y0248642D01*
X0423837Y0248699D01*
X0423814Y0248754D01*
X0423787Y0248809D01*
X0423758Y0248861D01*
X0423725Y0248912D01*
X0423689Y0248961D01*
X0423651Y0249007D01*
X0423609Y0249051D01*
X0423565Y0249093D01*
X0423519Y0249131D01*
X0423470Y0249167D01*
X0423419Y0249200D01*
X0423367Y0249229D01*
X0423312Y0249256D01*
X0423257Y0249279D01*
X0423200Y0249299D01*
X0423141Y0249315D01*
X0423082Y0249328D01*
X0423023Y0249337D01*
X0422962Y0249342D01*
X0422902Y0249344D01*
X0416902Y0249344D02*
X0416842Y0249342D01*
X0416781Y0249337D01*
X0416722Y0249328D01*
X0416663Y0249315D01*
X0416604Y0249299D01*
X0416547Y0249279D01*
X0416492Y0249256D01*
X0416437Y0249229D01*
X0416385Y0249200D01*
X0416334Y0249167D01*
X0416285Y0249131D01*
X0416239Y0249093D01*
X0416195Y0249051D01*
X0416153Y0249007D01*
X0416115Y0248961D01*
X0416079Y0248912D01*
X0416046Y0248861D01*
X0416017Y0248809D01*
X0415990Y0248754D01*
X0415967Y0248699D01*
X0415947Y0248642D01*
X0415931Y0248583D01*
X0415918Y0248524D01*
X0415909Y0248465D01*
X0415904Y0248404D01*
X0415902Y0248344D01*
X0407059Y0249344D02*
X0406999Y0249342D01*
X0406938Y0249337D01*
X0406879Y0249328D01*
X0406820Y0249315D01*
X0406761Y0249299D01*
X0406704Y0249279D01*
X0406649Y0249256D01*
X0406594Y0249229D01*
X0406542Y0249200D01*
X0406491Y0249167D01*
X0406442Y0249131D01*
X0406396Y0249093D01*
X0406352Y0249051D01*
X0406310Y0249007D01*
X0406272Y0248961D01*
X0406236Y0248912D01*
X0406203Y0248861D01*
X0406174Y0248809D01*
X0406147Y0248754D01*
X0406124Y0248699D01*
X0406104Y0248642D01*
X0406088Y0248583D01*
X0406075Y0248524D01*
X0406066Y0248465D01*
X0406061Y0248404D01*
X0406059Y0248344D01*
X0457512Y0265263D02*
X0457512Y0267433D01*
X0461852Y0271774D01*
X0459682Y0271774D02*
X0461852Y0269603D01*
X0462937Y0266348D02*
X0465108Y0266348D01*
X0467278Y0264178D01*
X0467278Y0262007D01*
X0466193Y0260922D01*
X0461852Y0265263D01*
X0460767Y0264178D02*
X0462937Y0266348D01*
X0460767Y0264178D02*
X0460767Y0262007D01*
X0462937Y0259837D01*
X0466193Y0256581D02*
X0470533Y0260922D01*
X0471619Y0259837D01*
X0471619Y0257667D01*
X0473789Y0257667D01*
X0473789Y0255496D01*
X0470533Y0252241D01*
X0468363Y0254411D02*
X0471619Y0257667D01*
X0477044Y0254411D02*
X0480300Y0251156D01*
X0480300Y0248985D01*
X0478130Y0246815D01*
X0475959Y0246815D01*
X0472704Y0250071D01*
X0470533Y0247900D02*
X0477044Y0254411D01*
X0472157Y0288806D02*
X0473692Y0290340D01*
X0473692Y0294944D01*
X0476761Y0294944D02*
X0467554Y0294944D01*
X0467554Y0290340D01*
X0469088Y0288806D01*
X0472157Y0288806D01*
X0472157Y0298013D02*
X0473692Y0299548D01*
X0473692Y0302617D01*
X0472157Y0304152D01*
X0469088Y0304152D01*
X0467554Y0302617D01*
X0467554Y0299548D01*
X0469088Y0298013D01*
X0472157Y0298013D01*
X0463169Y0298874D02*
X0463169Y0310646D01*
X0467554Y0313360D02*
X0473692Y0313360D01*
X0473692Y0308756D01*
X0472157Y0307221D01*
X0467554Y0307221D01*
X0467554Y0316429D02*
X0470623Y0321033D01*
X0473692Y0316429D01*
X0476761Y0321033D02*
X0467554Y0321033D01*
X0463684Y0325402D02*
X0462150Y0323868D01*
X0457546Y0323868D01*
X0453163Y0322128D02*
X0453163Y0320593D01*
X0443955Y0320593D01*
X0443955Y0322128D02*
X0443955Y0319058D01*
X0443955Y0315989D02*
X0443955Y0312920D01*
X0443955Y0314454D02*
X0450094Y0314454D01*
X0450094Y0315989D01*
X0453163Y0314454D02*
X0454698Y0314454D01*
X0455453Y0310646D02*
X0455453Y0298992D01*
X0453163Y0300643D02*
X0443955Y0300643D01*
X0443955Y0303712D02*
X0443955Y0308316D01*
X0445490Y0309850D01*
X0448559Y0309850D01*
X0450094Y0308316D01*
X0450094Y0303712D01*
X0442420Y0303712D01*
X0440886Y0305246D01*
X0440886Y0306781D01*
X0448559Y0300643D02*
X0450094Y0299108D01*
X0450094Y0296039D01*
X0448559Y0294504D01*
X0443955Y0294504D01*
X0445490Y0289900D02*
X0443955Y0288365D01*
X0445490Y0289900D02*
X0451628Y0289900D01*
X0450094Y0291435D02*
X0450094Y0288365D01*
X0463684Y0325402D02*
X0463684Y0330006D01*
X0457546Y0330006D01*
X0459080Y0333076D02*
X0462150Y0333076D01*
X0463684Y0334610D01*
X0463684Y0337680D01*
X0462150Y0339214D01*
X0459080Y0339214D01*
X0457546Y0337680D01*
X0457546Y0334610D01*
X0459080Y0333076D01*
X0457546Y0342284D02*
X0459080Y0343818D01*
X0465219Y0343818D01*
X0463684Y0345353D02*
X0463684Y0342284D01*
X0463684Y0348422D02*
X0463684Y0351491D01*
X0465219Y0349957D02*
X0459080Y0349957D01*
X0457546Y0348422D01*
X0457546Y0354561D02*
X0463684Y0354561D01*
X0463684Y0360699D02*
X0459080Y0360699D01*
X0457546Y0359165D01*
X0457546Y0354561D01*
X0459080Y0363769D02*
X0462150Y0363769D01*
X0463684Y0365303D01*
X0463684Y0369907D01*
X0466754Y0369907D02*
X0457546Y0369907D01*
X0457546Y0365303D01*
X0459080Y0363769D01*
X0451131Y0369329D02*
X0441924Y0369329D01*
X0441924Y0372398D02*
X0441924Y0377002D01*
X0443458Y0378537D01*
X0446528Y0378537D01*
X0448062Y0377002D01*
X0448062Y0372398D01*
X0446528Y0369329D02*
X0448062Y0367795D01*
X0448062Y0364725D01*
X0446528Y0363191D01*
X0441924Y0363191D01*
X0441924Y0381606D02*
X0443458Y0383141D01*
X0449597Y0383141D01*
X0448062Y0384676D02*
X0448062Y0381606D01*
X0448062Y0389280D02*
X0441924Y0389280D01*
X0441924Y0390814D02*
X0441924Y0387745D01*
X0448062Y0389280D02*
X0448062Y0390814D01*
X0448062Y0393883D02*
X0443458Y0393883D01*
X0441924Y0395418D01*
X0443458Y0396953D01*
X0441924Y0398487D01*
X0443458Y0400022D01*
X0448062Y0400022D01*
X0448062Y0403091D02*
X0448062Y0407695D01*
X0446528Y0409230D01*
X0444993Y0407695D01*
X0444993Y0404626D01*
X0443458Y0403091D01*
X0441924Y0404626D01*
X0441924Y0409230D01*
X0451131Y0389280D02*
X0452666Y0389280D01*
X0492089Y0389521D02*
X0492089Y0395660D01*
X0501297Y0395660D01*
X0501297Y0389521D01*
X0501297Y0386452D02*
X0501297Y0381848D01*
X0499762Y0380313D01*
X0493624Y0380313D01*
X0492089Y0381848D01*
X0492089Y0386452D01*
X0501297Y0386452D01*
X0496693Y0392591D02*
X0496693Y0395660D01*
X0492089Y0398729D02*
X0492089Y0404868D01*
X0501297Y0404868D01*
X0557869Y0349331D02*
X0564380Y0355842D01*
X0562209Y0353671D02*
X0565465Y0350416D01*
X0565465Y0348246D01*
X0563295Y0346075D01*
X0561124Y0346075D01*
X0557869Y0349331D01*
X0565465Y0343905D02*
X0565465Y0341735D01*
X0568720Y0338479D01*
X0573061Y0342820D01*
X0575231Y0340649D02*
X0579572Y0336309D01*
X0570891Y0336309D01*
X0575231Y0331968D01*
X0577402Y0329798D02*
X0581742Y0325457D01*
X0577402Y0329798D02*
X0586083Y0329798D01*
X0581742Y0334138D01*
X0568424Y0327372D02*
X0568424Y0322768D01*
X0566890Y0321233D01*
X0563820Y0321233D01*
X0562286Y0322768D01*
X0562286Y0327372D01*
X0559217Y0327372D02*
X0568424Y0327372D01*
X0566890Y0318164D02*
X0563820Y0318164D01*
X0562286Y0316629D01*
X0562286Y0313560D01*
X0563820Y0312025D01*
X0566890Y0312025D01*
X0568424Y0313560D01*
X0568424Y0316629D01*
X0566890Y0318164D01*
X0568424Y0308956D02*
X0562286Y0308956D01*
X0565355Y0308956D02*
X0568424Y0305887D01*
X0568424Y0304352D01*
X0568424Y0301283D02*
X0568424Y0298213D01*
X0569959Y0299748D02*
X0563820Y0299748D01*
X0562286Y0298213D01*
X0562286Y0295144D02*
X0568424Y0289006D01*
X0569959Y0289006D01*
X0571494Y0290540D01*
X0571494Y0293610D01*
X0569959Y0295144D01*
X0562286Y0295144D02*
X0562286Y0289006D01*
X0562286Y0282065D02*
X0562286Y0277461D01*
X0563820Y0275926D01*
X0566890Y0275926D01*
X0568424Y0277461D01*
X0568424Y0282065D01*
X0559217Y0282065D01*
X0563820Y0272857D02*
X0562286Y0271322D01*
X0562286Y0268253D01*
X0563820Y0266718D01*
X0566890Y0266718D01*
X0568424Y0268253D01*
X0568424Y0271322D01*
X0566890Y0272857D01*
X0563820Y0272857D01*
X0562286Y0263649D02*
X0568424Y0263649D01*
X0565355Y0263649D02*
X0568424Y0260580D01*
X0568424Y0259045D01*
X0568424Y0255976D02*
X0568424Y0252906D01*
X0569959Y0254441D02*
X0563820Y0254441D01*
X0562286Y0252906D01*
X0562286Y0249837D02*
X0562286Y0243698D01*
X0562286Y0246768D02*
X0571494Y0246768D01*
X0568424Y0249837D01*
X0606846Y0248344D02*
X0606846Y0241844D01*
X0606848Y0241784D01*
X0606853Y0241723D01*
X0606862Y0241664D01*
X0606875Y0241605D01*
X0606891Y0241546D01*
X0606911Y0241489D01*
X0606934Y0241434D01*
X0606961Y0241379D01*
X0606990Y0241327D01*
X0607023Y0241276D01*
X0607059Y0241227D01*
X0607097Y0241181D01*
X0607139Y0241137D01*
X0607183Y0241095D01*
X0607229Y0241057D01*
X0607278Y0241021D01*
X0607329Y0240988D01*
X0607381Y0240959D01*
X0607436Y0240932D01*
X0607491Y0240909D01*
X0607548Y0240889D01*
X0607607Y0240873D01*
X0607666Y0240860D01*
X0607725Y0240851D01*
X0607786Y0240846D01*
X0607846Y0240844D01*
X0613846Y0240844D02*
X0613906Y0240846D01*
X0613967Y0240851D01*
X0614026Y0240860D01*
X0614085Y0240873D01*
X0614144Y0240889D01*
X0614201Y0240909D01*
X0614256Y0240932D01*
X0614311Y0240959D01*
X0614363Y0240988D01*
X0614414Y0241021D01*
X0614463Y0241057D01*
X0614509Y0241095D01*
X0614553Y0241137D01*
X0614595Y0241181D01*
X0614633Y0241227D01*
X0614669Y0241276D01*
X0614702Y0241327D01*
X0614731Y0241379D01*
X0614758Y0241434D01*
X0614781Y0241489D01*
X0614801Y0241546D01*
X0614817Y0241605D01*
X0614830Y0241664D01*
X0614839Y0241723D01*
X0614844Y0241784D01*
X0614846Y0241844D01*
X0614846Y0248344D01*
X0614844Y0248404D01*
X0614839Y0248465D01*
X0614830Y0248524D01*
X0614817Y0248583D01*
X0614801Y0248642D01*
X0614781Y0248699D01*
X0614758Y0248754D01*
X0614731Y0248809D01*
X0614702Y0248861D01*
X0614669Y0248912D01*
X0614633Y0248961D01*
X0614595Y0249007D01*
X0614553Y0249051D01*
X0614509Y0249093D01*
X0614463Y0249131D01*
X0614414Y0249167D01*
X0614363Y0249200D01*
X0614311Y0249229D01*
X0614256Y0249256D01*
X0614201Y0249279D01*
X0614144Y0249299D01*
X0614085Y0249315D01*
X0614026Y0249328D01*
X0613967Y0249337D01*
X0613906Y0249342D01*
X0613846Y0249344D01*
X0616689Y0248344D02*
X0616689Y0241844D01*
X0616691Y0241784D01*
X0616696Y0241723D01*
X0616705Y0241664D01*
X0616718Y0241605D01*
X0616734Y0241546D01*
X0616754Y0241489D01*
X0616777Y0241434D01*
X0616804Y0241379D01*
X0616833Y0241327D01*
X0616866Y0241276D01*
X0616902Y0241227D01*
X0616940Y0241181D01*
X0616982Y0241137D01*
X0617026Y0241095D01*
X0617072Y0241057D01*
X0617121Y0241021D01*
X0617172Y0240988D01*
X0617224Y0240959D01*
X0617279Y0240932D01*
X0617334Y0240909D01*
X0617391Y0240889D01*
X0617450Y0240873D01*
X0617509Y0240860D01*
X0617568Y0240851D01*
X0617629Y0240846D01*
X0617689Y0240844D01*
X0623689Y0240844D02*
X0623749Y0240846D01*
X0623810Y0240851D01*
X0623869Y0240860D01*
X0623928Y0240873D01*
X0623987Y0240889D01*
X0624044Y0240909D01*
X0624099Y0240932D01*
X0624154Y0240959D01*
X0624206Y0240988D01*
X0624257Y0241021D01*
X0624306Y0241057D01*
X0624352Y0241095D01*
X0624396Y0241137D01*
X0624438Y0241181D01*
X0624476Y0241227D01*
X0624512Y0241276D01*
X0624545Y0241327D01*
X0624574Y0241379D01*
X0624601Y0241434D01*
X0624624Y0241489D01*
X0624644Y0241546D01*
X0624660Y0241605D01*
X0624673Y0241664D01*
X0624682Y0241723D01*
X0624687Y0241784D01*
X0624689Y0241844D01*
X0624689Y0248344D01*
X0624687Y0248404D01*
X0624682Y0248465D01*
X0624673Y0248524D01*
X0624660Y0248583D01*
X0624644Y0248642D01*
X0624624Y0248699D01*
X0624601Y0248754D01*
X0624574Y0248809D01*
X0624545Y0248861D01*
X0624512Y0248912D01*
X0624476Y0248961D01*
X0624438Y0249007D01*
X0624396Y0249051D01*
X0624352Y0249093D01*
X0624306Y0249131D01*
X0624257Y0249167D01*
X0624206Y0249200D01*
X0624154Y0249229D01*
X0624099Y0249256D01*
X0624044Y0249279D01*
X0623987Y0249299D01*
X0623928Y0249315D01*
X0623869Y0249328D01*
X0623810Y0249337D01*
X0623749Y0249342D01*
X0623689Y0249344D01*
X0617689Y0249344D02*
X0617629Y0249342D01*
X0617568Y0249337D01*
X0617509Y0249328D01*
X0617450Y0249315D01*
X0617391Y0249299D01*
X0617334Y0249279D01*
X0617279Y0249256D01*
X0617224Y0249229D01*
X0617172Y0249200D01*
X0617121Y0249167D01*
X0617072Y0249131D01*
X0617026Y0249093D01*
X0616982Y0249051D01*
X0616940Y0249007D01*
X0616902Y0248961D01*
X0616866Y0248912D01*
X0616833Y0248861D01*
X0616804Y0248809D01*
X0616777Y0248754D01*
X0616754Y0248699D01*
X0616734Y0248642D01*
X0616718Y0248583D01*
X0616705Y0248524D01*
X0616696Y0248465D01*
X0616691Y0248404D01*
X0616689Y0248344D01*
X0607846Y0249344D02*
X0607786Y0249342D01*
X0607725Y0249337D01*
X0607666Y0249328D01*
X0607607Y0249315D01*
X0607548Y0249299D01*
X0607491Y0249279D01*
X0607436Y0249256D01*
X0607381Y0249229D01*
X0607329Y0249200D01*
X0607278Y0249167D01*
X0607229Y0249131D01*
X0607183Y0249093D01*
X0607139Y0249051D01*
X0607097Y0249007D01*
X0607059Y0248961D01*
X0607023Y0248912D01*
X0606990Y0248861D01*
X0606961Y0248809D01*
X0606934Y0248754D01*
X0606911Y0248699D01*
X0606891Y0248642D01*
X0606875Y0248583D01*
X0606862Y0248524D01*
X0606853Y0248465D01*
X0606848Y0248404D01*
X0606846Y0248344D01*
X0621591Y0192441D02*
X0620056Y0190906D01*
X0620056Y0186302D01*
X0626194Y0186302D01*
X0624660Y0183233D02*
X0621591Y0183233D01*
X0620056Y0181698D01*
X0620056Y0178629D01*
X0621591Y0177094D01*
X0624660Y0177094D01*
X0626194Y0178629D01*
X0626194Y0181698D01*
X0624660Y0183233D01*
X0626194Y0174025D02*
X0624660Y0172491D01*
X0618521Y0172491D01*
X0620056Y0170956D02*
X0620056Y0174025D01*
X0620056Y0167887D02*
X0620056Y0164817D01*
X0618521Y0166352D02*
X0624660Y0166352D01*
X0626194Y0167887D01*
X0626194Y0161748D02*
X0620056Y0161748D01*
X0626194Y0161748D02*
X0626194Y0157144D01*
X0624660Y0155609D01*
X0620056Y0155609D01*
X0621591Y0152540D02*
X0620056Y0151006D01*
X0620056Y0146402D01*
X0616987Y0146402D02*
X0626194Y0146402D01*
X0626194Y0151006D01*
X0624660Y0152540D01*
X0621591Y0152540D01*
X0608604Y0151690D02*
X0608604Y0147086D01*
X0607069Y0145551D01*
X0604000Y0145551D01*
X0602465Y0147086D01*
X0602465Y0151690D01*
X0604000Y0154759D02*
X0602465Y0156294D01*
X0602465Y0159363D01*
X0604000Y0160898D01*
X0608604Y0160898D01*
X0608604Y0154759D02*
X0599396Y0154759D01*
X0602465Y0142482D02*
X0602465Y0139413D01*
X0600931Y0140947D02*
X0607069Y0140947D01*
X0608604Y0142482D01*
X0608604Y0136343D02*
X0608604Y0133274D01*
X0608604Y0134809D02*
X0602465Y0134809D01*
X0602465Y0133274D01*
X0602465Y0130205D02*
X0607069Y0130205D01*
X0608604Y0128670D01*
X0607069Y0127135D01*
X0608604Y0125601D01*
X0607069Y0124066D01*
X0602465Y0124066D01*
X0602465Y0120997D02*
X0602465Y0116393D01*
X0604000Y0114858D01*
X0605535Y0116393D01*
X0605535Y0119462D01*
X0607069Y0120997D01*
X0608604Y0119462D01*
X0608604Y0114858D01*
X0613913Y0110528D02*
X0612379Y0108993D01*
X0612379Y0104389D01*
X0609309Y0104389D02*
X0618517Y0104389D01*
X0618517Y0108993D01*
X0616983Y0110528D01*
X0613913Y0110528D01*
X0613913Y0101320D02*
X0612379Y0099785D01*
X0612379Y0096716D01*
X0613913Y0095181D01*
X0616983Y0095181D01*
X0618517Y0096716D01*
X0618517Y0099785D01*
X0616983Y0101320D01*
X0613913Y0101320D01*
X0613913Y0092112D02*
X0612379Y0090577D01*
X0612379Y0085973D01*
X0618517Y0085973D01*
X0618517Y0082904D02*
X0615448Y0078300D01*
X0612379Y0082904D01*
X0609309Y0078300D02*
X0618517Y0078300D01*
X0621181Y0075652D02*
X0619646Y0074117D01*
X0619646Y0069513D01*
X0628854Y0069513D01*
X0625785Y0069513D02*
X0625785Y0074117D01*
X0624250Y0075652D01*
X0621181Y0075652D01*
X0621181Y0066444D02*
X0625785Y0066444D01*
X0625785Y0063375D02*
X0621181Y0063375D01*
X0619646Y0064909D01*
X0621181Y0066444D01*
X0621181Y0063375D02*
X0619646Y0061840D01*
X0619646Y0060305D01*
X0625785Y0060305D01*
X0622716Y0057236D02*
X0622716Y0051098D01*
X0624250Y0051098D02*
X0621181Y0051098D01*
X0619646Y0052632D01*
X0619646Y0055702D01*
X0621181Y0057236D01*
X0622716Y0057236D01*
X0625785Y0055702D02*
X0625785Y0052632D01*
X0624250Y0051098D01*
X0625785Y0048028D02*
X0624250Y0046494D01*
X0618112Y0046494D01*
X0619646Y0048028D02*
X0619646Y0044959D01*
X0618476Y0032809D02*
X0618416Y0032807D01*
X0618355Y0032802D01*
X0618296Y0032793D01*
X0618237Y0032780D01*
X0618178Y0032764D01*
X0618121Y0032744D01*
X0618066Y0032721D01*
X0618011Y0032694D01*
X0617959Y0032665D01*
X0617908Y0032632D01*
X0617859Y0032596D01*
X0617813Y0032558D01*
X0617769Y0032516D01*
X0617727Y0032472D01*
X0617689Y0032426D01*
X0617653Y0032377D01*
X0617620Y0032326D01*
X0617591Y0032274D01*
X0617564Y0032219D01*
X0617541Y0032164D01*
X0617521Y0032107D01*
X0617505Y0032048D01*
X0617492Y0031989D01*
X0617483Y0031930D01*
X0617478Y0031869D01*
X0617476Y0031809D01*
X0617476Y0025309D01*
X0617478Y0025249D01*
X0617483Y0025188D01*
X0617492Y0025129D01*
X0617505Y0025070D01*
X0617521Y0025011D01*
X0617541Y0024954D01*
X0617564Y0024899D01*
X0617591Y0024844D01*
X0617620Y0024792D01*
X0617653Y0024741D01*
X0617689Y0024692D01*
X0617727Y0024646D01*
X0617769Y0024602D01*
X0617813Y0024560D01*
X0617859Y0024522D01*
X0617908Y0024486D01*
X0617959Y0024453D01*
X0618011Y0024424D01*
X0618066Y0024397D01*
X0618121Y0024374D01*
X0618178Y0024354D01*
X0618237Y0024338D01*
X0618296Y0024325D01*
X0618355Y0024316D01*
X0618416Y0024311D01*
X0618476Y0024309D01*
X0615634Y0025309D02*
X0615634Y0031809D01*
X0615632Y0031869D01*
X0615627Y0031930D01*
X0615618Y0031989D01*
X0615605Y0032048D01*
X0615589Y0032107D01*
X0615569Y0032164D01*
X0615546Y0032219D01*
X0615519Y0032274D01*
X0615490Y0032326D01*
X0615457Y0032377D01*
X0615421Y0032426D01*
X0615383Y0032472D01*
X0615341Y0032516D01*
X0615297Y0032558D01*
X0615251Y0032596D01*
X0615202Y0032632D01*
X0615151Y0032665D01*
X0615099Y0032694D01*
X0615044Y0032721D01*
X0614989Y0032744D01*
X0614932Y0032764D01*
X0614873Y0032780D01*
X0614814Y0032793D01*
X0614755Y0032802D01*
X0614694Y0032807D01*
X0614634Y0032809D01*
X0608634Y0032809D02*
X0608574Y0032807D01*
X0608513Y0032802D01*
X0608454Y0032793D01*
X0608395Y0032780D01*
X0608336Y0032764D01*
X0608279Y0032744D01*
X0608224Y0032721D01*
X0608169Y0032694D01*
X0608117Y0032665D01*
X0608066Y0032632D01*
X0608017Y0032596D01*
X0607971Y0032558D01*
X0607927Y0032516D01*
X0607885Y0032472D01*
X0607847Y0032426D01*
X0607811Y0032377D01*
X0607778Y0032326D01*
X0607749Y0032274D01*
X0607722Y0032219D01*
X0607699Y0032164D01*
X0607679Y0032107D01*
X0607663Y0032048D01*
X0607650Y0031989D01*
X0607641Y0031930D01*
X0607636Y0031869D01*
X0607634Y0031809D01*
X0607634Y0025309D01*
X0607636Y0025249D01*
X0607641Y0025188D01*
X0607650Y0025129D01*
X0607663Y0025070D01*
X0607679Y0025011D01*
X0607699Y0024954D01*
X0607722Y0024899D01*
X0607749Y0024844D01*
X0607778Y0024792D01*
X0607811Y0024741D01*
X0607847Y0024692D01*
X0607885Y0024646D01*
X0607927Y0024602D01*
X0607971Y0024560D01*
X0608017Y0024522D01*
X0608066Y0024486D01*
X0608117Y0024453D01*
X0608169Y0024424D01*
X0608224Y0024397D01*
X0608279Y0024374D01*
X0608336Y0024354D01*
X0608395Y0024338D01*
X0608454Y0024325D01*
X0608513Y0024316D01*
X0608574Y0024311D01*
X0608634Y0024309D01*
X0614634Y0024309D02*
X0614694Y0024311D01*
X0614755Y0024316D01*
X0614814Y0024325D01*
X0614873Y0024338D01*
X0614932Y0024354D01*
X0614989Y0024374D01*
X0615044Y0024397D01*
X0615099Y0024424D01*
X0615151Y0024453D01*
X0615202Y0024486D01*
X0615251Y0024522D01*
X0615297Y0024560D01*
X0615341Y0024602D01*
X0615383Y0024646D01*
X0615421Y0024692D01*
X0615457Y0024741D01*
X0615490Y0024792D01*
X0615519Y0024844D01*
X0615546Y0024899D01*
X0615569Y0024954D01*
X0615589Y0025011D01*
X0615605Y0025070D01*
X0615618Y0025129D01*
X0615627Y0025188D01*
X0615632Y0025249D01*
X0615634Y0025309D01*
X0624476Y0024309D02*
X0624536Y0024311D01*
X0624597Y0024316D01*
X0624656Y0024325D01*
X0624715Y0024338D01*
X0624774Y0024354D01*
X0624831Y0024374D01*
X0624886Y0024397D01*
X0624941Y0024424D01*
X0624993Y0024453D01*
X0625044Y0024486D01*
X0625093Y0024522D01*
X0625139Y0024560D01*
X0625183Y0024602D01*
X0625225Y0024646D01*
X0625263Y0024692D01*
X0625299Y0024741D01*
X0625332Y0024792D01*
X0625361Y0024844D01*
X0625388Y0024899D01*
X0625411Y0024954D01*
X0625431Y0025011D01*
X0625447Y0025070D01*
X0625460Y0025129D01*
X0625469Y0025188D01*
X0625474Y0025249D01*
X0625476Y0025309D01*
X0625476Y0031809D01*
X0625474Y0031869D01*
X0625469Y0031930D01*
X0625460Y0031989D01*
X0625447Y0032048D01*
X0625431Y0032107D01*
X0625411Y0032164D01*
X0625388Y0032219D01*
X0625361Y0032274D01*
X0625332Y0032326D01*
X0625299Y0032377D01*
X0625263Y0032426D01*
X0625225Y0032472D01*
X0625183Y0032516D01*
X0625139Y0032558D01*
X0625093Y0032596D01*
X0625044Y0032632D01*
X0624993Y0032665D01*
X0624941Y0032694D01*
X0624886Y0032721D01*
X0624831Y0032744D01*
X0624774Y0032764D01*
X0624715Y0032780D01*
X0624656Y0032793D01*
X0624597Y0032802D01*
X0624536Y0032807D01*
X0624476Y0032809D01*
X0586240Y0043403D02*
X0586240Y0044938D01*
X0584705Y0046472D01*
X0577032Y0046472D01*
X0577032Y0041868D01*
X0578567Y0040334D01*
X0581636Y0040334D01*
X0583171Y0041868D01*
X0583171Y0046472D01*
X0583171Y0049542D02*
X0573963Y0049542D01*
X0577032Y0051076D02*
X0577032Y0054146D01*
X0578567Y0055680D01*
X0583171Y0055680D01*
X0581636Y0060284D02*
X0583171Y0061819D01*
X0581636Y0060284D02*
X0575498Y0060284D01*
X0577032Y0058750D02*
X0577032Y0061819D01*
X0577032Y0051076D02*
X0578567Y0049542D01*
X0569469Y0051591D02*
X0569469Y0039819D01*
X0572428Y0035730D02*
X0573963Y0035730D01*
X0577032Y0035730D02*
X0577032Y0034195D01*
X0577032Y0035730D02*
X0583171Y0035730D01*
X0583171Y0034195D02*
X0583171Y0037265D01*
X0583171Y0031126D02*
X0583171Y0028057D01*
X0583171Y0029591D02*
X0573963Y0029591D01*
X0573963Y0028057D01*
X0561752Y0039937D02*
X0561752Y0051591D01*
X0511769Y0056180D02*
X0510235Y0054646D01*
X0504096Y0054646D01*
X0505631Y0053111D02*
X0505631Y0056180D01*
X0505631Y0059250D02*
X0502561Y0062319D01*
X0511769Y0062319D01*
X0511769Y0059250D02*
X0511769Y0065388D01*
X0505631Y0050042D02*
X0505631Y0048507D01*
X0508700Y0045438D01*
X0511769Y0045438D02*
X0505631Y0045438D01*
X0507165Y0042368D02*
X0505631Y0040834D01*
X0505631Y0037765D01*
X0507165Y0036230D01*
X0510235Y0036230D01*
X0511769Y0037765D01*
X0511769Y0040834D01*
X0510235Y0042368D01*
X0507165Y0042368D01*
X0507165Y0033161D02*
X0510235Y0033161D01*
X0511769Y0031626D01*
X0511769Y0027022D01*
X0514839Y0027022D02*
X0505631Y0027022D01*
X0505631Y0031626D01*
X0507165Y0033161D01*
X0424689Y0031809D02*
X0424689Y0025309D01*
X0424687Y0025249D01*
X0424682Y0025188D01*
X0424673Y0025129D01*
X0424660Y0025070D01*
X0424644Y0025011D01*
X0424624Y0024954D01*
X0424601Y0024899D01*
X0424574Y0024844D01*
X0424545Y0024792D01*
X0424512Y0024741D01*
X0424476Y0024692D01*
X0424438Y0024646D01*
X0424396Y0024602D01*
X0424352Y0024560D01*
X0424306Y0024522D01*
X0424257Y0024486D01*
X0424206Y0024453D01*
X0424154Y0024424D01*
X0424099Y0024397D01*
X0424044Y0024374D01*
X0423987Y0024354D01*
X0423928Y0024338D01*
X0423869Y0024325D01*
X0423810Y0024316D01*
X0423749Y0024311D01*
X0423689Y0024309D01*
X0417689Y0024309D02*
X0417629Y0024311D01*
X0417568Y0024316D01*
X0417509Y0024325D01*
X0417450Y0024338D01*
X0417391Y0024354D01*
X0417334Y0024374D01*
X0417279Y0024397D01*
X0417224Y0024424D01*
X0417172Y0024453D01*
X0417121Y0024486D01*
X0417072Y0024522D01*
X0417026Y0024560D01*
X0416982Y0024602D01*
X0416940Y0024646D01*
X0416902Y0024692D01*
X0416866Y0024741D01*
X0416833Y0024792D01*
X0416804Y0024844D01*
X0416777Y0024899D01*
X0416754Y0024954D01*
X0416734Y0025011D01*
X0416718Y0025070D01*
X0416705Y0025129D01*
X0416696Y0025188D01*
X0416691Y0025249D01*
X0416689Y0025309D01*
X0416689Y0031809D01*
X0416691Y0031869D01*
X0416696Y0031930D01*
X0416705Y0031989D01*
X0416718Y0032048D01*
X0416734Y0032107D01*
X0416754Y0032164D01*
X0416777Y0032219D01*
X0416804Y0032274D01*
X0416833Y0032326D01*
X0416866Y0032377D01*
X0416902Y0032426D01*
X0416940Y0032472D01*
X0416982Y0032516D01*
X0417026Y0032558D01*
X0417072Y0032596D01*
X0417121Y0032632D01*
X0417172Y0032665D01*
X0417224Y0032694D01*
X0417279Y0032721D01*
X0417334Y0032744D01*
X0417391Y0032764D01*
X0417450Y0032780D01*
X0417509Y0032793D01*
X0417568Y0032802D01*
X0417629Y0032807D01*
X0417689Y0032809D01*
X0414846Y0031809D02*
X0414846Y0025309D01*
X0414844Y0025249D01*
X0414839Y0025188D01*
X0414830Y0025129D01*
X0414817Y0025070D01*
X0414801Y0025011D01*
X0414781Y0024954D01*
X0414758Y0024899D01*
X0414731Y0024844D01*
X0414702Y0024792D01*
X0414669Y0024741D01*
X0414633Y0024692D01*
X0414595Y0024646D01*
X0414553Y0024602D01*
X0414509Y0024560D01*
X0414463Y0024522D01*
X0414414Y0024486D01*
X0414363Y0024453D01*
X0414311Y0024424D01*
X0414256Y0024397D01*
X0414201Y0024374D01*
X0414144Y0024354D01*
X0414085Y0024338D01*
X0414026Y0024325D01*
X0413967Y0024316D01*
X0413906Y0024311D01*
X0413846Y0024309D01*
X0407846Y0024309D02*
X0407786Y0024311D01*
X0407725Y0024316D01*
X0407666Y0024325D01*
X0407607Y0024338D01*
X0407548Y0024354D01*
X0407491Y0024374D01*
X0407436Y0024397D01*
X0407381Y0024424D01*
X0407329Y0024453D01*
X0407278Y0024486D01*
X0407229Y0024522D01*
X0407183Y0024560D01*
X0407139Y0024602D01*
X0407097Y0024646D01*
X0407059Y0024692D01*
X0407023Y0024741D01*
X0406990Y0024792D01*
X0406961Y0024844D01*
X0406934Y0024899D01*
X0406911Y0024954D01*
X0406891Y0025011D01*
X0406875Y0025070D01*
X0406862Y0025129D01*
X0406853Y0025188D01*
X0406848Y0025249D01*
X0406846Y0025309D01*
X0406846Y0031809D01*
X0406848Y0031869D01*
X0406853Y0031930D01*
X0406862Y0031989D01*
X0406875Y0032048D01*
X0406891Y0032107D01*
X0406911Y0032164D01*
X0406934Y0032219D01*
X0406961Y0032274D01*
X0406990Y0032326D01*
X0407023Y0032377D01*
X0407059Y0032426D01*
X0407097Y0032472D01*
X0407139Y0032516D01*
X0407183Y0032558D01*
X0407229Y0032596D01*
X0407278Y0032632D01*
X0407329Y0032665D01*
X0407381Y0032694D01*
X0407436Y0032721D01*
X0407491Y0032744D01*
X0407548Y0032764D01*
X0407607Y0032780D01*
X0407666Y0032793D01*
X0407725Y0032802D01*
X0407786Y0032807D01*
X0407846Y0032809D01*
X0413846Y0032809D02*
X0413906Y0032807D01*
X0413967Y0032802D01*
X0414026Y0032793D01*
X0414085Y0032780D01*
X0414144Y0032764D01*
X0414201Y0032744D01*
X0414256Y0032721D01*
X0414311Y0032694D01*
X0414363Y0032665D01*
X0414414Y0032632D01*
X0414463Y0032596D01*
X0414509Y0032558D01*
X0414553Y0032516D01*
X0414595Y0032472D01*
X0414633Y0032426D01*
X0414669Y0032377D01*
X0414702Y0032326D01*
X0414731Y0032274D01*
X0414758Y0032219D01*
X0414781Y0032164D01*
X0414801Y0032107D01*
X0414817Y0032048D01*
X0414830Y0031989D01*
X0414839Y0031930D01*
X0414844Y0031869D01*
X0414846Y0031809D01*
X0423689Y0032809D02*
X0423749Y0032807D01*
X0423810Y0032802D01*
X0423869Y0032793D01*
X0423928Y0032780D01*
X0423987Y0032764D01*
X0424044Y0032744D01*
X0424099Y0032721D01*
X0424154Y0032694D01*
X0424206Y0032665D01*
X0424257Y0032632D01*
X0424306Y0032596D01*
X0424352Y0032558D01*
X0424396Y0032516D01*
X0424438Y0032472D01*
X0424476Y0032426D01*
X0424512Y0032377D01*
X0424545Y0032326D01*
X0424574Y0032274D01*
X0424601Y0032219D01*
X0424624Y0032164D01*
X0424644Y0032107D01*
X0424660Y0032048D01*
X0424673Y0031989D01*
X0424682Y0031930D01*
X0424687Y0031869D01*
X0424689Y0031809D01*
X0418859Y0044959D02*
X0418859Y0048028D01*
X0417324Y0046494D02*
X0423463Y0046494D01*
X0424998Y0048028D01*
X0423463Y0051098D02*
X0420394Y0051098D01*
X0418859Y0052632D01*
X0418859Y0055702D01*
X0420394Y0057236D01*
X0421928Y0057236D01*
X0421928Y0051098D01*
X0423463Y0051098D02*
X0424998Y0052632D01*
X0424998Y0055702D01*
X0424998Y0060305D02*
X0418859Y0060305D01*
X0418859Y0061840D01*
X0420394Y0063375D01*
X0418859Y0064909D01*
X0420394Y0066444D01*
X0424998Y0066444D01*
X0424998Y0063375D02*
X0420394Y0063375D01*
X0418859Y0069513D02*
X0418859Y0074117D01*
X0420394Y0075652D01*
X0423463Y0075652D01*
X0424998Y0074117D01*
X0424998Y0069513D01*
X0428067Y0069513D02*
X0418859Y0069513D01*
X0417730Y0078300D02*
X0408522Y0078300D01*
X0411591Y0082904D02*
X0414661Y0078300D01*
X0417730Y0082904D01*
X0417730Y0085973D02*
X0411591Y0085973D01*
X0411591Y0090577D01*
X0413126Y0092112D01*
X0417730Y0092112D01*
X0416195Y0095181D02*
X0413126Y0095181D01*
X0411591Y0096716D01*
X0411591Y0099785D01*
X0413126Y0101320D01*
X0416195Y0101320D01*
X0417730Y0099785D01*
X0417730Y0096716D01*
X0416195Y0095181D01*
X0417730Y0104389D02*
X0408522Y0104389D01*
X0411591Y0104389D02*
X0411591Y0108993D01*
X0413126Y0110528D01*
X0416195Y0110528D01*
X0417730Y0108993D01*
X0417730Y0104389D01*
X0407817Y0114858D02*
X0407817Y0119462D01*
X0406282Y0120997D01*
X0404747Y0119462D01*
X0404747Y0116393D01*
X0403213Y0114858D01*
X0401678Y0116393D01*
X0401678Y0120997D01*
X0401678Y0124066D02*
X0406282Y0124066D01*
X0407817Y0125601D01*
X0406282Y0127135D01*
X0407817Y0128670D01*
X0406282Y0130205D01*
X0401678Y0130205D01*
X0401678Y0133274D02*
X0401678Y0134809D01*
X0407817Y0134809D01*
X0407817Y0136343D02*
X0407817Y0133274D01*
X0406282Y0140947D02*
X0400143Y0140947D01*
X0401678Y0139413D02*
X0401678Y0142482D01*
X0403213Y0145551D02*
X0401678Y0147086D01*
X0401678Y0151690D01*
X0403213Y0154759D02*
X0401678Y0156294D01*
X0401678Y0159363D01*
X0403213Y0160898D01*
X0407817Y0160898D01*
X0407817Y0154759D02*
X0398609Y0154759D01*
X0407817Y0151690D02*
X0407817Y0147086D01*
X0406282Y0145551D01*
X0403213Y0145551D01*
X0406282Y0140947D02*
X0407817Y0142482D01*
X0416199Y0146402D02*
X0425407Y0146402D01*
X0425407Y0151006D01*
X0423872Y0152540D01*
X0420803Y0152540D01*
X0419269Y0151006D01*
X0419269Y0146402D01*
X0419269Y0155609D02*
X0423872Y0155609D01*
X0425407Y0157144D01*
X0425407Y0161748D01*
X0419269Y0161748D01*
X0419269Y0164817D02*
X0419269Y0167887D01*
X0417734Y0166352D02*
X0423872Y0166352D01*
X0425407Y0167887D01*
X0423872Y0172491D02*
X0417734Y0172491D01*
X0419269Y0170956D02*
X0419269Y0174025D01*
X0420803Y0177094D02*
X0423872Y0177094D01*
X0425407Y0178629D01*
X0425407Y0181698D01*
X0423872Y0183233D01*
X0420803Y0183233D01*
X0419269Y0181698D01*
X0419269Y0178629D01*
X0420803Y0177094D01*
X0423872Y0172491D02*
X0425407Y0174025D01*
X0425407Y0186302D02*
X0419269Y0186302D01*
X0419269Y0190906D01*
X0420803Y0192441D01*
X0425407Y0192441D01*
X0467088Y0149528D02*
X0467088Y0140847D01*
X0471429Y0145187D01*
X0467088Y0149528D02*
X0462747Y0145187D01*
X0460577Y0143017D02*
X0460577Y0134336D01*
X0464918Y0138676D01*
X0460577Y0143017D02*
X0456236Y0138676D01*
X0454066Y0136506D02*
X0458407Y0132165D01*
X0455151Y0128910D01*
X0452981Y0128910D01*
X0449725Y0132165D01*
X0448640Y0128910D02*
X0446470Y0128910D01*
X0443214Y0125654D01*
X0441044Y0127825D02*
X0447555Y0121314D01*
X0450811Y0124569D01*
X0450811Y0126739D01*
X0448640Y0128910D01*
X0398609Y0134809D02*
X0397074Y0134809D01*
X0323155Y0137887D02*
X0323155Y0144025D01*
X0323155Y0147094D02*
X0313947Y0147094D01*
X0313947Y0153233D01*
X0313947Y0156302D02*
X0313947Y0160906D01*
X0315482Y0162441D01*
X0321620Y0162441D01*
X0323155Y0160906D01*
X0323155Y0156302D01*
X0313947Y0156302D01*
X0310114Y0162817D02*
X0300906Y0162817D01*
X0300906Y0167421D01*
X0302441Y0168956D01*
X0305510Y0168956D01*
X0307045Y0167421D01*
X0307045Y0162817D01*
X0305510Y0172025D02*
X0307045Y0173560D01*
X0307045Y0176629D01*
X0305510Y0178164D01*
X0302441Y0178164D01*
X0300906Y0176629D01*
X0300906Y0173560D01*
X0302441Y0172025D01*
X0305510Y0172025D01*
X0303976Y0181233D02*
X0300906Y0184302D01*
X0300906Y0185837D01*
X0300906Y0188906D02*
X0300906Y0191976D01*
X0299372Y0190441D02*
X0305510Y0190441D01*
X0307045Y0191976D01*
X0307045Y0195045D02*
X0300906Y0201183D01*
X0299372Y0201183D01*
X0297837Y0199649D01*
X0297837Y0196579D01*
X0299372Y0195045D01*
X0307045Y0195045D02*
X0307045Y0201183D01*
X0307045Y0181233D02*
X0300906Y0181233D01*
X0323155Y0153233D02*
X0323155Y0147094D01*
X0318551Y0147094D02*
X0318551Y0150164D01*
X0313947Y0137887D02*
X0323155Y0137887D01*
X0270641Y0145187D02*
X0266301Y0140847D01*
X0266301Y0149528D01*
X0261960Y0145187D01*
X0259790Y0143017D02*
X0259790Y0134336D01*
X0264130Y0138676D01*
X0259790Y0143017D02*
X0255449Y0138676D01*
X0253279Y0136506D02*
X0257619Y0132165D01*
X0254364Y0128910D01*
X0252194Y0128910D01*
X0248938Y0132165D01*
X0247853Y0128910D02*
X0245683Y0128910D01*
X0242427Y0125654D01*
X0240257Y0127825D02*
X0246768Y0121314D01*
X0250023Y0124569D01*
X0250023Y0126739D01*
X0247853Y0128910D01*
X0224620Y0146402D02*
X0224620Y0151006D01*
X0223085Y0152540D01*
X0220016Y0152540D01*
X0218481Y0151006D01*
X0218481Y0146402D01*
X0215412Y0146402D02*
X0224620Y0146402D01*
X0223085Y0155609D02*
X0224620Y0157144D01*
X0224620Y0161748D01*
X0218481Y0161748D01*
X0218481Y0164817D02*
X0218481Y0167887D01*
X0216946Y0166352D02*
X0223085Y0166352D01*
X0224620Y0167887D01*
X0223085Y0172491D02*
X0224620Y0174025D01*
X0223085Y0172491D02*
X0216946Y0172491D01*
X0218481Y0170956D02*
X0218481Y0174025D01*
X0220016Y0177094D02*
X0223085Y0177094D01*
X0224620Y0178629D01*
X0224620Y0181698D01*
X0223085Y0183233D01*
X0220016Y0183233D01*
X0218481Y0181698D01*
X0218481Y0178629D01*
X0220016Y0177094D01*
X0218481Y0186302D02*
X0218481Y0190906D01*
X0220016Y0192441D01*
X0224620Y0192441D01*
X0224620Y0186302D02*
X0218481Y0186302D01*
X0207029Y0160898D02*
X0202425Y0160898D01*
X0200891Y0159363D01*
X0200891Y0156294D01*
X0202425Y0154759D01*
X0200891Y0151690D02*
X0200891Y0147086D01*
X0202425Y0145551D01*
X0205495Y0145551D01*
X0207029Y0147086D01*
X0207029Y0151690D01*
X0207029Y0154759D02*
X0197821Y0154759D01*
X0200891Y0142482D02*
X0200891Y0139413D01*
X0199356Y0140947D02*
X0205495Y0140947D01*
X0207029Y0142482D01*
X0207029Y0136343D02*
X0207029Y0133274D01*
X0207029Y0134809D02*
X0200891Y0134809D01*
X0200891Y0133274D01*
X0200891Y0130205D02*
X0205495Y0130205D01*
X0207029Y0128670D01*
X0205495Y0127135D01*
X0207029Y0125601D01*
X0205495Y0124066D01*
X0200891Y0124066D01*
X0200891Y0120997D02*
X0200891Y0116393D01*
X0202425Y0114858D01*
X0203960Y0116393D01*
X0203960Y0119462D01*
X0205495Y0120997D01*
X0207029Y0119462D01*
X0207029Y0114858D01*
X0212339Y0110528D02*
X0210804Y0108993D01*
X0210804Y0104389D01*
X0207735Y0104389D02*
X0216943Y0104389D01*
X0216943Y0108993D01*
X0215408Y0110528D01*
X0212339Y0110528D01*
X0212339Y0101320D02*
X0210804Y0099785D01*
X0210804Y0096716D01*
X0212339Y0095181D01*
X0215408Y0095181D01*
X0216943Y0096716D01*
X0216943Y0099785D01*
X0215408Y0101320D01*
X0212339Y0101320D01*
X0212339Y0092112D02*
X0210804Y0090577D01*
X0210804Y0085973D01*
X0216943Y0085973D01*
X0216943Y0082904D02*
X0213873Y0078300D01*
X0210804Y0082904D01*
X0207735Y0078300D02*
X0216943Y0078300D01*
X0219606Y0075652D02*
X0218072Y0074117D01*
X0218072Y0069513D01*
X0227280Y0069513D01*
X0224210Y0069513D02*
X0224210Y0074117D01*
X0222676Y0075652D01*
X0219606Y0075652D01*
X0219606Y0066444D02*
X0224210Y0066444D01*
X0224210Y0063375D02*
X0219606Y0063375D01*
X0218072Y0064909D01*
X0219606Y0066444D01*
X0219606Y0063375D02*
X0218072Y0061840D01*
X0218072Y0060305D01*
X0224210Y0060305D01*
X0221141Y0057236D02*
X0221141Y0051098D01*
X0222676Y0051098D02*
X0219606Y0051098D01*
X0218072Y0052632D01*
X0218072Y0055702D01*
X0219606Y0057236D01*
X0221141Y0057236D01*
X0224210Y0055702D02*
X0224210Y0052632D01*
X0222676Y0051098D01*
X0224210Y0048028D02*
X0222676Y0046494D01*
X0216537Y0046494D01*
X0218072Y0044959D02*
X0218072Y0048028D01*
X0216902Y0032809D02*
X0216842Y0032807D01*
X0216781Y0032802D01*
X0216722Y0032793D01*
X0216663Y0032780D01*
X0216604Y0032764D01*
X0216547Y0032744D01*
X0216492Y0032721D01*
X0216437Y0032694D01*
X0216385Y0032665D01*
X0216334Y0032632D01*
X0216285Y0032596D01*
X0216239Y0032558D01*
X0216195Y0032516D01*
X0216153Y0032472D01*
X0216115Y0032426D01*
X0216079Y0032377D01*
X0216046Y0032326D01*
X0216017Y0032274D01*
X0215990Y0032219D01*
X0215967Y0032164D01*
X0215947Y0032107D01*
X0215931Y0032048D01*
X0215918Y0031989D01*
X0215909Y0031930D01*
X0215904Y0031869D01*
X0215902Y0031809D01*
X0215902Y0025309D01*
X0215904Y0025249D01*
X0215909Y0025188D01*
X0215918Y0025129D01*
X0215931Y0025070D01*
X0215947Y0025011D01*
X0215967Y0024954D01*
X0215990Y0024899D01*
X0216017Y0024844D01*
X0216046Y0024792D01*
X0216079Y0024741D01*
X0216115Y0024692D01*
X0216153Y0024646D01*
X0216195Y0024602D01*
X0216239Y0024560D01*
X0216285Y0024522D01*
X0216334Y0024486D01*
X0216385Y0024453D01*
X0216437Y0024424D01*
X0216492Y0024397D01*
X0216547Y0024374D01*
X0216604Y0024354D01*
X0216663Y0024338D01*
X0216722Y0024325D01*
X0216781Y0024316D01*
X0216842Y0024311D01*
X0216902Y0024309D01*
X0214059Y0025309D02*
X0214059Y0031809D01*
X0214057Y0031869D01*
X0214052Y0031930D01*
X0214043Y0031989D01*
X0214030Y0032048D01*
X0214014Y0032107D01*
X0213994Y0032164D01*
X0213971Y0032219D01*
X0213944Y0032274D01*
X0213915Y0032326D01*
X0213882Y0032377D01*
X0213846Y0032426D01*
X0213808Y0032472D01*
X0213766Y0032516D01*
X0213722Y0032558D01*
X0213676Y0032596D01*
X0213627Y0032632D01*
X0213576Y0032665D01*
X0213524Y0032694D01*
X0213469Y0032721D01*
X0213414Y0032744D01*
X0213357Y0032764D01*
X0213298Y0032780D01*
X0213239Y0032793D01*
X0213180Y0032802D01*
X0213119Y0032807D01*
X0213059Y0032809D01*
X0207059Y0032809D02*
X0206999Y0032807D01*
X0206938Y0032802D01*
X0206879Y0032793D01*
X0206820Y0032780D01*
X0206761Y0032764D01*
X0206704Y0032744D01*
X0206649Y0032721D01*
X0206594Y0032694D01*
X0206542Y0032665D01*
X0206491Y0032632D01*
X0206442Y0032596D01*
X0206396Y0032558D01*
X0206352Y0032516D01*
X0206310Y0032472D01*
X0206272Y0032426D01*
X0206236Y0032377D01*
X0206203Y0032326D01*
X0206174Y0032274D01*
X0206147Y0032219D01*
X0206124Y0032164D01*
X0206104Y0032107D01*
X0206088Y0032048D01*
X0206075Y0031989D01*
X0206066Y0031930D01*
X0206061Y0031869D01*
X0206059Y0031809D01*
X0206059Y0025309D01*
X0206061Y0025249D01*
X0206066Y0025188D01*
X0206075Y0025129D01*
X0206088Y0025070D01*
X0206104Y0025011D01*
X0206124Y0024954D01*
X0206147Y0024899D01*
X0206174Y0024844D01*
X0206203Y0024792D01*
X0206236Y0024741D01*
X0206272Y0024692D01*
X0206310Y0024646D01*
X0206352Y0024602D01*
X0206396Y0024560D01*
X0206442Y0024522D01*
X0206491Y0024486D01*
X0206542Y0024453D01*
X0206594Y0024424D01*
X0206649Y0024397D01*
X0206704Y0024374D01*
X0206761Y0024354D01*
X0206820Y0024338D01*
X0206879Y0024325D01*
X0206938Y0024316D01*
X0206999Y0024311D01*
X0207059Y0024309D01*
X0213059Y0024309D02*
X0213119Y0024311D01*
X0213180Y0024316D01*
X0213239Y0024325D01*
X0213298Y0024338D01*
X0213357Y0024354D01*
X0213414Y0024374D01*
X0213469Y0024397D01*
X0213524Y0024424D01*
X0213576Y0024453D01*
X0213627Y0024486D01*
X0213676Y0024522D01*
X0213722Y0024560D01*
X0213766Y0024602D01*
X0213808Y0024646D01*
X0213846Y0024692D01*
X0213882Y0024741D01*
X0213915Y0024792D01*
X0213944Y0024844D01*
X0213971Y0024899D01*
X0213994Y0024954D01*
X0214014Y0025011D01*
X0214030Y0025070D01*
X0214043Y0025129D01*
X0214052Y0025188D01*
X0214057Y0025249D01*
X0214059Y0025309D01*
X0222902Y0024309D02*
X0222962Y0024311D01*
X0223023Y0024316D01*
X0223082Y0024325D01*
X0223141Y0024338D01*
X0223200Y0024354D01*
X0223257Y0024374D01*
X0223312Y0024397D01*
X0223367Y0024424D01*
X0223419Y0024453D01*
X0223470Y0024486D01*
X0223519Y0024522D01*
X0223565Y0024560D01*
X0223609Y0024602D01*
X0223651Y0024646D01*
X0223689Y0024692D01*
X0223725Y0024741D01*
X0223758Y0024792D01*
X0223787Y0024844D01*
X0223814Y0024899D01*
X0223837Y0024954D01*
X0223857Y0025011D01*
X0223873Y0025070D01*
X0223886Y0025129D01*
X0223895Y0025188D01*
X0223900Y0025249D01*
X0223902Y0025309D01*
X0223902Y0031809D01*
X0223900Y0031869D01*
X0223895Y0031930D01*
X0223886Y0031989D01*
X0223873Y0032048D01*
X0223857Y0032107D01*
X0223837Y0032164D01*
X0223814Y0032219D01*
X0223787Y0032274D01*
X0223758Y0032326D01*
X0223725Y0032377D01*
X0223689Y0032426D01*
X0223651Y0032472D01*
X0223609Y0032516D01*
X0223565Y0032558D01*
X0223519Y0032596D01*
X0223470Y0032632D01*
X0223419Y0032665D01*
X0223367Y0032694D01*
X0223312Y0032721D01*
X0223257Y0032744D01*
X0223200Y0032764D01*
X0223141Y0032780D01*
X0223082Y0032793D01*
X0223023Y0032802D01*
X0222962Y0032807D01*
X0222902Y0032809D01*
X0184665Y0043403D02*
X0184665Y0044938D01*
X0183131Y0046472D01*
X0175457Y0046472D01*
X0175457Y0041868D01*
X0176992Y0040334D01*
X0180061Y0040334D01*
X0181596Y0041868D01*
X0181596Y0046472D01*
X0181596Y0049542D02*
X0172388Y0049542D01*
X0175457Y0051076D02*
X0175457Y0054146D01*
X0176992Y0055680D01*
X0181596Y0055680D01*
X0180061Y0060284D02*
X0173923Y0060284D01*
X0175457Y0058750D02*
X0175457Y0061819D01*
X0180061Y0060284D02*
X0181596Y0061819D01*
X0175457Y0051076D02*
X0176992Y0049542D01*
X0167894Y0051591D02*
X0167894Y0039819D01*
X0170854Y0035730D02*
X0172388Y0035730D01*
X0175457Y0035730D02*
X0175457Y0034195D01*
X0175457Y0035730D02*
X0181596Y0035730D01*
X0181596Y0034195D02*
X0181596Y0037265D01*
X0181596Y0031126D02*
X0181596Y0028057D01*
X0181596Y0029591D02*
X0172388Y0029591D01*
X0172388Y0028057D01*
X0160177Y0039937D02*
X0160177Y0051591D01*
X0110194Y0056180D02*
X0108660Y0054646D01*
X0102521Y0054646D01*
X0104056Y0053111D02*
X0104056Y0056180D01*
X0104056Y0059250D02*
X0100987Y0062319D01*
X0110194Y0062319D01*
X0110194Y0059250D02*
X0110194Y0065388D01*
X0104056Y0050042D02*
X0104056Y0048507D01*
X0107125Y0045438D01*
X0110194Y0045438D02*
X0104056Y0045438D01*
X0105591Y0042368D02*
X0104056Y0040834D01*
X0104056Y0037765D01*
X0105591Y0036230D01*
X0108660Y0036230D01*
X0110194Y0037765D01*
X0110194Y0040834D01*
X0108660Y0042368D01*
X0105591Y0042368D01*
X0105591Y0033161D02*
X0108660Y0033161D01*
X0110194Y0031626D01*
X0110194Y0027022D01*
X0113264Y0027022D02*
X0104056Y0027022D01*
X0104056Y0031626D01*
X0105591Y0033161D01*
X0212339Y0092112D02*
X0216943Y0092112D01*
X0197821Y0134809D02*
X0196287Y0134809D01*
X0218481Y0155609D02*
X0223085Y0155609D01*
X0122368Y0156302D02*
X0122368Y0160906D01*
X0120833Y0162441D01*
X0114695Y0162441D01*
X0113160Y0160906D01*
X0113160Y0156302D01*
X0122368Y0156302D01*
X0122368Y0153233D02*
X0122368Y0147094D01*
X0113160Y0147094D01*
X0113160Y0153233D01*
X0117764Y0150164D02*
X0117764Y0147094D01*
X0122368Y0144025D02*
X0122368Y0137887D01*
X0113160Y0137887D01*
X0109327Y0162817D02*
X0100119Y0162817D01*
X0100119Y0167421D01*
X0101654Y0168956D01*
X0104723Y0168956D01*
X0106257Y0167421D01*
X0106257Y0162817D01*
X0104723Y0172025D02*
X0101654Y0172025D01*
X0100119Y0173560D01*
X0100119Y0176629D01*
X0101654Y0178164D01*
X0104723Y0178164D01*
X0106257Y0176629D01*
X0106257Y0173560D01*
X0104723Y0172025D01*
X0106257Y0181233D02*
X0100119Y0181233D01*
X0103188Y0181233D02*
X0100119Y0184302D01*
X0100119Y0185837D01*
X0100119Y0188906D02*
X0100119Y0191976D01*
X0098584Y0190441D02*
X0104723Y0190441D01*
X0106257Y0191976D01*
X0106257Y0195045D02*
X0100119Y0201183D01*
X0098584Y0201183D01*
X0097050Y0199649D01*
X0097050Y0196579D01*
X0098584Y0195045D01*
X0106257Y0195045D02*
X0106257Y0201183D01*
X0076555Y0246815D02*
X0074384Y0246815D01*
X0071129Y0250071D01*
X0068959Y0252241D02*
X0072214Y0255496D01*
X0072214Y0257667D01*
X0070044Y0257667D01*
X0066788Y0254411D01*
X0064618Y0256581D02*
X0068959Y0260922D01*
X0070044Y0259837D01*
X0070044Y0257667D01*
X0065703Y0262007D02*
X0064618Y0260922D01*
X0060277Y0265263D01*
X0059192Y0264178D02*
X0061363Y0266348D01*
X0063533Y0266348D01*
X0065703Y0264178D01*
X0065703Y0262007D01*
X0061363Y0259837D02*
X0059192Y0262007D01*
X0059192Y0264178D01*
X0055937Y0265263D02*
X0055937Y0267433D01*
X0060277Y0271774D01*
X0058107Y0271774D02*
X0060277Y0269603D01*
X0075470Y0254411D02*
X0078725Y0251156D01*
X0078725Y0248985D01*
X0076555Y0246815D01*
X0068959Y0247900D02*
X0075470Y0254411D01*
X0070583Y0288806D02*
X0067513Y0288806D01*
X0065979Y0290340D01*
X0065979Y0294944D01*
X0075187Y0294944D01*
X0072117Y0294944D02*
X0072117Y0290340D01*
X0070583Y0288806D01*
X0070583Y0298013D02*
X0067513Y0298013D01*
X0065979Y0299548D01*
X0065979Y0302617D01*
X0067513Y0304152D01*
X0070583Y0304152D01*
X0072117Y0302617D01*
X0072117Y0299548D01*
X0070583Y0298013D01*
X0061594Y0298874D02*
X0061594Y0310646D01*
X0065979Y0313360D02*
X0072117Y0313360D01*
X0072117Y0308756D01*
X0070583Y0307221D01*
X0065979Y0307221D01*
X0065979Y0316429D02*
X0069048Y0321033D01*
X0072117Y0316429D01*
X0075187Y0321033D02*
X0065979Y0321033D01*
X0062109Y0325402D02*
X0060575Y0323868D01*
X0055971Y0323868D01*
X0051588Y0322128D02*
X0051588Y0320593D01*
X0042380Y0320593D01*
X0042380Y0322128D02*
X0042380Y0319058D01*
X0042380Y0315989D02*
X0042380Y0312920D01*
X0042380Y0314454D02*
X0048519Y0314454D01*
X0048519Y0315989D01*
X0051588Y0314454D02*
X0053123Y0314454D01*
X0053878Y0310646D02*
X0053878Y0298992D01*
X0051588Y0300643D02*
X0042380Y0300643D01*
X0042380Y0303712D02*
X0042380Y0308316D01*
X0043915Y0309850D01*
X0046984Y0309850D01*
X0048519Y0308316D01*
X0048519Y0303712D01*
X0040846Y0303712D01*
X0039311Y0305246D01*
X0039311Y0306781D01*
X0046984Y0300643D02*
X0048519Y0299108D01*
X0048519Y0296039D01*
X0046984Y0294504D01*
X0042380Y0294504D01*
X0043915Y0289900D02*
X0042380Y0288365D01*
X0043915Y0289900D02*
X0050054Y0289900D01*
X0048519Y0291435D02*
X0048519Y0288365D01*
X0062109Y0325402D02*
X0062109Y0330006D01*
X0055971Y0330006D01*
X0057505Y0333076D02*
X0060575Y0333076D01*
X0062109Y0334610D01*
X0062109Y0337680D01*
X0060575Y0339214D01*
X0057505Y0339214D01*
X0055971Y0337680D01*
X0055971Y0334610D01*
X0057505Y0333076D01*
X0055971Y0342284D02*
X0057505Y0343818D01*
X0063644Y0343818D01*
X0062109Y0345353D02*
X0062109Y0342284D01*
X0062109Y0348422D02*
X0062109Y0351491D01*
X0063644Y0349957D02*
X0057505Y0349957D01*
X0055971Y0348422D01*
X0055971Y0354561D02*
X0062109Y0354561D01*
X0055971Y0354561D02*
X0055971Y0359165D01*
X0057505Y0360699D01*
X0062109Y0360699D01*
X0060575Y0363769D02*
X0057505Y0363769D01*
X0055971Y0365303D01*
X0055971Y0369907D01*
X0065179Y0369907D01*
X0062109Y0369907D02*
X0062109Y0365303D01*
X0060575Y0363769D01*
X0049557Y0369329D02*
X0040349Y0369329D01*
X0040349Y0372398D02*
X0040349Y0377002D01*
X0041883Y0378537D01*
X0044953Y0378537D01*
X0046487Y0377002D01*
X0046487Y0372398D01*
X0044953Y0369329D02*
X0046487Y0367795D01*
X0046487Y0364725D01*
X0044953Y0363191D01*
X0040349Y0363191D01*
X0040349Y0381606D02*
X0041883Y0383141D01*
X0048022Y0383141D01*
X0046487Y0384676D02*
X0046487Y0381606D01*
X0046487Y0389280D02*
X0040349Y0389280D01*
X0040349Y0390814D02*
X0040349Y0387745D01*
X0046487Y0389280D02*
X0046487Y0390814D01*
X0046487Y0393883D02*
X0041883Y0393883D01*
X0040349Y0395418D01*
X0041883Y0396953D01*
X0040349Y0398487D01*
X0041883Y0400022D01*
X0046487Y0400022D01*
X0046487Y0403091D02*
X0046487Y0407695D01*
X0044953Y0409230D01*
X0043418Y0407695D01*
X0043418Y0404626D01*
X0041883Y0403091D01*
X0040349Y0404626D01*
X0040349Y0409230D01*
X0049557Y0389280D02*
X0051091Y0389280D01*
X0090514Y0389521D02*
X0090514Y0395660D01*
X0099722Y0395660D01*
X0099722Y0389521D01*
X0099722Y0386452D02*
X0099722Y0381848D01*
X0098187Y0380313D01*
X0092049Y0380313D01*
X0090514Y0381848D01*
X0090514Y0386452D01*
X0099722Y0386452D01*
X0095118Y0392591D02*
X0095118Y0395660D01*
X0090514Y0398729D02*
X0090514Y0404868D01*
X0099722Y0404868D01*
X0156294Y0349331D02*
X0162805Y0355842D01*
X0160635Y0353671D02*
X0163890Y0350416D01*
X0163890Y0348246D01*
X0161720Y0346075D01*
X0159549Y0346075D01*
X0156294Y0349331D01*
X0163890Y0343905D02*
X0163890Y0341735D01*
X0167146Y0338479D01*
X0171486Y0342820D01*
X0173657Y0340649D02*
X0177997Y0336309D01*
X0169316Y0336309D01*
X0173657Y0331968D01*
X0175827Y0329798D02*
X0180167Y0325457D01*
X0175827Y0329798D02*
X0184508Y0329798D01*
X0180167Y0334138D01*
X0166850Y0327372D02*
X0166850Y0322768D01*
X0165315Y0321233D01*
X0162246Y0321233D01*
X0160711Y0322768D01*
X0160711Y0327372D01*
X0157642Y0327372D02*
X0166850Y0327372D01*
X0165315Y0318164D02*
X0162246Y0318164D01*
X0160711Y0316629D01*
X0160711Y0313560D01*
X0162246Y0312025D01*
X0165315Y0312025D01*
X0166850Y0313560D01*
X0166850Y0316629D01*
X0165315Y0318164D01*
X0166850Y0308956D02*
X0160711Y0308956D01*
X0163780Y0308956D02*
X0166850Y0305887D01*
X0166850Y0304352D01*
X0166850Y0301283D02*
X0166850Y0298213D01*
X0168384Y0299748D02*
X0162246Y0299748D01*
X0160711Y0298213D01*
X0160711Y0295144D02*
X0166850Y0289006D01*
X0168384Y0289006D01*
X0169919Y0290540D01*
X0169919Y0293610D01*
X0168384Y0295144D01*
X0160711Y0295144D02*
X0160711Y0289006D01*
X0160711Y0282065D02*
X0160711Y0277461D01*
X0162246Y0275926D01*
X0165315Y0275926D01*
X0166850Y0277461D01*
X0166850Y0282065D01*
X0157642Y0282065D01*
X0162246Y0272857D02*
X0160711Y0271322D01*
X0160711Y0268253D01*
X0162246Y0266718D01*
X0165315Y0266718D01*
X0166850Y0268253D01*
X0166850Y0271322D01*
X0165315Y0272857D01*
X0162246Y0272857D01*
X0163780Y0263649D02*
X0166850Y0260580D01*
X0166850Y0259045D01*
X0166850Y0255976D02*
X0166850Y0252906D01*
X0168384Y0254441D02*
X0162246Y0254441D01*
X0160711Y0252906D01*
X0160711Y0249837D02*
X0160711Y0243698D01*
X0160711Y0246768D02*
X0169919Y0246768D01*
X0166850Y0249837D01*
X0166850Y0263649D02*
X0160711Y0263649D01*
X0163890Y0343905D02*
X0167146Y0347160D01*
X0361498Y0308956D02*
X0367637Y0308956D01*
X0364677Y0343905D02*
X0367933Y0347160D01*
X0565465Y0343905D02*
X0568720Y0347160D01*
X0507832Y0201183D02*
X0507832Y0195045D01*
X0501694Y0201183D01*
X0500159Y0201183D01*
X0498624Y0199649D01*
X0498624Y0196579D01*
X0500159Y0195045D01*
X0501694Y0191976D02*
X0501694Y0188906D01*
X0500159Y0190441D02*
X0506298Y0190441D01*
X0507832Y0191976D01*
X0501694Y0185837D02*
X0501694Y0184302D01*
X0504763Y0181233D01*
X0507832Y0181233D02*
X0501694Y0181233D01*
X0503228Y0178164D02*
X0501694Y0176629D01*
X0501694Y0173560D01*
X0503228Y0172025D01*
X0506298Y0172025D01*
X0507832Y0173560D01*
X0507832Y0176629D01*
X0506298Y0178164D01*
X0503228Y0178164D01*
X0503228Y0168956D02*
X0506298Y0168956D01*
X0507832Y0167421D01*
X0507832Y0162817D01*
X0510902Y0162817D02*
X0501694Y0162817D01*
X0501694Y0167421D01*
X0503228Y0168956D01*
X0514735Y0160906D02*
X0514735Y0156302D01*
X0523943Y0156302D01*
X0523943Y0160906D01*
X0522408Y0162441D01*
X0516269Y0162441D01*
X0514735Y0160906D01*
X0514735Y0153233D02*
X0514735Y0147094D01*
X0523943Y0147094D01*
X0523943Y0153233D01*
X0519339Y0150164D02*
X0519339Y0147094D01*
X0523943Y0144025D02*
X0523943Y0137887D01*
X0514735Y0137887D01*
X0597861Y0134809D02*
X0599396Y0134809D01*
X0613913Y0092112D02*
X0618517Y0092112D01*
X0621591Y0192441D02*
X0626194Y0192441D01*
X0385453Y0044938D02*
X0385453Y0043403D01*
X0385453Y0044938D02*
X0383918Y0046472D01*
X0376245Y0046472D01*
X0376245Y0041868D01*
X0377780Y0040334D01*
X0380849Y0040334D01*
X0382383Y0041868D01*
X0382383Y0046472D01*
X0382383Y0049542D02*
X0373176Y0049542D01*
X0376245Y0051076D02*
X0376245Y0054146D01*
X0377780Y0055680D01*
X0382383Y0055680D01*
X0380849Y0060284D02*
X0374710Y0060284D01*
X0376245Y0058750D02*
X0376245Y0061819D01*
X0380849Y0060284D02*
X0382383Y0061819D01*
X0376245Y0051076D02*
X0377780Y0049542D01*
X0368681Y0051591D02*
X0368681Y0039819D01*
X0371641Y0035730D02*
X0373176Y0035730D01*
X0376245Y0035730D02*
X0382383Y0035730D01*
X0382383Y0034195D02*
X0382383Y0037265D01*
X0382383Y0031126D02*
X0382383Y0028057D01*
X0382383Y0029591D02*
X0373176Y0029591D01*
X0373176Y0028057D01*
X0376245Y0034195D02*
X0376245Y0035730D01*
X0360965Y0039937D02*
X0360965Y0051591D01*
X0314051Y0027022D02*
X0304843Y0027022D01*
X0304843Y0031626D01*
X0306378Y0033161D01*
X0309447Y0033161D01*
X0310982Y0031626D01*
X0310982Y0027022D01*
X0309447Y0036230D02*
X0306378Y0036230D01*
X0304843Y0037765D01*
X0304843Y0040834D01*
X0306378Y0042368D01*
X0309447Y0042368D01*
X0310982Y0040834D01*
X0310982Y0037765D01*
X0309447Y0036230D01*
X0307913Y0045438D02*
X0304843Y0048507D01*
X0304843Y0050042D01*
X0304843Y0053111D02*
X0304843Y0056180D01*
X0303309Y0054646D02*
X0309447Y0054646D01*
X0310982Y0056180D01*
X0310982Y0059250D02*
X0310982Y0065388D01*
X0310982Y0062319D02*
X0301774Y0062319D01*
X0304843Y0059250D01*
X0304843Y0045438D02*
X0310982Y0045438D01*
X0069854Y0145187D02*
X0065513Y0140847D01*
X0065513Y0149528D01*
X0061173Y0145187D01*
X0059002Y0143017D02*
X0059002Y0134336D01*
X0063343Y0138676D01*
X0059002Y0143017D02*
X0054662Y0138676D01*
X0052491Y0136506D02*
X0056832Y0132165D01*
X0053576Y0128910D01*
X0051406Y0128910D01*
X0048151Y0132165D01*
X0047065Y0128910D02*
X0044895Y0128910D01*
X0041640Y0125654D01*
X0039469Y0127825D02*
X0045980Y0121314D01*
X0049236Y0124569D01*
X0049236Y0126739D01*
X0047065Y0128910D01*
D12*
X0144645Y0129185D02*
X0145413Y0129185D01*
X0146947Y0129185D02*
X0150017Y0129185D01*
X0150017Y0128418D02*
X0150017Y0129952D01*
X0150017Y0131487D02*
X0150017Y0133789D01*
X0149249Y0134556D01*
X0148482Y0133789D01*
X0148482Y0132254D01*
X0147715Y0131487D01*
X0146947Y0132254D01*
X0146947Y0134556D01*
X0146947Y0136091D02*
X0146947Y0137626D01*
X0146180Y0136858D02*
X0149249Y0136858D01*
X0150017Y0137626D01*
X0149249Y0139160D02*
X0150017Y0139927D01*
X0150017Y0141462D01*
X0149249Y0142229D01*
X0147715Y0142229D01*
X0146947Y0141462D01*
X0146947Y0139927D01*
X0147715Y0139160D01*
X0149249Y0139160D01*
X0148482Y0143764D02*
X0146947Y0145299D01*
X0146947Y0146066D01*
X0147715Y0147601D02*
X0146947Y0148368D01*
X0146947Y0150670D01*
X0148482Y0149903D02*
X0148482Y0148368D01*
X0147715Y0147601D01*
X0150017Y0147601D02*
X0150017Y0149903D01*
X0149249Y0150670D01*
X0148482Y0149903D01*
X0150017Y0143764D02*
X0146947Y0143764D01*
X0146947Y0156809D02*
X0145413Y0158343D01*
X0150017Y0158343D01*
X0150017Y0156809D02*
X0150017Y0159878D01*
X0149249Y0161412D02*
X0150017Y0162180D01*
X0150017Y0163714D01*
X0149249Y0164482D01*
X0148482Y0164482D01*
X0147715Y0163714D01*
X0147715Y0162947D01*
X0147715Y0163714D02*
X0146947Y0164482D01*
X0146180Y0164482D01*
X0145413Y0163714D01*
X0145413Y0162180D01*
X0146180Y0161412D01*
X0146180Y0166016D02*
X0145413Y0166784D01*
X0145413Y0168318D01*
X0146180Y0169086D01*
X0149249Y0166016D01*
X0150017Y0166784D01*
X0150017Y0168318D01*
X0149249Y0169086D01*
X0146180Y0169086D01*
X0145413Y0170620D02*
X0145413Y0172922D01*
X0146180Y0173690D01*
X0147715Y0173690D01*
X0148482Y0172922D01*
X0148482Y0170620D01*
X0150017Y0170620D02*
X0145413Y0170620D01*
X0148482Y0172155D02*
X0150017Y0173690D01*
X0149249Y0166016D02*
X0146180Y0166016D01*
X0185850Y0154983D02*
X0185850Y0153248D01*
X0186717Y0152381D01*
X0188452Y0152381D01*
X0189319Y0153248D01*
X0189319Y0154983D01*
X0188452Y0155851D01*
X0186717Y0155851D01*
X0185850Y0154983D01*
X0191006Y0155851D02*
X0191006Y0152381D01*
X0194476Y0152381D02*
X0194476Y0154983D01*
X0193608Y0155851D01*
X0191006Y0155851D01*
X0191465Y0126058D02*
X0190598Y0125191D01*
X0190598Y0120854D01*
X0188044Y0121721D02*
X0188044Y0123456D01*
X0187176Y0124323D01*
X0185441Y0124323D01*
X0184574Y0123456D01*
X0184574Y0121721D01*
X0185441Y0120854D01*
X0187176Y0120854D01*
X0188044Y0121721D01*
X0189730Y0123456D02*
X0191465Y0123456D01*
X0193168Y0123456D02*
X0194903Y0123456D01*
X0194035Y0125191D02*
X0194035Y0120854D01*
X0194035Y0125191D02*
X0194903Y0126058D01*
X0150017Y0126116D02*
X0150017Y0123814D01*
X0148482Y0124581D02*
X0147715Y0123814D01*
X0146947Y0124581D01*
X0146947Y0126883D01*
X0146947Y0128418D02*
X0146947Y0129185D01*
X0149249Y0126883D02*
X0148482Y0126116D01*
X0148482Y0124581D01*
X0150017Y0126116D02*
X0149249Y0126883D01*
X0148482Y0122279D02*
X0148482Y0119210D01*
X0149249Y0119210D02*
X0147715Y0119210D01*
X0146947Y0119977D01*
X0146947Y0121512D01*
X0147715Y0122279D01*
X0148482Y0122279D01*
X0150017Y0121512D02*
X0150017Y0119977D01*
X0149249Y0119210D01*
X0146947Y0117675D02*
X0146947Y0116908D01*
X0148482Y0115373D01*
X0150017Y0115373D02*
X0146947Y0115373D01*
X0145413Y0082375D02*
X0148482Y0079305D01*
X0147715Y0080073D02*
X0150017Y0082375D01*
X0150017Y0079305D02*
X0145413Y0079305D01*
X0146180Y0077771D02*
X0149249Y0074702D01*
X0150017Y0075469D01*
X0150017Y0077004D01*
X0149249Y0077771D01*
X0146180Y0077771D01*
X0145413Y0077004D01*
X0145413Y0075469D01*
X0146180Y0074702D01*
X0149249Y0074702D01*
X0150017Y0073167D02*
X0150017Y0070098D01*
X0150017Y0071632D02*
X0145413Y0071632D01*
X0146947Y0070098D01*
X0346200Y0071632D02*
X0347735Y0070098D01*
X0346200Y0071632D02*
X0350804Y0071632D01*
X0350804Y0070098D02*
X0350804Y0073167D01*
X0350037Y0074702D02*
X0346967Y0077771D01*
X0350037Y0077771D01*
X0350804Y0077004D01*
X0350804Y0075469D01*
X0350037Y0074702D01*
X0346967Y0074702D01*
X0346200Y0075469D01*
X0346200Y0077004D01*
X0346967Y0077771D01*
X0346200Y0079305D02*
X0350804Y0079305D01*
X0349269Y0079305D02*
X0346200Y0082375D01*
X0348502Y0080073D02*
X0350804Y0082375D01*
X0350804Y0115373D02*
X0347735Y0115373D01*
X0349269Y0115373D02*
X0347735Y0116908D01*
X0347735Y0117675D01*
X0348502Y0119210D02*
X0347735Y0119977D01*
X0347735Y0121512D01*
X0348502Y0122279D01*
X0349269Y0122279D01*
X0349269Y0119210D01*
X0348502Y0119210D02*
X0350037Y0119210D01*
X0350804Y0119977D01*
X0350804Y0121512D01*
X0350804Y0123814D02*
X0350804Y0126116D01*
X0350037Y0126883D01*
X0349269Y0126116D01*
X0349269Y0124581D01*
X0348502Y0123814D01*
X0347735Y0124581D01*
X0347735Y0126883D01*
X0347735Y0128418D02*
X0347735Y0129185D01*
X0350804Y0129185D01*
X0350804Y0128418D02*
X0350804Y0129952D01*
X0350804Y0131487D02*
X0350804Y0133789D01*
X0350037Y0134556D01*
X0349269Y0133789D01*
X0349269Y0132254D01*
X0348502Y0131487D01*
X0347735Y0132254D01*
X0347735Y0134556D01*
X0347735Y0136091D02*
X0347735Y0137626D01*
X0346967Y0136858D02*
X0350037Y0136858D01*
X0350804Y0137626D01*
X0350037Y0139160D02*
X0350804Y0139927D01*
X0350804Y0141462D01*
X0350037Y0142229D01*
X0348502Y0142229D01*
X0347735Y0141462D01*
X0347735Y0139927D01*
X0348502Y0139160D01*
X0350037Y0139160D01*
X0350804Y0143764D02*
X0347735Y0143764D01*
X0349269Y0143764D02*
X0347735Y0145299D01*
X0347735Y0146066D01*
X0348502Y0147601D02*
X0347735Y0148368D01*
X0347735Y0150670D01*
X0349269Y0149903D02*
X0350037Y0150670D01*
X0350804Y0149903D01*
X0350804Y0147601D01*
X0349269Y0148368D02*
X0348502Y0147601D01*
X0349269Y0148368D02*
X0349269Y0149903D01*
X0347735Y0156809D02*
X0346200Y0158343D01*
X0350804Y0158343D01*
X0350804Y0156809D02*
X0350804Y0159878D01*
X0350037Y0161412D02*
X0350804Y0162180D01*
X0350804Y0163714D01*
X0350037Y0164482D01*
X0349269Y0164482D01*
X0348502Y0163714D01*
X0348502Y0162947D01*
X0348502Y0163714D02*
X0347735Y0164482D01*
X0346967Y0164482D01*
X0346200Y0163714D01*
X0346200Y0162180D01*
X0346967Y0161412D01*
X0346967Y0166016D02*
X0346200Y0166784D01*
X0346200Y0168318D01*
X0346967Y0169086D01*
X0350037Y0166016D01*
X0350804Y0166784D01*
X0350804Y0168318D01*
X0350037Y0169086D01*
X0346967Y0169086D01*
X0346200Y0170620D02*
X0346200Y0172922D01*
X0346967Y0173690D01*
X0348502Y0173690D01*
X0349269Y0172922D01*
X0349269Y0170620D01*
X0349269Y0172155D02*
X0350804Y0173690D01*
X0350804Y0170620D02*
X0346200Y0170620D01*
X0346967Y0166016D02*
X0350037Y0166016D01*
X0386637Y0154983D02*
X0386637Y0153248D01*
X0387504Y0152381D01*
X0389239Y0152381D01*
X0390107Y0153248D01*
X0390107Y0154983D01*
X0389239Y0155851D01*
X0387504Y0155851D01*
X0386637Y0154983D01*
X0391793Y0155851D02*
X0394396Y0155851D01*
X0395263Y0154983D01*
X0395263Y0152381D01*
X0391793Y0152381D02*
X0391793Y0155851D01*
X0392253Y0126058D02*
X0391385Y0125191D01*
X0391385Y0120854D01*
X0388831Y0121721D02*
X0388831Y0123456D01*
X0387964Y0124323D01*
X0386229Y0124323D01*
X0385361Y0123456D01*
X0385361Y0121721D01*
X0386229Y0120854D01*
X0387964Y0120854D01*
X0388831Y0121721D01*
X0390518Y0123456D02*
X0392253Y0123456D01*
X0393955Y0123456D02*
X0395690Y0123456D01*
X0394823Y0125191D02*
X0394823Y0120854D01*
X0394823Y0125191D02*
X0395690Y0126058D01*
X0346200Y0129185D02*
X0345433Y0129185D01*
X0546220Y0129185D02*
X0546987Y0129185D01*
X0548522Y0129185D02*
X0551591Y0129185D01*
X0551591Y0128418D02*
X0551591Y0129952D01*
X0551591Y0131487D02*
X0551591Y0133789D01*
X0550824Y0134556D01*
X0550057Y0133789D01*
X0550057Y0132254D01*
X0549289Y0131487D01*
X0548522Y0132254D01*
X0548522Y0134556D01*
X0548522Y0136091D02*
X0548522Y0137626D01*
X0547755Y0136858D02*
X0550824Y0136858D01*
X0551591Y0137626D01*
X0550824Y0139160D02*
X0551591Y0139927D01*
X0551591Y0141462D01*
X0550824Y0142229D01*
X0549289Y0142229D01*
X0548522Y0141462D01*
X0548522Y0139927D01*
X0549289Y0139160D01*
X0550824Y0139160D01*
X0550057Y0143764D02*
X0548522Y0145299D01*
X0548522Y0146066D01*
X0549289Y0147601D02*
X0548522Y0148368D01*
X0548522Y0150670D01*
X0550057Y0149903D02*
X0550057Y0148368D01*
X0549289Y0147601D01*
X0551591Y0147601D02*
X0551591Y0149903D01*
X0550824Y0150670D01*
X0550057Y0149903D01*
X0551591Y0143764D02*
X0548522Y0143764D01*
X0548522Y0156809D02*
X0546987Y0158343D01*
X0551591Y0158343D01*
X0551591Y0156809D02*
X0551591Y0159878D01*
X0550824Y0161412D02*
X0551591Y0162180D01*
X0551591Y0163714D01*
X0550824Y0164482D01*
X0550057Y0164482D01*
X0549289Y0163714D01*
X0549289Y0162947D01*
X0549289Y0163714D02*
X0548522Y0164482D01*
X0547755Y0164482D01*
X0546987Y0163714D01*
X0546987Y0162180D01*
X0547755Y0161412D01*
X0547755Y0166016D02*
X0546987Y0166784D01*
X0546987Y0168318D01*
X0547755Y0169086D01*
X0550824Y0166016D01*
X0551591Y0166784D01*
X0551591Y0168318D01*
X0550824Y0169086D01*
X0547755Y0169086D01*
X0546987Y0170620D02*
X0546987Y0172922D01*
X0547755Y0173690D01*
X0549289Y0173690D01*
X0550057Y0172922D01*
X0550057Y0170620D01*
X0551591Y0170620D02*
X0546987Y0170620D01*
X0550057Y0172155D02*
X0551591Y0173690D01*
X0550824Y0166016D02*
X0547755Y0166016D01*
X0587424Y0154983D02*
X0587424Y0153248D01*
X0588292Y0152381D01*
X0590027Y0152381D01*
X0590894Y0153248D01*
X0590894Y0154983D01*
X0590027Y0155851D01*
X0588292Y0155851D01*
X0587424Y0154983D01*
X0592581Y0155851D02*
X0595183Y0155851D01*
X0596050Y0154983D01*
X0596050Y0152381D01*
X0592581Y0152381D02*
X0592581Y0155851D01*
X0593040Y0126058D02*
X0592173Y0125191D01*
X0592173Y0120854D01*
X0589618Y0121721D02*
X0589618Y0123456D01*
X0588751Y0124323D01*
X0587016Y0124323D01*
X0586149Y0123456D01*
X0586149Y0121721D01*
X0587016Y0120854D01*
X0588751Y0120854D01*
X0589618Y0121721D01*
X0591305Y0123456D02*
X0593040Y0123456D01*
X0594743Y0123456D02*
X0596478Y0123456D01*
X0595610Y0125191D02*
X0595610Y0120854D01*
X0595610Y0125191D02*
X0596478Y0126058D01*
X0551591Y0126116D02*
X0551591Y0123814D01*
X0550057Y0124581D02*
X0549289Y0123814D01*
X0548522Y0124581D01*
X0548522Y0126883D01*
X0548522Y0128418D02*
X0548522Y0129185D01*
X0550824Y0126883D02*
X0550057Y0126116D01*
X0550057Y0124581D01*
X0551591Y0126116D02*
X0550824Y0126883D01*
X0550057Y0122279D02*
X0549289Y0122279D01*
X0548522Y0121512D01*
X0548522Y0119977D01*
X0549289Y0119210D01*
X0550824Y0119210D01*
X0551591Y0119977D01*
X0551591Y0121512D01*
X0550057Y0122279D02*
X0550057Y0119210D01*
X0548522Y0117675D02*
X0548522Y0116908D01*
X0550057Y0115373D01*
X0551591Y0115373D02*
X0548522Y0115373D01*
X0546987Y0082375D02*
X0550057Y0079305D01*
X0549289Y0080073D02*
X0551591Y0082375D01*
X0551591Y0079305D02*
X0546987Y0079305D01*
X0547755Y0077771D02*
X0550824Y0074702D01*
X0551591Y0075469D01*
X0551591Y0077004D01*
X0550824Y0077771D01*
X0547755Y0077771D01*
X0546987Y0077004D01*
X0546987Y0075469D01*
X0547755Y0074702D01*
X0550824Y0074702D01*
X0551591Y0073167D02*
X0551591Y0070098D01*
X0551591Y0071632D02*
X0546987Y0071632D01*
X0548522Y0070098D01*
X0550023Y0274208D02*
X0552325Y0276510D01*
X0551557Y0277277D02*
X0554627Y0274208D01*
X0554627Y0277277D02*
X0550023Y0277277D01*
X0550790Y0278812D02*
X0550023Y0279579D01*
X0550023Y0281114D01*
X0550790Y0281881D01*
X0553859Y0278812D01*
X0550790Y0278812D01*
X0550790Y0281881D02*
X0553859Y0281881D01*
X0554627Y0281114D01*
X0554627Y0279579D01*
X0553859Y0278812D01*
X0550023Y0283416D02*
X0550023Y0286485D01*
X0550023Y0284950D02*
X0554627Y0284950D01*
X0553092Y0286485D01*
X0552325Y0352027D02*
X0551557Y0352794D01*
X0551557Y0355096D01*
X0550023Y0355096D02*
X0554627Y0355096D01*
X0554627Y0352794D01*
X0553859Y0352027D01*
X0552325Y0352027D01*
X0551557Y0353562D02*
X0550023Y0352027D01*
X0550790Y0356631D02*
X0550023Y0357398D01*
X0550023Y0358933D01*
X0550790Y0359700D01*
X0553859Y0356631D01*
X0550790Y0356631D01*
X0550790Y0359700D02*
X0553859Y0359700D01*
X0554627Y0358933D01*
X0554627Y0357398D01*
X0553859Y0356631D01*
X0553859Y0361235D02*
X0553092Y0361235D01*
X0552325Y0362002D01*
X0551557Y0361235D01*
X0550790Y0361235D01*
X0550023Y0362002D01*
X0550023Y0363537D01*
X0550790Y0364304D01*
X0550023Y0365839D02*
X0550023Y0368908D01*
X0550023Y0367373D02*
X0554627Y0367373D01*
X0553092Y0368908D01*
X0553859Y0364304D02*
X0554627Y0363537D01*
X0554627Y0362002D01*
X0553859Y0361235D01*
X0552325Y0362002D02*
X0552325Y0362769D01*
X0553092Y0375047D02*
X0553092Y0377349D01*
X0552325Y0378116D01*
X0551557Y0377349D01*
X0551557Y0375814D01*
X0550790Y0375047D01*
X0550023Y0375814D01*
X0550023Y0378116D01*
X0553092Y0379650D02*
X0553092Y0380418D01*
X0551557Y0381952D01*
X0550023Y0381952D02*
X0553092Y0381952D01*
X0552325Y0383487D02*
X0553092Y0384254D01*
X0553092Y0385789D01*
X0552325Y0386556D01*
X0550790Y0386556D01*
X0550023Y0385789D01*
X0550023Y0384254D01*
X0550790Y0383487D01*
X0552325Y0383487D01*
X0553092Y0388091D02*
X0553092Y0389626D01*
X0553859Y0388858D02*
X0550790Y0388858D01*
X0550023Y0388091D01*
X0550790Y0391160D02*
X0551557Y0391928D01*
X0551557Y0393462D01*
X0552325Y0394230D01*
X0553092Y0393462D01*
X0553092Y0391160D01*
X0550790Y0391160D02*
X0550023Y0391928D01*
X0550023Y0394230D01*
X0550023Y0395764D02*
X0550023Y0397299D01*
X0550023Y0396532D02*
X0553092Y0396532D01*
X0553092Y0397299D01*
X0553092Y0398834D02*
X0553092Y0401135D01*
X0552325Y0401903D01*
X0551557Y0401135D01*
X0551557Y0399601D01*
X0550790Y0398834D01*
X0550023Y0399601D01*
X0550023Y0401903D01*
X0551557Y0403437D02*
X0551557Y0406507D01*
X0550790Y0406507D02*
X0552325Y0406507D01*
X0553092Y0405739D01*
X0553092Y0404205D01*
X0552325Y0403437D01*
X0551557Y0403437D01*
X0550023Y0404205D02*
X0550023Y0405739D01*
X0550790Y0406507D01*
X0553092Y0408041D02*
X0553092Y0408809D01*
X0551557Y0410343D01*
X0550023Y0410343D02*
X0553092Y0410343D01*
X0554627Y0396532D02*
X0555394Y0396532D01*
X0462192Y0406318D02*
X0462192Y0408920D01*
X0461325Y0409788D01*
X0458723Y0409788D01*
X0458723Y0406318D01*
X0457036Y0407186D02*
X0457036Y0408920D01*
X0456168Y0409788D01*
X0454434Y0409788D01*
X0453566Y0408920D01*
X0453566Y0407186D01*
X0454434Y0406318D01*
X0456168Y0406318D01*
X0457036Y0407186D01*
X0459182Y0379995D02*
X0458314Y0379128D01*
X0458314Y0374791D01*
X0455760Y0375658D02*
X0455760Y0377393D01*
X0454893Y0378260D01*
X0453158Y0378260D01*
X0452291Y0377393D01*
X0452291Y0375658D01*
X0453158Y0374791D01*
X0454893Y0374791D01*
X0455760Y0375658D01*
X0457447Y0377393D02*
X0459182Y0377393D01*
X0460885Y0377393D02*
X0462619Y0377393D01*
X0461752Y0379128D02*
X0462619Y0379995D01*
X0461752Y0379128D02*
X0461752Y0374791D01*
X0353839Y0367373D02*
X0349235Y0367373D01*
X0349235Y0365839D02*
X0349235Y0368908D01*
X0352305Y0368908D02*
X0353839Y0367373D01*
X0353072Y0364304D02*
X0353839Y0363537D01*
X0353839Y0362002D01*
X0353072Y0361235D01*
X0352305Y0361235D01*
X0351537Y0362002D01*
X0350770Y0361235D01*
X0350003Y0361235D01*
X0349235Y0362002D01*
X0349235Y0363537D01*
X0350003Y0364304D01*
X0351537Y0362769D02*
X0351537Y0362002D01*
X0350003Y0359700D02*
X0353072Y0356631D01*
X0350003Y0356631D01*
X0349235Y0357398D01*
X0349235Y0358933D01*
X0350003Y0359700D01*
X0353072Y0359700D01*
X0353839Y0358933D01*
X0353839Y0357398D01*
X0353072Y0356631D01*
X0353839Y0355096D02*
X0353839Y0352794D01*
X0353072Y0352027D01*
X0351537Y0352027D01*
X0350770Y0352794D01*
X0350770Y0355096D01*
X0350770Y0353562D02*
X0349235Y0352027D01*
X0349235Y0355096D02*
X0353839Y0355096D01*
X0352305Y0375047D02*
X0352305Y0377349D01*
X0351537Y0378116D01*
X0350770Y0377349D01*
X0350770Y0375814D01*
X0350003Y0375047D01*
X0349235Y0375814D01*
X0349235Y0378116D01*
X0352305Y0379650D02*
X0352305Y0380418D01*
X0350770Y0381952D01*
X0349235Y0381952D02*
X0352305Y0381952D01*
X0351537Y0383487D02*
X0352305Y0384254D01*
X0352305Y0385789D01*
X0351537Y0386556D01*
X0350003Y0386556D01*
X0349235Y0385789D01*
X0349235Y0384254D01*
X0350003Y0383487D01*
X0351537Y0383487D01*
X0352305Y0388091D02*
X0352305Y0389626D01*
X0353072Y0388858D02*
X0350003Y0388858D01*
X0349235Y0388091D01*
X0350003Y0391160D02*
X0350770Y0391928D01*
X0350770Y0393462D01*
X0351537Y0394230D01*
X0352305Y0393462D01*
X0352305Y0391160D01*
X0350003Y0391160D02*
X0349235Y0391928D01*
X0349235Y0394230D01*
X0349235Y0395764D02*
X0349235Y0397299D01*
X0349235Y0396532D02*
X0352305Y0396532D01*
X0352305Y0397299D01*
X0352305Y0398834D02*
X0352305Y0401135D01*
X0351537Y0401903D01*
X0350770Y0401135D01*
X0350770Y0399601D01*
X0350003Y0398834D01*
X0349235Y0399601D01*
X0349235Y0401903D01*
X0350770Y0403437D02*
X0350770Y0406507D01*
X0350003Y0406507D02*
X0351537Y0406507D01*
X0352305Y0405739D01*
X0352305Y0404205D01*
X0351537Y0403437D01*
X0350770Y0403437D01*
X0349235Y0404205D02*
X0349235Y0405739D01*
X0350003Y0406507D01*
X0352305Y0408041D02*
X0352305Y0408809D01*
X0350770Y0410343D01*
X0349235Y0410343D02*
X0352305Y0410343D01*
X0353839Y0396532D02*
X0354607Y0396532D01*
X0261405Y0406318D02*
X0261405Y0408920D01*
X0260537Y0409788D01*
X0257935Y0409788D01*
X0257935Y0406318D01*
X0256248Y0407186D02*
X0256248Y0408920D01*
X0255381Y0409788D01*
X0253646Y0409788D01*
X0252779Y0408920D01*
X0252779Y0407186D01*
X0253646Y0406318D01*
X0255381Y0406318D01*
X0256248Y0407186D01*
X0258394Y0379995D02*
X0257527Y0379128D01*
X0257527Y0374791D01*
X0254973Y0375658D02*
X0254973Y0377393D01*
X0254105Y0378260D01*
X0252371Y0378260D01*
X0251503Y0377393D01*
X0251503Y0375658D01*
X0252371Y0374791D01*
X0254105Y0374791D01*
X0254973Y0375658D01*
X0256660Y0377393D02*
X0258394Y0377393D01*
X0260097Y0377393D02*
X0261832Y0377393D01*
X0260965Y0379128D02*
X0261832Y0379995D01*
X0260965Y0379128D02*
X0260965Y0374791D01*
X0153819Y0396532D02*
X0153052Y0396532D01*
X0151517Y0396532D02*
X0148448Y0396532D01*
X0148448Y0397299D02*
X0148448Y0395764D01*
X0148448Y0394230D02*
X0148448Y0391928D01*
X0149215Y0391160D01*
X0149983Y0391928D01*
X0149983Y0393462D01*
X0150750Y0394230D01*
X0151517Y0393462D01*
X0151517Y0391160D01*
X0151517Y0389626D02*
X0151517Y0388091D01*
X0152285Y0388858D02*
X0149215Y0388858D01*
X0148448Y0388091D01*
X0149215Y0386556D02*
X0148448Y0385789D01*
X0148448Y0384254D01*
X0149215Y0383487D01*
X0150750Y0383487D01*
X0151517Y0384254D01*
X0151517Y0385789D01*
X0150750Y0386556D01*
X0149215Y0386556D01*
X0148448Y0381952D02*
X0151517Y0381952D01*
X0149983Y0381952D02*
X0151517Y0380418D01*
X0151517Y0379650D01*
X0150750Y0378116D02*
X0151517Y0377349D01*
X0151517Y0375047D01*
X0149983Y0375814D02*
X0149983Y0377349D01*
X0150750Y0378116D01*
X0148448Y0378116D02*
X0148448Y0375814D01*
X0149215Y0375047D01*
X0149983Y0375814D01*
X0151517Y0368908D02*
X0153052Y0367373D01*
X0148448Y0367373D01*
X0148448Y0365839D02*
X0148448Y0368908D01*
X0149215Y0364304D02*
X0148448Y0363537D01*
X0148448Y0362002D01*
X0149215Y0361235D01*
X0149983Y0361235D01*
X0150750Y0362002D01*
X0150750Y0362769D01*
X0150750Y0362002D02*
X0151517Y0361235D01*
X0152285Y0361235D01*
X0153052Y0362002D01*
X0153052Y0363537D01*
X0152285Y0364304D01*
X0152285Y0359700D02*
X0153052Y0358933D01*
X0153052Y0357398D01*
X0152285Y0356631D01*
X0149215Y0359700D01*
X0148448Y0358933D01*
X0148448Y0357398D01*
X0149215Y0356631D01*
X0152285Y0356631D01*
X0153052Y0355096D02*
X0153052Y0352794D01*
X0152285Y0352027D01*
X0150750Y0352027D01*
X0149983Y0352794D01*
X0149983Y0355096D01*
X0149983Y0353562D02*
X0148448Y0352027D01*
X0148448Y0355096D02*
X0153052Y0355096D01*
X0152285Y0359700D02*
X0149215Y0359700D01*
X0151517Y0396532D02*
X0151517Y0397299D01*
X0151517Y0398834D02*
X0151517Y0401135D01*
X0150750Y0401903D01*
X0149983Y0401135D01*
X0149983Y0399601D01*
X0149215Y0398834D01*
X0148448Y0399601D01*
X0148448Y0401903D01*
X0149983Y0403437D02*
X0149983Y0406507D01*
X0150750Y0406507D02*
X0151517Y0405739D01*
X0151517Y0404205D01*
X0150750Y0403437D01*
X0149983Y0403437D01*
X0148448Y0404205D02*
X0148448Y0405739D01*
X0149215Y0406507D01*
X0150750Y0406507D01*
X0151517Y0408041D02*
X0151517Y0408809D01*
X0149983Y0410343D01*
X0151517Y0410343D02*
X0148448Y0410343D01*
X0060617Y0408920D02*
X0060617Y0406318D01*
X0060617Y0408920D02*
X0059750Y0409788D01*
X0057148Y0409788D01*
X0057148Y0406318D01*
X0055461Y0407186D02*
X0055461Y0408920D01*
X0054594Y0409788D01*
X0052859Y0409788D01*
X0051991Y0408920D01*
X0051991Y0407186D01*
X0052859Y0406318D01*
X0054594Y0406318D01*
X0055461Y0407186D01*
X0057607Y0379995D02*
X0056740Y0379128D01*
X0056740Y0374791D01*
X0054185Y0375658D02*
X0054185Y0377393D01*
X0053318Y0378260D01*
X0051583Y0378260D01*
X0050716Y0377393D01*
X0050716Y0375658D01*
X0051583Y0374791D01*
X0053318Y0374791D01*
X0054185Y0375658D01*
X0055872Y0377393D02*
X0057607Y0377393D01*
X0059310Y0377393D02*
X0061045Y0377393D01*
X0060177Y0379128D02*
X0061045Y0379995D01*
X0060177Y0379128D02*
X0060177Y0374791D01*
X0148448Y0286485D02*
X0148448Y0283416D01*
X0148448Y0284950D02*
X0153052Y0284950D01*
X0151517Y0286485D01*
X0152285Y0281881D02*
X0153052Y0281114D01*
X0153052Y0279579D01*
X0152285Y0278812D01*
X0149215Y0281881D01*
X0148448Y0281114D01*
X0148448Y0279579D01*
X0149215Y0278812D01*
X0152285Y0278812D01*
X0153052Y0277277D02*
X0148448Y0277277D01*
X0149983Y0277277D02*
X0153052Y0274208D01*
X0150750Y0276510D02*
X0148448Y0274208D01*
X0149215Y0281881D02*
X0152285Y0281881D01*
X0349235Y0281114D02*
X0350003Y0281881D01*
X0353072Y0278812D01*
X0350003Y0278812D01*
X0349235Y0279579D01*
X0349235Y0281114D01*
X0350003Y0281881D02*
X0353072Y0281881D01*
X0353839Y0281114D01*
X0353839Y0279579D01*
X0353072Y0278812D01*
X0353839Y0277277D02*
X0349235Y0277277D01*
X0350770Y0277277D02*
X0353839Y0274208D01*
X0351537Y0276510D02*
X0349235Y0274208D01*
X0349235Y0283416D02*
X0349235Y0286485D01*
X0349235Y0284950D02*
X0353839Y0284950D01*
X0352305Y0286485D01*
D13*
X0351004Y0272535D02*
X0351004Y0251000D01*
X0349035Y0251000D01*
X0374232Y0261736D02*
X0422264Y0261736D01*
X0422264Y0261827D02*
X0422264Y0263598D01*
X0422264Y0276787D02*
X0422264Y0278272D01*
X0422264Y0281815D01*
X0413996Y0281815D01*
X0413996Y0278272D02*
X0422264Y0278272D01*
X0422264Y0299138D02*
X0374232Y0299138D01*
X0374232Y0299228D02*
X0374232Y0301000D01*
X0374232Y0314189D02*
X0374232Y0315673D01*
X0374232Y0319217D01*
X0382500Y0319217D01*
X0382500Y0315673D02*
X0374232Y0315673D01*
X0351004Y0329740D02*
X0349035Y0329740D01*
X0351004Y0329740D02*
X0351004Y0349425D01*
X0413996Y0319217D02*
X0422264Y0319217D01*
X0422264Y0315673D01*
X0422264Y0314189D01*
X0422264Y0315673D02*
X0413996Y0315673D01*
X0422264Y0301000D02*
X0422264Y0299228D01*
X0382500Y0281815D02*
X0374232Y0281815D01*
X0374232Y0278272D01*
X0374232Y0276787D01*
X0374232Y0278272D02*
X0382500Y0278272D01*
X0374232Y0263598D02*
X0374232Y0261827D01*
X0349035Y0193913D02*
X0347067Y0193913D01*
X0349035Y0193913D02*
X0349035Y0176197D01*
X0296280Y0175016D02*
X0296280Y0173244D01*
X0296280Y0173154D02*
X0248248Y0173154D01*
X0248248Y0173244D02*
X0248248Y0175016D01*
X0248248Y0188205D02*
X0248248Y0189689D01*
X0248248Y0193232D01*
X0256516Y0193232D01*
X0256516Y0189689D02*
X0248248Y0189689D01*
X0288012Y0189689D02*
X0296280Y0189689D01*
X0296280Y0188205D01*
X0296280Y0189689D02*
X0296280Y0193232D01*
X0288012Y0193232D01*
X0221476Y0261736D02*
X0173445Y0261736D01*
X0173445Y0261827D02*
X0173445Y0263598D01*
X0173445Y0276787D02*
X0173445Y0278272D01*
X0173445Y0281815D01*
X0181713Y0281815D01*
X0181713Y0278272D02*
X0173445Y0278272D01*
X0150217Y0272535D02*
X0150217Y0251000D01*
X0148248Y0251000D01*
X0213209Y0278272D02*
X0221476Y0278272D01*
X0221476Y0276787D01*
X0221476Y0278272D02*
X0221476Y0281815D01*
X0213209Y0281815D01*
X0221476Y0299138D02*
X0173445Y0299138D01*
X0173445Y0299228D02*
X0173445Y0301000D01*
X0173445Y0314189D02*
X0173445Y0315673D01*
X0173445Y0319217D01*
X0181713Y0319217D01*
X0181713Y0315673D02*
X0173445Y0315673D01*
X0150217Y0329740D02*
X0148248Y0329740D01*
X0150217Y0329740D02*
X0150217Y0349425D01*
X0213209Y0319217D02*
X0221476Y0319217D01*
X0221476Y0315673D01*
X0221476Y0314189D01*
X0221476Y0315673D02*
X0213209Y0315673D01*
X0221476Y0301000D02*
X0221476Y0299228D01*
X0221476Y0263598D02*
X0221476Y0261827D01*
X0148248Y0193913D02*
X0146280Y0193913D01*
X0148248Y0193913D02*
X0148248Y0176197D01*
X0095492Y0175016D02*
X0095492Y0173244D01*
X0095492Y0173154D02*
X0047461Y0173154D01*
X0047461Y0173244D02*
X0047461Y0175016D01*
X0047461Y0188205D02*
X0047461Y0189689D01*
X0047461Y0193232D01*
X0055728Y0193232D01*
X0055728Y0189689D02*
X0047461Y0189689D01*
X0087224Y0189689D02*
X0095492Y0189689D01*
X0095492Y0188205D01*
X0095492Y0189689D02*
X0095492Y0193232D01*
X0087224Y0193232D01*
X0146280Y0103362D02*
X0148248Y0103362D01*
X0148248Y0083677D01*
X0097461Y0057193D02*
X0049429Y0057193D01*
X0049429Y0057102D02*
X0049429Y0055331D01*
X0049429Y0042142D02*
X0049429Y0040657D01*
X0049429Y0037114D01*
X0057697Y0037114D01*
X0057697Y0040657D02*
X0049429Y0040657D01*
X0089193Y0040657D02*
X0097461Y0040657D01*
X0097461Y0042142D01*
X0097461Y0040657D02*
X0097461Y0037114D01*
X0089193Y0037114D01*
X0097461Y0055331D02*
X0097461Y0057102D01*
X0250217Y0057102D02*
X0250217Y0055331D01*
X0250217Y0057193D02*
X0298248Y0057193D01*
X0298248Y0057102D02*
X0298248Y0055331D01*
X0298248Y0042142D02*
X0298248Y0040657D01*
X0298248Y0037114D01*
X0289980Y0037114D01*
X0289980Y0040657D02*
X0298248Y0040657D01*
X0258484Y0040657D02*
X0250217Y0040657D01*
X0250217Y0042142D01*
X0250217Y0040657D02*
X0250217Y0037114D01*
X0258484Y0037114D01*
X0349035Y0083677D02*
X0349035Y0103362D01*
X0347067Y0103362D01*
X0451004Y0057193D02*
X0499035Y0057193D01*
X0499035Y0057102D02*
X0499035Y0055331D01*
X0499035Y0042142D02*
X0499035Y0040657D01*
X0499035Y0037114D01*
X0490768Y0037114D01*
X0490768Y0040657D02*
X0499035Y0040657D01*
X0459272Y0040657D02*
X0451004Y0040657D01*
X0451004Y0042142D01*
X0451004Y0040657D02*
X0451004Y0037114D01*
X0459272Y0037114D01*
X0451004Y0055331D02*
X0451004Y0057102D01*
X0549823Y0083677D02*
X0549823Y0103362D01*
X0547854Y0103362D01*
X0549823Y0176197D02*
X0549823Y0193913D01*
X0547854Y0193913D01*
X0497067Y0193232D02*
X0497067Y0189689D01*
X0497067Y0188205D01*
X0497067Y0189689D02*
X0488799Y0189689D01*
X0488799Y0193232D02*
X0497067Y0193232D01*
X0497067Y0175016D02*
X0497067Y0173244D01*
X0497067Y0173154D02*
X0449035Y0173154D01*
X0449035Y0173244D02*
X0449035Y0175016D01*
X0449035Y0188205D02*
X0449035Y0189689D01*
X0449035Y0193232D01*
X0457303Y0193232D01*
X0457303Y0189689D02*
X0449035Y0189689D01*
X0549823Y0251000D02*
X0551791Y0251000D01*
X0551791Y0272535D01*
X0575020Y0276787D02*
X0575020Y0278272D01*
X0575020Y0281815D01*
X0583287Y0281815D01*
X0583287Y0278272D02*
X0575020Y0278272D01*
X0575020Y0263598D02*
X0575020Y0261827D01*
X0575020Y0261736D02*
X0623051Y0261736D01*
X0623051Y0261827D02*
X0623051Y0263598D01*
X0623051Y0276787D02*
X0623051Y0278272D01*
X0623051Y0281815D01*
X0614783Y0281815D01*
X0614783Y0278272D02*
X0623051Y0278272D01*
X0623051Y0299138D02*
X0575020Y0299138D01*
X0575020Y0299228D02*
X0575020Y0301000D01*
X0575020Y0314189D02*
X0575020Y0315673D01*
X0575020Y0319217D01*
X0583287Y0319217D01*
X0583287Y0315673D02*
X0575020Y0315673D01*
X0551791Y0329740D02*
X0549823Y0329740D01*
X0551791Y0329740D02*
X0551791Y0349425D01*
X0614783Y0319217D02*
X0623051Y0319217D01*
X0623051Y0315673D01*
X0623051Y0314189D01*
X0623051Y0315673D02*
X0614783Y0315673D01*
X0623051Y0301000D02*
X0623051Y0299228D01*
D14*
X0504547Y0335646D02*
X0480925Y0335646D01*
X0480925Y0359268D01*
X0504547Y0359268D01*
X0504547Y0335646D01*
X0488799Y0347457D02*
X0488801Y0347582D01*
X0488807Y0347707D01*
X0488817Y0347831D01*
X0488831Y0347955D01*
X0488848Y0348079D01*
X0488870Y0348202D01*
X0488896Y0348324D01*
X0488925Y0348446D01*
X0488958Y0348566D01*
X0488996Y0348685D01*
X0489036Y0348804D01*
X0489081Y0348920D01*
X0489129Y0349035D01*
X0489181Y0349149D01*
X0489237Y0349261D01*
X0489296Y0349371D01*
X0489358Y0349479D01*
X0489424Y0349586D01*
X0489493Y0349690D01*
X0489566Y0349791D01*
X0489641Y0349891D01*
X0489720Y0349988D01*
X0489802Y0350082D01*
X0489887Y0350174D01*
X0489974Y0350263D01*
X0490065Y0350349D01*
X0490158Y0350432D01*
X0490254Y0350513D01*
X0490352Y0350590D01*
X0490452Y0350664D01*
X0490555Y0350735D01*
X0490660Y0350802D01*
X0490768Y0350867D01*
X0490877Y0350927D01*
X0490988Y0350985D01*
X0491101Y0351038D01*
X0491215Y0351088D01*
X0491331Y0351135D01*
X0491448Y0351177D01*
X0491567Y0351216D01*
X0491687Y0351252D01*
X0491808Y0351283D01*
X0491930Y0351311D01*
X0492052Y0351334D01*
X0492176Y0351354D01*
X0492300Y0351370D01*
X0492424Y0351382D01*
X0492549Y0351390D01*
X0492674Y0351394D01*
X0492798Y0351394D01*
X0492923Y0351390D01*
X0493048Y0351382D01*
X0493172Y0351370D01*
X0493296Y0351354D01*
X0493420Y0351334D01*
X0493542Y0351311D01*
X0493664Y0351283D01*
X0493785Y0351252D01*
X0493905Y0351216D01*
X0494024Y0351177D01*
X0494141Y0351135D01*
X0494257Y0351088D01*
X0494371Y0351038D01*
X0494484Y0350985D01*
X0494595Y0350927D01*
X0494705Y0350867D01*
X0494812Y0350802D01*
X0494917Y0350735D01*
X0495020Y0350664D01*
X0495120Y0350590D01*
X0495218Y0350513D01*
X0495314Y0350432D01*
X0495407Y0350349D01*
X0495498Y0350263D01*
X0495585Y0350174D01*
X0495670Y0350082D01*
X0495752Y0349988D01*
X0495831Y0349891D01*
X0495906Y0349791D01*
X0495979Y0349690D01*
X0496048Y0349586D01*
X0496114Y0349479D01*
X0496176Y0349371D01*
X0496235Y0349261D01*
X0496291Y0349149D01*
X0496343Y0349035D01*
X0496391Y0348920D01*
X0496436Y0348804D01*
X0496476Y0348685D01*
X0496514Y0348566D01*
X0496547Y0348446D01*
X0496576Y0348324D01*
X0496602Y0348202D01*
X0496624Y0348079D01*
X0496641Y0347955D01*
X0496655Y0347831D01*
X0496665Y0347707D01*
X0496671Y0347582D01*
X0496673Y0347457D01*
X0496671Y0347332D01*
X0496665Y0347207D01*
X0496655Y0347083D01*
X0496641Y0346959D01*
X0496624Y0346835D01*
X0496602Y0346712D01*
X0496576Y0346590D01*
X0496547Y0346468D01*
X0496514Y0346348D01*
X0496476Y0346229D01*
X0496436Y0346110D01*
X0496391Y0345994D01*
X0496343Y0345879D01*
X0496291Y0345765D01*
X0496235Y0345653D01*
X0496176Y0345543D01*
X0496114Y0345435D01*
X0496048Y0345328D01*
X0495979Y0345224D01*
X0495906Y0345123D01*
X0495831Y0345023D01*
X0495752Y0344926D01*
X0495670Y0344832D01*
X0495585Y0344740D01*
X0495498Y0344651D01*
X0495407Y0344565D01*
X0495314Y0344482D01*
X0495218Y0344401D01*
X0495120Y0344324D01*
X0495020Y0344250D01*
X0494917Y0344179D01*
X0494812Y0344112D01*
X0494704Y0344047D01*
X0494595Y0343987D01*
X0494484Y0343929D01*
X0494371Y0343876D01*
X0494257Y0343826D01*
X0494141Y0343779D01*
X0494024Y0343737D01*
X0493905Y0343698D01*
X0493785Y0343662D01*
X0493664Y0343631D01*
X0493542Y0343603D01*
X0493420Y0343580D01*
X0493296Y0343560D01*
X0493172Y0343544D01*
X0493048Y0343532D01*
X0492923Y0343524D01*
X0492798Y0343520D01*
X0492674Y0343520D01*
X0492549Y0343524D01*
X0492424Y0343532D01*
X0492300Y0343544D01*
X0492176Y0343560D01*
X0492052Y0343580D01*
X0491930Y0343603D01*
X0491808Y0343631D01*
X0491687Y0343662D01*
X0491567Y0343698D01*
X0491448Y0343737D01*
X0491331Y0343779D01*
X0491215Y0343826D01*
X0491101Y0343876D01*
X0490988Y0343929D01*
X0490877Y0343987D01*
X0490767Y0344047D01*
X0490660Y0344112D01*
X0490555Y0344179D01*
X0490452Y0344250D01*
X0490352Y0344324D01*
X0490254Y0344401D01*
X0490158Y0344482D01*
X0490065Y0344565D01*
X0489974Y0344651D01*
X0489887Y0344740D01*
X0489802Y0344832D01*
X0489720Y0344926D01*
X0489641Y0345023D01*
X0489566Y0345123D01*
X0489493Y0345224D01*
X0489424Y0345328D01*
X0489358Y0345435D01*
X0489296Y0345543D01*
X0489237Y0345653D01*
X0489181Y0345765D01*
X0489129Y0345879D01*
X0489081Y0345994D01*
X0489036Y0346110D01*
X0488996Y0346229D01*
X0488958Y0346348D01*
X0488925Y0346468D01*
X0488896Y0346590D01*
X0488870Y0346712D01*
X0488848Y0346835D01*
X0488831Y0346959D01*
X0488817Y0347083D01*
X0488807Y0347207D01*
X0488801Y0347332D01*
X0488799Y0347457D01*
X0486817Y0347457D02*
X0486819Y0347611D01*
X0486825Y0347764D01*
X0486835Y0347918D01*
X0486849Y0348071D01*
X0486867Y0348223D01*
X0486889Y0348375D01*
X0486914Y0348527D01*
X0486944Y0348678D01*
X0486978Y0348828D01*
X0487015Y0348977D01*
X0487057Y0349125D01*
X0487102Y0349271D01*
X0487151Y0349417D01*
X0487204Y0349561D01*
X0487260Y0349704D01*
X0487320Y0349846D01*
X0487384Y0349986D01*
X0487452Y0350124D01*
X0487523Y0350260D01*
X0487597Y0350394D01*
X0487675Y0350527D01*
X0487757Y0350657D01*
X0487841Y0350785D01*
X0487929Y0350911D01*
X0488021Y0351035D01*
X0488115Y0351156D01*
X0488213Y0351275D01*
X0488313Y0351391D01*
X0488417Y0351504D01*
X0488524Y0351615D01*
X0488633Y0351723D01*
X0488745Y0351828D01*
X0488860Y0351930D01*
X0488977Y0352029D01*
X0489097Y0352125D01*
X0489220Y0352218D01*
X0489344Y0352308D01*
X0489472Y0352394D01*
X0489601Y0352478D01*
X0489732Y0352557D01*
X0489866Y0352633D01*
X0490001Y0352706D01*
X0490138Y0352775D01*
X0490277Y0352841D01*
X0490418Y0352903D01*
X0490560Y0352961D01*
X0490704Y0353016D01*
X0490849Y0353067D01*
X0490995Y0353114D01*
X0491142Y0353157D01*
X0491291Y0353197D01*
X0491440Y0353232D01*
X0491591Y0353264D01*
X0491742Y0353292D01*
X0491894Y0353316D01*
X0492046Y0353336D01*
X0492199Y0353352D01*
X0492352Y0353364D01*
X0492506Y0353372D01*
X0492659Y0353376D01*
X0492813Y0353376D01*
X0492966Y0353372D01*
X0493120Y0353364D01*
X0493273Y0353352D01*
X0493426Y0353336D01*
X0493578Y0353316D01*
X0493730Y0353292D01*
X0493881Y0353264D01*
X0494032Y0353232D01*
X0494181Y0353197D01*
X0494330Y0353157D01*
X0494477Y0353114D01*
X0494623Y0353067D01*
X0494768Y0353016D01*
X0494912Y0352961D01*
X0495054Y0352903D01*
X0495195Y0352841D01*
X0495334Y0352775D01*
X0495471Y0352706D01*
X0495606Y0352633D01*
X0495740Y0352557D01*
X0495871Y0352478D01*
X0496000Y0352394D01*
X0496128Y0352308D01*
X0496252Y0352218D01*
X0496375Y0352125D01*
X0496495Y0352029D01*
X0496612Y0351930D01*
X0496727Y0351828D01*
X0496839Y0351723D01*
X0496948Y0351615D01*
X0497055Y0351504D01*
X0497159Y0351391D01*
X0497259Y0351275D01*
X0497357Y0351156D01*
X0497451Y0351035D01*
X0497543Y0350911D01*
X0497631Y0350785D01*
X0497715Y0350657D01*
X0497797Y0350527D01*
X0497875Y0350394D01*
X0497949Y0350260D01*
X0498020Y0350124D01*
X0498088Y0349986D01*
X0498152Y0349846D01*
X0498212Y0349704D01*
X0498268Y0349561D01*
X0498321Y0349417D01*
X0498370Y0349271D01*
X0498415Y0349125D01*
X0498457Y0348977D01*
X0498494Y0348828D01*
X0498528Y0348678D01*
X0498558Y0348527D01*
X0498583Y0348375D01*
X0498605Y0348223D01*
X0498623Y0348071D01*
X0498637Y0347918D01*
X0498647Y0347764D01*
X0498653Y0347611D01*
X0498655Y0347457D01*
X0498653Y0347303D01*
X0498647Y0347150D01*
X0498637Y0346996D01*
X0498623Y0346843D01*
X0498605Y0346691D01*
X0498583Y0346539D01*
X0498558Y0346387D01*
X0498528Y0346236D01*
X0498494Y0346086D01*
X0498457Y0345937D01*
X0498415Y0345789D01*
X0498370Y0345643D01*
X0498321Y0345497D01*
X0498268Y0345353D01*
X0498212Y0345210D01*
X0498152Y0345068D01*
X0498088Y0344928D01*
X0498020Y0344790D01*
X0497949Y0344654D01*
X0497875Y0344520D01*
X0497797Y0344387D01*
X0497715Y0344257D01*
X0497631Y0344129D01*
X0497543Y0344003D01*
X0497451Y0343879D01*
X0497357Y0343758D01*
X0497259Y0343639D01*
X0497159Y0343523D01*
X0497055Y0343410D01*
X0496948Y0343299D01*
X0496839Y0343191D01*
X0496727Y0343086D01*
X0496612Y0342984D01*
X0496495Y0342885D01*
X0496375Y0342789D01*
X0496252Y0342696D01*
X0496128Y0342606D01*
X0496000Y0342520D01*
X0495871Y0342436D01*
X0495740Y0342357D01*
X0495606Y0342281D01*
X0495471Y0342208D01*
X0495334Y0342139D01*
X0495195Y0342073D01*
X0495054Y0342011D01*
X0494912Y0341953D01*
X0494768Y0341898D01*
X0494623Y0341847D01*
X0494477Y0341800D01*
X0494330Y0341757D01*
X0494181Y0341717D01*
X0494032Y0341682D01*
X0493881Y0341650D01*
X0493730Y0341622D01*
X0493578Y0341598D01*
X0493426Y0341578D01*
X0493273Y0341562D01*
X0493120Y0341550D01*
X0492966Y0341542D01*
X0492813Y0341538D01*
X0492659Y0341538D01*
X0492506Y0341542D01*
X0492352Y0341550D01*
X0492199Y0341562D01*
X0492046Y0341578D01*
X0491894Y0341598D01*
X0491742Y0341622D01*
X0491591Y0341650D01*
X0491440Y0341682D01*
X0491291Y0341717D01*
X0491142Y0341757D01*
X0490995Y0341800D01*
X0490849Y0341847D01*
X0490704Y0341898D01*
X0490560Y0341953D01*
X0490418Y0342011D01*
X0490277Y0342073D01*
X0490138Y0342139D01*
X0490001Y0342208D01*
X0489866Y0342281D01*
X0489732Y0342357D01*
X0489601Y0342436D01*
X0489472Y0342520D01*
X0489344Y0342606D01*
X0489220Y0342696D01*
X0489097Y0342789D01*
X0488977Y0342885D01*
X0488860Y0342984D01*
X0488745Y0343086D01*
X0488633Y0343191D01*
X0488524Y0343299D01*
X0488417Y0343410D01*
X0488313Y0343523D01*
X0488213Y0343639D01*
X0488115Y0343758D01*
X0488021Y0343879D01*
X0487929Y0344003D01*
X0487841Y0344129D01*
X0487757Y0344257D01*
X0487675Y0344387D01*
X0487597Y0344520D01*
X0487523Y0344654D01*
X0487452Y0344790D01*
X0487384Y0344928D01*
X0487320Y0345068D01*
X0487260Y0345210D01*
X0487204Y0345353D01*
X0487151Y0345497D01*
X0487102Y0345643D01*
X0487057Y0345789D01*
X0487015Y0345937D01*
X0486978Y0346086D01*
X0486944Y0346236D01*
X0486914Y0346387D01*
X0486889Y0346539D01*
X0486867Y0346691D01*
X0486849Y0346843D01*
X0486835Y0346996D01*
X0486825Y0347150D01*
X0486819Y0347303D01*
X0486817Y0347457D01*
X0477972Y0375016D02*
X0477972Y0410449D01*
X0477776Y0410449D02*
X0464390Y0410449D01*
X0464193Y0410449D02*
X0464193Y0375016D01*
X0464390Y0375016D02*
X0477776Y0375016D01*
X0503760Y0382890D02*
X0503760Y0402575D01*
X0512421Y0392732D02*
X0516358Y0392732D01*
X0514390Y0391551D02*
X0514390Y0393913D01*
X0522264Y0394701D02*
X0524626Y0392339D01*
X0524626Y0382890D01*
X0524626Y0392339D02*
X0524626Y0402575D01*
X0524415Y0404283D02*
X0524417Y0404330D01*
X0524423Y0404376D01*
X0524432Y0404422D01*
X0524446Y0404466D01*
X0524463Y0404510D01*
X0524484Y0404551D01*
X0524508Y0404591D01*
X0524535Y0404629D01*
X0524566Y0404664D01*
X0524599Y0404697D01*
X0524635Y0404727D01*
X0524674Y0404753D01*
X0524714Y0404777D01*
X0524756Y0404796D01*
X0524800Y0404813D01*
X0524845Y0404825D01*
X0524891Y0404834D01*
X0524937Y0404839D01*
X0524984Y0404840D01*
X0525030Y0404837D01*
X0525076Y0404830D01*
X0525122Y0404819D01*
X0525166Y0404805D01*
X0525209Y0404787D01*
X0525250Y0404765D01*
X0525290Y0404740D01*
X0525327Y0404712D01*
X0525362Y0404681D01*
X0525394Y0404647D01*
X0525423Y0404610D01*
X0525448Y0404572D01*
X0525471Y0404531D01*
X0525490Y0404488D01*
X0525505Y0404444D01*
X0525517Y0404399D01*
X0525525Y0404353D01*
X0525529Y0404306D01*
X0525529Y0404260D01*
X0525525Y0404213D01*
X0525517Y0404167D01*
X0525505Y0404122D01*
X0525490Y0404078D01*
X0525471Y0404035D01*
X0525448Y0403994D01*
X0525423Y0403956D01*
X0525394Y0403919D01*
X0525362Y0403885D01*
X0525327Y0403854D01*
X0525290Y0403826D01*
X0525251Y0403801D01*
X0525209Y0403779D01*
X0525166Y0403761D01*
X0525122Y0403747D01*
X0525076Y0403736D01*
X0525030Y0403729D01*
X0524984Y0403726D01*
X0524937Y0403727D01*
X0524891Y0403732D01*
X0524845Y0403741D01*
X0524800Y0403753D01*
X0524756Y0403770D01*
X0524714Y0403789D01*
X0524674Y0403813D01*
X0524635Y0403839D01*
X0524599Y0403869D01*
X0524566Y0403902D01*
X0524535Y0403937D01*
X0524508Y0403975D01*
X0524484Y0404015D01*
X0524463Y0404056D01*
X0524446Y0404100D01*
X0524432Y0404144D01*
X0524423Y0404190D01*
X0524417Y0404236D01*
X0524415Y0404283D01*
X0517933Y0402575D02*
X0517539Y0402575D01*
X0517539Y0399425D02*
X0517933Y0399031D01*
X0323628Y0404283D02*
X0323630Y0404330D01*
X0323636Y0404376D01*
X0323645Y0404422D01*
X0323659Y0404466D01*
X0323676Y0404510D01*
X0323697Y0404551D01*
X0323721Y0404591D01*
X0323748Y0404629D01*
X0323779Y0404664D01*
X0323812Y0404697D01*
X0323848Y0404727D01*
X0323887Y0404753D01*
X0323927Y0404777D01*
X0323969Y0404796D01*
X0324013Y0404813D01*
X0324058Y0404825D01*
X0324104Y0404834D01*
X0324150Y0404839D01*
X0324197Y0404840D01*
X0324243Y0404837D01*
X0324289Y0404830D01*
X0324335Y0404819D01*
X0324379Y0404805D01*
X0324422Y0404787D01*
X0324463Y0404765D01*
X0324503Y0404740D01*
X0324540Y0404712D01*
X0324575Y0404681D01*
X0324607Y0404647D01*
X0324636Y0404610D01*
X0324661Y0404572D01*
X0324684Y0404531D01*
X0324703Y0404488D01*
X0324718Y0404444D01*
X0324730Y0404399D01*
X0324738Y0404353D01*
X0324742Y0404306D01*
X0324742Y0404260D01*
X0324738Y0404213D01*
X0324730Y0404167D01*
X0324718Y0404122D01*
X0324703Y0404078D01*
X0324684Y0404035D01*
X0324661Y0403994D01*
X0324636Y0403956D01*
X0324607Y0403919D01*
X0324575Y0403885D01*
X0324540Y0403854D01*
X0324503Y0403826D01*
X0324464Y0403801D01*
X0324422Y0403779D01*
X0324379Y0403761D01*
X0324335Y0403747D01*
X0324289Y0403736D01*
X0324243Y0403729D01*
X0324197Y0403726D01*
X0324150Y0403727D01*
X0324104Y0403732D01*
X0324058Y0403741D01*
X0324013Y0403753D01*
X0323969Y0403770D01*
X0323927Y0403789D01*
X0323887Y0403813D01*
X0323848Y0403839D01*
X0323812Y0403869D01*
X0323779Y0403902D01*
X0323748Y0403937D01*
X0323721Y0403975D01*
X0323697Y0404015D01*
X0323676Y0404056D01*
X0323659Y0404100D01*
X0323645Y0404144D01*
X0323636Y0404190D01*
X0323630Y0404236D01*
X0323628Y0404283D01*
X0323839Y0402575D02*
X0323839Y0392339D01*
X0321476Y0394701D01*
X0323839Y0392339D02*
X0323839Y0382890D01*
X0315571Y0392732D02*
X0311634Y0392732D01*
X0313602Y0391551D02*
X0313602Y0393913D01*
X0317146Y0399031D02*
X0316752Y0399425D01*
X0316752Y0402575D02*
X0317146Y0402575D01*
X0302972Y0402575D02*
X0302972Y0382890D01*
X0277185Y0375016D02*
X0277185Y0410449D01*
X0276988Y0410449D02*
X0263602Y0410449D01*
X0263406Y0410449D02*
X0263406Y0375016D01*
X0263602Y0375016D02*
X0276988Y0375016D01*
X0280138Y0359268D02*
X0303760Y0359268D01*
X0303760Y0335646D01*
X0280138Y0335646D01*
X0280138Y0359268D01*
X0288012Y0347457D02*
X0288014Y0347582D01*
X0288020Y0347707D01*
X0288030Y0347831D01*
X0288044Y0347955D01*
X0288061Y0348079D01*
X0288083Y0348202D01*
X0288109Y0348324D01*
X0288138Y0348446D01*
X0288171Y0348566D01*
X0288209Y0348685D01*
X0288249Y0348804D01*
X0288294Y0348920D01*
X0288342Y0349035D01*
X0288394Y0349149D01*
X0288450Y0349261D01*
X0288509Y0349371D01*
X0288571Y0349479D01*
X0288637Y0349586D01*
X0288706Y0349690D01*
X0288779Y0349791D01*
X0288854Y0349891D01*
X0288933Y0349988D01*
X0289015Y0350082D01*
X0289100Y0350174D01*
X0289187Y0350263D01*
X0289278Y0350349D01*
X0289371Y0350432D01*
X0289467Y0350513D01*
X0289565Y0350590D01*
X0289665Y0350664D01*
X0289768Y0350735D01*
X0289873Y0350802D01*
X0289981Y0350867D01*
X0290090Y0350927D01*
X0290201Y0350985D01*
X0290314Y0351038D01*
X0290428Y0351088D01*
X0290544Y0351135D01*
X0290661Y0351177D01*
X0290780Y0351216D01*
X0290900Y0351252D01*
X0291021Y0351283D01*
X0291143Y0351311D01*
X0291265Y0351334D01*
X0291389Y0351354D01*
X0291513Y0351370D01*
X0291637Y0351382D01*
X0291762Y0351390D01*
X0291887Y0351394D01*
X0292011Y0351394D01*
X0292136Y0351390D01*
X0292261Y0351382D01*
X0292385Y0351370D01*
X0292509Y0351354D01*
X0292633Y0351334D01*
X0292755Y0351311D01*
X0292877Y0351283D01*
X0292998Y0351252D01*
X0293118Y0351216D01*
X0293237Y0351177D01*
X0293354Y0351135D01*
X0293470Y0351088D01*
X0293584Y0351038D01*
X0293697Y0350985D01*
X0293808Y0350927D01*
X0293918Y0350867D01*
X0294025Y0350802D01*
X0294130Y0350735D01*
X0294233Y0350664D01*
X0294333Y0350590D01*
X0294431Y0350513D01*
X0294527Y0350432D01*
X0294620Y0350349D01*
X0294711Y0350263D01*
X0294798Y0350174D01*
X0294883Y0350082D01*
X0294965Y0349988D01*
X0295044Y0349891D01*
X0295119Y0349791D01*
X0295192Y0349690D01*
X0295261Y0349586D01*
X0295327Y0349479D01*
X0295389Y0349371D01*
X0295448Y0349261D01*
X0295504Y0349149D01*
X0295556Y0349035D01*
X0295604Y0348920D01*
X0295649Y0348804D01*
X0295689Y0348685D01*
X0295727Y0348566D01*
X0295760Y0348446D01*
X0295789Y0348324D01*
X0295815Y0348202D01*
X0295837Y0348079D01*
X0295854Y0347955D01*
X0295868Y0347831D01*
X0295878Y0347707D01*
X0295884Y0347582D01*
X0295886Y0347457D01*
X0295884Y0347332D01*
X0295878Y0347207D01*
X0295868Y0347083D01*
X0295854Y0346959D01*
X0295837Y0346835D01*
X0295815Y0346712D01*
X0295789Y0346590D01*
X0295760Y0346468D01*
X0295727Y0346348D01*
X0295689Y0346229D01*
X0295649Y0346110D01*
X0295604Y0345994D01*
X0295556Y0345879D01*
X0295504Y0345765D01*
X0295448Y0345653D01*
X0295389Y0345543D01*
X0295327Y0345435D01*
X0295261Y0345328D01*
X0295192Y0345224D01*
X0295119Y0345123D01*
X0295044Y0345023D01*
X0294965Y0344926D01*
X0294883Y0344832D01*
X0294798Y0344740D01*
X0294711Y0344651D01*
X0294620Y0344565D01*
X0294527Y0344482D01*
X0294431Y0344401D01*
X0294333Y0344324D01*
X0294233Y0344250D01*
X0294130Y0344179D01*
X0294025Y0344112D01*
X0293917Y0344047D01*
X0293808Y0343987D01*
X0293697Y0343929D01*
X0293584Y0343876D01*
X0293470Y0343826D01*
X0293354Y0343779D01*
X0293237Y0343737D01*
X0293118Y0343698D01*
X0292998Y0343662D01*
X0292877Y0343631D01*
X0292755Y0343603D01*
X0292633Y0343580D01*
X0292509Y0343560D01*
X0292385Y0343544D01*
X0292261Y0343532D01*
X0292136Y0343524D01*
X0292011Y0343520D01*
X0291887Y0343520D01*
X0291762Y0343524D01*
X0291637Y0343532D01*
X0291513Y0343544D01*
X0291389Y0343560D01*
X0291265Y0343580D01*
X0291143Y0343603D01*
X0291021Y0343631D01*
X0290900Y0343662D01*
X0290780Y0343698D01*
X0290661Y0343737D01*
X0290544Y0343779D01*
X0290428Y0343826D01*
X0290314Y0343876D01*
X0290201Y0343929D01*
X0290090Y0343987D01*
X0289980Y0344047D01*
X0289873Y0344112D01*
X0289768Y0344179D01*
X0289665Y0344250D01*
X0289565Y0344324D01*
X0289467Y0344401D01*
X0289371Y0344482D01*
X0289278Y0344565D01*
X0289187Y0344651D01*
X0289100Y0344740D01*
X0289015Y0344832D01*
X0288933Y0344926D01*
X0288854Y0345023D01*
X0288779Y0345123D01*
X0288706Y0345224D01*
X0288637Y0345328D01*
X0288571Y0345435D01*
X0288509Y0345543D01*
X0288450Y0345653D01*
X0288394Y0345765D01*
X0288342Y0345879D01*
X0288294Y0345994D01*
X0288249Y0346110D01*
X0288209Y0346229D01*
X0288171Y0346348D01*
X0288138Y0346468D01*
X0288109Y0346590D01*
X0288083Y0346712D01*
X0288061Y0346835D01*
X0288044Y0346959D01*
X0288030Y0347083D01*
X0288020Y0347207D01*
X0288014Y0347332D01*
X0288012Y0347457D01*
X0286030Y0347457D02*
X0286032Y0347611D01*
X0286038Y0347764D01*
X0286048Y0347918D01*
X0286062Y0348071D01*
X0286080Y0348223D01*
X0286102Y0348375D01*
X0286127Y0348527D01*
X0286157Y0348678D01*
X0286191Y0348828D01*
X0286228Y0348977D01*
X0286270Y0349125D01*
X0286315Y0349271D01*
X0286364Y0349417D01*
X0286417Y0349561D01*
X0286473Y0349704D01*
X0286533Y0349846D01*
X0286597Y0349986D01*
X0286665Y0350124D01*
X0286736Y0350260D01*
X0286810Y0350394D01*
X0286888Y0350527D01*
X0286970Y0350657D01*
X0287054Y0350785D01*
X0287142Y0350911D01*
X0287234Y0351035D01*
X0287328Y0351156D01*
X0287426Y0351275D01*
X0287526Y0351391D01*
X0287630Y0351504D01*
X0287737Y0351615D01*
X0287846Y0351723D01*
X0287958Y0351828D01*
X0288073Y0351930D01*
X0288190Y0352029D01*
X0288310Y0352125D01*
X0288433Y0352218D01*
X0288557Y0352308D01*
X0288685Y0352394D01*
X0288814Y0352478D01*
X0288945Y0352557D01*
X0289079Y0352633D01*
X0289214Y0352706D01*
X0289351Y0352775D01*
X0289490Y0352841D01*
X0289631Y0352903D01*
X0289773Y0352961D01*
X0289917Y0353016D01*
X0290062Y0353067D01*
X0290208Y0353114D01*
X0290355Y0353157D01*
X0290504Y0353197D01*
X0290653Y0353232D01*
X0290804Y0353264D01*
X0290955Y0353292D01*
X0291107Y0353316D01*
X0291259Y0353336D01*
X0291412Y0353352D01*
X0291565Y0353364D01*
X0291719Y0353372D01*
X0291872Y0353376D01*
X0292026Y0353376D01*
X0292179Y0353372D01*
X0292333Y0353364D01*
X0292486Y0353352D01*
X0292639Y0353336D01*
X0292791Y0353316D01*
X0292943Y0353292D01*
X0293094Y0353264D01*
X0293245Y0353232D01*
X0293394Y0353197D01*
X0293543Y0353157D01*
X0293690Y0353114D01*
X0293836Y0353067D01*
X0293981Y0353016D01*
X0294125Y0352961D01*
X0294267Y0352903D01*
X0294408Y0352841D01*
X0294547Y0352775D01*
X0294684Y0352706D01*
X0294819Y0352633D01*
X0294953Y0352557D01*
X0295084Y0352478D01*
X0295213Y0352394D01*
X0295341Y0352308D01*
X0295465Y0352218D01*
X0295588Y0352125D01*
X0295708Y0352029D01*
X0295825Y0351930D01*
X0295940Y0351828D01*
X0296052Y0351723D01*
X0296161Y0351615D01*
X0296268Y0351504D01*
X0296372Y0351391D01*
X0296472Y0351275D01*
X0296570Y0351156D01*
X0296664Y0351035D01*
X0296756Y0350911D01*
X0296844Y0350785D01*
X0296928Y0350657D01*
X0297010Y0350527D01*
X0297088Y0350394D01*
X0297162Y0350260D01*
X0297233Y0350124D01*
X0297301Y0349986D01*
X0297365Y0349846D01*
X0297425Y0349704D01*
X0297481Y0349561D01*
X0297534Y0349417D01*
X0297583Y0349271D01*
X0297628Y0349125D01*
X0297670Y0348977D01*
X0297707Y0348828D01*
X0297741Y0348678D01*
X0297771Y0348527D01*
X0297796Y0348375D01*
X0297818Y0348223D01*
X0297836Y0348071D01*
X0297850Y0347918D01*
X0297860Y0347764D01*
X0297866Y0347611D01*
X0297868Y0347457D01*
X0297866Y0347303D01*
X0297860Y0347150D01*
X0297850Y0346996D01*
X0297836Y0346843D01*
X0297818Y0346691D01*
X0297796Y0346539D01*
X0297771Y0346387D01*
X0297741Y0346236D01*
X0297707Y0346086D01*
X0297670Y0345937D01*
X0297628Y0345789D01*
X0297583Y0345643D01*
X0297534Y0345497D01*
X0297481Y0345353D01*
X0297425Y0345210D01*
X0297365Y0345068D01*
X0297301Y0344928D01*
X0297233Y0344790D01*
X0297162Y0344654D01*
X0297088Y0344520D01*
X0297010Y0344387D01*
X0296928Y0344257D01*
X0296844Y0344129D01*
X0296756Y0344003D01*
X0296664Y0343879D01*
X0296570Y0343758D01*
X0296472Y0343639D01*
X0296372Y0343523D01*
X0296268Y0343410D01*
X0296161Y0343299D01*
X0296052Y0343191D01*
X0295940Y0343086D01*
X0295825Y0342984D01*
X0295708Y0342885D01*
X0295588Y0342789D01*
X0295465Y0342696D01*
X0295341Y0342606D01*
X0295213Y0342520D01*
X0295084Y0342436D01*
X0294953Y0342357D01*
X0294819Y0342281D01*
X0294684Y0342208D01*
X0294547Y0342139D01*
X0294408Y0342073D01*
X0294267Y0342011D01*
X0294125Y0341953D01*
X0293981Y0341898D01*
X0293836Y0341847D01*
X0293690Y0341800D01*
X0293543Y0341757D01*
X0293394Y0341717D01*
X0293245Y0341682D01*
X0293094Y0341650D01*
X0292943Y0341622D01*
X0292791Y0341598D01*
X0292639Y0341578D01*
X0292486Y0341562D01*
X0292333Y0341550D01*
X0292179Y0341542D01*
X0292026Y0341538D01*
X0291872Y0341538D01*
X0291719Y0341542D01*
X0291565Y0341550D01*
X0291412Y0341562D01*
X0291259Y0341578D01*
X0291107Y0341598D01*
X0290955Y0341622D01*
X0290804Y0341650D01*
X0290653Y0341682D01*
X0290504Y0341717D01*
X0290355Y0341757D01*
X0290208Y0341800D01*
X0290062Y0341847D01*
X0289917Y0341898D01*
X0289773Y0341953D01*
X0289631Y0342011D01*
X0289490Y0342073D01*
X0289351Y0342139D01*
X0289214Y0342208D01*
X0289079Y0342281D01*
X0288945Y0342357D01*
X0288814Y0342436D01*
X0288685Y0342520D01*
X0288557Y0342606D01*
X0288433Y0342696D01*
X0288310Y0342789D01*
X0288190Y0342885D01*
X0288073Y0342984D01*
X0287958Y0343086D01*
X0287846Y0343191D01*
X0287737Y0343299D01*
X0287630Y0343410D01*
X0287526Y0343523D01*
X0287426Y0343639D01*
X0287328Y0343758D01*
X0287234Y0343879D01*
X0287142Y0344003D01*
X0287054Y0344129D01*
X0286970Y0344257D01*
X0286888Y0344387D01*
X0286810Y0344520D01*
X0286736Y0344654D01*
X0286665Y0344790D01*
X0286597Y0344928D01*
X0286533Y0345068D01*
X0286473Y0345210D01*
X0286417Y0345353D01*
X0286364Y0345497D01*
X0286315Y0345643D01*
X0286270Y0345789D01*
X0286228Y0345937D01*
X0286191Y0346086D01*
X0286157Y0346236D01*
X0286127Y0346387D01*
X0286102Y0346539D01*
X0286080Y0346691D01*
X0286062Y0346843D01*
X0286048Y0346996D01*
X0286038Y0347150D01*
X0286032Y0347303D01*
X0286030Y0347457D01*
X0259319Y0254619D02*
X0262103Y0251835D01*
X0259876Y0252392D02*
X0257092Y0249608D01*
X0257649Y0247381D02*
X0254865Y0250165D01*
X0257092Y0252392D02*
X0259876Y0249608D01*
X0199429Y0189976D02*
X0175807Y0189976D01*
X0175807Y0166354D01*
X0199429Y0166354D01*
X0199429Y0189976D01*
X0183681Y0178165D02*
X0183683Y0178290D01*
X0183689Y0178415D01*
X0183699Y0178539D01*
X0183713Y0178663D01*
X0183730Y0178787D01*
X0183752Y0178910D01*
X0183778Y0179032D01*
X0183807Y0179154D01*
X0183840Y0179274D01*
X0183878Y0179393D01*
X0183918Y0179512D01*
X0183963Y0179628D01*
X0184011Y0179743D01*
X0184063Y0179857D01*
X0184119Y0179969D01*
X0184178Y0180079D01*
X0184240Y0180187D01*
X0184306Y0180294D01*
X0184375Y0180398D01*
X0184448Y0180499D01*
X0184523Y0180599D01*
X0184602Y0180696D01*
X0184684Y0180790D01*
X0184769Y0180882D01*
X0184856Y0180971D01*
X0184947Y0181057D01*
X0185040Y0181140D01*
X0185136Y0181221D01*
X0185234Y0181298D01*
X0185334Y0181372D01*
X0185437Y0181443D01*
X0185542Y0181510D01*
X0185650Y0181575D01*
X0185759Y0181635D01*
X0185870Y0181693D01*
X0185983Y0181746D01*
X0186097Y0181796D01*
X0186213Y0181843D01*
X0186330Y0181885D01*
X0186449Y0181924D01*
X0186569Y0181960D01*
X0186690Y0181991D01*
X0186812Y0182019D01*
X0186934Y0182042D01*
X0187058Y0182062D01*
X0187182Y0182078D01*
X0187306Y0182090D01*
X0187431Y0182098D01*
X0187556Y0182102D01*
X0187680Y0182102D01*
X0187805Y0182098D01*
X0187930Y0182090D01*
X0188054Y0182078D01*
X0188178Y0182062D01*
X0188302Y0182042D01*
X0188424Y0182019D01*
X0188546Y0181991D01*
X0188667Y0181960D01*
X0188787Y0181924D01*
X0188906Y0181885D01*
X0189023Y0181843D01*
X0189139Y0181796D01*
X0189253Y0181746D01*
X0189366Y0181693D01*
X0189477Y0181635D01*
X0189587Y0181575D01*
X0189694Y0181510D01*
X0189799Y0181443D01*
X0189902Y0181372D01*
X0190002Y0181298D01*
X0190100Y0181221D01*
X0190196Y0181140D01*
X0190289Y0181057D01*
X0190380Y0180971D01*
X0190467Y0180882D01*
X0190552Y0180790D01*
X0190634Y0180696D01*
X0190713Y0180599D01*
X0190788Y0180499D01*
X0190861Y0180398D01*
X0190930Y0180294D01*
X0190996Y0180187D01*
X0191058Y0180079D01*
X0191117Y0179969D01*
X0191173Y0179857D01*
X0191225Y0179743D01*
X0191273Y0179628D01*
X0191318Y0179512D01*
X0191358Y0179393D01*
X0191396Y0179274D01*
X0191429Y0179154D01*
X0191458Y0179032D01*
X0191484Y0178910D01*
X0191506Y0178787D01*
X0191523Y0178663D01*
X0191537Y0178539D01*
X0191547Y0178415D01*
X0191553Y0178290D01*
X0191555Y0178165D01*
X0191553Y0178040D01*
X0191547Y0177915D01*
X0191537Y0177791D01*
X0191523Y0177667D01*
X0191506Y0177543D01*
X0191484Y0177420D01*
X0191458Y0177298D01*
X0191429Y0177176D01*
X0191396Y0177056D01*
X0191358Y0176937D01*
X0191318Y0176818D01*
X0191273Y0176702D01*
X0191225Y0176587D01*
X0191173Y0176473D01*
X0191117Y0176361D01*
X0191058Y0176251D01*
X0190996Y0176143D01*
X0190930Y0176036D01*
X0190861Y0175932D01*
X0190788Y0175831D01*
X0190713Y0175731D01*
X0190634Y0175634D01*
X0190552Y0175540D01*
X0190467Y0175448D01*
X0190380Y0175359D01*
X0190289Y0175273D01*
X0190196Y0175190D01*
X0190100Y0175109D01*
X0190002Y0175032D01*
X0189902Y0174958D01*
X0189799Y0174887D01*
X0189694Y0174820D01*
X0189586Y0174755D01*
X0189477Y0174695D01*
X0189366Y0174637D01*
X0189253Y0174584D01*
X0189139Y0174534D01*
X0189023Y0174487D01*
X0188906Y0174445D01*
X0188787Y0174406D01*
X0188667Y0174370D01*
X0188546Y0174339D01*
X0188424Y0174311D01*
X0188302Y0174288D01*
X0188178Y0174268D01*
X0188054Y0174252D01*
X0187930Y0174240D01*
X0187805Y0174232D01*
X0187680Y0174228D01*
X0187556Y0174228D01*
X0187431Y0174232D01*
X0187306Y0174240D01*
X0187182Y0174252D01*
X0187058Y0174268D01*
X0186934Y0174288D01*
X0186812Y0174311D01*
X0186690Y0174339D01*
X0186569Y0174370D01*
X0186449Y0174406D01*
X0186330Y0174445D01*
X0186213Y0174487D01*
X0186097Y0174534D01*
X0185983Y0174584D01*
X0185870Y0174637D01*
X0185759Y0174695D01*
X0185649Y0174755D01*
X0185542Y0174820D01*
X0185437Y0174887D01*
X0185334Y0174958D01*
X0185234Y0175032D01*
X0185136Y0175109D01*
X0185040Y0175190D01*
X0184947Y0175273D01*
X0184856Y0175359D01*
X0184769Y0175448D01*
X0184684Y0175540D01*
X0184602Y0175634D01*
X0184523Y0175731D01*
X0184448Y0175831D01*
X0184375Y0175932D01*
X0184306Y0176036D01*
X0184240Y0176143D01*
X0184178Y0176251D01*
X0184119Y0176361D01*
X0184063Y0176473D01*
X0184011Y0176587D01*
X0183963Y0176702D01*
X0183918Y0176818D01*
X0183878Y0176937D01*
X0183840Y0177056D01*
X0183807Y0177176D01*
X0183778Y0177298D01*
X0183752Y0177420D01*
X0183730Y0177543D01*
X0183713Y0177667D01*
X0183699Y0177791D01*
X0183689Y0177915D01*
X0183683Y0178040D01*
X0183681Y0178165D01*
X0181699Y0178165D02*
X0181701Y0178319D01*
X0181707Y0178472D01*
X0181717Y0178626D01*
X0181731Y0178779D01*
X0181749Y0178931D01*
X0181771Y0179083D01*
X0181796Y0179235D01*
X0181826Y0179386D01*
X0181860Y0179536D01*
X0181897Y0179685D01*
X0181939Y0179833D01*
X0181984Y0179979D01*
X0182033Y0180125D01*
X0182086Y0180269D01*
X0182142Y0180412D01*
X0182202Y0180554D01*
X0182266Y0180694D01*
X0182334Y0180832D01*
X0182405Y0180968D01*
X0182479Y0181102D01*
X0182557Y0181235D01*
X0182639Y0181365D01*
X0182723Y0181493D01*
X0182811Y0181619D01*
X0182903Y0181743D01*
X0182997Y0181864D01*
X0183095Y0181983D01*
X0183195Y0182099D01*
X0183299Y0182212D01*
X0183406Y0182323D01*
X0183515Y0182431D01*
X0183627Y0182536D01*
X0183742Y0182638D01*
X0183859Y0182737D01*
X0183979Y0182833D01*
X0184102Y0182926D01*
X0184226Y0183016D01*
X0184354Y0183102D01*
X0184483Y0183186D01*
X0184614Y0183265D01*
X0184748Y0183341D01*
X0184883Y0183414D01*
X0185020Y0183483D01*
X0185159Y0183549D01*
X0185300Y0183611D01*
X0185442Y0183669D01*
X0185586Y0183724D01*
X0185731Y0183775D01*
X0185877Y0183822D01*
X0186024Y0183865D01*
X0186173Y0183905D01*
X0186322Y0183940D01*
X0186473Y0183972D01*
X0186624Y0184000D01*
X0186776Y0184024D01*
X0186928Y0184044D01*
X0187081Y0184060D01*
X0187234Y0184072D01*
X0187388Y0184080D01*
X0187541Y0184084D01*
X0187695Y0184084D01*
X0187848Y0184080D01*
X0188002Y0184072D01*
X0188155Y0184060D01*
X0188308Y0184044D01*
X0188460Y0184024D01*
X0188612Y0184000D01*
X0188763Y0183972D01*
X0188914Y0183940D01*
X0189063Y0183905D01*
X0189212Y0183865D01*
X0189359Y0183822D01*
X0189505Y0183775D01*
X0189650Y0183724D01*
X0189794Y0183669D01*
X0189936Y0183611D01*
X0190077Y0183549D01*
X0190216Y0183483D01*
X0190353Y0183414D01*
X0190488Y0183341D01*
X0190622Y0183265D01*
X0190753Y0183186D01*
X0190882Y0183102D01*
X0191010Y0183016D01*
X0191134Y0182926D01*
X0191257Y0182833D01*
X0191377Y0182737D01*
X0191494Y0182638D01*
X0191609Y0182536D01*
X0191721Y0182431D01*
X0191830Y0182323D01*
X0191937Y0182212D01*
X0192041Y0182099D01*
X0192141Y0181983D01*
X0192239Y0181864D01*
X0192333Y0181743D01*
X0192425Y0181619D01*
X0192513Y0181493D01*
X0192597Y0181365D01*
X0192679Y0181235D01*
X0192757Y0181102D01*
X0192831Y0180968D01*
X0192902Y0180832D01*
X0192970Y0180694D01*
X0193034Y0180554D01*
X0193094Y0180412D01*
X0193150Y0180269D01*
X0193203Y0180125D01*
X0193252Y0179979D01*
X0193297Y0179833D01*
X0193339Y0179685D01*
X0193376Y0179536D01*
X0193410Y0179386D01*
X0193440Y0179235D01*
X0193465Y0179083D01*
X0193487Y0178931D01*
X0193505Y0178779D01*
X0193519Y0178626D01*
X0193529Y0178472D01*
X0193535Y0178319D01*
X0193537Y0178165D01*
X0193535Y0178011D01*
X0193529Y0177858D01*
X0193519Y0177704D01*
X0193505Y0177551D01*
X0193487Y0177399D01*
X0193465Y0177247D01*
X0193440Y0177095D01*
X0193410Y0176944D01*
X0193376Y0176794D01*
X0193339Y0176645D01*
X0193297Y0176497D01*
X0193252Y0176351D01*
X0193203Y0176205D01*
X0193150Y0176061D01*
X0193094Y0175918D01*
X0193034Y0175776D01*
X0192970Y0175636D01*
X0192902Y0175498D01*
X0192831Y0175362D01*
X0192757Y0175228D01*
X0192679Y0175095D01*
X0192597Y0174965D01*
X0192513Y0174837D01*
X0192425Y0174711D01*
X0192333Y0174587D01*
X0192239Y0174466D01*
X0192141Y0174347D01*
X0192041Y0174231D01*
X0191937Y0174118D01*
X0191830Y0174007D01*
X0191721Y0173899D01*
X0191609Y0173794D01*
X0191494Y0173692D01*
X0191377Y0173593D01*
X0191257Y0173497D01*
X0191134Y0173404D01*
X0191010Y0173314D01*
X0190882Y0173228D01*
X0190753Y0173144D01*
X0190622Y0173065D01*
X0190488Y0172989D01*
X0190353Y0172916D01*
X0190216Y0172847D01*
X0190077Y0172781D01*
X0189936Y0172719D01*
X0189794Y0172661D01*
X0189650Y0172606D01*
X0189505Y0172555D01*
X0189359Y0172508D01*
X0189212Y0172465D01*
X0189063Y0172425D01*
X0188914Y0172390D01*
X0188763Y0172358D01*
X0188612Y0172330D01*
X0188460Y0172306D01*
X0188308Y0172286D01*
X0188155Y0172270D01*
X0188002Y0172258D01*
X0187848Y0172250D01*
X0187695Y0172246D01*
X0187541Y0172246D01*
X0187388Y0172250D01*
X0187234Y0172258D01*
X0187081Y0172270D01*
X0186928Y0172286D01*
X0186776Y0172306D01*
X0186624Y0172330D01*
X0186473Y0172358D01*
X0186322Y0172390D01*
X0186173Y0172425D01*
X0186024Y0172465D01*
X0185877Y0172508D01*
X0185731Y0172555D01*
X0185586Y0172606D01*
X0185442Y0172661D01*
X0185300Y0172719D01*
X0185159Y0172781D01*
X0185020Y0172847D01*
X0184883Y0172916D01*
X0184748Y0172989D01*
X0184614Y0173065D01*
X0184483Y0173144D01*
X0184354Y0173228D01*
X0184226Y0173314D01*
X0184102Y0173404D01*
X0183979Y0173497D01*
X0183859Y0173593D01*
X0183742Y0173692D01*
X0183627Y0173794D01*
X0183515Y0173899D01*
X0183406Y0174007D01*
X0183299Y0174118D01*
X0183195Y0174231D01*
X0183095Y0174347D01*
X0182997Y0174466D01*
X0182903Y0174587D01*
X0182811Y0174711D01*
X0182723Y0174837D01*
X0182639Y0174965D01*
X0182557Y0175095D01*
X0182479Y0175228D01*
X0182405Y0175362D01*
X0182334Y0175498D01*
X0182266Y0175636D01*
X0182202Y0175776D01*
X0182142Y0175918D01*
X0182086Y0176061D01*
X0182033Y0176205D01*
X0181984Y0176351D01*
X0181939Y0176497D01*
X0181897Y0176645D01*
X0181860Y0176794D01*
X0181826Y0176944D01*
X0181796Y0177095D01*
X0181771Y0177247D01*
X0181749Y0177399D01*
X0181731Y0177551D01*
X0181717Y0177704D01*
X0181707Y0177858D01*
X0181701Y0178011D01*
X0181699Y0178165D01*
X0182500Y0156512D02*
X0169114Y0156512D01*
X0168917Y0156512D02*
X0168917Y0121079D01*
X0169114Y0121079D02*
X0182500Y0121079D01*
X0182697Y0121079D02*
X0182697Y0156512D01*
X0106909Y0160843D02*
X0097461Y0160843D01*
X0095098Y0158480D01*
X0097461Y0160843D02*
X0087224Y0160843D01*
X0084959Y0161189D02*
X0084961Y0161236D01*
X0084967Y0161282D01*
X0084976Y0161328D01*
X0084990Y0161372D01*
X0085007Y0161416D01*
X0085028Y0161457D01*
X0085052Y0161497D01*
X0085079Y0161535D01*
X0085110Y0161570D01*
X0085143Y0161603D01*
X0085179Y0161633D01*
X0085218Y0161659D01*
X0085258Y0161683D01*
X0085300Y0161702D01*
X0085344Y0161719D01*
X0085389Y0161731D01*
X0085435Y0161740D01*
X0085481Y0161745D01*
X0085528Y0161746D01*
X0085574Y0161743D01*
X0085620Y0161736D01*
X0085666Y0161725D01*
X0085710Y0161711D01*
X0085753Y0161693D01*
X0085794Y0161671D01*
X0085834Y0161646D01*
X0085871Y0161618D01*
X0085906Y0161587D01*
X0085938Y0161553D01*
X0085967Y0161516D01*
X0085992Y0161478D01*
X0086015Y0161437D01*
X0086034Y0161394D01*
X0086049Y0161350D01*
X0086061Y0161305D01*
X0086069Y0161259D01*
X0086073Y0161212D01*
X0086073Y0161166D01*
X0086069Y0161119D01*
X0086061Y0161073D01*
X0086049Y0161028D01*
X0086034Y0160984D01*
X0086015Y0160941D01*
X0085992Y0160900D01*
X0085967Y0160862D01*
X0085938Y0160825D01*
X0085906Y0160791D01*
X0085871Y0160760D01*
X0085834Y0160732D01*
X0085795Y0160707D01*
X0085753Y0160685D01*
X0085710Y0160667D01*
X0085666Y0160653D01*
X0085620Y0160642D01*
X0085574Y0160635D01*
X0085528Y0160632D01*
X0085481Y0160633D01*
X0085435Y0160638D01*
X0085389Y0160647D01*
X0085344Y0160659D01*
X0085300Y0160676D01*
X0085258Y0160695D01*
X0085218Y0160719D01*
X0085179Y0160745D01*
X0085143Y0160775D01*
X0085110Y0160808D01*
X0085079Y0160843D01*
X0085052Y0160881D01*
X0085028Y0160921D01*
X0085007Y0160962D01*
X0084990Y0161006D01*
X0084976Y0161050D01*
X0084967Y0161096D01*
X0084961Y0161142D01*
X0084959Y0161189D01*
X0087224Y0154150D02*
X0087224Y0153756D01*
X0090374Y0153756D02*
X0090768Y0154150D01*
X0095886Y0150606D02*
X0098248Y0150606D01*
X0097067Y0148638D02*
X0097067Y0152575D01*
X0106909Y0139976D02*
X0087224Y0139976D01*
X0206122Y0060055D02*
X0206122Y0056118D01*
X0207303Y0058087D02*
X0211240Y0058087D01*
X0212421Y0060055D02*
X0212421Y0056118D01*
X0209272Y0056118D02*
X0209272Y0060055D01*
X0288012Y0139976D02*
X0307697Y0139976D01*
X0297854Y0148638D02*
X0297854Y0152575D01*
X0299035Y0150606D02*
X0296673Y0150606D01*
X0291555Y0154150D02*
X0291161Y0153756D01*
X0288012Y0153756D02*
X0288012Y0154150D01*
X0295886Y0158480D02*
X0298248Y0160843D01*
X0307697Y0160843D01*
X0298248Y0160843D02*
X0288012Y0160843D01*
X0285746Y0161189D02*
X0285748Y0161236D01*
X0285754Y0161282D01*
X0285763Y0161328D01*
X0285777Y0161372D01*
X0285794Y0161416D01*
X0285815Y0161457D01*
X0285839Y0161497D01*
X0285866Y0161535D01*
X0285897Y0161570D01*
X0285930Y0161603D01*
X0285966Y0161633D01*
X0286005Y0161659D01*
X0286045Y0161683D01*
X0286087Y0161702D01*
X0286131Y0161719D01*
X0286176Y0161731D01*
X0286222Y0161740D01*
X0286268Y0161745D01*
X0286315Y0161746D01*
X0286361Y0161743D01*
X0286407Y0161736D01*
X0286453Y0161725D01*
X0286497Y0161711D01*
X0286540Y0161693D01*
X0286581Y0161671D01*
X0286621Y0161646D01*
X0286658Y0161618D01*
X0286693Y0161587D01*
X0286725Y0161553D01*
X0286754Y0161516D01*
X0286779Y0161478D01*
X0286802Y0161437D01*
X0286821Y0161394D01*
X0286836Y0161350D01*
X0286848Y0161305D01*
X0286856Y0161259D01*
X0286860Y0161212D01*
X0286860Y0161166D01*
X0286856Y0161119D01*
X0286848Y0161073D01*
X0286836Y0161028D01*
X0286821Y0160984D01*
X0286802Y0160941D01*
X0286779Y0160900D01*
X0286754Y0160862D01*
X0286725Y0160825D01*
X0286693Y0160791D01*
X0286658Y0160760D01*
X0286621Y0160732D01*
X0286582Y0160707D01*
X0286540Y0160685D01*
X0286497Y0160667D01*
X0286453Y0160653D01*
X0286407Y0160642D01*
X0286361Y0160635D01*
X0286315Y0160632D01*
X0286268Y0160633D01*
X0286222Y0160638D01*
X0286176Y0160647D01*
X0286131Y0160659D01*
X0286087Y0160676D01*
X0286045Y0160695D01*
X0286005Y0160719D01*
X0285966Y0160745D01*
X0285930Y0160775D01*
X0285897Y0160808D01*
X0285866Y0160843D01*
X0285839Y0160881D01*
X0285815Y0160921D01*
X0285794Y0160962D01*
X0285777Y0161006D01*
X0285763Y0161050D01*
X0285754Y0161096D01*
X0285748Y0161142D01*
X0285746Y0161189D01*
X0369705Y0156512D02*
X0369705Y0121079D01*
X0369902Y0121079D02*
X0383287Y0121079D01*
X0383484Y0121079D02*
X0383484Y0156512D01*
X0383287Y0156512D02*
X0369902Y0156512D01*
X0376594Y0166354D02*
X0376594Y0189976D01*
X0400217Y0189976D01*
X0400217Y0166354D01*
X0376594Y0166354D01*
X0384469Y0178165D02*
X0384471Y0178290D01*
X0384477Y0178415D01*
X0384487Y0178539D01*
X0384501Y0178663D01*
X0384518Y0178787D01*
X0384540Y0178910D01*
X0384566Y0179032D01*
X0384595Y0179154D01*
X0384628Y0179274D01*
X0384666Y0179393D01*
X0384706Y0179512D01*
X0384751Y0179628D01*
X0384799Y0179743D01*
X0384851Y0179857D01*
X0384907Y0179969D01*
X0384966Y0180079D01*
X0385028Y0180187D01*
X0385094Y0180294D01*
X0385163Y0180398D01*
X0385236Y0180499D01*
X0385311Y0180599D01*
X0385390Y0180696D01*
X0385472Y0180790D01*
X0385557Y0180882D01*
X0385644Y0180971D01*
X0385735Y0181057D01*
X0385828Y0181140D01*
X0385924Y0181221D01*
X0386022Y0181298D01*
X0386122Y0181372D01*
X0386225Y0181443D01*
X0386330Y0181510D01*
X0386438Y0181575D01*
X0386547Y0181635D01*
X0386658Y0181693D01*
X0386771Y0181746D01*
X0386885Y0181796D01*
X0387001Y0181843D01*
X0387118Y0181885D01*
X0387237Y0181924D01*
X0387357Y0181960D01*
X0387478Y0181991D01*
X0387600Y0182019D01*
X0387722Y0182042D01*
X0387846Y0182062D01*
X0387970Y0182078D01*
X0388094Y0182090D01*
X0388219Y0182098D01*
X0388344Y0182102D01*
X0388468Y0182102D01*
X0388593Y0182098D01*
X0388718Y0182090D01*
X0388842Y0182078D01*
X0388966Y0182062D01*
X0389090Y0182042D01*
X0389212Y0182019D01*
X0389334Y0181991D01*
X0389455Y0181960D01*
X0389575Y0181924D01*
X0389694Y0181885D01*
X0389811Y0181843D01*
X0389927Y0181796D01*
X0390041Y0181746D01*
X0390154Y0181693D01*
X0390265Y0181635D01*
X0390375Y0181575D01*
X0390482Y0181510D01*
X0390587Y0181443D01*
X0390690Y0181372D01*
X0390790Y0181298D01*
X0390888Y0181221D01*
X0390984Y0181140D01*
X0391077Y0181057D01*
X0391168Y0180971D01*
X0391255Y0180882D01*
X0391340Y0180790D01*
X0391422Y0180696D01*
X0391501Y0180599D01*
X0391576Y0180499D01*
X0391649Y0180398D01*
X0391718Y0180294D01*
X0391784Y0180187D01*
X0391846Y0180079D01*
X0391905Y0179969D01*
X0391961Y0179857D01*
X0392013Y0179743D01*
X0392061Y0179628D01*
X0392106Y0179512D01*
X0392146Y0179393D01*
X0392184Y0179274D01*
X0392217Y0179154D01*
X0392246Y0179032D01*
X0392272Y0178910D01*
X0392294Y0178787D01*
X0392311Y0178663D01*
X0392325Y0178539D01*
X0392335Y0178415D01*
X0392341Y0178290D01*
X0392343Y0178165D01*
X0392341Y0178040D01*
X0392335Y0177915D01*
X0392325Y0177791D01*
X0392311Y0177667D01*
X0392294Y0177543D01*
X0392272Y0177420D01*
X0392246Y0177298D01*
X0392217Y0177176D01*
X0392184Y0177056D01*
X0392146Y0176937D01*
X0392106Y0176818D01*
X0392061Y0176702D01*
X0392013Y0176587D01*
X0391961Y0176473D01*
X0391905Y0176361D01*
X0391846Y0176251D01*
X0391784Y0176143D01*
X0391718Y0176036D01*
X0391649Y0175932D01*
X0391576Y0175831D01*
X0391501Y0175731D01*
X0391422Y0175634D01*
X0391340Y0175540D01*
X0391255Y0175448D01*
X0391168Y0175359D01*
X0391077Y0175273D01*
X0390984Y0175190D01*
X0390888Y0175109D01*
X0390790Y0175032D01*
X0390690Y0174958D01*
X0390587Y0174887D01*
X0390482Y0174820D01*
X0390374Y0174755D01*
X0390265Y0174695D01*
X0390154Y0174637D01*
X0390041Y0174584D01*
X0389927Y0174534D01*
X0389811Y0174487D01*
X0389694Y0174445D01*
X0389575Y0174406D01*
X0389455Y0174370D01*
X0389334Y0174339D01*
X0389212Y0174311D01*
X0389090Y0174288D01*
X0388966Y0174268D01*
X0388842Y0174252D01*
X0388718Y0174240D01*
X0388593Y0174232D01*
X0388468Y0174228D01*
X0388344Y0174228D01*
X0388219Y0174232D01*
X0388094Y0174240D01*
X0387970Y0174252D01*
X0387846Y0174268D01*
X0387722Y0174288D01*
X0387600Y0174311D01*
X0387478Y0174339D01*
X0387357Y0174370D01*
X0387237Y0174406D01*
X0387118Y0174445D01*
X0387001Y0174487D01*
X0386885Y0174534D01*
X0386771Y0174584D01*
X0386658Y0174637D01*
X0386547Y0174695D01*
X0386437Y0174755D01*
X0386330Y0174820D01*
X0386225Y0174887D01*
X0386122Y0174958D01*
X0386022Y0175032D01*
X0385924Y0175109D01*
X0385828Y0175190D01*
X0385735Y0175273D01*
X0385644Y0175359D01*
X0385557Y0175448D01*
X0385472Y0175540D01*
X0385390Y0175634D01*
X0385311Y0175731D01*
X0385236Y0175831D01*
X0385163Y0175932D01*
X0385094Y0176036D01*
X0385028Y0176143D01*
X0384966Y0176251D01*
X0384907Y0176361D01*
X0384851Y0176473D01*
X0384799Y0176587D01*
X0384751Y0176702D01*
X0384706Y0176818D01*
X0384666Y0176937D01*
X0384628Y0177056D01*
X0384595Y0177176D01*
X0384566Y0177298D01*
X0384540Y0177420D01*
X0384518Y0177543D01*
X0384501Y0177667D01*
X0384487Y0177791D01*
X0384477Y0177915D01*
X0384471Y0178040D01*
X0384469Y0178165D01*
X0382487Y0178165D02*
X0382489Y0178319D01*
X0382495Y0178472D01*
X0382505Y0178626D01*
X0382519Y0178779D01*
X0382537Y0178931D01*
X0382559Y0179083D01*
X0382584Y0179235D01*
X0382614Y0179386D01*
X0382648Y0179536D01*
X0382685Y0179685D01*
X0382727Y0179833D01*
X0382772Y0179979D01*
X0382821Y0180125D01*
X0382874Y0180269D01*
X0382930Y0180412D01*
X0382990Y0180554D01*
X0383054Y0180694D01*
X0383122Y0180832D01*
X0383193Y0180968D01*
X0383267Y0181102D01*
X0383345Y0181235D01*
X0383427Y0181365D01*
X0383511Y0181493D01*
X0383599Y0181619D01*
X0383691Y0181743D01*
X0383785Y0181864D01*
X0383883Y0181983D01*
X0383983Y0182099D01*
X0384087Y0182212D01*
X0384194Y0182323D01*
X0384303Y0182431D01*
X0384415Y0182536D01*
X0384530Y0182638D01*
X0384647Y0182737D01*
X0384767Y0182833D01*
X0384890Y0182926D01*
X0385014Y0183016D01*
X0385142Y0183102D01*
X0385271Y0183186D01*
X0385402Y0183265D01*
X0385536Y0183341D01*
X0385671Y0183414D01*
X0385808Y0183483D01*
X0385947Y0183549D01*
X0386088Y0183611D01*
X0386230Y0183669D01*
X0386374Y0183724D01*
X0386519Y0183775D01*
X0386665Y0183822D01*
X0386812Y0183865D01*
X0386961Y0183905D01*
X0387110Y0183940D01*
X0387261Y0183972D01*
X0387412Y0184000D01*
X0387564Y0184024D01*
X0387716Y0184044D01*
X0387869Y0184060D01*
X0388022Y0184072D01*
X0388176Y0184080D01*
X0388329Y0184084D01*
X0388483Y0184084D01*
X0388636Y0184080D01*
X0388790Y0184072D01*
X0388943Y0184060D01*
X0389096Y0184044D01*
X0389248Y0184024D01*
X0389400Y0184000D01*
X0389551Y0183972D01*
X0389702Y0183940D01*
X0389851Y0183905D01*
X0390000Y0183865D01*
X0390147Y0183822D01*
X0390293Y0183775D01*
X0390438Y0183724D01*
X0390582Y0183669D01*
X0390724Y0183611D01*
X0390865Y0183549D01*
X0391004Y0183483D01*
X0391141Y0183414D01*
X0391276Y0183341D01*
X0391410Y0183265D01*
X0391541Y0183186D01*
X0391670Y0183102D01*
X0391798Y0183016D01*
X0391922Y0182926D01*
X0392045Y0182833D01*
X0392165Y0182737D01*
X0392282Y0182638D01*
X0392397Y0182536D01*
X0392509Y0182431D01*
X0392618Y0182323D01*
X0392725Y0182212D01*
X0392829Y0182099D01*
X0392929Y0181983D01*
X0393027Y0181864D01*
X0393121Y0181743D01*
X0393213Y0181619D01*
X0393301Y0181493D01*
X0393385Y0181365D01*
X0393467Y0181235D01*
X0393545Y0181102D01*
X0393619Y0180968D01*
X0393690Y0180832D01*
X0393758Y0180694D01*
X0393822Y0180554D01*
X0393882Y0180412D01*
X0393938Y0180269D01*
X0393991Y0180125D01*
X0394040Y0179979D01*
X0394085Y0179833D01*
X0394127Y0179685D01*
X0394164Y0179536D01*
X0394198Y0179386D01*
X0394228Y0179235D01*
X0394253Y0179083D01*
X0394275Y0178931D01*
X0394293Y0178779D01*
X0394307Y0178626D01*
X0394317Y0178472D01*
X0394323Y0178319D01*
X0394325Y0178165D01*
X0394323Y0178011D01*
X0394317Y0177858D01*
X0394307Y0177704D01*
X0394293Y0177551D01*
X0394275Y0177399D01*
X0394253Y0177247D01*
X0394228Y0177095D01*
X0394198Y0176944D01*
X0394164Y0176794D01*
X0394127Y0176645D01*
X0394085Y0176497D01*
X0394040Y0176351D01*
X0393991Y0176205D01*
X0393938Y0176061D01*
X0393882Y0175918D01*
X0393822Y0175776D01*
X0393758Y0175636D01*
X0393690Y0175498D01*
X0393619Y0175362D01*
X0393545Y0175228D01*
X0393467Y0175095D01*
X0393385Y0174965D01*
X0393301Y0174837D01*
X0393213Y0174711D01*
X0393121Y0174587D01*
X0393027Y0174466D01*
X0392929Y0174347D01*
X0392829Y0174231D01*
X0392725Y0174118D01*
X0392618Y0174007D01*
X0392509Y0173899D01*
X0392397Y0173794D01*
X0392282Y0173692D01*
X0392165Y0173593D01*
X0392045Y0173497D01*
X0391922Y0173404D01*
X0391798Y0173314D01*
X0391670Y0173228D01*
X0391541Y0173144D01*
X0391410Y0173065D01*
X0391276Y0172989D01*
X0391141Y0172916D01*
X0391004Y0172847D01*
X0390865Y0172781D01*
X0390724Y0172719D01*
X0390582Y0172661D01*
X0390438Y0172606D01*
X0390293Y0172555D01*
X0390147Y0172508D01*
X0390000Y0172465D01*
X0389851Y0172425D01*
X0389702Y0172390D01*
X0389551Y0172358D01*
X0389400Y0172330D01*
X0389248Y0172306D01*
X0389096Y0172286D01*
X0388943Y0172270D01*
X0388790Y0172258D01*
X0388636Y0172250D01*
X0388483Y0172246D01*
X0388329Y0172246D01*
X0388176Y0172250D01*
X0388022Y0172258D01*
X0387869Y0172270D01*
X0387716Y0172286D01*
X0387564Y0172306D01*
X0387412Y0172330D01*
X0387261Y0172358D01*
X0387110Y0172390D01*
X0386961Y0172425D01*
X0386812Y0172465D01*
X0386665Y0172508D01*
X0386519Y0172555D01*
X0386374Y0172606D01*
X0386230Y0172661D01*
X0386088Y0172719D01*
X0385947Y0172781D01*
X0385808Y0172847D01*
X0385671Y0172916D01*
X0385536Y0172989D01*
X0385402Y0173065D01*
X0385271Y0173144D01*
X0385142Y0173228D01*
X0385014Y0173314D01*
X0384890Y0173404D01*
X0384767Y0173497D01*
X0384647Y0173593D01*
X0384530Y0173692D01*
X0384415Y0173794D01*
X0384303Y0173899D01*
X0384194Y0174007D01*
X0384087Y0174118D01*
X0383983Y0174231D01*
X0383883Y0174347D01*
X0383785Y0174466D01*
X0383691Y0174587D01*
X0383599Y0174711D01*
X0383511Y0174837D01*
X0383427Y0174965D01*
X0383345Y0175095D01*
X0383267Y0175228D01*
X0383193Y0175362D01*
X0383122Y0175498D01*
X0383054Y0175636D01*
X0382990Y0175776D01*
X0382930Y0175918D01*
X0382874Y0176061D01*
X0382821Y0176205D01*
X0382772Y0176351D01*
X0382727Y0176497D01*
X0382685Y0176645D01*
X0382648Y0176794D01*
X0382614Y0176944D01*
X0382584Y0177095D01*
X0382559Y0177247D01*
X0382537Y0177399D01*
X0382519Y0177551D01*
X0382505Y0177704D01*
X0382495Y0177858D01*
X0382489Y0178011D01*
X0382487Y0178165D01*
X0455653Y0250165D02*
X0458436Y0247381D01*
X0457880Y0249608D02*
X0460664Y0252392D01*
X0462891Y0251835D02*
X0460107Y0254619D01*
X0457880Y0252392D02*
X0460664Y0249608D01*
X0577382Y0189976D02*
X0601004Y0189976D01*
X0601004Y0166354D01*
X0577382Y0166354D01*
X0577382Y0189976D01*
X0585256Y0178165D02*
X0585258Y0178290D01*
X0585264Y0178415D01*
X0585274Y0178539D01*
X0585288Y0178663D01*
X0585305Y0178787D01*
X0585327Y0178910D01*
X0585353Y0179032D01*
X0585382Y0179154D01*
X0585415Y0179274D01*
X0585453Y0179393D01*
X0585493Y0179512D01*
X0585538Y0179628D01*
X0585586Y0179743D01*
X0585638Y0179857D01*
X0585694Y0179969D01*
X0585753Y0180079D01*
X0585815Y0180187D01*
X0585881Y0180294D01*
X0585950Y0180398D01*
X0586023Y0180499D01*
X0586098Y0180599D01*
X0586177Y0180696D01*
X0586259Y0180790D01*
X0586344Y0180882D01*
X0586431Y0180971D01*
X0586522Y0181057D01*
X0586615Y0181140D01*
X0586711Y0181221D01*
X0586809Y0181298D01*
X0586909Y0181372D01*
X0587012Y0181443D01*
X0587117Y0181510D01*
X0587225Y0181575D01*
X0587334Y0181635D01*
X0587445Y0181693D01*
X0587558Y0181746D01*
X0587672Y0181796D01*
X0587788Y0181843D01*
X0587905Y0181885D01*
X0588024Y0181924D01*
X0588144Y0181960D01*
X0588265Y0181991D01*
X0588387Y0182019D01*
X0588509Y0182042D01*
X0588633Y0182062D01*
X0588757Y0182078D01*
X0588881Y0182090D01*
X0589006Y0182098D01*
X0589131Y0182102D01*
X0589255Y0182102D01*
X0589380Y0182098D01*
X0589505Y0182090D01*
X0589629Y0182078D01*
X0589753Y0182062D01*
X0589877Y0182042D01*
X0589999Y0182019D01*
X0590121Y0181991D01*
X0590242Y0181960D01*
X0590362Y0181924D01*
X0590481Y0181885D01*
X0590598Y0181843D01*
X0590714Y0181796D01*
X0590828Y0181746D01*
X0590941Y0181693D01*
X0591052Y0181635D01*
X0591162Y0181575D01*
X0591269Y0181510D01*
X0591374Y0181443D01*
X0591477Y0181372D01*
X0591577Y0181298D01*
X0591675Y0181221D01*
X0591771Y0181140D01*
X0591864Y0181057D01*
X0591955Y0180971D01*
X0592042Y0180882D01*
X0592127Y0180790D01*
X0592209Y0180696D01*
X0592288Y0180599D01*
X0592363Y0180499D01*
X0592436Y0180398D01*
X0592505Y0180294D01*
X0592571Y0180187D01*
X0592633Y0180079D01*
X0592692Y0179969D01*
X0592748Y0179857D01*
X0592800Y0179743D01*
X0592848Y0179628D01*
X0592893Y0179512D01*
X0592933Y0179393D01*
X0592971Y0179274D01*
X0593004Y0179154D01*
X0593033Y0179032D01*
X0593059Y0178910D01*
X0593081Y0178787D01*
X0593098Y0178663D01*
X0593112Y0178539D01*
X0593122Y0178415D01*
X0593128Y0178290D01*
X0593130Y0178165D01*
X0593128Y0178040D01*
X0593122Y0177915D01*
X0593112Y0177791D01*
X0593098Y0177667D01*
X0593081Y0177543D01*
X0593059Y0177420D01*
X0593033Y0177298D01*
X0593004Y0177176D01*
X0592971Y0177056D01*
X0592933Y0176937D01*
X0592893Y0176818D01*
X0592848Y0176702D01*
X0592800Y0176587D01*
X0592748Y0176473D01*
X0592692Y0176361D01*
X0592633Y0176251D01*
X0592571Y0176143D01*
X0592505Y0176036D01*
X0592436Y0175932D01*
X0592363Y0175831D01*
X0592288Y0175731D01*
X0592209Y0175634D01*
X0592127Y0175540D01*
X0592042Y0175448D01*
X0591955Y0175359D01*
X0591864Y0175273D01*
X0591771Y0175190D01*
X0591675Y0175109D01*
X0591577Y0175032D01*
X0591477Y0174958D01*
X0591374Y0174887D01*
X0591269Y0174820D01*
X0591161Y0174755D01*
X0591052Y0174695D01*
X0590941Y0174637D01*
X0590828Y0174584D01*
X0590714Y0174534D01*
X0590598Y0174487D01*
X0590481Y0174445D01*
X0590362Y0174406D01*
X0590242Y0174370D01*
X0590121Y0174339D01*
X0589999Y0174311D01*
X0589877Y0174288D01*
X0589753Y0174268D01*
X0589629Y0174252D01*
X0589505Y0174240D01*
X0589380Y0174232D01*
X0589255Y0174228D01*
X0589131Y0174228D01*
X0589006Y0174232D01*
X0588881Y0174240D01*
X0588757Y0174252D01*
X0588633Y0174268D01*
X0588509Y0174288D01*
X0588387Y0174311D01*
X0588265Y0174339D01*
X0588144Y0174370D01*
X0588024Y0174406D01*
X0587905Y0174445D01*
X0587788Y0174487D01*
X0587672Y0174534D01*
X0587558Y0174584D01*
X0587445Y0174637D01*
X0587334Y0174695D01*
X0587224Y0174755D01*
X0587117Y0174820D01*
X0587012Y0174887D01*
X0586909Y0174958D01*
X0586809Y0175032D01*
X0586711Y0175109D01*
X0586615Y0175190D01*
X0586522Y0175273D01*
X0586431Y0175359D01*
X0586344Y0175448D01*
X0586259Y0175540D01*
X0586177Y0175634D01*
X0586098Y0175731D01*
X0586023Y0175831D01*
X0585950Y0175932D01*
X0585881Y0176036D01*
X0585815Y0176143D01*
X0585753Y0176251D01*
X0585694Y0176361D01*
X0585638Y0176473D01*
X0585586Y0176587D01*
X0585538Y0176702D01*
X0585493Y0176818D01*
X0585453Y0176937D01*
X0585415Y0177056D01*
X0585382Y0177176D01*
X0585353Y0177298D01*
X0585327Y0177420D01*
X0585305Y0177543D01*
X0585288Y0177667D01*
X0585274Y0177791D01*
X0585264Y0177915D01*
X0585258Y0178040D01*
X0585256Y0178165D01*
X0583274Y0178165D02*
X0583276Y0178319D01*
X0583282Y0178472D01*
X0583292Y0178626D01*
X0583306Y0178779D01*
X0583324Y0178931D01*
X0583346Y0179083D01*
X0583371Y0179235D01*
X0583401Y0179386D01*
X0583435Y0179536D01*
X0583472Y0179685D01*
X0583514Y0179833D01*
X0583559Y0179979D01*
X0583608Y0180125D01*
X0583661Y0180269D01*
X0583717Y0180412D01*
X0583777Y0180554D01*
X0583841Y0180694D01*
X0583909Y0180832D01*
X0583980Y0180968D01*
X0584054Y0181102D01*
X0584132Y0181235D01*
X0584214Y0181365D01*
X0584298Y0181493D01*
X0584386Y0181619D01*
X0584478Y0181743D01*
X0584572Y0181864D01*
X0584670Y0181983D01*
X0584770Y0182099D01*
X0584874Y0182212D01*
X0584981Y0182323D01*
X0585090Y0182431D01*
X0585202Y0182536D01*
X0585317Y0182638D01*
X0585434Y0182737D01*
X0585554Y0182833D01*
X0585677Y0182926D01*
X0585801Y0183016D01*
X0585929Y0183102D01*
X0586058Y0183186D01*
X0586189Y0183265D01*
X0586323Y0183341D01*
X0586458Y0183414D01*
X0586595Y0183483D01*
X0586734Y0183549D01*
X0586875Y0183611D01*
X0587017Y0183669D01*
X0587161Y0183724D01*
X0587306Y0183775D01*
X0587452Y0183822D01*
X0587599Y0183865D01*
X0587748Y0183905D01*
X0587897Y0183940D01*
X0588048Y0183972D01*
X0588199Y0184000D01*
X0588351Y0184024D01*
X0588503Y0184044D01*
X0588656Y0184060D01*
X0588809Y0184072D01*
X0588963Y0184080D01*
X0589116Y0184084D01*
X0589270Y0184084D01*
X0589423Y0184080D01*
X0589577Y0184072D01*
X0589730Y0184060D01*
X0589883Y0184044D01*
X0590035Y0184024D01*
X0590187Y0184000D01*
X0590338Y0183972D01*
X0590489Y0183940D01*
X0590638Y0183905D01*
X0590787Y0183865D01*
X0590934Y0183822D01*
X0591080Y0183775D01*
X0591225Y0183724D01*
X0591369Y0183669D01*
X0591511Y0183611D01*
X0591652Y0183549D01*
X0591791Y0183483D01*
X0591928Y0183414D01*
X0592063Y0183341D01*
X0592197Y0183265D01*
X0592328Y0183186D01*
X0592457Y0183102D01*
X0592585Y0183016D01*
X0592709Y0182926D01*
X0592832Y0182833D01*
X0592952Y0182737D01*
X0593069Y0182638D01*
X0593184Y0182536D01*
X0593296Y0182431D01*
X0593405Y0182323D01*
X0593512Y0182212D01*
X0593616Y0182099D01*
X0593716Y0181983D01*
X0593814Y0181864D01*
X0593908Y0181743D01*
X0594000Y0181619D01*
X0594088Y0181493D01*
X0594172Y0181365D01*
X0594254Y0181235D01*
X0594332Y0181102D01*
X0594406Y0180968D01*
X0594477Y0180832D01*
X0594545Y0180694D01*
X0594609Y0180554D01*
X0594669Y0180412D01*
X0594725Y0180269D01*
X0594778Y0180125D01*
X0594827Y0179979D01*
X0594872Y0179833D01*
X0594914Y0179685D01*
X0594951Y0179536D01*
X0594985Y0179386D01*
X0595015Y0179235D01*
X0595040Y0179083D01*
X0595062Y0178931D01*
X0595080Y0178779D01*
X0595094Y0178626D01*
X0595104Y0178472D01*
X0595110Y0178319D01*
X0595112Y0178165D01*
X0595110Y0178011D01*
X0595104Y0177858D01*
X0595094Y0177704D01*
X0595080Y0177551D01*
X0595062Y0177399D01*
X0595040Y0177247D01*
X0595015Y0177095D01*
X0594985Y0176944D01*
X0594951Y0176794D01*
X0594914Y0176645D01*
X0594872Y0176497D01*
X0594827Y0176351D01*
X0594778Y0176205D01*
X0594725Y0176061D01*
X0594669Y0175918D01*
X0594609Y0175776D01*
X0594545Y0175636D01*
X0594477Y0175498D01*
X0594406Y0175362D01*
X0594332Y0175228D01*
X0594254Y0175095D01*
X0594172Y0174965D01*
X0594088Y0174837D01*
X0594000Y0174711D01*
X0593908Y0174587D01*
X0593814Y0174466D01*
X0593716Y0174347D01*
X0593616Y0174231D01*
X0593512Y0174118D01*
X0593405Y0174007D01*
X0593296Y0173899D01*
X0593184Y0173794D01*
X0593069Y0173692D01*
X0592952Y0173593D01*
X0592832Y0173497D01*
X0592709Y0173404D01*
X0592585Y0173314D01*
X0592457Y0173228D01*
X0592328Y0173144D01*
X0592197Y0173065D01*
X0592063Y0172989D01*
X0591928Y0172916D01*
X0591791Y0172847D01*
X0591652Y0172781D01*
X0591511Y0172719D01*
X0591369Y0172661D01*
X0591225Y0172606D01*
X0591080Y0172555D01*
X0590934Y0172508D01*
X0590787Y0172465D01*
X0590638Y0172425D01*
X0590489Y0172390D01*
X0590338Y0172358D01*
X0590187Y0172330D01*
X0590035Y0172306D01*
X0589883Y0172286D01*
X0589730Y0172270D01*
X0589577Y0172258D01*
X0589423Y0172250D01*
X0589270Y0172246D01*
X0589116Y0172246D01*
X0588963Y0172250D01*
X0588809Y0172258D01*
X0588656Y0172270D01*
X0588503Y0172286D01*
X0588351Y0172306D01*
X0588199Y0172330D01*
X0588048Y0172358D01*
X0587897Y0172390D01*
X0587748Y0172425D01*
X0587599Y0172465D01*
X0587452Y0172508D01*
X0587306Y0172555D01*
X0587161Y0172606D01*
X0587017Y0172661D01*
X0586875Y0172719D01*
X0586734Y0172781D01*
X0586595Y0172847D01*
X0586458Y0172916D01*
X0586323Y0172989D01*
X0586189Y0173065D01*
X0586058Y0173144D01*
X0585929Y0173228D01*
X0585801Y0173314D01*
X0585677Y0173404D01*
X0585554Y0173497D01*
X0585434Y0173593D01*
X0585317Y0173692D01*
X0585202Y0173794D01*
X0585090Y0173899D01*
X0584981Y0174007D01*
X0584874Y0174118D01*
X0584770Y0174231D01*
X0584670Y0174347D01*
X0584572Y0174466D01*
X0584478Y0174587D01*
X0584386Y0174711D01*
X0584298Y0174837D01*
X0584214Y0174965D01*
X0584132Y0175095D01*
X0584054Y0175228D01*
X0583980Y0175362D01*
X0583909Y0175498D01*
X0583841Y0175636D01*
X0583777Y0175776D01*
X0583717Y0175918D01*
X0583661Y0176061D01*
X0583608Y0176205D01*
X0583559Y0176351D01*
X0583514Y0176497D01*
X0583472Y0176645D01*
X0583435Y0176794D01*
X0583401Y0176944D01*
X0583371Y0177095D01*
X0583346Y0177247D01*
X0583324Y0177399D01*
X0583306Y0177551D01*
X0583292Y0177704D01*
X0583282Y0177858D01*
X0583276Y0178011D01*
X0583274Y0178165D01*
X0584075Y0156512D02*
X0570689Y0156512D01*
X0570492Y0156512D02*
X0570492Y0121079D01*
X0570689Y0121079D02*
X0584075Y0121079D01*
X0584272Y0121079D02*
X0584272Y0156512D01*
X0508484Y0160843D02*
X0499035Y0160843D01*
X0496673Y0158480D01*
X0499035Y0160843D02*
X0488799Y0160843D01*
X0486534Y0161189D02*
X0486536Y0161236D01*
X0486542Y0161282D01*
X0486551Y0161328D01*
X0486565Y0161372D01*
X0486582Y0161416D01*
X0486603Y0161457D01*
X0486627Y0161497D01*
X0486654Y0161535D01*
X0486685Y0161570D01*
X0486718Y0161603D01*
X0486754Y0161633D01*
X0486793Y0161659D01*
X0486833Y0161683D01*
X0486875Y0161702D01*
X0486919Y0161719D01*
X0486964Y0161731D01*
X0487010Y0161740D01*
X0487056Y0161745D01*
X0487103Y0161746D01*
X0487149Y0161743D01*
X0487195Y0161736D01*
X0487241Y0161725D01*
X0487285Y0161711D01*
X0487328Y0161693D01*
X0487369Y0161671D01*
X0487409Y0161646D01*
X0487446Y0161618D01*
X0487481Y0161587D01*
X0487513Y0161553D01*
X0487542Y0161516D01*
X0487567Y0161478D01*
X0487590Y0161437D01*
X0487609Y0161394D01*
X0487624Y0161350D01*
X0487636Y0161305D01*
X0487644Y0161259D01*
X0487648Y0161212D01*
X0487648Y0161166D01*
X0487644Y0161119D01*
X0487636Y0161073D01*
X0487624Y0161028D01*
X0487609Y0160984D01*
X0487590Y0160941D01*
X0487567Y0160900D01*
X0487542Y0160862D01*
X0487513Y0160825D01*
X0487481Y0160791D01*
X0487446Y0160760D01*
X0487409Y0160732D01*
X0487370Y0160707D01*
X0487328Y0160685D01*
X0487285Y0160667D01*
X0487241Y0160653D01*
X0487195Y0160642D01*
X0487149Y0160635D01*
X0487103Y0160632D01*
X0487056Y0160633D01*
X0487010Y0160638D01*
X0486964Y0160647D01*
X0486919Y0160659D01*
X0486875Y0160676D01*
X0486833Y0160695D01*
X0486793Y0160719D01*
X0486754Y0160745D01*
X0486718Y0160775D01*
X0486685Y0160808D01*
X0486654Y0160843D01*
X0486627Y0160881D01*
X0486603Y0160921D01*
X0486582Y0160962D01*
X0486565Y0161006D01*
X0486551Y0161050D01*
X0486542Y0161096D01*
X0486536Y0161142D01*
X0486534Y0161189D01*
X0488799Y0154150D02*
X0488799Y0153756D01*
X0491949Y0153756D02*
X0492343Y0154150D01*
X0497461Y0150606D02*
X0499823Y0150606D01*
X0498642Y0148638D02*
X0498642Y0152575D01*
X0508484Y0139976D02*
X0488799Y0139976D01*
X0413209Y0060055D02*
X0413209Y0056118D01*
X0412028Y0058087D02*
X0408091Y0058087D01*
X0406909Y0060055D02*
X0406909Y0056118D01*
X0410059Y0056118D02*
X0410059Y0060055D01*
X0607697Y0060055D02*
X0607697Y0056118D01*
X0608878Y0058087D02*
X0612815Y0058087D01*
X0613996Y0060055D02*
X0613996Y0056118D01*
X0610846Y0056118D02*
X0610846Y0060055D01*
X0123051Y0382890D02*
X0123051Y0392339D01*
X0120689Y0394701D01*
X0123051Y0392339D02*
X0123051Y0402575D01*
X0122841Y0404283D02*
X0122843Y0404330D01*
X0122849Y0404376D01*
X0122858Y0404422D01*
X0122872Y0404466D01*
X0122889Y0404510D01*
X0122910Y0404551D01*
X0122934Y0404591D01*
X0122961Y0404629D01*
X0122992Y0404664D01*
X0123025Y0404697D01*
X0123061Y0404727D01*
X0123100Y0404753D01*
X0123140Y0404777D01*
X0123182Y0404796D01*
X0123226Y0404813D01*
X0123271Y0404825D01*
X0123317Y0404834D01*
X0123363Y0404839D01*
X0123410Y0404840D01*
X0123456Y0404837D01*
X0123502Y0404830D01*
X0123548Y0404819D01*
X0123592Y0404805D01*
X0123635Y0404787D01*
X0123676Y0404765D01*
X0123716Y0404740D01*
X0123753Y0404712D01*
X0123788Y0404681D01*
X0123820Y0404647D01*
X0123849Y0404610D01*
X0123874Y0404572D01*
X0123897Y0404531D01*
X0123916Y0404488D01*
X0123931Y0404444D01*
X0123943Y0404399D01*
X0123951Y0404353D01*
X0123955Y0404306D01*
X0123955Y0404260D01*
X0123951Y0404213D01*
X0123943Y0404167D01*
X0123931Y0404122D01*
X0123916Y0404078D01*
X0123897Y0404035D01*
X0123874Y0403994D01*
X0123849Y0403956D01*
X0123820Y0403919D01*
X0123788Y0403885D01*
X0123753Y0403854D01*
X0123716Y0403826D01*
X0123677Y0403801D01*
X0123635Y0403779D01*
X0123592Y0403761D01*
X0123548Y0403747D01*
X0123502Y0403736D01*
X0123456Y0403729D01*
X0123410Y0403726D01*
X0123363Y0403727D01*
X0123317Y0403732D01*
X0123271Y0403741D01*
X0123226Y0403753D01*
X0123182Y0403770D01*
X0123140Y0403789D01*
X0123100Y0403813D01*
X0123061Y0403839D01*
X0123025Y0403869D01*
X0122992Y0403902D01*
X0122961Y0403937D01*
X0122934Y0403975D01*
X0122910Y0404015D01*
X0122889Y0404056D01*
X0122872Y0404100D01*
X0122858Y0404144D01*
X0122849Y0404190D01*
X0122843Y0404236D01*
X0122841Y0404283D01*
X0116358Y0402575D02*
X0115965Y0402575D01*
X0115965Y0399425D02*
X0116358Y0399031D01*
X0112815Y0393913D02*
X0112815Y0391551D01*
X0114783Y0392732D02*
X0110846Y0392732D01*
X0102185Y0382890D02*
X0102185Y0402575D01*
X0076398Y0410449D02*
X0076398Y0375016D01*
X0076201Y0375016D02*
X0062815Y0375016D01*
X0062618Y0375016D02*
X0062618Y0410449D01*
X0062815Y0410449D02*
X0076201Y0410449D01*
X0079350Y0359268D02*
X0102972Y0359268D01*
X0102972Y0335646D01*
X0079350Y0335646D01*
X0079350Y0359268D01*
X0087224Y0347457D02*
X0087226Y0347582D01*
X0087232Y0347707D01*
X0087242Y0347831D01*
X0087256Y0347955D01*
X0087273Y0348079D01*
X0087295Y0348202D01*
X0087321Y0348324D01*
X0087350Y0348446D01*
X0087383Y0348566D01*
X0087421Y0348685D01*
X0087461Y0348804D01*
X0087506Y0348920D01*
X0087554Y0349035D01*
X0087606Y0349149D01*
X0087662Y0349261D01*
X0087721Y0349371D01*
X0087783Y0349479D01*
X0087849Y0349586D01*
X0087918Y0349690D01*
X0087991Y0349791D01*
X0088066Y0349891D01*
X0088145Y0349988D01*
X0088227Y0350082D01*
X0088312Y0350174D01*
X0088399Y0350263D01*
X0088490Y0350349D01*
X0088583Y0350432D01*
X0088679Y0350513D01*
X0088777Y0350590D01*
X0088877Y0350664D01*
X0088980Y0350735D01*
X0089085Y0350802D01*
X0089193Y0350867D01*
X0089302Y0350927D01*
X0089413Y0350985D01*
X0089526Y0351038D01*
X0089640Y0351088D01*
X0089756Y0351135D01*
X0089873Y0351177D01*
X0089992Y0351216D01*
X0090112Y0351252D01*
X0090233Y0351283D01*
X0090355Y0351311D01*
X0090477Y0351334D01*
X0090601Y0351354D01*
X0090725Y0351370D01*
X0090849Y0351382D01*
X0090974Y0351390D01*
X0091099Y0351394D01*
X0091223Y0351394D01*
X0091348Y0351390D01*
X0091473Y0351382D01*
X0091597Y0351370D01*
X0091721Y0351354D01*
X0091845Y0351334D01*
X0091967Y0351311D01*
X0092089Y0351283D01*
X0092210Y0351252D01*
X0092330Y0351216D01*
X0092449Y0351177D01*
X0092566Y0351135D01*
X0092682Y0351088D01*
X0092796Y0351038D01*
X0092909Y0350985D01*
X0093020Y0350927D01*
X0093130Y0350867D01*
X0093237Y0350802D01*
X0093342Y0350735D01*
X0093445Y0350664D01*
X0093545Y0350590D01*
X0093643Y0350513D01*
X0093739Y0350432D01*
X0093832Y0350349D01*
X0093923Y0350263D01*
X0094010Y0350174D01*
X0094095Y0350082D01*
X0094177Y0349988D01*
X0094256Y0349891D01*
X0094331Y0349791D01*
X0094404Y0349690D01*
X0094473Y0349586D01*
X0094539Y0349479D01*
X0094601Y0349371D01*
X0094660Y0349261D01*
X0094716Y0349149D01*
X0094768Y0349035D01*
X0094816Y0348920D01*
X0094861Y0348804D01*
X0094901Y0348685D01*
X0094939Y0348566D01*
X0094972Y0348446D01*
X0095001Y0348324D01*
X0095027Y0348202D01*
X0095049Y0348079D01*
X0095066Y0347955D01*
X0095080Y0347831D01*
X0095090Y0347707D01*
X0095096Y0347582D01*
X0095098Y0347457D01*
X0095096Y0347332D01*
X0095090Y0347207D01*
X0095080Y0347083D01*
X0095066Y0346959D01*
X0095049Y0346835D01*
X0095027Y0346712D01*
X0095001Y0346590D01*
X0094972Y0346468D01*
X0094939Y0346348D01*
X0094901Y0346229D01*
X0094861Y0346110D01*
X0094816Y0345994D01*
X0094768Y0345879D01*
X0094716Y0345765D01*
X0094660Y0345653D01*
X0094601Y0345543D01*
X0094539Y0345435D01*
X0094473Y0345328D01*
X0094404Y0345224D01*
X0094331Y0345123D01*
X0094256Y0345023D01*
X0094177Y0344926D01*
X0094095Y0344832D01*
X0094010Y0344740D01*
X0093923Y0344651D01*
X0093832Y0344565D01*
X0093739Y0344482D01*
X0093643Y0344401D01*
X0093545Y0344324D01*
X0093445Y0344250D01*
X0093342Y0344179D01*
X0093237Y0344112D01*
X0093129Y0344047D01*
X0093020Y0343987D01*
X0092909Y0343929D01*
X0092796Y0343876D01*
X0092682Y0343826D01*
X0092566Y0343779D01*
X0092449Y0343737D01*
X0092330Y0343698D01*
X0092210Y0343662D01*
X0092089Y0343631D01*
X0091967Y0343603D01*
X0091845Y0343580D01*
X0091721Y0343560D01*
X0091597Y0343544D01*
X0091473Y0343532D01*
X0091348Y0343524D01*
X0091223Y0343520D01*
X0091099Y0343520D01*
X0090974Y0343524D01*
X0090849Y0343532D01*
X0090725Y0343544D01*
X0090601Y0343560D01*
X0090477Y0343580D01*
X0090355Y0343603D01*
X0090233Y0343631D01*
X0090112Y0343662D01*
X0089992Y0343698D01*
X0089873Y0343737D01*
X0089756Y0343779D01*
X0089640Y0343826D01*
X0089526Y0343876D01*
X0089413Y0343929D01*
X0089302Y0343987D01*
X0089192Y0344047D01*
X0089085Y0344112D01*
X0088980Y0344179D01*
X0088877Y0344250D01*
X0088777Y0344324D01*
X0088679Y0344401D01*
X0088583Y0344482D01*
X0088490Y0344565D01*
X0088399Y0344651D01*
X0088312Y0344740D01*
X0088227Y0344832D01*
X0088145Y0344926D01*
X0088066Y0345023D01*
X0087991Y0345123D01*
X0087918Y0345224D01*
X0087849Y0345328D01*
X0087783Y0345435D01*
X0087721Y0345543D01*
X0087662Y0345653D01*
X0087606Y0345765D01*
X0087554Y0345879D01*
X0087506Y0345994D01*
X0087461Y0346110D01*
X0087421Y0346229D01*
X0087383Y0346348D01*
X0087350Y0346468D01*
X0087321Y0346590D01*
X0087295Y0346712D01*
X0087273Y0346835D01*
X0087256Y0346959D01*
X0087242Y0347083D01*
X0087232Y0347207D01*
X0087226Y0347332D01*
X0087224Y0347457D01*
X0085242Y0347457D02*
X0085244Y0347611D01*
X0085250Y0347764D01*
X0085260Y0347918D01*
X0085274Y0348071D01*
X0085292Y0348223D01*
X0085314Y0348375D01*
X0085339Y0348527D01*
X0085369Y0348678D01*
X0085403Y0348828D01*
X0085440Y0348977D01*
X0085482Y0349125D01*
X0085527Y0349271D01*
X0085576Y0349417D01*
X0085629Y0349561D01*
X0085685Y0349704D01*
X0085745Y0349846D01*
X0085809Y0349986D01*
X0085877Y0350124D01*
X0085948Y0350260D01*
X0086022Y0350394D01*
X0086100Y0350527D01*
X0086182Y0350657D01*
X0086266Y0350785D01*
X0086354Y0350911D01*
X0086446Y0351035D01*
X0086540Y0351156D01*
X0086638Y0351275D01*
X0086738Y0351391D01*
X0086842Y0351504D01*
X0086949Y0351615D01*
X0087058Y0351723D01*
X0087170Y0351828D01*
X0087285Y0351930D01*
X0087402Y0352029D01*
X0087522Y0352125D01*
X0087645Y0352218D01*
X0087769Y0352308D01*
X0087897Y0352394D01*
X0088026Y0352478D01*
X0088157Y0352557D01*
X0088291Y0352633D01*
X0088426Y0352706D01*
X0088563Y0352775D01*
X0088702Y0352841D01*
X0088843Y0352903D01*
X0088985Y0352961D01*
X0089129Y0353016D01*
X0089274Y0353067D01*
X0089420Y0353114D01*
X0089567Y0353157D01*
X0089716Y0353197D01*
X0089865Y0353232D01*
X0090016Y0353264D01*
X0090167Y0353292D01*
X0090319Y0353316D01*
X0090471Y0353336D01*
X0090624Y0353352D01*
X0090777Y0353364D01*
X0090931Y0353372D01*
X0091084Y0353376D01*
X0091238Y0353376D01*
X0091391Y0353372D01*
X0091545Y0353364D01*
X0091698Y0353352D01*
X0091851Y0353336D01*
X0092003Y0353316D01*
X0092155Y0353292D01*
X0092306Y0353264D01*
X0092457Y0353232D01*
X0092606Y0353197D01*
X0092755Y0353157D01*
X0092902Y0353114D01*
X0093048Y0353067D01*
X0093193Y0353016D01*
X0093337Y0352961D01*
X0093479Y0352903D01*
X0093620Y0352841D01*
X0093759Y0352775D01*
X0093896Y0352706D01*
X0094031Y0352633D01*
X0094165Y0352557D01*
X0094296Y0352478D01*
X0094425Y0352394D01*
X0094553Y0352308D01*
X0094677Y0352218D01*
X0094800Y0352125D01*
X0094920Y0352029D01*
X0095037Y0351930D01*
X0095152Y0351828D01*
X0095264Y0351723D01*
X0095373Y0351615D01*
X0095480Y0351504D01*
X0095584Y0351391D01*
X0095684Y0351275D01*
X0095782Y0351156D01*
X0095876Y0351035D01*
X0095968Y0350911D01*
X0096056Y0350785D01*
X0096140Y0350657D01*
X0096222Y0350527D01*
X0096300Y0350394D01*
X0096374Y0350260D01*
X0096445Y0350124D01*
X0096513Y0349986D01*
X0096577Y0349846D01*
X0096637Y0349704D01*
X0096693Y0349561D01*
X0096746Y0349417D01*
X0096795Y0349271D01*
X0096840Y0349125D01*
X0096882Y0348977D01*
X0096919Y0348828D01*
X0096953Y0348678D01*
X0096983Y0348527D01*
X0097008Y0348375D01*
X0097030Y0348223D01*
X0097048Y0348071D01*
X0097062Y0347918D01*
X0097072Y0347764D01*
X0097078Y0347611D01*
X0097080Y0347457D01*
X0097078Y0347303D01*
X0097072Y0347150D01*
X0097062Y0346996D01*
X0097048Y0346843D01*
X0097030Y0346691D01*
X0097008Y0346539D01*
X0096983Y0346387D01*
X0096953Y0346236D01*
X0096919Y0346086D01*
X0096882Y0345937D01*
X0096840Y0345789D01*
X0096795Y0345643D01*
X0096746Y0345497D01*
X0096693Y0345353D01*
X0096637Y0345210D01*
X0096577Y0345068D01*
X0096513Y0344928D01*
X0096445Y0344790D01*
X0096374Y0344654D01*
X0096300Y0344520D01*
X0096222Y0344387D01*
X0096140Y0344257D01*
X0096056Y0344129D01*
X0095968Y0344003D01*
X0095876Y0343879D01*
X0095782Y0343758D01*
X0095684Y0343639D01*
X0095584Y0343523D01*
X0095480Y0343410D01*
X0095373Y0343299D01*
X0095264Y0343191D01*
X0095152Y0343086D01*
X0095037Y0342984D01*
X0094920Y0342885D01*
X0094800Y0342789D01*
X0094677Y0342696D01*
X0094553Y0342606D01*
X0094425Y0342520D01*
X0094296Y0342436D01*
X0094165Y0342357D01*
X0094031Y0342281D01*
X0093896Y0342208D01*
X0093759Y0342139D01*
X0093620Y0342073D01*
X0093479Y0342011D01*
X0093337Y0341953D01*
X0093193Y0341898D01*
X0093048Y0341847D01*
X0092902Y0341800D01*
X0092755Y0341757D01*
X0092606Y0341717D01*
X0092457Y0341682D01*
X0092306Y0341650D01*
X0092155Y0341622D01*
X0092003Y0341598D01*
X0091851Y0341578D01*
X0091698Y0341562D01*
X0091545Y0341550D01*
X0091391Y0341542D01*
X0091238Y0341538D01*
X0091084Y0341538D01*
X0090931Y0341542D01*
X0090777Y0341550D01*
X0090624Y0341562D01*
X0090471Y0341578D01*
X0090319Y0341598D01*
X0090167Y0341622D01*
X0090016Y0341650D01*
X0089865Y0341682D01*
X0089716Y0341717D01*
X0089567Y0341757D01*
X0089420Y0341800D01*
X0089274Y0341847D01*
X0089129Y0341898D01*
X0088985Y0341953D01*
X0088843Y0342011D01*
X0088702Y0342073D01*
X0088563Y0342139D01*
X0088426Y0342208D01*
X0088291Y0342281D01*
X0088157Y0342357D01*
X0088026Y0342436D01*
X0087897Y0342520D01*
X0087769Y0342606D01*
X0087645Y0342696D01*
X0087522Y0342789D01*
X0087402Y0342885D01*
X0087285Y0342984D01*
X0087170Y0343086D01*
X0087058Y0343191D01*
X0086949Y0343299D01*
X0086842Y0343410D01*
X0086738Y0343523D01*
X0086638Y0343639D01*
X0086540Y0343758D01*
X0086446Y0343879D01*
X0086354Y0344003D01*
X0086266Y0344129D01*
X0086182Y0344257D01*
X0086100Y0344387D01*
X0086022Y0344520D01*
X0085948Y0344654D01*
X0085877Y0344790D01*
X0085809Y0344928D01*
X0085745Y0345068D01*
X0085685Y0345210D01*
X0085629Y0345353D01*
X0085576Y0345497D01*
X0085527Y0345643D01*
X0085482Y0345789D01*
X0085440Y0345937D01*
X0085403Y0346086D01*
X0085369Y0346236D01*
X0085339Y0346387D01*
X0085314Y0346539D01*
X0085292Y0346691D01*
X0085274Y0346843D01*
X0085260Y0346996D01*
X0085250Y0347150D01*
X0085244Y0347303D01*
X0085242Y0347457D01*
X0058532Y0254619D02*
X0061316Y0251835D01*
X0059089Y0252392D02*
X0056305Y0249608D01*
X0056862Y0247381D02*
X0054078Y0250165D01*
X0056305Y0252392D02*
X0059089Y0249608D01*
D15*
X0183681Y0375016D02*
X0199429Y0375016D01*
X0384469Y0375016D02*
X0400217Y0375016D01*
X0585256Y0375016D02*
X0601004Y0375016D01*
X0478957Y0105331D02*
X0478957Y0089583D01*
X0278169Y0089583D02*
X0278169Y0105331D01*
X0077382Y0105331D02*
X0077382Y0089583D01*
D16*
X0044311Y0107299D02*
X0044562Y0108110D01*
X0044832Y0108913D01*
X0045122Y0109710D01*
X0045431Y0110500D01*
X0045759Y0111281D01*
X0046107Y0112055D01*
X0046473Y0112820D01*
X0046858Y0113575D01*
X0047261Y0114321D01*
X0047682Y0115057D01*
X0048121Y0115783D01*
X0048578Y0116497D01*
X0049052Y0117200D01*
X0049543Y0117891D01*
X0050050Y0118570D01*
X0050574Y0119237D01*
X0051115Y0119890D01*
X0051671Y0120530D01*
X0052243Y0121157D01*
X0052829Y0121769D01*
X0053431Y0122366D01*
X0054047Y0122949D01*
X0054677Y0123516D01*
X0055320Y0124068D01*
X0055977Y0124604D01*
X0056647Y0125124D01*
X0057330Y0125627D01*
X0058024Y0126114D01*
X0058730Y0126583D01*
X0059448Y0127035D01*
X0060176Y0127469D01*
X0060915Y0127886D01*
X0061663Y0128284D01*
X0062421Y0128664D01*
X0063189Y0129025D01*
X0063964Y0129367D01*
X0064748Y0129690D01*
X0065540Y0129994D01*
X0066339Y0130279D01*
X0067144Y0130543D01*
X0067956Y0130789D01*
X0068773Y0131014D01*
X0069596Y0131219D01*
X0070423Y0131404D01*
X0071255Y0131569D01*
X0072091Y0131713D01*
X0072929Y0131837D01*
X0073771Y0131940D01*
X0074615Y0132023D01*
X0075461Y0132085D01*
X0076307Y0132127D01*
X0077155Y0132147D01*
X0078003Y0132147D01*
X0078851Y0132127D01*
X0079697Y0132085D01*
X0080543Y0132023D01*
X0081387Y0131940D01*
X0082229Y0131837D01*
X0083067Y0131713D01*
X0083903Y0131569D01*
X0084735Y0131404D01*
X0085562Y0131219D01*
X0086385Y0131014D01*
X0087202Y0130789D01*
X0088014Y0130543D01*
X0088819Y0130279D01*
X0089618Y0129994D01*
X0090410Y0129690D01*
X0091194Y0129367D01*
X0091969Y0129025D01*
X0092737Y0128664D01*
X0093495Y0128284D01*
X0094243Y0127886D01*
X0094982Y0127469D01*
X0095710Y0127035D01*
X0096428Y0126583D01*
X0097134Y0126114D01*
X0097828Y0125627D01*
X0098511Y0125124D01*
X0099181Y0124604D01*
X0099838Y0124068D01*
X0100481Y0123516D01*
X0101111Y0122949D01*
X0101727Y0122366D01*
X0102329Y0121769D01*
X0102915Y0121157D01*
X0103487Y0120530D01*
X0104043Y0119890D01*
X0104584Y0119237D01*
X0105108Y0118570D01*
X0105615Y0117891D01*
X0106106Y0117200D01*
X0106580Y0116497D01*
X0107037Y0115783D01*
X0107476Y0115057D01*
X0107897Y0114321D01*
X0108300Y0113575D01*
X0108685Y0112820D01*
X0109051Y0112055D01*
X0109399Y0111281D01*
X0109727Y0110500D01*
X0110036Y0109710D01*
X0110326Y0108913D01*
X0110596Y0108110D01*
X0110847Y0107299D01*
X0085256Y0097457D02*
X0069508Y0097457D01*
X0043917Y0087615D02*
X0044168Y0086804D01*
X0044438Y0086001D01*
X0044728Y0085204D01*
X0045037Y0084414D01*
X0045365Y0083633D01*
X0045713Y0082859D01*
X0046079Y0082094D01*
X0046464Y0081339D01*
X0046867Y0080593D01*
X0047288Y0079857D01*
X0047727Y0079131D01*
X0048184Y0078417D01*
X0048658Y0077714D01*
X0049149Y0077023D01*
X0049656Y0076344D01*
X0050180Y0075677D01*
X0050721Y0075024D01*
X0051277Y0074384D01*
X0051849Y0073757D01*
X0052435Y0073145D01*
X0053037Y0072548D01*
X0053653Y0071965D01*
X0054283Y0071398D01*
X0054926Y0070846D01*
X0055583Y0070310D01*
X0056253Y0069790D01*
X0056936Y0069287D01*
X0057630Y0068800D01*
X0058336Y0068331D01*
X0059054Y0067879D01*
X0059782Y0067445D01*
X0060521Y0067028D01*
X0061269Y0066630D01*
X0062027Y0066250D01*
X0062795Y0065889D01*
X0063570Y0065547D01*
X0064354Y0065224D01*
X0065146Y0064920D01*
X0065945Y0064635D01*
X0066750Y0064371D01*
X0067562Y0064125D01*
X0068379Y0063900D01*
X0069202Y0063695D01*
X0070029Y0063510D01*
X0070861Y0063345D01*
X0071697Y0063201D01*
X0072535Y0063077D01*
X0073377Y0062974D01*
X0074221Y0062891D01*
X0075067Y0062829D01*
X0075913Y0062787D01*
X0076761Y0062767D01*
X0077609Y0062767D01*
X0078457Y0062787D01*
X0079303Y0062829D01*
X0080149Y0062891D01*
X0080993Y0062974D01*
X0081835Y0063077D01*
X0082673Y0063201D01*
X0083509Y0063345D01*
X0084341Y0063510D01*
X0085168Y0063695D01*
X0085991Y0063900D01*
X0086808Y0064125D01*
X0087620Y0064371D01*
X0088425Y0064635D01*
X0089224Y0064920D01*
X0090016Y0065224D01*
X0090800Y0065547D01*
X0091575Y0065889D01*
X0092343Y0066250D01*
X0093101Y0066630D01*
X0093849Y0067028D01*
X0094588Y0067445D01*
X0095316Y0067879D01*
X0096034Y0068331D01*
X0096740Y0068800D01*
X0097434Y0069287D01*
X0098117Y0069790D01*
X0098787Y0070310D01*
X0099444Y0070846D01*
X0100087Y0071398D01*
X0100717Y0071965D01*
X0101333Y0072548D01*
X0101935Y0073145D01*
X0102521Y0073757D01*
X0103093Y0074384D01*
X0103649Y0075024D01*
X0104190Y0075677D01*
X0104714Y0076344D01*
X0105221Y0077023D01*
X0105712Y0077714D01*
X0106186Y0078417D01*
X0106643Y0079131D01*
X0107082Y0079857D01*
X0107503Y0080593D01*
X0107906Y0081339D01*
X0108291Y0082094D01*
X0108657Y0082859D01*
X0109005Y0083633D01*
X0109333Y0084414D01*
X0109642Y0085204D01*
X0109932Y0086001D01*
X0110202Y0086804D01*
X0110453Y0087615D01*
X0270295Y0097457D02*
X0286043Y0097457D01*
X0311634Y0107299D02*
X0311383Y0108110D01*
X0311113Y0108913D01*
X0310823Y0109710D01*
X0310514Y0110500D01*
X0310186Y0111281D01*
X0309838Y0112055D01*
X0309472Y0112820D01*
X0309087Y0113575D01*
X0308684Y0114321D01*
X0308263Y0115057D01*
X0307824Y0115783D01*
X0307367Y0116497D01*
X0306893Y0117200D01*
X0306402Y0117891D01*
X0305895Y0118570D01*
X0305371Y0119237D01*
X0304830Y0119890D01*
X0304274Y0120530D01*
X0303702Y0121157D01*
X0303116Y0121769D01*
X0302514Y0122366D01*
X0301898Y0122949D01*
X0301268Y0123516D01*
X0300625Y0124068D01*
X0299968Y0124604D01*
X0299298Y0125124D01*
X0298615Y0125627D01*
X0297921Y0126114D01*
X0297215Y0126583D01*
X0296497Y0127035D01*
X0295769Y0127469D01*
X0295030Y0127886D01*
X0294282Y0128284D01*
X0293524Y0128664D01*
X0292756Y0129025D01*
X0291981Y0129367D01*
X0291197Y0129690D01*
X0290405Y0129994D01*
X0289606Y0130279D01*
X0288801Y0130543D01*
X0287989Y0130789D01*
X0287172Y0131014D01*
X0286349Y0131219D01*
X0285522Y0131404D01*
X0284690Y0131569D01*
X0283854Y0131713D01*
X0283016Y0131837D01*
X0282174Y0131940D01*
X0281330Y0132023D01*
X0280484Y0132085D01*
X0279638Y0132127D01*
X0278790Y0132147D01*
X0277942Y0132147D01*
X0277094Y0132127D01*
X0276248Y0132085D01*
X0275402Y0132023D01*
X0274558Y0131940D01*
X0273716Y0131837D01*
X0272878Y0131713D01*
X0272042Y0131569D01*
X0271210Y0131404D01*
X0270383Y0131219D01*
X0269560Y0131014D01*
X0268743Y0130789D01*
X0267931Y0130543D01*
X0267126Y0130279D01*
X0266327Y0129994D01*
X0265535Y0129690D01*
X0264751Y0129367D01*
X0263976Y0129025D01*
X0263208Y0128664D01*
X0262450Y0128284D01*
X0261702Y0127886D01*
X0260963Y0127469D01*
X0260235Y0127035D01*
X0259517Y0126583D01*
X0258811Y0126114D01*
X0258117Y0125627D01*
X0257434Y0125124D01*
X0256764Y0124604D01*
X0256107Y0124068D01*
X0255464Y0123516D01*
X0254834Y0122949D01*
X0254218Y0122366D01*
X0253616Y0121769D01*
X0253030Y0121157D01*
X0252458Y0120530D01*
X0251902Y0119890D01*
X0251361Y0119237D01*
X0250837Y0118570D01*
X0250330Y0117891D01*
X0249839Y0117200D01*
X0249365Y0116497D01*
X0248908Y0115783D01*
X0248469Y0115057D01*
X0248048Y0114321D01*
X0247645Y0113575D01*
X0247260Y0112820D01*
X0246894Y0112055D01*
X0246546Y0111281D01*
X0246218Y0110500D01*
X0245909Y0109710D01*
X0245619Y0108913D01*
X0245349Y0108110D01*
X0245098Y0107299D01*
X0244704Y0087615D02*
X0244955Y0086804D01*
X0245225Y0086001D01*
X0245515Y0085204D01*
X0245824Y0084414D01*
X0246152Y0083633D01*
X0246500Y0082859D01*
X0246866Y0082094D01*
X0247251Y0081339D01*
X0247654Y0080593D01*
X0248075Y0079857D01*
X0248514Y0079131D01*
X0248971Y0078417D01*
X0249445Y0077714D01*
X0249936Y0077023D01*
X0250443Y0076344D01*
X0250967Y0075677D01*
X0251508Y0075024D01*
X0252064Y0074384D01*
X0252636Y0073757D01*
X0253222Y0073145D01*
X0253824Y0072548D01*
X0254440Y0071965D01*
X0255070Y0071398D01*
X0255713Y0070846D01*
X0256370Y0070310D01*
X0257040Y0069790D01*
X0257723Y0069287D01*
X0258417Y0068800D01*
X0259123Y0068331D01*
X0259841Y0067879D01*
X0260569Y0067445D01*
X0261308Y0067028D01*
X0262056Y0066630D01*
X0262814Y0066250D01*
X0263582Y0065889D01*
X0264357Y0065547D01*
X0265141Y0065224D01*
X0265933Y0064920D01*
X0266732Y0064635D01*
X0267537Y0064371D01*
X0268349Y0064125D01*
X0269166Y0063900D01*
X0269989Y0063695D01*
X0270816Y0063510D01*
X0271648Y0063345D01*
X0272484Y0063201D01*
X0273322Y0063077D01*
X0274164Y0062974D01*
X0275008Y0062891D01*
X0275854Y0062829D01*
X0276700Y0062787D01*
X0277548Y0062767D01*
X0278396Y0062767D01*
X0279244Y0062787D01*
X0280090Y0062829D01*
X0280936Y0062891D01*
X0281780Y0062974D01*
X0282622Y0063077D01*
X0283460Y0063201D01*
X0284296Y0063345D01*
X0285128Y0063510D01*
X0285955Y0063695D01*
X0286778Y0063900D01*
X0287595Y0064125D01*
X0288407Y0064371D01*
X0289212Y0064635D01*
X0290011Y0064920D01*
X0290803Y0065224D01*
X0291587Y0065547D01*
X0292362Y0065889D01*
X0293130Y0066250D01*
X0293888Y0066630D01*
X0294636Y0067028D01*
X0295375Y0067445D01*
X0296103Y0067879D01*
X0296821Y0068331D01*
X0297527Y0068800D01*
X0298221Y0069287D01*
X0298904Y0069790D01*
X0299574Y0070310D01*
X0300231Y0070846D01*
X0300874Y0071398D01*
X0301504Y0071965D01*
X0302120Y0072548D01*
X0302722Y0073145D01*
X0303308Y0073757D01*
X0303880Y0074384D01*
X0304436Y0075024D01*
X0304977Y0075677D01*
X0305501Y0076344D01*
X0306008Y0077023D01*
X0306499Y0077714D01*
X0306973Y0078417D01*
X0307430Y0079131D01*
X0307869Y0079857D01*
X0308290Y0080593D01*
X0308693Y0081339D01*
X0309078Y0082094D01*
X0309444Y0082859D01*
X0309792Y0083633D01*
X0310120Y0084414D01*
X0310429Y0085204D01*
X0310719Y0086001D01*
X0310989Y0086804D01*
X0311240Y0087615D01*
X0471083Y0097457D02*
X0486831Y0097457D01*
X0512422Y0107299D02*
X0512171Y0108110D01*
X0511901Y0108913D01*
X0511611Y0109710D01*
X0511302Y0110500D01*
X0510974Y0111281D01*
X0510626Y0112055D01*
X0510260Y0112820D01*
X0509875Y0113575D01*
X0509472Y0114321D01*
X0509051Y0115057D01*
X0508612Y0115783D01*
X0508155Y0116497D01*
X0507681Y0117200D01*
X0507190Y0117891D01*
X0506683Y0118570D01*
X0506159Y0119237D01*
X0505618Y0119890D01*
X0505062Y0120530D01*
X0504490Y0121157D01*
X0503904Y0121769D01*
X0503302Y0122366D01*
X0502686Y0122949D01*
X0502056Y0123516D01*
X0501413Y0124068D01*
X0500756Y0124604D01*
X0500086Y0125124D01*
X0499403Y0125627D01*
X0498709Y0126114D01*
X0498003Y0126583D01*
X0497285Y0127035D01*
X0496557Y0127469D01*
X0495818Y0127886D01*
X0495070Y0128284D01*
X0494312Y0128664D01*
X0493544Y0129025D01*
X0492769Y0129367D01*
X0491985Y0129690D01*
X0491193Y0129994D01*
X0490394Y0130279D01*
X0489589Y0130543D01*
X0488777Y0130789D01*
X0487960Y0131014D01*
X0487137Y0131219D01*
X0486310Y0131404D01*
X0485478Y0131569D01*
X0484642Y0131713D01*
X0483804Y0131837D01*
X0482962Y0131940D01*
X0482118Y0132023D01*
X0481272Y0132085D01*
X0480426Y0132127D01*
X0479578Y0132147D01*
X0478730Y0132147D01*
X0477882Y0132127D01*
X0477036Y0132085D01*
X0476190Y0132023D01*
X0475346Y0131940D01*
X0474504Y0131837D01*
X0473666Y0131713D01*
X0472830Y0131569D01*
X0471998Y0131404D01*
X0471171Y0131219D01*
X0470348Y0131014D01*
X0469531Y0130789D01*
X0468719Y0130543D01*
X0467914Y0130279D01*
X0467115Y0129994D01*
X0466323Y0129690D01*
X0465539Y0129367D01*
X0464764Y0129025D01*
X0463996Y0128664D01*
X0463238Y0128284D01*
X0462490Y0127886D01*
X0461751Y0127469D01*
X0461023Y0127035D01*
X0460305Y0126583D01*
X0459599Y0126114D01*
X0458905Y0125627D01*
X0458222Y0125124D01*
X0457552Y0124604D01*
X0456895Y0124068D01*
X0456252Y0123516D01*
X0455622Y0122949D01*
X0455006Y0122366D01*
X0454404Y0121769D01*
X0453818Y0121157D01*
X0453246Y0120530D01*
X0452690Y0119890D01*
X0452149Y0119237D01*
X0451625Y0118570D01*
X0451118Y0117891D01*
X0450627Y0117200D01*
X0450153Y0116497D01*
X0449696Y0115783D01*
X0449257Y0115057D01*
X0448836Y0114321D01*
X0448433Y0113575D01*
X0448048Y0112820D01*
X0447682Y0112055D01*
X0447334Y0111281D01*
X0447006Y0110500D01*
X0446697Y0109710D01*
X0446407Y0108913D01*
X0446137Y0108110D01*
X0445886Y0107299D01*
X0445492Y0087615D02*
X0445743Y0086804D01*
X0446013Y0086001D01*
X0446303Y0085204D01*
X0446612Y0084414D01*
X0446940Y0083633D01*
X0447288Y0082859D01*
X0447654Y0082094D01*
X0448039Y0081339D01*
X0448442Y0080593D01*
X0448863Y0079857D01*
X0449302Y0079131D01*
X0449759Y0078417D01*
X0450233Y0077714D01*
X0450724Y0077023D01*
X0451231Y0076344D01*
X0451755Y0075677D01*
X0452296Y0075024D01*
X0452852Y0074384D01*
X0453424Y0073757D01*
X0454010Y0073145D01*
X0454612Y0072548D01*
X0455228Y0071965D01*
X0455858Y0071398D01*
X0456501Y0070846D01*
X0457158Y0070310D01*
X0457828Y0069790D01*
X0458511Y0069287D01*
X0459205Y0068800D01*
X0459911Y0068331D01*
X0460629Y0067879D01*
X0461357Y0067445D01*
X0462096Y0067028D01*
X0462844Y0066630D01*
X0463602Y0066250D01*
X0464370Y0065889D01*
X0465145Y0065547D01*
X0465929Y0065224D01*
X0466721Y0064920D01*
X0467520Y0064635D01*
X0468325Y0064371D01*
X0469137Y0064125D01*
X0469954Y0063900D01*
X0470777Y0063695D01*
X0471604Y0063510D01*
X0472436Y0063345D01*
X0473272Y0063201D01*
X0474110Y0063077D01*
X0474952Y0062974D01*
X0475796Y0062891D01*
X0476642Y0062829D01*
X0477488Y0062787D01*
X0478336Y0062767D01*
X0479184Y0062767D01*
X0480032Y0062787D01*
X0480878Y0062829D01*
X0481724Y0062891D01*
X0482568Y0062974D01*
X0483410Y0063077D01*
X0484248Y0063201D01*
X0485084Y0063345D01*
X0485916Y0063510D01*
X0486743Y0063695D01*
X0487566Y0063900D01*
X0488383Y0064125D01*
X0489195Y0064371D01*
X0490000Y0064635D01*
X0490799Y0064920D01*
X0491591Y0065224D01*
X0492375Y0065547D01*
X0493150Y0065889D01*
X0493918Y0066250D01*
X0494676Y0066630D01*
X0495424Y0067028D01*
X0496163Y0067445D01*
X0496891Y0067879D01*
X0497609Y0068331D01*
X0498315Y0068800D01*
X0499009Y0069287D01*
X0499692Y0069790D01*
X0500362Y0070310D01*
X0501019Y0070846D01*
X0501662Y0071398D01*
X0502292Y0071965D01*
X0502908Y0072548D01*
X0503510Y0073145D01*
X0504096Y0073757D01*
X0504668Y0074384D01*
X0505224Y0075024D01*
X0505765Y0075677D01*
X0506289Y0076344D01*
X0506796Y0077023D01*
X0507287Y0077714D01*
X0507761Y0078417D01*
X0508218Y0079131D01*
X0508657Y0079857D01*
X0509078Y0080593D01*
X0509481Y0081339D01*
X0509866Y0082094D01*
X0510232Y0082859D01*
X0510580Y0083633D01*
X0510908Y0084414D01*
X0511217Y0085204D01*
X0511507Y0086001D01*
X0511777Y0086804D01*
X0512028Y0087615D01*
X0593130Y0367142D02*
X0593130Y0382890D01*
X0583288Y0408481D02*
X0582477Y0408230D01*
X0581674Y0407960D01*
X0580877Y0407670D01*
X0580087Y0407361D01*
X0579306Y0407033D01*
X0578532Y0406685D01*
X0577767Y0406319D01*
X0577012Y0405934D01*
X0576266Y0405531D01*
X0575530Y0405110D01*
X0574804Y0404671D01*
X0574090Y0404214D01*
X0573387Y0403740D01*
X0572696Y0403249D01*
X0572017Y0402742D01*
X0571350Y0402218D01*
X0570697Y0401677D01*
X0570057Y0401121D01*
X0569430Y0400549D01*
X0568818Y0399963D01*
X0568221Y0399361D01*
X0567638Y0398745D01*
X0567071Y0398115D01*
X0566519Y0397472D01*
X0565983Y0396815D01*
X0565463Y0396145D01*
X0564960Y0395462D01*
X0564473Y0394768D01*
X0564004Y0394062D01*
X0563552Y0393344D01*
X0563118Y0392616D01*
X0562701Y0391877D01*
X0562303Y0391129D01*
X0561923Y0390371D01*
X0561562Y0389603D01*
X0561220Y0388828D01*
X0560897Y0388044D01*
X0560593Y0387252D01*
X0560308Y0386453D01*
X0560044Y0385648D01*
X0559798Y0384836D01*
X0559573Y0384019D01*
X0559368Y0383196D01*
X0559183Y0382369D01*
X0559018Y0381537D01*
X0558874Y0380701D01*
X0558750Y0379863D01*
X0558647Y0379021D01*
X0558564Y0378177D01*
X0558502Y0377331D01*
X0558460Y0376485D01*
X0558440Y0375637D01*
X0558440Y0374789D01*
X0558460Y0373941D01*
X0558502Y0373095D01*
X0558564Y0372249D01*
X0558647Y0371405D01*
X0558750Y0370563D01*
X0558874Y0369725D01*
X0559018Y0368889D01*
X0559183Y0368057D01*
X0559368Y0367230D01*
X0559573Y0366407D01*
X0559798Y0365590D01*
X0560044Y0364778D01*
X0560308Y0363973D01*
X0560593Y0363174D01*
X0560897Y0362382D01*
X0561220Y0361598D01*
X0561562Y0360823D01*
X0561923Y0360055D01*
X0562303Y0359297D01*
X0562701Y0358549D01*
X0563118Y0357810D01*
X0563552Y0357082D01*
X0564004Y0356364D01*
X0564473Y0355658D01*
X0564960Y0354964D01*
X0565463Y0354281D01*
X0565983Y0353611D01*
X0566519Y0352954D01*
X0567071Y0352311D01*
X0567638Y0351681D01*
X0568221Y0351065D01*
X0568818Y0350463D01*
X0569430Y0349877D01*
X0570057Y0349305D01*
X0570697Y0348749D01*
X0571350Y0348208D01*
X0572017Y0347684D01*
X0572696Y0347177D01*
X0573387Y0346686D01*
X0574090Y0346212D01*
X0574804Y0345755D01*
X0575530Y0345316D01*
X0576266Y0344895D01*
X0577012Y0344492D01*
X0577767Y0344107D01*
X0578532Y0343741D01*
X0579306Y0343393D01*
X0580087Y0343065D01*
X0580877Y0342756D01*
X0581674Y0342466D01*
X0582477Y0342196D01*
X0583288Y0341945D01*
X0602972Y0341551D02*
X0603783Y0341802D01*
X0604586Y0342072D01*
X0605383Y0342362D01*
X0606173Y0342671D01*
X0606954Y0342999D01*
X0607728Y0343347D01*
X0608493Y0343713D01*
X0609248Y0344098D01*
X0609994Y0344501D01*
X0610730Y0344922D01*
X0611456Y0345361D01*
X0612170Y0345818D01*
X0612873Y0346292D01*
X0613564Y0346783D01*
X0614243Y0347290D01*
X0614910Y0347814D01*
X0615563Y0348355D01*
X0616203Y0348911D01*
X0616830Y0349483D01*
X0617442Y0350069D01*
X0618039Y0350671D01*
X0618622Y0351287D01*
X0619189Y0351917D01*
X0619741Y0352560D01*
X0620277Y0353217D01*
X0620797Y0353887D01*
X0621300Y0354570D01*
X0621787Y0355264D01*
X0622256Y0355970D01*
X0622708Y0356688D01*
X0623142Y0357416D01*
X0623559Y0358155D01*
X0623957Y0358903D01*
X0624337Y0359661D01*
X0624698Y0360429D01*
X0625040Y0361204D01*
X0625363Y0361988D01*
X0625667Y0362780D01*
X0625952Y0363579D01*
X0626216Y0364384D01*
X0626462Y0365196D01*
X0626687Y0366013D01*
X0626892Y0366836D01*
X0627077Y0367663D01*
X0627242Y0368495D01*
X0627386Y0369331D01*
X0627510Y0370169D01*
X0627613Y0371011D01*
X0627696Y0371855D01*
X0627758Y0372701D01*
X0627800Y0373547D01*
X0627820Y0374395D01*
X0627820Y0375243D01*
X0627800Y0376091D01*
X0627758Y0376937D01*
X0627696Y0377783D01*
X0627613Y0378627D01*
X0627510Y0379469D01*
X0627386Y0380307D01*
X0627242Y0381143D01*
X0627077Y0381975D01*
X0626892Y0382802D01*
X0626687Y0383625D01*
X0626462Y0384442D01*
X0626216Y0385254D01*
X0625952Y0386059D01*
X0625667Y0386858D01*
X0625363Y0387650D01*
X0625040Y0388434D01*
X0624698Y0389209D01*
X0624337Y0389977D01*
X0623957Y0390735D01*
X0623559Y0391483D01*
X0623142Y0392222D01*
X0622708Y0392950D01*
X0622256Y0393668D01*
X0621787Y0394374D01*
X0621300Y0395068D01*
X0620797Y0395751D01*
X0620277Y0396421D01*
X0619741Y0397078D01*
X0619189Y0397721D01*
X0618622Y0398351D01*
X0618039Y0398967D01*
X0617442Y0399569D01*
X0616830Y0400155D01*
X0616203Y0400727D01*
X0615563Y0401283D01*
X0614910Y0401824D01*
X0614243Y0402348D01*
X0613564Y0402855D01*
X0612873Y0403346D01*
X0612170Y0403820D01*
X0611456Y0404277D01*
X0610730Y0404716D01*
X0609994Y0405137D01*
X0609248Y0405540D01*
X0608493Y0405925D01*
X0607728Y0406291D01*
X0606954Y0406639D01*
X0606173Y0406967D01*
X0605383Y0407276D01*
X0604586Y0407566D01*
X0603783Y0407836D01*
X0602972Y0408087D01*
X0392343Y0382890D02*
X0392343Y0367142D01*
X0402185Y0341551D02*
X0402996Y0341802D01*
X0403799Y0342072D01*
X0404596Y0342362D01*
X0405386Y0342671D01*
X0406167Y0342999D01*
X0406941Y0343347D01*
X0407706Y0343713D01*
X0408461Y0344098D01*
X0409207Y0344501D01*
X0409943Y0344922D01*
X0410669Y0345361D01*
X0411383Y0345818D01*
X0412086Y0346292D01*
X0412777Y0346783D01*
X0413456Y0347290D01*
X0414123Y0347814D01*
X0414776Y0348355D01*
X0415416Y0348911D01*
X0416043Y0349483D01*
X0416655Y0350069D01*
X0417252Y0350671D01*
X0417835Y0351287D01*
X0418402Y0351917D01*
X0418954Y0352560D01*
X0419490Y0353217D01*
X0420010Y0353887D01*
X0420513Y0354570D01*
X0421000Y0355264D01*
X0421469Y0355970D01*
X0421921Y0356688D01*
X0422355Y0357416D01*
X0422772Y0358155D01*
X0423170Y0358903D01*
X0423550Y0359661D01*
X0423911Y0360429D01*
X0424253Y0361204D01*
X0424576Y0361988D01*
X0424880Y0362780D01*
X0425165Y0363579D01*
X0425429Y0364384D01*
X0425675Y0365196D01*
X0425900Y0366013D01*
X0426105Y0366836D01*
X0426290Y0367663D01*
X0426455Y0368495D01*
X0426599Y0369331D01*
X0426723Y0370169D01*
X0426826Y0371011D01*
X0426909Y0371855D01*
X0426971Y0372701D01*
X0427013Y0373547D01*
X0427033Y0374395D01*
X0427033Y0375243D01*
X0427013Y0376091D01*
X0426971Y0376937D01*
X0426909Y0377783D01*
X0426826Y0378627D01*
X0426723Y0379469D01*
X0426599Y0380307D01*
X0426455Y0381143D01*
X0426290Y0381975D01*
X0426105Y0382802D01*
X0425900Y0383625D01*
X0425675Y0384442D01*
X0425429Y0385254D01*
X0425165Y0386059D01*
X0424880Y0386858D01*
X0424576Y0387650D01*
X0424253Y0388434D01*
X0423911Y0389209D01*
X0423550Y0389977D01*
X0423170Y0390735D01*
X0422772Y0391483D01*
X0422355Y0392222D01*
X0421921Y0392950D01*
X0421469Y0393668D01*
X0421000Y0394374D01*
X0420513Y0395068D01*
X0420010Y0395751D01*
X0419490Y0396421D01*
X0418954Y0397078D01*
X0418402Y0397721D01*
X0417835Y0398351D01*
X0417252Y0398967D01*
X0416655Y0399569D01*
X0416043Y0400155D01*
X0415416Y0400727D01*
X0414776Y0401283D01*
X0414123Y0401824D01*
X0413456Y0402348D01*
X0412777Y0402855D01*
X0412086Y0403346D01*
X0411383Y0403820D01*
X0410669Y0404277D01*
X0409943Y0404716D01*
X0409207Y0405137D01*
X0408461Y0405540D01*
X0407706Y0405925D01*
X0406941Y0406291D01*
X0406167Y0406639D01*
X0405386Y0406967D01*
X0404596Y0407276D01*
X0403799Y0407566D01*
X0402996Y0407836D01*
X0402185Y0408087D01*
X0382501Y0408481D02*
X0381690Y0408230D01*
X0380887Y0407960D01*
X0380090Y0407670D01*
X0379300Y0407361D01*
X0378519Y0407033D01*
X0377745Y0406685D01*
X0376980Y0406319D01*
X0376225Y0405934D01*
X0375479Y0405531D01*
X0374743Y0405110D01*
X0374017Y0404671D01*
X0373303Y0404214D01*
X0372600Y0403740D01*
X0371909Y0403249D01*
X0371230Y0402742D01*
X0370563Y0402218D01*
X0369910Y0401677D01*
X0369270Y0401121D01*
X0368643Y0400549D01*
X0368031Y0399963D01*
X0367434Y0399361D01*
X0366851Y0398745D01*
X0366284Y0398115D01*
X0365732Y0397472D01*
X0365196Y0396815D01*
X0364676Y0396145D01*
X0364173Y0395462D01*
X0363686Y0394768D01*
X0363217Y0394062D01*
X0362765Y0393344D01*
X0362331Y0392616D01*
X0361914Y0391877D01*
X0361516Y0391129D01*
X0361136Y0390371D01*
X0360775Y0389603D01*
X0360433Y0388828D01*
X0360110Y0388044D01*
X0359806Y0387252D01*
X0359521Y0386453D01*
X0359257Y0385648D01*
X0359011Y0384836D01*
X0358786Y0384019D01*
X0358581Y0383196D01*
X0358396Y0382369D01*
X0358231Y0381537D01*
X0358087Y0380701D01*
X0357963Y0379863D01*
X0357860Y0379021D01*
X0357777Y0378177D01*
X0357715Y0377331D01*
X0357673Y0376485D01*
X0357653Y0375637D01*
X0357653Y0374789D01*
X0357673Y0373941D01*
X0357715Y0373095D01*
X0357777Y0372249D01*
X0357860Y0371405D01*
X0357963Y0370563D01*
X0358087Y0369725D01*
X0358231Y0368889D01*
X0358396Y0368057D01*
X0358581Y0367230D01*
X0358786Y0366407D01*
X0359011Y0365590D01*
X0359257Y0364778D01*
X0359521Y0363973D01*
X0359806Y0363174D01*
X0360110Y0362382D01*
X0360433Y0361598D01*
X0360775Y0360823D01*
X0361136Y0360055D01*
X0361516Y0359297D01*
X0361914Y0358549D01*
X0362331Y0357810D01*
X0362765Y0357082D01*
X0363217Y0356364D01*
X0363686Y0355658D01*
X0364173Y0354964D01*
X0364676Y0354281D01*
X0365196Y0353611D01*
X0365732Y0352954D01*
X0366284Y0352311D01*
X0366851Y0351681D01*
X0367434Y0351065D01*
X0368031Y0350463D01*
X0368643Y0349877D01*
X0369270Y0349305D01*
X0369910Y0348749D01*
X0370563Y0348208D01*
X0371230Y0347684D01*
X0371909Y0347177D01*
X0372600Y0346686D01*
X0373303Y0346212D01*
X0374017Y0345755D01*
X0374743Y0345316D01*
X0375479Y0344895D01*
X0376225Y0344492D01*
X0376980Y0344107D01*
X0377745Y0343741D01*
X0378519Y0343393D01*
X0379300Y0343065D01*
X0380090Y0342756D01*
X0380887Y0342466D01*
X0381690Y0342196D01*
X0382501Y0341945D01*
X0191555Y0367142D02*
X0191555Y0382890D01*
X0181713Y0408481D02*
X0180902Y0408230D01*
X0180099Y0407960D01*
X0179302Y0407670D01*
X0178512Y0407361D01*
X0177731Y0407033D01*
X0176957Y0406685D01*
X0176192Y0406319D01*
X0175437Y0405934D01*
X0174691Y0405531D01*
X0173955Y0405110D01*
X0173229Y0404671D01*
X0172515Y0404214D01*
X0171812Y0403740D01*
X0171121Y0403249D01*
X0170442Y0402742D01*
X0169775Y0402218D01*
X0169122Y0401677D01*
X0168482Y0401121D01*
X0167855Y0400549D01*
X0167243Y0399963D01*
X0166646Y0399361D01*
X0166063Y0398745D01*
X0165496Y0398115D01*
X0164944Y0397472D01*
X0164408Y0396815D01*
X0163888Y0396145D01*
X0163385Y0395462D01*
X0162898Y0394768D01*
X0162429Y0394062D01*
X0161977Y0393344D01*
X0161543Y0392616D01*
X0161126Y0391877D01*
X0160728Y0391129D01*
X0160348Y0390371D01*
X0159987Y0389603D01*
X0159645Y0388828D01*
X0159322Y0388044D01*
X0159018Y0387252D01*
X0158733Y0386453D01*
X0158469Y0385648D01*
X0158223Y0384836D01*
X0157998Y0384019D01*
X0157793Y0383196D01*
X0157608Y0382369D01*
X0157443Y0381537D01*
X0157299Y0380701D01*
X0157175Y0379863D01*
X0157072Y0379021D01*
X0156989Y0378177D01*
X0156927Y0377331D01*
X0156885Y0376485D01*
X0156865Y0375637D01*
X0156865Y0374789D01*
X0156885Y0373941D01*
X0156927Y0373095D01*
X0156989Y0372249D01*
X0157072Y0371405D01*
X0157175Y0370563D01*
X0157299Y0369725D01*
X0157443Y0368889D01*
X0157608Y0368057D01*
X0157793Y0367230D01*
X0157998Y0366407D01*
X0158223Y0365590D01*
X0158469Y0364778D01*
X0158733Y0363973D01*
X0159018Y0363174D01*
X0159322Y0362382D01*
X0159645Y0361598D01*
X0159987Y0360823D01*
X0160348Y0360055D01*
X0160728Y0359297D01*
X0161126Y0358549D01*
X0161543Y0357810D01*
X0161977Y0357082D01*
X0162429Y0356364D01*
X0162898Y0355658D01*
X0163385Y0354964D01*
X0163888Y0354281D01*
X0164408Y0353611D01*
X0164944Y0352954D01*
X0165496Y0352311D01*
X0166063Y0351681D01*
X0166646Y0351065D01*
X0167243Y0350463D01*
X0167855Y0349877D01*
X0168482Y0349305D01*
X0169122Y0348749D01*
X0169775Y0348208D01*
X0170442Y0347684D01*
X0171121Y0347177D01*
X0171812Y0346686D01*
X0172515Y0346212D01*
X0173229Y0345755D01*
X0173955Y0345316D01*
X0174691Y0344895D01*
X0175437Y0344492D01*
X0176192Y0344107D01*
X0176957Y0343741D01*
X0177731Y0343393D01*
X0178512Y0343065D01*
X0179302Y0342756D01*
X0180099Y0342466D01*
X0180902Y0342196D01*
X0181713Y0341945D01*
X0201397Y0341551D02*
X0202208Y0341802D01*
X0203011Y0342072D01*
X0203808Y0342362D01*
X0204598Y0342671D01*
X0205379Y0342999D01*
X0206153Y0343347D01*
X0206918Y0343713D01*
X0207673Y0344098D01*
X0208419Y0344501D01*
X0209155Y0344922D01*
X0209881Y0345361D01*
X0210595Y0345818D01*
X0211298Y0346292D01*
X0211989Y0346783D01*
X0212668Y0347290D01*
X0213335Y0347814D01*
X0213988Y0348355D01*
X0214628Y0348911D01*
X0215255Y0349483D01*
X0215867Y0350069D01*
X0216464Y0350671D01*
X0217047Y0351287D01*
X0217614Y0351917D01*
X0218166Y0352560D01*
X0218702Y0353217D01*
X0219222Y0353887D01*
X0219725Y0354570D01*
X0220212Y0355264D01*
X0220681Y0355970D01*
X0221133Y0356688D01*
X0221567Y0357416D01*
X0221984Y0358155D01*
X0222382Y0358903D01*
X0222762Y0359661D01*
X0223123Y0360429D01*
X0223465Y0361204D01*
X0223788Y0361988D01*
X0224092Y0362780D01*
X0224377Y0363579D01*
X0224641Y0364384D01*
X0224887Y0365196D01*
X0225112Y0366013D01*
X0225317Y0366836D01*
X0225502Y0367663D01*
X0225667Y0368495D01*
X0225811Y0369331D01*
X0225935Y0370169D01*
X0226038Y0371011D01*
X0226121Y0371855D01*
X0226183Y0372701D01*
X0226225Y0373547D01*
X0226245Y0374395D01*
X0226245Y0375243D01*
X0226225Y0376091D01*
X0226183Y0376937D01*
X0226121Y0377783D01*
X0226038Y0378627D01*
X0225935Y0379469D01*
X0225811Y0380307D01*
X0225667Y0381143D01*
X0225502Y0381975D01*
X0225317Y0382802D01*
X0225112Y0383625D01*
X0224887Y0384442D01*
X0224641Y0385254D01*
X0224377Y0386059D01*
X0224092Y0386858D01*
X0223788Y0387650D01*
X0223465Y0388434D01*
X0223123Y0389209D01*
X0222762Y0389977D01*
X0222382Y0390735D01*
X0221984Y0391483D01*
X0221567Y0392222D01*
X0221133Y0392950D01*
X0220681Y0393668D01*
X0220212Y0394374D01*
X0219725Y0395068D01*
X0219222Y0395751D01*
X0218702Y0396421D01*
X0218166Y0397078D01*
X0217614Y0397721D01*
X0217047Y0398351D01*
X0216464Y0398967D01*
X0215867Y0399569D01*
X0215255Y0400155D01*
X0214628Y0400727D01*
X0213988Y0401283D01*
X0213335Y0401824D01*
X0212668Y0402348D01*
X0211989Y0402855D01*
X0211298Y0403346D01*
X0210595Y0403820D01*
X0209881Y0404277D01*
X0209155Y0404716D01*
X0208419Y0405137D01*
X0207673Y0405540D01*
X0206918Y0405925D01*
X0206153Y0406291D01*
X0205379Y0406639D01*
X0204598Y0406967D01*
X0203808Y0407276D01*
X0203011Y0407566D01*
X0202208Y0407836D01*
X0201397Y0408087D01*
M02*
