G75*
%MOIN*%
%OFA0B0*%
%FSLAX25Y25*%
%IPPOS*%
%LPD*%
%AMOC8*
5,1,8,0,0,1.08239X$1,22.5*
%
%ADD10C,0.00004*%
%ADD11C,0.00600*%
%ADD12C,0.00300*%
%ADD13C,0.01600*%
%ADD14R,0.15090X0.00084*%
%ADD15R,0.15090X0.00083*%
%ADD16R,0.05080X0.00083*%
%ADD17R,0.05080X0.00084*%
%ADD18R,0.05000X0.00083*%
%ADD19R,0.05000X0.00084*%
%ADD20R,0.10000X0.00084*%
%ADD21R,0.10000X0.00083*%
%ADD22R,0.35170X0.00084*%
%ADD23R,0.35170X0.00083*%
%ADD24R,0.05090X0.00083*%
%ADD25R,0.05090X0.00084*%
%ADD26R,0.10090X0.00083*%
%ADD27R,0.10080X0.00083*%
%ADD28R,0.10090X0.00084*%
%ADD29R,0.10080X0.00084*%
%ADD30R,0.15170X0.00083*%
%ADD31R,0.15170X0.00084*%
%ADD32R,0.15080X0.00084*%
%ADD33R,0.15080X0.00083*%
D10*
X0008874Y0037220D02*
X0037220Y0008874D01*
X0197063Y0008874D01*
X0201787Y0013598D01*
X0201787Y0212811D01*
X0197063Y0217535D01*
X0013598Y0217535D01*
X0008874Y0212811D01*
X0008874Y0037220D01*
D11*
X0095703Y0154843D02*
X0095703Y0158046D01*
X0096771Y0159114D01*
X0097839Y0158046D01*
X0097839Y0154843D01*
X0099974Y0154843D02*
X0099974Y0159114D01*
X0098906Y0159114D01*
X0097839Y0158046D01*
X0102149Y0158046D02*
X0102149Y0155911D01*
X0103216Y0154843D01*
X0105352Y0154843D01*
X0106419Y0155911D01*
X0106419Y0158046D01*
X0105352Y0159114D01*
X0103216Y0159114D01*
X0102149Y0158046D01*
X0108594Y0159114D02*
X0111797Y0159114D01*
X0112865Y0158046D01*
X0112865Y0155911D01*
X0111797Y0154843D01*
X0108594Y0154843D01*
X0115020Y0154843D02*
X0116087Y0154843D01*
X0116087Y0155911D01*
X0115020Y0155911D01*
X0115020Y0154843D01*
X0118263Y0154843D02*
X0121465Y0154843D01*
X0122533Y0155911D01*
X0122533Y0158046D01*
X0121465Y0159114D01*
X0118263Y0159114D01*
X0118263Y0161249D02*
X0118263Y0154843D01*
X0124695Y0154843D02*
X0126830Y0154843D01*
X0125762Y0154843D02*
X0125762Y0161249D01*
X0126830Y0161249D01*
X0129005Y0158046D02*
X0130073Y0159114D01*
X0132208Y0159114D01*
X0133275Y0158046D01*
X0133275Y0155911D01*
X0132208Y0154843D01*
X0130073Y0154843D01*
X0129005Y0156978D02*
X0133275Y0156978D01*
X0135437Y0154843D02*
X0137572Y0154843D01*
X0136505Y0154843D02*
X0136505Y0159114D01*
X0137572Y0159114D01*
X0136505Y0161249D02*
X0136505Y0162316D01*
X0137572Y0165343D02*
X0137572Y0171749D01*
X0136505Y0169614D02*
X0134370Y0169614D01*
X0133302Y0168546D01*
X0133302Y0165343D01*
X0131127Y0165343D02*
X0128992Y0165343D01*
X0130059Y0165343D02*
X0130059Y0169614D01*
X0131127Y0169614D01*
X0130059Y0171749D02*
X0130059Y0172816D01*
X0130059Y0175843D02*
X0130059Y0180114D01*
X0131127Y0180114D01*
X0130059Y0182249D02*
X0130059Y0183316D01*
X0126830Y0179046D02*
X0125762Y0180114D01*
X0123627Y0180114D01*
X0122560Y0179046D01*
X0122560Y0177978D01*
X0126830Y0177978D01*
X0126830Y0176911D02*
X0126830Y0179046D01*
X0126830Y0176911D02*
X0125762Y0175843D01*
X0123627Y0175843D01*
X0120384Y0175843D02*
X0118249Y0175843D01*
X0119317Y0175843D02*
X0119317Y0182249D01*
X0120384Y0182249D01*
X0116087Y0179046D02*
X0116087Y0176911D01*
X0115020Y0175843D01*
X0111817Y0175843D01*
X0111817Y0182249D01*
X0111817Y0180114D02*
X0115020Y0180114D01*
X0116087Y0179046D01*
X0119317Y0171749D02*
X0119317Y0165343D01*
X0120384Y0165343D02*
X0118249Y0165343D01*
X0116087Y0166411D02*
X0116087Y0168546D01*
X0115020Y0169614D01*
X0111817Y0169614D01*
X0111817Y0171749D02*
X0111817Y0165343D01*
X0115020Y0165343D01*
X0116087Y0166411D01*
X0119317Y0171749D02*
X0120384Y0171749D01*
X0122560Y0168546D02*
X0122560Y0167478D01*
X0126830Y0167478D01*
X0126830Y0166411D02*
X0126830Y0168546D01*
X0125762Y0169614D01*
X0123627Y0169614D01*
X0122560Y0168546D01*
X0123627Y0165343D02*
X0125762Y0165343D01*
X0126830Y0166411D01*
X0129005Y0158046D02*
X0129005Y0156978D01*
X0139748Y0158046D02*
X0139748Y0154843D01*
X0139748Y0158046D02*
X0140815Y0159114D01*
X0142950Y0159114D01*
X0144018Y0158046D01*
X0146193Y0156978D02*
X0146193Y0155911D01*
X0147261Y0154843D01*
X0149396Y0154843D01*
X0150463Y0155911D01*
X0149396Y0158046D02*
X0147261Y0158046D01*
X0146193Y0156978D01*
X0144018Y0154843D02*
X0144018Y0161249D01*
X0146193Y0160181D02*
X0147261Y0161249D01*
X0149396Y0161249D01*
X0150463Y0160181D01*
X0150463Y0159114D01*
X0149396Y0158046D01*
X0152639Y0158046D02*
X0152639Y0156978D01*
X0156909Y0156978D01*
X0156909Y0155911D02*
X0156909Y0158046D01*
X0155841Y0159114D01*
X0153706Y0159114D01*
X0152639Y0158046D01*
X0153706Y0154843D02*
X0155841Y0154843D01*
X0156909Y0155911D01*
X0159084Y0154843D02*
X0159084Y0158046D01*
X0160152Y0159114D01*
X0161219Y0158046D01*
X0161219Y0154843D01*
X0163354Y0154843D02*
X0163354Y0159114D01*
X0162287Y0159114D01*
X0161219Y0158046D01*
X0165530Y0158046D02*
X0165530Y0155911D01*
X0166597Y0154843D01*
X0168732Y0154843D01*
X0169800Y0155911D01*
X0169800Y0158046D01*
X0168732Y0159114D01*
X0166597Y0159114D01*
X0165530Y0158046D01*
X0171975Y0159114D02*
X0175178Y0159114D01*
X0176245Y0158046D01*
X0175178Y0156978D01*
X0173043Y0156978D01*
X0171975Y0155911D01*
X0173043Y0154843D01*
X0176245Y0154843D01*
X0178421Y0156978D02*
X0182691Y0156978D01*
X0182691Y0155911D02*
X0182691Y0158046D01*
X0181623Y0159114D01*
X0179488Y0159114D01*
X0178421Y0158046D01*
X0178421Y0156978D01*
X0179488Y0154843D02*
X0181623Y0154843D01*
X0182691Y0155911D01*
X0184866Y0155911D02*
X0184866Y0159114D01*
X0184866Y0155911D02*
X0185934Y0154843D01*
X0187001Y0155911D01*
X0188069Y0154843D01*
X0189136Y0155911D01*
X0189136Y0159114D01*
X0191312Y0159114D02*
X0191312Y0154843D01*
X0191312Y0158046D02*
X0195582Y0158046D01*
X0195582Y0159114D02*
X0195582Y0154843D01*
X0195582Y0159114D02*
X0193447Y0161249D01*
X0191312Y0159114D01*
X0191312Y0165343D02*
X0191312Y0169614D01*
X0193447Y0171749D01*
X0195582Y0169614D01*
X0195582Y0165343D01*
X0195582Y0168546D02*
X0191312Y0168546D01*
X0189136Y0169614D02*
X0189136Y0166411D01*
X0188069Y0165343D01*
X0187001Y0166411D01*
X0185934Y0165343D01*
X0184866Y0166411D01*
X0184866Y0169614D01*
X0182691Y0168546D02*
X0182691Y0166411D01*
X0181623Y0165343D01*
X0179488Y0165343D01*
X0178421Y0167478D02*
X0178421Y0168546D01*
X0179488Y0169614D01*
X0181623Y0169614D01*
X0182691Y0168546D01*
X0182691Y0167478D02*
X0178421Y0167478D01*
X0176245Y0168546D02*
X0175178Y0169614D01*
X0171975Y0169614D01*
X0173043Y0167478D02*
X0171975Y0166411D01*
X0173043Y0165343D01*
X0176245Y0165343D01*
X0175178Y0167478D02*
X0176245Y0168546D01*
X0175178Y0167478D02*
X0173043Y0167478D01*
X0169800Y0166411D02*
X0168732Y0165343D01*
X0166597Y0165343D01*
X0165530Y0166411D01*
X0165530Y0168546D01*
X0166597Y0169614D01*
X0168732Y0169614D01*
X0169800Y0168546D01*
X0169800Y0166411D01*
X0163354Y0165343D02*
X0163354Y0169614D01*
X0162287Y0169614D01*
X0161219Y0168546D01*
X0160152Y0169614D01*
X0159084Y0168546D01*
X0159084Y0165343D01*
X0161219Y0165343D02*
X0161219Y0168546D01*
X0156909Y0168546D02*
X0156909Y0166411D01*
X0155841Y0165343D01*
X0153706Y0165343D01*
X0152639Y0167478D02*
X0156909Y0167478D01*
X0156909Y0168546D02*
X0155841Y0169614D01*
X0153706Y0169614D01*
X0152639Y0168546D01*
X0152639Y0167478D01*
X0153706Y0175843D02*
X0155841Y0175843D01*
X0156909Y0176911D01*
X0156909Y0179046D01*
X0155841Y0180114D01*
X0153706Y0180114D01*
X0152639Y0179046D01*
X0152639Y0177978D01*
X0156909Y0177978D01*
X0159084Y0179046D02*
X0159084Y0175843D01*
X0161219Y0175843D02*
X0161219Y0179046D01*
X0160152Y0180114D01*
X0159084Y0179046D01*
X0161219Y0179046D02*
X0162287Y0180114D01*
X0163354Y0180114D01*
X0163354Y0175843D01*
X0165530Y0176911D02*
X0165530Y0179046D01*
X0166597Y0180114D01*
X0168732Y0180114D01*
X0169800Y0179046D01*
X0169800Y0176911D01*
X0168732Y0175843D01*
X0166597Y0175843D01*
X0165530Y0176911D01*
X0171975Y0176911D02*
X0173043Y0177978D01*
X0175178Y0177978D01*
X0176245Y0179046D01*
X0175178Y0180114D01*
X0171975Y0180114D01*
X0171975Y0176911D02*
X0173043Y0175843D01*
X0176245Y0175843D01*
X0178421Y0177978D02*
X0182691Y0177978D01*
X0182691Y0176911D02*
X0182691Y0179046D01*
X0181623Y0180114D01*
X0179488Y0180114D01*
X0178421Y0179046D01*
X0178421Y0177978D01*
X0179488Y0175843D02*
X0181623Y0175843D01*
X0182691Y0176911D01*
X0184866Y0176911D02*
X0184866Y0180114D01*
X0184866Y0176911D02*
X0185934Y0175843D01*
X0187001Y0176911D01*
X0188069Y0175843D01*
X0189136Y0176911D01*
X0189136Y0180114D01*
X0191312Y0180114D02*
X0191312Y0175843D01*
X0191312Y0179046D02*
X0195582Y0179046D01*
X0195582Y0180114D02*
X0193447Y0182249D01*
X0191312Y0180114D01*
X0195582Y0180114D02*
X0195582Y0175843D01*
X0144018Y0176911D02*
X0142950Y0175843D01*
X0140815Y0175843D01*
X0139748Y0176911D01*
X0139748Y0177978D01*
X0140815Y0179046D01*
X0142950Y0179046D01*
X0144018Y0180114D01*
X0144018Y0181181D01*
X0142950Y0182249D01*
X0140815Y0182249D01*
X0139748Y0181181D01*
X0137572Y0182249D02*
X0137572Y0175843D01*
X0137572Y0179046D02*
X0136505Y0180114D01*
X0134370Y0180114D01*
X0133302Y0179046D01*
X0133302Y0175843D01*
X0131127Y0175843D02*
X0128992Y0175843D01*
X0136505Y0169614D02*
X0137572Y0168546D01*
X0139748Y0167478D02*
X0139748Y0166411D01*
X0140815Y0165343D01*
X0142950Y0165343D01*
X0144018Y0166411D01*
X0142950Y0168546D02*
X0140815Y0168546D01*
X0139748Y0167478D01*
X0142950Y0168546D02*
X0144018Y0169614D01*
X0144018Y0170681D01*
X0142950Y0171749D01*
X0140815Y0171749D01*
X0139748Y0170681D01*
X0103196Y0171749D02*
X0103196Y0166411D01*
X0102129Y0165343D01*
X0099994Y0165343D01*
X0098926Y0166411D01*
X0098926Y0171749D01*
X0096751Y0170681D02*
X0096751Y0166411D01*
X0095683Y0165343D01*
X0093548Y0165343D01*
X0092481Y0166411D01*
X0092481Y0168546D01*
X0094616Y0168546D01*
X0096751Y0170681D02*
X0095683Y0171749D01*
X0093548Y0171749D01*
X0092481Y0170681D01*
X0090312Y0175843D02*
X0088177Y0175843D01*
X0087109Y0176911D01*
X0087109Y0179046D01*
X0088177Y0180114D01*
X0090312Y0180114D01*
X0091380Y0179046D01*
X0091380Y0176911D01*
X0090312Y0175843D01*
X0093548Y0180114D02*
X0094616Y0180114D01*
X0096751Y0177978D01*
X0096751Y0175843D02*
X0096751Y0180114D01*
X0098926Y0181181D02*
X0098926Y0179046D01*
X0099994Y0177978D01*
X0103196Y0177978D01*
X0103196Y0175843D02*
X0103196Y0182249D01*
X0099994Y0182249D01*
X0098926Y0181181D01*
X0084934Y0180114D02*
X0082799Y0180114D01*
X0083867Y0181181D02*
X0083867Y0176911D01*
X0082799Y0175843D01*
X0080637Y0176911D02*
X0079570Y0175843D01*
X0077434Y0175843D01*
X0076367Y0176911D01*
X0076367Y0179046D01*
X0077434Y0180114D01*
X0079570Y0180114D01*
X0080637Y0179046D01*
X0080637Y0176911D01*
X0074192Y0180114D02*
X0072057Y0180114D01*
X0073124Y0181181D02*
X0073124Y0176911D01*
X0072057Y0175843D01*
X0069895Y0176911D02*
X0068827Y0175843D01*
X0065624Y0175843D01*
X0065624Y0174776D02*
X0066692Y0173708D01*
X0067760Y0173708D01*
X0065624Y0174776D02*
X0065624Y0180114D01*
X0063449Y0180114D02*
X0060246Y0180114D01*
X0059179Y0179046D01*
X0059179Y0176911D01*
X0060246Y0175843D01*
X0063449Y0175843D01*
X0063449Y0173708D02*
X0063449Y0180114D01*
X0069895Y0180114D02*
X0069895Y0176911D01*
X0057004Y0176911D02*
X0057004Y0179046D01*
X0055936Y0180114D01*
X0053801Y0180114D01*
X0052733Y0179046D01*
X0052733Y0177978D01*
X0057004Y0177978D01*
X0057004Y0176911D02*
X0055936Y0175843D01*
X0053801Y0175843D01*
X0044113Y0177978D02*
X0041978Y0175843D01*
X0039842Y0177978D01*
X0039842Y0182249D01*
X0037667Y0181181D02*
X0036600Y0182249D01*
X0034464Y0182249D01*
X0033397Y0181181D01*
X0037667Y0176911D01*
X0036600Y0175843D01*
X0034464Y0175843D01*
X0033397Y0176911D01*
X0033397Y0181181D01*
X0037667Y0181181D02*
X0037667Y0176911D01*
X0031222Y0176911D02*
X0031222Y0175843D01*
X0030154Y0175843D01*
X0030154Y0176911D01*
X0031222Y0176911D01*
X0027999Y0176911D02*
X0026931Y0175843D01*
X0024796Y0175843D01*
X0023729Y0176911D01*
X0023729Y0179046D01*
X0024796Y0180114D01*
X0025864Y0180114D01*
X0027999Y0179046D01*
X0027999Y0182249D01*
X0023729Y0182249D01*
X0021553Y0181181D02*
X0020486Y0182249D01*
X0018351Y0182249D01*
X0017283Y0181181D01*
X0021553Y0176911D01*
X0020486Y0175843D01*
X0018351Y0175843D01*
X0017283Y0176911D01*
X0017283Y0181181D01*
X0021553Y0181181D02*
X0021553Y0176911D01*
X0044113Y0177978D02*
X0044113Y0182249D01*
D12*
X0050858Y0147486D02*
X0050858Y0146869D01*
X0050858Y0145635D02*
X0050858Y0143166D01*
X0051475Y0143166D02*
X0050241Y0143166D01*
X0049020Y0143783D02*
X0048403Y0143166D01*
X0046551Y0143166D01*
X0045337Y0143783D02*
X0045337Y0145017D01*
X0044720Y0145635D01*
X0043485Y0145635D01*
X0042868Y0145017D01*
X0042868Y0144400D01*
X0045337Y0144400D01*
X0045337Y0143783D02*
X0044720Y0143166D01*
X0043485Y0143166D01*
X0041654Y0143166D02*
X0041654Y0145635D01*
X0039802Y0145635D01*
X0039185Y0145017D01*
X0039185Y0143166D01*
X0037971Y0143166D02*
X0036119Y0143166D01*
X0035502Y0143783D01*
X0036119Y0144400D01*
X0037353Y0144400D01*
X0037971Y0145017D01*
X0037353Y0145635D01*
X0035502Y0145635D01*
X0034287Y0145017D02*
X0033670Y0145635D01*
X0032436Y0145635D01*
X0031819Y0145017D01*
X0031819Y0144400D01*
X0034287Y0144400D01*
X0034287Y0143783D02*
X0034287Y0145017D01*
X0034287Y0143783D02*
X0033670Y0143166D01*
X0032436Y0143166D01*
X0031205Y0134869D02*
X0033674Y0131166D01*
X0034888Y0131783D02*
X0035505Y0131166D01*
X0036740Y0131166D01*
X0037357Y0131783D01*
X0038581Y0131783D02*
X0038581Y0131166D01*
X0039198Y0131166D01*
X0039198Y0131783D01*
X0038581Y0131783D01*
X0037357Y0133017D02*
X0036122Y0133635D01*
X0035505Y0133635D01*
X0034888Y0133017D01*
X0034888Y0131783D01*
X0037357Y0133017D02*
X0037357Y0134869D01*
X0034888Y0134869D01*
X0040413Y0134252D02*
X0040413Y0131783D01*
X0041030Y0131166D01*
X0042264Y0131166D01*
X0042881Y0131783D01*
X0040413Y0134252D01*
X0041030Y0134869D01*
X0042264Y0134869D01*
X0042881Y0134252D01*
X0042881Y0131783D01*
X0044096Y0133017D02*
X0046565Y0133017D01*
X0047779Y0132400D02*
X0047779Y0131783D01*
X0048396Y0131166D01*
X0050248Y0131166D01*
X0050248Y0134869D01*
X0048396Y0134869D01*
X0047779Y0134252D01*
X0047779Y0133635D01*
X0048396Y0133017D01*
X0050248Y0133017D01*
X0051462Y0131783D02*
X0052079Y0131166D01*
X0053314Y0131166D01*
X0053931Y0131783D01*
X0053931Y0134252D01*
X0053314Y0134869D01*
X0052079Y0134869D01*
X0051462Y0134252D01*
X0048396Y0133017D02*
X0047779Y0132400D01*
X0050848Y0127635D02*
X0052700Y0127635D01*
X0053317Y0127017D01*
X0053317Y0125783D01*
X0052700Y0125166D01*
X0050848Y0125166D01*
X0054531Y0128252D02*
X0057000Y0125783D01*
X0057000Y0125166D01*
X0058214Y0125783D02*
X0058832Y0125166D01*
X0060066Y0125166D01*
X0060683Y0125783D01*
X0060683Y0126400D01*
X0060066Y0127017D01*
X0058832Y0127017D01*
X0058214Y0126400D01*
X0058214Y0125783D01*
X0058832Y0127017D02*
X0058214Y0127635D01*
X0058214Y0128252D01*
X0058832Y0128869D01*
X0060066Y0128869D01*
X0060683Y0128252D01*
X0060683Y0127635D01*
X0060066Y0127017D01*
X0061898Y0126400D02*
X0062515Y0127017D01*
X0064366Y0127017D01*
X0064366Y0125783D01*
X0063749Y0125166D01*
X0062515Y0125166D01*
X0061898Y0125783D01*
X0061898Y0126400D01*
X0063132Y0128252D02*
X0064366Y0127017D01*
X0065581Y0127017D02*
X0065581Y0125166D01*
X0067432Y0125166D01*
X0068050Y0125783D01*
X0067432Y0126400D01*
X0065581Y0126400D01*
X0065581Y0127017D02*
X0066198Y0127635D01*
X0067432Y0127635D01*
X0069264Y0127635D02*
X0069881Y0127017D01*
X0069264Y0126400D01*
X0069264Y0125783D01*
X0069881Y0125166D01*
X0071116Y0125166D01*
X0071733Y0125783D01*
X0072947Y0126400D02*
X0074799Y0126400D01*
X0075416Y0125783D01*
X0074799Y0125166D01*
X0072947Y0125166D01*
X0072947Y0127017D01*
X0073564Y0127635D01*
X0074799Y0127635D01*
X0076630Y0128869D02*
X0077865Y0128252D01*
X0079099Y0127017D01*
X0077247Y0127017D01*
X0076630Y0126400D01*
X0076630Y0125783D01*
X0077247Y0125166D01*
X0078482Y0125166D01*
X0079099Y0125783D01*
X0079099Y0127017D01*
X0080313Y0126400D02*
X0080313Y0125783D01*
X0080931Y0125166D01*
X0082165Y0125166D01*
X0082782Y0125783D01*
X0082782Y0126400D01*
X0082165Y0127017D01*
X0080931Y0127017D01*
X0080313Y0126400D01*
X0080931Y0127017D02*
X0080313Y0127635D01*
X0080313Y0128252D01*
X0080931Y0128869D01*
X0082165Y0128869D01*
X0082782Y0128252D01*
X0082782Y0127635D01*
X0082165Y0127017D01*
X0083996Y0128252D02*
X0086465Y0125783D01*
X0086465Y0125166D01*
X0087680Y0125783D02*
X0088297Y0125166D01*
X0089531Y0125166D01*
X0090148Y0125783D01*
X0091363Y0125783D02*
X0091363Y0127017D01*
X0091980Y0127635D01*
X0093832Y0127635D01*
X0093832Y0128869D02*
X0093832Y0125166D01*
X0091980Y0125166D01*
X0091363Y0125783D01*
X0088914Y0127017D02*
X0088297Y0127017D01*
X0087680Y0126400D01*
X0087680Y0125783D01*
X0088297Y0127017D02*
X0087680Y0127635D01*
X0087680Y0128252D01*
X0088297Y0128869D01*
X0089531Y0128869D01*
X0090148Y0128252D01*
X0090756Y0131166D02*
X0090756Y0133017D01*
X0090138Y0133635D01*
X0089521Y0133017D01*
X0089521Y0131166D01*
X0088307Y0131783D02*
X0088307Y0133017D01*
X0087690Y0133635D01*
X0086455Y0133635D01*
X0085838Y0133017D01*
X0085838Y0132400D01*
X0088307Y0132400D01*
X0088307Y0131783D02*
X0087690Y0131166D01*
X0086455Y0131166D01*
X0086465Y0128869D02*
X0083996Y0128869D01*
X0083996Y0128252D01*
X0080941Y0131783D02*
X0080323Y0131166D01*
X0079089Y0131166D01*
X0078472Y0131783D01*
X0078472Y0132400D01*
X0079089Y0133017D01*
X0080323Y0133017D01*
X0080941Y0133635D01*
X0080941Y0134252D01*
X0080323Y0134869D01*
X0079089Y0134869D01*
X0078472Y0134252D01*
X0077257Y0134869D02*
X0077257Y0131166D01*
X0077257Y0133017D02*
X0076640Y0133635D01*
X0075406Y0133635D01*
X0074789Y0133017D01*
X0074789Y0131166D01*
X0073574Y0131166D02*
X0072340Y0131166D01*
X0072957Y0131166D02*
X0072957Y0133635D01*
X0073574Y0133635D01*
X0072957Y0134869D02*
X0072957Y0135486D01*
X0070502Y0133635D02*
X0071119Y0133017D01*
X0071119Y0131783D01*
X0070502Y0131166D01*
X0069267Y0131166D01*
X0068650Y0132400D02*
X0071119Y0132400D01*
X0070502Y0133635D02*
X0069267Y0133635D01*
X0068650Y0133017D01*
X0068650Y0132400D01*
X0067436Y0131166D02*
X0066201Y0131166D01*
X0066819Y0131166D02*
X0066819Y0134869D01*
X0067436Y0134869D01*
X0064980Y0133017D02*
X0064363Y0133635D01*
X0062512Y0133635D01*
X0062512Y0134869D02*
X0062512Y0131166D01*
X0064363Y0131166D01*
X0064980Y0131783D01*
X0064980Y0133017D01*
X0061297Y0133017D02*
X0058828Y0133017D01*
X0057614Y0132400D02*
X0055762Y0132400D01*
X0055145Y0133017D01*
X0055145Y0134252D01*
X0055762Y0134869D01*
X0057614Y0134869D01*
X0057614Y0131166D01*
X0057000Y0128869D02*
X0054531Y0128869D01*
X0054531Y0128252D01*
X0061898Y0128869D02*
X0063132Y0128252D01*
X0069264Y0128252D02*
X0069264Y0127635D01*
X0069264Y0128252D02*
X0069881Y0128869D01*
X0071116Y0128869D01*
X0071733Y0128252D01*
X0070498Y0127017D02*
X0069881Y0127017D01*
X0082155Y0133017D02*
X0084624Y0133017D01*
X0090756Y0133017D02*
X0091373Y0133635D01*
X0091990Y0133635D01*
X0091990Y0131166D01*
X0093204Y0131783D02*
X0093204Y0133017D01*
X0093822Y0133635D01*
X0095056Y0133635D01*
X0095673Y0133017D01*
X0095673Y0131783D01*
X0095056Y0131166D01*
X0093822Y0131166D01*
X0093204Y0131783D01*
X0096888Y0131783D02*
X0097505Y0132400D01*
X0098739Y0132400D01*
X0099356Y0133017D01*
X0098739Y0133635D01*
X0096888Y0133635D01*
X0096888Y0131783D02*
X0097505Y0131166D01*
X0099356Y0131166D01*
X0100571Y0132400D02*
X0103039Y0132400D01*
X0103039Y0131783D02*
X0103039Y0133017D01*
X0102422Y0133635D01*
X0101188Y0133635D01*
X0100571Y0133017D01*
X0100571Y0132400D01*
X0101188Y0131166D02*
X0102422Y0131166D01*
X0103039Y0131783D01*
X0104254Y0131783D02*
X0104871Y0131166D01*
X0105488Y0131783D01*
X0106105Y0131166D01*
X0106723Y0131783D01*
X0106723Y0133635D01*
X0107937Y0133635D02*
X0107937Y0131166D01*
X0107937Y0133017D02*
X0110406Y0133017D01*
X0110406Y0133635D02*
X0109171Y0134869D01*
X0107937Y0133635D01*
X0110406Y0133635D02*
X0110406Y0131166D01*
X0110396Y0128869D02*
X0112247Y0127017D01*
X0109779Y0127017D01*
X0108564Y0126400D02*
X0107947Y0127017D01*
X0106713Y0127017D01*
X0106095Y0126400D01*
X0106095Y0125783D01*
X0106713Y0125166D01*
X0107947Y0125166D01*
X0108564Y0125783D01*
X0108564Y0126400D01*
X0107947Y0127017D02*
X0108564Y0127635D01*
X0108564Y0128252D01*
X0107947Y0128869D01*
X0106713Y0128869D01*
X0106095Y0128252D01*
X0106095Y0127635D01*
X0106713Y0127017D01*
X0104881Y0125783D02*
X0102412Y0128252D01*
X0102412Y0125783D01*
X0103029Y0125166D01*
X0104264Y0125166D01*
X0104881Y0125783D01*
X0104881Y0128252D01*
X0104264Y0128869D01*
X0103029Y0128869D01*
X0102412Y0128252D01*
X0101198Y0127017D02*
X0100581Y0127635D01*
X0098729Y0127635D01*
X0098729Y0128869D02*
X0098729Y0125166D01*
X0100581Y0125166D01*
X0101198Y0125783D01*
X0101198Y0127017D01*
X0097515Y0125783D02*
X0097515Y0125166D01*
X0097515Y0125783D02*
X0095046Y0128252D01*
X0095046Y0128869D01*
X0097515Y0128869D01*
X0104254Y0131783D02*
X0104254Y0133635D01*
X0105488Y0137166D02*
X0105488Y0140869D01*
X0104254Y0140869D02*
X0106723Y0140869D01*
X0107944Y0140869D02*
X0109178Y0140869D01*
X0108561Y0140869D02*
X0108561Y0137166D01*
X0109178Y0137166D02*
X0107944Y0137166D01*
X0110392Y0137166D02*
X0110392Y0140869D01*
X0111627Y0139635D01*
X0112861Y0140869D01*
X0112861Y0137166D01*
X0111620Y0134869D02*
X0114089Y0131166D01*
X0115303Y0131166D02*
X0117155Y0131166D01*
X0117772Y0131783D01*
X0117772Y0133017D01*
X0117155Y0133635D01*
X0115303Y0133635D01*
X0115303Y0134869D02*
X0115303Y0131166D01*
X0117762Y0128869D02*
X0117145Y0128252D01*
X0117145Y0127635D01*
X0117762Y0127017D01*
X0117145Y0126400D01*
X0117145Y0125783D01*
X0117762Y0125166D01*
X0118996Y0125166D01*
X0119614Y0125783D01*
X0120828Y0126400D02*
X0120828Y0127017D01*
X0121445Y0127635D01*
X0122680Y0127635D01*
X0123297Y0127017D01*
X0123297Y0125783D01*
X0122680Y0125166D01*
X0121445Y0125166D01*
X0120828Y0126400D02*
X0123297Y0126400D01*
X0124511Y0127017D02*
X0126980Y0127017D01*
X0125128Y0128869D01*
X0125128Y0125166D01*
X0128194Y0125783D02*
X0128194Y0127017D01*
X0128811Y0127635D01*
X0130663Y0127635D01*
X0130663Y0128869D02*
X0130663Y0125166D01*
X0128811Y0125166D01*
X0128194Y0125783D01*
X0131877Y0127017D02*
X0134346Y0127017D01*
X0132495Y0128869D01*
X0132495Y0125166D01*
X0135561Y0125166D02*
X0137412Y0125166D01*
X0138029Y0125783D01*
X0138029Y0127017D01*
X0137412Y0127635D01*
X0135561Y0127635D01*
X0135564Y0131166D02*
X0136798Y0131166D01*
X0137415Y0131783D01*
X0137415Y0133017D01*
X0136798Y0133635D01*
X0135564Y0133635D01*
X0134947Y0133017D01*
X0134947Y0132400D01*
X0137415Y0132400D01*
X0138630Y0133017D02*
X0138630Y0131166D01*
X0139864Y0131166D02*
X0139864Y0133017D01*
X0139247Y0133635D01*
X0138630Y0133017D01*
X0139864Y0133017D02*
X0140481Y0133635D01*
X0141099Y0133635D01*
X0141099Y0131166D01*
X0142313Y0131783D02*
X0142313Y0133017D01*
X0142930Y0133635D01*
X0144165Y0133635D01*
X0144782Y0133017D01*
X0144782Y0131783D01*
X0144165Y0131166D01*
X0142930Y0131166D01*
X0142313Y0131783D01*
X0142927Y0128869D02*
X0145396Y0128869D01*
X0145396Y0127017D01*
X0144161Y0127635D01*
X0143544Y0127635D01*
X0142927Y0127017D01*
X0142927Y0125783D01*
X0143544Y0125166D01*
X0144778Y0125166D01*
X0145396Y0125783D01*
X0146610Y0127017D02*
X0149079Y0127017D01*
X0147227Y0128869D01*
X0147227Y0125166D01*
X0150293Y0125783D02*
X0150910Y0125166D01*
X0152145Y0125166D01*
X0152762Y0125783D01*
X0150293Y0128252D01*
X0150293Y0125783D01*
X0150293Y0128252D02*
X0150910Y0128869D01*
X0152145Y0128869D01*
X0152762Y0128252D01*
X0152762Y0125783D01*
X0153976Y0125166D02*
X0155828Y0125166D01*
X0156445Y0125783D01*
X0156445Y0127017D01*
X0155828Y0127635D01*
X0153976Y0127635D01*
X0153980Y0131166D02*
X0153362Y0131783D01*
X0153362Y0133635D01*
X0152148Y0133017D02*
X0151531Y0133635D01*
X0150296Y0133635D01*
X0149679Y0133017D01*
X0149679Y0132400D01*
X0152148Y0132400D01*
X0152148Y0131783D02*
X0152148Y0133017D01*
X0152148Y0131783D02*
X0151531Y0131166D01*
X0150296Y0131166D01*
X0148465Y0131166D02*
X0146613Y0131166D01*
X0145996Y0131783D01*
X0146613Y0132400D01*
X0147848Y0132400D01*
X0148465Y0133017D01*
X0147848Y0133635D01*
X0145996Y0133635D01*
X0147237Y0137166D02*
X0144768Y0140869D01*
X0143554Y0140869D02*
X0142937Y0140869D01*
X0142937Y0137166D01*
X0143554Y0137166D02*
X0142320Y0137166D01*
X0141099Y0137166D02*
X0139864Y0137166D01*
X0140481Y0137166D02*
X0140481Y0139635D01*
X0141099Y0139635D01*
X0140481Y0140869D02*
X0140481Y0141486D01*
X0141089Y0143166D02*
X0140471Y0143783D01*
X0141089Y0144400D01*
X0142323Y0144400D01*
X0142940Y0145017D01*
X0142323Y0145635D01*
X0140471Y0145635D01*
X0141089Y0143166D02*
X0142940Y0143166D01*
X0144155Y0143166D02*
X0144155Y0145017D01*
X0144772Y0145635D01*
X0146623Y0145635D01*
X0146623Y0143166D01*
X0147838Y0143166D02*
X0149689Y0143166D01*
X0150306Y0143783D01*
X0150306Y0145017D01*
X0149689Y0145635D01*
X0147838Y0145635D01*
X0147838Y0142549D01*
X0148455Y0141931D01*
X0149072Y0141931D01*
X0148452Y0139635D02*
X0150303Y0139635D01*
X0150920Y0139017D01*
X0150920Y0137783D01*
X0150303Y0137166D01*
X0148452Y0137166D01*
X0148452Y0136549D02*
X0148452Y0139635D01*
X0148452Y0136549D02*
X0149069Y0135931D01*
X0149686Y0135931D01*
X0152138Y0139635D02*
X0152755Y0139635D01*
X0153990Y0138400D01*
X0153990Y0137166D02*
X0153990Y0139635D01*
X0155204Y0139017D02*
X0155821Y0139635D01*
X0157056Y0139635D01*
X0157673Y0139017D01*
X0157673Y0137783D01*
X0157056Y0137166D01*
X0155821Y0137166D01*
X0155204Y0137783D01*
X0155204Y0139017D01*
X0158897Y0137783D02*
X0158897Y0137166D01*
X0159514Y0137166D01*
X0159514Y0137783D01*
X0158897Y0137783D01*
X0160729Y0138400D02*
X0163197Y0138400D01*
X0163197Y0137783D02*
X0163197Y0139017D01*
X0162580Y0139635D01*
X0161346Y0139635D01*
X0160729Y0139017D01*
X0160729Y0138400D01*
X0161346Y0137166D02*
X0162580Y0137166D01*
X0163197Y0137783D01*
X0164412Y0137166D02*
X0166263Y0137166D01*
X0166881Y0137783D01*
X0166881Y0139017D01*
X0166263Y0139635D01*
X0164412Y0139635D01*
X0168098Y0139635D02*
X0168715Y0139635D01*
X0169950Y0138400D01*
X0169950Y0137166D02*
X0169950Y0139635D01*
X0171164Y0139635D02*
X0171164Y0137166D01*
X0173016Y0137166D01*
X0173633Y0137783D01*
X0173633Y0139635D01*
X0174847Y0139017D02*
X0175465Y0139635D01*
X0176699Y0139635D01*
X0177316Y0139017D01*
X0177316Y0137783D01*
X0176699Y0137166D01*
X0175465Y0137166D01*
X0174847Y0137783D01*
X0174847Y0139017D01*
X0178531Y0139635D02*
X0180382Y0139635D01*
X0180999Y0139017D01*
X0180382Y0138400D01*
X0179148Y0138400D01*
X0178531Y0137783D01*
X0179148Y0137166D01*
X0180999Y0137166D01*
X0182214Y0137166D02*
X0182214Y0139017D01*
X0182831Y0139635D01*
X0184682Y0139635D01*
X0184682Y0137166D01*
X0185897Y0138400D02*
X0188366Y0138400D01*
X0188366Y0137783D02*
X0188366Y0139017D01*
X0187748Y0139635D01*
X0186514Y0139635D01*
X0185897Y0139017D01*
X0185897Y0138400D01*
X0186514Y0137166D02*
X0187748Y0137166D01*
X0188366Y0137783D01*
X0189580Y0137783D02*
X0190197Y0137166D01*
X0192049Y0137166D01*
X0192049Y0135931D02*
X0192049Y0139635D01*
X0190197Y0139635D01*
X0189580Y0139017D01*
X0189580Y0137783D01*
X0191432Y0135486D02*
X0191432Y0134869D01*
X0191432Y0133635D02*
X0191432Y0131166D01*
X0192049Y0131166D02*
X0190814Y0131166D01*
X0188976Y0131783D02*
X0188359Y0131166D01*
X0188976Y0131783D02*
X0188976Y0134252D01*
X0189593Y0133635D02*
X0188359Y0133635D01*
X0187138Y0133017D02*
X0186521Y0133635D01*
X0185286Y0133635D01*
X0184669Y0133017D01*
X0184669Y0131166D01*
X0183455Y0131783D02*
X0182838Y0131166D01*
X0180986Y0131166D01*
X0180986Y0133635D01*
X0179772Y0133635D02*
X0177920Y0133635D01*
X0177303Y0133017D01*
X0177303Y0131783D01*
X0177920Y0131166D01*
X0179772Y0131166D01*
X0179772Y0134869D01*
X0183455Y0133635D02*
X0183455Y0131783D01*
X0187138Y0131166D02*
X0187138Y0134869D01*
X0191432Y0133635D02*
X0192049Y0133635D01*
X0193263Y0133635D02*
X0195115Y0133635D01*
X0195732Y0133017D01*
X0195732Y0131783D01*
X0195115Y0131166D01*
X0193263Y0131166D01*
X0193263Y0130549D02*
X0193263Y0133635D01*
X0193880Y0137166D02*
X0193263Y0137783D01*
X0193263Y0139017D01*
X0193880Y0139635D01*
X0195115Y0139635D01*
X0195732Y0139017D01*
X0195732Y0137783D01*
X0195115Y0137166D01*
X0193880Y0137166D01*
X0193263Y0143166D02*
X0193263Y0146869D01*
X0193263Y0145017D02*
X0195732Y0145017D01*
X0195732Y0143166D02*
X0195732Y0146869D01*
X0192049Y0143783D02*
X0191432Y0144400D01*
X0189580Y0144400D01*
X0189580Y0145017D02*
X0189580Y0143166D01*
X0191432Y0143166D01*
X0192049Y0143783D01*
X0191432Y0145635D02*
X0190197Y0145635D01*
X0189580Y0145017D01*
X0188366Y0144400D02*
X0187131Y0145635D01*
X0186514Y0145635D01*
X0185296Y0145017D02*
X0185296Y0143783D01*
X0184679Y0143166D01*
X0182828Y0143166D01*
X0182828Y0146869D01*
X0182828Y0145635D02*
X0184679Y0145635D01*
X0185296Y0145017D01*
X0181613Y0145635D02*
X0181613Y0143783D01*
X0180996Y0143166D01*
X0180379Y0143783D01*
X0179762Y0143166D01*
X0179144Y0143783D01*
X0179144Y0145635D01*
X0177313Y0145635D02*
X0176078Y0145635D01*
X0175461Y0145017D01*
X0175461Y0143166D01*
X0177313Y0143166D01*
X0177930Y0143783D01*
X0177313Y0144400D01*
X0175461Y0144400D01*
X0174247Y0144400D02*
X0173012Y0145635D01*
X0172395Y0145635D01*
X0171178Y0145017D02*
X0170560Y0145635D01*
X0169326Y0145635D01*
X0168709Y0145017D01*
X0168709Y0144400D01*
X0171178Y0144400D01*
X0171178Y0143783D02*
X0171178Y0145017D01*
X0171178Y0143783D02*
X0170560Y0143166D01*
X0169326Y0143166D01*
X0174247Y0143166D02*
X0174247Y0145635D01*
X0163811Y0146869D02*
X0163811Y0143166D01*
X0161960Y0143166D01*
X0161343Y0143783D01*
X0161343Y0146252D01*
X0161960Y0146869D01*
X0163811Y0146869D01*
X0160128Y0145017D02*
X0160128Y0143783D01*
X0159511Y0143166D01*
X0158277Y0143166D01*
X0157659Y0144400D02*
X0157659Y0145017D01*
X0158277Y0145635D01*
X0159511Y0145635D01*
X0160128Y0145017D01*
X0160128Y0144400D02*
X0157659Y0144400D01*
X0156445Y0145017D02*
X0155828Y0145635D01*
X0153976Y0145635D01*
X0152762Y0145635D02*
X0152145Y0145635D01*
X0152145Y0143166D01*
X0152762Y0143166D02*
X0151527Y0143166D01*
X0152145Y0146869D02*
X0152145Y0147486D01*
X0154593Y0144400D02*
X0155828Y0144400D01*
X0156445Y0145017D01*
X0156445Y0143166D02*
X0154593Y0143166D01*
X0153976Y0143783D01*
X0154593Y0144400D01*
X0155831Y0133635D02*
X0155831Y0131783D01*
X0155214Y0131166D01*
X0154597Y0131783D01*
X0153980Y0131166D01*
X0157046Y0131166D02*
X0157046Y0133017D01*
X0157663Y0133635D01*
X0158897Y0133635D01*
X0158897Y0132400D02*
X0157046Y0132400D01*
X0157046Y0131166D02*
X0158897Y0131166D01*
X0159514Y0131783D01*
X0158897Y0132400D01*
X0160729Y0134869D02*
X0163197Y0131166D01*
X0164412Y0131166D02*
X0164412Y0133017D01*
X0165029Y0133635D01*
X0165646Y0133017D01*
X0165646Y0131166D01*
X0166881Y0131166D02*
X0166881Y0133635D01*
X0166263Y0133635D01*
X0165646Y0133017D01*
X0168095Y0133017D02*
X0168712Y0133635D01*
X0169947Y0133635D01*
X0170564Y0133017D01*
X0170564Y0131783D01*
X0169947Y0131166D01*
X0168712Y0131166D01*
X0168095Y0131783D01*
X0168095Y0133017D01*
X0171778Y0133635D02*
X0173630Y0133635D01*
X0174247Y0133017D01*
X0174247Y0131783D01*
X0173630Y0131166D01*
X0171778Y0131166D01*
X0172399Y0128869D02*
X0172399Y0125166D01*
X0173633Y0125166D02*
X0171164Y0125166D01*
X0169950Y0127017D02*
X0167481Y0127017D01*
X0166267Y0128252D02*
X0165650Y0128869D01*
X0164415Y0128869D01*
X0163798Y0128252D01*
X0163798Y0127635D01*
X0166267Y0125166D01*
X0163798Y0125166D01*
X0162584Y0125783D02*
X0161966Y0126400D01*
X0160115Y0126400D01*
X0160115Y0127017D02*
X0160115Y0125166D01*
X0161966Y0125166D01*
X0162584Y0125783D01*
X0161966Y0127635D02*
X0160732Y0127635D01*
X0160115Y0127017D01*
X0158900Y0127017D02*
X0157666Y0127017D01*
X0158283Y0128252D02*
X0157666Y0128869D01*
X0158283Y0128252D02*
X0158283Y0125166D01*
X0168098Y0125166D02*
X0168098Y0128869D01*
X0169950Y0127017D01*
X0172399Y0128869D02*
X0173633Y0127635D01*
X0174847Y0128252D02*
X0177316Y0125783D01*
X0176699Y0125166D01*
X0175465Y0125166D01*
X0174847Y0125783D01*
X0174847Y0128252D01*
X0175465Y0128869D01*
X0176699Y0128869D01*
X0177316Y0128252D01*
X0177316Y0125783D01*
X0178531Y0125783D02*
X0179148Y0125166D01*
X0180382Y0125166D01*
X0180999Y0125783D01*
X0182214Y0125783D02*
X0182831Y0125166D01*
X0184065Y0125166D01*
X0184682Y0125783D01*
X0184682Y0126400D01*
X0184065Y0127017D01*
X0182831Y0127017D01*
X0182214Y0126400D01*
X0182214Y0125783D01*
X0182831Y0127017D02*
X0182214Y0127635D01*
X0182214Y0128252D01*
X0182831Y0128869D01*
X0184065Y0128869D01*
X0184682Y0128252D01*
X0184682Y0127635D01*
X0184065Y0127017D01*
X0185897Y0127635D02*
X0187748Y0127635D01*
X0188366Y0127017D01*
X0188366Y0125783D01*
X0187748Y0125166D01*
X0185897Y0125166D01*
X0185897Y0128869D01*
X0189580Y0127017D02*
X0189580Y0126400D01*
X0192049Y0126400D01*
X0192049Y0125783D02*
X0192049Y0127017D01*
X0191432Y0127635D01*
X0190197Y0127635D01*
X0189580Y0127017D01*
X0190197Y0125166D02*
X0191432Y0125166D01*
X0192049Y0125783D01*
X0193263Y0125166D02*
X0195115Y0125166D01*
X0195732Y0125783D01*
X0195732Y0127017D01*
X0195115Y0127635D01*
X0193263Y0127635D01*
X0193263Y0128869D02*
X0193263Y0125166D01*
X0193880Y0129931D02*
X0193263Y0130549D01*
X0193880Y0129931D02*
X0194498Y0129931D01*
X0188366Y0143166D02*
X0188366Y0145635D01*
X0176088Y0131783D02*
X0175471Y0131783D01*
X0175471Y0131166D01*
X0176088Y0131166D01*
X0176088Y0131783D01*
X0179148Y0128869D02*
X0178531Y0128252D01*
X0178531Y0127635D01*
X0179148Y0127017D01*
X0178531Y0126400D01*
X0178531Y0125783D01*
X0179148Y0127017D02*
X0179765Y0127017D01*
X0180999Y0128252D02*
X0180382Y0128869D01*
X0179148Y0128869D01*
X0141712Y0127017D02*
X0141712Y0125783D01*
X0141095Y0125166D01*
X0139244Y0125166D01*
X0139244Y0128869D01*
X0139244Y0127635D02*
X0141095Y0127635D01*
X0141712Y0127017D01*
X0133732Y0131166D02*
X0131881Y0131166D01*
X0131264Y0131783D01*
X0131881Y0132400D01*
X0133115Y0132400D01*
X0133732Y0133017D01*
X0133115Y0133635D01*
X0131264Y0133635D01*
X0130049Y0133017D02*
X0129432Y0133635D01*
X0128198Y0133635D01*
X0127580Y0133017D01*
X0127580Y0131166D01*
X0126366Y0131166D02*
X0125132Y0131166D01*
X0125749Y0131166D02*
X0125749Y0133635D01*
X0126366Y0133635D01*
X0125749Y0134869D02*
X0125749Y0135486D01*
X0125742Y0137166D02*
X0125125Y0137783D01*
X0125742Y0138400D01*
X0126977Y0138400D01*
X0127594Y0139017D01*
X0126977Y0139635D01*
X0125125Y0139635D01*
X0123911Y0139017D02*
X0123911Y0137783D01*
X0123293Y0137166D01*
X0122059Y0137166D01*
X0121442Y0138400D02*
X0123911Y0138400D01*
X0123911Y0139017D02*
X0123293Y0139635D01*
X0122059Y0139635D01*
X0121442Y0139017D01*
X0121442Y0138400D01*
X0120227Y0139017D02*
X0119610Y0139635D01*
X0117759Y0139635D01*
X0118376Y0138400D02*
X0117759Y0137783D01*
X0118376Y0137166D01*
X0120227Y0137166D01*
X0119610Y0138400D02*
X0120227Y0139017D01*
X0119610Y0138400D02*
X0118376Y0138400D01*
X0116544Y0137166D02*
X0114076Y0140869D01*
X0114086Y0143166D02*
X0112851Y0143166D01*
X0114086Y0143166D02*
X0114703Y0143783D01*
X0114703Y0145017D01*
X0114086Y0145635D01*
X0112851Y0145635D01*
X0112234Y0145017D01*
X0112234Y0144400D01*
X0114703Y0144400D01*
X0115917Y0143783D02*
X0116534Y0144400D01*
X0117769Y0144400D01*
X0118386Y0145017D01*
X0117769Y0145635D01*
X0115917Y0145635D01*
X0115917Y0143783D02*
X0116534Y0143166D01*
X0118386Y0143166D01*
X0119600Y0143166D02*
X0121452Y0143166D01*
X0122069Y0143783D01*
X0121452Y0144400D01*
X0119600Y0144400D01*
X0119600Y0145017D02*
X0119600Y0143166D01*
X0119600Y0145017D02*
X0120217Y0145635D01*
X0121452Y0145635D01*
X0123283Y0145017D02*
X0123283Y0144400D01*
X0125752Y0144400D01*
X0125752Y0143783D02*
X0125752Y0145017D01*
X0125135Y0145635D01*
X0123901Y0145635D01*
X0123283Y0145017D01*
X0123901Y0143166D02*
X0125135Y0143166D01*
X0125752Y0143783D01*
X0126973Y0143166D02*
X0128208Y0143166D01*
X0127590Y0143166D02*
X0127590Y0146869D01*
X0128208Y0146869D01*
X0130039Y0145635D02*
X0129422Y0145017D01*
X0129422Y0144400D01*
X0131891Y0144400D01*
X0131891Y0143783D02*
X0131891Y0145017D01*
X0131274Y0145635D01*
X0130039Y0145635D01*
X0130039Y0143166D02*
X0131274Y0143166D01*
X0131891Y0143783D01*
X0133105Y0143166D02*
X0134339Y0144400D01*
X0133722Y0144400D02*
X0135574Y0144400D01*
X0135574Y0143166D02*
X0135574Y0146869D01*
X0133722Y0146869D01*
X0133105Y0146252D01*
X0133105Y0145017D01*
X0133722Y0144400D01*
X0133108Y0139635D02*
X0132491Y0139017D01*
X0132491Y0138400D01*
X0134960Y0138400D01*
X0134960Y0137783D02*
X0134960Y0139017D01*
X0134343Y0139635D01*
X0133108Y0139635D01*
X0131277Y0139635D02*
X0131277Y0137166D01*
X0133108Y0137166D02*
X0134343Y0137166D01*
X0134960Y0137783D01*
X0136174Y0137166D02*
X0138026Y0137166D01*
X0138643Y0137783D01*
X0138643Y0139017D01*
X0138026Y0139635D01*
X0136174Y0139635D01*
X0131277Y0139635D02*
X0129425Y0139635D01*
X0128808Y0139017D01*
X0128808Y0137166D01*
X0127594Y0137166D02*
X0125742Y0137166D01*
X0123293Y0133635D02*
X0122059Y0133635D01*
X0121442Y0133017D01*
X0121442Y0132400D01*
X0123911Y0132400D01*
X0123911Y0131783D02*
X0123911Y0133017D01*
X0123293Y0133635D01*
X0123911Y0131783D02*
X0123293Y0131166D01*
X0122059Y0131166D01*
X0120227Y0131166D02*
X0118993Y0131166D01*
X0119610Y0131166D02*
X0119610Y0134869D01*
X0120227Y0134869D01*
X0118996Y0128869D02*
X0117762Y0128869D01*
X0118996Y0128869D02*
X0119614Y0128252D01*
X0118379Y0127017D02*
X0117762Y0127017D01*
X0115930Y0127017D02*
X0115930Y0125783D01*
X0115313Y0125166D01*
X0113462Y0125166D01*
X0113462Y0127635D02*
X0115313Y0127635D01*
X0115930Y0127017D01*
X0110396Y0125166D02*
X0110396Y0128869D01*
X0110402Y0143166D02*
X0108551Y0143166D01*
X0108551Y0146869D01*
X0108551Y0145635D02*
X0110402Y0145635D01*
X0111020Y0145017D01*
X0111020Y0143783D01*
X0110402Y0143166D01*
X0103653Y0143783D02*
X0103036Y0143166D01*
X0101185Y0143166D01*
X0101185Y0145635D01*
X0099970Y0145635D02*
X0099970Y0143166D01*
X0099970Y0145635D02*
X0098119Y0145635D01*
X0097501Y0145017D01*
X0097501Y0143166D01*
X0096287Y0143783D02*
X0096287Y0145017D01*
X0095670Y0145635D01*
X0093818Y0145635D01*
X0093818Y0146869D02*
X0093818Y0143166D01*
X0095670Y0143166D01*
X0096287Y0143783D01*
X0092604Y0143783D02*
X0092604Y0145017D01*
X0091987Y0145635D01*
X0090752Y0145635D01*
X0090135Y0145017D01*
X0090135Y0144400D01*
X0092604Y0144400D01*
X0092604Y0143783D02*
X0091987Y0143166D01*
X0090752Y0143166D01*
X0088921Y0143166D02*
X0088921Y0145635D01*
X0088921Y0144400D02*
X0087686Y0145635D01*
X0087069Y0145635D01*
X0082168Y0145635D02*
X0080934Y0145635D01*
X0081551Y0146252D02*
X0081551Y0143783D01*
X0080934Y0143166D01*
X0079713Y0143166D02*
X0079713Y0146869D01*
X0079096Y0145635D02*
X0077861Y0145635D01*
X0077244Y0145017D01*
X0077244Y0143166D01*
X0076030Y0143783D02*
X0076030Y0145017D01*
X0075413Y0145635D01*
X0074178Y0145635D01*
X0073561Y0145017D01*
X0073561Y0144400D01*
X0076030Y0144400D01*
X0076030Y0143783D02*
X0075413Y0143166D01*
X0074178Y0143166D01*
X0079096Y0145635D02*
X0079713Y0145017D01*
X0068663Y0143166D02*
X0068663Y0146869D01*
X0067429Y0145635D01*
X0066195Y0146869D01*
X0066195Y0143166D01*
X0064980Y0143166D02*
X0063746Y0143166D01*
X0064363Y0143166D02*
X0064363Y0146869D01*
X0064980Y0146869D02*
X0063746Y0146869D01*
X0062525Y0146869D02*
X0060056Y0146869D01*
X0061290Y0146869D02*
X0061290Y0143166D01*
X0055159Y0143166D02*
X0052690Y0143166D01*
X0055159Y0143166D02*
X0055159Y0146869D01*
X0051475Y0145635D02*
X0050858Y0145635D01*
X0049020Y0145017D02*
X0049020Y0143783D01*
X0049020Y0145017D02*
X0048403Y0145635D01*
X0046551Y0145635D01*
X0103653Y0145635D02*
X0103653Y0143783D01*
X0130049Y0134869D02*
X0130049Y0131166D01*
D13*
X0195882Y0119110D02*
X0014780Y0119110D01*
X0014780Y0186039D02*
X0195882Y0186039D01*
D14*
X0077330Y0053062D03*
X0077330Y0052812D03*
X0077330Y0052562D03*
X0077330Y0052312D03*
X0077330Y0052062D03*
X0077330Y0051812D03*
X0077330Y0051562D03*
X0077330Y0051312D03*
X0077330Y0051062D03*
X0077330Y0050812D03*
X0077330Y0050562D03*
X0077330Y0050312D03*
X0077330Y0050062D03*
X0077330Y0049812D03*
X0077330Y0049562D03*
X0077330Y0049312D03*
X0077330Y0049062D03*
X0077330Y0048812D03*
X0077330Y0048562D03*
X0077330Y0048312D03*
X0077330Y0048062D03*
D15*
X0077330Y0048146D03*
X0077330Y0048229D03*
X0077330Y0048396D03*
X0077330Y0048479D03*
X0077330Y0048646D03*
X0077330Y0048729D03*
X0077330Y0048896D03*
X0077330Y0048979D03*
X0077330Y0049146D03*
X0077330Y0049229D03*
X0077330Y0049396D03*
X0077330Y0049479D03*
X0077330Y0049646D03*
X0077330Y0049729D03*
X0077330Y0049896D03*
X0077330Y0049979D03*
X0077330Y0050146D03*
X0077330Y0050229D03*
X0077330Y0050396D03*
X0077330Y0050479D03*
X0077330Y0050646D03*
X0077330Y0050729D03*
X0077330Y0050896D03*
X0077330Y0050979D03*
X0077330Y0051146D03*
X0077330Y0051229D03*
X0077330Y0051396D03*
X0077330Y0051479D03*
X0077330Y0051646D03*
X0077330Y0051729D03*
X0077330Y0051896D03*
X0077330Y0051979D03*
X0077330Y0052146D03*
X0077330Y0052229D03*
X0077330Y0052396D03*
X0077330Y0052479D03*
X0077330Y0052646D03*
X0077330Y0052729D03*
X0077330Y0052896D03*
X0077330Y0052979D03*
D16*
X0087415Y0053146D03*
X0087415Y0053229D03*
X0087415Y0053396D03*
X0087415Y0053479D03*
X0087415Y0053646D03*
X0087415Y0053729D03*
X0087415Y0053896D03*
X0087415Y0053979D03*
X0087415Y0054146D03*
X0087415Y0054229D03*
X0087415Y0054396D03*
X0087415Y0054479D03*
X0087415Y0054646D03*
X0087415Y0054729D03*
X0087415Y0054896D03*
X0087415Y0054979D03*
X0087415Y0055146D03*
X0087415Y0055229D03*
X0087415Y0055396D03*
X0087415Y0055479D03*
X0087415Y0055646D03*
X0087415Y0055729D03*
X0087415Y0055896D03*
X0087415Y0055979D03*
X0087415Y0056146D03*
X0087415Y0056229D03*
X0087415Y0056396D03*
X0087415Y0056479D03*
X0087415Y0056646D03*
X0087415Y0056729D03*
X0087415Y0056896D03*
X0087415Y0056979D03*
X0087415Y0057146D03*
X0087415Y0057229D03*
X0087415Y0057396D03*
X0087415Y0057479D03*
X0087415Y0057646D03*
X0087415Y0057729D03*
X0087415Y0057896D03*
X0087415Y0057979D03*
X0092415Y0058146D03*
X0092415Y0058229D03*
X0092415Y0058396D03*
X0092415Y0058479D03*
X0092415Y0058646D03*
X0092415Y0058729D03*
X0092415Y0058896D03*
X0092415Y0058979D03*
X0092415Y0059146D03*
X0092415Y0059229D03*
X0092415Y0059396D03*
X0092415Y0059479D03*
X0092415Y0059646D03*
X0092415Y0059729D03*
X0092415Y0059896D03*
X0092415Y0059979D03*
X0092415Y0060146D03*
X0092415Y0060229D03*
X0092415Y0060396D03*
X0092415Y0060479D03*
X0092415Y0060646D03*
X0092415Y0060729D03*
X0092415Y0060896D03*
X0092415Y0060979D03*
X0092415Y0061146D03*
X0092415Y0061229D03*
X0092415Y0061396D03*
X0092415Y0061479D03*
X0092415Y0061646D03*
X0092415Y0061729D03*
X0092415Y0061896D03*
X0092415Y0061979D03*
X0092415Y0062146D03*
X0092415Y0062229D03*
X0092415Y0062396D03*
X0092415Y0062479D03*
X0092415Y0062646D03*
X0092415Y0062729D03*
X0092415Y0062896D03*
X0092415Y0062979D03*
X0092415Y0063146D03*
X0067245Y0057979D03*
X0067245Y0057896D03*
X0067245Y0057729D03*
X0067245Y0057646D03*
X0067245Y0057479D03*
X0067245Y0057396D03*
X0067245Y0057229D03*
X0067245Y0057146D03*
X0067245Y0056979D03*
X0067245Y0056896D03*
X0067245Y0056729D03*
X0067245Y0056646D03*
X0067245Y0056479D03*
X0067245Y0056396D03*
X0067245Y0056229D03*
X0067245Y0056146D03*
X0067245Y0055979D03*
X0067245Y0055896D03*
X0067245Y0055729D03*
X0067245Y0055646D03*
X0067245Y0055479D03*
X0067245Y0055396D03*
X0067245Y0055229D03*
X0067245Y0055146D03*
X0067245Y0054979D03*
X0067245Y0054896D03*
X0067245Y0054729D03*
X0067245Y0054646D03*
X0067245Y0054479D03*
X0067245Y0054396D03*
X0067245Y0054229D03*
X0067245Y0054146D03*
X0067245Y0053979D03*
X0067245Y0053896D03*
X0067245Y0053729D03*
X0067245Y0053646D03*
X0067245Y0053479D03*
X0067245Y0053396D03*
X0067245Y0053229D03*
X0067245Y0053146D03*
X0062245Y0058146D03*
X0062245Y0058229D03*
X0062245Y0058396D03*
X0062245Y0058479D03*
X0062245Y0058646D03*
X0062245Y0058729D03*
X0062245Y0058896D03*
X0062245Y0058979D03*
X0062245Y0059146D03*
X0062245Y0059229D03*
X0062245Y0059396D03*
X0062245Y0059479D03*
X0062245Y0059646D03*
X0062245Y0059729D03*
X0062245Y0059896D03*
X0062245Y0059979D03*
X0062245Y0060146D03*
X0062245Y0060229D03*
X0062245Y0060396D03*
X0062245Y0060479D03*
X0062245Y0060646D03*
X0062245Y0060729D03*
X0062245Y0060896D03*
X0062245Y0060979D03*
X0062245Y0061146D03*
X0062245Y0061229D03*
X0062245Y0061396D03*
X0062245Y0061479D03*
X0062245Y0061646D03*
X0062245Y0061729D03*
X0062245Y0061896D03*
X0062245Y0061979D03*
X0062245Y0062146D03*
X0062245Y0062229D03*
X0062245Y0062396D03*
X0062245Y0062479D03*
X0062245Y0062646D03*
X0062245Y0062729D03*
X0062245Y0062896D03*
X0062245Y0062979D03*
X0062245Y0063146D03*
X0052245Y0068229D03*
X0052245Y0068396D03*
X0052245Y0068479D03*
X0052245Y0068646D03*
X0052245Y0068729D03*
X0052245Y0068896D03*
X0052245Y0068979D03*
X0052245Y0069146D03*
X0052245Y0069229D03*
X0052245Y0069396D03*
X0052245Y0069479D03*
X0052245Y0069646D03*
X0052245Y0069729D03*
X0052245Y0069896D03*
X0052245Y0069979D03*
X0052245Y0070146D03*
X0052245Y0070229D03*
X0052245Y0070396D03*
X0052245Y0070479D03*
X0052245Y0070646D03*
X0052245Y0070729D03*
X0052245Y0070896D03*
X0052245Y0070979D03*
X0052245Y0071146D03*
X0052245Y0071229D03*
X0052245Y0071396D03*
X0052245Y0071479D03*
X0052245Y0071646D03*
X0052245Y0071729D03*
X0052245Y0071896D03*
X0052245Y0071979D03*
X0052245Y0072146D03*
X0052245Y0072229D03*
X0052245Y0072396D03*
X0052245Y0072479D03*
X0052245Y0072646D03*
X0052245Y0072729D03*
X0052245Y0072896D03*
X0052245Y0072979D03*
X0052245Y0073146D03*
X0047165Y0073229D03*
X0047165Y0073396D03*
X0047165Y0073479D03*
X0047165Y0073646D03*
X0047165Y0073729D03*
X0047165Y0073896D03*
X0047165Y0073979D03*
X0047165Y0074146D03*
X0047165Y0074229D03*
X0047165Y0074396D03*
X0047165Y0074479D03*
X0047165Y0074646D03*
X0047165Y0074729D03*
X0047165Y0074896D03*
X0047165Y0074979D03*
X0047165Y0075146D03*
X0047165Y0075229D03*
X0047165Y0075396D03*
X0047165Y0075479D03*
X0047165Y0075646D03*
X0047165Y0075729D03*
X0047165Y0075896D03*
X0047165Y0075979D03*
X0047165Y0076146D03*
X0047165Y0076229D03*
X0047165Y0076396D03*
X0047165Y0076479D03*
X0047165Y0076646D03*
X0047165Y0076729D03*
X0047165Y0076896D03*
X0047165Y0076979D03*
X0047165Y0077146D03*
X0047165Y0077229D03*
X0047165Y0077396D03*
X0047165Y0077479D03*
X0047165Y0077646D03*
X0047165Y0077729D03*
X0047165Y0077896D03*
X0047165Y0077979D03*
X0047165Y0078146D03*
X0047165Y0078229D03*
X0047165Y0078396D03*
X0047165Y0078479D03*
X0047165Y0078646D03*
X0047165Y0078729D03*
X0047165Y0078896D03*
X0047165Y0078979D03*
X0047165Y0079146D03*
X0047165Y0079229D03*
X0047165Y0079396D03*
X0047165Y0079479D03*
X0047165Y0079646D03*
X0047165Y0079729D03*
X0047165Y0079896D03*
X0047165Y0079979D03*
X0047165Y0080146D03*
X0047165Y0080229D03*
X0047165Y0080396D03*
X0047165Y0080479D03*
X0047165Y0080646D03*
X0047165Y0080729D03*
X0047165Y0080896D03*
X0047165Y0080979D03*
X0047165Y0081146D03*
X0047165Y0081229D03*
X0047165Y0081396D03*
X0047165Y0081479D03*
X0047165Y0081646D03*
X0047165Y0081729D03*
X0047165Y0081896D03*
X0047165Y0081979D03*
X0047165Y0082146D03*
X0047165Y0082229D03*
X0047165Y0082396D03*
X0047165Y0082479D03*
X0047165Y0082646D03*
X0047165Y0082729D03*
X0047165Y0082896D03*
X0047165Y0082979D03*
X0047165Y0083146D03*
X0047165Y0083229D03*
X0047165Y0083396D03*
X0047165Y0083479D03*
X0047165Y0083646D03*
X0047165Y0083729D03*
X0047165Y0083896D03*
X0047165Y0083979D03*
X0047165Y0084146D03*
X0047165Y0084229D03*
X0047165Y0084396D03*
X0047165Y0084479D03*
X0047165Y0084646D03*
X0047165Y0084729D03*
X0047165Y0084896D03*
X0047165Y0084979D03*
X0047165Y0085146D03*
X0047165Y0085229D03*
X0047165Y0085396D03*
X0047165Y0085479D03*
X0047165Y0085646D03*
X0047165Y0085729D03*
X0047165Y0085896D03*
X0047165Y0085979D03*
X0047165Y0086146D03*
X0047165Y0086229D03*
X0047165Y0086396D03*
X0047165Y0086479D03*
X0047165Y0086646D03*
X0047165Y0086729D03*
X0047165Y0086896D03*
X0047165Y0086979D03*
X0047165Y0087146D03*
X0047165Y0087229D03*
X0047165Y0087396D03*
X0047165Y0087479D03*
X0047165Y0087646D03*
X0047165Y0087729D03*
X0047165Y0087896D03*
X0047165Y0087979D03*
X0047165Y0088146D03*
X0047165Y0088229D03*
D17*
X0047165Y0088312D03*
X0047165Y0088062D03*
X0047165Y0087812D03*
X0047165Y0087562D03*
X0047165Y0087312D03*
X0047165Y0087062D03*
X0047165Y0086812D03*
X0047165Y0086562D03*
X0047165Y0086312D03*
X0047165Y0086062D03*
X0047165Y0085812D03*
X0047165Y0085562D03*
X0047165Y0085312D03*
X0047165Y0085062D03*
X0047165Y0084812D03*
X0047165Y0084562D03*
X0047165Y0084312D03*
X0047165Y0084062D03*
X0047165Y0083812D03*
X0047165Y0083562D03*
X0047165Y0083312D03*
X0047165Y0083062D03*
X0047165Y0082812D03*
X0047165Y0082562D03*
X0047165Y0082312D03*
X0047165Y0082062D03*
X0047165Y0081812D03*
X0047165Y0081562D03*
X0047165Y0081312D03*
X0047165Y0081062D03*
X0047165Y0080812D03*
X0047165Y0080562D03*
X0047165Y0080312D03*
X0047165Y0080062D03*
X0047165Y0079812D03*
X0047165Y0079562D03*
X0047165Y0079312D03*
X0047165Y0079062D03*
X0047165Y0078812D03*
X0047165Y0078562D03*
X0047165Y0078312D03*
X0047165Y0078062D03*
X0047165Y0077812D03*
X0047165Y0077562D03*
X0047165Y0077312D03*
X0047165Y0077062D03*
X0047165Y0076812D03*
X0047165Y0076562D03*
X0047165Y0076312D03*
X0047165Y0076062D03*
X0047165Y0075812D03*
X0047165Y0075562D03*
X0047165Y0075312D03*
X0047165Y0075062D03*
X0047165Y0074812D03*
X0047165Y0074562D03*
X0047165Y0074312D03*
X0047165Y0074062D03*
X0047165Y0073812D03*
X0047165Y0073562D03*
X0047165Y0073312D03*
X0052245Y0073062D03*
X0052245Y0072812D03*
X0052245Y0072562D03*
X0052245Y0072312D03*
X0052245Y0072062D03*
X0052245Y0071812D03*
X0052245Y0071562D03*
X0052245Y0071312D03*
X0052245Y0071062D03*
X0052245Y0070812D03*
X0052245Y0070562D03*
X0052245Y0070312D03*
X0052245Y0070062D03*
X0052245Y0069812D03*
X0052245Y0069562D03*
X0052245Y0069312D03*
X0052245Y0069062D03*
X0052245Y0068812D03*
X0052245Y0068562D03*
X0052245Y0068312D03*
X0062245Y0063062D03*
X0062245Y0062812D03*
X0062245Y0062562D03*
X0062245Y0062312D03*
X0062245Y0062062D03*
X0062245Y0061812D03*
X0062245Y0061562D03*
X0062245Y0061312D03*
X0062245Y0061062D03*
X0062245Y0060812D03*
X0062245Y0060562D03*
X0062245Y0060312D03*
X0062245Y0060062D03*
X0062245Y0059812D03*
X0062245Y0059562D03*
X0062245Y0059312D03*
X0062245Y0059062D03*
X0062245Y0058812D03*
X0062245Y0058562D03*
X0062245Y0058312D03*
X0067245Y0058062D03*
X0067245Y0057812D03*
X0067245Y0057562D03*
X0067245Y0057312D03*
X0067245Y0057062D03*
X0067245Y0056812D03*
X0067245Y0056562D03*
X0067245Y0056312D03*
X0067245Y0056062D03*
X0067245Y0055812D03*
X0067245Y0055562D03*
X0067245Y0055312D03*
X0067245Y0055062D03*
X0067245Y0054812D03*
X0067245Y0054562D03*
X0067245Y0054312D03*
X0067245Y0054062D03*
X0067245Y0053812D03*
X0067245Y0053562D03*
X0067245Y0053312D03*
X0087415Y0053312D03*
X0087415Y0053562D03*
X0087415Y0053812D03*
X0087415Y0054062D03*
X0087415Y0054312D03*
X0087415Y0054562D03*
X0087415Y0054812D03*
X0087415Y0055062D03*
X0087415Y0055312D03*
X0087415Y0055562D03*
X0087415Y0055812D03*
X0087415Y0056062D03*
X0087415Y0056312D03*
X0087415Y0056562D03*
X0087415Y0056812D03*
X0087415Y0057062D03*
X0087415Y0057312D03*
X0087415Y0057562D03*
X0087415Y0057812D03*
X0087415Y0058062D03*
X0092415Y0058312D03*
X0092415Y0058562D03*
X0092415Y0058812D03*
X0092415Y0059062D03*
X0092415Y0059312D03*
X0092415Y0059562D03*
X0092415Y0059812D03*
X0092415Y0060062D03*
X0092415Y0060312D03*
X0092415Y0060562D03*
X0092415Y0060812D03*
X0092415Y0061062D03*
X0092415Y0061312D03*
X0092415Y0061562D03*
X0092415Y0061812D03*
X0092415Y0062062D03*
X0092415Y0062312D03*
X0092415Y0062562D03*
X0092415Y0062812D03*
X0092415Y0063062D03*
D18*
X0097455Y0063229D03*
X0097455Y0063396D03*
X0097455Y0063479D03*
X0097455Y0063646D03*
X0097455Y0063729D03*
X0097455Y0063896D03*
X0097455Y0063979D03*
X0097455Y0064146D03*
X0097455Y0064229D03*
X0097455Y0064396D03*
X0097455Y0064479D03*
X0097455Y0064646D03*
X0097455Y0064729D03*
X0097455Y0064896D03*
X0097455Y0064979D03*
X0097455Y0065146D03*
X0097455Y0065229D03*
X0097455Y0065396D03*
X0097455Y0065479D03*
X0097455Y0065646D03*
X0097455Y0065729D03*
X0097455Y0065896D03*
X0097455Y0065979D03*
X0097455Y0066146D03*
X0097455Y0066229D03*
X0097455Y0066396D03*
X0097455Y0066479D03*
X0097455Y0066646D03*
X0097455Y0066729D03*
X0097455Y0066896D03*
X0097455Y0066979D03*
X0097455Y0067146D03*
X0097455Y0067229D03*
X0097455Y0067396D03*
X0097455Y0067479D03*
X0097455Y0067646D03*
X0097455Y0067729D03*
X0097455Y0067896D03*
X0097455Y0067979D03*
X0097455Y0068146D03*
X0102535Y0068229D03*
X0102535Y0068396D03*
X0102535Y0068479D03*
X0102535Y0068646D03*
X0102535Y0068729D03*
X0102535Y0068896D03*
X0102535Y0068979D03*
X0102535Y0069146D03*
X0102535Y0069229D03*
X0102535Y0069396D03*
X0102535Y0069479D03*
X0102535Y0069646D03*
X0102535Y0069729D03*
X0102535Y0069896D03*
X0102535Y0069979D03*
X0102535Y0070146D03*
X0102535Y0070229D03*
X0102535Y0070396D03*
X0102535Y0070479D03*
X0102535Y0070646D03*
X0102535Y0070729D03*
X0102535Y0070896D03*
X0102535Y0070979D03*
X0102535Y0071146D03*
X0102535Y0071229D03*
X0102535Y0071396D03*
X0102535Y0071479D03*
X0102535Y0071646D03*
X0102535Y0071729D03*
X0102535Y0071896D03*
X0102535Y0071979D03*
X0102535Y0072146D03*
X0102535Y0072229D03*
X0102535Y0072396D03*
X0102535Y0072479D03*
X0102535Y0072646D03*
X0102535Y0072729D03*
X0102535Y0072896D03*
X0102535Y0072979D03*
X0102535Y0073146D03*
X0107535Y0073229D03*
X0107535Y0073396D03*
X0107535Y0073479D03*
X0107535Y0073646D03*
X0107535Y0073729D03*
X0107535Y0073896D03*
X0107535Y0073979D03*
X0107535Y0074146D03*
X0107535Y0074229D03*
X0107535Y0074396D03*
X0107535Y0074479D03*
X0107535Y0074646D03*
X0107535Y0074729D03*
X0107535Y0074896D03*
X0107535Y0074979D03*
X0107535Y0075146D03*
X0107535Y0075229D03*
X0107535Y0075396D03*
X0107535Y0075479D03*
X0107535Y0075646D03*
X0107535Y0075729D03*
X0107535Y0075896D03*
X0107535Y0075979D03*
X0107535Y0076146D03*
X0107535Y0076229D03*
X0107535Y0076396D03*
X0107535Y0076479D03*
X0107535Y0076646D03*
X0107535Y0076729D03*
X0107535Y0076896D03*
X0107535Y0076979D03*
X0107535Y0077146D03*
X0107535Y0077229D03*
X0107535Y0077396D03*
X0107535Y0077479D03*
X0107535Y0077646D03*
X0107535Y0077729D03*
X0107535Y0077896D03*
X0107535Y0077979D03*
X0107535Y0078146D03*
X0107535Y0078229D03*
X0107535Y0078396D03*
X0107535Y0078479D03*
X0107535Y0078646D03*
X0107535Y0078729D03*
X0107535Y0078896D03*
X0107535Y0078979D03*
X0107535Y0079146D03*
X0107535Y0079229D03*
X0107535Y0079396D03*
X0107535Y0079479D03*
X0107535Y0079646D03*
X0107535Y0079729D03*
X0107535Y0079896D03*
X0107535Y0079979D03*
X0107535Y0080146D03*
X0107535Y0080229D03*
X0107535Y0080396D03*
X0107535Y0080479D03*
X0107535Y0080646D03*
X0107535Y0080729D03*
X0107535Y0080896D03*
X0107535Y0080979D03*
X0107535Y0081146D03*
X0107535Y0081229D03*
X0107535Y0081396D03*
X0107535Y0081479D03*
X0107535Y0081646D03*
X0107535Y0081729D03*
X0107535Y0081896D03*
X0107535Y0081979D03*
X0107535Y0082146D03*
X0107535Y0082229D03*
X0107535Y0082396D03*
X0107535Y0082479D03*
X0107535Y0082646D03*
X0107535Y0082729D03*
X0107535Y0082896D03*
X0107535Y0082979D03*
X0107535Y0083146D03*
X0107535Y0083229D03*
X0107535Y0083396D03*
X0107535Y0083479D03*
X0107535Y0083646D03*
X0107535Y0083729D03*
X0107535Y0083896D03*
X0107535Y0083979D03*
X0107535Y0084146D03*
X0107535Y0084229D03*
X0107535Y0084396D03*
X0107535Y0084479D03*
X0107535Y0084646D03*
X0107535Y0084729D03*
X0107535Y0084896D03*
X0107535Y0084979D03*
X0107535Y0085146D03*
X0107535Y0085229D03*
X0107535Y0085396D03*
X0107535Y0085479D03*
X0107535Y0085646D03*
X0107535Y0085729D03*
X0107535Y0085896D03*
X0107535Y0085979D03*
X0107535Y0086146D03*
X0107535Y0086229D03*
X0107535Y0086396D03*
X0107535Y0086479D03*
X0107535Y0086646D03*
X0107535Y0086729D03*
X0107535Y0086896D03*
X0107535Y0086979D03*
X0107535Y0087146D03*
X0107535Y0087229D03*
X0107535Y0087396D03*
X0107535Y0087479D03*
X0107535Y0087646D03*
X0107535Y0087729D03*
X0107535Y0087896D03*
X0107535Y0087979D03*
X0107535Y0088146D03*
X0107535Y0088229D03*
X0057205Y0068146D03*
X0057205Y0067979D03*
X0057205Y0067896D03*
X0057205Y0067729D03*
X0057205Y0067646D03*
X0057205Y0067479D03*
X0057205Y0067396D03*
X0057205Y0067229D03*
X0057205Y0067146D03*
X0057205Y0066979D03*
X0057205Y0066896D03*
X0057205Y0066729D03*
X0057205Y0066646D03*
X0057205Y0066479D03*
X0057205Y0066396D03*
X0057205Y0066229D03*
X0057205Y0066146D03*
X0057205Y0065979D03*
X0057205Y0065896D03*
X0057205Y0065729D03*
X0057205Y0065646D03*
X0057205Y0065479D03*
X0057205Y0065396D03*
X0057205Y0065229D03*
X0057205Y0065146D03*
X0057205Y0064979D03*
X0057205Y0064896D03*
X0057205Y0064729D03*
X0057205Y0064646D03*
X0057205Y0064479D03*
X0057205Y0064396D03*
X0057205Y0064229D03*
X0057205Y0064146D03*
X0057205Y0063979D03*
X0057205Y0063896D03*
X0057205Y0063729D03*
X0057205Y0063646D03*
X0057205Y0063479D03*
X0057205Y0063396D03*
X0057205Y0063229D03*
X0047205Y0088396D03*
X0047205Y0088479D03*
X0047205Y0088646D03*
X0047205Y0088729D03*
X0047205Y0088896D03*
X0047205Y0088979D03*
X0047205Y0089146D03*
X0047205Y0089229D03*
X0047205Y0089396D03*
X0047205Y0089479D03*
X0047205Y0089646D03*
X0047205Y0089729D03*
X0047205Y0089896D03*
X0047205Y0089979D03*
X0047205Y0090146D03*
X0047205Y0090229D03*
X0047205Y0090396D03*
X0047205Y0090479D03*
X0047205Y0090646D03*
X0047205Y0090729D03*
X0047205Y0090896D03*
X0047205Y0090979D03*
X0047205Y0091146D03*
X0047205Y0091229D03*
X0047205Y0091396D03*
X0047205Y0091479D03*
X0047205Y0091646D03*
X0047205Y0091729D03*
X0047205Y0091896D03*
X0047205Y0091979D03*
X0047205Y0092146D03*
X0047205Y0092229D03*
X0047205Y0092396D03*
X0047205Y0092479D03*
X0047205Y0092646D03*
X0047205Y0092729D03*
X0047205Y0092896D03*
X0047205Y0092979D03*
X0047205Y0093146D03*
X0047205Y0093229D03*
X0047205Y0093396D03*
X0047205Y0093479D03*
X0047205Y0093646D03*
X0047205Y0093729D03*
X0047205Y0093896D03*
X0047205Y0093979D03*
X0047205Y0094146D03*
X0047205Y0094229D03*
X0047205Y0094396D03*
X0047205Y0094479D03*
X0047205Y0094646D03*
X0047205Y0094729D03*
X0047205Y0094896D03*
X0047205Y0094979D03*
X0047205Y0095146D03*
X0047205Y0095229D03*
X0047205Y0095396D03*
X0047205Y0095479D03*
X0047205Y0095646D03*
X0047205Y0095729D03*
X0047205Y0095896D03*
X0047205Y0095979D03*
X0047205Y0096146D03*
X0047205Y0096229D03*
X0047205Y0096396D03*
X0047205Y0096479D03*
X0047205Y0096646D03*
X0047205Y0096729D03*
X0047205Y0096896D03*
X0047205Y0096979D03*
X0047205Y0097146D03*
X0047205Y0097229D03*
X0047205Y0097396D03*
X0047205Y0097479D03*
X0047205Y0097646D03*
X0047205Y0097729D03*
X0047205Y0097896D03*
X0047205Y0097979D03*
X0047205Y0098146D03*
X0047205Y0098229D03*
X0047205Y0098396D03*
D19*
X0047205Y0098312D03*
X0047205Y0098062D03*
X0047205Y0097812D03*
X0047205Y0097562D03*
X0047205Y0097312D03*
X0047205Y0097062D03*
X0047205Y0096812D03*
X0047205Y0096562D03*
X0047205Y0096312D03*
X0047205Y0096062D03*
X0047205Y0095812D03*
X0047205Y0095562D03*
X0047205Y0095312D03*
X0047205Y0095062D03*
X0047205Y0094812D03*
X0047205Y0094562D03*
X0047205Y0094312D03*
X0047205Y0094062D03*
X0047205Y0093812D03*
X0047205Y0093562D03*
X0047205Y0093312D03*
X0047205Y0093062D03*
X0047205Y0092812D03*
X0047205Y0092562D03*
X0047205Y0092312D03*
X0047205Y0092062D03*
X0047205Y0091812D03*
X0047205Y0091562D03*
X0047205Y0091312D03*
X0047205Y0091062D03*
X0047205Y0090812D03*
X0047205Y0090562D03*
X0047205Y0090312D03*
X0047205Y0090062D03*
X0047205Y0089812D03*
X0047205Y0089562D03*
X0047205Y0089312D03*
X0047205Y0089062D03*
X0047205Y0088812D03*
X0047205Y0088562D03*
X0057205Y0068062D03*
X0057205Y0067812D03*
X0057205Y0067562D03*
X0057205Y0067312D03*
X0057205Y0067062D03*
X0057205Y0066812D03*
X0057205Y0066562D03*
X0057205Y0066312D03*
X0057205Y0066062D03*
X0057205Y0065812D03*
X0057205Y0065562D03*
X0057205Y0065312D03*
X0057205Y0065062D03*
X0057205Y0064812D03*
X0057205Y0064562D03*
X0057205Y0064312D03*
X0057205Y0064062D03*
X0057205Y0063812D03*
X0057205Y0063562D03*
X0057205Y0063312D03*
X0097455Y0063312D03*
X0097455Y0063562D03*
X0097455Y0063812D03*
X0097455Y0064062D03*
X0097455Y0064312D03*
X0097455Y0064562D03*
X0097455Y0064812D03*
X0097455Y0065062D03*
X0097455Y0065312D03*
X0097455Y0065562D03*
X0097455Y0065812D03*
X0097455Y0066062D03*
X0097455Y0066312D03*
X0097455Y0066562D03*
X0097455Y0066812D03*
X0097455Y0067062D03*
X0097455Y0067312D03*
X0097455Y0067562D03*
X0097455Y0067812D03*
X0097455Y0068062D03*
X0102535Y0068312D03*
X0102535Y0068562D03*
X0102535Y0068812D03*
X0102535Y0069062D03*
X0102535Y0069312D03*
X0102535Y0069562D03*
X0102535Y0069812D03*
X0102535Y0070062D03*
X0102535Y0070312D03*
X0102535Y0070562D03*
X0102535Y0070812D03*
X0102535Y0071062D03*
X0102535Y0071312D03*
X0102535Y0071562D03*
X0102535Y0071812D03*
X0102535Y0072062D03*
X0102535Y0072312D03*
X0102535Y0072562D03*
X0102535Y0072812D03*
X0102535Y0073062D03*
X0107535Y0073312D03*
X0107535Y0073562D03*
X0107535Y0073812D03*
X0107535Y0074062D03*
X0107535Y0074312D03*
X0107535Y0074562D03*
X0107535Y0074812D03*
X0107535Y0075062D03*
X0107535Y0075312D03*
X0107535Y0075562D03*
X0107535Y0075812D03*
X0107535Y0076062D03*
X0107535Y0076312D03*
X0107535Y0076562D03*
X0107535Y0076812D03*
X0107535Y0077062D03*
X0107535Y0077312D03*
X0107535Y0077562D03*
X0107535Y0077812D03*
X0107535Y0078062D03*
X0107535Y0078312D03*
X0107535Y0078562D03*
X0107535Y0078812D03*
X0107535Y0079062D03*
X0107535Y0079312D03*
X0107535Y0079562D03*
X0107535Y0079812D03*
X0107535Y0080062D03*
X0107535Y0080312D03*
X0107535Y0080562D03*
X0107535Y0080812D03*
X0107535Y0081062D03*
X0107535Y0081312D03*
X0107535Y0081562D03*
X0107535Y0081812D03*
X0107535Y0082062D03*
X0107535Y0082312D03*
X0107535Y0082562D03*
X0107535Y0082812D03*
X0107535Y0083062D03*
X0107535Y0083312D03*
X0107535Y0083562D03*
X0107535Y0083812D03*
X0107535Y0084062D03*
X0107535Y0084312D03*
X0107535Y0084562D03*
X0107535Y0084812D03*
X0107535Y0085062D03*
X0107535Y0085312D03*
X0107535Y0085562D03*
X0107535Y0085812D03*
X0107535Y0086062D03*
X0107535Y0086312D03*
X0107535Y0086562D03*
X0107535Y0086812D03*
X0107535Y0087062D03*
X0107535Y0087312D03*
X0107535Y0087562D03*
X0107535Y0087812D03*
X0107535Y0088062D03*
X0107535Y0088312D03*
D20*
X0100035Y0098562D03*
X0100035Y0098812D03*
X0100035Y0099062D03*
X0100035Y0099312D03*
X0100035Y0099562D03*
X0100035Y0099812D03*
X0100035Y0100062D03*
X0100035Y0100312D03*
X0100035Y0100562D03*
X0100035Y0100812D03*
X0100035Y0101062D03*
X0100035Y0101312D03*
X0100035Y0101562D03*
X0100035Y0101812D03*
X0100035Y0102062D03*
X0100035Y0102312D03*
X0100035Y0102562D03*
X0100035Y0102812D03*
X0100035Y0103062D03*
X0100035Y0103312D03*
X0089955Y0093312D03*
X0089955Y0093062D03*
X0089955Y0092812D03*
X0089955Y0092562D03*
X0089955Y0092312D03*
X0089955Y0092062D03*
X0089955Y0091812D03*
X0089955Y0091562D03*
X0089955Y0091312D03*
X0089955Y0091062D03*
X0089955Y0090812D03*
X0089955Y0090562D03*
X0089955Y0090312D03*
X0089955Y0090062D03*
X0089955Y0089812D03*
X0089955Y0089562D03*
X0089955Y0089312D03*
X0089955Y0089062D03*
X0089955Y0088812D03*
X0089955Y0088562D03*
X0089955Y0088312D03*
X0089955Y0088062D03*
X0089955Y0087812D03*
X0089955Y0087562D03*
X0089955Y0087312D03*
X0089955Y0087062D03*
X0089955Y0086812D03*
X0089955Y0086562D03*
X0089955Y0086312D03*
X0089955Y0086062D03*
X0089955Y0085812D03*
X0089955Y0085562D03*
X0089955Y0085312D03*
X0089955Y0085062D03*
X0089955Y0084812D03*
X0089955Y0084562D03*
X0089955Y0084312D03*
X0089955Y0084062D03*
X0089955Y0083812D03*
X0089955Y0083562D03*
X0089955Y0078062D03*
X0089955Y0077812D03*
X0089955Y0077562D03*
X0089955Y0077312D03*
X0089955Y0077062D03*
X0089955Y0076812D03*
X0089955Y0076562D03*
X0089955Y0076312D03*
X0089955Y0076062D03*
X0089955Y0075812D03*
X0089955Y0075562D03*
X0089955Y0075312D03*
X0089955Y0075062D03*
X0089955Y0074812D03*
X0089955Y0074562D03*
X0089955Y0074312D03*
X0089955Y0074062D03*
X0089955Y0073812D03*
X0089955Y0073562D03*
X0089955Y0073312D03*
X0089955Y0073062D03*
X0089955Y0072812D03*
X0089955Y0072562D03*
X0089955Y0072312D03*
X0089955Y0072062D03*
X0089955Y0071812D03*
X0089955Y0071562D03*
X0089955Y0071312D03*
X0089955Y0071062D03*
X0089955Y0070812D03*
X0089955Y0070562D03*
X0089955Y0070312D03*
X0089955Y0070062D03*
X0089955Y0069812D03*
X0089955Y0069562D03*
X0089955Y0069312D03*
X0089955Y0069062D03*
X0089955Y0068812D03*
X0089955Y0068562D03*
X0089955Y0068312D03*
X0064785Y0068312D03*
X0064785Y0068562D03*
X0064785Y0068812D03*
X0064785Y0069062D03*
X0064785Y0069312D03*
X0064785Y0069562D03*
X0064785Y0069812D03*
X0064785Y0070062D03*
X0064785Y0070312D03*
X0064785Y0070562D03*
X0064785Y0070812D03*
X0064785Y0071062D03*
X0064785Y0071312D03*
X0064785Y0071562D03*
X0064785Y0071812D03*
X0064785Y0072062D03*
X0064785Y0072312D03*
X0064785Y0072562D03*
X0064785Y0072812D03*
X0064785Y0073062D03*
X0064785Y0073312D03*
X0064785Y0073562D03*
X0064785Y0073812D03*
X0064785Y0074062D03*
X0064785Y0074312D03*
X0064785Y0074562D03*
X0064785Y0074812D03*
X0064785Y0075062D03*
X0064785Y0075312D03*
X0064785Y0075562D03*
X0064785Y0075812D03*
X0064785Y0076062D03*
X0064785Y0076312D03*
X0064785Y0076562D03*
X0064785Y0076812D03*
X0064785Y0077062D03*
X0064785Y0077312D03*
X0064785Y0077562D03*
X0064785Y0077812D03*
X0064785Y0078062D03*
X0064785Y0083562D03*
X0064785Y0083812D03*
X0064785Y0084062D03*
X0064785Y0084312D03*
X0064785Y0084562D03*
X0064785Y0084812D03*
X0064785Y0085062D03*
X0064785Y0085312D03*
X0064785Y0085562D03*
X0064785Y0085812D03*
X0064785Y0086062D03*
X0064785Y0086312D03*
X0064785Y0086562D03*
X0064785Y0086812D03*
X0064785Y0087062D03*
X0064785Y0087312D03*
X0064785Y0087562D03*
X0064785Y0087812D03*
X0064785Y0088062D03*
X0064785Y0088312D03*
X0064785Y0088562D03*
X0064785Y0088812D03*
X0064785Y0089062D03*
X0064785Y0089312D03*
X0064785Y0089562D03*
X0064785Y0089812D03*
X0064785Y0090062D03*
X0064785Y0090312D03*
X0064785Y0090562D03*
X0064785Y0090812D03*
X0064785Y0091062D03*
X0064785Y0091312D03*
X0064785Y0091562D03*
X0064785Y0091812D03*
X0064785Y0092062D03*
X0064785Y0092312D03*
X0064785Y0092562D03*
X0064785Y0092812D03*
X0064785Y0093062D03*
X0064785Y0093312D03*
D21*
X0064785Y0093229D03*
X0064785Y0093146D03*
X0064785Y0092979D03*
X0064785Y0092896D03*
X0064785Y0092729D03*
X0064785Y0092646D03*
X0064785Y0092479D03*
X0064785Y0092396D03*
X0064785Y0092229D03*
X0064785Y0092146D03*
X0064785Y0091979D03*
X0064785Y0091896D03*
X0064785Y0091729D03*
X0064785Y0091646D03*
X0064785Y0091479D03*
X0064785Y0091396D03*
X0064785Y0091229D03*
X0064785Y0091146D03*
X0064785Y0090979D03*
X0064785Y0090896D03*
X0064785Y0090729D03*
X0064785Y0090646D03*
X0064785Y0090479D03*
X0064785Y0090396D03*
X0064785Y0090229D03*
X0064785Y0090146D03*
X0064785Y0089979D03*
X0064785Y0089896D03*
X0064785Y0089729D03*
X0064785Y0089646D03*
X0064785Y0089479D03*
X0064785Y0089396D03*
X0064785Y0089229D03*
X0064785Y0089146D03*
X0064785Y0088979D03*
X0064785Y0088896D03*
X0064785Y0088729D03*
X0064785Y0088646D03*
X0064785Y0088479D03*
X0064785Y0088396D03*
X0064785Y0088229D03*
X0064785Y0088146D03*
X0064785Y0087979D03*
X0064785Y0087896D03*
X0064785Y0087729D03*
X0064785Y0087646D03*
X0064785Y0087479D03*
X0064785Y0087396D03*
X0064785Y0087229D03*
X0064785Y0087146D03*
X0064785Y0086979D03*
X0064785Y0086896D03*
X0064785Y0086729D03*
X0064785Y0086646D03*
X0064785Y0086479D03*
X0064785Y0086396D03*
X0064785Y0086229D03*
X0064785Y0086146D03*
X0064785Y0085979D03*
X0064785Y0085896D03*
X0064785Y0085729D03*
X0064785Y0085646D03*
X0064785Y0085479D03*
X0064785Y0085396D03*
X0064785Y0085229D03*
X0064785Y0085146D03*
X0064785Y0084979D03*
X0064785Y0084896D03*
X0064785Y0084729D03*
X0064785Y0084646D03*
X0064785Y0084479D03*
X0064785Y0084396D03*
X0064785Y0084229D03*
X0064785Y0084146D03*
X0064785Y0083979D03*
X0064785Y0083896D03*
X0064785Y0083729D03*
X0064785Y0083646D03*
X0064785Y0083479D03*
X0064785Y0083396D03*
X0064785Y0078229D03*
X0064785Y0078146D03*
X0064785Y0077979D03*
X0064785Y0077896D03*
X0064785Y0077729D03*
X0064785Y0077646D03*
X0064785Y0077479D03*
X0064785Y0077396D03*
X0064785Y0077229D03*
X0064785Y0077146D03*
X0064785Y0076979D03*
X0064785Y0076896D03*
X0064785Y0076729D03*
X0064785Y0076646D03*
X0064785Y0076479D03*
X0064785Y0076396D03*
X0064785Y0076229D03*
X0064785Y0076146D03*
X0064785Y0075979D03*
X0064785Y0075896D03*
X0064785Y0075729D03*
X0064785Y0075646D03*
X0064785Y0075479D03*
X0064785Y0075396D03*
X0064785Y0075229D03*
X0064785Y0075146D03*
X0064785Y0074979D03*
X0064785Y0074896D03*
X0064785Y0074729D03*
X0064785Y0074646D03*
X0064785Y0074479D03*
X0064785Y0074396D03*
X0064785Y0074229D03*
X0064785Y0074146D03*
X0064785Y0073979D03*
X0064785Y0073896D03*
X0064785Y0073729D03*
X0064785Y0073646D03*
X0064785Y0073479D03*
X0064785Y0073396D03*
X0064785Y0073229D03*
X0064785Y0073146D03*
X0064785Y0072979D03*
X0064785Y0072896D03*
X0064785Y0072729D03*
X0064785Y0072646D03*
X0064785Y0072479D03*
X0064785Y0072396D03*
X0064785Y0072229D03*
X0064785Y0072146D03*
X0064785Y0071979D03*
X0064785Y0071896D03*
X0064785Y0071729D03*
X0064785Y0071646D03*
X0064785Y0071479D03*
X0064785Y0071396D03*
X0064785Y0071229D03*
X0064785Y0071146D03*
X0064785Y0070979D03*
X0064785Y0070896D03*
X0064785Y0070729D03*
X0064785Y0070646D03*
X0064785Y0070479D03*
X0064785Y0070396D03*
X0064785Y0070229D03*
X0064785Y0070146D03*
X0064785Y0069979D03*
X0064785Y0069896D03*
X0064785Y0069729D03*
X0064785Y0069646D03*
X0064785Y0069479D03*
X0064785Y0069396D03*
X0064785Y0069229D03*
X0064785Y0069146D03*
X0064785Y0068979D03*
X0064785Y0068896D03*
X0064785Y0068729D03*
X0064785Y0068646D03*
X0064785Y0068479D03*
X0064785Y0068396D03*
X0089955Y0068396D03*
X0089955Y0068479D03*
X0089955Y0068646D03*
X0089955Y0068729D03*
X0089955Y0068896D03*
X0089955Y0068979D03*
X0089955Y0069146D03*
X0089955Y0069229D03*
X0089955Y0069396D03*
X0089955Y0069479D03*
X0089955Y0069646D03*
X0089955Y0069729D03*
X0089955Y0069896D03*
X0089955Y0069979D03*
X0089955Y0070146D03*
X0089955Y0070229D03*
X0089955Y0070396D03*
X0089955Y0070479D03*
X0089955Y0070646D03*
X0089955Y0070729D03*
X0089955Y0070896D03*
X0089955Y0070979D03*
X0089955Y0071146D03*
X0089955Y0071229D03*
X0089955Y0071396D03*
X0089955Y0071479D03*
X0089955Y0071646D03*
X0089955Y0071729D03*
X0089955Y0071896D03*
X0089955Y0071979D03*
X0089955Y0072146D03*
X0089955Y0072229D03*
X0089955Y0072396D03*
X0089955Y0072479D03*
X0089955Y0072646D03*
X0089955Y0072729D03*
X0089955Y0072896D03*
X0089955Y0072979D03*
X0089955Y0073146D03*
X0089955Y0073229D03*
X0089955Y0073396D03*
X0089955Y0073479D03*
X0089955Y0073646D03*
X0089955Y0073729D03*
X0089955Y0073896D03*
X0089955Y0073979D03*
X0089955Y0074146D03*
X0089955Y0074229D03*
X0089955Y0074396D03*
X0089955Y0074479D03*
X0089955Y0074646D03*
X0089955Y0074729D03*
X0089955Y0074896D03*
X0089955Y0074979D03*
X0089955Y0075146D03*
X0089955Y0075229D03*
X0089955Y0075396D03*
X0089955Y0075479D03*
X0089955Y0075646D03*
X0089955Y0075729D03*
X0089955Y0075896D03*
X0089955Y0075979D03*
X0089955Y0076146D03*
X0089955Y0076229D03*
X0089955Y0076396D03*
X0089955Y0076479D03*
X0089955Y0076646D03*
X0089955Y0076729D03*
X0089955Y0076896D03*
X0089955Y0076979D03*
X0089955Y0077146D03*
X0089955Y0077229D03*
X0089955Y0077396D03*
X0089955Y0077479D03*
X0089955Y0077646D03*
X0089955Y0077729D03*
X0089955Y0077896D03*
X0089955Y0077979D03*
X0089955Y0078146D03*
X0089955Y0078229D03*
X0089955Y0083396D03*
X0089955Y0083479D03*
X0089955Y0083646D03*
X0089955Y0083729D03*
X0089955Y0083896D03*
X0089955Y0083979D03*
X0089955Y0084146D03*
X0089955Y0084229D03*
X0089955Y0084396D03*
X0089955Y0084479D03*
X0089955Y0084646D03*
X0089955Y0084729D03*
X0089955Y0084896D03*
X0089955Y0084979D03*
X0089955Y0085146D03*
X0089955Y0085229D03*
X0089955Y0085396D03*
X0089955Y0085479D03*
X0089955Y0085646D03*
X0089955Y0085729D03*
X0089955Y0085896D03*
X0089955Y0085979D03*
X0089955Y0086146D03*
X0089955Y0086229D03*
X0089955Y0086396D03*
X0089955Y0086479D03*
X0089955Y0086646D03*
X0089955Y0086729D03*
X0089955Y0086896D03*
X0089955Y0086979D03*
X0089955Y0087146D03*
X0089955Y0087229D03*
X0089955Y0087396D03*
X0089955Y0087479D03*
X0089955Y0087646D03*
X0089955Y0087729D03*
X0089955Y0087896D03*
X0089955Y0087979D03*
X0089955Y0088146D03*
X0089955Y0088229D03*
X0089955Y0088396D03*
X0089955Y0088479D03*
X0089955Y0088646D03*
X0089955Y0088729D03*
X0089955Y0088896D03*
X0089955Y0088979D03*
X0089955Y0089146D03*
X0089955Y0089229D03*
X0089955Y0089396D03*
X0089955Y0089479D03*
X0089955Y0089646D03*
X0089955Y0089729D03*
X0089955Y0089896D03*
X0089955Y0089979D03*
X0089955Y0090146D03*
X0089955Y0090229D03*
X0089955Y0090396D03*
X0089955Y0090479D03*
X0089955Y0090646D03*
X0089955Y0090729D03*
X0089955Y0090896D03*
X0089955Y0090979D03*
X0089955Y0091146D03*
X0089955Y0091229D03*
X0089955Y0091396D03*
X0089955Y0091479D03*
X0089955Y0091646D03*
X0089955Y0091729D03*
X0089955Y0091896D03*
X0089955Y0091979D03*
X0089955Y0092146D03*
X0089955Y0092229D03*
X0089955Y0092396D03*
X0089955Y0092479D03*
X0089955Y0092646D03*
X0089955Y0092729D03*
X0089955Y0092896D03*
X0089955Y0092979D03*
X0089955Y0093146D03*
X0089955Y0093229D03*
X0100035Y0098479D03*
X0100035Y0098646D03*
X0100035Y0098729D03*
X0100035Y0098896D03*
X0100035Y0098979D03*
X0100035Y0099146D03*
X0100035Y0099229D03*
X0100035Y0099396D03*
X0100035Y0099479D03*
X0100035Y0099646D03*
X0100035Y0099729D03*
X0100035Y0099896D03*
X0100035Y0099979D03*
X0100035Y0100146D03*
X0100035Y0100229D03*
X0100035Y0100396D03*
X0100035Y0100479D03*
X0100035Y0100646D03*
X0100035Y0100729D03*
X0100035Y0100896D03*
X0100035Y0100979D03*
X0100035Y0101146D03*
X0100035Y0101229D03*
X0100035Y0101396D03*
X0100035Y0101479D03*
X0100035Y0101646D03*
X0100035Y0101729D03*
X0100035Y0101896D03*
X0100035Y0101979D03*
X0100035Y0102146D03*
X0100035Y0102229D03*
X0100035Y0102396D03*
X0100035Y0102479D03*
X0100035Y0102646D03*
X0100035Y0102729D03*
X0100035Y0102896D03*
X0100035Y0102979D03*
X0100035Y0103146D03*
X0100035Y0103229D03*
X0100035Y0103396D03*
D22*
X0077370Y0083312D03*
X0077370Y0083062D03*
X0077370Y0082812D03*
X0077370Y0082562D03*
X0077370Y0082312D03*
X0077370Y0082062D03*
X0077370Y0081812D03*
X0077370Y0081562D03*
X0077370Y0081312D03*
X0077370Y0081062D03*
X0077370Y0080812D03*
X0077370Y0080562D03*
X0077370Y0080312D03*
X0077370Y0080062D03*
X0077370Y0079812D03*
X0077370Y0079562D03*
X0077370Y0079312D03*
X0077370Y0079062D03*
X0077370Y0078812D03*
X0077370Y0078562D03*
X0077370Y0078312D03*
D23*
X0077370Y0078396D03*
X0077370Y0078479D03*
X0077370Y0078646D03*
X0077370Y0078729D03*
X0077370Y0078896D03*
X0077370Y0078979D03*
X0077370Y0079146D03*
X0077370Y0079229D03*
X0077370Y0079396D03*
X0077370Y0079479D03*
X0077370Y0079646D03*
X0077370Y0079729D03*
X0077370Y0079896D03*
X0077370Y0079979D03*
X0077370Y0080146D03*
X0077370Y0080229D03*
X0077370Y0080396D03*
X0077370Y0080479D03*
X0077370Y0080646D03*
X0077370Y0080729D03*
X0077370Y0080896D03*
X0077370Y0080979D03*
X0077370Y0081146D03*
X0077370Y0081229D03*
X0077370Y0081396D03*
X0077370Y0081479D03*
X0077370Y0081646D03*
X0077370Y0081729D03*
X0077370Y0081896D03*
X0077370Y0081979D03*
X0077370Y0082146D03*
X0077370Y0082229D03*
X0077370Y0082396D03*
X0077370Y0082479D03*
X0077370Y0082646D03*
X0077370Y0082729D03*
X0077370Y0082896D03*
X0077370Y0082979D03*
X0077370Y0083146D03*
X0077370Y0083229D03*
D24*
X0107580Y0088396D03*
X0107580Y0088479D03*
X0107580Y0088646D03*
X0107580Y0088729D03*
X0107580Y0088896D03*
X0107580Y0088979D03*
X0107580Y0089146D03*
X0107580Y0089229D03*
X0107580Y0089396D03*
X0107580Y0089479D03*
X0107580Y0089646D03*
X0107580Y0089729D03*
X0107580Y0089896D03*
X0107580Y0089979D03*
X0107580Y0090146D03*
X0107580Y0090229D03*
X0107580Y0090396D03*
X0107580Y0090479D03*
X0107580Y0090646D03*
X0107580Y0090729D03*
X0107580Y0090896D03*
X0107580Y0090979D03*
X0107580Y0091146D03*
X0107580Y0091229D03*
X0107580Y0091396D03*
X0107580Y0091479D03*
X0107580Y0091646D03*
X0107580Y0091729D03*
X0107580Y0091896D03*
X0107580Y0091979D03*
X0107580Y0092146D03*
X0107580Y0092229D03*
X0107580Y0092396D03*
X0107580Y0092479D03*
X0107580Y0092646D03*
X0107580Y0092729D03*
X0107580Y0092896D03*
X0107580Y0092979D03*
X0107580Y0093146D03*
X0107580Y0093229D03*
X0107580Y0093396D03*
X0107580Y0093479D03*
X0107580Y0093646D03*
X0107580Y0093729D03*
X0107580Y0093896D03*
X0107580Y0093979D03*
X0107580Y0094146D03*
X0107580Y0094229D03*
X0107580Y0094396D03*
X0107580Y0094479D03*
X0107580Y0094646D03*
X0107580Y0094729D03*
X0107580Y0094896D03*
X0107580Y0094979D03*
X0107580Y0095146D03*
X0107580Y0095229D03*
X0107580Y0095396D03*
X0107580Y0095479D03*
X0107580Y0095646D03*
X0107580Y0095729D03*
X0107580Y0095896D03*
X0107580Y0095979D03*
X0107580Y0096146D03*
X0107580Y0096229D03*
X0107580Y0096396D03*
X0107580Y0096479D03*
X0107580Y0096646D03*
X0107580Y0096729D03*
X0107580Y0096896D03*
X0107580Y0096979D03*
X0107580Y0097146D03*
X0107580Y0097229D03*
X0107580Y0097396D03*
X0107580Y0097479D03*
X0107580Y0097646D03*
X0107580Y0097729D03*
X0107580Y0097896D03*
X0107580Y0097979D03*
X0107580Y0098146D03*
X0107580Y0098229D03*
X0107580Y0098396D03*
D25*
X0107580Y0098312D03*
X0107580Y0098062D03*
X0107580Y0097812D03*
X0107580Y0097562D03*
X0107580Y0097312D03*
X0107580Y0097062D03*
X0107580Y0096812D03*
X0107580Y0096562D03*
X0107580Y0096312D03*
X0107580Y0096062D03*
X0107580Y0095812D03*
X0107580Y0095562D03*
X0107580Y0095312D03*
X0107580Y0095062D03*
X0107580Y0094812D03*
X0107580Y0094562D03*
X0107580Y0094312D03*
X0107580Y0094062D03*
X0107580Y0093812D03*
X0107580Y0093562D03*
X0107580Y0093312D03*
X0107580Y0093062D03*
X0107580Y0092812D03*
X0107580Y0092562D03*
X0107580Y0092312D03*
X0107580Y0092062D03*
X0107580Y0091812D03*
X0107580Y0091562D03*
X0107580Y0091312D03*
X0107580Y0091062D03*
X0107580Y0090812D03*
X0107580Y0090562D03*
X0107580Y0090312D03*
X0107580Y0090062D03*
X0107580Y0089812D03*
X0107580Y0089562D03*
X0107580Y0089312D03*
X0107580Y0089062D03*
X0107580Y0088812D03*
X0107580Y0088562D03*
D26*
X0069830Y0093396D03*
X0069830Y0093479D03*
X0069830Y0093646D03*
X0069830Y0093729D03*
X0069830Y0093896D03*
X0069830Y0093979D03*
X0069830Y0094146D03*
X0069830Y0094229D03*
X0069830Y0094396D03*
X0069830Y0094479D03*
X0069830Y0094646D03*
X0069830Y0094729D03*
X0069830Y0094896D03*
X0069830Y0094979D03*
X0069830Y0095146D03*
X0069830Y0095229D03*
X0069830Y0095396D03*
X0069830Y0095479D03*
X0069830Y0095646D03*
X0069830Y0095729D03*
X0069830Y0095896D03*
X0069830Y0095979D03*
X0069830Y0096146D03*
X0069830Y0096229D03*
X0069830Y0096396D03*
X0069830Y0096479D03*
X0069830Y0096646D03*
X0069830Y0096729D03*
X0069830Y0096896D03*
X0069830Y0096979D03*
X0069830Y0097146D03*
X0069830Y0097229D03*
X0069830Y0097396D03*
X0069830Y0097479D03*
X0069830Y0097646D03*
X0069830Y0097729D03*
X0069830Y0097896D03*
X0069830Y0097979D03*
X0069830Y0098146D03*
X0069830Y0098229D03*
X0069830Y0098396D03*
X0064830Y0103479D03*
X0064830Y0103646D03*
X0064830Y0103729D03*
X0064830Y0103896D03*
X0064830Y0103979D03*
X0064830Y0104146D03*
X0064830Y0104229D03*
X0064830Y0104396D03*
X0064830Y0104479D03*
X0064830Y0104646D03*
X0064830Y0104729D03*
X0064830Y0104896D03*
X0064830Y0104979D03*
X0064830Y0105146D03*
X0064830Y0105229D03*
X0064830Y0105396D03*
X0064830Y0105479D03*
X0064830Y0105646D03*
X0064830Y0105729D03*
X0064830Y0105896D03*
X0064830Y0105979D03*
X0064830Y0106146D03*
X0064830Y0106229D03*
X0064830Y0106396D03*
X0064830Y0106479D03*
X0064830Y0106646D03*
X0064830Y0106729D03*
X0064830Y0106896D03*
X0064830Y0106979D03*
X0064830Y0107146D03*
X0064830Y0107229D03*
X0064830Y0107396D03*
X0064830Y0107479D03*
X0064830Y0107646D03*
X0064830Y0107729D03*
X0064830Y0107896D03*
X0064830Y0107979D03*
X0064830Y0108146D03*
X0064830Y0108229D03*
X0064830Y0108396D03*
X0064830Y0108479D03*
D27*
X0054745Y0103396D03*
X0054745Y0103229D03*
X0054745Y0103146D03*
X0054745Y0102979D03*
X0054745Y0102896D03*
X0054745Y0102729D03*
X0054745Y0102646D03*
X0054745Y0102479D03*
X0054745Y0102396D03*
X0054745Y0102229D03*
X0054745Y0102146D03*
X0054745Y0101979D03*
X0054745Y0101896D03*
X0054745Y0101729D03*
X0054745Y0101646D03*
X0054745Y0101479D03*
X0054745Y0101396D03*
X0054745Y0101229D03*
X0054745Y0101146D03*
X0054745Y0100979D03*
X0054745Y0100896D03*
X0054745Y0100729D03*
X0054745Y0100646D03*
X0054745Y0100479D03*
X0054745Y0100396D03*
X0054745Y0100229D03*
X0054745Y0100146D03*
X0054745Y0099979D03*
X0054745Y0099896D03*
X0054745Y0099729D03*
X0054745Y0099646D03*
X0054745Y0099479D03*
X0054745Y0099396D03*
X0054745Y0099229D03*
X0054745Y0099146D03*
X0054745Y0098979D03*
X0054745Y0098896D03*
X0054745Y0098729D03*
X0054745Y0098646D03*
X0054745Y0098479D03*
X0084915Y0098396D03*
X0084915Y0098229D03*
X0084915Y0098146D03*
X0084915Y0097979D03*
X0084915Y0097896D03*
X0084915Y0097729D03*
X0084915Y0097646D03*
X0084915Y0097479D03*
X0084915Y0097396D03*
X0084915Y0097229D03*
X0084915Y0097146D03*
X0084915Y0096979D03*
X0084915Y0096896D03*
X0084915Y0096729D03*
X0084915Y0096646D03*
X0084915Y0096479D03*
X0084915Y0096396D03*
X0084915Y0096229D03*
X0084915Y0096146D03*
X0084915Y0095979D03*
X0084915Y0095896D03*
X0084915Y0095729D03*
X0084915Y0095646D03*
X0084915Y0095479D03*
X0084915Y0095396D03*
X0084915Y0095229D03*
X0084915Y0095146D03*
X0084915Y0094979D03*
X0084915Y0094896D03*
X0084915Y0094729D03*
X0084915Y0094646D03*
X0084915Y0094479D03*
X0084915Y0094396D03*
X0084915Y0094229D03*
X0084915Y0094146D03*
X0084915Y0093979D03*
X0084915Y0093896D03*
X0084915Y0093729D03*
X0084915Y0093646D03*
X0084915Y0093479D03*
X0084915Y0093396D03*
X0089995Y0103479D03*
X0089995Y0103646D03*
X0089995Y0103729D03*
X0089995Y0103896D03*
X0089995Y0103979D03*
X0089995Y0104146D03*
X0089995Y0104229D03*
X0089995Y0104396D03*
X0089995Y0104479D03*
X0089995Y0104646D03*
X0089995Y0104729D03*
X0089995Y0104896D03*
X0089995Y0104979D03*
X0089995Y0105146D03*
X0089995Y0105229D03*
X0089995Y0105396D03*
X0089995Y0105479D03*
X0089995Y0105646D03*
X0089995Y0105729D03*
X0089995Y0105896D03*
X0089995Y0105979D03*
X0089995Y0106146D03*
X0089995Y0106229D03*
X0089995Y0106396D03*
X0089995Y0106479D03*
X0089995Y0106646D03*
X0089995Y0106729D03*
X0089995Y0106896D03*
X0089995Y0106979D03*
X0089995Y0107146D03*
X0089995Y0107229D03*
X0089995Y0107396D03*
X0089995Y0107479D03*
X0089995Y0107646D03*
X0089995Y0107729D03*
X0089995Y0107896D03*
X0089995Y0107979D03*
X0089995Y0108146D03*
X0089995Y0108229D03*
X0089995Y0108396D03*
X0089995Y0108479D03*
D28*
X0069830Y0098312D03*
X0069830Y0098062D03*
X0069830Y0097812D03*
X0069830Y0097562D03*
X0069830Y0097312D03*
X0069830Y0097062D03*
X0069830Y0096812D03*
X0069830Y0096562D03*
X0069830Y0096312D03*
X0069830Y0096062D03*
X0069830Y0095812D03*
X0069830Y0095562D03*
X0069830Y0095312D03*
X0069830Y0095062D03*
X0069830Y0094812D03*
X0069830Y0094562D03*
X0069830Y0094312D03*
X0069830Y0094062D03*
X0069830Y0093812D03*
X0069830Y0093562D03*
X0064830Y0103562D03*
X0064830Y0103812D03*
X0064830Y0104062D03*
X0064830Y0104312D03*
X0064830Y0104562D03*
X0064830Y0104812D03*
X0064830Y0105062D03*
X0064830Y0105312D03*
X0064830Y0105562D03*
X0064830Y0105812D03*
X0064830Y0106062D03*
X0064830Y0106312D03*
X0064830Y0106562D03*
X0064830Y0106812D03*
X0064830Y0107062D03*
X0064830Y0107312D03*
X0064830Y0107562D03*
X0064830Y0107812D03*
X0064830Y0108062D03*
X0064830Y0108312D03*
D29*
X0054745Y0103312D03*
X0054745Y0103062D03*
X0054745Y0102812D03*
X0054745Y0102562D03*
X0054745Y0102312D03*
X0054745Y0102062D03*
X0054745Y0101812D03*
X0054745Y0101562D03*
X0054745Y0101312D03*
X0054745Y0101062D03*
X0054745Y0100812D03*
X0054745Y0100562D03*
X0054745Y0100312D03*
X0054745Y0100062D03*
X0054745Y0099812D03*
X0054745Y0099562D03*
X0054745Y0099312D03*
X0054745Y0099062D03*
X0054745Y0098812D03*
X0054745Y0098562D03*
X0084915Y0098312D03*
X0084915Y0098062D03*
X0084915Y0097812D03*
X0084915Y0097562D03*
X0084915Y0097312D03*
X0084915Y0097062D03*
X0084915Y0096812D03*
X0084915Y0096562D03*
X0084915Y0096312D03*
X0084915Y0096062D03*
X0084915Y0095812D03*
X0084915Y0095562D03*
X0084915Y0095312D03*
X0084915Y0095062D03*
X0084915Y0094812D03*
X0084915Y0094562D03*
X0084915Y0094312D03*
X0084915Y0094062D03*
X0084915Y0093812D03*
X0084915Y0093562D03*
X0089995Y0103562D03*
X0089995Y0103812D03*
X0089995Y0104062D03*
X0089995Y0104312D03*
X0089995Y0104562D03*
X0089995Y0104812D03*
X0089995Y0105062D03*
X0089995Y0105312D03*
X0089995Y0105562D03*
X0089995Y0105812D03*
X0089995Y0106062D03*
X0089995Y0106312D03*
X0089995Y0106562D03*
X0089995Y0106812D03*
X0089995Y0107062D03*
X0089995Y0107312D03*
X0089995Y0107562D03*
X0089995Y0107812D03*
X0089995Y0108062D03*
X0089995Y0108312D03*
D30*
X0077370Y0103396D03*
X0077370Y0103229D03*
X0077370Y0103146D03*
X0077370Y0102979D03*
X0077370Y0102896D03*
X0077370Y0102729D03*
X0077370Y0102646D03*
X0077370Y0102479D03*
X0077370Y0102396D03*
X0077370Y0102229D03*
X0077370Y0102146D03*
X0077370Y0101979D03*
X0077370Y0101896D03*
X0077370Y0101729D03*
X0077370Y0101646D03*
X0077370Y0101479D03*
X0077370Y0101396D03*
X0077370Y0101229D03*
X0077370Y0101146D03*
X0077370Y0100979D03*
X0077370Y0100896D03*
X0077370Y0100729D03*
X0077370Y0100646D03*
X0077370Y0100479D03*
X0077370Y0100396D03*
X0077370Y0100229D03*
X0077370Y0100146D03*
X0077370Y0099979D03*
X0077370Y0099896D03*
X0077370Y0099729D03*
X0077370Y0099646D03*
X0077370Y0099479D03*
X0077370Y0099396D03*
X0077370Y0099229D03*
X0077370Y0099146D03*
X0077370Y0098979D03*
X0077370Y0098896D03*
X0077370Y0098729D03*
X0077370Y0098646D03*
X0077370Y0098479D03*
D31*
X0077370Y0098562D03*
X0077370Y0098812D03*
X0077370Y0099062D03*
X0077370Y0099312D03*
X0077370Y0099562D03*
X0077370Y0099812D03*
X0077370Y0100062D03*
X0077370Y0100312D03*
X0077370Y0100562D03*
X0077370Y0100812D03*
X0077370Y0101062D03*
X0077370Y0101312D03*
X0077370Y0101562D03*
X0077370Y0101812D03*
X0077370Y0102062D03*
X0077370Y0102312D03*
X0077370Y0102562D03*
X0077370Y0102812D03*
X0077370Y0103062D03*
X0077370Y0103312D03*
D32*
X0077415Y0108562D03*
X0077415Y0108812D03*
X0077415Y0109062D03*
X0077415Y0109312D03*
X0077415Y0109562D03*
X0077415Y0109812D03*
X0077415Y0110062D03*
X0077415Y0110312D03*
X0077415Y0110562D03*
X0077415Y0110812D03*
X0077415Y0111062D03*
X0077415Y0111312D03*
X0077415Y0111562D03*
X0077415Y0111812D03*
X0077415Y0112062D03*
X0077415Y0112312D03*
X0077415Y0112562D03*
X0077415Y0112812D03*
X0077415Y0113062D03*
X0077415Y0113312D03*
D33*
X0077415Y0113229D03*
X0077415Y0113146D03*
X0077415Y0112979D03*
X0077415Y0112896D03*
X0077415Y0112729D03*
X0077415Y0112646D03*
X0077415Y0112479D03*
X0077415Y0112396D03*
X0077415Y0112229D03*
X0077415Y0112146D03*
X0077415Y0111979D03*
X0077415Y0111896D03*
X0077415Y0111729D03*
X0077415Y0111646D03*
X0077415Y0111479D03*
X0077415Y0111396D03*
X0077415Y0111229D03*
X0077415Y0111146D03*
X0077415Y0110979D03*
X0077415Y0110896D03*
X0077415Y0110729D03*
X0077415Y0110646D03*
X0077415Y0110479D03*
X0077415Y0110396D03*
X0077415Y0110229D03*
X0077415Y0110146D03*
X0077415Y0109979D03*
X0077415Y0109896D03*
X0077415Y0109729D03*
X0077415Y0109646D03*
X0077415Y0109479D03*
X0077415Y0109396D03*
X0077415Y0109229D03*
X0077415Y0109146D03*
X0077415Y0108979D03*
X0077415Y0108896D03*
X0077415Y0108729D03*
X0077415Y0108646D03*
X0077415Y0113396D03*
X0077415Y0113479D03*
M02*
